<?xml version="1.0" encoding="utf-8"?>
<!-- Generator: Adobe Illustrator 18.0.0, SVG Export Plug-In . SVG Version: 6.00 Build 0)  -->
<!DOCTYPE svg PUBLIC "-//W3C//DTD SVG 1.1//EN" "http://www.w3.org/Graphics/SVG/1.1/DTD/svg11.dtd">
<svg version="1.1" id="Capa_1" xmlns="http://www.w3.org/2000/svg" xmlns:xlink="http://www.w3.org/1999/xlink" x="0px" y="0px"
	 viewBox="0 0 246.7 280" enable-background="new 0 0 246.7 280" xml:space="preserve">
<g>
	<path fill="#FFFFFF" d="M198.4,265.9H46.7c-18.2,0-33-14.8-33-33v-191c0-18.2,14.8-33,33-33h151.7c18.2,0,33,14.8,33,33v191
		C231.3,251.2,216.6,265.9,198.4,265.9z"/>
	<g>
		<defs>
			<path id="SVGID_8_" d="M199,266H47.3c-18.2,0-33-14.8-33-33V42c0-18.2,14.8-33,33-33H199c18.2,0,33,14.8,33,33v191
				C231.9,251.2,217.2,266,199,266z"/>
		</defs>
		<clipPath id="SVGID_2_">
			<use xlink:href="#SVGID_8_"  overflow="visible"/>
		</clipPath>
		<g clip-path="url(#SVGID_2_)">
			<path fill="#DFB793" d="M151.6,241.2c0,0,28.2,49.7,42.7,59.4c16.1,10.8,72.7,4.2,72.7,4.2l2.3,8.1c0,0-60.9,17.3-83.4,5.2
				c-14.5-7.8-44.4-51.2-44.4-51.2L151.6,241.2z"/>
			<path fill="#6B6FA5" d="M129.6,247.5c-0.4,10.8,9.2,38.3,9.2,38.3l35.3-13.9c0,0-19.4-32.4-24.9-37.7c-4-3.8-7.7-7.8-13.3-5.1
				C131.5,231.2,129.9,241.1,129.6,247.5z"/>
			<path fill="#7677B6" d="M86.3,217.9c-21.6,9.9-23.7,9.2-33.2,40.2c-11.2,36.5-32.5,137.4-32.5,137.4l135.6,10.2
				c0,0,2.6-126.7,0.7-148c-1.6-18.3-7.7-24-18.3-34.6C127.7,212.3,101.3,211,86.3,217.9z"/>
			<g opacity="0.19">
				<path fill="#7677B6" d="M104.8,221.9c7.9-3.6,15.1-5,25.4-3.9c-12.8-5.6-32.2-5.4-44.2,0.2c-21.6,9.9-23.7,9.2-33.2,40.2
					c-11.2,36.5-32.5,137.4-32.5,137.4l19.3,1.2c3.4-16,19.6-102,29.7-135C78.9,230.9,83.2,231.8,104.8,221.9z"/>
			</g>
			<path opacity="0.31" fill="#7677B6" d="M136.4,223.1c-0.3,7.1-5.6,14-25.5,14.6c-12.5,0.4-23.1-8-23.1-15.1s10.6-7.7,23.1-7.7
				S136.6,218.8,136.4,223.1z"/>
			<g>
				<path fill="#EAC9AD" d="M143,56L143,56c37.3,4.4,64.3,36.6,60.1,71.9l-2.7,23.1c-3.9,33.5-34.3,57.8-69.3,56.5
					c0.1,2.3,0.3,4.6,0.6,6.9c1.4,8.4-0.3,13.8-8.3,16c-12.2,3.3-34.6-5-28.3-13.2c4.4-5.8,6.8-8.9,7.8-16.6
					c-25-11.9-40.9-37.7-37.7-65.5l2.7-23.1C72,76.7,105.6,51.6,143,56z"/>
				<path fill="#FFFFFF" d="M136.4,167.9c-0.5-5.1-10.2-1.3-19.2-11.8c-3.7-4.3-11.2,0.9-6.4,7.5
					C115.4,170.1,137.3,176.4,136.4,167.9z"/>
				
					<ellipse transform="matrix(-0.9932 -0.1163 0.1163 -0.9932 234.8391 244.1096)" fill="#1D1D1B" cx="124.5" cy="115.2" rx="3.4" ry="3.2"/>
				
					<ellipse transform="matrix(-0.9932 -0.1163 0.1163 -0.9932 352.6938 255.4678)" fill="#1D1D1B" cx="183.8" cy="117.4" rx="3.4" ry="3.2"/>
				<path fill="#EC6C4B" d="M202.8,50.7c11.9,10.4,14.2,33.3-8.6,41.2c-22.7,7.8-73.4-4-100.9-5.3c-5.5-0.3-2.7,40-9.5,39.5
					c-4.1-0.3-3.7-6.3-6.6-6.7c-4-0.5-23.6,0.9-22-21.3c3.3-46,41.3-67.8,97.1-49.7C163.6,52,191.7,40.9,202.8,50.7z"/>
				<path fill="#1D1D1B" d="M124,104.8c0.4,0,0.8-0.1,1.1-0.4c3.8-3.8,7.8-1.4,8-1.3c0.6,0.4,1.5,0.2,1.9-0.4
					c0.4-0.6,0.2-1.5-0.4-1.9c-2-1.3-7-2.6-11.3,1.6c-0.5,0.5-0.5,1.4,0,1.9C123.4,104.7,123.7,104.8,124,104.8z"/>
				<path fill="#1D1D1B" d="M197.6,107.8c0.3,0,0.7,0,1-0.3c0.6-0.5,0.7-1.3,0.3-1.9c-1.4-1.9-5.6-4.8-11.2-2.3
					c-0.7,0.3-1,1.1-0.7,1.8c0.3,0.7,1.1,1,1.8,0.7c5-2.2,7.9,1.3,8,1.5C196.9,107.6,197.2,107.7,197.6,107.8z"/>
				
					<ellipse transform="matrix(-0.9932 -0.1163 0.1163 -0.9932 112.2872 252.6688)" fill="#EAC9AD" cx="63.5" cy="123.1" rx="15.3" ry="14.5"/>
				<g opacity="0.41">
					<path opacity="0.15" fill="#DFB793" d="M106,216.6c4.4-5.8,6.8-8.9,7.8-16.6c-24.3-11.6-40-36.3-37.9-63.1
						c-1,0.1-2.1,0.1-3.1-0.1c-8.4-1-14.4-8.2-13.5-16.2c0.6-5.3,4.2-9.6,9-11.6c-1-0.3-1.9-0.5-3-0.6c-8.4-1-16,4.7-16.9,12.6
						c-0.9,7.9,5.1,15.2,13.5,16.2c1.1,0.1,2.1,0.1,3.1,0.1c-2.1,26.8,13.6,51.5,37.9,63.1c-0.9,7.7-3.3,10.8-7.8,16.6
						c-6.3,8.2,16.2,16.4,28.3,13.2c0,0,0,0,0,0C112.4,228.8,101.3,222.7,106,216.6z"/>
				</g>
				<path opacity="0.23" fill="#DFB793" d="M58.4,117.6c4.4-1,8.9,2.8,8.9,2.8s-2.1-0.2-4.5-0.2c-1.6,4.2,1.6,9.9,1.6,9.9
					s-6.6-5.6-5.7-9.6c-0.7,0.2-1,0.6-1.4,0.8C55.2,122.2,53.8,118.7,58.4,117.6z"/>
				<polygon fill="#E0C0A9" points="158.6,143.4 167,141.8 160,130.8 				"/>
				
					<ellipse transform="matrix(-0.9932 -0.1163 0.1163 -0.9932 222.9524 278.6507)" fill="#E0C0A9" cx="119.6" cy="132.8" rx="7" ry="4.9"/>
				
					<ellipse transform="matrix(-0.9932 -0.1163 0.1163 -0.9932 354.4517 290.0411)" fill="#E0C0A9" cx="185.7" cy="134.7" rx="7" ry="4.9"/>
				<path opacity="0.52" fill="#EC6C4B" d="M196.3,51.5c-2.3-0.8-7.3-1.6-9.6,1.3c-2.6,3.4-1.2,7.6,4.2,8.4
					c5.4,0.8,19.7,6.5,14.2,14.9s3.8,2.4,4.4-4.7C210.3,58.3,200.6,53,196.3,51.5z"/>
			</g>
			<path fill="#DFB793" d="M39.4,257.5c-7.9,13.6-23.1,49.2-12.7,61.7C37.1,331.7,142,304,142,304l-1.9-9.7c0,0-82.5,16.3-85.5,7.1
				c-2.9-9.2,17.1-53.4,16.3-57.5s-7.1-9.2-12.5-7.5S44.4,249,39.4,257.5z"/>
			<path fill="#7677B6" d="M52.8,235.1c-8.6,6.5-23.8,31.4-23.8,31.4l35,14.3c0,0,13-31.6,13.1-38.1c0.1-5.5-0.6-11.9-6.3-14.5
				C66.5,226.1,57.9,231.2,52.8,235.1z"/>
			<polygon fill="#656899" points="30.2,264.1 27.8,268 63.8,282.2 66.1,276.8 			"/>
			<polygon fill="#656899" points="151.1,282.1 152.4,286.4 175.6,274.2 172.9,269.3 			"/>
			<path fill="#E4B92F" d="M167.8,315.5h-16c-2.9,0-5.3-2.4-5.3-5.3v-33.3c0-2.9,2.4-5.3,5.3-5.3h16c2.9,0,5.3,2.4,5.3,5.3v33.3
				C173.1,313.1,170.8,315.5,167.8,315.5z"/>
			<path fill="#D7D8D8" d="M163.2,269.8c-1.5-12.7-4.9-17.5-22.2-20.8c-18.9-3.6-40.5-19.9-52.6-39.7c-18.7-30.6-23.8-69-23.9-69.4
				l1.9-0.2c0,0.4,5.1,38.4,23.6,68.6c11.9,19.4,33,35.4,51.4,38.9c18.6,3.5,22.2,9.5,23.7,22.4L163.2,269.8z"/>
			<path fill="#D7D8D8" d="M129.7,245.7c-1.5-2.1-2-4.4-1.5-6.8c1.4-6.9,11.1-13.2,20.5-19.3c6.9-4.5,13.5-8.7,15.4-12.4
				c1.2-2.3,2.1-5.1,2.8-8.2l1.8,0.4c-0.7,3.2-1.6,6.2-2.9,8.7c-2.1,4.2-8.9,8.5-16,13.1c-8.7,5.6-18.5,11.9-19.7,18.1
				c-0.4,1.8,0,3.6,1.2,5.3L129.7,245.7z"/>
			<path fill="#C6C5C6" d="M140.4,248L140.4,248c-0.3,0.9-1.3,1.4-2.2,1.1l-7.5-2.3c-0.9-0.3-1.4-1.3-1.1-2.2l0,0
				c0.3-0.9,1.3-1.4,2.2-1.1l7.5,2.3C140.1,246.1,140.7,247.1,140.4,248z"/>
			<g>
				<path fill="#C6C5C6" d="M62.1,119c0,0-8.2-1.9-9.8,4.7c-1.1,4.3,0.6,8.1,5.3,9.3c5,1.3,6.4,8.6,6.4,8.6l3.3-1.1
					c0,0-3.5-8.1-3.4-8.8c0.1-0.7,0.1-1.8-0.1-2.4c-0.4-1.3-1.6-2.6-2.3-5C60.9,122.1,62.1,119,62.1,119z"/>
				<path opacity="0.3" fill="#C6C5C6" d="M56.3,120.1c-2,0.6-3.4,2.7-3.6,4.9c-0.2,1.6,0,2.9,1.1,2.7c0.4-0.1,0-3.3,1.6-4.2
					c3.3-1.8,4.7,0.4,4.5-0.7c-0.1-1.2,0.2-2.2,0.8-2.8C61.3,119.5,57.5,119.8,56.3,120.1z"/>
				<path fill="#9F9F9F" d="M67,141l-2.8,0.7c-0.2,0.1-0.5-0.1-0.6-0.3l0,0c-0.1-0.2,0.1-0.5,0.3-0.6l2.8-0.7
					c0.2-0.1,0.5,0.1,0.6,0.3l0,0C67.4,140.7,67.3,140.9,67,141z"/>
			</g>
			<path fill="#E4B92F" d="M166,272.3h-2.9c-0.6,0-1.1-0.5-1.1-1.1v-0.5c0-0.6,0.5-1.1,1.1-1.1h2.9c0.6,0,1.1,0.5,1.1,1.1v0.5
				C167.1,271.8,166.6,272.3,166,272.3z"/>
			<circle fill="#D3A72E" cx="169.3" cy="275.4" r="1.1"/>
			<g opacity="0.15">
				<path fill="#7677B6" d="M58,238c4.1-3.2,11.6-7,16.2-7.4c-0.7-0.8-2.1-1.9-3.3-2.4c-4.4-2-13.7,3.5-18.8,7.4
					c-8.6,6.6-23.5,31.6-23.5,31.6l6,2.2C36.3,266.7,49.9,244.2,58,238z"/>
			</g>
		</g>
	</g>
</g>
</svg>
