<?xml version="1.0" encoding="utf-8"?>
<!-- Generator: Adobe Illustrator 18.0.0, SVG Export Plug-In . SVG Version: 6.00 Build 0)  -->
<!DOCTYPE svg PUBLIC "-//W3C//DTD SVG 1.1//EN" "http://www.w3.org/Graphics/SVG/1.1/DTD/svg11.dtd">
<svg version="1.1" id="Capa_1" xmlns="http://www.w3.org/2000/svg" xmlns:xlink="http://www.w3.org/1999/xlink" x="0px" y="0px"
	 viewBox="0 0 246.7 280" enable-background="new 0 0 246.7 280" xml:space="preserve">
<g>
	<path fill="#FFFFFF" d="M199.4,269.8H47.7c-18.2,0-33-14.8-33-33v-191c0-18.2,14.8-33,33-33h151.7c18.2,0,33,14.8,33,33v191
		C232.3,255.1,217.6,269.8,199.4,269.8z"/>
	<g>
		<defs>
			<path id="SVGID_12_" d="M200.2,269.7H48.6c-18.2,0-33-14.8-33-33v-191c0-18.2,14.8-33,33-33h151.7c18.2,0,33,14.8,33,33v191
				C233.2,255,218.4,269.7,200.2,269.7z"/>
		</defs>
		<clipPath id="SVGID_2_">
			<use xlink:href="#SVGID_12_"  overflow="visible"/>
		</clipPath>
		<g clip-path="url(#SVGID_2_)">
			<g>
				<g>
					<g>
						<path fill="#EAC9AD" d="M87.7,217.5c0,0-38,42.7-54.2,49.2c-18,7.2-72-11.1-72-11.1l-3.9,7.5c0,0,55.9,29.6,80.4,22.5
							c15.8-4.6,54.1-40.8,54.1-40.8L87.7,217.5z"/>
						<g>
							<path fill="#44B8B8" d="M66.2,248.2c-1.7,14.6,0.8,18.8,1.7,37.1c0.8,15.9-5.7,80.3-5.7,80.3s20.3,7.8,67,7.1
								c11.4-0.2,47.8-9.4,47.8-9.4s-4.8-44.5-6.8-60.2c-2.2-17.4-9.9-65.1-13.4-74.7c-6.8-18.9-43.4-31-60.6-22.9
								C79,213.7,67.6,236.6,66.2,248.2z"/>
							<g opacity="0.26">
								<path fill="#7777B6" d="M145.6,234.6c3.5,9.6,11.2,57.3,13.4,74.7c1.7,13.2,5.3,46.9,6.4,57.1c6.7-1.6,11.6-2.8,11.6-2.8
									s-4.8-44.5-6.8-60.2c-2.2-17.4-9.9-65.1-13.4-74.7c-6.8-18.9-43.4-31-60.6-22.9c-2.3,1.1-4.5,2.5-6.6,4.2
									C108.1,205.6,139.4,217.2,145.6,234.6z"/>
							</g>
							<g>
								<g>
									<path fill="#7777B6" d="M119.2,46.2c0,0,112.6-0.9,90.7,78.2s-20.4,79.6-6,78.1s10.7,14.4,2.7,16.3
										c-14.1,3.4-74.1-1.6-100.3-19.8c-16.1-11.2-41-140.4-26.3-147.6C101,41.1,119.2,46.2,119.2,46.2z"/>
									<path opacity="0.16" fill="#7777B6" d="M183.8,158.4c-4.3,6.5-5.2,17.1-6.3,29.5c-1.5,16.6,14.3,16.9,13.8,21.5
										c-0.5,4.2-10.8,9.1-32.2,3.6s-23.4-5.1-29.4-5.6s-14.9-9.8-9.1-14.4c5.8-4.6,46-37.8,49.5-34.9s1.2-3,4.1-5.5
										c2.8-2.5,6.1-3.5,6.3-2S192,146.1,183.8,158.4z"/>
									<path fill="#EAC9AD" d="M128,65L128,65c-33-4.5-63.2,17.1-67.5,48.3l-2.8,20.3c-4.1,29.6,16.6,57.1,46.8,63.8
										c-0.6,1.9-1.2,3.9-2.1,5.7c-3.1,6.9-2.8,11.9,3.6,15.6c9.7,5.5,30.7,3.4,27.2-5c-2.5-5.9-3.9-9.1-3-15.9
										c24.1-4.7,43.4-23.2,46.8-47.7l2.8-20.3C184.2,98.6,161,69.6,128,65z"/>
									<g opacity="0.14">
										<path fill="#DFB793" d="M128.3,65c28,8.1,46.7,34.5,42.8,62.8l-2.8,20.3c-3.4,24.5-22.7,43.1-46.8,47.7
											c-0.9,6.8,0.5,10,3,15.9c2.5,5.8-7,8.6-16.2,7.9c10.3,4.1,28.2,1.7,24.9-6.1c-2.5-5.9-3.9-9.1-3-15.9
											c24.1-4.7,43.4-23.2,46.8-47.7l2.8-20.3C184.1,98.6,161.1,69.7,128.3,65z"/>
									</g>
									<path fill="#FFFFFF" d="M108.8,162.4c1.6-4.2,9,1.2,19.1-5.9c4.1-2.9,9.4,3.2,3.8,7.9C126.3,168.9,106.1,169.4,108.8,162.4
										z"/>
									
										<ellipse transform="matrix(0.9906 0.1366 -0.1366 0.9906 17.5492 -16.5797)" fill="#1D1D1B" cx="129.6" cy="119.6" rx="3" ry="2.9"/>
									
										<ellipse transform="matrix(0.9906 0.1366 -0.1366 0.9906 15.5104 -9.6112)" fill="#1D1D1B" cx="77.8" cy="108.2" rx="3" ry="2.9"/>
									<path fill="#7777B6" d="M79.9,51.4c0,0-31.4,21.9-3.8,33c19.7,8,58.6,21.2,82.4,26.1c4.8,1,15.8-3.8,17.7-2.9
										c5.1,2.6-10.7,6.4-10.5,8.8c0.8,12.1,10.3,21.8,13.6,20.6c3.3-1.2,18.4-5.1,22.1-24.5S156.9,39.5,79.9,51.4z"/>
									<path fill="#1D1D1B" d="M133.4,111.1c-0.3,0-0.7-0.2-0.9-0.6c-2.4-4.1-6.4-2.9-6.5-2.9c-0.6,0.2-1.3-0.2-1.5-0.8
										c-0.2-0.6,0.1-1.3,0.8-1.5c2-0.7,6.6-0.7,9.3,3.9c0.3,0.6,0.2,1.3-0.4,1.6C133.9,111.1,133.7,111.1,133.4,111.1z"/>
									<path fill="#1D1D1B" d="M69.7,97.3c-0.3,0-0.6-0.2-0.8-0.4c-0.4-0.5-0.3-1.3,0.2-1.7c1.6-1.3,5.9-2.9,10.1,0.5
										c0.5,0.4,0.6,1.2,0.2,1.7c-0.4,0.5-1.2,0.6-1.7,0.2c-3.8-3-7-0.6-7.2-0.5C70.4,97.2,70,97.3,69.7,97.3z"/>
									<path fill="#EC6C4B" d="M122.1,44.2c-8.7-0.7-26.5,1.8-26.5,1.8s61.8,18.7,77.6,35.6c14.7,15.7,12.2,47,12.2,47l7.6,8
										c0,0,12.9-36.9-1.1-60.4C180.2,56.6,148.4,46.3,122.1,44.2z"/>
									
										<ellipse transform="matrix(0.9906 0.1366 -0.1366 0.9906 20.8402 -23.436)" fill="#EAC9AD" cx="181.2" cy="140.1" rx="13.5" ry="12.8"/>
									<path opacity="0.23" fill="#DFB793" d="M186.8,136.6c-3.6-1.9-8.3,0.4-8.3,0.4s1.9,0.3,3.9,0.8c0.4,4-3.6,8.2-3.6,8.2
										s6.9-3.3,7-6.9c0.5,0.3,0.8,0.7,1.1,1C188.5,141.3,190.5,138.5,186.8,136.6z"/>
									<polygon fill="#E0C0A9" points="95.2,136.4 88.3,133.2 96.8,125.4 									"/>
									
										<ellipse transform="matrix(0.9906 0.1366 -0.1366 0.9906 19.8112 -16.6151)" fill="#E0C0A9" cx="131" cy="136" rx="6.2" ry="4.4"/>
									
										<ellipse transform="matrix(0.9906 0.1366 -0.1366 0.9906 17.4908 -8.9489)" fill="#E0C0A9" cx="73.9" cy="123" rx="6.2" ry="4.4"/>
									<g opacity="0.14">
										<path fill="#DFB793" d="M182.9,127.4c-2.4-0.3-4.7,0-6.8,0.7c0.9-0.1,1.9,0,2.8,0.1c7.4,1,12.6,7.5,11.7,14.5
											c-0.7,4.7-4,8.5-8.4,10.1c6.2-0.4,11.5-4.8,12.3-11C195.5,134.9,190.3,128.4,182.9,127.4z"/>
									</g>
								</g>
								<path opacity="0.16" fill="#7777B6" d="M172,85.6c0,0-2.5-3.9-4.2-2.3c-1.7,1.6,3.7,2.9,3.2,7.7s-16.2,8.5-11.7,11.1
									c4.5,2.6,17.3-1.3,18.5,2.1c1.2,3.5,2,10.7,3.2,6.3C182.2,106.2,179.2,90.5,172,85.6z"/>
								<path opacity="0.16" fill="#7777B6" d="M207.4,87.2c2.6,5.5,6.3,18.6,3.1,23.7s-7.7,6.6-7,2.9c4.1-22-2-30.6-4-35.9
									C196.3,69.5,206.1,84.4,207.4,87.2z"/>
							</g>
						</g>
						<path fill="#EAC9AD" d="M157.6,234.2c7.6,16.2,27.6,55.3,18.1,70.4c-10.2,16.3-74.9,5.4-74.9,5.4l0.2-10.2
							c0,0,48.9,7.6,56.4-5.2c7.2-12.2-13.9-42.7-17.4-57.2c-0.6-2.3,1.3-9,5.2-9.9C152,225.9,156.3,231.4,157.6,234.2z"/>
						<g>
							<g>
								<path fill="#D3ECF8" d="M101.6,280.7l-2.1-0.3l0.7-4.4l-7.5-1.2l-0.7,4.4l-1.7-0.3c-2-0.3-4.1,1.1-4.2,3.1
									c0,0.8,0.1,3,0.1,3s-0.8,2-0.9,2.7c-0.2,1.3,0.1,3.8-0.1,5.1c-0.2,1.1-1.3,4.4-1.3,4.4l-2.5,16.3c-0.3,2,1.1,3.9,3.1,4.2
									l11.3,1.7c2,0.3,3.9-1.1,4.2-3.1l2.4-15.4c0,0-0.5-3.5-0.2-4.8c0.2-1.2,1.6-3.8,1.8-5c0.2-1-0.1-3-0.1-3s0.8-2.4,1-3.2
									C105.2,282.9,103.7,281,101.6,280.7z"/>
								<path fill="#C5DBE4" d="M100.7,277.6l-9.1-1.4l0.2-1.2c0.2-1.3,1.4-2.1,2.7-2l4.5,0.7c1.3,0.2,2.1,1.4,2,2.7L100.7,277.6z"
									/>
							</g>
						</g>
					</g>
				</g>
			</g>
		</g>
	</g>
</g>
</svg>
