<?xml version="1.0" encoding="utf-8"?>
<!-- Generator: Adobe Illustrator 18.0.0, SVG Export Plug-In . SVG Version: 6.00 Build 0)  -->
<!DOCTYPE svg PUBLIC "-//W3C//DTD SVG 1.1//EN" "http://www.w3.org/Graphics/SVG/1.1/DTD/svg11.dtd">
<svg version="1.1" id="Capa_1" xmlns="http://www.w3.org/2000/svg" xmlns:xlink="http://www.w3.org/1999/xlink" x="0px" y="0px"
	 viewBox="0 0 1920 1080" enable-background="new 0 0 1920 1080" xml:space="preserve">
<g>
	<g>
		<g>
			<g>
				<g>
					<path fill="#FFFFFF" d="M1404.5,517.8h-43.7c-1.7,0-3-1.4-3-3v-226h-95.7v70c0,1.7-1.4,3-3,3h-161.8v60.9c0,1.7-1.4,3-3,3
						s-3-1.4-3-3v-64c0-1.7,1.4-3,3-3H1256v-70c0-1.7,1.4-3,3-3h101.8c1.7,0,3,1.4,3,3v226h37.6V372.9c0-1.7,1.4-3,3-3h104
						c1.7,0,3,1.4,3,3v75h144.9V254.2c0-1.7,1.4-3,3-3h87.4c1.7,0,3,1.4,3,3v110.6h23.2v-42.6c0-1.7,1.4-3,3-3h50.3c1.7,0,3,1.4,3,3
						s-1.4,3-3,3h-47.3v42.6c0,1.7-1.4,3-3,3h-29.3c-1.7,0-3-1.4-3-3V257.3h-81.3v193.6c0,1.7-1.4,3-3,3h-151c-1.7,0-3-1.4-3-3v-75
						h-97.9v138.8C1407.6,516.5,1406.2,517.8,1404.5,517.8z"/>
					<path fill="#FFFFFF" d="M1614.5,301.7h-199c-1.7,0-3-1.3-3-3c-0.2-9.8,2.1-17.2,6.7-22c3.9-4,9.3-6,16.1-6
						c10.2,0,20.4,4.6,22.4,5.5c4.6,1.1,8.9,1.6,12.8,1.6c13.2,0,17.4-6.1,17.8-6.7c14.3-28.2,29.8-31,31.5-31.3
						c2.3-0.4,4.7-0.6,6.9-0.6c21.3,0,33.6,16.3,35.6,19.1c0.9,0.6,7,3.9,29.8,3.9c8.4,0,14.9,2.7,19.4,8c9,10.7,6.2,28.1,6.1,28.8
						C1617.3,300.7,1616,301.7,1614.5,301.7z M1418.5,295.7h193.2c0.4-4.7,0.4-14.9-5-21.3c-3.3-3.9-8.2-5.8-14.7-5.8
						c-27.4,0-33.3-4.6-34.4-6c-0.1-0.1-0.1-0.2-0.2-0.2c-0.1-0.2-11.3-16.7-30.8-16.7c-2,0-4,0.2-6,0.5c-0.1,0-0.1,0-0.2,0
						c-0.1,0-13.7,2.2-26.9,28.1c0,0,0,0.1-0.1,0.1c-0.2,0.4-5.7,9.9-23.1,9.9c-4.4,0-9.3-0.6-14.5-1.8c-0.2-0.1-0.5-0.1-0.7-0.2
						c-0.1,0-10.3-5.1-20-5.1c-5.1,0-9,1.4-11.7,4.1C1420.5,284.1,1418.8,289,1418.5,295.7z"/>
					<path fill="#FFFFFF" d="M1130.8,285.4C1130.8,285.4,1130.8,285.4,1130.8,285.4H920.1c-1,0-1.8-0.4-2.4-1.2
						c-0.6-0.8-0.8-1.7-0.5-2.7c4.1-15,12.5-18.1,18.8-18.1c5.4,0,10.4,2.3,13.5,4.1c6.5-12.7,20.1-18.8,20.7-19.1
						c0.2-0.1,0.3-0.1,0.5-0.2c3.7-0.9,7.2-1.3,10.6-1.3c11.5,0,18.8,5.1,22.5,8.6c9.1-13.6,18.3-17.9,19.3-18.3
						c8-3.7,16-5.6,24-5.6c23.4,0,37.9,16,38.6,16.6c6.9,7.5,14.4,6.5,14.4,6.5c0.2,0,0.4,0,0.6,0c28.8,1.2,32.8,23.3,33.3,26.9
						c0.1,0.2,0.1,0.5,0.1,0.7C1133.9,284,1132.5,285.4,1130.8,285.4z M924.3,279.3h202.9c-1.6-5.9-7.3-17.6-26.7-18.5
						c-0.3,0-0.8,0.1-1.5,0.1c-3,0-10.8-0.8-17.9-8.6c-0.2-0.2-13.4-14.6-34-14.6c-7.1,0-14.3,1.7-21.4,5c0,0-0.1,0-0.1,0
						c-0.1,0-9.8,4.4-18.7,19.4c-0.5,0.9-1.5,1.5-2.6,1.5c-1.1,0-2-0.5-2.6-1.4c-0.2-0.4-6.4-9.3-20.3-9.3c-2.8,0-5.8,0.4-8.9,1.1
						c-1.8,0.9-14.4,7.2-18.8,19c-0.3,0.9-1.1,1.6-2,1.9c-0.9,0.3-1.9,0.1-2.7-0.5c-0.1,0-6.5-4.9-13-4.9
						C930.7,269.5,926.8,272.7,924.3,279.3z"/>
				</g>
			</g>
			<g>
				<g>
					<g>
						<path fill="#3DB8BC" d="M134.4,390.9c-12.7-7.1-22.7-16.8-30-29.3c-7.3-12.4-10.9-26.4-10.9-41.9c0-15.5,3.6-29.5,10.9-41.9
							c7.3-12.4,17.3-22.2,30-29.3c12.7-7.1,26.9-10.6,42.7-10.6c11.7,0,22.4,1.9,32.3,5.6c9.8,3.8,18.2,9.3,25.1,16.7l-7.4,7.6
							c-12.9-12.7-29.4-19.1-49.5-19.1c-13.5,0-25.8,3.1-36.9,9.2c-11.1,6.1-19.7,14.6-26,25.5c-6.3,10.8-9.4,22.9-9.4,36.3
							s3.1,25.5,9.4,36.3c6.3,10.8,15,19.3,26,25.5c11.1,6.1,23.3,9.2,36.9,9.2c20,0,36.5-6.5,49.5-19.4l7.4,7.6
							c-6.9,7.4-15.3,13-25.2,16.8c-9.9,3.8-20.6,5.8-32.1,5.8C161.3,401.5,147.1,398,134.4,390.9z"/>
						<path fill="#3DB8BC" d="M177.2,409.6c-17.2,0-32.9-3.9-46.7-11.6c-13.9-7.7-25-18.6-33-32.3c-8-13.6-12.1-29.1-12.1-46
							c0-16.9,4.1-32.4,12.1-46c8-13.6,19.1-24.5,33-32.2c13.8-7.7,29.6-11.6,46.7-11.6c12.6,0,24.4,2.1,35.2,6.2
							c10.9,4.2,20.4,10.5,28.1,18.7l5.3,5.7l-18.5,19.1l-5.8-5.8c-11.4-11.3-25.8-16.8-43.8-16.8c-12.1,0-23.1,2.8-32.9,8.2
							c-9.9,5.5-17.4,12.8-23,22.4c-5.5,9.5-8.3,20.4-8.3,32.2c0,11.9,2.8,22.7,8.3,32.2c5.5,9.5,13.2,17.1,23,22.4
							c9.8,5.4,20.9,8.2,32.9,8.2c17.9,0,32.2-5.6,43.8-17l5.8-5.8l18.5,19.1l-5.3,5.7c-7.7,8.2-17.2,14.6-28.2,18.8
							C201.5,407.5,189.7,409.6,177.2,409.6z"/>
					</g>
					<g>
						<path fill="#3DB8BC" d="M269.3,248.2c-1.8-1.8-2.8-4-2.8-6.6c0-2.6,0.9-4.8,2.8-6.7c1.8-1.8,4.1-2.8,6.7-2.8
							c2.6,0,4.8,0.9,6.7,2.6c1.8,1.8,2.8,4,2.8,6.6c0,2.6-0.9,4.8-2.8,6.7c-1.8,1.8-4.1,2.8-6.7,2.8
							C273.4,250.8,271.2,249.9,269.3,248.2z M270.3,280.1h11.5v120.3h-11.5V280.1z"/>
						<path fill="#3DB8BC" d="M289.9,408.5h-27.8V271.9h27.8V408.5z M276,258.9c-4.7,0-9-1.7-12.3-4.9c-3.4-3.3-5.3-7.6-5.3-12.4
							c0-4.8,1.8-9.1,5.1-12.4c3.4-3.4,7.7-5.1,12.4-5.1c4.7,0,8.9,1.7,12.3,4.9c3.4,3.3,5.3,7.6,5.3,12.4c0,4.8-1.8,9.1-5.1,12.4
							C285.1,257.2,280.8,258.9,276,258.9z M276,240.3c-0.5,0-0.6,0.1-0.9,0.4c-0.3,0.3-0.4,0.5-0.4,0.9c0,0.5,0.1,0.5,0.3,0.7
							c0.3,0.3,0.5,0.4,1.1,0.4c0.5,0,0.6-0.1,0.9-0.4c0.3-0.3,0.4-0.5,0.4-0.9c0-0.5-0.1-0.5-0.3-0.7
							C276.8,240.4,276.6,240.3,276,240.3z"/>
					</g>
					<g>
						<path fill="#3DB8BC" d="M435.7,280.1v120.3h-11.1v-25.8c-4,8.5-9.9,15-17.7,19.7c-7.8,4.7-17.1,7-27.7,7
							c-15.7,0-28-4.4-36.9-13.1c-8.9-8.8-13.4-21.4-13.4-37.8v-70.3h11.5v69.4c0,13.5,3.5,23.8,10.4,30.9
							c6.9,7.1,16.7,10.6,29.3,10.6c13.5,0,24.2-4.2,32.1-12.7c7.9-8.4,11.9-19.8,11.9-34.1v-64.1H435.7z"/>
						<path fill="#3DB8BC" d="M379.3,409.4c-17.8,0-32.1-5.2-42.6-15.5c-10.5-10.3-15.8-25-15.8-43.6v-78.4h27.8v77.5
							c0,11.3,2.7,19.7,8.1,25.2c5.4,5.5,13,8.2,23.5,8.2c11.3,0,19.8-3.3,26.2-10.1c6.5-6.9,9.7-16.3,9.7-28.5v-72.2h27.8v136.5
							h-27.3v-11c-1.7,1.3-3.5,2.6-5.4,3.7C402,406.7,391.3,409.4,379.3,409.4z"/>
					</g>
					<g>
						<path fill="#3DB8BC" d="M591.5,229.4v171h-11.3V372c-4.8,9.4-11.4,16.6-20,21.7c-8.6,5.1-18.4,7.6-29.3,7.6
							c-11.2,0-21.4-2.6-30.4-7.8c-9.1-5.2-16.2-12.4-21.3-21.7c-5.1-9.2-7.7-19.7-7.7-31.6c0-11.8,2.6-22.4,7.7-31.7
							c5.1-9.3,12.2-16.5,21.3-21.7c9.1-5.1,19.2-7.7,30.4-7.7c10.8,0,20.4,2.5,28.9,7.6c8.5,5.1,15.2,12.1,20.2,21.2v-78.6H591.5z
							 M556.3,384.5c7.3-4.3,13.1-10.3,17.3-18c4.2-7.7,6.3-16.4,6.3-26.3c0-9.8-2.1-18.6-6.3-26.3c-4.2-7.7-10-13.7-17.3-18
							c-7.3-4.3-15.6-6.5-24.8-6.5c-9.2,0-17.5,2.2-24.8,6.5c-7.3,4.3-13.1,10.3-17.3,18c-4.2,7.7-6.3,16.4-6.3,26.3
							c0,9.8,2.1,18.6,6.3,26.3c4.2,7.7,10,13.7,17.3,18c7.3,4.3,15.6,6.5,24.8,6.5C540.8,390.9,549,388.8,556.3,384.5z"/>
						<path fill="#3DB8BC" d="M530.9,409.4c-12.6,0-24.2-3-34.5-8.9c-10.3-5.9-18.5-14.3-24.4-24.7c-5.8-10.4-8.8-22.3-8.8-35.5
							c0-13.2,2.9-25.2,8.7-35.6c5.9-10.6,14.1-18.9,24.4-24.8c10.3-5.8,21.8-8.8,34.4-8.8c12.2,0,23.3,2.9,33.1,8.7
							c2.8,1.7,5.4,3.5,7.9,5.6v-64.1h27.8v187.2h-27.5v-13.3c-2.4,2-5,3.9-7.8,5.5C554.4,406.5,543.2,409.4,530.9,409.4z
							 M531.6,297.6c-7.8,0-14.6,1.7-20.6,5.3c-6.1,3.6-10.7,8.4-14.3,14.9c-3.5,6.4-5.3,14-5.3,22.4c0,8.4,1.8,15.9,5.3,22.4
							c3.5,6.4,8.2,11.3,14.3,14.9c6.1,3.6,12.8,5.3,20.6,5.3c7.8,0,14.6-1.7,20.6-5.3c6.1-3.6,10.7-8.4,14.3-14.9
							c3.5-6.4,5.3-14,5.3-22.4c0-8.4-1.8-15.9-5.3-22.4c-3.5-6.4-8.2-11.3-14.3-14.9C546.1,299.4,539.4,297.6,531.6,297.6z"/>
					</g>
					<g>
						<path fill="#3DB8BC" d="M715,290.6c8,7.6,12,18.8,12,33.5v76.3h-11.1v-21.4c-3.8,7.1-9.4,12.6-16.8,16.5
							c-7.4,3.9-16.2,5.9-26.5,5.9c-13.4,0-23.9-3.1-31.7-9.4c-7.8-6.3-11.6-14.6-11.6-24.9c0-10,3.6-18.1,10.7-24.3
							c7.1-6.2,18.6-9.3,34.2-9.3h41.2v-9.7c0-11.2-3-19.7-9.1-25.6c-6.1-5.8-14.9-8.8-26.6-8.8c-8,0-15.6,1.4-22.9,4.1
							c-7.3,2.8-13.5,6.5-18.5,11.1l-5.8-8.3c6-5.4,13.2-9.6,21.7-12.6c8.4-3,17.3-4.5,26.5-4.5C695.6,279.2,707,283,715,290.6z
							 M699.7,384.9c7-4.6,12.2-11.3,15.8-20v-22.6h-41c-11.8,0-20.4,2.2-25.7,6.5c-5.3,4.3-8,10.2-8,17.7c0,7.8,2.9,14,8.8,18.5
							c5.8,4.5,14.1,6.8,24.7,6.8C684.2,391.8,692.7,389.5,699.7,384.9z"/>
						<path fill="#3DB8BC" d="M672.6,409.4c-15.2,0-27.6-3.8-36.8-11.3c-9.7-7.9-14.6-18.4-14.6-31.2c0-12.4,4.5-22.6,13.5-30.4
							c8.8-7.6,21.7-11.3,39.6-11.3h33.1v-1.6c0-9-2.2-15.4-6.6-19.7c-4.5-4.3-11.5-6.5-21-6.5c-7,0-13.7,1.2-20,3.6
							c-6.3,2.4-11.7,5.6-16,9.5l-6.9,6.2l-15.1-21.8l5.3-4.8c6.8-6.1,15-10.8,24.4-14.2c9.3-3.3,19.1-5,29.2-5
							c17,0,30.4,4.6,39.9,13.6c9.6,9.2,14.5,22.4,14.5,39.4v84.4h-27.3v-8.8c-1.6,1.1-3.2,2-4.9,2.9
							C694.4,407.1,684.2,409.4,672.6,409.4z M674.4,350.4c-12.3,0-18,2.5-20.6,4.6c-3.4,2.7-4.9,6.4-4.9,11.4
							c0,5.3,1.8,9.2,5.6,12.1c4.4,3.4,11,5.1,19.7,5.1c8.4,0,15.3-1.8,21-5.6c5.3-3.5,9.2-8.4,12.1-14.9v-12.8H674.4z"/>
					</g>
					<g>
						<path fill="#3DB8BC" d="M881.6,229.4v171h-11.3V372c-4.8,9.4-11.4,16.6-20,21.7s-18.4,7.6-29.3,7.6c-11.2,0-21.4-2.6-30.4-7.8
							c-9.1-5.2-16.2-12.4-21.3-21.7s-7.7-19.7-7.7-31.6c0-11.8,2.6-22.4,7.7-31.7c5.1-9.3,12.3-16.5,21.3-21.7
							c9.1-5.1,19.2-7.7,30.4-7.7c10.8,0,20.4,2.5,28.9,7.6c8.5,5.1,15.2,12.1,20.2,21.2v-78.6H881.6z M846.4,384.5
							c7.3-4.3,13.1-10.3,17.3-18c4.2-7.7,6.3-16.4,6.3-26.3c0-9.8-2.1-18.6-6.3-26.3c-4.2-7.7-10-13.7-17.3-18
							c-7.3-4.3-15.6-6.5-24.8-6.5s-17.5,2.2-24.8,6.5c-7.3,4.3-13.1,10.3-17.3,18c-4.2,7.7-6.3,16.4-6.3,26.3
							c0,9.8,2.1,18.6,6.3,26.3c4.2,7.7,10,13.7,17.3,18c7.3,4.3,15.6,6.5,24.8,6.5S839.1,388.8,846.4,384.5z"/>
						<path fill="#3DB8BC" d="M821,409.4c-12.6,0-24.2-3-34.5-8.9c-10.3-5.9-18.5-14.3-24.4-24.7c-5.8-10.4-8.7-22.4-8.7-35.5
							c0-13.2,2.9-25.2,8.7-35.6c5.9-10.6,14.1-18.9,24.4-24.8c10.3-5.8,21.8-8.8,34.4-8.8c12.2,0,23.3,2.9,33.1,8.7
							c2.8,1.7,5.4,3.5,7.9,5.6v-64.1h27.8v187.2h-27.5v-13.3c-2.4,2-5,3.9-7.8,5.5C844.5,406.5,833.3,409.4,821,409.4z
							 M821.7,297.6c-7.8,0-14.6,1.7-20.6,5.3c-6.1,3.6-10.7,8.4-14.3,14.9c-3.5,6.4-5.3,14-5.3,22.4c0,8.4,1.8,15.9,5.3,22.4
							c3.5,6.4,8.2,11.3,14.3,14.9c6.1,3.6,12.8,5.3,20.6,5.3c7.8,0,14.6-1.7,20.6-5.3c6.1-3.6,10.7-8.4,14.3-14.9
							c3.5-6.4,5.3-13.9,5.3-22.4c0-8.4-1.8-15.9-5.3-22.4c-3.5-6.4-8.2-11.3-14.3-14.9C836.2,299.4,829.5,297.6,821.7,297.6z"/>
					</g>
				</g>
				<g>
					<g>
						<path fill="#FF6C36" d="M296,446.4c19.9,9,35.2,21.8,46,38.4c10.7,16.6,16.1,36.2,16.1,58.9c0,22.4-5.4,41.9-16.1,58.6
							c-10.8,16.7-26.1,29.5-46,38.4c-19.9,8.9-43.4,13.3-70.4,13.3h-61.5V738H93.5V432.9h132.1C252.6,432.9,276.1,437.4,296,446.4z
							 M270.1,582.6c11-9.2,16.6-22.2,16.6-39c0-17.1-5.5-30.3-16.6-39.5c-11-9.2-27.2-13.7-48.4-13.7h-57.5v105.9h57.5
							C242.9,596.4,259,591.8,270.1,582.6z"/>
						<path fill="#ECECEC" d="M167.9,741.8H89.8V429.1h135.8c27.4,0,51.6,4.7,72,13.8c20.5,9.3,36.5,22.6,47.6,39.7
							c11.1,17.1,16.7,37.6,16.7,60.9c0,23-5.6,43.4-16.7,60.7c-11.1,17.3-27.1,30.6-47.6,39.8c-20.3,9-44.5,13.6-71.9,13.6h-57.7
							V741.8z M97.3,734.3h63.1v-84.1h65.2c26.4,0,49.6-4.4,68.9-13c19.1-8.5,34.1-21,44.4-37c10.3-16,15.5-35.1,15.5-56.6
							c0-21.8-5.2-40.9-15.5-56.8c-10.3-15.9-25.2-28.3-44.4-37c-19.3-8.7-42.5-13.2-68.9-13.2H97.3V734.3z M221.7,600.1h-61.3
							V486.7h61.3c22,0,39.1,4.9,50.8,14.6c11.9,9.9,17.9,24.1,17.9,42.3c0,17.9-6,32-17.9,41.9
							C260.8,595.2,243.7,600.1,221.7,600.1z M167.9,592.6h53.8c20.2,0,35.7-4.3,46-12.9c10.2-8.5,15.2-20.3,15.2-36.1
							c0-16.1-5-28.1-15.2-36.6c-10.3-8.5-25.8-12.9-46-12.9h-53.8V592.6z"/>
					</g>
					<g>
						<path fill="#FF6C36" d="M448.2,726.1c-19.6-10.3-34.9-24.6-46-42.9c-11-18.3-16.6-39.1-16.6-62.3c0-23.3,5.5-44,16.6-62.3
							c11-18.3,26.4-32.6,46-42.9c19.6-10.3,41.8-15.5,66.5-15.5c24.7,0,46.8,5.2,66.3,15.5c19.5,10.3,34.7,24.6,45.8,42.9
							c11,18.3,16.6,39.1,16.6,62.3c0,23.3-5.5,44-16.6,62.3c-11,18.3-26.3,32.6-45.8,42.9c-19.5,10.3-41.6,15.5-66.3,15.5
							C489.9,741.5,467.8,736.4,448.2,726.1z M557.6,668.1c11.2-11.8,16.8-27.5,16.8-47.3c0-19.8-5.6-35.5-16.8-47.3
							c-11.2-11.8-25.5-17.7-42.9-17.7c-17.4,0-31.8,5.9-43.2,17.7s-17,27.5-17,47.3c0,19.8,5.7,35.5,17,47.3
							c11.3,11.8,25.7,17.7,43.2,17.7C532.1,685.7,546.4,679.9,557.6,668.1z"/>
						<path fill="#ECECEC" d="M514.6,745.3c-25.2,0-48.2-5.4-68.2-15.9c-20.1-10.6-36.1-25.5-47.5-44.3
							c-11.4-18.8-17.1-40.4-17.1-64.3c0-23.8,5.8-45.5,17.1-64.3c11.3-18.8,27.3-33.7,47.5-44.3c20.1-10.6,43-15.9,68.2-15.9
							c25.2,0,48.1,5.4,68,15.9c20,10.6,35.9,25.5,47.2,44.3c11.4,18.8,17.1,40.5,17.1,64.3c0,23.8-5.8,45.5-17.1,64.3
							c-11.4,18.8-27.3,33.7-47.2,44.3C562.7,739.9,539.9,745.3,514.6,745.3z M514.6,503.8c-24,0-45.7,5.1-64.7,15
							c-18.9,9.9-33.9,23.9-44.5,41.6c-10.6,17.6-16,37.9-16,60.4c0,22.5,5.4,42.8,16,60.4c10.6,17.6,25.6,31.6,44.5,41.6
							c19,10,40.8,15,64.7,15c24,0,45.7-5.1,64.5-15c18.8-9.9,33.7-23.9,44.3-41.6c10.6-17.6,16-38,16-60.4c0-22.4-5.4-42.8-16-60.4
							c-10.6-17.6-25.5-31.6-44.3-41.6C560.3,508.8,538.6,503.8,514.6,503.8z M514.6,689.5c-18.4,0-33.8-6.3-45.9-18.8
							c-12-12.4-18.1-29.2-18.1-49.9c0-20.7,6.1-37.5,18.1-49.9c12-12.5,27.4-18.8,45.9-18.8c18.4,0,33.8,6.3,45.7,18.8
							c11.8,12.4,17.8,29.2,17.8,49.9c0,20.7-6,37.4-17.8,49.9C548.4,683.2,533.1,689.5,514.6,689.5z M514.6,559.6
							c-16.5,0-29.8,5.4-40.5,16.5c-10.6,11-15.9,26-15.9,44.7c0,18.7,5.4,33.7,15.9,44.7c10.7,11.1,23.9,16.5,40.5,16.5
							c16.5,0,29.7-5.4,40.2-16.5c10.4-11,15.7-26,15.7-44.7c0-18.7-5.3-33.7-15.7-44.7C544.3,565,531.2,559.6,514.6,559.6z"/>
					</g>
					<g>
						<path fill="#FF6C36" d="M710.4,734.3c-18.6-4.8-33.4-10.8-44.5-18.1l22.7-48.8c10.5,6.7,23.1,12.1,37.9,16.3
							c14.8,4.2,29.4,6.3,43.6,6.3c28.8,0,43.2-7.1,43.2-21.4c0-6.7-3.9-11.5-11.8-14.4c-7.8-2.9-19.9-5.4-36.2-7.4
							c-19.2-2.9-35-6.2-47.5-10c-12.5-3.8-23.3-10.5-32.5-20.1c-9.2-9.6-13.7-23.3-13.7-41c0-14.8,4.3-28,12.9-39.5
							c8.6-11.5,21.1-20.4,37.5-26.8c16.4-6.4,35.8-9.6,58.2-9.6c16.6,0,33.1,1.8,49.5,5.4c16.4,3.6,30,8.6,40.8,15l-22.7,48.4
							c-20.6-11.6-43.2-17.4-67.6-17.4c-14.5,0-25.4,2-32.7,6.1c-7.3,4.1-10.9,9.3-10.9,15.7c0,7.3,3.9,12.4,11.8,15.3
							c7.8,2.9,20.3,5.7,37.5,8.3c19.2,3.2,34.9,6.6,47.1,10.2c12.2,3.6,22.8,10.2,31.8,19.8c9,9.6,13.5,23,13.5,40.1
							c0,14.5-4.4,27.5-13.1,38.8c-8.7,11.3-21.4,20.1-38.1,26.4c-16.7,6.2-36.5,9.4-59.5,9.4C748,741.5,729,739.1,710.4,734.3z"/>
						<path fill="#ECECEC" d="M767.5,745.3c-19.7,0-39.2-2.5-58-7.3c-18.9-4.9-34.3-11.1-45.6-18.6l-2.7-1.8L687,662l3.6,2.3
							c10.1,6.5,22.5,11.8,36.9,15.9c14.4,4.1,28.7,6.2,42.6,6.2c26.1,0,39.4-5.9,39.4-17.6c0-3.2-1-7.8-9.3-10.9
							c-7.5-2.8-19.4-5.2-35.3-7.2c-19.4-2.9-35.5-6.3-48.1-10.2c-13.1-3.9-24.5-11-34.1-21.1c-9.8-10.3-14.8-24.9-14.8-43.6
							c0-15.6,4.6-29.6,13.6-41.7c9-12,22.1-21.4,39.1-28.1c16.8-6.5,36.8-9.8,59.6-9.8c16.8,0,33.7,1.9,50.3,5.5
							c16.7,3.7,30.8,8.9,41.9,15.5l2.9,1.7l-25.8,55.1l-3.5-2c-20-11.3-42.1-17-65.7-17c-13.8,0-24.2,1.9-30.9,5.6
							c-6,3.4-9,7.4-9,12.4c0,5.7,3,9.4,9.3,11.7c7.6,2.8,19.9,5.5,36.8,8.1c19.3,3.2,35.3,6.7,47.6,10.4
							c12.8,3.8,24.1,10.8,33.5,20.9c9.6,10.3,14.5,24.6,14.5,42.7c0,15.3-4.7,29.1-13.9,41.1c-9.1,11.8-22.5,21.1-39.8,27.6
							C811.2,742.1,790.8,745.3,767.5,745.3z M670.7,714.8c10.4,6.3,24,11.6,40.6,15.9c18.2,4.7,37.1,7.1,56.2,7.1
							c22.4,0,42-3.1,58.2-9.1c16-6,28.2-14.4,36.5-25.1c8.2-10.6,12.3-22.9,12.3-36.5c0-16.1-4.2-28.7-12.5-37.5
							c-8.5-9-18.6-15.4-30.2-18.8c-12-3.6-27.7-7-46.6-10.1c-17.5-2.7-30-5.4-38.2-8.5c-11.8-4.3-14.2-12.6-14.2-18.8
							c0-7.8,4.3-14.2,12.8-19c7.9-4.4,19.2-6.6,34.5-6.6c23.6,0,45.7,5.4,65.9,16l19.5-41.6c-9.9-5.4-22.2-9.7-36.7-12.9
							c-16.1-3.6-32.5-5.4-48.7-5.4c-21.8,0-40.9,3.1-56.8,9.3c-15.7,6.1-27.7,14.7-35.8,25.6c-8,10.8-12.1,23.3-12.1,37.2
							c0,16.6,4.3,29.6,12.7,38.4c8.7,9.1,19,15.5,30.8,19c12.3,3.7,28.1,7,47,9.9c16.4,2,28.8,4.6,36.9,7.6
							c11.8,4.4,14.2,12.1,14.2,17.9c0,16.7-15.8,25.1-46.9,25.1c-14.5,0-29.5-2.2-44.6-6.5c-13.4-3.8-25.3-8.7-35.3-14.6
							L670.7,714.8z"/>
					</g>
					<g>
						<path fill="#FF6C36" d="M923.5,459.9c-7.8-7.3-11.8-16.3-11.8-27c0-10.8,3.9-19.8,11.8-27c7.8-7.3,18-10.9,30.5-10.9
							c12.5,0,22.7,3.5,30.5,10.5c7.8,7,11.8,15.7,11.8,26.2c0,11.3-3.9,20.7-11.8,28.1c-7.8,7.4-18,11.1-30.5,11.1
							C941.6,470.8,931.4,467.2,923.5,459.9z M920.1,503.5h68V738h-68V503.5z"/>
						<path fill="#ECECEC" d="M991.8,741.8h-75.5v-242h75.5V741.8z M923.8,734.3h60.5v-227h-60.5V734.3z M954.1,474.6
							c-13.4,0-24.5-4-33.1-11.9c-8.6-8-13-18-13-29.8c0-11.8,4.4-21.8,13-29.8c8.5-7.9,19.7-11.9,33.1-11.9
							c13.4,0,24.5,3.8,33,11.4c8.6,7.7,13,17.4,13,29c0,12.4-4.4,22.7-12.9,30.8C978.6,470.5,967.5,474.6,954.1,474.6z
							 M954.1,398.7c-11.6,0-20.8,3.2-28,9.9c-7.1,6.6-10.6,14.5-10.6,24.3c0,9.8,3.5,17.7,10.6,24.3c7.2,6.7,16.3,9.9,28,9.9
							c11.6,0,20.7-3.3,27.9-10.1c7.1-6.7,10.6-15,10.6-25.4c0-9.4-3.4-17.1-10.5-23.3C975,401.9,965.6,398.7,954.1,398.7z"/>
					</g>
					<g>
						<path fill="#FF6C36" d="M1202.5,726.7c-6.7,4.9-14.9,8.6-24.6,11.1c-9.7,2.5-20,3.7-30.7,3.7c-27.9,0-49.5-7.1-64.7-21.4
							c-15.3-14.2-22.9-35.2-22.9-62.8v-96.3h-36.2v-52.3h36.2v-57.1h68v57.1h58.4v52.3h-58.4v95.5c0,9.9,2.5,17.5,7.6,22.9
							c5.1,5.4,12.3,8.1,21.6,8.1c10.7,0,19.9-2.9,27.5-8.7L1202.5,726.7z"/>
						<path fill="#ECECEC" d="M1147.2,745.3c-28.8,0-51.4-7.5-67.3-22.4c-16-14.9-24.1-37-24.1-65.5v-92.6h-36.2V505h36.2v-57.1
							h75.5V505h58.4v59.8h-58.4v91.7c0,8.8,2.2,15.7,6.6,20.3c4.4,4.6,10.5,6.9,18.9,6.9c9.9,0,18.3-2.7,25.2-7.9l4-3.1l21.1,55.3
							l-2.3,1.7c-7.1,5.2-15.8,9.2-25.9,11.7C1168.8,744,1158.2,745.3,1147.2,745.3z M1027.1,557.3h36.2v100.1
							c0,26.4,7.3,46.6,21.7,60c14.5,13.5,35.4,20.4,62.2,20.4c10.4,0,20.4-1.2,29.8-3.6c8.1-2.1,15.2-5,21-8.9l-15.6-40.8
							c-7.4,4.4-16,6.7-25.7,6.7c-10.3,0-18.5-3.1-24.3-9.2c-5.7-6.1-8.7-14.6-8.7-25.5v-99.2h58.4v-44.8h-58.4v-57.1h-60.5v57.1
							h-36.2V557.3z"/>
					</g>
					<g>
						<path fill="#FF6C36" d="M1244.4,459.9c-7.8-7.3-11.8-16.3-11.8-27c0-10.8,3.9-19.8,11.8-27c7.8-7.3,18-10.9,30.5-10.9
							c12.5,0,22.7,3.5,30.5,10.5c7.8,7,11.8,15.7,11.8,26.2c0,11.3-3.9,20.7-11.8,28.1c-7.8,7.4-18,11.1-30.5,11.1
							C1262.4,470.8,1252.2,467.2,1244.4,459.9z M1240.9,503.5h68V738h-68V503.5z"/>
						<path fill="#ECECEC" d="M1312.7,741.8h-75.5v-242h75.5V741.8z M1244.7,734.3h60.5v-227h-60.5V734.3z M1274.9,474.6
							c-13.4,0-24.5-4-33.1-11.9c-8.6-8-13-18-13-29.8c0-11.8,4.4-21.8,13-29.8c8.5-7.9,19.7-11.9,33.1-11.9
							c13.4,0,24.5,3.8,33,11.4c8.6,7.7,13,17.4,13,29c0,12.4-4.4,22.7-12.9,30.8C1299.5,470.5,1288.3,474.6,1274.9,474.6z
							 M1274.9,398.7c-11.6,0-20.8,3.2-28,9.9c-7.1,6.6-10.6,14.5-10.6,24.3c0,9.8,3.5,17.7,10.6,24.3c7.2,6.7,16.3,9.9,28,9.9
							c11.6,0,20.7-3.3,27.9-10.1c7.1-6.7,10.6-15,10.6-25.4c0-9.4-3.4-17.1-10.5-23.3C1295.8,401.9,1286.4,398.7,1274.9,398.7z"/>
					</g>
					<g>
						<path fill="#FF6C36" d="M1604.9,503.5l-99,234.5h-70.2l-98.5-234.5h70.2l65,159.6l67.1-159.6H1604.9z"/>
						<path fill="#ECECEC" d="M1508.4,741.8h-75.2l-101.7-242h78.4l62.5,153.5l64.6-153.5h73.6L1508.4,741.8z M1438.3,734.3h65.2
							l95.8-227H1542l-69.7,165.6l-67.4-165.6h-62L1438.3,734.3z"/>
					</g>
					<g>
						<path fill="#FF6C36" d="M1803.3,526c19.5,17.3,29.2,43.4,29.2,78.3V738h-63.6v-29.2c-12.8,21.8-36.6,32.7-71.5,32.7
							c-18,0-33.6-3.1-46.9-9.2c-13.2-6.1-23.3-14.5-30.3-25.3c-7-10.8-10.5-23-10.5-36.6c0-21.8,8.2-38.9,24.6-51.4
							c16.4-12.5,41.8-18.7,76.1-18.7h54.1c0-14.8-4.5-26.2-13.5-34.2c-9-8-22.5-12-40.5-12c-12.5,0-24.8,2-36.8,5.9
							c-12.1,3.9-22.3,9.2-30.7,15.9l-24.4-47.5c12.8-9,28.1-16,46-20.9c17.9-4.9,36.3-7.4,55.1-7.4
							C1755.9,500,1783.8,508.7,1803.3,526z M1745.3,687.7c9-5.4,15.4-13.3,19.2-23.8v-24h-46.6c-27.9,0-41.8,9.2-41.8,27.5
							c0,8.7,3.4,15.6,10.2,20.7c6.8,5.1,16.2,7.6,28.1,7.6C1725.9,695.8,1736.3,693.1,1745.3,687.7z"/>
						<path fill="#ECECEC" d="M1697.3,745.3c-18.5,0-34.8-3.2-48.4-9.5c-13.8-6.4-24.5-15.3-31.9-26.6
							c-7.3-11.3-11.1-24.3-11.1-38.7c0-22.9,8.8-41.2,26.1-54.4c17-12.9,43.4-19.5,78.3-19.5h50.2c-0.7-11.9-4.7-21-12.2-27.7
							c-8.3-7.3-21.1-11-38-11c-12,0-24,1.9-35.7,5.7c-11.6,3.8-21.5,8.9-29.6,15.3l-3.6,2.8l-28-54.5l2.7-1.9
							c13.1-9.2,28.9-16.4,47.2-21.5c18.1-5,37-7.5,56.1-7.5c37.1,0,66.1,9,86.2,26.9c20.2,18,30.5,45.2,30.5,81.1v137.6h-71.2
							v-21.3C1750.6,737,1727.9,745.3,1697.3,745.3z M1710.4,604c-33.3,0-58.1,6-73.8,18c-15.6,11.9-23.2,27.7-23.2,48.4
							c0,12.9,3.3,24.5,9.9,34.6c6.5,10.1,16.2,18.1,28.7,23.9c12.7,5.8,27.9,8.8,45.3,8.8c33.3,0,56.2-10.4,68.3-30.8l7-11.9v39.3
							h56.1V604.2c0-33.6-9.4-59-27.9-75.4c-18.7-16.6-46-25-81.2-25c-18.5,0-36.7,2.4-54.1,7.3c-16.1,4.5-30.3,10.7-42.1,18.5
							l20.9,40.6c8-5.7,17.5-10.3,28.3-13.8c12.4-4,25.2-6.1,38-6.1c18.9,0,33.4,4.4,43,12.9c9.8,8.7,14.8,21.2,14.8,37v3.8H1710.4z
							 M1714.3,699.5c-12.7,0-22.9-2.8-30.4-8.4c-7.8-5.8-11.8-13.8-11.8-23.7c0-14.2,7.9-31.2,45.6-31.2h50.4v28.4l-0.2,0.6
							c-4.1,11.2-11.1,19.9-20.8,25.7C1737.6,696.6,1726.6,699.5,1714.3,699.5z M1717.8,643.7c-38.1,0-38.1,17.8-38.1,23.7
							c0,7.5,2.9,13.3,8.7,17.7c6.1,4.6,14.8,6.9,25.9,6.9c10.9,0,20.7-2.5,29-7.5c8.1-4.9,13.8-11.8,17.4-21.2v-19.6H1717.8z"/>
					</g>
				</g>
			</g>
		</g>
	</g>
	<g>
		<g>
			<path fill="#5C6670" d="M917.3,840.6c-3.6-3.7-5.3-9.2-5.3-16.4v-29.3h3.7v29.2c0,6.3,1.4,10.9,4.3,14c2.9,3.1,7,4.7,12.4,4.7
				c5.4,0,9.5-1.6,12.4-4.7c2.9-3.1,4.3-7.8,4.3-14v-29.2h3.7v29.3c0,7.2-1.8,12.6-5.4,16.4c-3.6,3.7-8.6,5.6-15.1,5.6
				C925.9,846.2,920.9,844.4,917.3,840.6z"/>
			<path fill="#5C6670" d="M932.4,846.4c-6.5,0-11.5-1.9-15.1-5.6c-3.6-3.7-5.4-9.3-5.4-16.5v-29.4h3.9v29.3c0,6.2,1.4,10.9,4.3,14
				c2.8,3.1,7,4.6,12.4,4.6c5.3,0,9.5-1.6,12.3-4.6c2.8-3.1,4.3-7.8,4.3-14v-29.3h3.9v29.4c0,7.2-1.8,12.7-5.4,16.5
				C943.9,844.5,938.8,846.4,932.4,846.4z M912.1,795v29.2c0,7.1,1.8,12.6,5.3,16.3c3.5,3.7,8.6,5.6,14.9,5.6c6.4,0,11.4-1.9,15-5.6
				c3.6-3.7,5.4-9.2,5.4-16.3V795h-3.5v29.1c0,6.3-1.5,11-4.3,14.1c-2.9,3.1-7.1,4.7-12.5,4.7c-5.4,0-9.7-1.6-12.5-4.7
				c-2.9-3.1-4.3-7.9-4.3-14.1V795H912.1z"/>
		</g>
		<g>
			<path fill="#5C6670" d="M998.8,811.7c2.8,2.8,4.1,6.7,4.1,11.9v22.2h-3.6V824c0-4.3-1.1-7.5-3.2-9.8c-2.2-2.2-5.2-3.3-9.1-3.3
				c-4.5,0-8,1.3-10.6,4c-2.6,2.7-3.9,6.3-3.9,10.8v20.2H969v-38h3.5v8.2c1.3-2.7,3.3-4.8,5.9-6.3s5.7-2.3,9.2-2.3
				C992.3,807.6,996.1,809,998.8,811.7z"/>
			<path fill="#5C6670" d="M1003.1,846h-3.9v-22c0-4.2-1.1-7.5-3.2-9.7c-2.1-2.2-5.1-3.3-9-3.3c-4.4,0-7.9,1.3-10.5,4
				c-2.5,2.6-3.8,6.2-3.8,10.7V846h-3.9v-38.2h3.7v7.9c1.3-2.5,3.2-4.5,5.7-5.9c2.6-1.5,5.7-2.3,9.3-2.3c4.8,0,8.6,1.4,11.4,4.2
				c2.8,2.8,4.2,6.8,4.2,12V846z M999.5,845.8h3.4v-22.1c0-5.1-1.4-9.1-4.1-11.9s-6.5-4.1-11.2-4.1c-3.5,0-6.6,0.8-9.2,2.2
				c-2.6,1.5-4.5,3.6-5.8,6.2l-0.2,0.4V808h-3.3v37.8h3.4v-20.1c0-4.5,1.3-8.2,3.9-10.9c2.6-2.7,6.2-4,10.6-4c3.9,0,7,1.1,9.1,3.4
				c2.2,2.2,3.3,5.6,3.3,9.8V845.8z"/>
		</g>
		<g>
			<path fill="#5C6670" d="M1068.8,827.8h-32.7c0.1,3,0.8,5.6,2.3,7.9c1.4,2.3,3.3,4.1,5.7,5.3c2.4,1.3,5.1,1.9,8.1,1.9
				c2.5,0,4.8-0.4,6.9-1.3c2.1-0.9,3.9-2.2,5.3-4l2.1,2.4c-1.6,2-3.7,3.5-6.2,4.6c-2.5,1.1-5.2,1.6-8.1,1.6c-3.8,0-7.2-0.8-10.1-2.5
				c-3-1.6-5.3-3.9-7-6.8c-1.7-2.9-2.5-6.2-2.5-10c0-3.7,0.8-7,2.4-9.9c1.6-2.9,3.7-5.2,6.5-6.9c2.8-1.6,5.9-2.5,9.3-2.5
				c3.4,0,6.5,0.8,9.3,2.4c2.7,1.6,4.9,3.9,6.5,6.8c1.6,2.9,2.4,6.2,2.4,9.9L1068.8,827.8z M1043.5,812.6c-2.1,1.2-3.8,2.9-5.1,5
				c-1.3,2.2-2,4.6-2.2,7.3h29.1c-0.1-2.7-0.9-5.1-2.2-7.3c-1.3-2.1-3-3.8-5.2-5c-2.1-1.2-4.5-1.8-7.2-1.8
				C1048.1,810.8,1045.6,811.4,1043.5,812.6z"/>
			<path fill="#5C6670" d="M1052.1,846.3c-3.8,0-7.2-0.8-10.2-2.5c-3-1.7-5.3-4-7-6.9c-1.7-2.9-2.5-6.3-2.5-10c0-3.7,0.8-7.1,2.4-10
				c1.6-2.9,3.8-5.3,6.6-6.9s5.9-2.5,9.4-2.5s6.6,0.8,9.3,2.5c2.7,1.6,4.9,3.9,6.5,6.8c1.6,2.9,2.4,6.3,2.4,10l-0.1,1.1h-32.7
				c0.1,2.9,0.9,5.5,2.2,7.7c1.4,2.3,3.3,4.1,5.7,5.3c2.4,1.2,5.1,1.9,8.1,1.9c2.4,0,4.7-0.5,6.8-1.3c2.1-0.9,3.8-2.2,5.2-3.9
				l0.1-0.1l2.3,2.6l-0.1,0.1c-1.7,2-3.8,3.5-6.3,4.6C1057.8,845.7,1055,846.3,1052.1,846.3z M1050.7,807.7c-3.4,0-6.5,0.8-9.3,2.5
				c-2.7,1.6-4.9,3.9-6.5,6.8c-1.6,2.9-2.4,6.2-2.4,9.9c0,3.7,0.8,7,2.5,9.9c1.7,2.9,4,5.2,6.9,6.8c2.9,1.6,6.3,2.5,10.1,2.5
				c2.9,0,5.6-0.5,8.1-1.6c2.4-1,4.5-2.5,6.1-4.5l-2-2.2c-1.4,1.7-3.2,3-5.2,3.9c-2.1,0.9-4.4,1.4-6.9,1.4c-3,0-5.8-0.6-8.2-1.9
				c-2.4-1.3-4.3-3.1-5.8-5.4c-1.4-2.3-2.2-5-2.3-8l0-0.1h32.7l0.1-0.9c0-3.6-0.8-7-2.4-9.8c-1.6-2.9-3.7-5.2-6.4-6.8
				C1057.2,808.5,1054.1,807.7,1050.7,807.7z M1065.4,825H1036l0-0.1c0.2-2.7,0.9-5.2,2.2-7.4s3-3.9,5.2-5.1
				c2.1-1.2,4.6-1.8,7.3-1.8s5.1,0.6,7.3,1.8s3.9,2.9,5.2,5.1c1.3,2.1,2.1,4.6,2.2,7.3L1065.4,825z M1036.3,824.8h28.9
				c-0.2-2.6-0.9-5-2.2-7.1c-1.3-2.1-3-3.8-5.1-5c-2.1-1.2-4.5-1.8-7.2-1.8c-2.6,0-5,0.6-7.2,1.8c-2.1,1.2-3.8,2.8-5.1,5
				C1037.2,819.8,1036.5,822.2,1036.3,824.8z"/>
		</g>
		<g>
			<path fill="#5C6670" d="M1081,844.8c-2.8-0.9-4.9-2.1-6.5-3.5l1.7-2.9c1.6,1.3,3.6,2.4,6,3.3c2.4,0.9,5,1.3,7.7,1.3
				c3.8,0,6.7-0.6,8.5-1.9c1.8-1.3,2.7-3,2.7-5.2c0-1.6-0.5-2.9-1.5-3.8c-1-0.9-2.2-1.6-3.7-2c-1.5-0.4-3.5-0.9-6-1.4
				c-3-0.5-5.4-1.1-7.3-1.7c-1.8-0.6-3.4-1.6-4.7-3.1c-1.3-1.4-2-3.3-2-5.8c0-3,1.2-5.5,3.7-7.5c2.5-2,6.1-2.9,10.7-2.9
				c2.4,0,4.8,0.3,7.2,1c2.4,0.7,4.3,1.6,5.8,2.7l-1.7,2.9c-1.6-1.1-3.3-2-5.3-2.5c-2-0.6-4-0.9-6.1-0.9c-3.5,0-6.2,0.7-8,2
				c-1.8,1.3-2.7,3-2.7,5.2c0,1.7,0.5,3,1.5,4c1,0.9,2.3,1.6,3.7,2.1c1.5,0.5,3.6,1,6.2,1.5c3,0.5,5.3,1.1,7.2,1.7
				c1.8,0.6,3.4,1.6,4.6,2.9c1.3,1.4,1.9,3.2,1.9,5.6c0,3.2-1.3,5.7-3.9,7.6c-2.6,1.9-6.3,2.8-11.1,2.8
				C1086.7,846.2,1083.8,845.7,1081,844.8z"/>
			<path fill="#5C6670" d="M1089.7,846.3c-3.1,0-6-0.5-8.8-1.4c-2.8-0.9-5-2.1-6.5-3.5l-0.1-0.1l0-0.1l1.7-3l0.1,0.1
				c1.5,1.3,3.5,2.4,6,3.3c2.4,0.9,5,1.3,7.6,1.3c3.8,0,6.6-0.6,8.4-1.9c1.8-1.2,2.7-3,2.7-5.1c0-1.6-0.5-2.8-1.5-3.7
				c-1-0.9-2.2-1.6-3.6-2c-1.4-0.4-3.5-0.9-6-1.4c-3-0.5-5.5-1.1-7.3-1.8c-1.9-0.6-3.5-1.7-4.8-3.1c-1.3-1.4-2-3.4-2-5.9
				c0-3,1.3-5.6,3.8-7.5c2.5-2,6.1-3,10.7-3c2.4,0,4.9,0.3,7.2,1c2.4,0.7,4.4,1.6,5.9,2.7l0.1,0.1l-1.8,3.1l-0.1-0.1
				c-1.5-1.1-3.3-2-5.3-2.5c-2-0.6-4-0.9-6.1-0.9c-3.5,0-6.2,0.7-7.9,1.9c-1.8,1.3-2.6,3-2.6,5.1c0,1.7,0.5,3,1.5,3.9
				c1,0.9,2.3,1.6,3.7,2.1c1.5,0.5,3.5,1,6.2,1.5c3,0.5,5.4,1.1,7.2,1.7c1.8,0.6,3.4,1.6,4.7,3c1.3,1.4,1.9,3.3,1.9,5.7
				c0,3.2-1.3,5.8-4,7.7C1098.2,845.3,1094.5,846.3,1089.7,846.3z M1074.7,841.3c1.5,1.4,3.7,2.5,6.4,3.4c2.7,0.9,5.7,1.4,8.7,1.4
				c4.7,0,8.4-0.9,11-2.8c2.6-1.9,3.9-4.4,3.9-7.5c0-2.3-0.6-4.2-1.9-5.5c-1.2-1.3-2.8-2.3-4.6-2.9c-1.8-0.6-4.2-1.2-7.2-1.7
				c-2.7-0.5-4.8-1-6.2-1.5c-1.5-0.5-2.8-1.2-3.8-2.1c-1-1-1.6-2.3-1.6-4c0-2.2,0.9-3.9,2.7-5.3c1.8-1.3,4.5-2,8.1-2
				c2.1,0,4.2,0.3,6.1,0.9c1.9,0.6,3.7,1.4,5.2,2.5l1.6-2.7c-1.5-1.1-3.4-2-5.7-2.6c-2.4-0.7-4.8-1-7.2-1c-4.6,0-8.1,1-10.6,2.9
				c-2.5,1.9-3.7,4.4-3.7,7.4c0,2.4,0.7,4.4,1.9,5.7c1.3,1.4,2.9,2.4,4.7,3c1.8,0.6,4.3,1.2,7.3,1.7c2.6,0.5,4.6,1,6.1,1.4
				c1.5,0.4,2.7,1.1,3.7,2.1c1,0.9,1.5,2.2,1.5,3.9c0,2.3-0.9,4.1-2.8,5.3c-1.8,1.3-4.7,1.9-8.5,1.9c-2.7,0-5.3-0.4-7.7-1.3
				c-2.4-0.9-4.4-1.9-5.9-3.2L1074.7,841.3z"/>
		</g>
		<g>
			<path fill="#5C6670" d="M1143.6,810.1c2.9,1.6,5.1,3.9,6.7,6.8c1.6,2.9,2.4,6.2,2.4,10s-0.8,7.1-2.4,10c-1.6,2.9-3.9,5.2-6.7,6.8
				c-2.9,1.6-6.1,2.4-9.6,2.4c-3.3,0-6.4-0.8-9.1-2.4c-2.7-1.6-4.8-3.8-6.3-6.6V860h-3.6v-52.1h3.5v9c1.5-2.9,3.6-5.2,6.4-6.8
				c2.7-1.6,5.8-2.4,9.2-2.4C1137.5,807.6,1140.7,808.4,1143.6,810.1z M1141.6,840.9c2.3-1.4,4.2-3.3,5.5-5.7c1.3-2.4,2-5.2,2-8.3
				c0-3.1-0.7-5.9-2-8.3c-1.3-2.4-3.2-4.3-5.5-5.7c-2.3-1.4-4.9-2-7.9-2c-2.9,0-5.5,0.7-7.8,2c-2.3,1.4-4.1,3.3-5.5,5.7
				c-1.3,2.4-2,5.2-2,8.3c0,3.1,0.7,5.9,2,8.3c1.3,2.4,3.2,4.3,5.5,5.7c2.3,1.4,4.9,2,7.8,2C1136.7,842.9,1139.3,842.2,1141.6,840.9
				z"/>
			<path fill="#5C6670" d="M1118.7,860.1h-3.9v-52.3h3.7v8.6c1.5-2.7,3.6-4.9,6.2-6.5c2.7-1.6,5.9-2.5,9.3-2.5
				c3.5,0,6.8,0.8,9.7,2.5c2.9,1.7,5.1,4,6.8,6.9c1.6,2.9,2.5,6.3,2.5,10c0,3.7-0.8,7.1-2.5,10.1c-1.6,2.9-3.9,5.3-6.8,6.9
				c-2.9,1.6-6.1,2.5-9.7,2.5c-3.4,0-6.4-0.8-9.2-2.4c-2.6-1.5-4.7-3.6-6.2-6.2V860.1z M1115,859.9h3.4v-23.1l0.2,0.4
				c1.5,2.8,3.6,5,6.3,6.5c2.7,1.6,5.7,2.4,9,2.4c3.5,0,6.7-0.8,9.6-2.4c2.8-1.6,5.1-3.9,6.7-6.8c1.6-2.9,2.4-6.3,2.4-10
				c0-3.7-0.8-7-2.4-9.9c-1.6-2.9-3.9-5.2-6.7-6.8c-2.8-1.6-6-2.5-9.6-2.5c-3.4,0-6.4,0.8-9.1,2.4c-2.7,1.6-4.8,3.9-6.3,6.8
				l-0.2,0.4V808h-3.3V859.9z M1133.8,843c-2.9,0-5.6-0.7-7.9-2.1c-2.3-1.4-4.2-3.3-5.5-5.7c-1.3-2.4-2-5.2-2-8.4
				c0-3.1,0.7-5.9,2-8.4c1.3-2.4,3.2-4.4,5.5-5.7c2.3-1.4,5-2.1,7.9-2.1c2.9,0,5.6,0.7,7.9,2.1c2.3,1.4,4.2,3.3,5.5,5.7
				c1.3,2.4,2,5.2,2,8.4c0,3.1-0.7,5.9-2,8.4c-1.3,2.4-3.2,4.4-5.5,5.7C1139.3,842.3,1136.7,843,1133.8,843z M1133.8,811
				c-2.9,0-5.5,0.7-7.8,2c-2.3,1.3-4.1,3.2-5.4,5.6c-1.3,2.4-2,5.2-2,8.2c0,3.1,0.7,5.8,2,8.2c1.3,2.4,3.1,4.3,5.4,5.6
				c2.3,1.3,4.9,2,7.8,2c2.9,0,5.5-0.7,7.8-2c2.3-1.3,4.1-3.2,5.5-5.6c1.3-2.4,2-5.2,2-8.2c0-3.1-0.7-5.8-2-8.2
				c-1.3-2.4-3.2-4.3-5.5-5.6C1139.3,811.7,1136.6,811,1133.8,811z"/>
		</g>
		<g>
			<path fill="#5C6670" d="M1187.5,811.2c2.5,2.4,3.8,5.9,3.8,10.6v24.1h-3.5v-6.8c-1.2,2.2-3,4-5.3,5.2c-2.3,1.2-5.1,1.9-8.4,1.9
				c-4.2,0-7.6-1-10-3c-2.5-2-3.7-4.6-3.7-7.9c0-3.2,1.1-5.7,3.4-7.7c2.3-2,5.9-2.9,10.8-2.9h13v-3.1c0-3.5-1-6.2-2.9-8.1
				c-1.9-1.8-4.7-2.8-8.4-2.8c-2.5,0-4.9,0.4-7.2,1.3c-2.3,0.9-4.3,2-5.9,3.5l-1.8-2.6c1.9-1.7,4.2-3,6.8-4c2.7-0.9,5.5-1.4,8.4-1.4
				C1181.4,807.6,1185,808.8,1187.5,811.2z M1182.7,841c2.2-1.5,3.9-3.6,5-6.3v-7.1h-13c-3.7,0-6.4,0.7-8.1,2
				c-1.7,1.4-2.5,3.2-2.5,5.6c0,2.5,0.9,4.4,2.8,5.9c1.8,1.4,4.4,2.1,7.8,2.1C1177.8,843.2,1180.5,842.5,1182.7,841z"/>
			<path fill="#5C6670" d="M1174.2,846.3c-4.2,0-7.6-1-10.1-3c-2.5-2-3.7-4.7-3.7-7.9c0-3.2,1.2-5.8,3.4-7.8c2.3-2,5.9-3,10.9-3
				h12.9v-2.9c0-3.5-1-6.2-2.8-8c-1.9-1.8-4.7-2.7-8.3-2.7c-2.5,0-4.9,0.4-7.2,1.3c-2.3,0.9-4.2,2-5.8,3.5l-0.1,0.1l-2-2.8l0.1-0.1
				c1.9-1.7,4.2-3,6.9-4c2.7-0.9,5.5-1.4,8.4-1.4c4.7,0,8.4,1.2,10.9,3.6c2.5,2.4,3.8,6,3.8,10.7V846h-3.7v-6.5
				c-1.2,2.1-2.9,3.7-5.1,4.9C1180.2,845.7,1177.4,846.3,1174.2,846.3z M1174.7,824.8c-4.9,0-8.5,1-10.7,2.9
				c-2.2,1.9-3.3,4.5-3.3,7.6c0,3.2,1.2,5.8,3.6,7.8c2.4,2,5.8,3,9.9,3c3.2,0,6-0.6,8.3-1.8c2.3-1.2,4.1-3,5.3-5.2l0.2-0.4v7.1h3.3
				v-24c0-4.6-1.3-8.1-3.8-10.5c-2.5-2.4-6.1-3.6-10.8-3.6c-2.9,0-5.7,0.5-8.3,1.4c-2.6,0.9-4.9,2.2-6.7,3.9l1.7,2.4
				c1.6-1.4,3.5-2.6,5.8-3.4c2.3-0.9,4.8-1.3,7.3-1.3c3.7,0,6.6,0.9,8.5,2.8c1.9,1.9,2.9,4.6,2.9,8.2v3.2H1174.7z M1174.7,843.3
				c-3.4,0-6-0.7-7.9-2.2c-1.9-1.4-2.8-3.4-2.8-5.9c0-2.4,0.9-4.3,2.6-5.7c1.7-1.4,4.4-2.1,8.2-2.1h13.1l0,7.3
				c-1.1,2.8-2.8,4.9-5,6.4C1180.6,842.6,1177.8,843.3,1174.7,843.3z M1174.7,827.7c-3.7,0-6.4,0.7-8,2c-1.6,1.3-2.5,3.2-2.5,5.5
				c0,2.4,0.9,4.4,2.7,5.8c1.8,1.4,4.4,2.1,7.7,2.1c3.1,0,5.8-0.7,8-2.2c2.2-1.4,3.8-3.5,4.9-6.3v-7H1174.7z"/>
		</g>
		<g>
			<path fill="#5C6670" d="M1211.6,843.7c-2.9-1.6-5.2-3.9-6.8-6.9c-1.6-2.9-2.5-6.2-2.5-9.9c0-3.7,0.8-7.1,2.5-10
				c1.6-2.9,3.9-5.2,6.8-6.8c2.9-1.6,6.2-2.4,9.9-2.4c3.1,0,5.8,0.6,8.3,1.8c2.5,1.2,4.5,2.9,6.1,5.2l-2.7,2c-1.4-1.9-3-3.3-5.1-4.3
				c-2-0.9-4.2-1.4-6.7-1.4c-3,0-5.6,0.7-8,2c-2.4,1.3-4.2,3.2-5.5,5.6c-1.3,2.4-2,5.2-2,8.4c0,3.2,0.7,5.9,2,8.4
				c1.3,2.4,3.2,4.3,5.5,5.6c2.4,1.3,5,2,8,2c2.4,0,4.6-0.5,6.7-1.4c2-0.9,3.7-2.4,5.1-4.3l2.7,2c-1.6,2.3-3.6,4-6.1,5.2
				c-2.5,1.2-5.3,1.8-8.3,1.8C1217.8,846.2,1214.5,845.3,1211.6,843.7z"/>
			<path fill="#5C6670" d="M1221.5,846.3c-3.7,0-7-0.8-10-2.5c-2.9-1.7-5.2-4-6.9-6.9c-1.7-2.9-2.5-6.3-2.5-10
				c0-3.7,0.8-7.1,2.5-10.1c1.7-2.9,4-5.3,6.9-6.9c2.9-1.6,6.3-2.5,10-2.5c3.1,0,5.9,0.6,8.4,1.8c2.5,1.2,4.6,3,6.1,5.2l0.1,0.1
				l-2.9,2.1l-0.1-0.1c-1.3-1.9-3-3.3-5-4.2c-2-0.9-4.2-1.4-6.6-1.4c-2.9,0-5.6,0.7-7.9,2c-2.3,1.3-4.2,3.2-5.5,5.6
				c-1.3,2.4-2,5.2-2,8.3c0,3.1,0.7,5.9,2,8.3c1.3,2.4,3.2,4.3,5.5,5.6c2.3,1.3,5,2,7.9,2c2.4,0,4.6-0.5,6.6-1.4
				c2-0.9,3.7-2.4,5-4.2l0.1-0.1l2.9,2.1l-0.1,0.1c-1.6,2.3-3.6,4-6.1,5.2C1227.3,845.7,1224.5,846.3,1221.5,846.3z M1221.5,807.7
				c-3.6,0-7,0.8-9.8,2.4c-2.9,1.6-5.2,3.9-6.8,6.8c-1.6,2.9-2.5,6.3-2.5,10c0,3.7,0.8,7,2.5,9.9c1.6,2.9,3.9,5.2,6.8,6.8
				s6.2,2.5,9.8,2.5c3,0,5.8-0.6,8.3-1.8c2.4-1.2,4.4-2.9,6-5.1l-2.5-1.8c-1.4,1.9-3,3.3-5,4.2c-2,0.9-4.3,1.4-6.7,1.4
				c-3,0-5.7-0.7-8-2c-2.4-1.3-4.2-3.3-5.6-5.7c-1.3-2.4-2-5.3-2-8.4c0-3.2,0.7-6,2-8.4c1.3-2.4,3.2-4.3,5.6-5.7c2.4-1.3,5.1-2,8-2
				c2.4,0,4.7,0.5,6.7,1.4c2,0.9,3.7,2.3,5,4.2l2.5-1.8c-1.5-2.2-3.5-3.9-6-5.1C1227.3,808.3,1224.5,807.7,1221.5,807.7z"/>
		</g>
		<g>
			<path fill="#5C6670" d="M1246.5,797.8c-0.6-0.6-0.9-1.2-0.9-2.1c0-0.8,0.3-1.5,0.9-2.1c0.6-0.6,1.3-0.9,2.1-0.9
				c0.8,0,1.5,0.3,2.1,0.8c0.6,0.6,0.9,1.2,0.9,2.1c0,0.8-0.3,1.5-0.9,2.1s-1.3,0.9-2.1,0.9C1247.8,798.6,1247.1,798.4,1246.5,797.8
				z M1246.8,807.9h3.6v38h-3.6V807.9z"/>
			<path fill="#5C6670" d="M1250.5,846h-3.9v-38.2h3.9V846z M1246.9,845.8h3.4V808h-3.4V845.8z M1248.6,798.8
				c-0.9,0-1.6-0.3-2.2-0.9c-0.6-0.6-0.9-1.3-0.9-2.2s0.3-1.6,0.9-2.2c0.6-0.6,1.3-0.9,2.2-0.9c0.9,0,1.6,0.3,2.2,0.9
				c0.6,0.6,0.9,1.3,0.9,2.2c0,0.9-0.3,1.6-0.9,2.2C1250.2,798.5,1249.5,798.8,1248.6,798.8z M1248.6,792.9c-0.8,0-1.5,0.3-2,0.8
				s-0.8,1.2-0.8,2c0,0.8,0.3,1.5,0.8,2c0.6,0.5,1.2,0.8,2,0.8s1.5-0.3,2-0.8c0.6-0.6,0.8-1.2,0.8-2c0-0.8-0.3-1.5-0.8-2
				C1250.1,793.1,1249.4,792.9,1248.6,792.9z"/>
		</g>
		<g>
			<path fill="#5C6670" d="M1270.9,843.7c-2.9-1.6-5.2-3.9-6.8-6.9c-1.6-2.9-2.5-6.2-2.5-9.9c0-3.7,0.8-7,2.5-9.9
				c1.6-2.9,3.9-5.2,6.8-6.9c2.9-1.6,6.1-2.5,9.7-2.5c3.6,0,6.8,0.8,9.7,2.5c2.9,1.6,5.2,3.9,6.8,6.9c1.6,2.9,2.5,6.2,2.5,9.9
				c0,3.7-0.8,7-2.5,9.9c-1.7,2.9-3.9,5.2-6.8,6.9c-2.9,1.6-6.1,2.5-9.7,2.5C1277,846.2,1273.8,845.3,1270.9,843.7z M1288.5,840.9
				c2.3-1.4,4.1-3.3,5.5-5.7c1.3-2.4,2-5.2,2-8.3c0-3.1-0.7-5.9-2-8.3c-1.3-2.4-3.2-4.3-5.5-5.7c-2.3-1.4-4.9-2-7.8-2
				c-2.9,0-5.5,0.7-7.8,2c-2.3,1.4-4.1,3.3-5.5,5.7c-1.3,2.4-2,5.2-2,8.3c0,3.1,0.7,5.9,2,8.3c1.3,2.4,3.2,4.3,5.5,5.7
				c2.3,1.4,4.9,2,7.8,2C1283.5,842.9,1286.2,842.2,1288.5,840.9z"/>
			<path fill="#5C6670" d="M1280.6,846.3c-3.6,0-6.9-0.8-9.8-2.5c-2.9-1.7-5.2-4-6.8-6.9c-1.7-2.9-2.5-6.3-2.5-10s0.8-7.1,2.5-10
				c1.7-2.9,4-5.3,6.8-6.9c2.9-1.7,6.2-2.5,9.8-2.5c3.6,0,6.9,0.8,9.8,2.5c2.9,1.7,5.2,4,6.8,6.9c1.7,2.9,2.5,6.3,2.5,10
				s-0.8,7.1-2.5,10c-1.7,2.9-4,5.3-6.8,6.9S1284.2,846.3,1280.6,846.3z M1280.6,807.7c-3.6,0-6.8,0.8-9.7,2.5
				c-2.9,1.6-5.1,3.9-6.8,6.8c-1.6,2.9-2.5,6.2-2.5,9.9s0.8,7,2.5,9.9c1.6,2.9,3.9,5.2,6.8,6.8c2.9,1.6,6.1,2.5,9.7,2.5
				c3.6,0,6.8-0.8,9.7-2.5c2.9-1.6,5.1-3.9,6.8-6.8c1.6-2.9,2.5-6.2,2.5-9.9s-0.8-7-2.5-9.9c-1.6-2.9-3.9-5.2-6.8-6.8
				C1287.4,808.5,1284.2,807.7,1280.6,807.7z M1280.6,843c-2.9,0-5.6-0.7-7.9-2.1c-2.3-1.4-4.2-3.3-5.5-5.7c-1.3-2.4-2-5.2-2-8.4
				c0-3.1,0.7-5.9,2-8.4c1.3-2.4,3.2-4.4,5.5-5.7c2.3-1.4,5-2.1,7.9-2.1c2.9,0,5.6,0.7,7.9,2.1c2.3,1.4,4.2,3.3,5.5,5.7
				c1.3,2.4,2,5.2,2,8.4c0,3.1-0.7,5.9-2,8.4c-1.3,2.4-3.2,4.4-5.5,5.7C1286.2,842.3,1283.6,843,1280.6,843z M1280.6,811
				c-2.9,0-5.5,0.7-7.8,2c-2.3,1.3-4.1,3.2-5.4,5.6c-1.3,2.4-2,5.2-2,8.2c0,3.1,0.7,5.8,2,8.2s3.1,4.3,5.4,5.6c2.3,1.3,4.9,2,7.8,2
				c2.9,0,5.5-0.7,7.8-2c2.3-1.3,4.1-3.2,5.4-5.6c1.3-2.4,2-5.2,2-8.2c0-3.1-0.7-5.8-2-8.2c-1.3-2.4-3.1-4.3-5.4-5.6
				C1286.1,811.7,1283.5,811,1280.6,811z"/>
		</g>
		<g>
			<path fill="#5C6670" d="M1358.3,810.1c2.9,1.6,5.1,3.9,6.7,6.8c1.6,2.9,2.4,6.2,2.4,10s-0.8,7.1-2.4,10c-1.6,2.9-3.9,5.2-6.7,6.8
				c-2.9,1.6-6.1,2.4-9.6,2.4c-3.3,0-6.4-0.8-9.1-2.4c-2.7-1.6-4.8-3.8-6.3-6.6V860h-3.6v-52.1h3.5v9c1.5-2.9,3.6-5.2,6.4-6.8
				c2.7-1.6,5.8-2.4,9.2-2.4C1352.2,807.6,1355.4,808.4,1358.3,810.1z M1356.3,840.9c2.3-1.4,4.2-3.3,5.5-5.7c1.3-2.4,2-5.2,2-8.3
				c0-3.1-0.7-5.9-2-8.3c-1.3-2.4-3.2-4.3-5.5-5.7c-2.3-1.4-4.9-2-7.9-2c-2.9,0-5.5,0.7-7.8,2c-2.3,1.4-4.1,3.3-5.5,5.7
				c-1.3,2.4-2,5.2-2,8.3c0,3.1,0.7,5.9,2,8.3c1.3,2.4,3.2,4.3,5.5,5.7c2.3,1.4,4.9,2,7.8,2C1351.4,842.9,1354,842.2,1356.3,840.9z"
				/>
			<path fill="#5C6670" d="M1333.4,860.1h-3.9v-52.3h3.7v8.6c1.5-2.7,3.6-4.9,6.2-6.5c2.7-1.6,5.9-2.5,9.3-2.5
				c3.5,0,6.8,0.8,9.7,2.5c2.9,1.7,5.1,4,6.8,6.9c1.6,2.9,2.5,6.3,2.5,10c0,3.7-0.8,7.1-2.5,10.1c-1.6,2.9-3.9,5.3-6.8,6.9
				c-2.9,1.6-6.1,2.5-9.7,2.5c-3.4,0-6.4-0.8-9.2-2.4c-2.6-1.5-4.7-3.6-6.2-6.2V860.1z M1329.7,859.9h3.4v-23.1l0.2,0.4
				c1.5,2.8,3.6,5,6.3,6.5c2.7,1.6,5.7,2.4,9,2.4c3.5,0,6.7-0.8,9.6-2.4c2.8-1.6,5.1-3.9,6.7-6.8c1.6-2.9,2.4-6.3,2.4-10
				c0-3.7-0.8-7-2.4-9.9c-1.6-2.9-3.9-5.2-6.7-6.8c-2.8-1.6-6-2.5-9.6-2.5c-3.4,0-6.4,0.8-9.1,2.4c-2.7,1.6-4.8,3.9-6.3,6.8
				l-0.2,0.4V808h-3.3V859.9z M1348.5,843c-2.9,0-5.6-0.7-7.9-2.1c-2.3-1.4-4.2-3.3-5.5-5.7c-1.3-2.4-2-5.2-2-8.4
				c0-3.1,0.7-5.9,2-8.4c1.3-2.4,3.2-4.4,5.5-5.7c2.3-1.4,5-2.1,7.9-2.1c2.9,0,5.6,0.7,7.9,2.1c2.3,1.4,4.2,3.3,5.5,5.7
				c1.3,2.4,2,5.2,2,8.4c0,3.1-0.7,5.9-2,8.4c-1.3,2.4-3.2,4.4-5.5,5.7C1354,842.3,1351.4,843,1348.5,843z M1348.5,811
				c-2.9,0-5.5,0.7-7.8,2c-2.3,1.3-4.1,3.2-5.4,5.6c-1.3,2.4-2,5.2-2,8.2c0,3.1,0.7,5.8,2,8.2c1.3,2.4,3.1,4.3,5.4,5.6
				c2.3,1.3,4.9,2,7.8,2c2.9,0,5.5-0.7,7.8-2c2.3-1.3,4.1-3.2,5.5-5.6c1.3-2.4,2-5.2,2-8.2c0-3.1-0.7-5.8-2-8.2
				c-1.3-2.4-3.2-4.3-5.5-5.6C1354,811.7,1351.3,811,1348.5,811z"/>
		</g>
		<g>
			<path fill="#5C6670" d="M1402.3,811.2c2.5,2.4,3.8,5.9,3.8,10.6v24.1h-3.5v-6.8c-1.2,2.2-3,4-5.3,5.2s-5.1,1.9-8.4,1.9
				c-4.2,0-7.6-1-10-3c-2.5-2-3.7-4.6-3.7-7.9c0-3.2,1.1-5.7,3.4-7.7c2.3-2,5.9-2.9,10.8-2.9h13v-3.1c0-3.5-1-6.2-2.9-8.1
				c-1.9-1.8-4.7-2.8-8.4-2.8c-2.5,0-4.9,0.4-7.2,1.3c-2.3,0.9-4.3,2-5.9,3.5l-1.8-2.6c1.9-1.7,4.2-3,6.8-4c2.7-0.9,5.5-1.4,8.4-1.4
				C1396.1,807.6,1399.7,808.8,1402.3,811.2z M1397.4,841c2.2-1.5,3.9-3.6,5-6.3v-7.1h-13c-3.7,0-6.4,0.7-8.1,2
				c-1.7,1.4-2.5,3.2-2.5,5.6c0,2.5,0.9,4.4,2.8,5.9c1.8,1.4,4.4,2.1,7.8,2.1C1392.5,843.2,1395.2,842.5,1397.4,841z"/>
			<path fill="#5C6670" d="M1388.9,846.3c-4.2,0-7.6-1-10.1-3c-2.5-2-3.7-4.7-3.7-7.9c0-3.2,1.2-5.8,3.4-7.8c2.3-2,5.9-3,10.9-3
				h12.9v-2.9c0-3.5-1-6.2-2.8-8c-1.9-1.8-4.7-2.7-8.3-2.7c-2.5,0-4.9,0.4-7.2,1.3c-2.3,0.9-4.2,2-5.8,3.5l-0.1,0.1l-1.9-2.8
				l0.1-0.1c1.9-1.7,4.2-3,6.9-4c2.7-0.9,5.5-1.4,8.4-1.4c4.7,0,8.4,1.2,10.9,3.6c2.5,2.4,3.8,6,3.8,10.7V846h-3.7v-6.5
				c-1.2,2.1-2.9,3.7-5.1,4.9C1394.9,845.7,1392.1,846.3,1388.9,846.3z M1389.4,824.8c-4.9,0-8.5,1-10.7,2.9
				c-2.2,1.9-3.3,4.5-3.3,7.6c0,3.2,1.2,5.8,3.6,7.8c2.4,2,5.8,3,9.9,3c3.2,0,6-0.6,8.3-1.8c2.3-1.2,4.1-3,5.3-5.2l0.2-0.4v7.1h3.3
				v-24c0-4.6-1.3-8.1-3.8-10.5c-2.5-2.4-6.1-3.6-10.8-3.6c-2.9,0-5.7,0.5-8.3,1.4c-2.6,0.9-4.9,2.2-6.7,3.9l1.7,2.4
				c1.6-1.4,3.5-2.6,5.8-3.4c2.3-0.9,4.8-1.3,7.3-1.3c3.7,0,6.6,0.9,8.5,2.8c1.9,1.9,2.9,4.6,2.9,8.2v3.2H1389.4z M1389.4,843.3
				c-3.4,0-6-0.7-7.9-2.2c-1.9-1.4-2.8-3.4-2.8-5.9c0-2.4,0.9-4.3,2.6-5.7c1.7-1.4,4.4-2.1,8.2-2.1h13.1l0,7.3
				c-1.1,2.8-2.8,4.9-5,6.4C1395.3,842.6,1392.5,843.3,1389.4,843.3z M1389.4,827.7c-3.7,0-6.4,0.7-8,2c-1.6,1.3-2.5,3.2-2.5,5.5
				c0,2.4,0.9,4.4,2.7,5.8c1.8,1.4,4.4,2.1,7.7,2.1c3.1,0,5.8-0.7,8-2.2c2.2-1.4,3.8-3.5,4.9-6.3v-7H1389.4z"/>
		</g>
		<g>
			<path fill="#5C6670" d="M1430,809.8c2.5-1.5,5.5-2.2,9-2.2v3.6l-0.9-0.1c-4.2,0-7.5,1.3-9.9,4c-2.4,2.6-3.6,6.3-3.6,11v19.8h-3.6
				v-38h3.5v8.3C1425.7,813.4,1427.5,811.3,1430,809.8z"/>
			<path fill="#5C6670" d="M1424.8,846h-3.9v-38.2h3.7v7.9c1.2-2.5,3-4.5,5.3-5.9c2.5-1.5,5.5-2.2,9.1-2.2h0.1v3.8l-1-0.1
				c-4.2,0-7.5,1.3-9.8,3.9c-2.3,2.6-3.5,6.3-3.5,11V846z M1421.1,845.8h3.4v-19.7c0-4.7,1.2-8.4,3.6-11.1c2.4-2.7,5.7-4,10-4
				l0.8,0.1v-3.3c-3.5,0-6.4,0.8-8.9,2.2c-2.4,1.5-4.3,3.6-5.4,6.3l-0.2,0.5V808h-3.3V845.8z"/>
		</g>
		<g>
			<path fill="#5C6670" d="M1472.7,811.2c2.5,2.4,3.8,5.9,3.8,10.6v24.1h-3.5v-6.8c-1.2,2.2-3,4-5.3,5.2s-5.1,1.9-8.4,1.9
				c-4.2,0-7.6-1-10-3c-2.5-2-3.7-4.6-3.7-7.9c0-3.2,1.1-5.7,3.4-7.7c2.3-2,5.9-2.9,10.8-2.9h13v-3.1c0-3.5-1-6.2-2.9-8.1
				c-1.9-1.8-4.7-2.8-8.4-2.8c-2.5,0-4.9,0.4-7.2,1.3c-2.3,0.9-4.3,2-5.9,3.5l-1.8-2.6c1.9-1.7,4.2-3,6.8-4c2.7-0.9,5.5-1.4,8.4-1.4
				C1466.6,807.6,1470.2,808.8,1472.7,811.2z M1467.9,841c2.2-1.5,3.9-3.6,5-6.3v-7.1h-13c-3.7,0-6.4,0.7-8.1,2
				c-1.7,1.4-2.5,3.2-2.5,5.6c0,2.5,0.9,4.4,2.8,5.9c1.8,1.4,4.4,2.1,7.8,2.1C1463,843.2,1465.7,842.5,1467.9,841z"/>
			<path fill="#5C6670" d="M1459.3,846.3c-4.2,0-7.6-1-10.1-3c-2.5-2-3.7-4.7-3.7-7.9c0-3.2,1.2-5.8,3.4-7.8c2.3-2,5.9-3,10.9-3
				h12.9v-2.9c0-3.5-1-6.2-2.8-8c-1.9-1.8-4.7-2.7-8.3-2.7c-2.5,0-4.9,0.4-7.2,1.3c-2.3,0.9-4.2,2-5.8,3.5l-0.1,0.1l-1.9-2.8
				l0.1-0.1c1.9-1.7,4.2-3,6.9-4c2.7-0.9,5.5-1.4,8.4-1.4c4.7,0,8.4,1.2,10.9,3.6c2.5,2.4,3.8,6,3.8,10.7V846h-3.7v-6.5
				c-1.2,2.1-2.9,3.7-5.1,4.9C1465.4,845.7,1462.6,846.3,1459.3,846.3z M1459.8,824.8c-4.9,0-8.5,1-10.7,2.9
				c-2.2,1.9-3.3,4.5-3.3,7.6c0,3.2,1.2,5.8,3.6,7.8c2.4,2,5.8,3,9.9,3c3.2,0,6-0.6,8.3-1.8c2.3-1.2,4.1-3,5.3-5.2l0.2-0.4v7.1h3.3
				v-24c0-4.6-1.3-8.1-3.8-10.5c-2.5-2.4-6.1-3.6-10.8-3.6c-2.9,0-5.7,0.5-8.3,1.4c-2.6,0.9-4.9,2.2-6.7,3.9l1.7,2.4
				c1.6-1.4,3.5-2.6,5.8-3.4c2.3-0.9,4.8-1.3,7.3-1.3c3.7,0,6.6,0.9,8.5,2.8c1.9,1.9,2.9,4.6,2.9,8.2v3.2H1459.8z M1459.8,843.3
				c-3.4,0-6-0.7-7.9-2.2c-1.9-1.4-2.8-3.4-2.8-5.9c0-2.4,0.9-4.3,2.6-5.7c1.7-1.4,4.4-2.1,8.2-2.1h13.1l0,7.3
				c-1.1,2.8-2.8,4.9-5,6.4C1465.7,842.6,1463,843.3,1459.8,843.3z M1459.9,827.7c-3.7,0-6.4,0.7-8,2c-1.6,1.3-2.5,3.2-2.5,5.5
				c0,2.4,0.9,4.4,2.7,5.8c1.8,1.4,4.4,2.1,7.7,2.1c3.1,0,5.8-0.7,8-2.2c2.2-1.4,3.8-3.5,4.9-6.3v-7H1459.9z"/>
		</g>
		<g>
			<path fill="#5C6670" d="M1533.8,811.2c2.5,2.4,3.8,5.9,3.8,10.6v24.1h-3.5v-6.8c-1.2,2.2-3,4-5.3,5.2s-5.1,1.9-8.4,1.9
				c-4.2,0-7.6-1-10-3c-2.5-2-3.7-4.6-3.7-7.9c0-3.2,1.1-5.7,3.4-7.7c2.3-2,5.9-2.9,10.8-2.9h13v-3.1c0-3.5-1-6.2-2.9-8.1
				c-1.9-1.8-4.7-2.8-8.4-2.8c-2.5,0-4.9,0.4-7.2,1.3c-2.3,0.9-4.3,2-5.9,3.5l-1.8-2.6c1.9-1.7,4.2-3,6.8-4c2.7-0.9,5.5-1.4,8.4-1.4
				C1527.7,807.6,1531.3,808.8,1533.8,811.2z M1529,841c2.2-1.5,3.9-3.6,5-6.3v-7.1h-13c-3.7,0-6.4,0.7-8.1,2
				c-1.7,1.4-2.5,3.2-2.5,5.6c0,2.5,0.9,4.4,2.8,5.9c1.8,1.4,4.4,2.1,7.8,2.1C1524.1,843.2,1526.8,842.5,1529,841z"/>
			<path fill="#5C6670" d="M1520.4,846.3c-4.2,0-7.6-1-10.1-3c-2.5-2-3.7-4.7-3.7-7.9c0-3.2,1.2-5.8,3.4-7.8c2.3-2,5.9-3,10.9-3
				h12.9v-2.9c0-3.5-1-6.2-2.8-8c-1.9-1.8-4.7-2.7-8.3-2.7c-2.5,0-4.9,0.4-7.2,1.3c-2.3,0.9-4.2,2-5.8,3.5l-0.1,0.1l-2-2.8l0.1-0.1
				c1.9-1.7,4.2-3,6.9-4c2.7-0.9,5.5-1.4,8.4-1.4c4.7,0,8.4,1.2,10.9,3.6c2.5,2.4,3.8,6,3.8,10.7V846h-3.7v-6.5
				c-1.2,2.1-2.9,3.7-5.1,4.9C1526.5,845.7,1523.7,846.3,1520.4,846.3z M1521,824.8c-4.9,0-8.5,1-10.7,2.9c-2.2,1.9-3.3,4.5-3.3,7.6
				c0,3.2,1.2,5.8,3.6,7.8c2.4,2,5.8,3,9.9,3c3.2,0,6-0.6,8.3-1.8c2.3-1.2,4.1-3,5.3-5.2l0.2-0.4v7.1h3.3v-24
				c0-4.6-1.3-8.1-3.8-10.5c-2.5-2.4-6.1-3.6-10.8-3.6c-2.9,0-5.7,0.5-8.3,1.4c-2.6,0.9-4.9,2.2-6.7,3.9l1.7,2.4
				c1.6-1.4,3.5-2.6,5.8-3.4c2.3-0.9,4.8-1.3,7.3-1.3c3.7,0,6.6,0.9,8.5,2.8c1.9,1.9,2.9,4.6,2.9,8.2v3.2H1521z M1521,843.3
				c-3.4,0-6-0.7-7.9-2.2c-1.9-1.4-2.8-3.4-2.8-5.9c0-2.4,0.9-4.3,2.6-5.7c1.7-1.4,4.4-2.1,8.2-2.1h13.1l0,7.3
				c-1.1,2.8-2.8,4.9-5,6.4C1526.8,842.6,1524.1,843.3,1521,843.3z M1521,827.7c-3.7,0-6.4,0.7-8,2c-1.6,1.3-2.5,3.2-2.5,5.5
				c0,2.4,0.9,4.4,2.7,5.8c1.8,1.4,4.4,2.1,7.7,2.1c3.1,0,5.8-0.7,8-2.2c2.2-1.4,3.8-3.5,4.9-6.3v-7H1521z"/>
		</g>
		<g>
			<path fill="#5C6670" d="M1581.3,810.1c2.9,1.6,5.1,3.9,6.7,6.8c1.6,2.9,2.4,6.2,2.4,10s-0.8,7.1-2.4,10c-1.6,2.9-3.9,5.2-6.7,6.8
				c-2.9,1.6-6.1,2.4-9.6,2.4c-3.3,0-6.4-0.8-9.1-2.4c-2.7-1.6-4.8-3.8-6.3-6.6V860h-3.6v-52.1h3.5v9c1.5-2.9,3.6-5.2,6.4-6.8
				c2.7-1.6,5.8-2.4,9.2-2.4C1575.2,807.6,1578.4,808.4,1581.3,810.1z M1579.3,840.9c2.3-1.4,4.2-3.3,5.5-5.7c1.3-2.4,2-5.2,2-8.3
				c0-3.1-0.7-5.9-2-8.3c-1.3-2.4-3.2-4.3-5.5-5.7c-2.3-1.4-4.9-2-7.9-2c-2.9,0-5.5,0.7-7.8,2c-2.3,1.4-4.1,3.3-5.5,5.7
				c-1.3,2.4-2,5.2-2,8.3c0,3.1,0.7,5.9,2,8.3c1.3,2.4,3.2,4.3,5.5,5.7c2.3,1.4,4.9,2,7.8,2C1574.4,842.9,1577,842.2,1579.3,840.9z"
				/>
			<path fill="#5C6670" d="M1556.4,860.1h-3.9v-52.3h3.7v8.6c1.5-2.7,3.6-4.9,6.2-6.5c2.7-1.6,5.9-2.5,9.3-2.5
				c3.5,0,6.8,0.8,9.7,2.5c2.9,1.7,5.1,4,6.8,6.9c1.6,2.9,2.5,6.3,2.5,10c0,3.7-0.8,7.1-2.5,10.1c-1.6,2.9-3.9,5.3-6.8,6.9
				c-2.9,1.6-6.1,2.5-9.7,2.5c-3.4,0-6.4-0.8-9.2-2.4c-2.6-1.5-4.7-3.6-6.2-6.2V860.1z M1552.7,859.9h3.4v-23.1l0.2,0.4
				c1.5,2.8,3.6,5,6.3,6.5c2.7,1.6,5.7,2.4,9,2.4c3.5,0,6.7-0.8,9.6-2.4c2.8-1.6,5.1-3.9,6.7-6.8c1.6-2.9,2.4-6.3,2.4-10
				c0-3.7-0.8-7-2.4-9.9c-1.6-2.9-3.9-5.2-6.7-6.8c-2.8-1.6-6-2.5-9.6-2.5c-3.4,0-6.4,0.8-9.1,2.4c-2.7,1.6-4.8,3.9-6.3,6.8
				l-0.2,0.4V808h-3.3V859.9z M1571.5,843c-2.9,0-5.6-0.7-7.9-2.1c-2.3-1.4-4.2-3.3-5.5-5.7c-1.3-2.4-2-5.2-2-8.4
				c0-3.1,0.7-5.9,2-8.4c1.3-2.4,3.2-4.4,5.5-5.7c2.3-1.4,5-2.1,7.9-2.1c2.9,0,5.6,0.7,7.9,2.1c2.3,1.4,4.2,3.3,5.5,5.7
				c1.3,2.4,2,5.2,2,8.4c0,3.1-0.7,5.9-2,8.4c-1.3,2.4-3.2,4.4-5.5,5.7C1577,842.3,1574.4,843,1571.5,843z M1571.5,811
				c-2.9,0-5.5,0.7-7.8,2c-2.3,1.3-4.1,3.2-5.4,5.6c-1.3,2.4-2,5.2-2,8.2c0,3.1,0.7,5.8,2,8.2c1.3,2.4,3.1,4.3,5.4,5.6
				c2.3,1.3,4.9,2,7.8,2c2.9,0,5.5-0.7,7.8-2c2.3-1.3,4.1-3.2,5.5-5.6c1.3-2.4,2-5.2,2-8.2c0-3.1-0.7-5.8-2-8.2
				c-1.3-2.4-3.2-4.3-5.5-5.6C1577,811.7,1574.3,811,1571.5,811z"/>
		</g>
		<g>
			<path fill="#5C6670" d="M1610.7,809.8c2.5-1.5,5.5-2.2,9-2.2v3.6l-0.9-0.1c-4.2,0-7.5,1.3-9.9,4c-2.4,2.6-3.6,6.3-3.6,11v19.8
				h-3.6v-38h3.5v8.3C1606.4,813.4,1608.2,811.3,1610.7,809.8z"/>
			<path fill="#5C6670" d="M1605.5,846h-3.9v-38.2h3.7v7.9c1.2-2.5,3-4.5,5.3-5.9c2.5-1.5,5.5-2.2,9.1-2.2h0.1v3.8l-1-0.1
				c-4.2,0-7.5,1.3-9.8,3.9c-2.3,2.6-3.5,6.3-3.5,11V846z M1601.9,845.8h3.4v-19.7c0-4.7,1.2-8.4,3.6-11.1c2.4-2.7,5.7-4,10-4
				l0.8,0.1v-3.3c-3.5,0-6.4,0.8-8.9,2.2c-2.4,1.5-4.3,3.6-5.4,6.3l-0.2,0.5V808h-3.3V845.8z"/>
		</g>
		<g>
			<path fill="#5C6670" d="M1661.5,827.8h-32.7c0.1,3,0.8,5.6,2.3,7.9c1.4,2.3,3.3,4.1,5.7,5.3c2.4,1.3,5.1,1.9,8.1,1.9
				c2.5,0,4.8-0.4,6.9-1.3c2.1-0.9,3.9-2.2,5.3-4l2.1,2.4c-1.6,2-3.7,3.5-6.2,4.6c-2.5,1.1-5.2,1.6-8.1,1.6c-3.8,0-7.2-0.8-10.1-2.5
				c-3-1.6-5.3-3.9-7-6.8c-1.7-2.9-2.5-6.2-2.5-10c0-3.7,0.8-7,2.4-9.9c1.6-2.9,3.7-5.2,6.5-6.9c2.8-1.6,5.9-2.5,9.3-2.5
				c3.4,0,6.5,0.8,9.3,2.4c2.7,1.6,4.9,3.9,6.5,6.8c1.6,2.9,2.4,6.2,2.4,9.9L1661.5,827.8z M1636.2,812.6c-2.1,1.2-3.8,2.9-5.1,5
				c-1.3,2.2-2,4.6-2.2,7.3h29.1c-0.1-2.7-0.9-5.1-2.2-7.3c-1.3-2.1-3-3.8-5.2-5c-2.1-1.2-4.5-1.8-7.2-1.8
				S1638.4,811.4,1636.2,812.6z"/>
			<path fill="#5C6670" d="M1644.8,846.3c-3.8,0-7.2-0.8-10.2-2.5c-3-1.7-5.3-4-7-6.9c-1.7-2.9-2.5-6.3-2.5-10c0-3.7,0.8-7.1,2.4-10
				c1.6-2.9,3.8-5.3,6.6-6.9s5.9-2.5,9.4-2.5c3.4,0,6.6,0.8,9.3,2.5c2.7,1.6,4.9,3.9,6.5,6.8c1.6,2.9,2.4,6.3,2.4,10l-0.1,1.1h-32.7
				c0.1,2.9,0.9,5.5,2.2,7.7c1.4,2.3,3.3,4.1,5.7,5.3c2.4,1.2,5.1,1.9,8.1,1.9c2.4,0,4.7-0.5,6.8-1.3c2.1-0.9,3.8-2.2,5.2-3.9
				l0.1-0.1l2.3,2.6l-0.1,0.1c-1.7,2-3.8,3.5-6.3,4.6C1650.5,845.7,1647.7,846.3,1644.8,846.3z M1643.4,807.7
				c-3.4,0-6.5,0.8-9.3,2.5c-2.7,1.6-4.9,3.9-6.5,6.8c-1.6,2.9-2.4,6.2-2.4,9.9c0,3.7,0.8,7,2.5,9.9c1.7,2.9,4,5.2,6.9,6.8
				c2.9,1.6,6.3,2.5,10.1,2.5c2.9,0,5.6-0.5,8.1-1.6c2.4-1,4.5-2.5,6.1-4.5l-2-2.2c-1.4,1.7-3.2,3-5.2,3.9c-2.1,0.9-4.4,1.4-6.9,1.4
				c-3,0-5.8-0.6-8.2-1.9c-2.4-1.3-4.3-3.1-5.8-5.4c-1.4-2.3-2.2-5-2.3-8l0-0.1h32.7l0.1-0.9c0-3.6-0.8-7-2.4-9.8
				c-1.6-2.9-3.7-5.2-6.4-6.8C1650,808.5,1646.9,807.7,1643.4,807.7z M1658.1,825h-29.4l0-0.1c0.2-2.7,0.9-5.2,2.2-7.4
				c1.3-2.2,3-3.9,5.2-5.1c2.1-1.2,4.6-1.8,7.3-1.8c2.7,0,5.1,0.6,7.3,1.8s3.9,2.9,5.2,5.1s2.1,4.6,2.2,7.3L1658.1,825z M1629,824.8
				h28.9c-0.2-2.6-0.9-5-2.2-7.1c-1.3-2.1-3-3.8-5.1-5c-2.1-1.2-4.5-1.8-7.2-1.8s-5,0.6-7.2,1.8s-3.8,2.8-5.1,5
				C1630,819.8,1629.2,822.2,1629,824.8z"/>
		</g>
		<g>
			<path fill="#5C6670" d="M1702.7,811.7c2.8,2.8,4.1,6.7,4.1,11.9v22.2h-3.6V824c0-4.3-1.1-7.5-3.2-9.8c-2.2-2.2-5.2-3.3-9.1-3.3
				c-4.5,0-8,1.3-10.6,4c-2.6,2.7-3.9,6.3-3.9,10.8v20.2h-3.6v-38h3.5v8.2c1.3-2.7,3.3-4.8,5.9-6.3c2.6-1.5,5.7-2.3,9.2-2.3
				C1696.2,807.6,1699.9,809,1702.7,811.7z"/>
			<path fill="#5C6670" d="M1707,846h-3.9v-22c0-4.2-1.1-7.5-3.2-9.7c-2.1-2.2-5.2-3.3-9-3.3c-4.4,0-7.9,1.3-10.5,4
				c-2.5,2.6-3.8,6.2-3.8,10.7V846h-3.9v-38.2h3.7v7.9c1.3-2.5,3.2-4.5,5.7-5.9c2.6-1.5,5.7-2.3,9.3-2.3c4.8,0,8.6,1.4,11.4,4.2
				c2.8,2.8,4.2,6.8,4.2,12V846z M1703.3,845.8h3.4v-22.1c0-5.1-1.4-9.1-4.1-11.9c-2.7-2.7-6.5-4.1-11.2-4.1c-3.5,0-6.6,0.8-9.2,2.2
				c-2.6,1.5-4.5,3.6-5.8,6.2l-0.2,0.4V808h-3.3v37.8h3.4v-20.1c0-4.5,1.3-8.2,3.9-10.9c2.6-2.7,6.2-4,10.6-4c3.9,0,7,1.1,9.1,3.4
				c2.2,2.2,3.3,5.6,3.3,9.8V845.8z"/>
		</g>
		<g>
			<path fill="#5C6670" d="M1755.7,791.9v54h-3.6v-9c-1.5,3-3.6,5.2-6.3,6.8c-2.7,1.6-5.8,2.4-9.2,2.4c-3.5,0-6.7-0.8-9.6-2.5
				c-2.9-1.6-5.1-3.9-6.7-6.8c-1.6-2.9-2.4-6.2-2.4-10s0.8-7.1,2.4-10c1.6-2.9,3.9-5.2,6.7-6.8c2.9-1.6,6.1-2.4,9.6-2.4
				c3.4,0,6.4,0.8,9.1,2.4c2.7,1.6,4.8,3.8,6.4,6.7v-24.8H1755.7z M1744.6,840.9c2.3-1.4,4.1-3.3,5.5-5.7c1.3-2.4,2-5.2,2-8.3
				c0-3.1-0.7-5.9-2-8.3c-1.3-2.4-3.2-4.3-5.5-5.7c-2.3-1.4-4.9-2-7.8-2c-2.9,0-5.5,0.7-7.8,2c-2.3,1.4-4.1,3.3-5.5,5.7
				c-1.3,2.4-2,5.2-2,8.3c0,3.1,0.7,5.9,2,8.3c1.3,2.4,3.2,4.3,5.5,5.7c2.3,1.4,4.9,2,7.8,2C1739.7,842.9,1742.3,842.2,1744.6,840.9
				z"/>
			<path fill="#5C6670" d="M1736.5,846.3c-3.5,0-6.8-0.8-9.7-2.5c-2.9-1.7-5.1-4-6.8-6.9c-1.6-2.9-2.5-6.3-2.5-10s0.8-7.1,2.5-10.1
				c1.6-2.9,3.9-5.3,6.8-6.9s6.1-2.5,9.7-2.5c3.4,0,6.5,0.8,9.2,2.4c2.6,1.5,4.7,3.7,6.2,6.4v-24.5h3.9V846h-3.8v-8.6
				c-1.5,2.8-3.6,5-6.2,6.5C1743.1,845.5,1740,846.3,1736.5,846.3z M1736.5,807.7c-3.5,0-6.7,0.8-9.6,2.4c-2.8,1.6-5.1,3.9-6.7,6.8
				c-1.6,2.9-2.4,6.3-2.4,10s0.8,7,2.4,9.9c1.6,2.9,3.9,5.2,6.7,6.8c2.8,1.6,6,2.5,9.6,2.5c3.4,0,6.5-0.8,9.2-2.4
				c2.7-1.6,4.8-3.9,6.3-6.8l0.2-0.4v9.3h3.3V792h-3.4v25.1l-0.2-0.4c-1.5-2.8-3.7-5.1-6.3-6.7
				C1742.9,808.5,1739.9,807.7,1736.5,807.7z M1736.8,843c-2.9,0-5.6-0.7-7.9-2.1c-2.3-1.4-4.2-3.3-5.5-5.7c-1.3-2.4-2-5.2-2-8.4
				c0-3.1,0.7-5.9,2-8.4c1.3-2.4,3.2-4.4,5.5-5.7c2.3-1.4,5-2.1,7.9-2.1c2.9,0,5.6,0.7,7.9,2.1c2.3,1.4,4.2,3.3,5.5,5.7
				c1.3,2.4,2,5.2,2,8.4c0,3.1-0.7,5.9-2,8.4c-1.3,2.4-3.2,4.4-5.5,5.7C1742.3,842.3,1739.7,843,1736.8,843z M1736.8,811
				c-2.9,0-5.5,0.7-7.8,2c-2.3,1.3-4.1,3.2-5.4,5.6c-1.3,2.4-2,5.2-2,8.2c0,3.1,0.7,5.8,2,8.2c1.3,2.4,3.1,4.3,5.4,5.6
				c2.3,1.3,4.9,2,7.8,2c2.9,0,5.5-0.7,7.8-2c2.3-1.3,4.1-3.2,5.4-5.6c1.3-2.4,2-5.2,2-8.2c0-3.1-0.7-5.8-2-8.2
				c-1.3-2.4-3.1-4.3-5.4-5.6C1742.2,811.7,1739.6,811,1736.8,811z"/>
		</g>
		<g>
			<path fill="#5C6670" d="M1803.1,827.8h-32.7c0.1,3,0.8,5.6,2.3,7.9c1.4,2.3,3.3,4.1,5.7,5.3c2.4,1.3,5.1,1.9,8.1,1.9
				c2.5,0,4.8-0.4,6.9-1.3c2.1-0.9,3.9-2.2,5.3-4l2.1,2.4c-1.6,2-3.7,3.5-6.2,4.6c-2.5,1.1-5.2,1.6-8.1,1.6c-3.8,0-7.2-0.8-10.1-2.5
				c-3-1.6-5.3-3.9-7-6.8c-1.7-2.9-2.5-6.2-2.5-10c0-3.7,0.8-7,2.4-9.9c1.6-2.9,3.7-5.2,6.5-6.9c2.8-1.6,5.9-2.5,9.3-2.5
				c3.4,0,6.5,0.8,9.3,2.4c2.7,1.6,4.9,3.9,6.5,6.8c1.6,2.9,2.4,6.2,2.4,9.9L1803.1,827.8z M1777.9,812.6c-2.1,1.2-3.8,2.9-5.1,5
				c-1.3,2.2-2,4.6-2.2,7.3h29.1c-0.1-2.7-0.9-5.1-2.2-7.3c-1.3-2.1-3-3.8-5.2-5c-2.1-1.2-4.5-1.8-7.2-1.8
				C1782.4,810.8,1780,811.4,1777.9,812.6z"/>
			<path fill="#5C6670" d="M1786.5,846.3c-3.8,0-7.2-0.8-10.2-2.5s-5.3-4-7-6.9s-2.5-6.3-2.5-10c0-3.7,0.8-7.1,2.4-10
				c1.6-2.9,3.8-5.3,6.6-6.9c2.8-1.7,5.9-2.5,9.4-2.5s6.6,0.8,9.3,2.5c2.7,1.6,4.9,3.9,6.5,6.8c1.6,2.9,2.4,6.3,2.4,10l-0.1,1.1
				h-32.7c0.1,2.9,0.9,5.5,2.2,7.7c1.4,2.3,3.3,4.1,5.7,5.3c2.4,1.2,5.1,1.9,8.1,1.9c2.4,0,4.7-0.5,6.8-1.3c2.1-0.9,3.8-2.2,5.2-3.9
				l0.1-0.1l2.3,2.6l-0.1,0.1c-1.7,2-3.8,3.5-6.3,4.6C1792.1,845.7,1789.4,846.3,1786.5,846.3z M1785.1,807.7
				c-3.4,0-6.5,0.8-9.3,2.5c-2.7,1.6-4.9,3.9-6.5,6.8c-1.6,2.9-2.4,6.2-2.4,9.9c0,3.7,0.8,7,2.5,9.9s4,5.2,6.9,6.8
				c2.9,1.6,6.3,2.5,10.1,2.5c2.9,0,5.6-0.5,8.1-1.6c2.4-1,4.5-2.5,6.1-4.5l-2-2.2c-1.4,1.7-3.2,3-5.2,3.9c-2.1,0.9-4.4,1.4-6.9,1.4
				c-3,0-5.8-0.6-8.2-1.9c-2.4-1.3-4.3-3.1-5.8-5.4c-1.4-2.3-2.2-5-2.3-8l0-0.1h32.7l0.1-0.9c0-3.6-0.8-7-2.4-9.8
				c-1.6-2.9-3.7-5.2-6.4-6.8C1791.6,808.5,1788.5,807.7,1785.1,807.7z M1799.8,825h-29.4l0-0.1c0.2-2.7,0.9-5.2,2.2-7.4
				c1.3-2.2,3-3.9,5.2-5.1c2.1-1.2,4.6-1.8,7.3-1.8c2.7,0,5.1,0.6,7.3,1.8c2.1,1.2,3.9,2.9,5.2,5.1s2.1,4.6,2.2,7.3L1799.8,825z
				 M1770.6,824.8h28.9c-0.2-2.6-0.9-5-2.2-7.1c-1.3-2.1-3-3.8-5.1-5c-2.1-1.2-4.5-1.8-7.1-1.8c-2.6,0-5,0.6-7.2,1.8
				c-2.1,1.2-3.8,2.9-5.1,5C1771.6,819.8,1770.8,822.2,1770.6,824.8z"/>
		</g>
		<g>
			<path fill="#5C6670" d="M1823.4,809.8c2.5-1.5,5.5-2.2,9-2.2v3.6l-0.9-0.1c-4.2,0-7.5,1.3-9.9,4c-2.4,2.6-3.6,6.3-3.6,11v19.8
				h-3.6v-38h3.5v8.3C1819.1,813.4,1821,811.3,1823.4,809.8z"/>
			<path fill="#5C6670" d="M1818.2,846h-3.9v-38.2h3.7v7.9c1.2-2.5,3-4.5,5.3-5.9c2.5-1.5,5.5-2.2,9.1-2.2h0.1v3.8l-1-0.1
				c-4.2,0-7.5,1.3-9.8,3.9c-2.3,2.6-3.5,6.3-3.5,11V846z M1814.6,845.8h3.4v-19.7c0-4.7,1.2-8.4,3.6-11.1c2.4-2.7,5.7-4,10-4
				l0.8,0.1v-3.3c-3.5,0-6.4,0.8-8.9,2.2c-2.4,1.5-4.3,3.6-5.4,6.3l-0.2,0.5V808h-3.3V845.8z"/>
		</g>
	</g>
</g>
</svg>
