<?xml version="1.0" encoding="utf-8"?>
<!-- Generator: Adobe Illustrator 18.0.0, SVG Export Plug-In . SVG Version: 6.00 Build 0)  -->
<!DOCTYPE svg PUBLIC "-//W3C//DTD SVG 1.1//EN" "http://www.w3.org/Graphics/SVG/1.1/DTD/svg11.dtd">
<svg version="1.1" id="Capa_1" xmlns="http://www.w3.org/2000/svg" xmlns:xlink="http://www.w3.org/1999/xlink" x="0px" y="0px"
	 viewBox="0 0 193.7 81.3" enable-background="new 0 0 193.7 81.3" xml:space="preserve">
<g>
	<g>
		<g>
			<path fill="#FF6C36" d="M145.9,11.5l5.7,0c-2.3,5.7-4.3,11.4-6.8,19.1l-5.9,0C141.6,24.3,143.8,17.9,145.9,11.5z"/>
			<polygon fill="#FF6C36" points="152.7,8.5 147.1,8.5 148.3,4.8 154,4.9 			"/>
			<path fill="#FF6C36" d="M123.1,11.4l5.7,0c-2.3,5.7-4.3,11.4-6.8,19.2l-5.8,0C118.8,24.2,121,17.8,123.1,11.4z"/>
			<polygon fill="#FF6C36" points="129.9,8.5 124.3,8.5 125.5,4.8 131.2,4.9 			"/>
			<path fill="#FF6C36" d="M23.1,26.5l-1.6,4.2l-18.3,0c3.6-8.6,6.6-17.1,9.5-25.7l6.1,0c-0.9,2.3-6.2,16.7-7.9,21.6l4.7,0
				C18.1,26.6,20.6,26.6,23.1,26.5z"/>
			<path fill="#FF6C36" d="M180.1,27.5l-2,3.3c-1.3,0.2-2.5,0.3-3.7,0.3c-6.3,0-5.8-3.7-5.2-5.5c2.4-7.8,15.5-5.2,16.8-9.4
				c0.6-1.9-1.4-2.1-2.9-2.1c-2.6,0-5.4,0.7-8.2,1.6l1.7-3.6c3-0.6,6-1.1,8.8-1.1c3.5,0,7.4,0.8,6,5c-0.9,2.7-3.5,8.8-5.3,14.6
				l-5.5,0c0.7-1.7,1.4-3.4,3.8-9.9c-2.6,1.8-9.1,1.6-10.2,5c-0.6,1.8,1,2.3,2.6,2.3C177.9,28,179,27.8,180.1,27.5z"/>
			<path fill="#FF6C36" d="M158,11.5v14.2l10.1-14.1l5.7,0c-5,6.3-10,12.7-14.8,19.1l-5.9,0c-0.1-6.4-0.5-12.8-0.8-19.2L158,11.5z"
				/>
			<path fill="#FF6C36" d="M142.5,15.4l-4.9,0c-0.6,1.6-2.8,7.5-3.2,8.8c-0.5,1.6-0.6,2.9,1.1,2.9c1.6,0,2.3-0.2,3.3-0.5l-2,4
				c-1.6,0.4-3.1,0.6-4.6,0.6c-3.7,0-5.2-1.2-4-5c0.6-2,3.7-10,4.1-10.8l-2.8,0l1.4-3.8l2.9,0l1.3-3.5l5.4-1l-1.6,4.6l4.9,0
				L142.5,15.4z"/>
			<path fill="#FF6C36" d="M99.5,30.6l0.9-4.2c1.6,0.7,3.2,1.4,5.2,1.4c1.2,0,3.1-0.4,3.6-2c0.9-2.7-5.9-4.9-4.5-9.3
				c1-3.2,3.9-5.3,9.1-5.3c1.9,0,3.8,0.3,5.6,0.6l-1,3.9c-1.1-0.5-2.4-1-4-1c-1.6,0-3.3,0.2-3.8,1.8c-0.8,2.4,5.9,4.7,4.4,9.5
				c-1.3,4-6.2,5.2-9.5,5.2C103.4,31.4,101.4,31.1,99.5,30.6z"/>
			<path fill="#FF6C36" d="M66.4,20l0.2-3.7c0.7,0.1,1.4,0.2,2.1,0.2c3.6,0,6-1.6,6.9-4.4c0.8-2.5-0.4-3.1-3.2-3.1
				c-1.4,0-2.8,0-4.3,0.2c-0.9,2.5-5.5,15.3-7.5,21.7l-5.7,0c2-4.4,7.2-19.3,9.2-25.7l12.5,0c5.2,0,5.5,4.1,4.6,6.8
				c-1.7,5.4-6.9,8.3-12.1,8.3C68.3,20.2,67.4,20.2,66.4,20z"/>
			<path fill="#FF6C36" d="M35.6,27.5l-2,3.3c-1.2,0.2-2.5,0.3-3.7,0.3c-6.3,0-5.8-3.7-5.3-5.4c2.4-7.8,15.5-5.2,16.8-9.4
				c0.6-1.8-1.4-2.1-2.9-2.1c-2.6,0-5.4,0.7-8.2,1.6l1.7-3.6c3-0.7,6-1.1,8.8-1.1c3.5,0,7.4,0.8,6,5c-0.9,2.7-3.5,8.8-5.3,14.6
				l-5.5,0c0.7-1.7,1.4-3.4,3.8-9.9c-2.6,1.8-9.1,1.6-10.2,5c-0.6,1.8,1,2.3,2.6,2.3C33.4,28.1,34.5,27.9,35.6,27.5z"/>
			<g>
				<g>
					<path fill="#FF6C36" d="M93.4,11.3c-6.6,0-12.4,3.9-14.4,10.5c-1.3,4.2-0.5,9.6,7.5,9.6c9,0,13.2-6.6,14.4-10.3
						C102.8,14.8,99.6,11.3,93.4,11.3z M92.2,15.1c3.6,0,4.2,2.6,3.2,5.8c-1.1,3.4-3.7,6.7-7.7,6.7c-3.4,0-4.3-2.6-3.3-5.7
						C85.5,18.3,88.1,15,92.2,15.1z"/>
				</g>
				<g>
					<path fill="#FF6C36" d="M35.5,27.5c-1.1,0.3-2.2,0.6-3.2,0.6c-1.6,0-3.1-0.5-2.6-2.3c1.1-3.4,7.6-3.2,10.2-5
						c-2.4,6.5-3.1,8.2-3.8,9.9l5.5,0c1.8-5.8,4.4-11.9,5.3-14.6c1.3-4.2-2.6-5-6-5c-2.9,0-5.8,0.4-8.8,1.1l-1.7,3.6
						c2.7-0.9,5.5-1.6,8.2-1.6c1.5,0,3.5,0.3,2.9,2.1C40,20.5,27,18,24.5,25.7c-0.5,1.7-1,5.4,5.3,5.5c1.2,0,2.5-0.1,3.7-0.3
						L35.5,27.5z"/>
				</g>
				<g>
					<path fill="#FF6C36" d="M66.4,20c0.9,0.1,1.8,0.2,2.8,0.2c5.2,0,10.4-2.9,12.1-8.3c0.9-2.7,0.6-6.7-4.6-6.7L64.2,5.1
						c-2,6.4-7.3,21.3-9.2,25.7l5.7,0c2-6.4,6.6-19.3,7.5-21.7c1.5-0.1,2.8-0.2,4.3-0.2c2.8,0,3.9,0.7,3.1,3.1
						c-0.9,2.9-3.3,4.4-6.9,4.4c-0.7,0-1.4-0.1-2.1-0.2L66.4,20z"/>
				</g>
				<g>
					<path fill="#FF6C36" d="M99.5,30.6c1.9,0.5,3.9,0.8,6,0.8c3.3,0,8.2-1.2,9.5-5.2c1.5-4.8-5.2-7.1-4.4-9.5
						c0.5-1.7,2.2-1.8,3.8-1.8c1.6,0,2.8,0.5,4,1l1-3.9c-1.8-0.4-3.7-0.6-5.6-0.6c-5.2,0-8.1,2.1-9.1,5.3c-1.4,4.4,5.3,6.6,4.5,9.3
						c-0.5,1.6-2.4,2-3.6,2c-1.9,0-3.6-0.7-5.2-1.4L99.5,30.6z"/>
				</g>
				<g>
					<path fill="#FF6C36" d="M142.5,15.4l1.4-3.8l-4.9,0l1.6-4.6l-5.4,1.1l-1.3,3.5h-2.9l-1.4,3.8l2.7,0c-0.3,0.8-3.4,8.9-4.1,10.9
						c-1.2,3.8,0.3,5,4,5c1.5,0,3-0.2,4.6-0.6l2-4c-1,0.2-1.7,0.5-3.3,0.5c-1.7,0-1.6-1.3-1.1-2.9c0.4-1.4,2.6-7.2,3.2-8.8H142.5z"
						/>
				</g>
				<g>
					<path fill="#FF6C36" d="M158,11.5l-5.6,0c0.3,6.4,0.7,12.7,0.8,19.2l5.9,0c4.8-6.4,9.7-12.8,14.8-19.1l-5.7,0l-10,14.1H158
						V11.5z"/>
				</g>
				<g>
					<path fill="#FF6C36" d="M180.1,27.5c-1.1,0.3-2.2,0.6-3.2,0.6c-1.6,0-3.2-0.5-2.6-2.3c1.1-3.4,7.6-3.2,10.2-5
						c-2.4,6.5-3.1,8.2-3.8,9.9l5.4,0c1.8-5.8,4.4-11.9,5.3-14.6c1.3-4.2-2.6-5-6-5c-2.9,0-5.8,0.5-8.8,1.1l-1.7,3.6
						c2.7-0.9,5.5-1.6,8.2-1.6c1.5,0,3.5,0.3,2.9,2.1c-1.3,4.2-14.3,1.6-16.8,9.4c-0.6,1.7-1.1,5.4,5.3,5.5c1.3,0,2.5-0.1,3.7-0.3
						L180.1,27.5z"/>
				</g>
				<g>
					<path fill="#FF6C36" d="M23.1,26.5c-2.5,0.1-5,0.1-7.5,0.1l-4.8,0c1.7-4.9,7.1-19.4,8-21.6l-6.1,0c-2.9,8.6-5.9,17.2-9.5,25.7
						l18.4,0.1L23.1,26.5z"/>
				</g>
				<g>
					<polygon fill="#FF6C36" points="129.9,8.5 131.2,4.9 125.5,4.8 124.3,8.5 					"/>
				</g>
				<g>
					<path fill="#FF6C36" d="M123.1,11.4c-2.1,6.4-4.3,12.8-7,19.1l5.8,0c2.5-7.8,4.5-13.4,6.8-19.2L123.1,11.4z"/>
				</g>
				<g>
					<polygon fill="#FF6C36" points="152.7,8.5 154,4.9 148.3,4.8 147.1,8.5 					"/>
				</g>
				<g>
					<path fill="#FF6C36" d="M145.9,11.5c-2.1,6.4-4.3,12.8-7,19.2l5.9,0c2.5-7.8,4.5-13.5,6.8-19.2L145.9,11.5z"/>
				</g>
			</g>
		</g>
		<g>
			<path fill="#FF6C36" d="M154,64.1C85.8,69.4,26.5,59.2,3.6,40.4c0.1,0.1,0.2,0.3,0.3,0.4c32.4,25.8,100.6,40.7,179.4,36.8
				l3.7-17.3C176.4,61.9,165.4,63.2,154,64.1z"/>
		</g>
		<path fill="#FF6C36" d="M120.3,39.1l-0.6,2.2c-0.7-0.3-1.5-0.6-2.4-0.6c-1.2,0-2.3,0.6-2.6,1.4c-0.7,1.9,3.7,3.2,2.6,6.1
			c-0.5,1.4-2.2,3.3-5.7,3.3c-1.2,0-2.3-0.2-3.4-0.5l0.7-2.3c0.9,0.5,1.9,0.8,3,0.8c0.9,0,2.2-0.3,2.6-1.4c0.7-2-3.6-3.3-2.5-6.3
			c0.8-2.2,3.3-3.1,5.5-3.1C118.5,38.8,119.4,38.9,120.3,39.1 M147.9,51.4l0.5-1.4c-1.2,1.3-2.6,1.7-4.1,1.7c-1.9,0-3.2-0.8-2.4-2.8
			c0.6-1.5,1.6-3.4,2.8-6.6h2.7c-0.4,0.7-2,4.4-2.4,5.4c-0.5,1.3-0.1,1.9,1.2,1.9c1.4,0,2.5-0.9,3.2-2.1c0.7-1.2,1.9-4.3,2.2-5.2
			h2.7c-1.4,3.1-2.8,6.1-3.9,9.2H147.9z M159.3,42.2l-0.5,1.2c0.9-0.9,1.9-1.5,3.1-1.5c0.3,0,0.5,0,0.8,0.1l-0.7,2.2
			c-0.3-0.1-0.6-0.2-0.9-0.2c-1.4,0-2.5,0.9-3.2,2.2c-0.6,1-1.3,3-1.8,4l-0.4,1.2H153c1.2-2.6,2.3-5.1,3.8-9.2H159.3z M171.5,51.2
			l0.5-2c0.7,0.4,1.5,0.7,2.4,0.7c0.6,0,1.5-0.2,1.8-1c0.5-1.3-2.7-2.3-1.9-4.4c0.6-1.5,2-2.5,4.5-2.5c0.9,0,1.8,0.1,2.7,0.3
			l-0.6,1.9c-0.5-0.3-1.1-0.5-1.9-0.5c-0.8,0-1.6,0.1-1.9,0.9c-0.4,1.2,2.7,2.3,1.8,4.6c-0.7,1.9-3.1,2.5-4.7,2.5
			C173.4,51.6,172.4,51.4,171.5,51.2 M139,43.9c-0.5-0.1-0.9-0.2-1.4-0.2c-3.2,0-4.5,2.5-4.9,3.5c-0.5,1.5-0.1,2.4,1.4,2.4
			c1.4,0,2.7-1.2,3.4-2.5C138.1,46.2,138.6,45.1,139,43.9 M128.2,55.2l0.6-2c1,0.4,2.1,0.7,3.4,0.7c2.8,0,3.5-2,4.3-4.1
			c-1.1,1-2.5,1.6-3.9,1.6c-2.5,0-3.4-1.6-2.5-4c0.6-1.6,2.8-5.5,8.3-5.5c1.4,0,2.6,0.2,3.9,0.4c-0.9,1.9-2.4,5.3-4.1,9.6
			c-1.2,2.9-3.3,3.8-6,3.8C130.8,55.8,129.4,55.6,128.2,55.2 M122.7,45.7h4.3c0.6-1.4,0.3-2.2-1.1-2.2
			C124.6,43.5,123.4,44.5,122.7,45.7 M128.9,46.9h-6.7l-0.1,0.3c-0.7,1.7,0.2,2.7,1.9,2.7c1.1,0,2.2-0.3,3.3-0.6l-1.1,1.9
			c-1.1,0.2-2.1,0.4-3.2,0.4c-4.8,0-4-3.2-3.5-4.5c0.6-1.7,2.6-5.1,7-5.1c2.5,0,3.9,1.3,2.9,3.9C129.3,46.2,129.1,46.6,128.9,46.9
			 M167.8,43.8c-2,0-3.3,1.6-3.9,3.3c-0.6,1.5-0.2,2.7,1.4,2.7c1.9,0,3.2-1.6,3.9-3.2C169.7,45,169.5,43.8,167.8,43.8 M168.5,42
			c3,0,4.4,1.7,3.3,4.6c-0.7,1.8-2.8,5-7.2,5c-3.8,0-4-2.6-3.3-4.6C162.4,43.9,165.3,42,168.5,42"/>
	</g>
</g>
</svg>
