<?xml version="1.0" encoding="utf-8"?>
<!-- Generator: Adobe Illustrator 18.0.0, SVG Export Plug-In . SVG Version: 6.00 Build 0)  -->
<!DOCTYPE svg PUBLIC "-//W3C//DTD SVG 1.1//EN" "http://www.w3.org/Graphics/SVG/1.1/DTD/svg11.dtd">
<svg version="1.1" id="Capa_1" xmlns="http://www.w3.org/2000/svg" xmlns:xlink="http://www.w3.org/1999/xlink" x="0px" y="0px"
	 viewBox="0 0 227 128.5" enable-background="new 0 0 227 128.5" xml:space="preserve">
<g>
	<g>
		<g>
			<path fill="#FF6C36" d="M164.7,13.5l5.7,0c-2.3,5.7-4.3,11.4-6.8,19.1l-5.9,0C160.4,26.3,162.7,19.9,164.7,13.5z"/>
			<polygon fill="#FF6C36" points="171.5,10.5 165.9,10.5 167.2,6.8 172.8,6.9 			"/>
			<path fill="#FF6C36" d="M142,13.4l5.7,0c-2.3,5.7-4.3,11.4-6.8,19.2l-5.8,0C137.6,26.2,139.9,19.8,142,13.4z"/>
			<polygon fill="#FF6C36" points="148.7,10.5 143.1,10.5 144.4,6.8 150,6.9 			"/>
			<path fill="#FF6C36" d="M42,28.5l-1.6,4.2l-18.3,0c3.6-8.6,6.6-17.1,9.5-25.7l6.1,0c-0.9,2.3-6.2,16.7-7.9,21.6l4.7,0
				C36.9,28.6,39.5,28.6,42,28.5z"/>
			<path fill="#FF6C36" d="M199,29.5l-2,3.3c-1.3,0.2-2.5,0.3-3.7,0.3c-6.3,0-5.8-3.7-5.2-5.5c2.4-7.8,15.5-5.2,16.8-9.4
				c0.6-1.9-1.4-2.1-2.9-2.1c-2.6,0-5.4,0.7-8.2,1.6l1.7-3.6c3-0.6,6-1.1,8.8-1.1c3.5,0,7.4,0.8,6,5c-0.9,2.7-3.5,8.8-5.3,14.6
				l-5.5,0c0.7-1.7,1.4-3.4,3.8-9.9c-2.6,1.8-9.1,1.6-10.2,5c-0.6,1.8,1,2.3,2.6,2.3C196.8,30,197.9,29.8,199,29.5z"/>
			<path fill="#FF6C36" d="M176.9,13.5v14.2L187,13.5l5.7,0c-5,6.3-10,12.7-14.8,19.1l-5.9,0c-0.1-6.4-0.5-12.8-0.8-19.2L176.9,13.5
				z"/>
			<path fill="#FF6C36" d="M161.3,17.4l-4.9,0c-0.6,1.6-2.8,7.5-3.2,8.8c-0.5,1.6-0.6,2.9,1.1,2.9c1.6,0,2.3-0.2,3.3-0.5l-2,4
				c-1.6,0.4-3.1,0.6-4.6,0.6c-3.7,0-5.2-1.2-4-5c0.6-2,3.7-10,4.1-10.8l-2.8,0l1.4-3.8l2.9,0l1.3-3.5l5.4-1l-1.6,4.6l4.9,0
				L161.3,17.4z"/>
			<path fill="#FF6C36" d="M118.3,32.6l0.9-4.2c1.6,0.7,3.2,1.4,5.2,1.4c1.2,0,3.1-0.4,3.6-2c0.9-2.7-5.9-4.9-4.5-9.3
				c1-3.2,3.9-5.3,9.1-5.3c1.9,0,3.8,0.3,5.6,0.6l-1,3.9c-1.1-0.5-2.4-1-4-1c-1.6,0-3.3,0.2-3.8,1.8c-0.8,2.4,5.9,4.7,4.4,9.5
				c-1.3,4-6.2,5.2-9.5,5.2C122.2,33.4,120.2,33.1,118.3,32.6z"/>
			<path fill="#FF6C36" d="M85.3,22l0.2-3.7c0.7,0.1,1.4,0.2,2.1,0.2c3.6,0,6-1.6,6.9-4.4c0.8-2.5-0.4-3.1-3.2-3.1
				c-1.4,0-2.8,0-4.3,0.2c-0.9,2.5-5.5,15.3-7.5,21.7l-5.7,0c2-4.4,7.2-19.3,9.2-25.7l12.5,0c5.2,0,5.5,4.1,4.6,6.8
				c-1.7,5.4-6.9,8.3-12.1,8.3C87.1,22.2,86.2,22.2,85.3,22z"/>
			<path fill="#FF6C36" d="M54.4,29.5l-2,3.3c-1.2,0.2-2.5,0.3-3.7,0.3c-6.3,0-5.8-3.7-5.3-5.4c2.4-7.8,15.5-5.2,16.8-9.4
				c0.6-1.8-1.4-2.1-2.9-2.1c-2.6,0-5.4,0.7-8.2,1.6l1.7-3.6c3-0.7,6-1.1,8.8-1.1c3.5,0,7.4,0.8,6,5c-0.9,2.7-3.5,8.8-5.3,14.6
				l-5.5,0c0.7-1.7,1.4-3.4,3.8-9.9c-2.6,1.8-9.1,1.6-10.2,5c-0.6,1.8,1,2.3,2.6,2.3C52.2,30.1,53.3,29.9,54.4,29.5z"/>
			<g>
				<g>
					<path fill="#FF6C36" d="M112.3,13.3c-6.6,0-12.4,3.9-14.4,10.5c-1.3,4.2-0.5,9.6,7.5,9.6c9,0,13.2-6.6,14.4-10.3
						C121.6,16.8,118.4,13.3,112.3,13.3z M111,17.1c3.6,0,4.2,2.6,3.2,5.8c-1.1,3.4-3.7,6.7-7.7,6.7c-3.4,0-4.3-2.6-3.3-5.7
						C104.4,20.3,106.9,17,111,17.1z"/>
				</g>
				<g>
					<path fill="#FF6C36" d="M54.4,29.5c-1.1,0.3-2.2,0.6-3.2,0.6c-1.6,0-3.1-0.5-2.6-2.3c1.1-3.4,7.6-3.2,10.2-5
						c-2.4,6.5-3.1,8.2-3.8,9.9l5.5,0c1.8-5.8,4.4-11.9,5.3-14.6c1.3-4.2-2.6-5-6-5c-2.9,0-5.8,0.4-8.8,1.1l-1.7,3.6
						c2.7-0.9,5.5-1.6,8.2-1.6c1.5,0,3.5,0.3,2.9,2.1c-1.3,4.2-14.4,1.6-16.8,9.4c-0.5,1.7-1,5.4,5.3,5.5c1.2,0,2.5-0.1,3.7-0.3
						L54.4,29.5z"/>
				</g>
				<g>
					<path fill="#FF6C36" d="M85.3,22c0.9,0.1,1.8,0.2,2.8,0.2c5.2,0,10.4-2.9,12.1-8.3c0.9-2.7,0.6-6.7-4.6-6.7L83.1,7.1
						c-2,6.4-7.3,21.3-9.2,25.7l5.7,0c2-6.4,6.6-19.3,7.5-21.7c1.5-0.1,2.8-0.2,4.3-0.2c2.8,0,3.9,0.7,3.1,3.1
						c-0.9,2.9-3.3,4.4-6.9,4.4c-0.7,0-1.4-0.1-2.1-0.2L85.3,22z"/>
				</g>
				<g>
					<path fill="#FF6C36" d="M118.3,32.6c1.9,0.5,3.9,0.8,6,0.8c3.3,0,8.2-1.2,9.5-5.2c1.5-4.8-5.2-7.1-4.4-9.5
						c0.5-1.7,2.2-1.8,3.8-1.8c1.6,0,2.8,0.5,4,1l1-3.9c-1.8-0.4-3.7-0.6-5.6-0.6c-5.2,0-8.1,2.1-9.1,5.3c-1.4,4.4,5.3,6.6,4.5,9.3
						c-0.5,1.6-2.4,2-3.6,2c-1.9,0-3.6-0.7-5.2-1.4L118.3,32.6z"/>
				</g>
				<g>
					<path fill="#FF6C36" d="M161.3,17.4l1.4-3.8l-4.9,0l1.6-4.6l-5.4,1.1l-1.3,3.5h-2.9l-1.4,3.8l2.7,0c-0.3,0.8-3.4,8.9-4.1,10.9
						c-1.2,3.8,0.3,5,4,5c1.5,0,3-0.2,4.6-0.6l2-4c-1,0.2-1.7,0.5-3.3,0.5c-1.7,0-1.6-1.3-1.1-2.9c0.4-1.4,2.6-7.2,3.2-8.8H161.3z"
						/>
				</g>
				<g>
					<path fill="#FF6C36" d="M176.8,13.5l-5.6,0c0.3,6.4,0.7,12.7,0.8,19.2l5.9,0c4.8-6.4,9.7-12.8,14.8-19.1l-5.7,0l-10,14.1h-0.1
						V13.5z"/>
				</g>
				<g>
					<path fill="#FF6C36" d="M198.9,29.5c-1.1,0.3-2.2,0.6-3.2,0.6c-1.6,0-3.2-0.5-2.6-2.3c1.1-3.4,7.6-3.2,10.2-5
						c-2.4,6.5-3.1,8.2-3.8,9.9l5.4,0c1.8-5.8,4.4-11.9,5.3-14.6c1.3-4.2-2.6-5-6-5c-2.9,0-5.8,0.5-8.8,1.1l-1.7,3.6
						c2.7-0.9,5.5-1.6,8.2-1.6c1.5,0,3.5,0.3,2.9,2.1c-1.3,4.2-14.3,1.6-16.8,9.4c-0.6,1.7-1.1,5.4,5.3,5.5c1.3,0,2.5-0.1,3.7-0.3
						L198.9,29.5z"/>
				</g>
				<g>
					<path fill="#FF6C36" d="M42,28.5c-2.5,0.1-5,0.1-7.5,0.1l-4.8,0c1.7-4.9,7.1-19.4,8-21.6l-6.1,0c-2.9,8.6-5.9,17.2-9.5,25.7
						l18.4,0.1L42,28.5z"/>
				</g>
				<g>
					<polygon fill="#FF6C36" points="148.7,10.5 150,6.9 144.4,6.8 143.1,10.5 					"/>
				</g>
				<g>
					<path fill="#FF6C36" d="M141.9,13.4c-2.1,6.4-4.3,12.8-7,19.1l5.8,0c2.5-7.8,4.5-13.4,6.8-19.2L141.9,13.4z"/>
				</g>
				<g>
					<polygon fill="#FF6C36" points="171.5,10.5 172.8,6.9 167.1,6.8 165.9,10.5 					"/>
				</g>
				<g>
					<path fill="#FF6C36" d="M164.7,13.5c-2.1,6.4-4.3,12.8-7,19.2l5.9,0c2.5-7.8,4.5-13.5,6.8-19.2L164.7,13.5z"/>
				</g>
			</g>
		</g>
		<g>
			<path fill="#FF6C36" d="M172.8,66.1c-68.3,5.3-127.5-4.9-150.4-23.7c0.1,0.1,0.2,0.3,0.3,0.4c32.4,25.8,100.6,40.7,179.4,36.8
				l3.7-17.3C195.2,63.9,184.2,65.2,172.8,66.1z"/>
		</g>
		<path fill="#FF6C36" d="M139.2,41.1l-0.6,2.2c-0.7-0.3-1.5-0.6-2.4-0.6c-1.2,0-2.3,0.6-2.6,1.4c-0.7,1.9,3.7,3.2,2.6,6.1
			c-0.5,1.4-2.2,3.3-5.7,3.3c-1.2,0-2.3-0.2-3.4-0.5l0.7-2.3c0.9,0.5,1.9,0.8,3,0.8c0.9,0,2.2-0.3,2.6-1.4c0.7-2-3.6-3.3-2.5-6.3
			c0.8-2.2,3.3-3.1,5.5-3.1C137.3,40.8,138.3,40.9,139.2,41.1 M166.8,53.4l0.5-1.4c-1.2,1.3-2.6,1.7-4.1,1.7c-1.9,0-3.2-0.8-2.4-2.8
			c0.6-1.5,1.6-3.4,2.8-6.6h2.7c-0.4,0.7-2,4.4-2.4,5.4c-0.5,1.3-0.1,1.9,1.2,1.9c1.4,0,2.5-0.9,3.2-2.1c0.7-1.2,1.9-4.3,2.2-5.2
			h2.7c-1.4,3.1-2.8,6.1-3.9,9.2H166.8z M178.2,44.2l-0.5,1.2c0.9-0.9,1.9-1.5,3.1-1.5c0.3,0,0.5,0,0.8,0.1l-0.7,2.2
			c-0.3-0.1-0.6-0.2-0.9-0.2c-1.4,0-2.5,0.9-3.2,2.2c-0.6,1-1.3,3-1.8,4l-0.4,1.2h-2.6c1.2-2.6,2.3-5.1,3.8-9.2H178.2z M190.4,53.2
			l0.5-2c0.7,0.4,1.5,0.7,2.4,0.7c0.6,0,1.5-0.2,1.8-1c0.5-1.3-2.7-2.3-1.9-4.4c0.6-1.5,2-2.5,4.5-2.5c0.9,0,1.8,0.1,2.7,0.3
			l-0.6,1.9c-0.5-0.3-1.1-0.5-1.9-0.5c-0.8,0-1.6,0.1-1.9,0.9c-0.4,1.2,2.7,2.3,1.8,4.6c-0.7,1.9-3.1,2.5-4.7,2.5
			C192.2,53.6,191.2,53.4,190.4,53.2 M157.9,45.9c-0.5-0.1-0.9-0.2-1.4-0.2c-3.2,0-4.5,2.5-4.9,3.5c-0.5,1.5-0.1,2.4,1.4,2.4
			c1.4,0,2.7-1.2,3.4-2.5C157,48.2,157.4,47.1,157.9,45.9 M147,57.2l0.6-2c1,0.4,2.1,0.7,3.4,0.7c2.8,0,3.5-2,4.3-4.1
			c-1.1,1-2.5,1.6-3.9,1.6c-2.5,0-3.4-1.6-2.5-4c0.6-1.6,2.8-5.5,8.3-5.5c1.4,0,2.6,0.2,3.9,0.4c-0.9,1.9-2.4,5.3-4.1,9.6
			c-1.2,2.9-3.3,3.8-6,3.8C149.6,57.8,148.3,57.6,147,57.2 M141.6,47.7h4.3c0.6-1.4,0.3-2.2-1.1-2.2
			C143.4,45.5,142.2,46.5,141.6,47.7 M147.8,48.9H141l-0.1,0.3c-0.7,1.7,0.2,2.7,1.9,2.7c1.1,0,2.2-0.3,3.3-0.6l-1.1,1.9
			c-1.1,0.2-2.1,0.4-3.2,0.4c-4.8,0-4-3.2-3.5-4.5c0.6-1.7,2.6-5.1,7-5.1c2.5,0,3.9,1.3,2.9,3.9C148.1,48.2,147.9,48.6,147.8,48.9
			 M186.6,45.8c-2,0-3.3,1.6-3.9,3.3c-0.6,1.5-0.2,2.7,1.4,2.7c1.9,0,3.2-1.6,3.9-3.2C188.5,47,188.3,45.8,186.6,45.8 M187.3,44
			c3,0,4.4,1.7,3.3,4.6c-0.7,1.8-2.8,5-7.2,5c-3.8,0-4-2.6-3.3-4.6C181.2,45.9,184.1,44,187.3,44"/>
	</g>
</g>
<g>
	<path fill="#888989" d="M9,123.7l7.3-18.7h4.1l7.3,18.7H24l-1.4-3.6h-8.6l-1.4,3.6H9z M15,117.2h6.7l-3.4-8.9L15,117.2z"/>
	<path fill="#888989" d="M30.9,116.3V105h3.3v11.2c0,1.5,0.4,2.7,1.2,3.6c0.8,0.9,2,1.3,3.6,1.3c1.5,0,2.7-0.4,3.5-1.3
		s1.2-2.1,1.2-3.6V105h3.3v11.3c0,2.4-0.7,4.3-2.1,5.7c-1.4,1.4-3.4,2.1-6,2.1c-2.6,0-4.6-0.7-6-2.1S30.9,118.7,30.9,116.3z"/>
	<path fill="#888989" d="M53.1,123.7V105h3.3v15.8h8.2v2.9H53.1z"/>
	<path fill="#888989" d="M67.5,123.7l7.3-18.7H79l7.3,18.7h-3.7l-1.4-3.6h-8.6l-1.4,3.6H67.5z M73.6,117.2h6.7l-3.4-8.9L73.6,117.2z
		"/>
	<path fill="#888989" d="M97.6,105h3.7l5.7,15.1l5.7-15.1h3.7l-7.3,18.7h-4.1L97.6,105z"/>
	<path fill="#888989" d="M120.3,123.7V105h3.3v18.7H120.3z"/>
	<path fill="#888989" d="M129.6,123.7V105h8.2c1.8,0,3.3,0.5,4.4,1.6s1.7,2.5,1.7,4.2c0,0.8-0.1,1.5-0.4,2.2s-0.6,1.2-1,1.7
		s-0.9,0.8-1.4,1.1c-0.5,0.3-1.1,0.5-1.6,0.5l4.6,7.3h-3.8l-4.1-7h-3.3v7H129.6z M132.9,113.8h4.5c0.9,0,1.7-0.3,2.3-0.8
		c0.6-0.5,0.9-1.3,0.9-2.1s-0.3-1.6-0.9-2.1c-0.6-0.5-1.4-0.8-2.3-0.8h-4.5V113.8z"/>
	<path fill="#888989" d="M147.7,107.9V105h14.6v2.9h-5.6v15.8h-3.3v-15.8H147.7z"/>
	<path fill="#888989" d="M167,116.3V105h3.3v11.2c0,1.5,0.4,2.7,1.2,3.6s2,1.3,3.6,1.3c1.5,0,2.7-0.4,3.5-1.3s1.2-2.1,1.2-3.6V105
		h3.3v11.3c0,2.4-0.7,4.3-2.1,5.7s-3.4,2.1-6,2.1c-2.6,0-4.6-0.7-6-2.1C167.7,120.5,167,118.7,167,116.3z"/>
	<path fill="#888989" d="M186.3,123.7l7.3-18.7h4.1l7.3,18.7h-3.7l-1.4-3.6h-8.6l-1.4,3.6H186.3z M192.3,117.2h6.7l-3.4-8.9
		L192.3,117.2z"/>
	<path fill="#888989" d="M209.1,123.7V105h3.3v15.8h8.2v2.9H209.1z"/>
</g>
</svg>
