<svg id="Capa_1" data-name="Capa 1" xmlns="http://www.w3.org/2000/svg" viewBox="0 0 40 40"><defs><style>.cls-1{fill:#e84d5c;}.cls-2{fill:#fff;}.cls-3{fill:#00cec5;}</style></defs><title>HEADER-MOBILE</title><path class="cls-1" d="M40,20A20,20,0,1,1,34.46,6.18,20,20,0,0,1,40,20"/><path class="cls-2" d="M11.18,23.61A9.2,9.2,0,0,1,10.5,20a9.21,9.21,0,0,1,.68-3.61,6,6,0,0,1,2-2.56,5.1,5.1,0,0,1,5.93,0,6,6,0,0,1,2,2.57,9.17,9.17,0,0,1,.68,3.6,9.17,9.17,0,0,1-.68,3.6,6,6,0,0,1-2,2.57,5.1,5.1,0,0,1-5.93,0,6,6,0,0,1-2-2.57M11.12,20a8.73,8.73,0,0,0,.6,3.34,5.29,5.29,0,0,0,1.74,2.32,4.54,4.54,0,0,0,5.28,0,5.39,5.39,0,0,0,1.76-2.32A8.58,8.58,0,0,0,21.12,20a8.63,8.63,0,0,0-.61-3.36,5.33,5.33,0,0,0-1.76-2.31,4.59,4.59,0,0,0-5.28,0,5.23,5.23,0,0,0-1.74,2.31,8.79,8.79,0,0,0-.6,3.36"/><path class="cls-2" d="M16.11,27.33a5.1,5.1,0,0,1-3.09-1,6.25,6.25,0,0,1-2-2.65,9.47,9.47,0,0,1-.7-3.69,9.47,9.47,0,0,1,.7-3.69,6.25,6.25,0,0,1,2-2.65,5.31,5.31,0,0,1,6.18,0,6.25,6.25,0,0,1,2,2.66,9.41,9.41,0,0,1,.7,3.68,9.41,9.41,0,0,1-.7,3.68,6.25,6.25,0,0,1-2,2.66,5.09,5.09,0,0,1-3.09,1m-4.75-3.81A5.84,5.84,0,0,0,13.27,26,4.89,4.89,0,0,0,19,26a5.84,5.84,0,0,0,1.91-2.48A9,9,0,0,0,21.53,20a9,9,0,0,0-.67-3.52A5.84,5.84,0,0,0,19,14a4.89,4.89,0,0,0-5.69,0,5.83,5.83,0,0,0-1.9,2.48A9,9,0,0,0,10.7,20a9,9,0,0,0,.66,3.53m4.75,3.18a4.55,4.55,0,0,1-2.77-.89,5.53,5.53,0,0,1-1.81-2.41A9,9,0,0,1,10.91,20a9,9,0,0,1,.62-3.44,5.48,5.48,0,0,1,1.81-2.4,4.8,4.8,0,0,1,5.53,0,5.56,5.56,0,0,1,1.83,2.4A8.88,8.88,0,0,1,21.33,20a8.82,8.82,0,0,1-.63,3.42,5.62,5.62,0,0,1-1.83,2.41,4.52,4.52,0,0,1-2.75.89m0-13a4.18,4.18,0,0,0-2.53.8,5.06,5.06,0,0,0-1.68,2.22A8.64,8.64,0,0,0,11.33,20a8.58,8.58,0,0,0,.59,3.26,5.13,5.13,0,0,0,1.68,2.23,4.34,4.34,0,0,0,5,0,5.22,5.22,0,0,0,1.69-2.23,8.43,8.43,0,0,0,.6-3.26,8.48,8.48,0,0,0-.6-3.28,5.16,5.16,0,0,0-1.69-2.22,4.16,4.16,0,0,0-2.51-.8"/><path class="cls-2" d="M18.94,23.61A9.2,9.2,0,0,1,18.26,20a9.21,9.21,0,0,1,.68-3.61,6,6,0,0,1,2-2.56,5.1,5.1,0,0,1,5.93,0,6,6,0,0,1,2,2.57A9.15,9.15,0,0,1,29.5,20a9.15,9.15,0,0,1-.68,3.6,6,6,0,0,1-2,2.57,5.1,5.1,0,0,1-5.93,0,6,6,0,0,1-2-2.57M18.88,20a8.75,8.75,0,0,0,.6,3.34,5.3,5.3,0,0,0,1.74,2.32,4.54,4.54,0,0,0,5.28,0,5.39,5.39,0,0,0,1.76-2.32A8.6,8.6,0,0,0,28.88,20a8.65,8.65,0,0,0-.61-3.36,5.33,5.33,0,0,0-1.76-2.31,4.59,4.59,0,0,0-5.28,0,5.24,5.24,0,0,0-1.74,2.31,8.81,8.81,0,0,0-.6,3.36"/><path class="cls-2" d="M23.88,27.33a5.1,5.1,0,0,1-3.09-1,6.25,6.25,0,0,1-2-2.65A9.45,9.45,0,0,1,18,20a9.45,9.45,0,0,1,.7-3.69,6.25,6.25,0,0,1,2-2.65,5.31,5.31,0,0,1,6.18,0,6.25,6.25,0,0,1,2,2.66,9.43,9.43,0,0,1,.7,3.68,9.43,9.43,0,0,1-.7,3.68,6.25,6.25,0,0,1-2,2.66,5.09,5.09,0,0,1-3.09,1m-4.75-3.81A5.85,5.85,0,0,0,21,26a4.89,4.89,0,0,0,5.69,0,5.84,5.84,0,0,0,1.91-2.48A9,9,0,0,0,29.3,20a9,9,0,0,0-.67-3.52A5.85,5.85,0,0,0,26.72,14,4.89,4.89,0,0,0,21,14a5.84,5.84,0,0,0-1.9,2.48A9.07,9.07,0,0,0,18.47,20a9.06,9.06,0,0,0,.66,3.53m4.75,3.18a4.55,4.55,0,0,1-2.77-.89,5.52,5.52,0,0,1-1.81-2.41A9,9,0,0,1,18.67,20a9,9,0,0,1,.62-3.44,5.48,5.48,0,0,1,1.81-2.4,4.8,4.8,0,0,1,5.53,0,5.56,5.56,0,0,1,1.83,2.4A8.89,8.89,0,0,1,29.09,20a8.82,8.82,0,0,1-.63,3.42,5.62,5.62,0,0,1-1.83,2.41,4.52,4.52,0,0,1-2.75.89m0-13a4.18,4.18,0,0,0-2.53.8,5.06,5.06,0,0,0-1.68,2.22A8.64,8.64,0,0,0,19.09,20a8.58,8.58,0,0,0,.59,3.26,5.13,5.13,0,0,0,1.68,2.23,4.34,4.34,0,0,0,5,0,5.22,5.22,0,0,0,1.69-2.23,8.43,8.43,0,0,0,.6-3.26,8.48,8.48,0,0,0-.6-3.28,5.16,5.16,0,0,0-1.69-2.22,4.16,4.16,0,0,0-2.51-.8"/><path class="cls-2" d="M8.2,20a1.6,1.6,0,1,1-1.6-1.6A1.6,1.6,0,0,1,8.2,20"/><path class="cls-2" d="M35,20a1.6,1.6,0,1,1-1.6-1.6A1.6,1.6,0,0,1,35,20"/><path class="cls-2" d="M23.61,28.82A9.2,9.2,0,0,1,20,29.5a9.2,9.2,0,0,1-3.61-.68,6,6,0,0,1-2.57-2,5.1,5.1,0,0,1,0-5.93,6,6,0,0,1,2.57-2,9.16,9.16,0,0,1,3.6-.68,9.16,9.16,0,0,1,3.6.68,6,6,0,0,1,2.57,2,5.1,5.1,0,0,1,0,5.93,6,6,0,0,1-2.57,2M20,28.88a8.75,8.75,0,0,0,3.34-.6,5.31,5.31,0,0,0,2.32-1.74,4.54,4.54,0,0,0,0-5.28,5.39,5.39,0,0,0-2.32-1.76A8.57,8.57,0,0,0,20,18.88a8.63,8.63,0,0,0-3.36.61,5.33,5.33,0,0,0-2.31,1.76,4.59,4.59,0,0,0,0,5.28,5.24,5.24,0,0,0,2.31,1.74,8.81,8.81,0,0,0,3.36.6"/><path class="cls-2" d="M27.33,23.89a5.09,5.09,0,0,1-1,3.09,6.24,6.24,0,0,1-2.65,2,9.45,9.45,0,0,1-3.69.7,9.45,9.45,0,0,1-3.69-.7,6.23,6.23,0,0,1-2.65-2,5.3,5.3,0,0,1,0-6.18,6.24,6.24,0,0,1,2.66-2,9.42,9.42,0,0,1,3.69-.7,9.41,9.41,0,0,1,3.68.7,6.25,6.25,0,0,1,2.66,2,5.1,5.1,0,0,1,1,3.09m-3.81,4.75A5.83,5.83,0,0,0,26,26.73,4.89,4.89,0,0,0,26,21a5.84,5.84,0,0,0-2.48-1.91A9,9,0,0,0,20,18.47a9,9,0,0,0-3.52.67A5.83,5.83,0,0,0,14,21a4.89,4.89,0,0,0,0,5.69,5.83,5.83,0,0,0,2.48,1.9A9.05,9.05,0,0,0,20,29.3a9.05,9.05,0,0,0,3.53-.66m3.18-4.75a4.55,4.55,0,0,1-.89,2.77,5.54,5.54,0,0,1-2.41,1.81,9,9,0,0,1-3.42.62,9.05,9.05,0,0,1-3.44-.62,5.48,5.48,0,0,1-2.4-1.81,4.79,4.79,0,0,1,0-5.53,5.57,5.57,0,0,1,2.4-1.83A8.9,8.9,0,0,1,20,18.67a8.83,8.83,0,0,1,3.42.63,5.62,5.62,0,0,1,2.41,1.83,4.53,4.53,0,0,1,.89,2.76m-13,0a4.18,4.18,0,0,0,.8,2.53,5.07,5.07,0,0,0,2.22,1.68,8.64,8.64,0,0,0,3.28.59,8.59,8.59,0,0,0,3.26-.59,5.13,5.13,0,0,0,2.23-1.68,4.33,4.33,0,0,0,0-5,5.2,5.2,0,0,0-2.23-1.69,8.42,8.42,0,0,0-3.26-.6,8.48,8.48,0,0,0-3.28.6,5.15,5.15,0,0,0-2.22,1.69,4.16,4.16,0,0,0-.8,2.51"/><path class="cls-3" d="M23.61,21.06a9.2,9.2,0,0,1-3.61.68,9.2,9.2,0,0,1-3.61-.68,6,6,0,0,1-2.57-2,5.1,5.1,0,0,1,0-5.93,6,6,0,0,1,2.57-2A9.17,9.17,0,0,1,20,10.5a9.17,9.17,0,0,1,3.6.68,6,6,0,0,1,2.57,2,5.1,5.1,0,0,1,0,5.93,6,6,0,0,1-2.57,2M20,21.12a8.75,8.75,0,0,0,3.34-.6,5.31,5.31,0,0,0,2.32-1.74,4.54,4.54,0,0,0,0-5.28,5.39,5.39,0,0,0-2.32-1.76A8.57,8.57,0,0,0,20,11.12a8.63,8.63,0,0,0-3.36.61,5.33,5.33,0,0,0-2.31,1.76,4.59,4.59,0,0,0,0,5.28,5.24,5.24,0,0,0,2.31,1.74,8.81,8.81,0,0,0,3.36.6"/><path class="cls-3" d="M27.33,16.12a5.09,5.09,0,0,1-1,3.09,6.25,6.25,0,0,1-2.65,2A9.46,9.46,0,0,1,20,22a9.47,9.47,0,0,1-3.69-.7,6.24,6.24,0,0,1-2.65-2,5.3,5.3,0,0,1,0-6.18,6.24,6.24,0,0,1,2.66-2,9.42,9.42,0,0,1,3.69-.7,9.41,9.41,0,0,1,3.68.7,6.25,6.25,0,0,1,2.66,2,5.1,5.1,0,0,1,1,3.09m-3.81,4.75A5.83,5.83,0,0,0,26,19a4.89,4.89,0,0,0,0-5.69,5.84,5.84,0,0,0-2.48-1.91A9,9,0,0,0,20,10.7a9,9,0,0,0-3.52.67A5.83,5.83,0,0,0,14,13.28,4.89,4.89,0,0,0,14,19a5.83,5.83,0,0,0,2.48,1.9,9.05,9.05,0,0,0,3.53.66,9.05,9.05,0,0,0,3.53-.66m3.18-4.75a4.55,4.55,0,0,1-.89,2.77,5.54,5.54,0,0,1-2.41,1.81,9,9,0,0,1-3.42.62,9.05,9.05,0,0,1-3.44-.62,5.48,5.48,0,0,1-2.4-1.81,4.79,4.79,0,0,1,0-5.53,5.56,5.56,0,0,1,2.4-1.83A8.9,8.9,0,0,1,20,10.91a8.83,8.83,0,0,1,3.42.63,5.62,5.62,0,0,1,2.41,1.83,4.53,4.53,0,0,1,.89,2.76m-13,0a4.18,4.18,0,0,0,.8,2.53,5.06,5.06,0,0,0,2.22,1.68,8.64,8.64,0,0,0,3.28.59,8.59,8.59,0,0,0,3.26-.59,5.13,5.13,0,0,0,2.23-1.68,4.33,4.33,0,0,0,0-5,5.21,5.21,0,0,0-2.23-1.69,8.42,8.42,0,0,0-3.26-.6,8.48,8.48,0,0,0-3.28.6,5.15,5.15,0,0,0-2.22,1.69,4.16,4.16,0,0,0-.8,2.51"/><path class="cls-2" d="M20,31.8a1.6,1.6,0,1,1-1.6,1.6A1.6,1.6,0,0,1,20,31.8"/><path class="cls-3" d="M20,5a1.6,1.6,0,1,1-1.6,1.6A1.6,1.6,0,0,1,20,5"/></svg>