<svg id="Capa_1" data-name="Capa 1" xmlns="http://www.w3.org/2000/svg" viewBox="0 0 180.01 40.79"><defs><style>.cls-1{font-size:14.32px;fill:gray;font-family:ProximaNovaA-Regular, Proxima Nova Alt;}.cls-2{fill:#e84d5c;}.cls-3{fill:#fff;}.cls-4{fill:#00cec5;}</style></defs><title>POWERED</title><text class="cls-1" transform="translate(58.48 24.93)">Powered by SOOM</text><path class="cls-2" d="M40.79,20.4A20.39,20.39,0,1,1,35.14,6.31,20.39,20.39,0,0,1,40.79,20.4"/><path class="cls-3" d="M11.4,24.07a9.39,9.39,0,0,1-.69-3.68,9.39,9.39,0,0,1,.69-3.68,6.13,6.13,0,0,1,2-2.62,5.2,5.2,0,0,1,6.05,0,6.13,6.13,0,0,1,2,2.62,9.35,9.35,0,0,1,.7,3.67,9.35,9.35,0,0,1-.7,3.68,6.14,6.14,0,0,1-2,2.62,5.2,5.2,0,0,1-6.05,0,6.13,6.13,0,0,1-2-2.62m-.06-3.68A8.9,8.9,0,0,0,12,23.8a5.4,5.4,0,0,0,1.78,2.36,4.63,4.63,0,0,0,5.39,0,5.5,5.5,0,0,0,1.79-2.36,8.75,8.75,0,0,0,.63-3.4A8.8,8.8,0,0,0,20.91,17a5.43,5.43,0,0,0-1.79-2.35,4.68,4.68,0,0,0-5.39,0A5.33,5.33,0,0,0,12,17a9,9,0,0,0-.61,3.42"/><path class="cls-3" d="M16.43,27.87a5.2,5.2,0,0,1-3.15-1,6.37,6.37,0,0,1-2.08-2.7,9.66,9.66,0,0,1-.71-3.76,9.66,9.66,0,0,1,.71-3.76,6.37,6.37,0,0,1,2.08-2.7,5.41,5.41,0,0,1,6.3,0,6.38,6.38,0,0,1,2.09,2.71,9.59,9.59,0,0,1,.71,3.76,9.6,9.6,0,0,1-.71,3.76,6.37,6.37,0,0,1-2.09,2.71,5.19,5.19,0,0,1-3.15,1M11.59,24a6,6,0,0,0,1.94,2.53,5,5,0,0,0,5.8,0A6,6,0,0,0,21.28,24,9.18,9.18,0,0,0,22,20.39a9.18,9.18,0,0,0-.68-3.59,6,6,0,0,0-1.95-2.53,5,5,0,0,0-5.8,0,5.94,5.94,0,0,0-1.94,2.53,9.23,9.23,0,0,0-.68,3.6,9.22,9.22,0,0,0,.68,3.6m4.84,3.24a4.64,4.64,0,0,1-2.83-.91,5.64,5.64,0,0,1-1.85-2.45,9.16,9.16,0,0,1-.63-3.48,9.23,9.23,0,0,1,.63-3.5,5.58,5.58,0,0,1,1.85-2.45,4.89,4.89,0,0,1,5.64,0,5.66,5.66,0,0,1,1.86,2.44,9.06,9.06,0,0,1,.64,3.5,9,9,0,0,1-.64,3.48,5.73,5.73,0,0,1-1.86,2.45,4.61,4.61,0,0,1-2.81.91m0-13.26a4.27,4.27,0,0,0-2.58.81,5.16,5.16,0,0,0-1.71,2.26,8.81,8.81,0,0,0-.6,3.34,8.75,8.75,0,0,0,.6,3.32A5.23,5.23,0,0,0,13.86,26,4.42,4.42,0,0,0,19,26a5.32,5.32,0,0,0,1.72-2.27,8.59,8.59,0,0,0,.61-3.32,8.65,8.65,0,0,0-.61-3.34A5.26,5.26,0,0,0,19,14.79,4.24,4.24,0,0,0,16.43,14"/><path class="cls-3" d="M19.31,24.07a9.39,9.39,0,0,1-.69-3.68,9.39,9.39,0,0,1,.69-3.68,6.13,6.13,0,0,1,2-2.62,5.2,5.2,0,0,1,6.05,0,6.13,6.13,0,0,1,2,2.62,9.33,9.33,0,0,1,.7,3.67,9.33,9.33,0,0,1-.7,3.68,6.13,6.13,0,0,1-2,2.62,5.2,5.2,0,0,1-6.05,0,6.12,6.12,0,0,1-2-2.62m-.06-3.68a8.92,8.92,0,0,0,.61,3.4,5.4,5.4,0,0,0,1.78,2.36,4.63,4.63,0,0,0,5.39,0,5.5,5.5,0,0,0,1.79-2.36,8.77,8.77,0,0,0,.63-3.4A8.82,8.82,0,0,0,28.82,17,5.43,5.43,0,0,0,27,14.62a4.68,4.68,0,0,0-5.39,0A5.34,5.34,0,0,0,19.87,17a9,9,0,0,0-.61,3.42"/><path class="cls-3" d="M24.35,27.87a5.2,5.2,0,0,1-3.15-1,6.37,6.37,0,0,1-2.08-2.7,9.64,9.64,0,0,1-.71-3.76,9.64,9.64,0,0,1,.71-3.76,6.37,6.37,0,0,1,2.08-2.7,5.41,5.41,0,0,1,6.3,0,6.38,6.38,0,0,1,2.09,2.71,9.61,9.61,0,0,1,.71,3.76,9.62,9.62,0,0,1-.71,3.76,6.37,6.37,0,0,1-2.09,2.71,5.19,5.19,0,0,1-3.15,1M19.51,24a6,6,0,0,0,1.94,2.53,5,5,0,0,0,5.8,0A6,6,0,0,0,29.19,24a9.18,9.18,0,0,0,.68-3.59,9.18,9.18,0,0,0-.68-3.59,6,6,0,0,0-1.95-2.53,5,5,0,0,0-5.8,0,6,6,0,0,0-1.94,2.53,9.25,9.25,0,0,0-.68,3.6,9.24,9.24,0,0,0,.68,3.6m4.84,3.24a4.64,4.64,0,0,1-2.83-.91,5.63,5.63,0,0,1-1.85-2.45A9.16,9.16,0,0,1,19,20.39a9.23,9.23,0,0,1,.63-3.5,5.58,5.58,0,0,1,1.85-2.45,4.89,4.89,0,0,1,5.64,0A5.67,5.67,0,0,1,29,16.89a9.06,9.06,0,0,1,.64,3.5A9,9,0,0,1,29,23.88a5.73,5.73,0,0,1-1.86,2.45,4.61,4.61,0,0,1-2.81.91m0-13.26a4.27,4.27,0,0,0-2.58.81,5.16,5.16,0,0,0-1.71,2.26,8.81,8.81,0,0,0-.6,3.34,8.75,8.75,0,0,0,.6,3.32A5.23,5.23,0,0,0,21.77,26a4.42,4.42,0,0,0,5.13,0,5.32,5.32,0,0,0,1.72-2.27,8.59,8.59,0,0,0,.61-3.32,8.65,8.65,0,0,0-.61-3.34,5.26,5.26,0,0,0-1.72-2.26A4.24,4.24,0,0,0,24.35,14"/><path class="cls-3" d="M8.36,20.39a1.63,1.63,0,1,1-1.63-1.63,1.63,1.63,0,0,1,1.63,1.63"/><path class="cls-3" d="M35.69,20.39a1.63,1.63,0,1,1-1.63-1.63,1.63,1.63,0,0,1,1.63,1.63"/><path class="cls-3" d="M24.07,29.39a9.38,9.38,0,0,1-3.68.69,9.38,9.38,0,0,1-3.68-.69,6.13,6.13,0,0,1-2.62-2,5.2,5.2,0,0,1,0-6.05,6.14,6.14,0,0,1,2.62-2,9.34,9.34,0,0,1,3.68-.7,9.34,9.34,0,0,1,3.68.7,6.14,6.14,0,0,1,2.62,2,5.2,5.2,0,0,1,0,6.05,6.12,6.12,0,0,1-2.62,2m-3.68.06a8.92,8.92,0,0,0,3.4-.61,5.41,5.41,0,0,0,2.36-1.78,4.63,4.63,0,0,0,0-5.39,5.5,5.5,0,0,0-2.36-1.79,8.74,8.74,0,0,0-3.4-.63,8.81,8.81,0,0,0-3.42.63,5.43,5.43,0,0,0-2.35,1.79,4.68,4.68,0,0,0,0,5.39A5.35,5.35,0,0,0,17,28.84a9,9,0,0,0,3.42.61"/><path class="cls-3" d="M27.87,24.36a5.19,5.19,0,0,1-1,3.15,6.37,6.37,0,0,1-2.7,2.08,9.63,9.63,0,0,1-3.76.71,9.64,9.64,0,0,1-3.76-.71,6.35,6.35,0,0,1-2.7-2.08,5.41,5.41,0,0,1,0-6.3,6.36,6.36,0,0,1,2.71-2.09,9.6,9.6,0,0,1,3.76-.71,9.6,9.6,0,0,1,3.76.71,6.38,6.38,0,0,1,2.71,2.09,5.2,5.2,0,0,1,1,3.15M24,29.2a5.94,5.94,0,0,0,2.53-1.94,5,5,0,0,0,0-5.8A6,6,0,0,0,24,19.51a9.17,9.17,0,0,0-3.59-.68,9.17,9.17,0,0,0-3.59.68,5.94,5.94,0,0,0-2.53,1.95,5,5,0,0,0,0,5.8A5.94,5.94,0,0,0,16.8,29.2a9.23,9.23,0,0,0,3.6.68A9.23,9.23,0,0,0,24,29.2m3.24-4.84a4.64,4.64,0,0,1-.9,2.83A5.65,5.65,0,0,1,23.88,29a9.16,9.16,0,0,1-3.48.63,9.23,9.23,0,0,1-3.5-.63,5.58,5.58,0,0,1-2.44-1.85,4.89,4.89,0,0,1,0-5.64,5.68,5.68,0,0,1,2.44-1.86,9.07,9.07,0,0,1,3.5-.64,9,9,0,0,1,3.48.64,5.74,5.74,0,0,1,2.45,1.86,4.61,4.61,0,0,1,.9,2.81M14,24.36a4.27,4.27,0,0,0,.81,2.58,5.17,5.17,0,0,0,2.26,1.71,8.81,8.81,0,0,0,3.34.6,8.76,8.76,0,0,0,3.32-.6A5.23,5.23,0,0,0,26,26.93a4.42,4.42,0,0,0,0-5.13,5.31,5.31,0,0,0-2.28-1.72,8.58,8.58,0,0,0-3.32-.61,8.64,8.64,0,0,0-3.34.61,5.25,5.25,0,0,0-2.26,1.72A4.24,4.24,0,0,0,14,24.36"/><path class="cls-4" d="M24.07,21.48a9.38,9.38,0,0,1-3.68.69,9.38,9.38,0,0,1-3.68-.69,6.13,6.13,0,0,1-2.62-2,5.2,5.2,0,0,1,0-6.05,6.14,6.14,0,0,1,2.62-2,9.35,9.35,0,0,1,3.68-.7,9.35,9.35,0,0,1,3.68.7,6.14,6.14,0,0,1,2.62,2,5.2,5.2,0,0,1,0,6.05,6.12,6.12,0,0,1-2.62,2m-3.68.06a8.92,8.92,0,0,0,3.4-.61,5.41,5.41,0,0,0,2.36-1.78,4.63,4.63,0,0,0,0-5.39A5.5,5.5,0,0,0,23.8,12a8.74,8.74,0,0,0-3.4-.63A8.81,8.81,0,0,0,17,12a5.43,5.43,0,0,0-2.35,1.79,4.68,4.68,0,0,0,0,5.39A5.35,5.35,0,0,0,17,20.92a9,9,0,0,0,3.42.61"/><path class="cls-4" d="M27.87,16.44a5.19,5.19,0,0,1-1,3.15,6.38,6.38,0,0,1-2.7,2.08,9.65,9.65,0,0,1-3.76.71,9.66,9.66,0,0,1-3.76-.71,6.36,6.36,0,0,1-2.7-2.08,5.41,5.41,0,0,1,0-6.3,6.36,6.36,0,0,1,2.71-2.09,9.6,9.6,0,0,1,3.76-.71,9.6,9.6,0,0,1,3.76.71,6.38,6.38,0,0,1,2.71,2.09,5.2,5.2,0,0,1,1,3.15M24,21.28a5.94,5.94,0,0,0,2.53-1.94,5,5,0,0,0,0-5.8A6,6,0,0,0,24,11.6a9.17,9.17,0,0,0-3.59-.68,9.17,9.17,0,0,0-3.59.68,5.94,5.94,0,0,0-2.53,1.95,5,5,0,0,0,0,5.8,5.94,5.94,0,0,0,2.53,1.94,9.23,9.23,0,0,0,3.6.68,9.23,9.23,0,0,0,3.6-.68m3.24-4.84a4.64,4.64,0,0,1-.9,2.83,5.65,5.65,0,0,1-2.45,1.85,9.16,9.16,0,0,1-3.48.63,9.23,9.23,0,0,1-3.5-.63,5.58,5.58,0,0,1-2.44-1.85,4.89,4.89,0,0,1,0-5.64,5.67,5.67,0,0,1,2.44-1.86,9.07,9.07,0,0,1,3.5-.64,9,9,0,0,1,3.48.64,5.74,5.74,0,0,1,2.45,1.86,4.61,4.61,0,0,1,.9,2.81M14,16.44A4.27,4.27,0,0,0,14.79,19a5.16,5.16,0,0,0,2.26,1.71,8.81,8.81,0,0,0,3.34.6,8.76,8.76,0,0,0,3.32-.6A5.23,5.23,0,0,0,26,19a4.42,4.42,0,0,0,0-5.13,5.31,5.31,0,0,0-2.28-1.72,8.58,8.58,0,0,0-3.32-.61,8.64,8.64,0,0,0-3.34.61,5.25,5.25,0,0,0-2.26,1.72A4.24,4.24,0,0,0,14,16.44"/><path class="cls-3" d="M20.39,32.43a1.63,1.63,0,1,1-1.63,1.63,1.63,1.63,0,0,1,1.63-1.63"/><path class="cls-4" d="M20.39,5.1a1.63,1.63,0,1,1-1.63,1.63A1.63,1.63,0,0,1,20.39,5.1"/></svg>