<svg id="Capa_1" data-name="Capa 1" xmlns="http://www.w3.org/2000/svg" viewBox="0 0 15.17 15.17"><defs><style>.cls-1{fill:#00b76c;}.cls-2{fill:#546f7a;}.cls-3{fill:#3d4ff9;}.cls-4{fill:#39a4fa;}.cls-5{fill:#0091e2;}.cls-6{fill:#8b41f7;}.cls-7{fill:#ff434d;}.cls-8{fill:#ff6137;}.cls-9{fill:#ffd039;}</style></defs><title>COLORES</title><path class="cls-1" d="M4.77,4.77,2.22,2.22A7.56,7.56,0,0,0,0,7.59H3.6A4,4,0,0,1,4.77,4.77Z"/><path class="cls-2" d="M3.6,7.59H0A7.56,7.56,0,0,0,2.22,13L4.77,10.4A4,4,0,0,1,3.6,7.59Z"/><path class="cls-3" d="M4.77,10.4,2.22,13a7.56,7.56,0,0,0,5.36,2.22v-3.6A4,4,0,0,1,4.77,10.4Z"/><path class="cls-4" d="M7.59,11.57v3.6A7.56,7.56,0,0,0,13,13L10.4,10.4A4,4,0,0,1,7.59,11.57Z"/><path class="cls-5" d="M7.59,15.13v0A7.56,7.56,0,0,0,13,13l-.39-.39A7.57,7.57,0,0,1,7.59,15.13Z"/><path class="cls-6" d="M11.57,7.59A4,4,0,0,1,10.4,10.4L13,13a7.56,7.56,0,0,0,2.22-5.36Z"/><path class="cls-7" d="M11.57,7.59h3.6A7.56,7.56,0,0,0,13,2.22L10.4,4.77A4,4,0,0,1,11.57,7.59Z"/><path class="cls-8" d="M10.4,4.77,13,2.22A7.56,7.56,0,0,0,7.59,0V3.6A4,4,0,0,1,10.4,4.77Z"/><path class="cls-9" d="M7.59,3.6V0A7.56,7.56,0,0,0,2.22,2.22L4.77,4.77A4,4,0,0,1,7.59,3.6Z"/></svg>