<svg id="Capa_1" data-name="Capa 1" xmlns="http://www.w3.org/2000/svg" viewBox="0 0 11.85 11.35"><defs><style>.cls-1{fill:#e84d5c;}</style></defs><title>ESTRELLA-ROJA</title><path class="cls-1" d="M11.59,5.14a.85.85,0,0,0-.47-1.45L8.25,3.28A.37.37,0,0,1,8,3.07L6.68.47a.85.85,0,0,0-1.52,0L3.88,3.07a.38.38,0,0,1-.28.2L.73,3.69A.85.85,0,0,0,.26,5.14l2.08,2a.38.38,0,0,1,.11.33L2,10.35a.83.83,0,0,0,.19.69.86.86,0,0,0,1,.21L5.75,9.9a.38.38,0,0,1,.35,0l2.57,1.35a.84.84,0,0,0,.4.1A.85.85,0,0,0,9.71,11a.83.83,0,0,0,.19-.69L9.4,7.5a.37.37,0,0,1,.11-.33Z"/></svg>