<svg id="Capa_1" data-name="Capa 1" xmlns="http://www.w3.org/2000/svg" viewBox="0 0 23.23 23.23"><defs><style>.cls-1{fill:#7878be;}.cls-2{fill:#fff;}</style></defs><title>MI-CUENTA</title><circle class="cls-1" cx="11.62" cy="11.62" r="11.62"/><path class="cls-2" d="M11.62,6.21a2.38,2.38,0,0,1,.81,4.62l-.39.11a2.6,2.6,0,0,1-.42,0,2.64,2.64,0,0,1-.42,0l-.39-.11a2.38,2.38,0,0,1,.82-4.62Z"/><path class="cls-2" d="M11.62,17.45A6.12,6.12,0,0,1,6.2,14.17a3.88,3.88,0,0,1,1.73-1.85A6.61,6.61,0,0,1,9,11.82a.3.3,0,0,1,.26,0h0a4,4,0,0,0,4.69,0h0a.3.3,0,0,1,.26,0,6.61,6.61,0,0,1,1.09.5A3.91,3.91,0,0,1,17,14.17,6.12,6.12,0,0,1,11.62,17.45Z"/></svg>