<svg id="Capa_1" data-name="Capa 1" xmlns="http://www.w3.org/2000/svg" viewBox="0 0 23.23 23.23"><defs><style>.cls-1{fill:#e84d5c;}.cls-2{fill:#fff;}</style></defs><title>MI-CALENDARIO</title><circle class="cls-1" cx="11.62" cy="11.62" r="11.62"/><path class="cls-2" d="M16.18,6.06H7.05A2.15,2.15,0,0,0,4.9,8.2v8.28a2.15,2.15,0,0,0,2.15,2.15h9.13a2.15,2.15,0,0,0,2.15-2.15V8.2A2.15,2.15,0,0,0,16.18,6.06Zm1,10.79a.64.64,0,0,1-.64.64H6.65A.64.64,0,0,1,6,16.84V10.3a.64.64,0,0,1,.64-.65h9.93a.64.64,0,0,1,.64.65Z"/></svg>