<svg id="Capa_1" data-name="Capa 1" xmlns="http://www.w3.org/2000/svg" viewBox="0 0 11.85 11.35"><defs><style>.cls-1{fill:#606060;}</style></defs><title>ESTRELLA-GRIS-3-4</title><path class="cls-1" d="M11.59,5.14a.85.85,0,0,0-.47-1.45L8.25,3.28l-.06,0-.11,0A.37.37,0,0,1,8,3.07L6.68.47h0A.83.83,0,0,0,5.92,0h0a.84.84,0,0,0-.76.47l-.36.74L3.88,3.07a.36.36,0,0,1-.07.09.38.38,0,0,1-.19.11h0l-.47.07L3,3.37.73,3.69A.84.84,0,0,0,0,4.27a.27.27,0,0,0,0,0,.84.84,0,0,0,0,.23H0v0a.83.83,0,0,0,.06.27l0,0a.84.84,0,0,0,.18.26L1.7,6.55l.63.62a.34.34,0,0,1,.08.13.37.37,0,0,1,0,.2L2,10.35a.85.85,0,0,0,0,.33l0,.07a.82.82,0,0,0,.14.28h0l.06.05.1.09a.84.84,0,0,0,.89.06l1.54-.81,1-.54h0a.35.35,0,0,1,.13,0h0l.07,0,.1,0,2.57,1.35a.85.85,0,0,0,1.23-.9L9.4,7.5a.37.37,0,0,1,.11-.33ZM5.92,9.38V.47h0V9.38Zm3.5,1.05a.37.37,0,0,1-.54.4l-.37-.2V3.79L11,4.16a.37.37,0,0,1,.21.64l-2.08,2a.85.85,0,0,0-.24.75Z"/></svg>