<svg id="Capa_1" data-name="Capa 1" xmlns="http://www.w3.org/2000/svg" viewBox="0 0 25 25"><defs><style>.cls-1{fill:#fff;}</style></defs><title>GUARDAR-CAMBIOS</title><path class="cls-1" d="M12.5,0A12.5,12.5,0,1,0,25,12.5,12.5,12.5,0,0,0,12.5,0M5.93,9.73A7.13,7.13,0,0,1,17.51,7.41L18,6.69A.5.5,0,0,1,18.9,7l0,3.86a.49.49,0,0,1-.7.45L14.67,9.71a.5.5,0,0,1,.13-.94l.64-.1a4.78,4.78,0,0,0-2.94-1,4.84,4.84,0,0,0-4.46,3,1.15,1.15,0,0,1-2.11-.9m13.15,5.54A7.13,7.13,0,0,1,7.49,17.58L7,18.31a.5.5,0,0,1-.56.21A.51.51,0,0,1,6.1,18l0-3.87a.49.49,0,0,1,.23-.41.48.48,0,0,1,.47,0l3.51,1.58a.49.49,0,0,1,.29.52.5.5,0,0,1-.42.42l-.64.1a4.77,4.77,0,0,0,2.94,1,4.85,4.85,0,0,0,4.46-3,1.15,1.15,0,0,1,2.11.9"/></svg>