<svg id="Capa_1" data-name="Capa 1" xmlns="http://www.w3.org/2000/svg" viewBox="0 0 30 30"><defs><style>.cls-1{fill:#3db29c;}</style></defs><title>INICIADO</title><path class="cls-1" d="M13.78,0A15,15,0,1,0,30,16.21,15.05,15.05,0,0,0,13.78,0Zm7.59,20.9a1.77,1.77,0,0,1-1.76,1.77H10.39A1.76,1.76,0,0,1,8.63,21V15.26a1.76,1.76,0,0,1,.48-1.21,2.17,2.17,0,0,1,1.75-.56h6.52V11.07A2.45,2.45,0,0,0,15,8.59a2.37,2.37,0,0,0-1.87.86l0,.05,0,.06a2.73,2.73,0,0,0-.21.34l0,.1a5.8,5.8,0,0,1-.32.91l0,.08h0a1.32,1.32,0,0,1-1.11.6h-.19a1.31,1.31,0,0,1-1-1.58,5,5,0,0,1,5.37-4A5.07,5.07,0,0,1,20,11.11v2.42a1.76,1.76,0,0,1,1.4,1.72Z"/><path class="cls-1" d="M16.83,18,14.1,16.15c-.19-.13-.51,0-.51.15v4c0,.18.32.28.51.15l2.72-1.89A.28.28,0,0,0,16.83,18Z"/></svg>