<svg id="Capa_1" data-name="Capa 1" xmlns="http://www.w3.org/2000/svg" viewBox="0 0 23.23 23.23"><defs><style>.cls-1{fill:#7878be;}.cls-2{fill:#fff;}</style></defs><title>NOTIFICACION</title><path class="cls-1" d="M11.62,0A11.62,11.62,0,1,0,23.23,11.62,11.62,11.62,0,0,0,11.62,0Z"/><path class="cls-2" d="M11.62,18a1.51,1.51,0,0,1-1.51-1.51h3A1.51,1.51,0,0,1,11.62,18Z"/><path class="cls-2" d="M16.72,15h0c0,.56-.45.6-1,.6H7.52c-.56,0-1,0-1-.6v-.1A1,1,0,0,1,7.09,14l.32-2.77a4.21,4.21,0,0,1,3.34-4.12V6a.87.87,0,0,1,1.73,0V7.12a4.21,4.21,0,0,1,3.34,4.12L16.15,14a1,1,0,0,1,.57.91Z"/></svg>