<svg id="Capa_1" data-name="Capa 1" xmlns="http://www.w3.org/2000/svg" viewBox="0 0 23.23 23.23"><defs><style>.cls-1{fill:#e84d5c;}.cls-2{fill:#fff;}</style></defs><title>ENCUESTAS-PENDIENTES</title><circle class="cls-1" cx="11.62" cy="11.62" r="11.62"/><path class="cls-2" d="M17.81,6.82a1.62,1.62,0,0,0-2.74-.91l-.75.75,2.26,2.26.86-.86A1.35,1.35,0,0,0,17.81,6.82Z"/><path class="cls-2" d="M13.52,7.83a.27.27,0,0,0-.38,0L6.3,14.68a1.33,1.33,0,0,0-.35.62l-.49,2a.43.43,0,0,0,.52.52l2-.49a1.33,1.33,0,0,0,.62-.35l6.85-6.85a.27.27,0,0,0,0-.38Z"/></svg>