<svg id="Capa_1" data-name="Capa 1" xmlns="http://www.w3.org/2000/svg" viewBox="0 0 30 30"><defs><style>.cls-1{fill:#7878be;}</style></defs><title>AJUSTES-ROJO</title><path class="cls-1" d="M15,0A15,15,0,1,0,30,15,15,15,0,0,0,15,0Zm9.43,16.1a.52.52,0,0,1-.55.46h-.12a2.1,2.1,0,0,0-1.41,3.65.52.52,0,0,1,.06.72,9.68,9.68,0,0,1-1.54,1.52.53.53,0,0,1-.71-.06,2.18,2.18,0,0,0-2.35-.53,2.11,2.11,0,0,0-1.3,2,.53.53,0,0,1-.47.54,8.66,8.66,0,0,1-1,.06,9.46,9.46,0,0,1-1.09-.07.53.53,0,0,1-.47-.55,2.09,2.09,0,0,0-1.28-2.06,2.19,2.19,0,0,0-2.36.53.52.52,0,0,1-.72.06,9.45,9.45,0,0,1-1.5-1.52.53.53,0,0,1,.05-.71A2.09,2.09,0,0,0,6.2,16.52a.63.63,0,0,1-.62-.47,9.24,9.24,0,0,1,0-2.15.52.52,0,0,1,.55-.47,2.2,2.2,0,0,0,2.06-1.28,2.11,2.11,0,0,0-.53-2.37.53.53,0,0,1-.05-.72A9.19,9.19,0,0,1,9.14,7.54a.53.53,0,0,1,.71.06,2.19,2.19,0,0,0,2.35.53,2.11,2.11,0,0,0,1.3-2A.53.53,0,0,1,14,5.57a9.79,9.79,0,0,1,2.14,0,.54.54,0,0,1,.47.56,2.1,2.1,0,0,0,1.28,2.06,2.18,2.18,0,0,0,2.36-.53.54.54,0,0,1,.73-.05,9,9,0,0,1,1.5,1.52.52.52,0,0,1-.06.71,2.09,2.09,0,0,0,1.43,3.64.62.62,0,0,1,.61.47A9.62,9.62,0,0,1,24.42,16.1ZM15,11.86A3.16,3.16,0,1,0,18.18,15,3.17,3.17,0,0,0,15,11.86Z"/></svg>