<svg id="Capa_1" data-name="Capa 1" xmlns="http://www.w3.org/2000/svg" viewBox="0 0 25 25"><defs><style>.cls-1{fill:#fff;}</style></defs><title>VOLVER</title><path class="cls-1" d="M12.49,0A12.5,12.5,0,1,0,25,12.51,12.49,12.49,0,0,0,12.49,0Zm6.29,16a8.42,8.42,0,0,1-7.24,4.11H11l-.41,0,.22,1.07a.6.6,0,0,1-.32.67.62.62,0,0,1-.73-.11L6.62,18.56l-.22-.22a.59.59,0,0,1-.15-.57.57.57,0,0,1,.37-.44l2.22-.84,2.29-.87a.61.61,0,0,1,.71.2.63.63,0,0,1,0,.75l-.47.63h.16a5.47,5.47,0,0,0,4.72-2.69,5.48,5.48,0,0,0-.16-5.89h0a5.57,5.57,0,0,0-3.37-2.29,1.54,1.54,0,0,1-1.19-1.52,1.4,1.4,0,0,1,1.67-1.37A8.44,8.44,0,0,1,18.78,16Z"/></svg>