<svg id="Capa_1" data-name="Capa 1" xmlns="http://www.w3.org/2000/svg" viewBox="0 0 40 40"><defs><style>.cls-1{fill:#e84d5c;}.cls-2{fill:#fff;}</style></defs><title>SUBIR</title><path class="cls-1" d="M40,20A20,20,0,1,1,20,0,20,20,0,0,1,40,20"/><path class="cls-2" d="M26.71,22.64V27H13.29V22.64H10.71v5.68A1.29,1.29,0,0,0,12,29.6H28a1.29,1.29,0,0,0,1.29-1.29V22.64Z"/><path class="cls-2" d="M20.23,10.57,23.93,15s.56.53,0,.53H21.8v6.5s.08.32-.39.32H18.47c-.34,0-.34-.27-.34-.27V15.69H16.22c-.74,0-.18-.56-.18-.56s3.14-4.17,3.58-4.61a.41.41,0,0,1,.62,0"/></svg>