<svg id="Capa_1" data-name="Capa 1" xmlns="http://www.w3.org/2000/svg" viewBox="0 0 24.22 15.7"><defs><style>.cls-1{fill:#e84d5c;}</style></defs><title>SUBORDINADOS-ROJO</title><path class="cls-1" d="M16.65,0a3.33,3.33,0,0,1,1.14,6.45,4.55,4.55,0,0,1-.55.15,3.61,3.61,0,0,1-.59,0,3.67,3.67,0,0,1-.59,0,4.55,4.55,0,0,1-.55-.15A3.33,3.33,0,0,1,16.65,0"/><path class="cls-1" d="M21.81,8.54a9.18,9.18,0,0,0-1.52-.69.41.41,0,0,0-.36,0h0a5.63,5.63,0,0,1-6.55,0h0a.42.42,0,0,0-.36,0,9,9,0,0,0-1.52.69,5.44,5.44,0,0,0-2.42,2.58,8.56,8.56,0,0,0,15.15,0,5.44,5.44,0,0,0-2.42-2.58"/><path class="cls-1" d="M3.19,11.71l-3-3.62s-.46-.43,0-.43H1.7V4.11s-.07-.26.32-.26H4.83c.28,0,.27.22.27.22V7.55H6.45c.6,0,.15.45.15.45S4,11.38,3.69,11.74a.33.33,0,0,1-.5,0"/><path class="cls-1" d="M12.15,7.88l-.07-.06,0,0,0,0"/></svg>