<svg id="Capa_1" data-name="Capa 1" xmlns="http://www.w3.org/2000/svg" viewBox="0 0 24.25 15.7"><defs><style>.cls-1{fill:#e84d5c;}</style></defs><title>SUPERIORES-ROJO</title><path class="cls-1" d="M7.58,0A3.33,3.33,0,0,1,8.71,6.45a4.55,4.55,0,0,1-.55.15,3.66,3.66,0,0,1-.59,0A3.72,3.72,0,0,1,7,6.6a4.55,4.55,0,0,1-.55-.15A3.33,3.33,0,0,1,7.58,0"/><path class="cls-1" d="M12.73,8.54a9.18,9.18,0,0,0-1.52-.69.41.41,0,0,0-.36,0h0a5.63,5.63,0,0,1-6.55,0h0a.42.42,0,0,0-.36,0,9,9,0,0,0-1.52.69A5.44,5.44,0,0,0,0,11.13a8.56,8.56,0,0,0,15.15,0,5.44,5.44,0,0,0-2.42-2.58"/><path class="cls-1" d="M21.06,4l3,3.62S24.52,8,24,8H22.55v3.54s.07.26-.32.26H19.42c-.28,0-.27-.22-.27-.22V8.16H17.8c-.6,0-.15-.45-.15-.45S20.21,4.32,20.56,4a.33.33,0,0,1,.5,0"/></svg>