<svg id="Capa_1" data-name="Capa 1" xmlns="http://www.w3.org/2000/svg" viewBox="0 0 33.16 33.16"><defs><style>.cls-1{fill:#7f7f7f;}</style></defs><title>AJUSTES</title><path class="cls-1" d="M16.57,0A16.58,16.58,0,1,0,33.16,16.59,16.57,16.57,0,0,0,16.57,0ZM27,17.8a.58.58,0,0,1-.61.51h-.13a2.32,2.32,0,0,0-1.56,4,.58.58,0,0,1,.07.8,10.7,10.7,0,0,1-1.7,1.68.58.58,0,0,1-.79-.07,2.41,2.41,0,0,0-2.6-.59,2.33,2.33,0,0,0-1.43,2.23.59.59,0,0,1-.52.6,9.57,9.57,0,0,1-1.15.07A10.46,10.46,0,0,1,15.36,27a.59.59,0,0,1-.52-.61,2.31,2.31,0,0,0-1.42-2.27,2.42,2.42,0,0,0-2.61.58.58.58,0,0,1-.8.07,10.44,10.44,0,0,1-1.66-1.68.58.58,0,0,1,.06-.79,2.31,2.31,0,0,0-1.56-4,.69.69,0,0,1-.69-.52,10.21,10.21,0,0,1,0-2.38.57.57,0,0,1,.6-.52,2.44,2.44,0,0,0,2.28-1.41,2.33,2.33,0,0,0-.59-2.62A.59.59,0,0,1,8.4,10a10.16,10.16,0,0,1,1.7-1.68.58.58,0,0,1,.79.07A2.42,2.42,0,0,0,13.48,9a2.33,2.33,0,0,0,1.44-2.23.58.58,0,0,1,.52-.6,10.82,10.82,0,0,1,2.36,0,.59.59,0,0,1,.52.62,2.32,2.32,0,0,0,1.41,2.27,2.41,2.41,0,0,0,2.61-.59.59.59,0,0,1,.8-.06,9.93,9.93,0,0,1,1.66,1.68.58.58,0,0,1-.07.79,2.31,2.31,0,0,0,1.58,4,.69.69,0,0,1,.68.52A10.63,10.63,0,0,1,27,17.8Zm-10.4-4.7a3.5,3.5,0,1,0,3.5,3.49A3.5,3.5,0,0,0,16.59,13.1Z"/></svg>