<svg id="Capa_1" data-name="Capa 1" xmlns="http://www.w3.org/2000/svg" viewBox="0 0 11.84 11.35"><defs><style>.cls-1{fill:#e84d5c;}</style></defs><title>ESTRELLA-ROJA-BORDE</title><path class="cls-1" d="M11.59,5.14a.85.85,0,0,0-.47-1.45L8.25,3.28A.37.37,0,0,1,8,3.07L6.68.47a.85.85,0,0,0-1.52,0L3.88,3.07a.38.38,0,0,1-.28.21L.73,3.69A.85.85,0,0,0,.26,5.14l2.08,2a.37.37,0,0,1,.11.33L2,10.35a.85.85,0,0,0,1.23.9L5.75,9.9a.38.38,0,0,1,.35,0l2.57,1.35a.85.85,0,0,0,1.23-.9L9.4,7.5a.38.38,0,0,1,.11-.33ZM8.94,7.58l.49,2.86a.38.38,0,0,1-.54.4L6.32,9.48a.85.85,0,0,0-.79,0L3,10.83a.38.38,0,0,1-.54-.4l.49-2.86a.85.85,0,0,0-.24-.75L.59,4.8A.38.38,0,0,1,.8,4.16l2.87-.42a.85.85,0,0,0,.64-.46L5.59.68a.38.38,0,0,1,.67,0l1.28,2.6a.85.85,0,0,0,.64.46L11,4.16a.38.38,0,0,1,.21.64l-2.08,2a.85.85,0,0,0-.24.75"/></svg>