<?xml version="1.0" standalone="no"?>
<!DOCTYPE svg PUBLIC "-//W3C//DTD SVG 20010904//EN"
 "http://www.w3.org/TR/2001/REC-SVG-20010904/DTD/svg10.dtd">
<svg version="1.0" xmlns="http://www.w3.org/2000/svg"
 width="628.000000pt" height="550.000000pt" viewBox="0 0 628.000000 550.000000"
 preserveAspectRatio="xMidYMid meet">
<metadata>
Created by potrace 1.15, written by Peter Selinger 2001-2017
</metadata>
<g transform="translate(0.000000,550.000000) scale(0.100000,-0.100000)"
fill="#000000" stroke="none">
<path d="M3057 5404 c-31 -9 -64 -31 -90 -58 -30 -30 -461 -770 -1452 -2487
l-1410 -2444 0 -86 c0 -78 3 -90 30 -135 19 -30 49 -60 79 -79 l49 -30 2876 0
c2721 0 2878 1 2908 18 91 49 138 136 131 244 l-4 68 -1408 2440 c-775 1342
-1421 2456 -1436 2475 -57 73 -176 105 -273 74z m1188 -2835 l1093 -1894
-1099 -3 c-604 -1 -1594 -1 -2199 0 l-1099 3 1097 1901 c603 1046 1101 1899
1105 1894 5 -4 500 -860 1102 -1901z"/>
<path d="M3025 3630 c-71 -28 -119 -71 -152 -138 l-28 -57 1 -205 c2 -257 67
-1155 94 -1287 33 -166 77 -213 198 -213 108 0 150 33 185 145 9 28 21 79 26
115 21 136 83 1060 85 1250 1 180 -1 199 -21 242 -63 138 -239 205 -388 148z"/>
<path d="M3055 1487 c-65 -22 -99 -43 -139 -88 -58 -64 -80 -121 -80 -209 0
-123 58 -216 168 -270 155 -77 332 -17 408 137 58 118 40 245 -47 341 -73 81
-212 121 -310 89z"/>
</g>
</svg>
