<svg id="Capa_1" data-name="Capa 1" xmlns="http://www.w3.org/2000/svg" viewBox="0 0 14.78 14.78"><defs><style>.cls-1{fill:#fff;}</style></defs><title>BUEN-PORCENTAJE</title><path class="cls-1" d="M12.61,2.16a7.39,7.39,0,1,0,0,10.45,7.39,7.39,0,0,0,0-10.45m-7.56,8.4a.25.25,0,0,1-.25.25h-1a.25.25,0,0,1-.25-.25V6.06a.25.25,0,0,1,.25-.25h1a.25.25,0,0,1,.25.25Zm5.83-3.37a.76.76,0,0,1-.25,1,.75.75,0,0,1-.25,1,.76.76,0,0,1-.65,1.12H5.56v-4s1.21-1.09,1.6-1.47A1.52,1.52,0,0,0,7.58,4a1.05,1.05,0,0,1,.08-.35.41.41,0,0,1,.26-.19.86.86,0,0,1,.58.08,1.3,1.3,0,0,1,.44,1.52l-.26.72H10.6a.77.77,0,0,1,.29,1.38"/></svg>