<svg id="Capa_1" data-name="Capa 1" xmlns="http://www.w3.org/2000/svg" viewBox="0 0 35 35"><defs><style>.cls-1{fill:transparent;}.cls-2{fill:#000;}</style></defs><title>CALENDARIO-VERDE</title><circle class="cls-1" cx="17.5" cy="17.5" r="17.5"/><path class="cls-2" d="M24.38,9.12H20.44v2.74a1.33,1.33,0,0,1-1.16,1.33c-.29,0-3.17,0-3.55,0a1.31,1.31,0,0,1-1.16-1.33V9.12H10.62a3.24,3.24,0,0,0-3.24,3.23V24.82a3.24,3.24,0,0,0,3.24,3.24H24.38a3.24,3.24,0,0,0,3.24-3.24V12.35A3.24,3.24,0,0,0,24.38,9.12Zm1.56,16.25a1,1,0,0,1-1,1H10a1,1,0,0,1-1-1V15.51a1,1,0,0,1,1-1H25a1,1,0,0,1,1,1Z"/><rect class="cls-2" x="16.19" y="7.39" width="2.62" height="4.01" rx="0.75" ry="0.75"/></svg>