<svg id="Capa_1" data-name="Capa 1" xmlns="http://www.w3.org/2000/svg" viewBox="0 0 45.07 50"><defs><style>.cls-1{fill:gray;}</style></defs><title>Mesa de trabajo 118</title><path class="cls-1" d="M41.91,30.82l-3.7-3.7L21.57,10.48A7.84,7.84,0,0,0,10.48,21.57L27.12,38.22a1.74,1.74,0,1,0,2.46-2.47L12.94,19.11a4.36,4.36,0,0,1,6.17-6.17L35.75,29.58l3.7,3.7a7.85,7.85,0,0,1-11.1,11.1l-3.08-3.09L8,24,6.78,22.8a11.33,11.33,0,0,1,16-16L41.29,25.27a1.76,1.76,0,0,0,1.69.45,1.74,1.74,0,0,0,1.23-1.23,1.76,1.76,0,0,0-.45-1.69L25.27,4.32a14.81,14.81,0,0,0-20.95,21L22.8,43.76l3.09,3.08a11.33,11.33,0,0,0,16-16Z"/></svg>