<svg id="Capa_1" data-name="Capa 1" xmlns="http://www.w3.org/2000/svg" viewBox="0 0 30 30"><defs><style>.cls-1{fill:#989898;;}</style></defs><title>CERRADO</title><path class="cls-1" d="M15,16.15a1.56,1.56,0,0,0-.78,2.91v1.73h1.56V19.06A1.56,1.56,0,0,0,15,16.15Z"/><path class="cls-1" d="M15,8.58A2.38,2.38,0,0,0,12.62,11v2.53h4.75V11A2.38,2.38,0,0,0,15,8.58Z"/><path class="cls-1" d="M15,0A15,15,0,1,0,30,15,15,15,0,0,0,15,0Zm4.61,22.71H10.39a1.76,1.76,0,0,1-1.76-1.76V15.26A1.76,1.76,0,0,1,10,13.53V11A5,5,0,1,1,20,11v2.57a1.76,1.76,0,0,1,1.4,1.73v5.69h0A1.76,1.76,0,0,1,19.61,22.71Z"/></svg>