<svg id="Capa_1" data-name="Capa 1" xmlns="http://www.w3.org/2000/svg" viewBox="0 0 23.23 23.23"><defs><style>.cls-1{fill:#fff;}.cls-2{fill:#00cec5;}</style></defs><title>DESCARGA-DE-SERVICIO-MOVIL</title><circle class="cls-1" cx="11.62" cy="11.62" r="11.62"/><path class="cls-2" d="M15.51,13.15V15.7H7.72V13.15H6.22v3.3A.75.75,0,0,0,7,17.2h9.29a.75.75,0,0,0,.75-.75v-3.3Z"/><path class="cls-2" d="M11.48,12.9,9.33,10.3S9,10,9.36,10h1.21V6.22s0-.18.23-.18h1.7c.2,0,.2.15.2.15V9.92h1.12c.43,0,.11.32.11.32s-1.83,2.42-2.08,2.68A.24.24,0,0,1,11.48,12.9Z"/></svg>