<svg id="Capa_1" data-name="Capa 1" xmlns="http://www.w3.org/2000/svg" viewBox="0 0 11.85 11.35"><defs><style>.cls-1{fill:#fff;}</style></defs><title>ESTRELLA-BLANCO-1-4</title><path class="cls-1" d="M11.59,5.14a.85.85,0,0,0-.47-1.45L8.25,3.28A.37.37,0,0,1,8,3.07L6.68.47a.85.85,0,0,0-1.52,0L3.88,3.07a.37.37,0,0,1-.28.21l-1.3.19L.73,3.69A.84.84,0,0,0,0,4.27s0,0,0,0a.84.84,0,0,0,0,.23H0v0a.83.83,0,0,0,.06.27l0,0a.84.84,0,0,0,.18.26L1.7,6.55l.63.62a.33.33,0,0,1,.08.13.37.37,0,0,1,0,.2L2,10.35a.85.85,0,0,0,0,.33l0,.07a.83.83,0,0,0,.14.28h0a.87.87,0,0,0,.14.14.84.84,0,0,0,.9.06L5.75,9.9a.37.37,0,0,1,.35,0l2.56,1.35a.85.85,0,0,0,1.23-.9L9.4,7.5a.38.38,0,0,1,.11-.33ZM9.43,10.43a.38.38,0,0,1-.54.4L6.32,9.48a.85.85,0,0,0-.79,0L3.28,10.66V3.8l.39-.06a.85.85,0,0,0,.64-.46L5.59.68a.37.37,0,0,1,.67,0l1.28,2.6a.85.85,0,0,0,.64.46L11,4.16a.38.38,0,0,1,.21.64l-2.08,2a.85.85,0,0,0-.24.75Z"/></svg>