<svg id="Capa_1" data-name="Capa 1" xmlns="http://www.w3.org/2000/svg" viewBox="0 0 30 30"><defs><style>.cls-1{fill:#e84d5c;}</style></defs><title>EN-EVALUACION</title><path class="cls-1" d="M15,0A15,15,0,1,0,30,15,15,15,0,0,0,15,0ZM6.86,9.78a1,1,0,0,1,0-1.49,1.06,1.06,0,0,1,1.49,0L9.71,9.65l1.36-1.36a1.05,1.05,0,1,1,1.49,1.49L11.2,11.14l1.36,1.36a1.06,1.06,0,0,1,0,1.49,1,1,0,0,1-1.49,0L9.71,12.63,8.35,14a1.05,1.05,0,0,1-1.49-1.49l1.36-1.36Zm7.32,8.74L9.9,22.72a1.06,1.06,0,0,1-1.48,0l-2.1-2.11A1.05,1.05,0,0,1,7.8,19.12l1.36,1.36L12.71,17a1.05,1.05,0,0,1,1.47,1.5Zm9.31,2.72H17.65a1.24,1.24,0,0,1-1.05-1.36,1.24,1.24,0,0,1,1.05-1.37h5.84a1.24,1.24,0,0,1,1.05,1.37A1.24,1.24,0,0,1,23.49,21.23Zm0-8.73H17.65a1.24,1.24,0,0,1-1.05-1.36,1.24,1.24,0,0,1,1.05-1.36h5.84a1.24,1.24,0,0,1,1.05,1.36A1.24,1.24,0,0,1,23.49,12.5Z"/></svg>