<?xml version="1.0" encoding="utf-8"?>
<!-- Generator: Adobe Illustrator 18.0.0, SVG Export Plug-In . SVG Version: 6.00 Build 0)  -->
<!DOCTYPE svg PUBLIC "-//W3C//DTD SVG 1.1//EN" "http://www.w3.org/Graphics/SVG/1.1/DTD/svg11.dtd">
<svg version="1.1" id="Capa_1" xmlns="http://www.w3.org/2000/svg" xmlns:xlink="http://www.w3.org/1999/xlink" x="0px" y="0px"
	 viewBox="0 0 185 131.5" enable-background="new 0 0 185 131.5" xml:space="preserve">
<g>
	<g>
		<g>
			<g>
				<path fill="#EFD862" d="M158.1,129.4H26.3C14,129.4,4,119.4,4,107V36.7c0-16.6,13.5-30,30-30h84.9c2.2,0,4.3,0.8,5.9,2.3
					l4.9,4.5c1.6,1.5,3.7,2.3,5.9,2.3h20.4c2.2,0,4.2-0.8,5.8-2.3l5.9-5.3c1.1-1,2.4-1.5,3.9-1.5h4c2.7,0,4.8,2.2,4.8,4.8V107
					C180.4,119.4,170.4,129.4,158.1,129.4z"/>
			</g>
			<g>
				<path fill="#5AB2B0" d="M157.2,10.1l-21,0c-1.8,0-3.3-1.5-3.3-3.3v0c0-1.8,1.5-3.3,3.3-3.3l21,0c1.8,0,3.3,1.5,3.3,3.3v0
					C160.5,8.6,159,10.1,157.2,10.1z"/>
			</g>
		</g>
	</g>
	<path fill="#DBC25A" d="M25.4,129.4l3-8.2c0.8-2.2,2.9-3.6,5.2-3.6l117.9,0.2c2.3,0,4.3,1.4,5.1,3.5l3.1,8.1"/>
</g>
</svg>
