<svg id="Capa_1" data-name="Capa 1" xmlns="http://www.w3.org/2000/svg" viewBox="0 0 24.44 20"><defs><style>.cls-1{fill:#b2b2b2;}</style></defs><title>OJO-GRIS-DESACTIVADO</title><path class="cls-1" d="M24.31,9.59a23.38,23.38,0,0,0-4.24-4.27l-1,1a23.21,23.21,0,0,1,3.75,3.59l.06.08-.06.08c-1.21,1.47-5.56,6.28-10.59,6.28a9,9,0,0,1-2.73-.45h0L8.4,17a10.61,10.61,0,0,0,3.82.75c6.65,0,11.87-7,12.09-7.33A.69.69,0,0,0,24.31,9.59Z"/><path class="cls-1" d="M12.22,13.37H12l-1.2,1.2a4.92,4.92,0,0,0,1.39.2A4.77,4.77,0,0,0,17,10a5,5,0,0,0-.2-1.4l-1.2,1.2a1.31,1.31,0,0,1,0,.2A3.37,3.37,0,0,1,12.22,13.37Z"/><path class="cls-1" d="M21.6.62a.75.75,0,0,0-1.06,0l-3,3a11.39,11.39,0,0,0-5.28-1.41C5.58,2.25.36,9.29.14,9.59a.69.69,0,0,0,0,.82,23.2,23.2,0,0,0,5.47,5.14L2.84,18.32A.75.75,0,1,0,3.9,19.38L21.6,1.68A.75.75,0,0,0,21.6.62Zm-20,9.45L1.58,10l.06-.08C2.85,8.45,7.2,3.64,12.22,3.64a9.75,9.75,0,0,1,4.24,1.07L15,6.15a4.75,4.75,0,0,0-6.64,6.64L6.63,14.53A22.22,22.22,0,0,1,1.64,10.07Zm7.73,1.72A3.33,3.33,0,0,1,8.85,10a3.38,3.38,0,0,1,3.37-3.38,3.34,3.34,0,0,1,1.8.52Z"/></svg>