<svg id="Capa_1" data-name="Capa 1" xmlns="http://www.w3.org/2000/svg" viewBox="0 0 25 25"><defs><style>.cls-1{fill:#fff;}</style></defs><title>PASO-2</title><path class="cls-1" d="M12.5,0A12.5,12.5,0,1,0,25,12.51,12.5,12.5,0,0,0,12.5,0Zm3.87,18.15h-8V17c.8-.62,1.45-1.14,2-1.55s1-.85,1.58-1.33a17.81,17.81,0,0,0,1.3-1.23,13.91,13.91,0,0,0,.89-1.07,4.13,4.13,0,0,0,.58-1.06,2.92,2.92,0,0,0,.18-1,1.88,1.88,0,0,0-.72-1.59,2.79,2.79,0,0,0-1.72-.54,4.06,4.06,0,0,0-1.82.4A3.8,3.8,0,0,0,9.24,9.07l-.89-.92a4.31,4.31,0,0,1,1.73-1.37,5.63,5.63,0,0,1,2.32-.48,4.89,4.89,0,0,1,1.44.22,4.2,4.2,0,0,1,1.24.63A2.94,2.94,0,0,1,16,8.23a3.3,3.3,0,0,1,.33,1.51A3.85,3.85,0,0,1,16,11.16a6.52,6.52,0,0,1-.76,1.37A11.46,11.46,0,0,1,14,13.94q-.77.77-1.52,1.41c-.51.43-1.12.93-1.85,1.51h5.72Z"/></svg>