<svg id="Capa_1" data-name="Capa 1" xmlns="http://www.w3.org/2000/svg" viewBox="0 0 25 25"><defs><style>.cls-1{fill:#ccc;}</style></defs><title>USUARIO</title><path class="cls-1" d="M12.49,0A12.5,12.5,0,1,0,25,12.51,12.49,12.49,0,0,0,12.49,0m0,4.55a3.7,3.7,0,0,1,1.26,7.18,5,5,0,0,1-.61.17,4,4,0,0,1-.65.06,4.1,4.1,0,0,1-.66-.06,5,5,0,0,1-.61-.17A3.7,3.7,0,0,1,12.5,4.55m0,15.91A8.44,8.44,0,0,1,5,15.95,5.35,5.35,0,0,1,7.41,13.4a9.14,9.14,0,0,1,1.5-.69.42.42,0,0,1,.36.05h0a5.57,5.57,0,0,0,6.47,0h0a.42.42,0,0,1,.36-.05,9.14,9.14,0,0,1,1.5.69A5.39,5.39,0,0,1,20,15.95a8.44,8.44,0,0,1-7.47,4.51"/></svg>