<svg id="Capa_1" data-name="Capa 1" xmlns="http://www.w3.org/2000/svg" viewBox="0 0 35 35"><defs><style>.cls-1{fill:#fff;}</style></defs><title>INICIO</title><path class="cls-1" d="M0,17.5A17.5,17.5,0,1,0,17.5,0,17.5,17.5,0,0,0,0,17.5Zm14.49,4.38V19.53H7.14s-.36.1-.36-.45V15.78c0-.37.28-.38.3-.38h7.25V13.22c0-.84.63-.21.63-.21s4.72,3.55,5.21,4a.46.46,0,0,1,0,.7l-5,4.17S14.49,22.58,14.49,21.88ZM24.79,8.75A1.21,1.21,0,0,1,26,10V25a1.22,1.22,0,0,1-1.21,1.22H19.44V23.82h4.13V11.18H19.44V8.75Z"/></svg>