<svg id="Capa_1" data-name="Capa 1" xmlns="http://www.w3.org/2000/svg" viewBox="0 0 32.65 42.45"><defs><style>.cls-1{fill:#e84d5c;}</style></defs><title>LOGO-CARD</title><path class="cls-1" d="M32.49,9.93l-.25.33-.27.37-.27.4a14.93,14.93,0,0,0-1.23,2.32,18.18,18.18,0,0,0-1.14,3.87c0,.15-.05.31-.08.47s-.05.31-.07.47,0,.31-.06.46,0,.31-.05.47,0,.31,0,.46c0,.55-.05,1.1-.05,1.67s0,1.12.05,1.67c0,.15,0,.31,0,.46s0,.32.05.47,0,.31.06.46,0,.32.07.47.05.32.08.47a18.22,18.22,0,0,0,1.14,3.86,15.19,15.19,0,0,0,1.24,2.34l.26.4.28.37.24.31.16.2V30.47l-.12-.2a13.6,13.6,0,0,1-.86-1.71,16.78,16.78,0,0,1-1-3.16c0-.15-.06-.31-.09-.46s-.05-.31-.07-.47,0-.31-.06-.46,0-.31-.05-.46,0-.31,0-.46c-.05-.61-.07-1.23-.07-1.87s0-1.26.08-1.86c0-.15,0-.31,0-.46s0-.31.05-.46,0-.31.06-.46,0-.31.08-.47.05-.31.09-.46a16.51,16.51,0,0,1,.94-3.12,13.73,13.73,0,0,1,.86-1.72l.12-.2V9.73Z"/><path class="cls-1" d="M30.89,28.92A18.15,18.15,0,0,1,29.8,25.3l-.08-.47c0-.15-.05-.31-.07-.47s0-.31-.06-.46,0-.31-.05-.47l0-.46c0-.57-.06-1.15-.06-1.74s0-1.18.06-1.74l0-.47c0-.15,0-.31.05-.46s0-.31.06-.46,0-.31.07-.47l.08-.47a18.28,18.28,0,0,1,1.09-3.63A14,14,0,0,1,32,11.41c-.09-.13-.19-.26-.3-.39l-.31-.36A14.9,14.9,0,0,0,30,13.17a18.89,18.89,0,0,0-1.2,4.12c0,.15-.05.31-.08.47s0,.32-.06.48,0,.3-.05.46,0,.31,0,.47,0,.31,0,.47c0,.52-.05,1-.05,1.58s0,1.06.05,1.58c0,.15,0,.31,0,.47s0,.32,0,.47,0,.31.05.46,0,.32.06.47.05.32.08.48A18.89,18.89,0,0,0,30,29.27,14.81,14.81,0,0,0,31.4,31.8l.31-.36c.1-.13.21-.26.3-.39A13.65,13.65,0,0,1,30.89,28.92Zm0,0A18.15,18.15,0,0,1,29.8,25.3l-.08-.47c0-.15-.05-.31-.07-.47s0-.31-.06-.46,0-.31-.05-.47l0-.46c0-.57-.06-1.15-.06-1.74s0-1.18.06-1.74l0-.47c0-.15,0-.31.05-.46s0-.31.06-.46,0-.31.07-.47l.08-.47a18.28,18.28,0,0,1,1.09-3.63A14,14,0,0,1,32,11.41c-.09-.13-.19-.26-.3-.39l-.31-.36A14.9,14.9,0,0,0,30,13.17a18.89,18.89,0,0,0-1.2,4.12c0,.15-.05.31-.08.47s0,.32-.06.48,0,.3-.05.46,0,.31,0,.47,0,.31,0,.47c0,.52-.05,1-.05,1.58s0,1.06.05,1.58c0,.15,0,.31,0,.47s0,.32,0,.47,0,.31.05.46,0,.32.06.47.05.32.08.48A18.89,18.89,0,0,0,30,29.27,14.81,14.81,0,0,0,31.4,31.8l.31-.36c.1-.13.21-.26.3-.39A13.65,13.65,0,0,1,30.89,28.92Zm0,0A18.15,18.15,0,0,1,29.8,25.3l-.08-.47c0-.15-.05-.31-.07-.47s0-.31-.06-.46,0-.31-.05-.47l0-.46c0-.57-.06-1.15-.06-1.74s0-1.18.06-1.74l0-.47c0-.15,0-.31.05-.46s0-.31.06-.46,0-.31.07-.47l.08-.47a18.28,18.28,0,0,1,1.09-3.63A14,14,0,0,1,32,11.41c-.09-.13-.19-.26-.3-.39l-.31-.36A14.9,14.9,0,0,0,30,13.17a18.89,18.89,0,0,0-1.2,4.12c0,.15-.05.31-.08.47s0,.32-.06.48,0,.3-.05.46,0,.31,0,.47,0,.31,0,.47c0,.52-.05,1-.05,1.58s0,1.06.05,1.58c0,.15,0,.31,0,.47s0,.32,0,.47,0,.31.05.46,0,.32.06.47.05.32.08.48A18.89,18.89,0,0,0,30,29.27,14.81,14.81,0,0,0,31.4,31.8l.31-.36c.1-.13.21-.26.3-.39A13.65,13.65,0,0,1,30.89,28.92Zm1.64-17.55-.27.42a13.45,13.45,0,0,0-1,2,17.23,17.23,0,0,0-1,3.34c0,.15-.06.31-.09.46s-.05.31-.07.47,0,.3-.06.46,0,.31-.05.46,0,.31,0,.47c0,.59-.07,1.19-.07,1.81s0,1.22.07,1.81q0,.23,0,.46c0,.15,0,.31.05.46s0,.31.06.46,0,.31.07.47.05.31.08.46a17.44,17.44,0,0,0,1,3.38,13.45,13.45,0,0,0,1,2l.27.41.13.18V29.55a12.63,12.63,0,0,1-.56-1.17,16.09,16.09,0,0,1-.9-2.95c0-.15-.06-.31-.09-.46s-.05-.31-.08-.46S31,24.2,31,24s0-.31-.05-.46,0-.31,0-.46c-.05-.62-.08-1.25-.08-1.91s0-1.29.08-1.91c0-.15,0-.31,0-.46s0-.31.06-.46,0-.31.06-.46.05-.31.08-.46.06-.31.09-.46a15.88,15.88,0,0,1,.89-2.91c.17-.41.36-.8.56-1.17V11.19ZM29.8,25.3l-.08-.47c0-.15-.05-.31-.07-.47s0-.31-.06-.46,0-.31-.05-.47l0-.46c0-.57-.06-1.15-.06-1.74s0-1.18.06-1.74l0-.47c0-.15,0-.31.05-.46s0-.31.06-.46,0-.31.07-.47l.08-.47a18.28,18.28,0,0,1,1.09-3.63A14,14,0,0,1,32,11.41c-.09-.13-.19-.26-.3-.39l-.31-.36A14.9,14.9,0,0,0,30,13.17a18.89,18.89,0,0,0-1.2,4.12c0,.15-.05.31-.08.47s0,.32-.06.48,0,.3-.05.46,0,.31,0,.47,0,.31,0,.47c0,.52-.05,1-.05,1.58s0,1.06.05,1.58c0,.15,0,.31,0,.47s0,.32,0,.47,0,.31.05.46,0,.32.06.47.05.32.08.48A18.89,18.89,0,0,0,30,29.27,14.81,14.81,0,0,0,31.4,31.8l.31-.36c.1-.13.21-.26.3-.39a13.65,13.65,0,0,1-1.12-2.13A18.15,18.15,0,0,1,29.8,25.3Zm1.09,3.62A18.15,18.15,0,0,1,29.8,25.3l-.08-.47c0-.15-.05-.31-.07-.47s0-.31-.06-.46,0-.31-.05-.47l0-.46c0-.57-.06-1.15-.06-1.74s0-1.18.06-1.74l0-.47c0-.15,0-.31.05-.46s0-.31.06-.46,0-.31.07-.47l.08-.47a18.28,18.28,0,0,1,1.09-3.63A14,14,0,0,1,32,11.41c-.09-.13-.19-.26-.3-.39l-.31-.36A14.9,14.9,0,0,0,30,13.17a18.89,18.89,0,0,0-1.2,4.12c0,.15-.05.31-.08.47s0,.32-.06.48,0,.3-.05.46,0,.31,0,.47,0,.31,0,.47c0,.52-.05,1-.05,1.58s0,1.06.05,1.58c0,.15,0,.31,0,.47s0,.32,0,.47,0,.31.05.46,0,.32.06.47.05.32.08.48A18.89,18.89,0,0,0,30,29.27,14.81,14.81,0,0,0,31.4,31.8l.31-.36c.1-.13.21-.26.3-.39A13.65,13.65,0,0,1,30.89,28.92Zm0,0A18.15,18.15,0,0,1,29.8,25.3l-.08-.47c0-.15-.05-.31-.07-.47s0-.31-.06-.46,0-.31-.05-.47l0-.46c0-.57-.06-1.15-.06-1.74s0-1.18.06-1.74l0-.47c0-.15,0-.31.05-.46s0-.31.06-.46,0-.31.07-.47l.08-.47a18.28,18.28,0,0,1,1.09-3.63A14,14,0,0,1,32,11.41c-.09-.13-.19-.26-.3-.39l-.31-.36A14.9,14.9,0,0,0,30,13.17a18.89,18.89,0,0,0-1.2,4.12c0,.15-.05.31-.08.47s0,.32-.06.48,0,.3-.05.46,0,.31,0,.47,0,.31,0,.47c0,.52-.05,1-.05,1.58s0,1.06.05,1.58c0,.15,0,.31,0,.47s0,.32,0,.47,0,.31.05.46,0,.32.06.47.05.32.08.48A18.89,18.89,0,0,0,30,29.27,14.81,14.81,0,0,0,31.4,31.8l.31-.36c.1-.13.21-.26.3-.39A13.65,13.65,0,0,1,30.89,28.92Zm0,0A18.15,18.15,0,0,1,29.8,25.3l-.08-.47c0-.15-.05-.31-.07-.47s0-.31-.06-.46,0-.31-.05-.47l0-.46c0-.57-.06-1.15-.06-1.74s0-1.18.06-1.74l0-.47c0-.15,0-.31.05-.46s0-.31.06-.46,0-.31.07-.47l.08-.47a18.28,18.28,0,0,1,1.09-3.63A14,14,0,0,1,32,11.41c-.09-.13-.19-.26-.3-.39l-.31-.36A14.9,14.9,0,0,0,30,13.17a18.89,18.89,0,0,0-1.2,4.12c0,.15-.05.31-.08.47s0,.32-.06.48,0,.3-.05.46,0,.31,0,.47,0,.31,0,.47c0,.52-.05,1-.05,1.58s0,1.06.05,1.58c0,.15,0,.31,0,.47s0,.32,0,.47,0,.31.05.46,0,.32.06.47.05.32.08.48A18.89,18.89,0,0,0,30,29.27,14.81,14.81,0,0,0,31.4,31.8l.31-.36c.1-.13.21-.26.3-.39A13.65,13.65,0,0,1,30.89,28.92Zm1.6-19.69-.3.35-.26.33-.27.37-.27.39A14.9,14.9,0,0,0,30,13.17a18.89,18.89,0,0,0-1.2,4.12c0,.15-.05.31-.08.47s0,.32-.06.48,0,.3-.05.46,0,.31,0,.47,0,.31,0,.47c0,.52-.05,1-.05,1.58s0,1.06.05,1.58c0,.15,0,.31,0,.47s0,.32,0,.47,0,.31.05.46,0,.32.06.47.05.32.08.48A18.89,18.89,0,0,0,30,29.27,14.81,14.81,0,0,0,31.4,31.8l.26.39.28.37.24.31.3.35.17.19V32l-.1-.15a4.47,4.47,0,0,1-.28-.38c-.1-.13-.18-.27-.27-.41a13.65,13.65,0,0,1-1.12-2.13A18.15,18.15,0,0,1,29.8,25.3l-.08-.47c0-.15-.05-.31-.07-.47s0-.31-.06-.46,0-.31-.05-.47l0-.46c0-.57-.06-1.15-.06-1.74s0-1.18.06-1.74l0-.47c0-.15,0-.31.05-.46s0-.31.06-.46,0-.31.07-.47l.08-.47a18.28,18.28,0,0,1,1.09-3.63A14,14,0,0,1,32,11.41l.27-.41.27-.38.12-.16V9Zm-1.6,19.69A18.15,18.15,0,0,1,29.8,25.3l-.08-.47c0-.15-.05-.31-.07-.47s0-.31-.06-.46,0-.31-.05-.47l0-.46c0-.57-.06-1.15-.06-1.74s0-1.18.06-1.74l0-.47c0-.15,0-.31.05-.46s0-.31.06-.46,0-.31.07-.47l.08-.47a18.28,18.28,0,0,1,1.09-3.63A14,14,0,0,1,32,11.41c-.09-.13-.19-.26-.3-.39l-.31-.36A14.9,14.9,0,0,0,30,13.17a18.89,18.89,0,0,0-1.2,4.12c0,.15-.05.31-.08.47s0,.32-.06.48,0,.3-.05.46,0,.31,0,.47,0,.31,0,.47c0,.52-.05,1-.05,1.58s0,1.06.05,1.58c0,.15,0,.31,0,.47s0,.32,0,.47,0,.31.05.46,0,.32.06.47.05.32.08.48A18.89,18.89,0,0,0,30,29.27,14.81,14.81,0,0,0,31.4,31.8l.31-.36c.1-.13.21-.26.3-.39A13.65,13.65,0,0,1,30.89,28.92Zm0,0A18.15,18.15,0,0,1,29.8,25.3l-.08-.47c0-.15-.05-.31-.07-.47s0-.31-.06-.46,0-.31-.05-.47l0-.46c0-.57-.06-1.15-.06-1.74s0-1.18.06-1.74l0-.47c0-.15,0-.31.05-.46s0-.31.06-.46,0-.31.07-.47l.08-.47a18.28,18.28,0,0,1,1.09-3.63A14,14,0,0,1,32,11.41c-.09-.13-.19-.26-.3-.39l-.31-.36A14.9,14.9,0,0,0,30,13.17a18.89,18.89,0,0,0-1.2,4.12c0,.15-.05.31-.08.47s0,.32-.06.48,0,.3-.05.46,0,.31,0,.47,0,.31,0,.47c0,.52-.05,1-.05,1.58s0,1.06.05,1.58c0,.15,0,.31,0,.47s0,.32,0,.47,0,.31.05.46,0,.32.06.47.05.32.08.48A18.89,18.89,0,0,0,30,29.27,14.81,14.81,0,0,0,31.4,31.8l.31-.36c.1-.13.21-.26.3-.39A13.65,13.65,0,0,1,30.89,28.92Zm0,0A18.15,18.15,0,0,1,29.8,25.3l-.08-.47c0-.15-.05-.31-.07-.47s0-.31-.06-.46,0-.31-.05-.47l0-.46c0-.57-.06-1.15-.06-1.74s0-1.18.06-1.74l0-.47c0-.15,0-.31.05-.46s0-.31.06-.46,0-.31.07-.47l.08-.47a18.28,18.28,0,0,1,1.09-3.63A14,14,0,0,1,32,11.41c-.09-.13-.19-.26-.3-.39l-.31-.36A14.9,14.9,0,0,0,30,13.17a18.89,18.89,0,0,0-1.2,4.12c0,.15-.05.31-.08.47s0,.32-.06.48,0,.3-.05.46,0,.31,0,.47,0,.31,0,.47c0,.52-.05,1-.05,1.58s0,1.06.05,1.58c0,.15,0,.31,0,.47s0,.32,0,.47,0,.31.05.46,0,.32.06.47.05.32.08.48A18.89,18.89,0,0,0,30,29.27,14.81,14.81,0,0,0,31.4,31.8l.31-.36c.1-.13.21-.26.3-.39A13.65,13.65,0,0,1,30.89,28.92Zm1.64-17.55-.27.42a13.45,13.45,0,0,0-1,2,17.23,17.23,0,0,0-1,3.34c0,.15-.06.31-.09.46s-.05.31-.07.47,0,.3-.06.46,0,.31-.05.46,0,.31,0,.47c0,.59-.07,1.19-.07,1.81s0,1.22.07,1.81q0,.23,0,.46c0,.15,0,.31.05.46s0,.31.06.46,0,.31.07.47.05.31.08.46a17.44,17.44,0,0,0,1,3.38,13.45,13.45,0,0,0,1,2l.27.41.13.18V29.55a12.63,12.63,0,0,1-.56-1.17,16.09,16.09,0,0,1-.9-2.95c0-.15-.06-.31-.09-.46s-.05-.31-.08-.46S31,24.2,31,24s0-.31-.05-.46,0-.31,0-.46c-.05-.62-.08-1.25-.08-1.91s0-1.29.08-1.91c0-.15,0-.31,0-.46s0-.31.06-.46,0-.31.06-.46.05-.31.08-.46.06-.31.09-.46a15.88,15.88,0,0,1,.89-2.91c.17-.41.36-.8.56-1.17V11.19ZM29.8,25.3l-.08-.47c0-.15-.05-.31-.07-.47s0-.31-.06-.46,0-.31-.05-.47l0-.46c0-.57-.06-1.15-.06-1.74s0-1.18.06-1.74l0-.47c0-.15,0-.31.05-.46s0-.31.06-.46,0-.31.07-.47l.08-.47a18.28,18.28,0,0,1,1.09-3.63A14,14,0,0,1,32,11.41c-.09-.13-.19-.26-.3-.39l-.31-.36A14.9,14.9,0,0,0,30,13.17a18.89,18.89,0,0,0-1.2,4.12c0,.15-.05.31-.08.47s0,.32-.06.48,0,.3-.05.46,0,.31,0,.47,0,.31,0,.47c0,.52-.05,1-.05,1.58s0,1.06.05,1.58c0,.15,0,.31,0,.47s0,.32,0,.47,0,.31.05.46,0,.32.06.47.05.32.08.48A18.89,18.89,0,0,0,30,29.27,14.81,14.81,0,0,0,31.4,31.8l.31-.36c.1-.13.21-.26.3-.39a13.65,13.65,0,0,1-1.12-2.13A18.15,18.15,0,0,1,29.8,25.3Zm1.09,3.62A18.15,18.15,0,0,1,29.8,25.3l-.08-.47c0-.15-.05-.31-.07-.47s0-.31-.06-.46,0-.31-.05-.47l0-.46c0-.57-.06-1.15-.06-1.74s0-1.18.06-1.74l0-.47c0-.15,0-.31.05-.46s0-.31.06-.46,0-.31.07-.47l.08-.47a18.28,18.28,0,0,1,1.09-3.63A14,14,0,0,1,32,11.41c-.09-.13-.19-.26-.3-.39l-.31-.36A14.9,14.9,0,0,0,30,13.17a18.89,18.89,0,0,0-1.2,4.12c0,.15-.05.31-.08.47s0,.32-.06.48,0,.3-.05.46,0,.31,0,.47,0,.31,0,.47c0,.52-.05,1-.05,1.58s0,1.06.05,1.58c0,.15,0,.31,0,.47s0,.32,0,.47,0,.31.05.46,0,.32.06.47.05.32.08.48A18.89,18.89,0,0,0,30,29.27,14.81,14.81,0,0,0,31.4,31.8l.31-.36c.1-.13.21-.26.3-.39A13.65,13.65,0,0,1,30.89,28.92Zm0,0A18.15,18.15,0,0,1,29.8,25.3l-.08-.47c0-.15-.05-.31-.07-.47s0-.31-.06-.46,0-.31-.05-.47l0-.46c0-.57-.06-1.15-.06-1.74s0-1.18.06-1.74l0-.47c0-.15,0-.31.05-.46s0-.31.06-.46,0-.31.07-.47l.08-.47a18.28,18.28,0,0,1,1.09-3.63A14,14,0,0,1,32,11.41c-.09-.13-.19-.26-.3-.39l-.31-.36A14.9,14.9,0,0,0,30,13.17a18.89,18.89,0,0,0-1.2,4.12c0,.15-.05.31-.08.47s0,.32-.06.48,0,.3-.05.46,0,.31,0,.47,0,.31,0,.47c0,.52-.05,1-.05,1.58s0,1.06.05,1.58c0,.15,0,.31,0,.47s0,.32,0,.47,0,.31.05.46,0,.32.06.47.05.32.08.48A18.89,18.89,0,0,0,30,29.27,14.81,14.81,0,0,0,31.4,31.8l.31-.36c.1-.13.21-.26.3-.39A13.65,13.65,0,0,1,30.89,28.92Zm0,0A18.15,18.15,0,0,1,29.8,25.3l-.08-.47c0-.15-.05-.31-.07-.47s0-.31-.06-.46,0-.31-.05-.47l0-.46c0-.57-.06-1.15-.06-1.74s0-1.18.06-1.74l0-.47c0-.15,0-.31.05-.46s0-.31.06-.46,0-.31.07-.47l.08-.47a18.28,18.28,0,0,1,1.09-3.63A14,14,0,0,1,32,11.41c-.09-.13-.19-.26-.3-.39l-.31-.36A14.9,14.9,0,0,0,30,13.17a18.89,18.89,0,0,0-1.2,4.12c0,.15-.05.31-.08.47s0,.32-.06.48,0,.3-.05.46,0,.31,0,.47,0,.31,0,.47c0,.52-.05,1-.05,1.58s0,1.06.05,1.58c0,.15,0,.31,0,.47s0,.32,0,.47,0,.31.05.46,0,.32.06.47.05.32.08.48A18.89,18.89,0,0,0,30,29.27,14.81,14.81,0,0,0,31.4,31.8l.31-.36c.1-.13.21-.26.3-.39A13.65,13.65,0,0,1,30.89,28.92Zm0,0A18.15,18.15,0,0,1,29.8,25.3l-.08-.47c0-.15-.05-.31-.07-.47s0-.31-.06-.46,0-.31-.05-.47l0-.46c0-.57-.06-1.15-.06-1.74s0-1.18.06-1.74l0-.47c0-.15,0-.31.05-.46s0-.31.06-.46,0-.31.07-.47l.08-.47a18.28,18.28,0,0,1,1.09-3.63A14,14,0,0,1,32,11.41c-.09-.13-.19-.26-.3-.39l-.31-.36A14.9,14.9,0,0,0,30,13.17a18.89,18.89,0,0,0-1.2,4.12c0,.15-.05.31-.08.47s0,.32-.06.48,0,.3-.05.46,0,.31,0,.47,0,.31,0,.47c0,.52-.05,1-.05,1.58s0,1.06.05,1.58c0,.15,0,.31,0,.47s0,.32,0,.47,0,.31.05.46,0,.32.06.47.05.32.08.48A18.89,18.89,0,0,0,30,29.27,14.81,14.81,0,0,0,31.4,31.8l.31-.36c.1-.13.21-.26.3-.39A13.65,13.65,0,0,1,30.89,28.92Zm0,0A18.15,18.15,0,0,1,29.8,25.3l-.08-.47c0-.15-.05-.31-.07-.47s0-.31-.06-.46,0-.31-.05-.47l0-.46c0-.57-.06-1.15-.06-1.74s0-1.18.06-1.74l0-.47c0-.15,0-.31.05-.46s0-.31.06-.46,0-.31.07-.47l.08-.47a18.28,18.28,0,0,1,1.09-3.63A14,14,0,0,1,32,11.41c-.09-.13-.19-.26-.3-.39l-.31-.36A14.9,14.9,0,0,0,30,13.17a18.89,18.89,0,0,0-1.2,4.12c0,.15-.05.31-.08.47s0,.32-.06.48,0,.3-.05.46,0,.31,0,.47,0,.31,0,.47c0,.52-.05,1-.05,1.58s0,1.06.05,1.58c0,.15,0,.31,0,.47s0,.32,0,.47,0,.31.05.46,0,.32.06.47.05.32.08.48A18.89,18.89,0,0,0,30,29.27,14.81,14.81,0,0,0,31.4,31.8l.31-.36c.1-.13.21-.26.3-.39A13.65,13.65,0,0,1,30.89,28.92Zm0,0A18.15,18.15,0,0,1,29.8,25.3l-.08-.47c0-.15-.05-.31-.07-.47s0-.31-.06-.46,0-.31-.05-.47l0-.46c0-.57-.06-1.15-.06-1.74s0-1.18.06-1.74l0-.47c0-.15,0-.31.05-.46s0-.31.06-.46,0-.31.07-.47l.08-.47a18.28,18.28,0,0,1,1.09-3.63A14,14,0,0,1,32,11.41c-.09-.13-.19-.26-.3-.39l-.31-.36A14.9,14.9,0,0,0,30,13.17a18.89,18.89,0,0,0-1.2,4.12c0,.15-.05.31-.08.47s0,.32-.06.48,0,.3-.05.46,0,.31,0,.47,0,.31,0,.47c0,.52-.05,1-.05,1.58s0,1.06.05,1.58c0,.15,0,.31,0,.47s0,.32,0,.47,0,.31.05.46,0,.32.06.47.05.32.08.48A18.89,18.89,0,0,0,30,29.27,14.81,14.81,0,0,0,31.4,31.8l.31-.36c.1-.13.21-.26.3-.39A13.65,13.65,0,0,1,30.89,28.92Zm1.64-17.55-.27.42a13.45,13.45,0,0,0-1,2,17.23,17.23,0,0,0-1,3.34c0,.15-.06.31-.09.46s-.05.31-.07.47,0,.3-.06.46,0,.31-.05.46,0,.31,0,.47c0,.59-.07,1.19-.07,1.81s0,1.22.07,1.81q0,.23,0,.46c0,.15,0,.31.05.46s0,.31.06.46,0,.31.07.47.05.31.08.46a17.44,17.44,0,0,0,1,3.38,13.45,13.45,0,0,0,1,2l.27.41.13.18V29.55a12.63,12.63,0,0,1-.56-1.17,16.09,16.09,0,0,1-.9-2.95c0-.15-.06-.31-.09-.46s-.05-.31-.08-.46S31,24.2,31,24s0-.31-.05-.46,0-.31,0-.46c-.05-.62-.08-1.25-.08-1.91s0-1.29.08-1.91c0-.15,0-.31,0-.46s0-.31.06-.46,0-.31.06-.46.05-.31.08-.46.06-.31.09-.46a15.88,15.88,0,0,1,.89-2.91c.17-.41.36-.8.56-1.17V11.19ZM29.8,25.3l-.08-.47c0-.15-.05-.31-.07-.47s0-.31-.06-.46,0-.31-.05-.47l0-.46c0-.57-.06-1.15-.06-1.74s0-1.18.06-1.74l0-.47c0-.15,0-.31.05-.46s0-.31.06-.46,0-.31.07-.47l.08-.47a18.28,18.28,0,0,1,1.09-3.63A14,14,0,0,1,32,11.41c-.09-.13-.19-.26-.3-.39l-.31-.36A14.9,14.9,0,0,0,30,13.17a18.89,18.89,0,0,0-1.2,4.12c0,.15-.05.31-.08.47s0,.32-.06.48,0,.3-.05.46,0,.31,0,.47,0,.31,0,.47c0,.52-.05,1-.05,1.58s0,1.06.05,1.58c0,.15,0,.31,0,.47s0,.32,0,.47,0,.31.05.46,0,.32.06.47.05.32.08.48A18.89,18.89,0,0,0,30,29.27,14.81,14.81,0,0,0,31.4,31.8l.31-.36c.1-.13.21-.26.3-.39a13.65,13.65,0,0,1-1.12-2.13A18.15,18.15,0,0,1,29.8,25.3Zm1.09,3.62A18.15,18.15,0,0,1,29.8,25.3l-.08-.47c0-.15-.05-.31-.07-.47s0-.31-.06-.46,0-.31-.05-.47l0-.46c0-.57-.06-1.15-.06-1.74s0-1.18.06-1.74l0-.47c0-.15,0-.31.05-.46s0-.31.06-.46,0-.31.07-.47l.08-.47a18.28,18.28,0,0,1,1.09-3.63A14,14,0,0,1,32,11.41c-.09-.13-.19-.26-.3-.39l-.31-.36A14.9,14.9,0,0,0,30,13.17a18.89,18.89,0,0,0-1.2,4.12c0,.15-.05.31-.08.47s0,.32-.06.48,0,.3-.05.46,0,.31,0,.47,0,.31,0,.47c0,.52-.05,1-.05,1.58s0,1.06.05,1.58c0,.15,0,.31,0,.47s0,.32,0,.47,0,.31.05.46,0,.32.06.47.05.32.08.48A18.89,18.89,0,0,0,30,29.27,14.81,14.81,0,0,0,31.4,31.8l.31-.36c.1-.13.21-.26.3-.39A13.65,13.65,0,0,1,30.89,28.92Zm0,0A18.15,18.15,0,0,1,29.8,25.3l-.08-.47c0-.15-.05-.31-.07-.47s0-.31-.06-.46,0-.31-.05-.47l0-.46c0-.57-.06-1.15-.06-1.74s0-1.18.06-1.74l0-.47c0-.15,0-.31.05-.46s0-.31.06-.46,0-.31.07-.47l.08-.47a18.28,18.28,0,0,1,1.09-3.63A14,14,0,0,1,32,11.41c-.09-.13-.19-.26-.3-.39l-.31-.36A14.9,14.9,0,0,0,30,13.17a18.89,18.89,0,0,0-1.2,4.12c0,.15-.05.31-.08.47s0,.32-.06.48,0,.3-.05.46,0,.31,0,.47,0,.31,0,.47c0,.52-.05,1-.05,1.58s0,1.06.05,1.58c0,.15,0,.31,0,.47s0,.32,0,.47,0,.31.05.46,0,.32.06.47.05.32.08.48A18.89,18.89,0,0,0,30,29.27,14.81,14.81,0,0,0,31.4,31.8l.31-.36c.1-.13.21-.26.3-.39A13.65,13.65,0,0,1,30.89,28.92Zm0,0A18.15,18.15,0,0,1,29.8,25.3l-.08-.47c0-.15-.05-.31-.07-.47s0-.31-.06-.46,0-.31-.05-.47l0-.46c0-.57-.06-1.15-.06-1.74s0-1.18.06-1.74l0-.47c0-.15,0-.31.05-.46s0-.31.06-.46,0-.31.07-.47l.08-.47a18.28,18.28,0,0,1,1.09-3.63A14,14,0,0,1,32,11.41c-.09-.13-.19-.26-.3-.39l-.31-.36A14.9,14.9,0,0,0,30,13.17a18.89,18.89,0,0,0-1.2,4.12c0,.15-.05.31-.08.47s0,.32-.06.48,0,.3-.05.46,0,.31,0,.47,0,.31,0,.47c0,.52-.05,1-.05,1.58s0,1.06.05,1.58c0,.15,0,.31,0,.47s0,.32,0,.47,0,.31.05.46,0,.32.06.47.05.32.08.48A18.89,18.89,0,0,0,30,29.27,14.81,14.81,0,0,0,31.4,31.8l.31-.36c.1-.13.21-.26.3-.39A13.65,13.65,0,0,1,30.89,28.92Z"/><path class="cls-1" d="M32.49,9.23a12.34,12.34,0,0,0-1.69-1.5,10.65,10.65,0,0,0-6.49-2.08A11.16,11.16,0,0,0,22,5.88a7.67,7.67,0,0,0-.85.21,7.55,7.55,0,0,0-.84.28c-.26.1-.52.21-.77.34s-.56.29-.84.45-.54.34-.8.53l0,0a13.15,13.15,0,0,0-4.32,5.62A20,20,0,0,0,12,21.22a20,20,0,0,0,1.49,7.88,13.09,13.09,0,0,0,4.32,5.62l.07,0a8.79,8.79,0,0,0,.81.53,7.82,7.82,0,0,0,.84.45c.26.13.53.25.81.35a8.72,8.72,0,0,0,.84.28,8.6,8.6,0,0,0,.85.2,11.46,11.46,0,0,0,2.26.22,10.63,10.63,0,0,0,6.49-2.09,12.34,12.34,0,0,0,1.69-1.5l.17-.19v-2.1l-.13.19-.25.35-.3.38-.31.35a10.52,10.52,0,0,1-1.57,1.42,9.52,9.52,0,0,1-5.79,1.83,9.74,9.74,0,0,1-3.86-.76c-.25-.1-.5-.22-.74-.35s-.48-.27-.72-.43l-.43-.3-.25-.19c-.23-.18-.46-.37-.67-.56s-.42-.41-.62-.63a12.4,12.4,0,0,1-2.3-3.66,19,19,0,0,1-1.34-7.34,18.79,18.79,0,0,1,1.34-7.29A12.5,12.5,0,0,1,17,10.28a7.86,7.86,0,0,1,.61-.62c.21-.2.44-.4.66-.58l.28-.21.39-.27c.23-.16.47-.3.71-.43a7.89,7.89,0,0,1,.74-.36A9.6,9.6,0,0,1,24.31,7a9.45,9.45,0,0,1,5.79,1.85,10.71,10.71,0,0,1,1.56,1.42l.31.35.3.37.27.36.13.19V9.42Z"/><path class="cls-1" d="M31.06,7.37a11.13,11.13,0,0,0-6.76-2.17,11.83,11.83,0,0,0-1.67.11c-.3,0-.59.09-.88.15s-.59.14-.88.23a8.07,8.07,0,0,0-.79.27c-.3.11-.59.25-.88.39s-.58.31-.86.48a8.81,8.81,0,0,0-.79.53,13.62,13.62,0,0,0-4.47,5.81,20.56,20.56,0,0,0-1.53,8,20.56,20.56,0,0,0,1.53,8.05,13.62,13.62,0,0,0,4.47,5.81c.26.2.54.38.82.55s.57.33.86.48.58.27.88.38.55.2.83.29.58.16.88.22.58.11.88.15a12.37,12.37,0,0,0,1.6.1,11.13,11.13,0,0,0,6.76-2.17,12.18,12.18,0,0,0,1.59-1.39V32.32l-.16.19c-.1.12-.2.23-.31.34a11.42,11.42,0,0,1-1.66,1.49,10.23,10.23,0,0,1-6.22,2A10.89,10.89,0,0,1,21.45,36c-.28-.08-.56-.17-.82-.26s-.55-.22-.82-.35S19.28,35.1,19,35s-.52-.32-.78-.5l-.15-.11c-.2-.15-.4-.3-.58-.46a12.85,12.85,0,0,1-3.59-5,19.62,19.62,0,0,1-1.46-7.7,19.65,19.65,0,0,1,1.46-7.7,12.86,12.86,0,0,1,3.57-5c.2-.16.4-.32.6-.47l.13-.1A9,9,0,0,1,19,7.5a7.48,7.48,0,0,1,.75-.4c.26-.13.53-.24.8-.34s.54-.19.82-.27a11,11,0,0,1,2.92-.39,10.22,10.22,0,0,1,6.22,2,11.94,11.94,0,0,1,1.66,1.48l.3.35.16.19V8.75A12.82,12.82,0,0,0,31.06,7.37ZM16.85,11.16a8.54,8.54,0,0,1,.56-.66A8.46,8.46,0,0,1,18,9.9c.2-.18.41-.36.62-.52l.18-.14.47-.32c.23-.15.46-.29.7-.41a9.13,9.13,0,0,1,4.31-1,9,9,0,0,1,5.52,1.76,9.9,9.9,0,0,1,1.56,1.43l.27-.39.27-.37A11.18,11.18,0,0,0,30.37,8.5a10,10,0,0,0-6.06-1.94,10.25,10.25,0,0,0-3.45.57c-.26.09-.52.2-.78.31s-.51.25-.76.39-.48.28-.72.44h0l-.32.22-.39.31c-.23.19-.46.39-.68.6a12.84,12.84,0,0,0-2.92,4.35,19.37,19.37,0,0,0-1.38,7.47,19.49,19.49,0,0,0,1.38,7.51,12.56,12.56,0,0,0,2.94,4.36c.22.21.45.41.69.6l.36.28.36.25c.24.15.48.31.73.44a7.44,7.44,0,0,0,.77.38,7.09,7.09,0,0,0,.78.31,10.46,10.46,0,0,0,3.39.54A10,10,0,0,0,30.36,34a11.09,11.09,0,0,0,1.58-1.42l.31-.35L32,31.83l-.26-.4-.31.36a10,10,0,0,1-1.58,1.44A9.15,9.15,0,0,1,24.31,35,9.22,9.22,0,0,1,20,34c-.23-.12-.46-.25-.69-.4s-.35-.23-.52-.35l-.15-.11a7.1,7.1,0,0,1-.64-.53c-.21-.19-.41-.39-.61-.6s-.39-.43-.57-.66a12.08,12.08,0,0,1-1.72-3,18.48,18.48,0,0,1-1.31-7.16,18.36,18.36,0,0,1,1.31-7.11A12.2,12.2,0,0,1,16.85,11.16ZM32.53,31.11l-.27-.41L32,31c-.09.13-.19.26-.3.39l-.31.36a10,10,0,0,1-1.58,1.44A9.15,9.15,0,0,1,24.31,35,9.22,9.22,0,0,1,20,34c-.23-.12-.46-.25-.69-.4s-.35-.23-.52-.35l-.15-.11a7.1,7.1,0,0,1-.64-.53c-.21-.19-.41-.39-.61-.6s-.39-.43-.57-.66a12.08,12.08,0,0,1-1.72-3,18.48,18.48,0,0,1-1.31-7.16,18.36,18.36,0,0,1,1.31-7.11,12.2,12.2,0,0,1,1.71-2.95,8.54,8.54,0,0,1,.56-.66A8.46,8.46,0,0,1,18,9.9c.2-.18.41-.36.62-.52l.18-.14.47-.32c.23-.15.46-.29.7-.41a9.13,9.13,0,0,1,4.31-1,9,9,0,0,1,5.52,1.76,9.9,9.9,0,0,1,1.56,1.43l.27-.39.27-.37A11.18,11.18,0,0,0,30.37,8.5a10,10,0,0,0-6.06-1.94,10.25,10.25,0,0,0-3.45.57c-.26.09-.52.2-.78.31s-.51.25-.76.39-.48.28-.72.44h0l-.32.22-.39.31c-.23.19-.46.39-.68.6a12.84,12.84,0,0,0-2.92,4.35,19.37,19.37,0,0,0-1.38,7.47,19.49,19.49,0,0,0,1.38,7.51,12.56,12.56,0,0,0,2.94,4.36c.22.21.45.41.69.6l.36.28.36.25c.24.15.48.31.73.44a7.44,7.44,0,0,0,.77.38,7.09,7.09,0,0,0,.78.31,10.46,10.46,0,0,0,3.39.54A10,10,0,0,0,30.36,34a11.09,11.09,0,0,0,1.58-1.42l.31-.35q.16-.18.3-.37l.1-.13v-.41Zm0,0-.27-.41L32,31c-.09.13-.19.26-.3.39l-.31.36a10,10,0,0,1-1.58,1.44A9.15,9.15,0,0,1,24.31,35,9.22,9.22,0,0,1,20,34c-.23-.12-.46-.25-.69-.4s-.35-.23-.52-.35l-.15-.11a7.1,7.1,0,0,1-.64-.53c-.21-.19-.41-.39-.61-.6s-.39-.43-.57-.66a12.08,12.08,0,0,1-1.72-3,18.48,18.48,0,0,1-1.31-7.16,18.36,18.36,0,0,1,1.31-7.11,12.2,12.2,0,0,1,1.71-2.95,8.54,8.54,0,0,1,.56-.66A8.46,8.46,0,0,1,18,9.9c.2-.18.41-.36.62-.52l.18-.14.47-.32c.23-.15.46-.29.7-.41a9.13,9.13,0,0,1,4.31-1,9,9,0,0,1,5.52,1.76,9.9,9.9,0,0,1,1.56,1.43l.27-.39.27-.37A11.18,11.18,0,0,0,30.37,8.5a10,10,0,0,0-6.06-1.94,10.25,10.25,0,0,0-3.45.57c-.26.09-.52.2-.78.31s-.51.25-.76.39-.48.28-.72.44h0l-.32.22-.39.31c-.23.19-.46.39-.68.6a12.84,12.84,0,0,0-2.92,4.35,19.37,19.37,0,0,0-1.38,7.47,19.49,19.49,0,0,0,1.38,7.51,12.56,12.56,0,0,0,2.94,4.36c.22.21.45.41.69.6l.36.28.36.25c.24.15.48.31.73.44a7.44,7.44,0,0,0,.77.38,7.09,7.09,0,0,0,.78.31,10.46,10.46,0,0,0,3.39.54A10,10,0,0,0,30.36,34a11.09,11.09,0,0,0,1.58-1.42l.31-.35q.16-.18.3-.37l.1-.13v-.41Zm0,0-.27-.41L32,31c-.09.13-.19.26-.3.39l-.31.36a10,10,0,0,1-1.58,1.44A9.15,9.15,0,0,1,24.31,35,9.22,9.22,0,0,1,20,34c-.23-.12-.46-.25-.69-.4s-.35-.23-.52-.35l-.15-.11a7.1,7.1,0,0,1-.64-.53c-.21-.19-.41-.39-.61-.6s-.39-.43-.57-.66a12.08,12.08,0,0,1-1.72-3,18.48,18.48,0,0,1-1.31-7.16,18.36,18.36,0,0,1,1.31-7.11,12.2,12.2,0,0,1,1.71-2.95,8.54,8.54,0,0,1,.56-.66A8.46,8.46,0,0,1,18,9.9c.2-.18.41-.36.62-.52l.18-.14.47-.32c.23-.15.46-.29.7-.41a9.13,9.13,0,0,1,4.31-1,9,9,0,0,1,5.52,1.76,9.9,9.9,0,0,1,1.56,1.43l.27-.39.27-.37A11.18,11.18,0,0,0,30.37,8.5a10,10,0,0,0-6.06-1.94,10.25,10.25,0,0,0-3.45.57c-.26.09-.52.2-.78.31s-.51.25-.76.39-.48.28-.72.44h0l-.32.22-.39.31c-.23.19-.46.39-.68.6a12.84,12.84,0,0,0-2.92,4.35,19.37,19.37,0,0,0-1.38,7.47,19.49,19.49,0,0,0,1.38,7.51,12.56,12.56,0,0,0,2.94,4.36c.22.21.45.41.69.6l.36.28.36.25c.24.15.48.31.73.44a7.44,7.44,0,0,0,.77.38,7.09,7.09,0,0,0,.78.31,10.46,10.46,0,0,0,3.39.54A10,10,0,0,0,30.36,34a11.09,11.09,0,0,0,1.58-1.42l.31-.35q.16-.18.3-.37l.1-.13v-.41Zm0,0-.27-.41L32,31c-.09.13-.19.26-.3.39l-.31.36a10,10,0,0,1-1.58,1.44A9.15,9.15,0,0,1,24.31,35,9.22,9.22,0,0,1,20,34c-.23-.12-.46-.25-.69-.4s-.35-.23-.52-.35l-.15-.11a7.1,7.1,0,0,1-.64-.53c-.21-.19-.41-.39-.61-.6s-.39-.43-.57-.66a12.08,12.08,0,0,1-1.72-3,18.48,18.48,0,0,1-1.31-7.16,18.36,18.36,0,0,1,1.31-7.11,12.2,12.2,0,0,1,1.71-2.95,8.54,8.54,0,0,1,.56-.66A8.46,8.46,0,0,1,18,9.9c.2-.18.41-.36.62-.52l.18-.14.47-.32c.23-.15.46-.29.7-.41a9.13,9.13,0,0,1,4.31-1,9,9,0,0,1,5.52,1.76,9.9,9.9,0,0,1,1.56,1.43l.27-.39.27-.37A11.18,11.18,0,0,0,30.37,8.5a10,10,0,0,0-6.06-1.94,10.25,10.25,0,0,0-3.45.57c-.26.09-.52.2-.78.31s-.51.25-.76.39-.48.28-.72.44h0l-.32.22-.39.31c-.23.19-.46.39-.68.6a12.84,12.84,0,0,0-2.92,4.35,19.37,19.37,0,0,0-1.38,7.47,19.49,19.49,0,0,0,1.38,7.51,12.56,12.56,0,0,0,2.94,4.36c.22.21.45.41.69.6l.36.28.36.25c.24.15.48.31.73.44a7.44,7.44,0,0,0,.77.38,7.09,7.09,0,0,0,.78.31,10.46,10.46,0,0,0,3.39.54A10,10,0,0,0,30.36,34a11.09,11.09,0,0,0,1.58-1.42l.31-.35q.16-.18.3-.37l.1-.13v-.41Zm0,0-.27-.41L32,31c-.09.13-.19.26-.3.39l-.31.36a10,10,0,0,1-1.58,1.44A9.15,9.15,0,0,1,24.31,35,9.22,9.22,0,0,1,20,34c-.23-.12-.46-.25-.69-.4s-.35-.23-.52-.35l-.15-.11a7.1,7.1,0,0,1-.64-.53c-.21-.19-.41-.39-.61-.6s-.39-.43-.57-.66a12.08,12.08,0,0,1-1.72-3,18.48,18.48,0,0,1-1.31-7.16,18.36,18.36,0,0,1,1.31-7.11,12.2,12.2,0,0,1,1.71-2.95,8.54,8.54,0,0,1,.56-.66A8.46,8.46,0,0,1,18,9.9c.2-.18.41-.36.62-.52l.18-.14.47-.32c.23-.15.46-.29.7-.41a9.13,9.13,0,0,1,4.31-1,9,9,0,0,1,5.52,1.76,9.9,9.9,0,0,1,1.56,1.43l.27-.39.27-.37A11.18,11.18,0,0,0,30.37,8.5a10,10,0,0,0-6.06-1.94,10.25,10.25,0,0,0-3.45.57c-.26.09-.52.2-.78.31s-.51.25-.76.39-.48.28-.72.44h0l-.32.22-.39.31c-.23.19-.46.39-.68.6a12.84,12.84,0,0,0-2.92,4.35,19.37,19.37,0,0,0-1.38,7.47,19.49,19.49,0,0,0,1.38,7.51,12.56,12.56,0,0,0,2.94,4.36c.22.21.45.41.69.6l.36.28.36.25c.24.15.48.31.73.44a7.44,7.44,0,0,0,.77.38,7.09,7.09,0,0,0,.78.31,10.46,10.46,0,0,0,3.39.54A10,10,0,0,0,30.36,34a11.09,11.09,0,0,0,1.58-1.42l.31-.35q.16-.18.3-.37l.1-.13v-.41ZM16.85,11.16a8.54,8.54,0,0,1,.56-.66A8.46,8.46,0,0,1,18,9.9c.2-.18.41-.36.62-.52l.18-.14.47-.32c.23-.15.46-.29.7-.41a9.13,9.13,0,0,1,4.31-1,9,9,0,0,1,5.52,1.76,9.9,9.9,0,0,1,1.56,1.43l.31.36c.1.13.21.26.3.39s.18.25.27.38l.27-.42.13-.18v-.41l-.12-.16-.3-.36-.31-.35A11.18,11.18,0,0,0,30.37,8.5a10,10,0,0,0-6.06-1.94,10.25,10.25,0,0,0-3.45.57c-.26.09-.52.2-.78.31s-.51.25-.76.39-.48.28-.72.44h0l-.32.22-.39.31c-.23.19-.46.39-.68.6a12.84,12.84,0,0,0-2.92,4.35,19.37,19.37,0,0,0-1.38,7.47,19.49,19.49,0,0,0,1.38,7.51,12.56,12.56,0,0,0,2.94,4.36c.22.21.45.41.69.6l.36.28.36.25c.24.15.48.31.73.44a7.44,7.44,0,0,0,.77.38,7.09,7.09,0,0,0,.78.31,10.46,10.46,0,0,0,3.39.54A10,10,0,0,0,30.36,34a11.09,11.09,0,0,0,1.58-1.42l.31-.35q.16-.18.3-.37l.1-.13v-.41l-.13-.18-.27-.41L32,31c-.09.13-.19.26-.3.39l-.31.36a10,10,0,0,1-1.58,1.44A9.15,9.15,0,0,1,24.31,35,9.22,9.22,0,0,1,20,34c-.23-.12-.46-.25-.69-.4s-.35-.23-.52-.35l-.15-.11a7.1,7.1,0,0,1-.64-.53c-.21-.19-.41-.39-.61-.6s-.39-.43-.57-.66a12.08,12.08,0,0,1-1.72-3,18.48,18.48,0,0,1-1.31-7.16,18.36,18.36,0,0,1,1.31-7.11A12.2,12.2,0,0,1,16.85,11.16Zm15.68-.54-.3-.36-.31-.35A11.18,11.18,0,0,0,30.37,8.5a10,10,0,0,0-6.06-1.94,10.25,10.25,0,0,0-3.45.57c-.26.09-.52.2-.78.31s-.51.25-.76.39-.48.28-.72.44h0l-.32.22-.39.31c-.23.19-.46.39-.68.6a12.84,12.84,0,0,0-2.92,4.35,19.37,19.37,0,0,0-1.38,7.47,19.49,19.49,0,0,0,1.38,7.51,12.56,12.56,0,0,0,2.94,4.36c.22.21.45.41.69.6l.36.28.36.25c.24.15.48.31.73.44a7.44,7.44,0,0,0,.77.38,7.09,7.09,0,0,0,.78.31,10.46,10.46,0,0,0,3.39.54A10,10,0,0,0,30.36,34a11.09,11.09,0,0,0,1.58-1.42l.31-.35q.16-.18.3-.37l.1-.13V30.07l-.12.2c-.09.15-.18.29-.28.43L32,31c-.09.13-.19.26-.3.39l-.31.36a10,10,0,0,1-1.58,1.44A9.15,9.15,0,0,1,24.31,35,9.22,9.22,0,0,1,20,34c-.23-.12-.46-.25-.69-.4s-.35-.23-.52-.35l-.15-.11a7.1,7.1,0,0,1-.64-.53c-.21-.19-.41-.39-.61-.6s-.39-.43-.57-.66a12.08,12.08,0,0,1-1.72-3,18.48,18.48,0,0,1-1.31-7.16,18.36,18.36,0,0,1,1.31-7.11,12.2,12.2,0,0,1,1.71-2.95,8.54,8.54,0,0,1,.56-.66A8.46,8.46,0,0,1,18,9.9c.2-.18.41-.36.62-.52l.18-.14.47-.32c.23-.15.46-.29.7-.41a9.13,9.13,0,0,1,4.31-1,9,9,0,0,1,5.52,1.76,9.9,9.9,0,0,1,1.56,1.43l.31.36c.1.13.21.26.3.39s.18.25.27.38l.28.42.12.2V10.78Zm0,0-.3-.36-.31-.35A11.18,11.18,0,0,0,30.37,8.5a10,10,0,0,0-6.06-1.94,10.25,10.25,0,0,0-3.45.57c-.26.09-.52.2-.78.31s-.51.25-.76.39-.48.28-.72.44h0l-.32.22-.39.31c-.23.19-.46.39-.68.6a12.84,12.84,0,0,0-2.92,4.35,19.37,19.37,0,0,0-1.38,7.47,19.49,19.49,0,0,0,1.38,7.51,12.56,12.56,0,0,0,2.94,4.36c.22.21.45.41.69.6l.36.28.36.25c.24.15.48.31.73.44a7.44,7.44,0,0,0,.77.38,7.09,7.09,0,0,0,.78.31,10.46,10.46,0,0,0,3.39.54A10,10,0,0,0,30.36,34a11.09,11.09,0,0,0,1.58-1.42l.31-.35q.16-.18.3-.37l.1-.13V30.07l-.12.2c-.09.15-.18.29-.28.43L32,31c-.09.13-.19.26-.3.39l-.31.36a10,10,0,0,1-1.58,1.44A9.15,9.15,0,0,1,24.31,35,9.22,9.22,0,0,1,20,34c-.23-.12-.46-.25-.69-.4s-.35-.23-.52-.35l-.15-.11a7.1,7.1,0,0,1-.64-.53c-.21-.19-.41-.39-.61-.6s-.39-.43-.57-.66a12.08,12.08,0,0,1-1.72-3,18.48,18.48,0,0,1-1.31-7.16,18.36,18.36,0,0,1,1.31-7.11,12.2,12.2,0,0,1,1.71-2.95,8.54,8.54,0,0,1,.56-.66A8.46,8.46,0,0,1,18,9.9c.2-.18.41-.36.62-.52l.18-.14.47-.32c.23-.15.46-.29.7-.41a9.13,9.13,0,0,1,4.31-1,9,9,0,0,1,5.52,1.76,9.9,9.9,0,0,1,1.56,1.43l.31.36c.1.13.21.26.3.39s.18.25.27.38l.28.42.12.2V10.78Zm0,0-.3-.36-.31-.35A11.18,11.18,0,0,0,30.37,8.5a10,10,0,0,0-6.06-1.94,10.25,10.25,0,0,0-3.45.57c-.26.09-.52.2-.78.31s-.51.25-.76.39-.48.28-.72.44h0l-.32.22-.39.31c-.23.19-.46.39-.68.6a12.84,12.84,0,0,0-2.92,4.35,19.37,19.37,0,0,0-1.38,7.47,19.49,19.49,0,0,0,1.38,7.51,12.56,12.56,0,0,0,2.94,4.36c.22.21.45.41.69.6l.36.28.36.25c.24.15.48.31.73.44a7.44,7.44,0,0,0,.77.38,7.09,7.09,0,0,0,.78.31,10.46,10.46,0,0,0,3.39.54A10,10,0,0,0,30.36,34a11.09,11.09,0,0,0,1.58-1.42l.31-.35q.16-.18.3-.37l.1-.13V30.07l-.12.2c-.09.15-.18.29-.28.43L32,31c-.09.13-.19.26-.3.39l-.31.36a10,10,0,0,1-1.58,1.44A9.15,9.15,0,0,1,24.31,35,9.22,9.22,0,0,1,20,34c-.23-.12-.46-.25-.69-.4s-.35-.23-.52-.35l-.15-.11a7.1,7.1,0,0,1-.64-.53c-.21-.19-.41-.39-.61-.6s-.39-.43-.57-.66a12.08,12.08,0,0,1-1.72-3,18.48,18.48,0,0,1-1.31-7.16,18.36,18.36,0,0,1,1.31-7.11,12.2,12.2,0,0,1,1.71-2.95,8.54,8.54,0,0,1,.56-.66A8.46,8.46,0,0,1,18,9.9c.2-.18.41-.36.62-.52l.18-.14.47-.32c.23-.15.46-.29.7-.41a9.13,9.13,0,0,1,4.31-1,9,9,0,0,1,5.52,1.76,9.9,9.9,0,0,1,1.56,1.43l.31.36c.1.13.21.26.3.39s.18.25.27.38l.28.42.12.2V10.78Z"/><circle class="cls-1" cx="3.49" cy="21.22" r="3.49"/><path class="cls-1" d="M24.89,1.94a13.11,13.11,0,0,0-5.61,4.3l-.08.11c-.19.26-.37.54-.53.81s-.31.55-.45.84-.24.53-.34.8a8.88,8.88,0,0,0-.28.85c-.08.28-.15.56-.2.85a11.47,11.47,0,0,0-.21,2.23,10.67,10.67,0,0,0,2.08,6.48,12.37,12.37,0,0,0,1.51,1.69l.34.31.36.3.33.26.37.27.4.27a15.11,15.11,0,0,0,2.32,1.23,18.18,18.18,0,0,0,3.87,1.14l.47.08.47.07.46.06.47.05.47,0q.76,0,1.54.05V23.67c-.6,0-1.18,0-1.74-.08l-.46,0L30,23.49l-.46-.06-.47-.08-.46-.09a16.51,16.51,0,0,1-3.12-.94,13.65,13.65,0,0,1-1.71-.86l-.43-.26-.41-.28-.35-.26-.37-.3-.35-.31a10.78,10.78,0,0,1-1.44-1.58,9.4,9.4,0,0,1-1.85-5.75,9.83,9.83,0,0,1,.73-3.82c.1-.26.22-.51.35-.75a8.31,8.31,0,0,1,.42-.72c.11-.17.22-.34.35-.5l.14-.18c.18-.23.36-.45.56-.66s.41-.43.63-.63a12.29,12.29,0,0,1,3.73-2.33,19.09,19.09,0,0,1,7.16-1.31V.46A20,20,0,0,0,24.89,1.94Z"/><path class="cls-1" d="M28.61,23.27c0-.15,0-.31,0-.47a15.66,15.66,0,0,1-2.91-.89,12.77,12.77,0,0,1-1.44-.7l-.45.26-.43-.26a5,5,0,0,0-.41.27l.41.27a14.4,14.4,0,0,0,2,1,17.12,17.12,0,0,0,3.34,1C28.63,23.58,28.62,23.42,28.61,23.27Zm0,0c0-.15,0-.31,0-.47a15.66,15.66,0,0,1-2.91-.89,12.77,12.77,0,0,1-1.44-.7l-.45.26-.43-.26a5,5,0,0,0-.41.27l.41.27a14.4,14.4,0,0,0,2,1,17.12,17.12,0,0,0,3.34,1C28.63,23.58,28.62,23.42,28.61,23.27Zm0,0c0-.15,0-.31,0-.47a15.66,15.66,0,0,1-2.91-.89,12.77,12.77,0,0,1-1.44-.7l-.45.26-.43-.26a5,5,0,0,0-.41.27l.41.27a14.4,14.4,0,0,0,2,1,17.12,17.12,0,0,0,3.34,1C28.63,23.58,28.62,23.42,28.61,23.27ZM28.54.38a18.49,18.49,0,0,0-3.82,1.14A13.63,13.63,0,0,0,18.92,6a9.47,9.47,0,0,0-.57.87c-.17.28-.33.57-.47.86a9.23,9.23,0,0,0-.38.87c-.1.27-.2.55-.28.83a8.23,8.23,0,0,0-.21.87c-.06.29-.11.58-.15.88a11.84,11.84,0,0,0-.1,1.57,11.15,11.15,0,0,0,2.17,6.75,12.62,12.62,0,0,0,1.53,1.73l.34.31.35.3.33.26.37.27.39.26A14.61,14.61,0,0,0,24.73,24a18.88,18.88,0,0,0,4.12,1.2l.48.08.47.06.46.05.47,0,.47,0c.48,0,1,0,1.46.05v-.91c-.55,0-1.09,0-1.62-.06l-.46,0-.47-.05-.46-.06-.47-.07-.47-.08a18.11,18.11,0,0,1-3.63-1.09A13.84,13.84,0,0,1,23,22l-.4-.26-.39-.27-.33-.26-.36-.31-.34-.3a11.73,11.73,0,0,1-1.49-1.67,10.24,10.24,0,0,1-2-6.21A11.06,11.06,0,0,1,18,9.9c.07-.28.16-.55.25-.82s.21-.54.33-.8h0c.13-.26.26-.52.41-.77s.32-.53.51-.79l.14-.2c.14-.19.28-.37.43-.55a12.82,12.82,0,0,1,5-3.61A19.69,19.69,0,0,1,32.65.91V0A23.09,23.09,0,0,0,28.54.38ZM25.66,21.9a12.77,12.77,0,0,1-1.44-.7l-.45.26-.43-.26-.41-.28-.35-.26-.38.28.34.26.39.28.41.27a14.4,14.4,0,0,0,2,1,17.12,17.12,0,0,0,3.34,1c0-.15,0-.31,0-.47s0-.31,0-.47A15.66,15.66,0,0,1,25.66,21.9Zm2.94,1.36c0-.15,0-.31,0-.47a15.66,15.66,0,0,1-2.91-.89,12.77,12.77,0,0,1-1.44-.7l-.45.26-.43-.26a5,5,0,0,0-.41.27l.41.27a14.4,14.4,0,0,0,2,1,17.12,17.12,0,0,0,3.34,1C28.63,23.58,28.62,23.42,28.61,23.27Zm0,0c0-.15,0-.31,0-.47a15.66,15.66,0,0,1-2.91-.89,12.77,12.77,0,0,1-1.44-.7l-.45.26-.43-.26a5,5,0,0,0-.41.27l.41.27a14.4,14.4,0,0,0,2,1,17.12,17.12,0,0,0,3.34,1C28.63,23.58,28.62,23.42,28.61,23.27ZM25.32,2.71a12.51,12.51,0,0,0-4.44,3c-.21.22-.41.45-.59.68l-.23.3c-.1.14-.21.28-.3.43a7.07,7.07,0,0,0-.44.73,8.44,8.44,0,0,0-.37.77,8.06,8.06,0,0,0-.3.78,10.51,10.51,0,0,0-.53,3.36,9.9,9.9,0,0,0,1.94,6,10.73,10.73,0,0,0,1.43,1.59l.35.31.37.3.34.26.39.28.41.27a14.4,14.4,0,0,0,2,1,17.12,17.12,0,0,0,3.34,1l.46.09.47.07L30,24l.46.05L31,24c.55,0,1.11.07,1.69.07v-.91c-.61,0-1.2,0-1.79-.08l-.46,0L29.95,23,29.49,23,29,22.89l-.46-.09a15.66,15.66,0,0,1-2.91-.89,12.77,12.77,0,0,1-1.44-.7l-.45-.26-.42-.28L23,20.4l-.39-.3-.36-.31a10.39,10.39,0,0,1-1.45-1.59A9,9,0,0,1,19,12.73a9.23,9.23,0,0,1,1-4.24,7.91,7.91,0,0,1,.39-.69c.12-.2.26-.4.4-.59l.06-.08a7.9,7.9,0,0,1,.53-.64c.19-.21.38-.41.59-.61a8,8,0,0,1,.66-.58,12.13,12.13,0,0,1,3-1.75,18.7,18.7,0,0,1,7-1.28V1.36A19.65,19.65,0,0,0,25.32,2.71Zm0,0a12.51,12.51,0,0,0-4.44,3c-.21.22-.41.45-.59.68l-.23.3c-.1.14-.21.28-.3.43a7.07,7.07,0,0,0-.44.73,8.44,8.44,0,0,0-.37.77,8.06,8.06,0,0,0-.3.78,10.51,10.51,0,0,0-.53,3.36,9.9,9.9,0,0,0,1.94,6,10.73,10.73,0,0,0,1.43,1.59l.35.31.37.3.34.26.39.28.41.27a14.4,14.4,0,0,0,2,1,17.12,17.12,0,0,0,3.34,1l.46.09.47.07L30,24l.46.05L31,24c.55,0,1.11.07,1.69.07v-.91c-.61,0-1.2,0-1.79-.08l-.46,0L29.95,23,29.49,23,29,22.89l-.46-.09a15.66,15.66,0,0,1-2.91-.89,12.77,12.77,0,0,1-1.44-.7l-.45-.26-.42-.28L23,20.4l-.39-.3-.36-.31a10.39,10.39,0,0,1-1.45-1.59A9,9,0,0,1,19,12.73a9.23,9.23,0,0,1,1-4.24,7.91,7.91,0,0,1,.39-.69c.12-.2.26-.4.4-.59l.06-.08a7.9,7.9,0,0,1,.53-.64c.19-.21.38-.41.59-.61a8,8,0,0,1,.66-.58,12.13,12.13,0,0,1,3-1.75,18.7,18.7,0,0,1,7-1.28V1.36A19.65,19.65,0,0,0,25.32,2.71Zm0,0a12.51,12.51,0,0,0-4.44,3c-.21.22-.41.45-.59.68l-.23.3c-.1.14-.21.28-.3.43a7.07,7.07,0,0,0-.44.73,8.44,8.44,0,0,0-.37.77,8.06,8.06,0,0,0-.3.78,10.51,10.51,0,0,0-.53,3.36,9.9,9.9,0,0,0,1.94,6,10.73,10.73,0,0,0,1.43,1.59l.35.31.37.3.34.26.39.28.41.27a14.4,14.4,0,0,0,2,1,17.12,17.12,0,0,0,3.34,1l.46.09.47.07L30,24l.46.05L31,24c.55,0,1.11.07,1.69.07v-.91c-.61,0-1.2,0-1.79-.08l-.46,0L29.95,23,29.49,23,29,22.89l-.46-.09a15.66,15.66,0,0,1-2.91-.89,12.77,12.77,0,0,1-1.44-.7l-.45-.26-.42-.28L23,20.4l-.39-.3-.36-.31a10.39,10.39,0,0,1-1.45-1.59A9,9,0,0,1,19,12.73a9.23,9.23,0,0,1,1-4.24,7.91,7.91,0,0,1,.39-.69c.12-.2.26-.4.4-.59l.06-.08a7.9,7.9,0,0,1,.53-.64c.19-.21.38-.41.59-.61a8,8,0,0,1,.66-.58,12.13,12.13,0,0,1,3-1.75,18.7,18.7,0,0,1,7-1.28V1.36A19.65,19.65,0,0,0,25.32,2.71Z"/><path class="cls-1" d="M31.11,17.47l-.46,0-.47.05-.46.06-.47.06-.48.08a18.18,18.18,0,0,0-3.88,1.14,14.52,14.52,0,0,0-2.29,1.2l-.39.26-.38.27-.35.27-.35.3-.34.31a12.07,12.07,0,0,0-1.51,1.69,10.64,10.64,0,0,0-2.08,6.49,11.48,11.48,0,0,0,.22,2.3c.05.29.13.57.21.85s.18.57.29.85.21.51.33.77.29.56.45.83.34.55.53.82l.05.07A13.18,13.18,0,0,0,24.9,40.5,20,20,0,0,0,32.65,42V40.63a18.65,18.65,0,0,1-7.16-1.34A12.44,12.44,0,0,1,21.82,37c-.22-.2-.43-.41-.63-.62s-.39-.44-.57-.66l-.2-.26c-.1-.14-.2-.27-.28-.41a7.21,7.21,0,0,1-.43-.71,6.9,6.9,0,0,1-.36-.74,9.63,9.63,0,0,1-.77-3.89,9.47,9.47,0,0,1,1.85-5.79,10.68,10.68,0,0,1,1.42-1.56l.35-.31.38-.3.37-.27a5,5,0,0,1,.41-.27l.43-.26a13,13,0,0,1,1.71-.84,16.49,16.49,0,0,1,3.12-.93l.46-.08.47-.08.46-.06.46-.05.46,0c.56,0,1.14-.07,1.74-.07V17.42C32.13,17.42,31.62,17.44,31.11,17.47Z"/><path class="cls-1" d="M31,18.39l-.46,0-.46.05-.46.06-.47.07-.46.08a17.38,17.38,0,0,0-3.33,1,13.39,13.39,0,0,0-2,1l-.42.26-.39.27-.36.27-.36.3-.35.31a10.68,10.68,0,0,0-1.41,1.56,10,10,0,0,0-1.94,6.06,10.34,10.34,0,0,0,.56,3.43,8.06,8.06,0,0,0,.31.77,7.92,7.92,0,0,0,.38.76c.13.24.28.47.43.71l.25.36.29.37c.19.24.39.46.6.68a12.81,12.81,0,0,0,4.37,2.93,19.23,19.23,0,0,0,7.34,1.38v-.91a18.3,18.3,0,0,1-7-1.31,12.47,12.47,0,0,1-3-1.72c-.23-.18-.45-.37-.66-.56s-.41-.4-.6-.61-.36-.41-.53-.63l-.13-.16c-.12-.16-.24-.33-.35-.5s-.28-.46-.41-.69a9.2,9.2,0,0,1-1-4.29,9,9,0,0,1,1.76-5.52,9.94,9.94,0,0,1,1.43-1.57l.36-.3L23,22l.38-.26c.14-.1.28-.19.43-.28l.45-.26a12.28,12.28,0,0,1,1.43-.69,16.51,16.51,0,0,1,2.91-.87l.46-.09.46-.07.46-.06.46-.05.46,0c.58,0,1.18-.07,1.78-.08v-.91Q31.79,18.33,31,18.39Zm-5.66,1.28a13.39,13.39,0,0,0-2,1l-.42.26-.39.27-.36.27.39.27.37-.27a5,5,0,0,1,.41-.27l.43.26.45-.26a12.28,12.28,0,0,1,1.43-.69,16.51,16.51,0,0,1,2.91-.87c0-.16,0-.31,0-.47s0-.31,0-.47A17.38,17.38,0,0,0,25.32,19.67Zm0,0a13.39,13.39,0,0,0-2,1l-.42.26-.39.27-.36.27.39.27.37-.27a5,5,0,0,1,.41-.27l.43.26.45-.26a12.28,12.28,0,0,1,1.43-.69,16.51,16.51,0,0,1,2.91-.87c0-.16,0-.31,0-.47s0-.31,0-.47A17.38,17.38,0,0,0,25.32,19.67Zm0,0a13.39,13.39,0,0,0-2,1l-.42.26-.39.27-.36.27.39.27.37-.27a5,5,0,0,1,.41-.27l.43.26.45-.26a12.28,12.28,0,0,1,1.43-.69,16.51,16.51,0,0,1,2.91-.87c0-.16,0-.31,0-.47s0-.31,0-.47A17.38,17.38,0,0,0,25.32,19.67ZM31.21,17l-.47,0-.47,0-.46.05-.47.06-.48.08-.31.05a18.49,18.49,0,0,0-3.82,1.14,14.87,14.87,0,0,0-2.47,1.32l-.38.26-.37.27-.34.27-.35.3-.34.31a12.85,12.85,0,0,0-1.53,1.73,11.13,11.13,0,0,0-2.17,6.75,12.11,12.11,0,0,0,.11,1.64c0,.3.09.59.16.88s.14.59.22.87.17.54.28.8.24.59.38.87a8.57,8.57,0,0,0,.48.87c.17.28.35.55.55.82a13.66,13.66,0,0,0,5.81,4.47,20.49,20.49,0,0,0,7.93,1.53v-.91a19.57,19.57,0,0,1-7.57-1.46,12.91,12.91,0,0,1-5-3.59c-.16-.19-.31-.38-.46-.58l-.11-.16A8.5,8.5,0,0,1,19,35c-.14-.24-.27-.49-.39-.74s-.24-.53-.34-.81a8.62,8.62,0,0,1-.27-.82,10.92,10.92,0,0,1-.38-2.9,10.22,10.22,0,0,1,2-6.22,11.91,11.91,0,0,1,1.48-1.66l.35-.3c.12-.1.24-.2.36-.3a3.35,3.35,0,0,1,.36-.27l.38-.28L23,20.4a14.46,14.46,0,0,1,2.08-1.08,17.89,17.89,0,0,1,3.63-1.08l.47-.09.47-.07L30.1,18l.47-.05.46,0c.53,0,1.07-.06,1.62-.06V17C32.16,17,31.68,17,31.21,17Zm-8.27,3.91.41.28.43.26.45-.26a12.28,12.28,0,0,1,1.43-.69,16.51,16.51,0,0,1,2.91-.87c0-.16,0-.31,0-.47s0-.31,0-.47a17.38,17.38,0,0,0-3.33,1,13.39,13.39,0,0,0-2,1Zm2.38-1.25a13.39,13.39,0,0,0-2,1l-.42.26-.39.27-.36.27.39.27.37-.27a5,5,0,0,1,.41-.27l.43.26.45-.26a12.28,12.28,0,0,1,1.43-.69,16.51,16.51,0,0,1,2.91-.87c0-.16,0-.31,0-.47s0-.31,0-.47A17.38,17.38,0,0,0,25.32,19.67Zm0,0a13.39,13.39,0,0,0-2,1l-.42.26-.39.27-.36.27.39.27.37-.27a5,5,0,0,1,.41-.27l.43.26.45-.26a12.28,12.28,0,0,1,1.43-.69,16.51,16.51,0,0,1,2.91-.87c0-.16,0-.31,0-.47s0-.31,0-.47A17.38,17.38,0,0,0,25.32,19.67ZM31,18.39l-.46,0-.46.05-.46.06-.47.07-.46.08a17.38,17.38,0,0,0-3.33,1,13.39,13.39,0,0,0-2,1l-.42.26-.39.27-.36.27-.36.3-.35.31a10.68,10.68,0,0,0-1.41,1.56,10,10,0,0,0-1.94,6.06,10.34,10.34,0,0,0,.56,3.43,8.06,8.06,0,0,0,.31.77,7.92,7.92,0,0,0,.38.76c.13.24.28.47.43.71l.25.36.29.37c.19.24.39.46.6.68a12.81,12.81,0,0,0,4.37,2.93,19.23,19.23,0,0,0,7.34,1.38v-.91a18.3,18.3,0,0,1-7-1.31,12.47,12.47,0,0,1-3-1.72c-.23-.18-.45-.37-.66-.56s-.41-.4-.6-.61-.36-.41-.53-.63l-.13-.16c-.12-.16-.24-.33-.35-.5s-.28-.46-.41-.69a9.2,9.2,0,0,1-1-4.29,9,9,0,0,1,1.76-5.52,9.94,9.94,0,0,1,1.43-1.57l.36-.3L23,22l.38-.26c.14-.1.28-.19.43-.28l.45-.26a12.28,12.28,0,0,1,1.43-.69,16.51,16.51,0,0,1,2.91-.87l.46-.09.46-.07.46-.06.46-.05.46,0c.58,0,1.18-.07,1.78-.08v-.91Q31.79,18.33,31,18.39Zm0,0-.46,0-.46.05-.46.06-.47.07-.46.08a17.38,17.38,0,0,0-3.33,1,13.39,13.39,0,0,0-2,1l-.42.26-.39.27-.36.27-.36.3-.35.31a10.68,10.68,0,0,0-1.41,1.56,10,10,0,0,0-1.94,6.06,10.34,10.34,0,0,0,.56,3.43,8.06,8.06,0,0,0,.31.77,7.92,7.92,0,0,0,.38.76c.13.24.28.47.43.71l.25.36.29.37c.19.24.39.46.6.68a12.81,12.81,0,0,0,4.37,2.93,19.23,19.23,0,0,0,7.34,1.38v-.91a18.3,18.3,0,0,1-7-1.31,12.47,12.47,0,0,1-3-1.72c-.23-.18-.45-.37-.66-.56s-.41-.4-.6-.61-.36-.41-.53-.63l-.13-.16c-.12-.16-.24-.33-.35-.5s-.28-.46-.41-.69a9.2,9.2,0,0,1-1-4.29,9,9,0,0,1,1.76-5.52,9.94,9.94,0,0,1,1.43-1.57l.36-.3L23,22l.38-.26c.14-.1.28-.19.43-.28l.45-.26a12.28,12.28,0,0,1,1.43-.69,16.51,16.51,0,0,1,2.91-.87l.46-.09.46-.07.46-.06.46-.05.46,0c.58,0,1.18-.07,1.78-.08v-.91Q31.79,18.33,31,18.39Z"/></svg>