<svg id="Capa_1" data-name="Capa 1" xmlns="http://www.w3.org/2000/svg" viewBox="0 0 28.11 15.65"><defs><style>.cls-1{fill:#fff;}</style></defs><title>PARES</title><path class="cls-1" d="M9.39.05a3.33,3.33,0,0,1,0,6.55,4.4,4.4,0,0,1-.57.06,3.63,3.63,0,0,1-.59-.05,3.75,3.75,0,0,1-.58-.15,4.63,4.63,0,0,1-.51-.25A3.33,3.33,0,0,1,9.39.05"/><path class="cls-1" d="M6.67,15.52A8.55,8.55,0,0,1,0,9.69,5.43,5.43,0,0,1,2.82,7.57a9.25,9.25,0,0,1,1.62-.42.42.42,0,0,1,.35.11h0A5.64,5.64,0,0,0,11.24,8.4h0a.42.42,0,0,1,.37,0A9.25,9.25,0,0,1,13,9.36a5.46,5.46,0,0,1,1.93,3,8.55,8.55,0,0,1-8.25,3.19"/><path class="cls-1" d="M22.57,2.75A3.32,3.32,0,0,1,21,6.21a4.59,4.59,0,0,1-.51.25,3.73,3.73,0,0,1-.58.15,3.64,3.64,0,0,1-.59.05,4.45,4.45,0,0,1-.57-.06,3.33,3.33,0,1,1,3.86-3.85"/><path class="cls-1" d="M13.19,12.32a5.46,5.46,0,0,1,1.93-3,9.21,9.21,0,0,1,1.38-.95.42.42,0,0,1,.37,0h0a5.64,5.64,0,0,0,6.45-1.14h0a.42.42,0,0,1,.35-.11,9.22,9.22,0,0,1,1.62.42,5.43,5.43,0,0,1,2.82,2.13,8.56,8.56,0,0,1-14.92,2.63"/></svg>