<svg id="Capa_1" data-name="Capa 1" xmlns="http://www.w3.org/2000/svg" viewBox="0 0 180.01 40.79"><defs><style>.cls-1{font-size:14.32px;fill:gray;font-family:ProximaNovaA-Regular, Proxima Nova Alt;}.cls-2{fill:#e84d5c;}.cls-3{fill:#fff;}.cls-4{fill:#00cec5;}</style></defs><title>POWERED</title><text class="cls-1" transform="translate(58.48 24.93)">Powered by SOOM</text><path class="cls-2" d="M40.79,20.4A20.39,20.39,0,1,1,35.14,6.31,20.39,20.39,0,0,1,40.79,20.4"/><path class="cls-3" d="M16.43,27.87a5.19,5.19,0,0,1-3.15-1,6.35,6.35,0,0,1-2.08-2.7,9.62,9.62,0,0,1-.71-3.76,9.63,9.63,0,0,1,.71-3.76,6.37,6.37,0,0,1,2.08-2.7,5.41,5.41,0,0,1,6.3,0,6.37,6.37,0,0,1,2.09,2.71,9.61,9.61,0,0,1,.71,3.76,9.6,9.6,0,0,1-.71,3.76,6.36,6.36,0,0,1-2.09,2.71,5.2,5.2,0,0,1-3.15,1M11.59,24a5.94,5.94,0,0,0,1.94,2.53,5,5,0,0,0,5.8,0A6,6,0,0,0,21.28,24,9.2,9.2,0,0,0,22,20.4a9.19,9.19,0,0,0-.68-3.59,6,6,0,0,0-1.95-2.53,5,5,0,0,0-5.8,0,5.94,5.94,0,0,0-1.94,2.53,9.23,9.23,0,0,0-.68,3.6,9.22,9.22,0,0,0,.68,3.6m4.84,3.24a4.65,4.65,0,0,1-2.83-.9,5.65,5.65,0,0,1-1.85-2.45,9.16,9.16,0,0,1-.63-3.48,9.23,9.23,0,0,1,.63-3.5,5.59,5.59,0,0,1,1.85-2.44,4.89,4.89,0,0,1,5.64,0,5.67,5.67,0,0,1,1.86,2.44,9.08,9.08,0,0,1,.64,3.5,9,9,0,0,1-.64,3.48,5.74,5.74,0,0,1-1.86,2.45,4.62,4.62,0,0,1-2.81.9m0-13.26a4.26,4.26,0,0,0-2.58.81,5.15,5.15,0,0,0-1.71,2.26,8.81,8.81,0,0,0-.6,3.34,8.74,8.74,0,0,0,.6,3.32A5.22,5.22,0,0,0,13.86,26,4.42,4.42,0,0,0,19,26a5.32,5.32,0,0,0,1.72-2.27,8.58,8.58,0,0,0,.61-3.32,8.64,8.64,0,0,0-.61-3.34A5.25,5.25,0,0,0,19,14.79,4.23,4.23,0,0,0,16.43,14"/><path class="cls-3" d="M24.35,27.87a5.19,5.19,0,0,1-3.15-1,6.36,6.36,0,0,1-2.08-2.7,9.66,9.66,0,0,1-.71-3.76,9.67,9.67,0,0,1,.71-3.76,6.38,6.38,0,0,1,2.08-2.7,5.41,5.41,0,0,1,6.3,0,6.38,6.38,0,0,1,2.09,2.71,9.61,9.61,0,0,1,.71,3.76,9.6,9.6,0,0,1-.71,3.76,6.37,6.37,0,0,1-2.09,2.71,5.2,5.2,0,0,1-3.15,1M19.51,24a5.94,5.94,0,0,0,1.94,2.53,5,5,0,0,0,5.8,0A6,6,0,0,0,29.19,24a9.18,9.18,0,0,0,.68-3.59,9.18,9.18,0,0,0-.68-3.59,6,6,0,0,0-1.95-2.53,5,5,0,0,0-5.8,0,6,6,0,0,0-1.94,2.53,9.21,9.21,0,0,0-.68,3.6,9.2,9.2,0,0,0,.68,3.6m4.84,3.24a4.65,4.65,0,0,1-2.83-.9,5.64,5.64,0,0,1-1.85-2.45A9.16,9.16,0,0,1,19,20.4a9.23,9.23,0,0,1,.63-3.5,5.58,5.58,0,0,1,1.85-2.44,4.89,4.89,0,0,1,5.64,0A5.67,5.67,0,0,1,29,16.89a9.06,9.06,0,0,1,.64,3.5A9,9,0,0,1,29,23.88a5.73,5.73,0,0,1-1.86,2.45,4.62,4.62,0,0,1-2.81.9m0-13.26a4.26,4.26,0,0,0-2.58.81,5.15,5.15,0,0,0-1.71,2.26,8.83,8.83,0,0,0-.6,3.34,8.76,8.76,0,0,0,.6,3.32A5.23,5.23,0,0,0,21.77,26a4.42,4.42,0,0,0,5.13,0,5.31,5.31,0,0,0,1.72-2.27,8.58,8.58,0,0,0,.61-3.32,8.64,8.64,0,0,0-.61-3.34,5.24,5.24,0,0,0-1.72-2.26A4.23,4.23,0,0,0,24.35,14"/><path class="cls-3" d="M8.36,20.4a1.63,1.63,0,1,1-1.63-1.63A1.63,1.63,0,0,1,8.36,20.4"/><path class="cls-3" d="M35.69,20.4a1.63,1.63,0,1,1-1.63-1.63,1.63,1.63,0,0,1,1.63,1.63"/><path class="cls-3" d="M27.87,24.36a5.19,5.19,0,0,1-1,3.15,6.35,6.35,0,0,1-2.7,2.08,9.64,9.64,0,0,1-3.76.71,9.65,9.65,0,0,1-3.76-.71,6.36,6.36,0,0,1-2.7-2.08,5.41,5.41,0,0,1,0-6.3,6.37,6.37,0,0,1,2.71-2.09,9.6,9.6,0,0,1,3.76-.71,9.6,9.6,0,0,1,3.76.71,6.37,6.37,0,0,1,2.71,2.09,5.2,5.2,0,0,1,1,3.15M24,29.2a6,6,0,0,0,2.53-1.94,5,5,0,0,0,0-5.8A6,6,0,0,0,24,19.51a9.2,9.2,0,0,0-3.59-.68,9.2,9.2,0,0,0-3.59.68,6,6,0,0,0-2.53,1.95,5,5,0,0,0,0,5.8A6,6,0,0,0,16.8,29.2a9.24,9.24,0,0,0,3.6.68A9.24,9.24,0,0,0,24,29.2m3.24-4.84a4.64,4.64,0,0,1-.9,2.83A5.64,5.64,0,0,1,23.88,29a9.16,9.16,0,0,1-3.48.63,9.23,9.23,0,0,1-3.5-.63,5.57,5.57,0,0,1-2.44-1.85,4.89,4.89,0,0,1,0-5.64,5.67,5.67,0,0,1,2.44-1.86,9.05,9.05,0,0,1,3.5-.64,9,9,0,0,1,3.48.64,5.74,5.74,0,0,1,2.45,1.86,4.62,4.62,0,0,1,.9,2.81M14,24.36a4.26,4.26,0,0,0,.81,2.58,5.16,5.16,0,0,0,2.26,1.71,8.8,8.8,0,0,0,3.34.6,8.75,8.75,0,0,0,3.32-.6A5.22,5.22,0,0,0,26,26.93a4.42,4.42,0,0,0,0-5.13,5.31,5.31,0,0,0-2.27-1.72,8.56,8.56,0,0,0-3.32-.61,8.63,8.63,0,0,0-3.34.61,5.24,5.24,0,0,0-2.26,1.72A4.24,4.24,0,0,0,14,24.36"/><path class="cls-4" d="M27.87,16.44a5.19,5.19,0,0,1-1,3.15,6.35,6.35,0,0,1-2.7,2.08,9.64,9.64,0,0,1-3.76.71,9.65,9.65,0,0,1-3.76-.71,6.36,6.36,0,0,1-2.7-2.08,5.41,5.41,0,0,1,0-6.3,6.37,6.37,0,0,1,2.71-2.09,9.6,9.6,0,0,1,3.76-.71,9.6,9.6,0,0,1,3.76.71,6.36,6.36,0,0,1,2.71,2.09,5.2,5.2,0,0,1,1,3.15M24,21.28a6,6,0,0,0,2.53-1.94,5,5,0,0,0,0-5.8A6,6,0,0,0,24,11.6a9.2,9.2,0,0,0-3.59-.68,9.2,9.2,0,0,0-3.59.68,6,6,0,0,0-2.53,1.95,5,5,0,0,0,0,5.8,6,6,0,0,0,2.53,1.94,9.24,9.24,0,0,0,3.6.68,9.24,9.24,0,0,0,3.6-.68m3.24-4.84a4.64,4.64,0,0,1-.9,2.83,5.65,5.65,0,0,1-2.46,1.85,9.18,9.18,0,0,1-3.48.63,9.25,9.25,0,0,1-3.5-.63,5.58,5.58,0,0,1-2.44-1.85,4.89,4.89,0,0,1,0-5.64,5.67,5.67,0,0,1,2.44-1.86,9.06,9.06,0,0,1,3.5-.64,9,9,0,0,1,3.48.64,5.75,5.75,0,0,1,2.45,1.86,4.62,4.62,0,0,1,.9,2.81M14,16.44A4.26,4.26,0,0,0,14.79,19a5.15,5.15,0,0,0,2.26,1.71,8.8,8.8,0,0,0,3.34.6,8.75,8.75,0,0,0,3.32-.6A5.23,5.23,0,0,0,26,19a4.42,4.42,0,0,0,0-5.13,5.31,5.31,0,0,0-2.27-1.72,8.58,8.58,0,0,0-3.32-.61,8.65,8.65,0,0,0-3.34.61,5.25,5.25,0,0,0-2.26,1.72A4.24,4.24,0,0,0,14,16.44"/><path class="cls-3" d="M20.39,32.43a1.63,1.63,0,1,1-1.63,1.63,1.63,1.63,0,0,1,1.63-1.63"/><path class="cls-4" d="M20.39,5.1a1.63,1.63,0,1,1-1.63,1.63A1.63,1.63,0,0,1,20.39,5.1"/></svg>