<?xml version="1.0" standalone="no"?>
<!DOCTYPE svg PUBLIC "-//W3C//DTD SVG 1.1//EN" "http://www.w3.org/Graphics/SVG/1.1/DTD/svg11.dtd" >
<svg>
<metadata>
Created by FontForge 20090914 at Tue Sep 24 19:28:15 2019
 By www-data
Copyright (c) 2015 by GT &#38; Canary Inc. All rights reserved.
</metadata>
<defs>
<font id="Mirai-Regular" horiz-adv-x="578" vert-adv-y="1000" >
  <font-face 
    font-family="Mirai-Regular"
    font-weight="400"
    font-stretch="normal"
    units-per-em="1000"
    panose-1="0 0 0 0 0 0 0 0 0 0"
    ascent="787"
    descent="-213"
    x-height="491.999"
    cap-height="682"
    bbox="-66 -237 1151 1087"
    underline-thickness="60"
    underline-position="-120"
    unicode-range="U+000D-U+FB06"
  />
<missing-glyph horiz-adv-x="528" 
d="M425 647h-322l161 -248zM461 94v512l-165 -256zM232 350l-165 256v-512zM103 53h322l-161 249zM514 700v-700h-500v700h500z" />
    <glyph glyph-name="f_f" unicode="ff" horiz-adv-x="649" 
d="M456 492l164.002 0.00195312v-61h-164v-431h-66v431h-213v-431h-66v431h-72v61h72v31c0 31.333 2.66699 60.166 8 86.499s13.666 49 24.999 68s26.333 33.667 45 44s41 15.5 67 15.5c33.333 0 67 -6 101 -18l-17 -61c-14.667 5.33301 -28.5 9.5 -41.5 12.5
s-26.5 4.5 -40.5 4.5c-16.667 0 -30.167 -4.16699 -40.5 -12.5s-18.5 -19.5 -24.5 -33.5s-10.167 -30 -12.5 -48s-3.5 -37 -3.5 -57v-32h213v62c0 57.333 11.667 102.166 35 134.499s59 48.5 107 48.5c16.667 0 33.5 -1.33301 50.5 -4s32.833 -6 47.5 -10l-12 -62
c-29.333 9.33301 -56.333 14 -81 14c-28.667 0 -49.334 -10.5 -62.001 -31.5s-19 -50.833 -19 -89.5v-62z" />
    <glyph glyph-name="fi" unicode="fi" horiz-adv-x="550" 
d="M177 492l289 0.000976562v-492h-66v431h-223v-431h-66v431h-72v61h72v45c0 28.667 2.66699 55.167 8 79.5s13.666 45.5 24.999 63.5s26 32 44 42s39.667 15 65 15c16.667 0 33 -2 49 -6s30.667 -8.66699 44 -14l-17 -61c-11.333 5.33301 -23 9.83301 -35 13.5
s-24.333 5.5 -37 5.5c-15.333 0 -28.166 -3.5 -38.499 -10.5s-18.5 -16.833 -24.5 -29.5s-10.333 -27.334 -13 -44.001s-4 -34.667 -4 -54v-45zM392 639.001c0 12.667 4.16699 23.334 12.5 32.001s18.833 13 31.5 13s23.167 -4.33301 31.5 -13s12.5 -19.334 12.5 -32.001
s-4.16699 -23.334 -12.5 -32.001s-18.833 -13 -31.5 -13s-23.167 4.33301 -31.5 13s-12.5 19.334 -12.5 32.001z" />
    <glyph glyph-name="fl" unicode="fl" horiz-adv-x="550" 
d="M282 737c32 0 63 -2.66699 93 -8s60.333 -13.333 91 -24v-705h-66v659c-17.333 5.33301 -35.5 9.33301 -54.5 12s-39.167 4 -60.5 4s-38.833 -4 -52.5 -12s-24.667 -18.667 -33 -32s-14.166 -29 -17.499 -47s-5 -37 -5 -57v-35h155v-61h-155v-431h-66v431h-72v61h72v34
c0 27.333 2.66699 53.666 8 78.999s14.666 47.833 27.999 67.5s30.833 35.334 52.5 47.001s49.167 17.5 82.5 17.5z" />
    <glyph glyph-name="f_f_i" unicode="ffi" horiz-adv-x="830" 
d="M456 492l290 0.00195312v-492h-66v431h-224v-431h-66v431h-213v-431h-66v431h-72v61h72v31c0 31.333 2.66699 60.166 8 86.499s13.666 49 24.999 68s26.333 33.667 45 44s41 15.5 67 15.5c33.333 0 67 -6 101 -18l-17 -61c-14.667 5.33301 -28.5 9.5 -41.5 12.5
s-26.5 4.5 -40.5 4.5c-16.667 0 -30.167 -4.16699 -40.5 -12.5s-18.5 -19.5 -24.5 -33.5s-10.167 -30 -12.5 -48s-3.5 -37 -3.5 -57v-32h213v45c0 28.667 2.66699 55.167 8 79.5s13.833 45.5 25.5 63.5s26.334 32 44.001 42s39.167 15 64.5 15c17.333 0 34 -2 50 -6
s30.667 -8.66699 44 -14l-18 -61c-11.333 5.33301 -23 9.83301 -35 13.5s-24.333 5.5 -37 5.5c-15.333 0 -28 -3.5 -38 -10.5s-18.167 -16.833 -24.5 -29.5s-10.833 -27.334 -13.5 -44.001s-4 -34.667 -4 -54v-45zM671 639.002c0 12.667 4.16699 23.334 12.5 32.001
s18.833 13 31.5 13s23.167 -4.33301 31.5 -13s12.5 -19.334 12.5 -32.001s-4.16699 -23.334 -12.5 -32.001s-18.833 -13 -31.5 -13s-23.167 4.33301 -31.5 13s-12.5 19.334 -12.5 32.001z" />
    <glyph glyph-name="f_f_l" unicode="ffl" horiz-adv-x="830" 
d="M561 737c32.667 0 63.835 -2.66602 93.502 -7.99902s60.167 -13.333 91.5 -24v-705h-66v659c-17.333 5.33301 -35.5 9.33301 -54.5 12s-39.167 4 -60.5 4s-38.833 -4 -52.5 -12s-24.834 -18.667 -33.501 -32s-14.667 -29 -18 -47s-5 -37 -5 -57v-35h156v-61h-156v-431
h-66v431h-213v-431h-66v431h-72v61h72v31c0 31.333 2.66699 60.166 8 86.499s13.666 49 24.999 68s26.333 33.667 45 44s41 15.5 67 15.5c33.333 0 67 -6 101 -18l-17 -61c-14.667 5.33301 -28.5 9.5 -41.5 12.5s-26.5 4.5 -40.5 4.5
c-16.667 0 -30.167 -4.16699 -40.5 -12.5s-18.5 -19.5 -24.5 -33.5s-10.167 -30 -12.5 -48s-3.5 -37 -3.5 -57v-32h213v34c0 27.333 2.83301 53.666 8.5 78.999s15 47.833 28 67.5s30.5 35.334 52.5 47.001s49.333 17.5 82 17.5z" />
    <glyph glyph-name=".notdef" horiz-adv-x="528" 
d="M425 647h-322l161 -248zM461 94v512l-165 -256zM232 350l-165 256v-512zM103 53h322l-161 249zM514 700v-700h-500v700h500z" />
    <glyph glyph-name="NULL" horiz-adv-x="0" vert-adv-y="0" 
 />
    <glyph glyph-name="NULL" horiz-adv-x="0" vert-adv-y="0" 
 />
    <glyph glyph-name="nonmarkingreturn" unicode="&#xd;" horiz-adv-x="0" vert-adv-y="0" 
 />
    <glyph glyph-name="space" unicode=" " horiz-adv-x="215" 
 />
    <glyph glyph-name="exclam" unicode="!" horiz-adv-x="226" 
d="M150 682l-13 -506h-48l-13 506h74zM69 32c0 -12.667 4 -23.334 12 -32.001s18.667 -13 32 -13s24 4.33301 32 13s12 19.334 12 32.001s-4 23.334 -12 32.001s-18.667 13 -32 13s-24 -4.33301 -32 -13s-12 -19.334 -12 -32.001z" />
    <glyph glyph-name="quotedbl" unicode="&#x22;" horiz-adv-x="286" 
d="M222 516h-47l-10 209h66zM111 516h-47l-10 209h66z" />
    <glyph glyph-name="numbersign" unicode="#" horiz-adv-x="705" 
d="M464 447h-181l-37 -212h181zM524 447l-38 -212h123l-10 -55h-122l-32 -180h-59l31 180h-181l-32 -180h-59l32 180h-123l10 55h122l38 212h-123l10 55h122l32 180h59l-31 -180h181l32 180h59l-32 -180h123l-10 -55h-122z" />
    <glyph glyph-name="dollar" unicode="$" 
d="M134 504c0 -25.333 9.66699 -47.667 29 -67s52 -36 98 -50v221c-42.667 -4 -74.5 -15.5 -95.5 -34.5s-31.5 -42.167 -31.5 -69.5zM451 184.999c0 28.667 -10 53.168 -30 73.501s-54.667 37.5 -104 51.5v-236c45.333 3.33301 79 15.166 101 35.499s33 45.5 33 75.5z
M514 187c0 -4 -0.167969 -8.16699 -0.500977 -12.5s-0.833008 -8.5 -1.5 -12.5c-2.66699 -19.333 -8.66699 -37.5 -18 -54.5s-22 -32.167 -38 -45.5s-35.5 -24.333 -58.5 -33s-49.833 -14 -80.5 -16v-55h-56v56c-36 3.33301 -71.5 11.333 -106.5 24
s-65.833 29.334 -92.5 50.001l38 53c21.333 -16.667 46 -31 74 -43s57 -19.667 87 -23v249c-68.667 17.333 -117.5 41.5 -146.5 72.5s-43.5 65.833 -43.5 104.5c0 22 4 42.5 12 61.5s19.833 36 35.5 51s35.334 27.333 59.001 37s51.5 15.5 83.5 17.5v56h56v-56
c36 -2.66699 71.167 -10.167 105.5 -22.5s65.5 -28.166 93.5 -47.499l-38 -52c-21.333 15.333 -46 28.666 -74 39.999s-57 18.666 -87 21.999v-235c71.333 -18.667 122 -43.667 152 -75s45 -68.333 45 -111z" />
    <glyph glyph-name="percent" unicode="%" horiz-adv-x="823" 
d="M624 384c-28.667 0 -52.667 -5.83301 -72 -17.5s-34.833 -26.834 -46.5 -45.501s-20 -39.834 -25 -63.501s-7.5 -47.5 -7.5 -71.5c0 -24.667 2.5 -48.834 7.5 -72.501s13.333 -44.834 25 -63.501s27.167 -33.834 46.5 -45.501s43.333 -17.5 72 -17.5
s52.667 5.83301 72 17.5s34.833 26.834 46.5 45.501s20 39.834 25 63.501s7.5 47.834 7.5 72.501c0 24 -2.5 47.833 -7.5 71.5s-13.333 44.834 -25 63.501s-27.167 33.834 -46.5 45.501s-43.333 17.5 -72 17.5zM199 694c-28.667 0 -52.667 -5.66699 -72 -17
s-34.833 -26.333 -46.5 -45s-20 -39.834 -25 -63.501s-7.5 -47.834 -7.5 -72.501s2.5 -48.834 7.5 -72.501s13.333 -44.834 25 -63.501s27.167 -33.667 46.5 -45s43.333 -17 72 -17s52.667 5.66699 72 17s34.833 26.333 46.5 45s20 39.834 25 63.501s7.5 47.834 7.5 72.501
s-2.5 48.834 -7.5 72.501s-13.333 44.834 -25 63.501s-27.167 33.667 -46.5 45s-43.333 17 -72 17zM584 688l-297 -701l-48 21l297 700zM293 496c0 -16 -3 -31 -9 -45s-14.167 -26.167 -24.5 -36.5s-22.5 -18.5 -36.5 -24.5s-29 -9 -45 -9s-30.833 3 -44.5 9
s-25.834 14.167 -36.501 24.5s-19 22.5 -25 36.5s-9 29 -9 45s3 31 9 45s14.333 26.167 25 36.5s22.834 18.5 36.501 24.5s28.5 9 44.5 9s31 -3 45 -9s26.167 -14.167 36.5 -24.5s18.5 -22.5 24.5 -36.5s9 -29 9 -45zM718 186c0 -16 -3 -31 -9 -45
s-14.167 -26.167 -24.5 -36.5s-22.5 -18.5 -36.5 -24.5s-29 -9 -45 -9s-30.833 3 -44.5 9s-25.834 14.167 -36.501 24.5s-19 22.5 -25 36.5s-9 29 -9 45s3 31 9 45s14.333 26.167 25 36.5s22.834 18.5 36.501 24.5s28.5 9 44.5 9s31 -3 45 -9s26.167 -14.167 36.5 -24.5
s18.5 -22.5 24.5 -36.5s9 -29 9 -45z" />
    <glyph glyph-name="ampersand" unicode="&#x26;" horiz-adv-x="650" 
d="M264 49c28.667 0 56 5.33301 82 16s49.667 28.334 71 53.001l-46 46.5l-44.5 47l-46 52l-50.5 60.5c-38 -24.667 -65.833 -48.834 -83.5 -72.501s-26.5 -50.5 -26.5 -80.5c0 -19.333 3.83301 -36.5 11.5 -51.5s18 -27.667 31 -38s28.167 -18.333 45.5 -24
s36 -8.5 56 -8.5zM279 633c-30 0 -53.5 -8.66797 -70.5 -26.001s-25.5 -40 -25.5 -68c0 -21.333 5.83301 -42.5 17.5 -63.5s26.5 -42.833 44.5 -65.5c42 24.667 74.167 46.834 96.5 66.501s33.5 42.834 33.5 69.501c0 23.333 -8 43.666 -24 60.999s-40 26 -72 26z
M263 -12.001c-30 0 -57.666 4.33008 -82.999 12.9971s-47.333 21 -66 37s-33.334 35.5 -44.001 58.5s-16 48.5 -16 76.5c0 16.667 2 33.334 6 50.001s11.167 33.334 21.5 50.001s24.166 33.5 41.499 50.5s39.333 34.5 66 52.5c-20 26.667 -37 53.667 -51 81s-21 55 -21 83
c0 46 14.333 83.167 43 111.5s68.334 42.5 119.001 42.5c25.333 0 48 -3.83301 68 -11.5s37 -18.167 51 -31.5s24.667 -28.833 32 -46.5s11 -36.5 11 -56.5c0 -36 -12.667 -69.167 -38 -99.5s-63.666 -60.5 -114.999 -90.5l89 -102.5
c25.333 -28.333 50.666 -55.166 75.999 -80.499h2c10 20.667 18.667 44.5 26 71.5s13 57.5 17 91.5l65 -10c-10.667 -78.667 -32 -144.667 -64 -198l47.5 -45l54.5 -50l-47 -47l-49.5 46.5l-44.5 41.5c-51.333 -58.667 -117 -88 -197 -88z" />
    <glyph glyph-name="quotesingle" unicode="'" horiz-adv-x="174" 
d="M111 516h-47l-10 209h66z" />
    <glyph glyph-name="parenleft" unicode="(" horiz-adv-x="305" 
d="M138 294c0 -74 10 -147.002 30 -219.002s51 -139 93 -201l-50 -27c-44.667 66.667 -77.834 137.834 -99.501 213.501s-32.5 153.5 -32.5 233.5s10.833 157.833 32.5 233.5s54.834 146.834 99.501 213.501l50 -28c-42 -61.333 -73 -128 -93 -200s-30 -145 -30 -219z" />
    <glyph glyph-name="parenright" unicode=")" horiz-adv-x="305" 
d="M226 294c0 -80 -11 -157.831 -33 -233.498s-55.333 -146.834 -100 -213.501l-49 27c42 62 72.833 129 92.5 201s29.5 145 29.5 219s-9.83301 147 -29.5 219s-50.5 138.667 -92.5 200l49 28c44.667 -66.667 78 -137.834 100 -213.501s33 -153.5 33 -233.5z" />
    <glyph glyph-name="asterisk" unicode="*" horiz-adv-x="465" 
d="M280 524l140.997 -73l-31 -52l-133 85h-2c0.666992 -15.333 1.33398 -32.166 2.00098 -50.499s1.66699 -35.5 3 -51.5c1.33301 -18.667 2.33301 -37.667 3 -57h-61c0.666992 19.333 1.66699 38.333 3 57c0.666992 16 1.33398 33.167 2.00098 51.5
s1.33398 35.166 2.00098 50.499h-2l-133 -85l-30 52l140 73v2l-44.5 23l-45.5 24l-50 26l30 52l48 -31l43 -27.5l42 -26.5h2c-1.33301 14.667 -2.33301 31.334 -3 50.001s-1.33398 36 -2.00098 52l-2 57h61c-1.33301 -19.333 -2.33301 -38.333 -3 -57
c-1.33301 -16 -2.16602 -33.333 -2.49902 -52s-0.833008 -35.334 -1.5 -50.001h2l41 26.5l43 27.5l48 31l31 -52l-51 -26l-46 -24l-44 -23v-2z" />
    <glyph glyph-name="plus" unicode="+" 
d="M511 242h-191v-193h-62v193h-191v59h191v193h62v-193h191v-59z" />
    <glyph glyph-name="comma" unicode="," horiz-adv-x="155" 
d="M4 -145c10.667 34 20.335 68.333 29.002 103s16 70 22 106h66c-8.66699 -36 -18.834 -71.333 -30.501 -106s-24.834 -69 -39.501 -103h-47z" />
    <glyph glyph-name="hyphen" unicode="-" horiz-adv-x="343" 
d="M49 301h245v-59h-245v59z" />
    <glyph glyph-name="period" unicode="." horiz-adv-x="171" 
d="M49 32c0 12.667 4.16699 23.334 12.5 32.001s18.833 13 31.5 13s23.167 -4.33301 31.5 -13s12.5 -19.334 12.5 -32.001s-4.16699 -23.334 -12.5 -32.001s-18.833 -13 -31.5 -13s-23.167 4.33301 -31.5 13s-12.5 19.334 -12.5 32.001z" />
    <glyph glyph-name="slash" unicode="/" horiz-adv-x="388" 
d="M374 722l-300 -782l-52 20l300 782z" />
    <glyph glyph-name="zero" unicode="0" 
d="M289 50c39.333 0 71 9.33301 95 28s42.667 42.334 56 71.001s22.166 60.167 26.499 94.5s6.5 66.833 6.5 97.5s-2.16699 63 -6.5 97s-13.166 65.333 -26.499 94s-32 52.334 -56 71.001s-55.667 28 -95 28s-71 -9.33301 -95 -28s-42.667 -42.334 -56 -71.001
s-22.166 -60 -26.499 -94s-6.5 -66.333 -6.5 -97s2.16699 -63.167 6.5 -97.5s13.166 -65.833 26.499 -94.5s32 -52.334 56 -71.001s55.667 -28 95 -28zM289 694c48.667 0 89.167 -10.667 121.5 -32s58 -49 77 -83s32.333 -72 40 -114s11.5 -83.333 11.5 -124
s-3.83301 -82 -11.5 -124s-21 -80 -40 -114s-44.667 -61.833 -77 -83.5s-72.833 -32.5 -121.5 -32.5c-49.333 0 -90 10.833 -122 32.5s-57.5 49.5 -76.5 83.5s-32.333 72 -40 114s-11.5 83.333 -11.5 124s3.83301 82 11.5 124s21 80 40 114s44.5 61.667 76.5 83
s72.667 32 122 32z" />
    <glyph glyph-name="one" unicode="1" 
d="M348 687v-687h-66v616l-157 -66l-20 57l189 80h54z" />
    <glyph glyph-name="two" unicode="2" 
d="M498 61l0.000976562 -60.9971h-416v53l228 248c18 18.667 34.333 36.5 49 53.5s27.167 33.5 37.5 49.5s18.5 32 24.5 48s9 32.667 9 50c0 37.333 -11.667 68.166 -35 92.499s-57 36.5 -101 36.5c-43.333 0 -76.833 -12.667 -100.5 -38s-39.167 -60 -46.5 -104l-67 18
c8.66699 56 31 101.167 67 135.5s85 51.5 147 51.5c33.333 0 62.666 -5.16699 87.999 -15.5s46.5 -24.333 63.5 -42s29.667 -38.334 38 -62.001s12.5 -48.5 12.5 -74.5c0 -22 -3.33301 -42.667 -10 -62s-16 -38.333 -28 -57s-25.833 -37.334 -41.5 -56.001
s-32.5 -37.667 -50.5 -57l-190 -205v-2h322z" />
    <glyph glyph-name="three" unicode="3" 
d="M503 183c0 -58.667 -20.1699 -106.003 -60.5029 -142.003s-98.166 -54 -173.499 -54c-19.333 0 -38.833 2 -58.5 6s-38.5 9.5 -56.5 16.5s-34.667 15.667 -50 26s-28.333 21.5 -39 33.5l47 45c8.66699 -10 19 -19 31 -27s25 -14.667 39 -20s28.333 -9.5 43 -12.5
s29.334 -4.5 44.001 -4.5c27.333 0 51.5 3.33301 72.5 10s38.667 16 53 28s25.166 26.167 32.499 42.5s11 33.833 11 52.5c0 18 -3.16699 35.333 -9.5 52s-16.333 31.334 -30 44.001s-31.167 22.667 -52.5 30s-47 11 -77 11h-81v57h77c25.333 0 48 3.5 68 10.5
s36.833 16.333 50.5 28s24.167 25.334 31.5 41.001s11 32.5 11 50.5c0 35.333 -13.333 64.833 -40 88.5s-65.667 35.5 -117 35.5c-64.667 0 -115.667 -19.333 -153 -58l-47 48c24 22.667 52.833 40.5 86.5 53.5s71.5 19.5 113.5 19.5c36 0 67.833 -4.66699 95.5 -14
s50.834 -22.166 69.501 -38.499s32.834 -35.666 42.501 -57.999s14.5 -46.5 14.5 -72.5c0 -35.333 -9.16699 -66.833 -27.5 -94.5s-44.5 -49.167 -78.5 -64.5v-2c40 -17.333 69.667 -41.333 89 -72s29 -62.334 29 -95.001z" />
    <glyph glyph-name="four" unicode="4" 
d="M370 217v340h-2l-246 -338v-2h248zM527 157h-91v-157h-66v157h-332l-5 53l345 472h58v-465h91v-60z" />
    <glyph glyph-name="five" unicode="5" 
d="M265 433c35.333 0 67.167 -5.16504 95.5 -15.498s52.5 -25 72.5 -44s35.5 -42 46.5 -69s16.5 -57.167 16.5 -90.5c0 -32 -5.33301 -61.667 -16 -89s-26.167 -51.333 -46.5 -72s-45.333 -36.834 -75 -48.501s-63.5 -17.5 -101.5 -17.5c-42.667 0 -80.667 8.33301 -114 25
s-60 37.667 -80 63l49 47c16 -20.667 36.667 -37.834 62 -51.501s53.333 -20.5 84 -20.5c26.667 0 50.667 4.16699 72 12.5s39.5 19.833 54.5 34.5s26.333 32 34 52s11.5 42 11.5 66c0 47.333 -15 85 -45 113s-72.333 42 -127 42c-48 0 -91 -8.66699 -129 -26l-39 35l48 303
h322v-61h-265l-32 -205h2c13.333 5.33301 28.5 9.5 45.5 12.5s35.167 4.5 54.5 4.5z" />
    <glyph glyph-name="six" unicode="6" 
d="M289 51c28 0 53 4.33301 75 13s40.333 20.5 55 35.5s25.834 32.167 33.501 51.5s11.5 39.666 11.5 60.999s-3.83301 41.666 -11.5 60.999s-18.834 36.5 -33.501 51.5s-33 26.833 -55 35.5s-47 13 -75 13s-53 -4.33301 -75 -13s-40.333 -20.5 -55 -35.5
s-25.834 -32.167 -33.501 -51.5s-11.5 -39.666 -11.5 -60.999s3.83301 -41.666 11.5 -60.999s18.834 -36.5 33.501 -51.5s33 -26.833 55 -35.5s47 -13 75 -13zM296 437c34 0 65.335 -5.83105 94.002 -17.498s53.334 -27.5 74.001 -47.5s36.834 -43.667 48.501 -71
s17.5 -57 17.5 -89s-5.66699 -61.667 -17 -89s-27.5 -51 -48.5 -71s-46.333 -35.833 -76 -47.5s-62.834 -17.5 -99.501 -17.5s-69.834 5.83301 -99.501 17.5s-55 27.5 -76 47.5s-37.167 43.667 -48.5 71s-17 57 -17 89c0 24.667 3.66699 48.5 11 71.5
s19.666 51.167 36.999 84.5s40.333 74.666 69 123.999l108 190h77l-85.5 -149.5l-64.5 -111.5v-2c14 5.33301 29.167 9.66602 45.5 12.999s33.166 5 50.499 5z" />
    <glyph glyph-name="seven" unicode="7" 
d="M497 682v-53l-246 -629h-71l246 621h-354v61h425z" />
    <glyph glyph-name="eight" unicode="8" 
d="M289 51c30 0 56.5 3.33301 79.5 10s42.167 16 57.5 28s27 26 35 42s12 33.333 12 52c0 18 -4 35 -12 51s-19.667 30 -35 42s-34.5 21.5 -57.5 28.5s-49.5 10.5 -79.5 10.5s-56.5 -3.5 -79.5 -10.5s-42.333 -16.5 -58 -28.5s-27.334 -26 -35.001 -42s-11.5 -33 -11.5 -51
c0 -18.667 3.83301 -36 11.5 -52s19.334 -30 35.001 -42s35 -21.333 58 -28s49.5 -10 79.5 -10zM127 504c0 -36.667 14.5 -67 43.5 -91s68.5 -36 118.5 -36s89.5 12 118.5 36s43.5 54.333 43.5 91c0 37.333 -14.5 67.833 -43.5 91.5s-68.5 35.5 -118.5 35.5
s-89.5 -11.833 -118.5 -35.5s-43.5 -54.167 -43.5 -91.5zM539 185c0 -28.667 -5.82715 -55 -17.4941 -79s-28.334 -44.833 -50.001 -62.5s-47.834 -31.5 -78.501 -41.5s-65.334 -15 -104.001 -15s-73.334 5 -104.001 15s-56.834 23.833 -78.501 41.5
s-38.334 38.5 -50.001 62.5s-17.5 50.333 -17.5 79c0 37.333 9.5 70 28.5 98s46.5 50 82.5 66v2c-28 16.667 -49.667 37.834 -65 63.501s-23 54.834 -23 87.501c0 27.333 5.5 52.666 16.5 75.999s26.5 43.666 46.5 60.999s44 30.833 72 40.5s58.667 14.5 92 14.5
s64 -4.83301 92 -14.5s52 -23.167 72 -40.5s35.5 -37.666 46.5 -60.999s16.5 -48.666 16.5 -75.999c0 -32.667 -7.66699 -61.834 -23 -87.501s-37 -46.834 -65 -63.501v-2c36 -16 63.5 -38 82.5 -66s28.5 -60.667 28.5 -98z" />
    <glyph glyph-name="nine" unicode="9" horiz-adv-x="598" 
d="M299 631c-28 0 -53 -4.33301 -75 -13s-40.333 -20.5 -55 -35.5s-25.834 -32.167 -33.501 -51.5s-11.5 -39.666 -11.5 -60.999s3.83301 -41.666 11.5 -60.999s18.834 -36.5 33.501 -51.5s33 -26.833 55 -35.5s47 -13 75 -13s53 4.33301 75 13s40.333 20.5 55 35.5
s25.834 32.167 33.501 51.5s11.5 39.666 11.5 60.999s-3.83301 41.666 -11.5 60.999s-18.834 36.5 -33.501 51.5s-33 26.833 -55 35.5s-47 13 -75 13zM292 245c-34 0 -65.335 5.83105 -94.002 17.498s-53.334 27.5 -74.001 47.5s-36.834 43.667 -48.501 71
s-17.5 57 -17.5 89s5.66699 61.667 17 89s27.5 51 48.5 71s46.333 35.667 76 47s62.834 17 99.501 17s69.834 -5.66699 99.501 -17s55 -27 76 -47s37.167 -43.667 48.5 -71s17 -57 17 -89c0 -24.667 -3.66699 -48.5 -11 -71.5s-19.666 -51.167 -36.999 -84.5
s-40.5 -74.666 -69.5 -123.999l-107.5 -190h-77l85.5 149.5l64.5 111.5v2c-14 -5.33301 -29.167 -9.66602 -45.5 -12.999s-33.166 -5 -50.499 -5z" />
    <glyph glyph-name="colon" unicode=":" horiz-adv-x="206" 
d="M59 460c0 12.667 4.16699 23.334 12.5 32.001s18.833 13 31.5 13s23.167 -4.33301 31.5 -13s12.5 -19.334 12.5 -32.001s-4.16699 -23.334 -12.5 -32.001s-18.833 -13 -31.5 -13s-23.167 4.33301 -31.5 13s-12.5 19.334 -12.5 32.001zM59 32
c0 12.667 4.16699 23.334 12.5 32.001s18.833 13 31.5 13s23.167 -4.33301 31.5 -13s12.5 -19.334 12.5 -32.001s-4.16699 -23.334 -12.5 -32.001s-18.833 -13 -31.5 -13s-23.167 4.33301 -31.5 13s-12.5 19.334 -12.5 32.001z" />
    <glyph glyph-name="semicolon" unicode=";" horiz-adv-x="207" 
d="M67 -145c14.667 34 27.833 68.333 39.5 103s21.834 70 30.501 106h-66c-6 -36 -13.333 -71.333 -22 -106s-18.334 -69 -29.001 -103h47zM58.999 460c0 12.667 4.16699 23.167 12.5 31.5s19.166 12.5 32.499 12.5c12.667 0 23.167 -4.16699 31.5 -12.5
s12.5 -18.833 12.5 -31.5s-4.16699 -23.334 -12.5 -32.001s-18.833 -13 -31.5 -13c-13.333 0 -24.166 4.33301 -32.499 13s-12.5 19.334 -12.5 32.001z" />
    <glyph glyph-name="less" unicode="&#x3c;" 
d="M137 270l379 -180l-26 -53l-428 204v61l428 204l26 -53l-379 -181v-2z" />
    <glyph glyph-name="equal" unicode="=" 
d="M511 367h-444v59h444v-59zM511 117h-444v59h444v-59z" />
    <glyph glyph-name="greater" unicode="&#x3e;" 
d="M516 302v-61l-428 -204l-26 53l379 180v2l-379 181l26 53z" />
    <glyph glyph-name="question" unicode="?" horiz-adv-x="556" 
d="M256 176c0 26.667 1 49.668 3 69.001s5.66699 36.666 11 51.999s12.833 29.5 22.5 42.5s21.834 26.5 36.501 40.5l44 43c12.667 12.667 23.334 24.667 32.001 36s15.167 22.666 19.5 33.999s6.5 23.666 6.5 36.999c0 30 -12.5 54.833 -37.5 74.5
s-60.833 29.5 -107.5 29.5c-42.667 0 -76.667 -10.833 -102 -32.5s-42.666 -50.5 -51.999 -86.5l-63 18c13.333 48 38.166 87 74.499 117s83.833 45 142.5 45c34 0 64 -4.33301 90 -13s48 -20.5 66 -35.5s31.667 -32.5 41 -52.5s14 -41.333 14 -64
c0 -18 -2.83301 -34.667 -8.5 -50s-13.834 -30.166 -24.501 -44.499s-23.667 -28.833 -39 -43.5l-51 -47c-12 -10.667 -21.667 -21.5 -29 -32.5s-13 -23.167 -17 -36.5s-6.83301 -28.166 -8.5 -44.499s-2.83398 -34.833 -3.50098 -55.5h-60zM242 32.001
c0 12.667 4.16699 23.334 12.5 32.001s18.833 13 31.5 13s23.167 -4.33301 31.5 -13s12.5 -19.334 12.5 -32.001s-4.16699 -23.334 -12.5 -32.001s-18.833 -13 -31.5 -13s-23.167 4.33301 -31.5 13s-12.5 19.334 -12.5 32.001z" />
    <glyph glyph-name="at" unicode="@" horiz-adv-x="908" 
d="M429 139c37.333 0 69.166 13.332 95.499 39.999s41.5 64.667 45.5 114c0.666992 6.66699 1 13.334 1 20.001c0 40 -9.33301 71.667 -28 95c-21.333 26 -50.666 39 -87.999 39s-69.166 -13.167 -95.499 -39.5s-41.5 -64.5 -45.5 -114.5c-0.666992 -6.66699 -1 -13 -1 -19
c0 -40 9.33301 -71.667 28 -95c21.333 -26.667 50.666 -40 87.999 -40zM620 200.999c0 -16 3.66406 -29.665 10.9971 -40.998c10.667 -15.333 27.334 -23 50.001 -23c14 0 27.333 3.66699 40 11s24 19 34 35s18 36.333 24 61s9 54.334 9 89.001
c0 48 -7.66699 91.667 -23 131s-37.5 73 -66.5 101s-64.167 49.667 -105.5 65s-87.666 23 -138.999 23c-53.333 0 -100.666 -9.33301 -141.999 -28s-76.166 -44.167 -104.499 -76.5s-50 -70.5 -65 -114.5s-22.5 -91 -22.5 -141s7.5 -96.833 22.5 -140.5
s36.667 -81.834 65 -114.501s63.166 -58.334 104.499 -77.001s88.666 -28 141.999 -28c46.667 0 91.834 8.33301 135.501 25s83.5 41 119.5 73l36 -49c-34.667 -31.333 -78 -56.666 -130 -75.999s-105.667 -29 -161 -29c-58.667 0 -112.334 10.667 -161.001 32
s-90.334 50.666 -125.001 87.999s-61.5 81.333 -80.5 132s-28.5 105.334 -28.5 164.001s9.5 113.5 28.5 164.5s45.833 95.167 80.5 132.5s76.334 66.666 125.001 87.999s102.334 32 161.001 32c57.333 0 110.166 -9.16699 158.499 -27.5s90 -44 125 -77
s62.333 -72.667 82 -119s29.5 -97.5 29.5 -153.5c0 -41.333 -4.33301 -78 -13 -110s-21 -58.667 -37 -80s-34.833 -37.5 -56.5 -48.5s-45.5 -16.5 -71.5 -16.5c-21.333 0 -41.5 5.83301 -60.5 17.5s-33.167 28.167 -42.5 49.5h-2c-18 -20.667 -39 -37 -63 -49
s-50 -18 -78 -18c-27.333 0 -52.166 5.33301 -74.499 16s-41.333 25.5 -57 44.5s-27.5 41.5 -35.5 67.5c-6.66699 21.333 -10 44 -10 68c0 6.66699 0.333008 13 1 19c2 31.333 8.33301 60.166 19 86.499s25 49 43 68s38.667 33.833 62 44.5s48.666 16 75.999 16
c33.333 0 62.333 -7.16699 87 -21.5s44.667 -34.166 60 -59.499h2l16 71h57c-11.333 -60 -20.166 -108.167 -26.499 -144.5l-14.5 -83.5c-4 -22.667 -6.66699 -38.334 -8 -47.001c-1.33301 -8 -2 -15.333 -2 -22z" />
    <glyph glyph-name="A" unicode="A" horiz-adv-x="703" 
d="M277.5 422.5l-74.5 -175.5h297l-73.5 175.5l-73.5 176.5h-2zM528 182h-353l-79 -182h-77l301 682h64l300 -682h-77z" />
    <glyph glyph-name="B" unicode="B" horiz-adv-x="645" 
d="M368 65c20 0 39.168 2.16309 57.501 6.49609s34.666 11.333 48.999 21s25.833 22.334 34.5 38.001s13 34.834 13 57.501c0 24 -4 43.833 -12 59.5s-19 28.334 -33 38.001s-30.333 16.334 -49 20.001s-38.667 5.5 -60 5.5h-211v-247l1 1h210zM157.001 375.996
l183.003 0.00195312c20 0 39.5 2 58.5 6s35.667 10.667 50 20s26 21.666 35 36.999s13.5 34.666 13.5 57.999s-4.33301 42.833 -13 58.5s-20.334 28 -35.001 37s-31.334 15.333 -50.001 19s-38.334 5.5 -59.001 5.5h-181l-2 2v-243zM591.004 180.998
c0 -32.667 -6.16699 -60.501 -18.5 -83.501s-29 -41.667 -50 -56s-45 -24.833 -72 -31.5s-55.167 -10 -84.5 -10h-277v682h251c28.667 0 56.667 -3.16699 84 -9.5s51.5 -16.5 72.5 -30.5s37.833 -32.333 50.5 -55s19 -50.334 19 -83.001c0 -34 -7 -64.167 -21 -90.5
s-36.667 -47.166 -68 -62.499v-2c38 -13.333 66.5 -34.666 85.5 -63.999s28.5 -64 28.5 -104z" />
    <glyph glyph-name="C" unicode="C" horiz-adv-x="721" 
d="M403 -13c-48.667 0 -93.999 8.83887 -135.999 26.5059s-78.5 42.167 -109.5 73.5s-55.5 68.666 -73.5 111.999s-27 90.666 -27 141.999s9 98.666 27 141.999s42.5 80.666 73.5 111.999s67.5 55.666 109.5 72.999s87.333 26 136 26
c53.333 0 102.666 -10.167 147.999 -30.5s84 -49.166 116 -86.499l-51 -46c-25.333 31.333 -56.333 55.666 -93 72.999s-76.667 26 -120 26c-39.333 0 -75.833 -7 -109.5 -21s-63 -33.833 -88 -59.5s-44.667 -56.167 -59 -91.5s-21.5 -74.333 -21.5 -117
s7.16699 -81.667 21.5 -117s34 -65.833 59 -91.5s54.333 -45.5 88 -59.5s70.167 -21 109.5 -21c44 0 84.5 9 121.5 27s68.167 43.333 93.5 76l52 -45c-32 -38.667 -71 -68.834 -117 -90.501s-96 -32.5 -150 -32.5z" />
    <glyph glyph-name="D" unicode="D" horiz-adv-x="696" 
d="M292 65c87.333 0 155.5 24 204.5 72s73.5 116 73.5 204s-24.5 156 -73.5 204s-117.167 72 -204.5 72h-135v-552h135zM295 682c52.667 0 100.167 -7.83105 142.5 -23.498s78.5 -38.334 108.5 -68.001s53 -65.5 69 -107.5s24 -89.333 24 -142s-8 -100 -24 -142
s-39 -77.833 -69 -107.5s-66.167 -52.334 -108.5 -68.001s-89.833 -23.5 -142.5 -23.5h-206v682h206z" />
    <glyph glyph-name="E" unicode="E" horiz-adv-x="597" 
d="M528 65v-65h-439v682h430v-65h-362v-237h334v-65h-334v-250h371z" />
    <glyph glyph-name="F" unicode="F" horiz-adv-x="567" 
d="M157 617v-247h328v-65h-328v-305h-68v682h424v-65h-356z" />
    <glyph glyph-name="G" unicode="G" horiz-adv-x="750" 
d="M671 362l-0.000976562 -298.002v-1c-38 -24.667 -80.833 -43.5 -128.5 -56.5s-94.167 -19.5 -139.5 -19.5c-50.667 0 -97.167 9.16699 -139.5 27.5s-78.833 43.333 -109.5 75s-54.5 69 -71.5 112s-25.5 89.5 -25.5 139.5s8.5 96.5 25.5 139.5s40.833 80.333 71.5 112
s67.167 56.5 109.5 74.5s88.833 27 139.5 27s99 -9.66699 145 -29s85.667 -48.666 119 -87.999l-51 -46c-26.667 32.667 -58.5 57.334 -95.5 74.001s-76.167 25 -117.5 25s-79 -7.5 -113 -22.5s-63.333 -35.5 -88 -61.5s-43.667 -56.667 -57 -92s-20 -73 -20 -113
s6.66699 -77.667 20 -113s32.333 -66 57 -92s54 -46.5 88 -61.5s71.667 -22.5 113 -22.5c34.667 0 68.834 3.83301 102.501 11.5s66.167 19.167 97.5 34.5v199h-183v65h251z" />
    <glyph glyph-name="H" unicode="H" horiz-adv-x="708" 
d="M619 682v-682h-68v325h-394v-325h-68v682h68v-292h394v292h68z" />
    <glyph glyph-name="I" unicode="I" horiz-adv-x="246" 
d="M89 0v682h68v-682h-68z" />
    <glyph glyph-name="J" unicode="J" horiz-adv-x="538" 
d="M242 53c46 0 82.334 14.832 109.001 44.499s40 69.5 40 119.5v465h68v-463c0 -35.333 -5 -67.166 -15 -95.499s-24.333 -52.5 -43 -72.5s-41.334 -35.5 -68.001 -46.5s-57 -16.5 -91 -16.5c-26 0 -50.5 3.66699 -73.5 11s-43.667 17 -62 29s-34.5 26 -48.5 42
s-25.333 32.667 -34 50l56 39c15.333 -31.333 36.333 -56.833 63 -76.5s59.667 -29.5 99 -29.5z" />
    <glyph glyph-name="K" unicode="K" horiz-adv-x="658" 
d="M157 0h-68v682h68v-344h2l369 344h95l-332 -308l343 -374h-93l-299 330l-85 -76v-254z" />
    <glyph glyph-name="L" unicode="L" horiz-adv-x="548" 
d="M514 65v-65h-425v682h68v-617h357z" />
    <glyph glyph-name="M" unicode="M" horiz-adv-x="881" 
d="M436 153l-188.998 306l-33 54c-11.333 18.667 -21.666 36.667 -30.999 54h-2c-0.666992 -12 -1.33398 -23.167 -2.00098 -33.5l-2 -32.5c-0.666992 -11.333 -1.33398 -24.166 -2.00098 -38.499s-1.66699 -31.833 -3 -52.5l-24 -410h-69l42 682h68l251 -408h2l250 408h68
l42 -682h-69l-24 410c-1.33301 20.667 -2.33301 38.167 -3 52.5s-1.33398 27.166 -2.00098 38.499l-2 32.5c-0.666992 10.333 -1.33398 21.5 -2.00098 33.5h-2c-9.33301 -17.333 -19.666 -35.333 -30.999 -54l-33 -54l-189 -306h-9z" />
    <glyph glyph-name="N" unicode="N" horiz-adv-x="718" 
d="M629 682v-682.002h-65l-407 566h-2c0 -13.333 0.166992 -27.666 0.5 -42.999l1 -47.5c0.333008 -16.333 0.5 -32.5 0.5 -48.5v-44v-383h-68v682h64l408 -566h2c0 12.667 -0.166992 26.834 -0.5 42.501l-1 48c-0.333008 16.333 -0.5 32.5 -0.5 48.5v44v383h68z" />
    <glyph glyph-name="O" unicode="O" horiz-adv-x="805" 
d="M403 52c40.667 0 78 7.5 112 22.5s63.333 35.5 88 61.5s43.667 56.667 57 92s20 73 20 113s-6.66699 77.667 -20 113s-32.333 66 -57 92s-54 46.5 -88 61.5s-71.333 22.5 -112 22.5c-41.333 0 -79 -7.5 -113 -22.5s-63.333 -35.5 -88 -61.5s-43.667 -56.667 -57 -92
s-20 -73 -20 -113s6.66699 -77.667 20 -113s32.333 -66 57 -92s54 -46.5 88 -61.5s71.667 -22.5 113 -22.5zM403 694c50 0 96.167 -9.16699 138.5 -27.5s78.833 -43.333 109.5 -75s54.5 -69 71.5 -112s25.5 -89.167 25.5 -138.5s-8.5 -95.5 -25.5 -138.5
s-40.833 -80.5 -71.5 -112.5s-67.167 -57.167 -109.5 -75.5s-88.5 -27.5 -138.5 -27.5c-50.667 0 -97.167 9.16699 -139.5 27.5s-78.833 43.5 -109.5 75.5s-54.5 69.5 -71.5 112.5s-25.5 89.167 -25.5 138.5s8.5 95.5 25.5 138.5s40.833 80.333 71.5 112
s67.167 56.667 109.5 75s88.833 27.5 139.5 27.5z" />
    <glyph glyph-name="P" unicode="P" horiz-adv-x="639" 
d="M516 479c0 48 -14.3359 83.001 -43.0029 105.001s-65.667 33 -111 33h-205v-275h205c22.667 0 43.334 2.66699 62.001 8s34.834 13.666 48.501 24.999s24.334 25.5 32.001 42.5s11.5 37.5 11.5 61.5zM584.997 479.001c0 -32.667 -5.83301 -61.501 -17.5 -86.501
s-27.5 -46 -47.5 -63s-43.667 -30 -71 -39s-56.333 -13.5 -87 -13.5h-205v-277h-68v682h274c32 0 61.5 -4.33301 88.5 -13s50.333 -21.5 70 -38.5s35.167 -38.167 46.5 -63.5s17 -54.666 17 -87.999z" />
    <glyph glyph-name="Q" unicode="Q" horiz-adv-x="805" 
d="M125 341c0 -40 6.66699 -77.667 20 -113s32.333 -66 57 -92s53.834 -46.5 87.501 -61.5s71.167 -22.5 112.5 -22.5s79 7.5 113 22.5s63.333 35.5 88 61.5s43.667 56.667 57 92s20 73 20 113s-6.66699 77.667 -20 113s-32.333 66 -57 92s-54 46.5 -88 61.5
s-71.667 22.5 -113 22.5s-78.833 -7.5 -112.5 -22.5s-62.834 -35.5 -87.501 -61.5s-43.667 -56.667 -57 -92s-20 -73 -20 -113zM748 341c0 -35.333 -4.5 -69.333 -13.5 -102s-22.167 -63.167 -39.5 -91.5s-38.5 -53.833 -63.5 -76.5s-53.833 -41 -86.5 -55l148 -160l-52 -43
l-160 183c-26 -6 -52.333 -9 -79 -9c-50 0 -96.167 9.16699 -138.5 27.5s-78.833 43.333 -109.5 75s-54.5 69 -71.5 112s-25.5 89.5 -25.5 139.5s8.5 96.5 25.5 139.5s40.833 80.333 71.5 112s67.167 56.5 109.5 74.5s88.5 27 138.5 27c50.667 0 97.167 -9 139.5 -27
s78.833 -42.833 109.5 -74.5s54.5 -69 71.5 -112s25.5 -89.5 25.5 -139.5z" />
    <glyph glyph-name="R" unicode="R" horiz-adv-x="664" 
d="M157 354h219c50 0 88.167 11.333 114.5 34s39.5 55 39.5 97s-13.167 74.5 -39.5 97.5s-64.5 34.5 -114.5 34.5h-219v-263zM157 289l0.000976562 -289.001h-68v682h288c35.333 0 66.666 -4.66699 93.999 -14s50.5 -22.666 69.5 -39.999s33.5 -38 43.5 -62s15 -51 15 -81
c0 -48 -13.5 -88.5 -40.5 -121.5s-63.833 -55.167 -110.5 -66.5l170 -297h-82l-162 289h-217z" />
    <glyph glyph-name="S" unicode="S" horiz-adv-x="596" 
d="M540 176c0 -24.667 -4.66504 -48.3301 -13.998 -70.9971s-23.833 -42.667 -43.5 -60s-44.5 -31.166 -74.5 -41.499s-65.667 -15.5 -107 -15.5c-44.667 0 -88.834 7.16699 -132.501 21.5s-81.834 34.166 -114.501 59.499l41 56c27.333 -20 59 -37.167 95 -51.5
s73 -21.5 111 -21.5c58 0 101 11.5 129 34.5s42 51.833 42 86.5c0 17.333 -3.16699 33.166 -9.5 47.499s-16.833 27.5 -31.5 39.5s-34 22.833 -58 32.5s-53.333 18.5 -88 26.5c-78.667 17.333 -135.334 42.5 -170.001 75.5s-52 72.5 -52 118.5c0 25.333 4.83301 49 14.5 71
s24.334 41.167 44.001 57.5s44.167 29.166 73.5 38.499s64 14 104 14c44 0 87 -6.83301 129 -20.5s80 -32.5 114 -56.5l-41 -56c-26.667 19.333 -57.5 35.666 -92.5 48.999s-71.5 20 -109.5 20c-56 0 -98 -11 -126 -33s-42 -48.667 -42 -80c0 -32 13.333 -59 40 -81
s72 -40.333 136 -55c84 -19.333 143.833 -46 179.5 -80s53.5 -75.667 53.5 -125z" />
    <glyph glyph-name="T" unicode="T" horiz-adv-x="565" 
d="M536 617h-219v-617h-68v617h-220v65h507v-65z" />
    <glyph glyph-name="U" unicode="U" horiz-adv-x="682" 
d="M341 -13c-40 0 -76.167 6.16699 -108.5 18.5s-59.833 29.833 -82.5 52.5s-40.167 50.167 -52.5 82.5s-18.5 68.833 -18.5 109.5v432h68v-428c0 -61.333 16.667 -110.333 50 -147s81.333 -55 144 -55s110.667 18.333 144 55s50 85.667 50 147v428h68v-432
c0 -40.667 -6.16699 -77.167 -18.5 -109.5s-29.833 -59.833 -52.5 -82.5s-50.167 -40.167 -82.5 -52.5s-68.5 -18.5 -108.5 -18.5z" />
    <glyph glyph-name="V" unicode="V" horiz-adv-x="713" 
d="M689 682l-300 -682h-64l-301 682h77l99 -229l22.5 -51.5l29 -68.5l32 -76l30.5 -73.5l25.5 -61.5l16.5 -39h2l16.5 39l25.5 61.5l30.5 73.5l32 76l28.5 68.5c8.66699 21 16 38.167 22 51.5l99 229h77z" />
    <glyph glyph-name="W" unicode="W" horiz-adv-x="945" vert-adv-y="986" 
d="M926 682l-208.998 -681.999h-64l-120 377l-16.5 54l-16.5 57l-15 53.5c-4.66699 17 -8.66699 32.167 -12 45.5h-2l-11.5 -45.5c-4.33301 -17 -9.16602 -34.833 -14.499 -53.5l-16.5 -57l-16.5 -54l-120 -377h-64l-209 682h74l101 -341
c13.333 -44 25.666 -87.667 36.999 -131l29 -113h2l15 54.5l16.5 59.5l16.5 59c5.33301 19.333 10.666 36.666 15.999 51.999l114 360h65l114 -360l15.5 -52l17 -59l16.5 -59.5l15 -54.5h2l29 113c11.333 43.333 23.666 87 36.999 131l101 341h74z" />
    <glyph glyph-name="X" unicode="X" horiz-adv-x="729" 
d="M609 0l-244 300l-245 -300h-91l294 350l-280 332h88l234 -283l233 283h89l-281 -332l294 -350h-91z" />
    <glyph glyph-name="Y" unicode="Y" horiz-adv-x="661" 
d="M365 0h-68v302l-273 380h84l222 -316h2l222 316h83l-272 -380v-302z" />
    <glyph glyph-name="Z" unicode="Z" horiz-adv-x="615" 
d="M551 65v-65h-492v64l391 551v2h-375v65h461v-64l-391 -551v-2h406z" />
    <glyph glyph-name="bracketleft" unicode="[" horiz-adv-x="286" 
d="M138 670v-753h104v-55h-163v863h163v-55h-104z" />
    <glyph glyph-name="backslash" unicode="\" horiz-adv-x="396" 
d="M74 742l300 -782l-52 -20l-300 782z" />
    <glyph glyph-name="bracketright" unicode="]" horiz-adv-x="286" 
d="M207 725v-863h-163v55h103v753h-103v55h163z" />
    <glyph glyph-name="asciicircum" unicode="^" 
d="M519 341l-59 -28l-85.5 152.5l-84.5 153.5h-2l-84.5 -153.5l-85.5 -152.5l-59 28l198 341h64z" />
    <glyph glyph-name="underscore" unicode="_" horiz-adv-x="676" 
d="M59 -56h558v-55h-558v55z" />
    <glyph glyph-name="grave" unicode="`" horiz-adv-x="328" 
d="M174 565l-134 128l52 37l120 -139z" />
    <glyph glyph-name="a" unicode="a" horiz-adv-x="546" 
d="M247 48c22.667 0 43.665 3.66797 62.998 11.001s36.166 17.666 50.499 30.999s25.5 29.333 33.5 48s12 39.667 12 63v42c-23.333 4.66699 -46.666 8.33398 -69.999 11.001s-46.666 4 -69.999 4c-17.333 0 -34.666 -1.66699 -51.999 -5s-33 -9 -47 -17
s-25.333 -18.833 -34 -32.5s-13 -30.834 -13 -51.501c0 -18 3.66699 -33.5 11 -46.5s16.833 -23.833 28.5 -32.5s25.167 -15 40.5 -19s31 -6 47 -6zM264.998 505.001c65.333 0 116.164 -15.999 152.497 -47.999s54.5 -81.333 54.5 -148v-309h-54l-4 77h-2
c-20 -30.667 -45.667 -53.334 -77 -68.001s-65 -22 -101 -22c-25.333 0 -48.833 3.66699 -70.5 11s-40.667 18 -57 32s-29.166 31.167 -38.499 51.5s-14 43.833 -14 70.5c0 30 5.5 55.333 16.5 76s26 37.5 45 50.5s40.667 22.5 65 28.5s50.166 9 77.499 9
c24.667 0 49.334 -1.33301 74.001 -4s49.334 -5.66699 74.001 -9v16c0 44 -12.833 75.667 -38.5 95s-59.5 29 -101.5 29c-29.333 0 -57.833 -4.5 -85.5 -13.5s-53.834 -21.167 -78.501 -36.5l-33 59c30.667 15.333 62.334 28 95.001 38s66.334 15 101.001 15z" />
    <glyph glyph-name="b" unicode="b" horiz-adv-x="638" 
d="M334 51c26 0 50.333 4.66699 73 14s42.167 22.666 58.5 39.999s29.166 37.833 38.499 61.5s14 50.167 14 79.5c0 28.667 -4.66699 55 -14 79s-22.166 44.667 -38.499 62s-35.833 30.666 -58.5 39.999s-47 14 -73 14c-26.667 0 -51.334 -4.66699 -74.001 -14
s-42.167 -22.666 -58.5 -39.999s-29.166 -38 -38.499 -62s-14 -50.333 -14 -79c0 -29.333 4.66699 -55.833 14 -79.5s22.166 -44.167 38.499 -61.5s35.833 -30.666 58.5 -39.999s47.334 -14 74.001 -14zM340 504c34 0 65.833 -6.33398 95.5 -19.001s55.5 -30.5 77.5 -53.5
s39.333 -50.333 52 -82s19 -66.167 19 -103.5s-6.33301 -71.833 -19 -103.5s-30 -59 -52 -82s-47.833 -41 -77.5 -54s-61.5 -19.5 -95.5 -19.5c-40.667 0 -78 8.83301 -112 26.5s-62 41.834 -84 72.501h-2l-4 -86h-54v725h66v-309h2c22 28 49.167 49.667 81.5 65
s67.833 23 106.5 23z" />
    <glyph glyph-name="c" unicode="c" horiz-adv-x="543" 
d="M304 51c30 0 57.002 5.8291 81.002 17.4961s44.667 28.167 62 49.5l47 -44c-23.333 -28 -51 -49.333 -83 -64s-67.667 -22 -107 -22c-35.333 0 -68.166 6.33301 -98.499 19s-56.833 30.5 -79.5 53.5s-40.334 50.333 -53.001 82s-19 66.167 -19 103.5
s6.5 71.833 19.5 103.5s30.667 59 53 82s48.666 40.833 78.999 53.5s63.166 19 98.499 19c40 0 76.333 -7.66699 109 -23s59.667 -35.666 81 -60.999l-48 -45c-17.333 20.667 -37.833 36.834 -61.5 48.501s-50.5 17.5 -80.5 17.5c-26 0 -50.333 -4.66699 -73 -14
s-42.167 -22.666 -58.5 -39.999s-29.166 -38 -38.499 -62s-14 -50.333 -14 -79c0 -29.333 4.66699 -55.833 14 -79.5s22.166 -44.167 38.499 -61.5s35.833 -30.666 58.5 -39.999s47 -14 73 -14z" />
    <glyph glyph-name="d" unicode="d" horiz-adv-x="638" 
d="M304 51c26.667 0 51.167 4.66699 73.5 14s41.833 22.666 58.5 39.999s29.667 37.833 39 61.5s14 50.167 14 79.5c0 28.667 -4.66699 55 -14 79s-22.333 44.667 -39 62s-36.167 30.666 -58.5 39.999s-46.833 14 -73.5 14c-26 0 -50.333 -4.66699 -73 -14
s-42.167 -22.666 -58.5 -39.999s-29.166 -38 -38.499 -62s-14 -50.333 -14 -79c0 -29.333 4.66699 -55.833 14 -79.5s22.166 -44.167 38.499 -61.5s35.833 -30.666 58.5 -39.999s47 -14 73 -14zM554 725l0.000976562 -724.999h-54l-4 86h-2
c-22 -30.667 -49.833 -54.834 -83.5 -72.501s-70.834 -26.5 -111.501 -26.5c-34.667 0 -66.834 6.5 -96.501 19.5s-55.5 31 -77.5 54s-39.333 50.333 -52 82s-19 66.167 -19 103.5s6.33301 71.833 19 103.5s30 59 52 82s47.833 40.833 77.5 53.5s61.834 19 96.501 19
c38 0 73.167 -7.66699 105.5 -23s59.5 -37 81.5 -65h2v309h66z" />
    <glyph glyph-name="e" unicode="e" horiz-adv-x="573" 
d="M291 442c-25.333 0 -47.835 -4.00098 -67.502 -12.001s-36.667 -19.167 -51 -33.5s-25.666 -31.333 -33.999 -51s-13.833 -41.5 -16.5 -65.5h328c-2 23.333 -6.66699 44.833 -14 64.5s-17.666 36.834 -30.999 51.501s-29.5 26 -48.5 34s-40.833 12 -65.5 12z
M516.998 265.999c0 -7.33301 -0.167969 -15.001 -0.500977 -23.001s-0.833008 -15.667 -1.5 -23h-394c2.66699 -24 8.66699 -46.5 18 -67.5s21.833 -39 37.5 -54s33.834 -26.833 54.501 -35.5s43.667 -13 69 -13c26.667 0 53.834 6.33301 81.501 19
s50.167 29.334 67.5 50.001l47 -45c-25.333 -28.667 -55.5 -50.334 -90.5 -65.001s-71.5 -22 -109.5 -22c-36.667 0 -70 6.83301 -100 20.5s-55.5 32.334 -76.5 56.001s-37.167 51.167 -48.5 82.5s-17 64.666 -17 99.999c0 34.667 5.33301 67.667 16 99
s26.167 58.833 46.5 82.5s45.166 42.334 74.499 56.001s62.333 20.5 99 20.5c35.333 0 67 -6 95 -18s51.833 -28.5 71.5 -49.5s34.667 -46 45 -75s15.5 -60.833 15.5 -95.5z" />
    <glyph glyph-name="f" unicode="f" horiz-adv-x="370" 
d="M177 492l162.999 0.000976562v-61h-163v-431h-66v431h-72v61h72v62c0 57.333 11.667 102.166 35 134.499s59 48.5 107 48.5c16.667 0 33.5 -1.33301 50.5 -4s32.833 -6 47.5 -10l-13 -62c-29.333 9.33301 -56 14 -80 14c-29.333 0 -50.166 -10.5 -62.499 -31.5
s-18.5 -50.833 -18.5 -89.5v-62z" />
    <glyph glyph-name="g" unicode="g" horiz-adv-x="583" 
d="M296 -142c53.333 0 96.168 8.33301 128.501 25s48.5 40.667 48.5 72c0 15.333 -4.33301 28.5 -13 39.5s-20.667 20.167 -36 27.5s-33.833 13 -55.5 17s-45.834 6.66699 -72.501 8l-103 6c-22 -8.66699 -39.667 -21 -53 -37s-20 -36.333 -20 -61
c0 -31.333 16.167 -55.333 48.5 -72s74.833 -25 127.5 -25zM296.002 444c-42.667 0 -77 -10 -103 -30s-39 -45.667 -39 -77c0 -30.667 13 -56.167 39 -76.5s60.333 -30.5 103 -30.5c43.333 0 78 10.167 104 30.5s39 45.833 39 76.5c0 31.333 -13 57 -39 77
s-60.667 30 -104 30zM539.002 -45c0 -46 -20.834 -83.166 -62.501 -111.499s-101.834 -42.5 -180.501 -42.5c-76.667 0 -136.167 13.833 -178.5 41.5s-63.5 64.5 -63.5 110.5c0 23.333 6 45.333 18 66s31.667 37.667 59 51v2c-12 8 -21.667 18.167 -29 30.5
s-11 26.833 -11 43.5c0 13.333 3.66699 26.833 11 40.5s18.666 25.834 33.999 36.501v2c-32 30 -48 67.333 -48 112c0 23.333 4.66699 45.166 14 65.499s23 38 41 53s39.833 26.833 65.5 35.5s54.834 13 87.501 13c47.333 0 87.333 -8.66699 120 -26l74 73l43 -44l-68 -66
c26.667 -28.667 40 -63.334 40 -104.001c0 -23.333 -4.66699 -45.166 -14 -65.499s-23 -38 -41 -53s-40 -26.833 -66 -35.5s-55.333 -13 -88 -13c-22.667 0 -43.667 2.16699 -63 6.5s-37 10.166 -53 17.499c-9.33301 -3.33301 -16.666 -8.66602 -21.999 -15.999
s-8 -15.666 -8 -24.999c0 -13.333 5 -23.5 15 -30.5s22.333 -11.167 37 -12.5c5.33301 -0.666992 16.5 -1.33398 33.5 -2.00098s37.167 -1.66699 60.5 -3c78.667 -4.66699 138.834 -19.334 180.501 -44.001s62.5 -60 62.5 -106z" />
    <glyph glyph-name="h" unicode="h" horiz-adv-x="593" 
d="M331 504c31.333 0 58.8311 -5.66699 82.498 -17s43.334 -26.666 59.001 -45.999s27.334 -42 35.001 -68s11.5 -53.667 11.5 -83v-290h-66v269c0 23.333 -2.33301 45.5 -7 66.5s-12.5 39.333 -23.5 55s-25.333 28.167 -43 37.5s-39.5 14 -65.5 14s-49.167 -5 -69.5 -15
s-37.5 -23.333 -51.5 -40s-24.667 -36 -32 -58s-11 -45 -11 -69v-260h-66v725h66v-302h2c22 27.333 48.667 47.666 80 60.999s64.333 20 99 20z" />
    <glyph glyph-name="i" unicode="i" horiz-adv-x="235" 
d="M84 0h66v492h-66v-492zM159 639c0 -11.333 -3.83301 -21 -11.5 -29s-17.834 -12 -30.501 -12c-12 0 -21.833 4 -29.5 12s-11.5 17.667 -11.5 29s3.83301 21.166 11.5 29.499s17.5 12.5 29.5 12.5c12.667 0 22.834 -4.16699 30.501 -12.5s11.5 -18.166 11.5 -29.499z" />
    <glyph glyph-name="j" unicode="j" horiz-adv-x="286" 
d="M207 639c0 -11.333 -4 -21 -12 -29s-17.667 -12 -29 -12c-12 0 -22 4 -30 12s-12 17.667 -12 29c0 12 4 22 12 30s18 12 30 12c11.333 0 21 -4 29 -12s12 -18 12 -30zM133 -17c0 -14 -0.999023 -28.166 -2.99902 -42.499s-5.83301 -27.333 -11.5 -39
s-13.834 -21.167 -24.501 -28.5s-24.667 -11 -42 -11c-14 0 -27.833 1.16699 -41.5 3.5s-27.167 5.16602 -40.5 8.49902l-11 -60c16 -4 32.167 -7.33301 48.5 -10s32.833 -4 49.5 -4c26.667 0 49.167 5.16699 67.5 15.5s33 24 44 41s18.833 36.5 23.5 58.5s7 44.667 7 68
v509h-66v-509z" />
    <glyph glyph-name="k" unicode="k" horiz-adv-x="543" 
d="M150 0h-66v725h66v-490h2l274 257h84l-232 -216l246 -276h-86l-206 234l-82 -72v-162z" />
    <glyph glyph-name="l" unicode="l" horiz-adv-x="234" 
d="M84 725h66v-725h-66v725z" />
    <glyph glyph-name="m" unicode="m" horiz-adv-x="865" 
d="M621 504c23.333 0 45.335 -4.5 66.002 -13.5s38.667 -22.167 54 -39.5s27.5 -39.166 36.5 -65.499s13.5 -56.833 13.5 -91.5v-294h-66v273c0 59.333 -10.5 102.333 -31.5 129s-50.5 40 -88.5 40c-22.667 0 -42.334 -4.5 -59.001 -13.5s-30.667 -21.5 -42 -37.5
s-19.833 -34.833 -25.5 -56.5s-8.5 -44.834 -8.5 -69.501v-265h-66v273c0 59.333 -10.5 102.333 -31.5 129s-50.5 40 -88.5 40c-22 0 -41.5 -4.5 -58.5 -13.5s-31 -21.5 -42 -37.5s-19.333 -34.833 -25 -56.5s-8.5 -44.834 -8.5 -69.501v-2v-263h-66v492h54l3 -63h2
c19.333 24.667 42.666 43.334 69.999 56.001s56.666 19 87.999 19c32 0 60.833 -7.83301 86.5 -23.5s45.834 -39.5 60.501 -71.5h2c19.333 31.333 44 55 74 71s62.333 24 97 24z" />
    <glyph glyph-name="n" unicode="n" horiz-adv-x="593" 
d="M331 504c24.667 0 48.501 -4.33301 71.501 -13s43 -21.667 60 -39s30.667 -39.5 41 -66.5s15.5 -58.833 15.5 -95.5v-290h-66v269c0 60 -12.833 103.833 -38.5 131.5s-59.167 41.5 -100.5 41.5c-26 0 -49.167 -5 -69.5 -15s-37.5 -23.5 -51.5 -40.5
s-24.667 -36.5 -32 -58.5s-11 -44.667 -11 -68v-260h-66v492h54l4 -80h2c21.333 30 48.166 52.833 80.499 68.5s67.833 23.5 106.5 23.5z" />
    <glyph glyph-name="o" unicode="o" horiz-adv-x="609" 
d="M304 51c28 0 53.5 5 76.5 15s42.5 23.833 58.5 41.5s28.333 38.334 37 62.001s13 49.167 13 76.5s-4.33301 52.833 -13 76.5s-21 44.334 -37 62.001s-35.5 31.5 -58.5 41.5s-48.5 15 -76.5 15s-53.333 -5 -76 -15s-42 -23.833 -58 -41.5s-28.333 -38.334 -37 -62.001
s-13 -49.167 -13 -76.5s4.33301 -52.833 13 -76.5s21 -44.334 37 -62.001s35.333 -31.5 58 -41.5s48 -15 76 -15zM304 504c36.667 0 70.334 -6.66699 101.001 -20s57.167 -31.666 79.5 -54.999s39.666 -50.666 51.999 -81.999s18.5 -65 18.5 -101
s-6.16699 -69.667 -18.5 -101s-29.666 -58.666 -51.999 -81.999s-48.833 -41.666 -79.5 -54.999s-64.334 -20 -101.001 -20s-70.334 6.66699 -101.001 20s-57 31.666 -79 54.999s-39.167 50.666 -51.5 81.999s-18.5 65 -18.5 101s6.16699 69.667 18.5 101
s29.5 58.666 51.5 81.999s48.333 41.666 79 54.999s64.334 20 101.001 20z" />
    <glyph glyph-name="p" unicode="p" horiz-adv-x="638" 
d="M334 51c26 0 50.333 4.66699 73 14s42.167 22.666 58.5 39.999s29.166 37.833 38.499 61.5s14 50.167 14 79.5c0 28.667 -4.66699 55 -14 79s-22.166 44.667 -38.499 62s-35.833 30.666 -58.5 39.999s-47 14 -73 14c-26.667 0 -51.334 -4.66699 -74.001 -14
s-42.167 -22.666 -58.5 -39.999s-29.166 -38 -38.499 -62s-14 -50.333 -14 -79c0 -29.333 4.66699 -55.833 14 -79.5s22.166 -44.167 38.499 -61.5s35.833 -30.666 58.5 -39.999s47.334 -14 74.001 -14zM340 505c34 0 65.833 -6.50098 95.5 -19.501s55.5 -31 77.5 -54
s39.333 -50.333 52 -82s19 -66.167 19 -103.5s-6.33301 -71.833 -19 -103.5s-30 -59 -52 -82s-47.833 -40.833 -77.5 -53.5s-61.5 -19 -95.5 -19c-38.667 0 -74.167 7.66699 -106.5 23s-59.5 37 -81.5 65h-2v-276h-66v692h54l4 -86h2c22 30.667 50 54.834 84 72.501
s71.333 26.5 112 26.5z" />
    <glyph glyph-name="q" unicode="q" horiz-adv-x="638" 
d="M120 246c0 -29.333 4.66699 -55.833 14 -79.5s22.166 -44.167 38.499 -61.5s35.833 -30.666 58.5 -39.999s47 -14 73 -14c26.667 0 51.167 4.66699 73.5 14s41.833 22.666 58.5 39.999s29.667 37.833 39 61.5s14 50.167 14 79.5c0 28.667 -4.66699 55 -14 79
s-22.333 44.667 -39 62s-36.167 30.666 -58.5 39.999s-46.833 14 -73.5 14c-26 0 -50.333 -4.66699 -73 -14s-42.167 -22.666 -58.5 -39.999s-29.166 -38 -38.499 -62s-14 -50.333 -14 -79zM54 246c0 37.333 6.33203 71.834 18.999 103.501s30 59 52 82s47.833 41 77.5 54
s61.834 19.5 96.501 19.5c40.667 0 77.834 -8.83301 111.501 -26.5s61.5 -41.834 83.5 -72.501h2l4 86h54v-692h-66v276h-2c-22 -28 -49.167 -49.667 -81.5 -65s-67.5 -23 -105.5 -23c-34.667 0 -66.834 6.33301 -96.501 19s-55.5 30.5 -77.5 53.5s-39.333 50.333 -52 82
s-19 66.167 -19 103.5z" />
    <glyph glyph-name="r" unicode="r" horiz-adv-x="374" 
d="M282 504c11.333 0 22.998 -1 34.998 -3s23 -4.33301 33 -7l-13 -68c-12 3.33301 -24.167 6.33301 -36.5 9s-25.166 4 -38.499 4c-19.333 0 -36.166 -4.83301 -50.499 -14.5s-26 -23 -35 -40s-15.667 -37.167 -20 -60.5s-6.5 -48.333 -6.5 -75v-249h-66v492h54l4 -67h2
c30.667 52.667 76.667 79 138 79z" />
    <glyph glyph-name="s" unicode="s" horiz-adv-x="477" 
d="M236 48c12.667 0 25.999 0.998047 39.999 2.99805s27 6 39 12s22 14 30 24s12 23 12 39c0 16.667 -4.66699 30.667 -14 42s-20.666 20.833 -33.999 28.5s-28 13.834 -44 18.501s-30.333 8.66699 -43 12c-18.667 4.66699 -37.5 10.667 -56.5 18s-36 16.5 -51 27.5
s-27.333 24.5 -37 40.5s-14.5 35.333 -14.5 58c0 24 5.16699 44.5 15.5 61.5s23.833 30.667 40.5 41s35.334 18 56.001 23s41.334 7.5 62.001 7.5c31.333 0 63.333 -4.5 96 -13.5s61.667 -22.5 87 -40.5l-38 -54c-20.667 14.667 -43.5 26.167 -68.5 34.5
s-50.167 12.5 -75.5 12.5c-10.667 0 -22.334 -1.16699 -35.001 -3.5s-24.5 -6.16602 -35.5 -11.499s-20.167 -12.5 -27.5 -21.5s-11 -20.5 -11 -34.5c0 -14.667 4.16699 -27 12.5 -37s18.5 -18.333 30.5 -25s24.833 -12.167 38.5 -16.5s26.167 -7.83301 37.5 -10.5
c20 -5.33301 40.333 -11.833 61 -19.5s39.5 -17.5 56.5 -29.5s30.833 -26.667 41.5 -44s16 -38 16 -62c0 -26 -5.5 -48 -16.5 -66s-25.333 -32.5 -43 -43.5s-37.5 -19 -59.5 -24s-44.333 -7.5 -67 -7.5c-14.667 0 -30.667 1.33301 -48 4s-34.5 6.66699 -51.5 12
s-33.333 12 -49 20s-28.834 17 -39.501 27l38 54c19.333 -17.333 42.5 -31 69.5 -41s53.5 -15 79.5 -15z" />
    <glyph glyph-name="t" unicode="t" horiz-adv-x="387" 
d="M232 -13c-40 0 -68.999 11 -86.999 33s-27 52.333 -27 91v320h-82v61h82v166h66v-166h153v-61h-153v-309c0 -19.333 3.83301 -36.333 11.5 -51s22.5 -22 44.5 -22c16 0 32.333 1.5 49 4.5s32.667 6.83301 48 11.5l11 -62c-16.667 -5.33301 -35.834 -9.33301 -57.501 -12
s-41.167 -4 -58.5 -4z" />
    <glyph glyph-name="u" unicode="u" horiz-adv-x="593" 
d="M509 492l-0.000976562 -492h-54l-4 80h-2c-21.333 -30 -48.166 -53 -80.499 -69s-67.833 -24 -106.5 -24c-25.333 0 -49.333 4.33301 -72 13s-42.667 21.834 -60 39.501s-31 40 -41 67s-15 58.833 -15 95.5v290h66v-269c0 -60.667 12.667 -104.834 38 -132.501
s59 -41.5 101 -41.5c26 0 49.167 5.16699 69.5 15.5s37.5 24 51.5 41s24.667 36.5 32 58.5s11 44.667 11 68v260h66z" />
    <glyph glyph-name="v" unicode="v" horiz-adv-x="541" 
d="M517 492l-215.001 -492h-63l-215 492h75l96 -224l22.5 -53.5l21.5 -52.5l18 -45.5l13 -32.5h2c2.66699 8 6.83398 18.833 12.501 32.5l18.5 45.5l21 52l22 54l96 224h75z" />
    <glyph glyph-name="w" unicode="w" horiz-adv-x="747" 
d="M718 492l-149.998 -492.001h-63l-94 283c-6.66699 18.667 -13 38.667 -19 60l-17 60h-2l-17.5 -60l-18.5 -60l-95 -283h-63l-150 492h72l74 -250c8 -26.667 15.333 -53.167 22 -79.5s12 -48.166 16 -65.499h2l20 70c7.33301 25.333 14.666 48.666 21.999 69.999l85 255
h63l85 -255c7.33301 -21.333 14.666 -44.666 21.999 -69.999l21 -70h2l15.5 65.5c6.33301 26.333 13.5 52.833 21.5 79.5l74 250h72z" />
    <glyph glyph-name="x" unicode="x" horiz-adv-x="580" 
d="M453 0l-163 202l-163 -202h-88l213 248l-207 244h84l161 -198l161 198h84l-207 -244l213 -248h-88z" />
    <glyph glyph-name="y" unicode="y" horiz-adv-x="546" 
d="M184 -200c-13.333 0 -25.832 1.16699 -37.499 3.5s-22.834 5.16602 -33.501 8.49902l11 60c11.333 -3.33301 21.833 -5.83301 31.5 -7.5s19.5 -2.5 29.5 -2.5c18 0 32.5 7 43.5 21s22.167 36.667 33.5 68l15 45l-253 496h77l204 -411h2l143 411h72l-201 -564
c-9.33301 -25.333 -18.833 -46.166 -28.5 -62.499s-20 -29.333 -31 -39s-22.833 -16.5 -35.5 -20.5s-26.667 -6 -42 -6z" />
    <glyph glyph-name="z" unicode="z" horiz-adv-x="489" 
d="M420 61v-61h-361v62l266 367v2h-255v61h339v-62l-267 -367v-2h278z" />
    <glyph glyph-name="braceleft" unicode="{" horiz-adv-x="313" 
d="M184 152v-129.001c0 -18 1 -34 3 -48s6.16699 -25.667 12.5 -35s15 -16.333 26 -21s25.5 -7 43.5 -7v-50c-50.667 0 -87.5 12.333 -110.5 37s-34.5 66 -34.5 124v162c0 30 -5 51.333 -15 64s-27 19 -51 19h-14v51h14c24 0 41 6.16699 51 18.5s15 33.5 15 63.5v163
c0 58 11.5 99.333 34.5 124s59.833 37 110.5 37v-50c-18 0 -32.5 -2.33301 -43.5 -7s-19.667 -11.667 -26 -21s-10.5 -21 -12.5 -35s-3 -30 -3 -48v-129c0 -21.333 -0.333008 -39.5 -1 -54.5s-2.5 -28 -5.5 -39s-7.66699 -20.167 -14 -27.5s-15.166 -14 -26.499 -20v-2
c11.333 -5.33301 20.166 -11.666 26.499 -18.999s11 -16.5 14 -27.5s4.83301 -24.167 5.5 -39.5s1 -33.333 1 -54z" />
    <glyph glyph-name="bar" unicode="|" horiz-adv-x="267" 
d="M163 -200h-59v925h59v-925z" />
    <glyph glyph-name="braceright" unicode="}" horiz-adv-x="313" 
d="M269 319v-50.999h-13c-24.667 0 -42 -6.33301 -52 -19s-15 -34 -15 -64v-162c0 -58 -11.5 -99.333 -34.5 -124s-59.833 -37 -110.5 -37v50c18 0 32.5 2.33301 43.5 7s19.667 11.667 26 21s10.5 21 12.5 35s3 30 3 48v129c0 20.667 0.333008 38.667 1 54
s2.5 28.5 5.5 39.5s7.66699 20.167 14 27.5s15.166 13.666 26.499 18.999v2c-11.333 6 -20.166 12.667 -26.499 20s-11 16.5 -14 27.5s-4.83301 24 -5.5 39s-1 33.167 -1 54.5v129c0 18 -1 34 -3 48s-6.16699 25.667 -12.5 35s-15 16.333 -26 21s-25.5 7 -43.5 7v50
c50.667 0 87.5 -12.333 110.5 -37s34.5 -66 34.5 -124v-163c0 -30 5 -51.167 15 -63.5s27.333 -18.5 52 -18.5h13z" />
    <glyph glyph-name="asciitilde" unicode="~" horiz-adv-x="555" 
d="M174 303c16.667 0 32.833 -2.83496 48.5 -8.50195s31 -12 46 -19s29.833 -13.333 44.5 -19s29 -8.5 43 -8.5c7.33301 0 14.5 1.83301 21.5 5.5s13.5 8.16699 19.5 13.5s11.667 11.333 17 18l13 18l40 -31c-5.33301 -10 -12 -20 -20 -30s-17 -18.833 -27 -26.5
s-20.833 -14 -32.5 -19s-23.5 -7.5 -35.5 -7.5c-16.667 0 -32.834 2.83301 -48.501 8.5s-31 12 -46 19s-29.833 13.333 -44.5 19s-29 8.5 -43 8.5c-7.33301 0 -14.5 -1.83301 -21.5 -5.5s-13.5 -8.16699 -19.5 -13.5s-11.667 -11.166 -17 -17.499
s-9.66602 -12.166 -12.999 -17.499l-40 30c5.33301 10 12 20 20 30s17 19 27 27s20.833 14.333 32.5 19s23.5 7 35.5 7z" />
    <glyph glyph-name="uni00A0" unicode="&#xa0;" horiz-adv-x="215" 
 />
    <glyph glyph-name="exclamdown" unicode="&#xa1;" horiz-adv-x="226" 
d="M157 460c0 -12.667 -4.16699 -23.334 -12.5 -32.001s-18.833 -13 -31.5 -13s-23.167 4.33301 -31.5 13s-12.5 19.334 -12.5 32.001s4.16699 23.167 12.5 31.5s18.833 12.5 31.5 12.5s23.167 -4.16699 31.5 -12.5s12.5 -18.833 12.5 -31.5zM150 -190l-13 506h-48l-13 -506
h74z" />
    <glyph glyph-name="cent" unicode="&#xa2;" 
d="M133 343c0 -24 3.33301 -46.833 10 -68.5s16.334 -41.167 29.001 -58.5s28.5 -32 47.5 -44s40.5 -20 64.5 -24v390c-24 -4 -45.5 -12 -64.5 -24s-34.833 -26.667 -47.5 -44s-22.334 -36.833 -29.001 -58.5s-10 -44.5 -10 -68.5zM339 0l-55 0.000976562v87
c-32.667 4.66699 -62.334 14.5 -89.001 29.5s-49.334 34 -68.001 57s-33 49 -43 78s-15 59.5 -15 91.5s5 62.5 15 91.5s24.333 55 43 78s41.334 42 68.001 57s56.334 24.833 89.001 29.5v83h55v-81c33.333 -2.66699 64.666 -11.167 93.999 -25.5
s54.666 -34.166 75.999 -59.499l-48 -43c-15.333 19.333 -33.5 34.666 -54.5 45.999s-43.5 18.333 -67.5 21v-394c24 2.66699 46.5 9.66699 67.5 21s39.167 26.666 54.5 45.999l48 -44c-21.333 -25.333 -46.666 -45 -75.999 -59s-60.666 -22.333 -93.999 -25v-85z" />
    <glyph glyph-name="sterling" unicode="&#xa3;" 
d="M531 57v-57.001h-484v46l93 8v263h-92v56h92v68c0 32 3.83301 61.833 11.5 89.5s19.5 51.667 35.5 72s36.5 36.5 61.5 48.5s54.833 18 89.5 18c34 0 66.333 -7.83301 97 -23.5s55.667 -38.167 75 -67.5l-44 -43c-14 22.667 -31.833 40.834 -53.5 54.501
s-46.167 20.5 -73.5 20.5c-24.667 0 -45.667 -4.66699 -63 -14s-31.333 -21.833 -42 -37.5s-18.5 -33.667 -23.5 -54s-7.5 -41.5 -7.5 -63.5v-68h214v-56h-214v-260h328z" />
    <glyph glyph-name="currency" unicode="&#xa4;" horiz-adv-x="598" 
d="M294 127c28 0 54.167 5.16699 78.5 15.5s45.5 24.5 63.5 42.5s32.333 39.167 43 63.5s16 50.5 16 78.5c0 27.333 -5.33301 53.166 -16 77.499s-25 45.5 -43 63.5s-39.167 32.333 -63.5 43s-50.5 16 -78.5 16c-27.333 0 -53.166 -5.33301 -77.499 -16s-45.5 -25 -63.5 -43
s-32.333 -39.167 -43 -63.5s-16 -50.166 -16 -77.499c0 -28 5.33301 -54.167 16 -78.5s25 -45.5 43 -63.5s39.167 -32.167 63.5 -42.5s50.166 -15.5 77.499 -15.5zM294 71c-30 0 -59.333 5.33301 -88 16s-54.667 26 -78 46l-53 -54l-39 39l55 55
c-17.333 22 -30.333 46.167 -39 72.5s-13 53.5 -13 81.5c0 32 5.5 62.667 16.5 92s27.167 55.666 48.5 78.999l-66 66l39 39l69 -68c21.333 15.333 44.666 27 69.999 35s51.333 12 78 12c57.333 0 108.666 -17 153.999 -51l73 72l39 -39l-71 -71
c19.333 -23.333 34.333 -49.166 45 -77.499s16 -57.833 16 -88.5c0 -26.667 -4.16699 -52.834 -12.5 -78.501s-20.166 -49.167 -35.499 -70.5l60 -60l-39 -39l-58 58c-23.333 -21.333 -49.666 -37.666 -78.999 -48.999s-60 -17 -92 -17z" />
    <glyph glyph-name="_380" unicode="&#xa5;" 
d="M540 373v-56h-219v-76h219v-55h-219v-186h-64v186h-219v55h219v76h-219v56h183l-199 285h78l188 -278h2l188 278h78l-199 -285h183z" />
    <glyph glyph-name="brokenbar" unicode="&#xa6;" horiz-adv-x="267" 
d="M163 -138h-59v320h59v-320zM163 404h-59v321h59v-321z" />
    <glyph glyph-name="section" unicode="&#xa7;" horiz-adv-x="576" 
d="M128 320c0 -29.333 8.83398 -52.168 26.501 -68.501s39.167 -29.5 64.5 -39.5s51.666 -18 78.999 -24s51 -13 71 -21c23.333 7.33301 42.333 19.5 57 36.5s22 38.167 22 63.5c0 28.667 -8.83301 51.334 -26.5 68.001s-39 30 -64 40s-51.333 17.833 -79 23.5
s-51.5 12.5 -71.5 20.5c-23.333 -7.33301 -42.333 -19.333 -57 -36s-22 -37.667 -22 -63zM493.001 18.998c0 -28.667 -6 -52.9961 -18 -72.9961s-27.667 -36.333 -47 -49s-41.166 -21.834 -65.499 -27.501s-48.833 -8.5 -73.5 -8.5c-38 0 -75.167 5.83301 -111.5 17.5
s-69.833 28.167 -100.5 49.5l36 49c25.333 -18 53.166 -32.5 83.499 -43.5s61.166 -16.5 92.499 -16.5c15.333 0 31.5 1.5 48.5 4.5s32.667 8.33301 47 16s26.166 17.834 35.499 30.501s14 28.667 14 48s-5.16699 35.666 -15.5 48.999s-23.166 24.5 -38.499 33.5
s-32 16.167 -50 21.5l-49 14c-24 6 -48.5 13.333 -73.5 22s-47.667 20.167 -68 34.5s-37.166 31.833 -50.499 52.5s-20 45.667 -20 75c0 28.667 7 54 21 76s33.667 39.667 59 53v2c-20.667 14.667 -36.834 31.667 -48.501 51s-17.5 41.666 -17.5 66.999c0 28.667 6 53 18 73
s27.667 36.333 47 49s41.166 21.834 65.499 27.501s49.166 8.5 74.499 8.5c37.333 0 74.166 -5.83301 110.499 -17.5s69.833 -28.167 100.5 -49.5l-35 -49c-25.333 18 -53.166 32.5 -83.499 43.5s-61.166 16.5 -92.499 16.5c-15.333 0 -31.666 -1.5 -48.999 -4.5
s-33.166 -8.33301 -47.499 -16s-26.166 -17.834 -35.499 -30.501s-14 -28.334 -14 -47.001c0 -19.333 5.16699 -35.833 15.5 -49.5s23.166 -25 38.499 -34s31.833 -16.167 49.5 -21.5s34.167 -10 49.5 -14c24 -6 48.5 -13.333 73.5 -22s47.667 -20.167 68 -34.5
s37.166 -31.833 50.499 -52.5s20 -45.334 20 -74.001c0 -29.333 -6.83301 -55 -20.5 -77s-33.5 -39.667 -59.5 -53v-2c20.667 -14 36.834 -30.833 48.501 -50.5s17.5 -42.167 17.5 -67.5z" />
    <glyph glyph-name="dieresis" unicode="&#xa8;" horiz-adv-x="328" 
d="M47 639c0 12.667 4.16699 23.334 12.5 32.001s18.833 13 31.5 13s23.167 -4.33301 31.5 -13s12.5 -19.334 12.5 -32.001s-4.16699 -23.334 -12.5 -32.001s-18.833 -13 -31.5 -13s-23.167 4.33301 -31.5 13s-12.5 19.334 -12.5 32.001zM213 639
c0 12.667 4.16699 23.334 12.5 32.001s18.833 13 31.5 13s23.167 -4.33301 31.5 -13s12.5 -19.334 12.5 -32.001s-4.16699 -23.334 -12.5 -32.001s-18.833 -13 -31.5 -13s-23.167 4.33301 -31.5 13s-12.5 19.334 -12.5 32.001z" />
    <glyph glyph-name="copyright" unicode="&#xa9;" horiz-adv-x="823" 
d="M412 -29c44 0 85.667 8.5 125 25.5s73.5 40 102.5 69s52 63.167 69 102.5s25.5 81 25.5 125c0 44.667 -8.5 86.5 -25.5 125.5s-40 73 -69 102s-63.167 52 -102.5 69s-81 25.5 -125 25.5c-44.667 0 -86.5 -8.5 -125.5 -25.5s-73 -40 -102 -69s-52 -63 -69 -102
s-25.5 -80.833 -25.5 -125.5c0 -44 8.5 -85.667 25.5 -125s40 -73.5 69 -102.5s63 -52 102 -69s80.833 -25.5 125.5 -25.5zM412 656c50 0 97 -9.5 141 -28.5s82.333 -44.833 115 -77.5s58.5 -71.167 77.5 -115.5s28.5 -91.5 28.5 -141.5s-9.5 -97 -28.5 -141
s-44.833 -82.333 -77.5 -115s-71 -58.5 -115 -77.5s-91 -28.5 -141 -28.5s-97.167 9.5 -141.5 28.5s-82.833 44.833 -115.5 77.5s-58.5 71 -77.5 115s-28.5 91 -28.5 141s9.5 97.167 28.5 141.5s44.833 82.833 77.5 115.5s71.167 58.5 115.5 77.5s91.5 28.5 141.5 28.5z
M416 134c23.333 0 45.499 4.82812 66.499 14.4951s38.5 23.5 52.5 41.5l38 -32c-19.333 -23.333 -42.833 -41 -70.5 -53s-56.5 -18 -86.5 -18c-29.333 0 -56.333 5.33301 -81 16s-46 25.334 -64 44.001s-32 40.5 -42 65.5s-15 51.833 -15 80.5s5 55.667 15 81
s24 47.333 42 66s39.333 33.334 64 44.001s51.667 16 81 16c30 0 58.5 -5.83301 85.5 -17.5s50.167 -28.834 69.5 -51.501l-37 -33c-14.667 18 -32.167 31.667 -52.5 41s-42.166 14 -65.499 14c-22.667 0 -43.334 -4.16699 -62.001 -12.5s-34.834 -19.666 -48.501 -33.999
s-24.167 -31.166 -31.5 -50.499s-11 -40.333 -11 -63c0 -22 3.66699 -42.667 11 -62s17.833 -36.166 31.5 -50.499s29.834 -25.666 48.501 -33.999s39.334 -12.5 62.001 -12.5z" />
    <glyph glyph-name="ordfeminine" unicode="&#xaa;" horiz-adv-x="402" 
d="M187 362c32 0 58.999 10.001 80.999 30.001s33 46.667 33 80v29c-16.667 3.33301 -33.167 6 -49.5 8s-33.166 3 -50.499 3c-12.667 0 -25.167 -1.16699 -37.5 -3.5s-23.5 -6.5 -33.5 -12.5s-18.167 -13.833 -24.5 -23.5s-9.5 -21.834 -9.5 -36.501
c0 -12.667 2.5 -23.667 7.5 -33s11.833 -17 20.5 -23s18.5 -10.5 29.5 -13.5s22.167 -4.5 33.5 -4.5zM199.999 688.001c46.667 0 82.999 -11.332 108.999 -33.999s39 -58 39 -106v-221h-39l-2 53h-3c-14.667 -20.667 -33 -36.167 -55 -46.5s-45.667 -15.5 -71 -15.5
c-36 0 -66.5 10.167 -91.5 30.5s-37.5 49.5 -37.5 87.5c0 21.333 4 39.5 12 54.5s18.667 27.167 32 36.5s28.833 16.166 46.5 20.499s36.167 6.5 55.5 6.5c17.333 0 35 -1 53 -3s35.667 -4.33301 53 -7c0 34.667 -7.66699 60.167 -23 76.5s-41 24.5 -77 24.5
c-21.333 0 -41.833 -3.33301 -61.5 -10s-38.167 -15.667 -55.5 -27l-25 43c22 10.667 44.833 19.5 68.5 26.5s47.834 10.5 72.501 10.5z" />
    <glyph glyph-name="guillemotleft" unicode="&#xab;" horiz-adv-x="428" 
d="M100 246l139 -214l-45 -24l-155 238l155 238l45 -24zM240 246l139 -214l-45 -24l-155 238l155 238l45 -24z" />
    <glyph glyph-name="logicalnot" unicode="&#xac;" horiz-adv-x="606" 
d="M557 412v-280h-66v219h-442v61h508z" />
    <glyph glyph-name="uni00AD" unicode="&#xad;" horiz-adv-x="343" 
d="M49 301h245v-59h-245v59z" />
    <glyph glyph-name="registered" unicode="&#xae;" horiz-adv-x="823" 
d="M412 -29c44 0 85.667 8.5 125 25.5s73.5 40 102.5 69s52 63.167 69 102.5s25.5 81 25.5 125c0 44.667 -8.5 86.5 -25.5 125.5s-40 73 -69 102s-63.167 52 -102.5 69s-81 25.5 -125 25.5c-44.667 0 -86.5 -8.5 -125.5 -25.5s-73 -40 -102 -69s-52 -63 -69 -102
s-25.5 -80.833 -25.5 -125.5c0 -44 8.5 -85.667 25.5 -125s40 -73.5 69 -102.5s63 -52 102 -69s80.833 -25.5 125.5 -25.5zM412 656c50 0 97 -9.5 141 -28.5s82.333 -44.833 115 -77.5s58.5 -71.167 77.5 -115.5s28.5 -91.5 28.5 -141.5s-9.5 -97 -28.5 -141
s-44.833 -82.333 -77.5 -115s-71 -58.5 -115 -77.5s-91 -28.5 -141 -28.5s-97.167 9.5 -141.5 28.5s-82.833 44.833 -115.5 77.5s-58.5 71 -77.5 115s-28.5 91 -28.5 141s9.5 97.167 28.5 141.5s44.833 82.833 77.5 115.5s71.167 58.5 115.5 77.5s91.5 28.5 141.5 28.5z
M443 307c23.333 0 43 5.33301 59 16s24 28.667 24 54c0 26 -8 44.167 -24 54.5s-35.667 15.5 -59 15.5h-120v-140h120zM575 377c0 -27.333 -7.5 -50.667 -22.5 -70s-35.5 -32.666 -61.5 -39.999l100 -175h-58l-95 168h-115v-164h-49v399h169c18.667 0 36 -2.5 52 -7.5
s30 -12.333 42 -22s21.333 -21.834 28 -36.501s10 -32 10 -52z" />
    <glyph glyph-name="macron" unicode="&#xaf;" horiz-adv-x="328" 
d="M29 652h270v-55h-270v55z" />
    <glyph glyph-name="degree" unicode="&#xb0;" horiz-adv-x="401" 
d="M201 436c30.667 0 55 9.66699 73 29s27 44 27 74s-9.16699 54.5 -27.5 73.5s-42.5 28.5 -72.5 28.5c-30.667 0 -55.167 -9.5 -73.5 -28.5s-27.5 -43.5 -27.5 -73.5s9 -54.667 27 -74s42.667 -29 74 -29zM201 694c22 0 42.5 -3.83301 61.5 -11.5s35.5 -18.5 49.5 -32.5
s25 -30.5 33 -49.5s12 -39.5 12 -61.5s-4 -42.5 -12 -61.5s-19 -35.5 -33 -49.5s-30.5 -25 -49.5 -33s-39.5 -12 -61.5 -12s-42.667 4 -62 12s-36 19 -50 33s-25 30.5 -33 49.5s-12 39.5 -12 61.5s4 42.5 12 61.5s19 35.5 33 49.5s30.667 24.833 50 32.5s40 11.5 62 11.5z
" />
    <glyph glyph-name="plusminus" unicode="&#xb1;" 
d="M511 318h-191v-193h-62v193h-191v58h191v193h62v-193h191v-58zM511 59h-444v-59h444v59z" />
    <glyph glyph-name="twosuperior" unicode="&#xb2;" horiz-adv-x="354" 
d="M126 480l177.001 -0.000976562v-53h-260v49l139 143c21.333 21.333 37.833 39.833 49.5 55.5s17.5 32.167 17.5 49.5s-6 32.5 -18 45.5s-30.667 19.5 -56 19.5c-24.667 0 -43 -7 -55 -21s-19.667 -31.667 -23 -53l-57 14c5.33301 33.333 19.666 60.333 42.999 81
s54 31 92 31c42 0 74.333 -11.5 97 -34.5s34 -50.833 34 -83.5c0 -25.333 -7.66699 -49.166 -23 -71.499s-34 -44.5 -56 -66.5l-101 -103v-2z" />
    <glyph glyph-name="threesuperior" unicode="&#xb3;" horiz-adv-x="370" 
d="M322 539c0 -36 -12.335 -64.998 -37.002 -86.998s-59 -33 -103 -33c-27.333 0 -52.666 4.33301 -75.999 13s-42.666 20 -57.999 34l41 39c10.667 -10 24 -18 40 -24s33 -9 51 -9c28 0 48.833 6 62.5 18s20.5 28.667 20.5 50c0 20.667 -7 37.167 -21 49.5
s-37 18.5 -69 18.5h-46v53h46c28.667 0 50 6.16699 64 18.5s21 28.166 21 47.499c0 18 -6.33301 32.667 -19 44s-33 17 -61 17c-17.333 0 -33 -2.66699 -47 -8s-27.333 -13 -40 -23l-41 41c18 13.333 37.5 23.833 58.5 31.5s44.5 11.5 70.5 11.5
c45.333 0 79.333 -10.667 102 -32s34 -48 34 -80c0 -19.333 -4.83301 -36.833 -14.5 -52.5s-23.167 -28.167 -40.5 -37.5v-2c21.333 -10.667 37 -24.834 47 -42.501s15 -36.167 15 -55.5z" />
    <glyph glyph-name="acute" unicode="&#xb4;" horiz-adv-x="328" 
d="M111 591l119 139l52 -37l-134 -128z" />
    <glyph glyph-name="mu" unicode="&#xb5;" horiz-adv-x="593" 
d="M519 492l-0.00195312 -492h-54l-4 78h-2c-21.333 -30 -47.666 -52.667 -78.999 -68s-65 -23 -101 -23c-23.333 0 -46.166 4.33301 -68.499 13s-41.833 21.667 -58.5 39h-2v-239h-66v692h66v-269c0 -23.333 2.33301 -45.5 7 -66.5s12.334 -39.5 23.001 -55.5
s25 -28.667 43 -38s40 -14 66 -14c25.333 0 48.166 5 68.499 15s37.5 23.5 51.5 40.5s24.833 36.5 32.5 58.5s11.5 45 11.5 69v260h66z" />
    <glyph glyph-name="paragraph" unicode="&#xb6;" horiz-adv-x="572" 
d="M488 682v-820.002h-60v765h-80v-765h-59v424h-32c-30 0 -57.833 4.5 -83.5 13.5s-48.167 22 -67.5 39s-34.5 37.833 -45.5 62.5s-16.5 52.334 -16.5 83.001s5.5 58.334 16.5 83.001s26.167 45.5 45.5 62.5s42 30 68 39s53.667 13.5 83 13.5h231z" />
    <glyph glyph-name="periodcentered" unicode="&#xb7;" horiz-adv-x="206" 
d="M59 246c0 12.667 4.16699 23.334 12.5 32.001s18.833 13 31.5 13s23.167 -4.33301 31.5 -13s12.5 -19.334 12.5 -32.001s-4.16699 -23.334 -12.5 -32.001s-18.833 -13 -31.5 -13s-23.167 4.33301 -31.5 13s-12.5 19.334 -12.5 32.001z" />
    <glyph glyph-name="cedilla" unicode="&#xb8;" horiz-adv-x="328" 
d="M172 -48c7.33301 0 14.668 -0.667969 22.001 -2.00098c14 -1.33301 27 -4.83301 39 -10.5s21.833 -13.5 29.5 -23.5s11.5 -22.333 11.5 -37s-3 -27 -9 -37s-14 -18.167 -24 -24.5s-21.167 -10.833 -33.5 -13.5s-24.833 -4 -37.5 -4c-18.667 0 -37.334 2.5 -56.001 7.5
s-36 12.167 -52 21.5l17 31c12.667 -7.33301 26.167 -13.166 40.5 -17.499s28.833 -6.5 43.5 -6.5s27.334 3.33301 38.001 10s16 17.667 16 33s-6 26 -18 32s-24.667 9 -38 9s-25 -1.33301 -35 -4l-28 16l38 68h47l-27 -49c5.33301 0.666992 10.666 1 15.999 1z" />
    <glyph glyph-name="onesuperior" unicode="&#xb9;" horiz-adv-x="279" 
d="M199 837v-410h-57v349l-87 -36l-17 49l118 48h43z" />
    <glyph glyph-name="ordmasculine" unicode="&#xba;" horiz-adv-x="446" 
d="M223 364c18.667 0 36.167 3.33301 52.5 10s30.333 16.167 42 28.5s20.834 27 27.501 44s10 35.833 10 56.5s-3.33301 39.667 -10 57s-15.834 32.166 -27.501 44.499s-25.667 21.833 -42 28.5s-33.833 10 -52.5 10s-36 -3.33301 -52 -10s-30 -16.167 -42 -28.5
s-21.333 -27.166 -28 -44.499s-10 -36.333 -10 -57s3.33301 -39.5 10 -56.5s16 -31.667 28 -44s26 -21.833 42 -28.5s33.333 -10 52 -10zM223 688c25.333 0 48.833 -4.5 70.5 -13.5s40.5 -21.833 56.5 -38.5s28.667 -36.334 38 -59.001s14 -47.334 14 -74.001
s-4.66699 -51.334 -14 -74.001s-22 -42.167 -38 -58.5s-34.833 -29 -56.5 -38s-45.167 -13.5 -70.5 -13.5s-48.833 4.5 -70.5 13.5s-40.5 21.667 -56.5 38s-28.667 35.833 -38 58.5s-14 47.334 -14 74.001s4.66699 51.334 14 74.001s22 42.334 38 59.001
s34.833 29.5 56.5 38.5s45.167 13.5 70.5 13.5z" />
    <glyph glyph-name="guillemotright" unicode="&#xbb;" horiz-adv-x="428" 
d="M49 460l45 24l155 -238l-155 -238l-45 24l139 214zM189 460l45 24l155 -238l-155 -238l-45 24l139 214z" />
    <glyph glyph-name="onequarter" unicode="&#xbc;" horiz-adv-x="823" 
d="M157 275h57v410h-43l-118 -48l17 -49l87 36v-349zM737 137h-46v270h-60l-198 -271l5 -52h196v-84h57v84h46v53zM505 137v2l127 174h2v-176h-129zM567 681l-298 -700l-47 20l297 700z" />
    <glyph glyph-name="onehalf" unicode="&#xbd;" horiz-adv-x="823" 
d="M157 275h57v410h-43l-118 -48l17 -49l87 36v-349zM770 296c0 18.667 -3.5 35.4971 -10.5 50.4971s-16.333 27.5 -28 37.5s-25.5 17.667 -41.5 23s-33 8 -51 8c-36 0 -66 -10 -90 -30s-39 -47.667 -45 -83l57 -14c3.33301 22 11.333 40 24 54s30.667 21 54 21
c20.667 0 38.167 -5.5 52.5 -16.5s21.5 -27.5 21.5 -49.5c0 -10 -2.16699 -19.833 -6.5 -29.5s-9.83301 -19 -16.5 -28s-14 -17.5 -22 -25.5l-22 -22l-139 -142v-50h260v53h-177v2l101 103c8.66699 8.66699 17.667 18.334 27 29.001s17.833 21.834 25.5 33.501
s14 23.834 19 36.501s7.5 25.667 7.5 39zM567 680.997l-297 -700l-47 20l297 700z" />
    <glyph glyph-name="threequarters" unicode="&#xbe;" horiz-adv-x="823" 
d="M313 577c0 20 -3.66895 37.0049 -11.002 51.0049s-17.333 25.5 -30 34.5s-27.167 15.667 -43.5 20s-33.5 6.5 -51.5 6.5c-24 0 -46.667 -3.33301 -68 -10s-41.666 -17.667 -60.999 -33l41 -40c26.667 20.667 55.667 31 87 31c20 0 38.333 -4.5 55 -13.5
s25 -24.833 25 -47.5c0 -18.667 -4.5 -32.667 -13.5 -42s-20.167 -15.833 -33.5 -19.5s-27.666 -5.5 -42.999 -5.5h-41v-53h43c16 0 30.833 -1.83301 44.5 -5.5s25.167 -10.334 34.5 -20.001s14 -23.834 14 -42.501c0 -24.667 -8.16699 -42.167 -24.5 -52.5
s-35.833 -15.5 -58.5 -15.5c-16 0 -32.167 2.66699 -48.5 8s-30.5 13.666 -42.5 24.999l-41 -39c18 -16 39 -27.833 63 -35.5s47.667 -11.5 71 -11.5c18.667 0 36.5 2.33301 53.5 7s32 12 45 22s23.167 22.5 30.5 37.5s11 32.833 11 53.5c0 21.333 -5.5 40.666 -16.5 57.999
s-26.167 30.666 -45.5 39.999v2c17.333 9.33301 30.833 21.833 40.5 37.5s14.5 33.167 14.5 52.5zM771.998 137.005h-47v270h-59l-198 -271l4 -52h197v-84h56v84h47v53zM538.998 137.005v2l128 174h2v-176h-130zM601.998 681.005l-298 -700l-47 20l297 700z" />
    <glyph glyph-name="questiondown" unicode="&#xbf;" horiz-adv-x="556" 
d="M250 316h60.9971v-9c0 -22 -0.833008 -41.5 -2.5 -58.5s-5 -33 -10 -48s-12.5 -29.5 -22.5 -43.5s-23 -29 -39 -45l-33 -31.5c-12 -11 -23.167 -22.5 -33.5 -34.5s-18.833 -25 -25.5 -39s-10 -29 -10 -45c0 -19.333 4.5 -35.666 13.5 -48.999s20.5 -24 34.5 -32
s29.667 -13.833 47 -17.5s34 -5.5 50 -5.5c40 0 73.167 10.167 99.5 30.5s44.5 49.833 54.5 88.5l63 -18c-14 -52 -40.167 -92 -78.5 -120s-84.5 -42 -138.5 -42c-25.333 0 -50.5 3.16699 -75.5 9.5s-47.5 16.166 -67.5 29.499s-36.333 30.333 -49 51s-19 45.667 -19 75
c0 20.667 3.83301 39.5 11.5 56.5s17.334 33 29.001 48s24.834 29 39.501 42l43 38.5c14 12 24.833 24.333 32.5 37s13.334 25.834 17.001 39.501s6 28.167 7 43.5s1.5 31.666 1.5 48.999zM235.997 460c0 12.667 4.16699 23.334 12.5 32.001s18.833 13 31.5 13
s23.167 -4.33301 31.5 -13s12.5 -19.334 12.5 -32.001s-4.16699 -23.334 -12.5 -32.001s-18.833 -13 -31.5 -13s-23.167 4.33301 -31.5 13s-12.5 19.334 -12.5 32.001z" />
    <glyph glyph-name="Agrave" unicode="&#xc0;" horiz-adv-x="703" 
d="M607 0h77l-300 682h-64l-301 -682h77l79 182h353zM351 599h2l73.5 -176.5l73.5 -175.5h-297l74.5 175.5zM360 755l-134 128l52 37l120 -139z" />
    <glyph glyph-name="Aacute" unicode="&#xc1;" horiz-adv-x="703" 
d="M353 599l73.5 -176.5l73.5 -175.5h-297l74.5 175.5l73.5 176.5h2zM175 182h353l79 -182h77l-300 682h-64l-301 -682h77zM306 781l119 139l52 -37l-134 -128z" />
    <glyph glyph-name="Acircumflex" unicode="&#xc2;" horiz-adv-x="703" 
d="M352 850l-101 -103l-37 26l106 124h64l106 -124l-38 -26zM277.5 422.5l-74.5 -175.5h297l-73.5 175.5l-73.5 176.5h-2zM528 182h-353l-79 -182h-77l301 682h64l300 -682h-77z" />
    <glyph glyph-name="Atilde" unicode="&#xc3;" horiz-adv-x="703" 
d="M422 757c-14.667 0 -28 2.16699 -40 6.5s-23.5 9.33301 -34.5 15s-21.833 10.667 -32.5 15s-21.667 6.5 -33 6.5s-21.5 -4.33301 -30.5 -13s-16.5 -18.667 -22.5 -30l-40 23c9.33301 19.333 22 36.166 38 50.499s34 21.5 54 21.5c14 0 27 -2.16699 39 -6.5
s23.667 -9.33301 35 -15s22.333 -10.667 33 -15s21.667 -6.5 33 -6.5s21.333 4 30 12s16 18 22 30l40 -22c-9.33301 -21.333 -21.833 -38.666 -37.5 -51.999s-33.5 -20 -53.5 -20zM277.5 422.5l-74.5 -175.5h297l-73.5 175.5l-73.5 176.5h-2zM528 182h-353l-79 -182h-77
l301 682h64l300 -682h-77z" />
    <glyph glyph-name="Adieresis" unicode="&#xc4;" horiz-adv-x="703" 
d="M227 829c0 12.667 4.16699 23.334 12.5 32.001s18.833 13 31.5 13s23.167 -4.33301 31.5 -13s12.5 -19.334 12.5 -32.001s-4.16699 -23.334 -12.5 -32.001s-18.833 -13 -31.5 -13s-23.167 4.33301 -31.5 13s-12.5 19.334 -12.5 32.001zM393 829
c0 12.667 4.16699 23.334 12.5 32.001s18.833 13 31.5 13s23.167 -4.33301 31.5 -13s12.5 -19.334 12.5 -32.001s-4.16699 -23.334 -12.5 -32.001s-18.833 -13 -31.5 -13s-23.167 4.33301 -31.5 13s-12.5 19.334 -12.5 32.001zM277.5 422.5l-74.5 -175.5h297l-73.5 175.5
l-73.5 176.5h-2zM528 182h-353l-79 -182h-77l301 682h64l300 -682h-77z" />
    <glyph glyph-name="Aring" unicode="&#xc5;" horiz-adv-x="703" 
d="M352 963c32.667 0 59.834 -10.167 81.501 -30.5s32.5 -46.5 32.5 -78.5c0 -31.333 -10.833 -57.166 -32.5 -77.499s-48.834 -30.5 -81.501 -30.5s-59.834 10.167 -81.501 30.5s-32.5 46.166 -32.5 77.499c0 32 10.833 58.167 32.5 78.5s48.834 30.5 81.501 30.5zM352 782
c22 0 39.833 7 53.5 21s20.5 31 20.5 51c0 21.333 -7 38.666 -21 51.999s-31.667 20 -53 20s-39 -6.66699 -53 -20s-21 -30.666 -21 -51.999c0 -20 6.83301 -37 20.5 -51s31.5 -21 53.5 -21zM277.5 422.5l-74.5 -175.5h297l-73.5 175.5l-73.5 176.5h-2zM528 182h-353
l-79 -182h-77l301 682h64l300 -682h-77z" />
    <glyph glyph-name="AE" unicode="&#xc6;" horiz-adv-x="1088" 
d="M290 247h300l-17 378h-2l-140.5 -188.5l-140.5 -187.5v-2zM1019 65v-65h-417l-9 182h-354l-138 -182h-87l523 682h473v-65h-369l11 -237h330v-65h-327l12 -250h352z" />
    <glyph glyph-name="Ccedilla" unicode="&#xc7;" horiz-adv-x="721" 
d="M364 2h19v-22h-19v22zM406 -48c7.33301 0 15.333 -0.669922 24 -2.00293c13.333 -2 25.833 -5.66699 37.5 -11s21.334 -13 29.001 -23s11.5 -22.333 11.5 -37s-3 -27 -9 -37s-13.833 -18.167 -23.5 -24.5s-20.667 -10.833 -33 -13.5s-24.833 -4 -37.5 -4
c-18.667 0 -37.334 2.5 -56.001 7.5s-36 12.167 -52 21.5l17 31c12.667 -7.33301 26 -13.166 40 -17.499s28.667 -6.5 44 -6.5c14 0 26.5 3.33301 37.5 10s16.5 17.667 16.5 33s-6.16699 26 -18.5 32s-24.833 9 -37.5 9c-13.333 0 -25.333 -1.33301 -36 -4l-27 16l32 57
c-46 4.66699 -88 17 -126 37s-70.5 45.833 -97.5 77.5s-47.833 67.667 -62.5 108s-22 83.5 -22 129.5c0 50 8.5 96.5 25.5 139.5s40.833 80.333 71.5 112s67.167 56.5 109.5 74.5s88.833 27 139.5 27s99 -9.66699 145 -29s85.667 -48.666 119 -87.999l-51 -46
c-26.667 32.667 -58.5 57.334 -95.5 74.001s-76.167 25 -117.5 25s-79 -7.5 -113 -22.5s-63.333 -35.5 -88 -61.5s-43.667 -56.667 -57 -92s-20 -73 -20 -113s6.66699 -77.667 20 -113s32.333 -66 57 -92s54 -46.5 88 -61.5s71.667 -22.5 113 -22.5
c42 0 81.833 8.66699 119.5 26s69.5 43 95.5 77l52 -45c-32 -40 -70.667 -70 -116 -90s-93.333 -30.667 -144 -32l-19 -34v-3c4.66699 0.666992 9.66699 1 15 1z" />
    <glyph glyph-name="Egrave" unicode="&#xc8;" horiz-adv-x="597" 
d="M157 65v250h334v65h-334v237h362v65h-430v-682h439v65h-371zM318 755l-134 128l52 37l119 -139z" />
    <glyph glyph-name="Eacute" unicode="&#xc9;" horiz-adv-x="597" 
d="M259 781l119 139l52 -37l-134 -128zM528 65v-65h-439v682h430v-65h-362v-237h334v-65h-334v-250h371z" />
    <glyph glyph-name="Ecircumflex" unicode="&#xca;" horiz-adv-x="597" 
d="M309 850l-101 -103l-37 26l106 124h64l106 -124l-38 -26zM528 65v-65h-439v682h430v-65h-362v-237h334v-65h-334v-250h371z" />
    <glyph glyph-name="Edieresis" unicode="&#xcb;" horiz-adv-x="597" 
d="M179 829c0 12.667 4.16699 23.334 12.5 32.001s18.833 13 31.5 13s23.167 -4.33301 31.5 -13s12.5 -19.334 12.5 -32.001s-4.16699 -23.334 -12.5 -32.001s-18.833 -13 -31.5 -13s-23.167 4.33301 -31.5 13s-12.5 19.334 -12.5 32.001zM345 829
c0 12.667 4.16699 23.334 12.5 32.001s18.833 13 31.5 13s23.167 -4.33301 31.5 -13s12.5 -19.334 12.5 -32.001s-4.16699 -23.334 -12.5 -32.001s-18.833 -13 -31.5 -13s-23.167 4.33301 -31.5 13s-12.5 19.334 -12.5 32.001zM528 65v-65h-439v682h430v-65h-362v-237h334
v-65h-334v-250h371z" />
    <glyph glyph-name="Igrave" unicode="&#xcc;" horiz-adv-x="246" 
d="M157 0v682h-68v-682h68zM129 755l-134 128l52 37l119 -139z" />
    <glyph glyph-name="Iacute" unicode="&#xcd;" horiz-adv-x="246" 
d="M82 781l119 139l52 -37l-134 -128zM157 0v682h-68v-682h68z" />
    <glyph glyph-name="Icircumflex" unicode="&#xce;" horiz-adv-x="246" 
d="M123 850l-101 -103l-37 26l106 124h64l106 -124l-38 -26zM89 0v682h68v-682h-68z" />
    <glyph glyph-name="Idieresis" unicode="&#xcf;" horiz-adv-x="246" 
d="M-1 829c0 12.667 4.16699 23.334 12.5 32.001s18.833 13 31.5 13s23.167 -4.33301 31.5 -13s12.5 -19.334 12.5 -32.001s-4.16699 -23.334 -12.5 -32.001s-18.833 -13 -31.5 -13s-23.167 4.33301 -31.5 13s-12.5 19.334 -12.5 32.001zM165 829
c0 12.667 4.16699 23.334 12.5 32.001s18.833 13 31.5 13s23.167 -4.33301 31.5 -13s12.5 -19.334 12.5 -32.001s-4.16699 -23.334 -12.5 -32.001s-18.833 -13 -31.5 -13s-23.167 4.33301 -31.5 13s-12.5 19.334 -12.5 32.001zM89 0v682h68v-682h-68z" />
    <glyph glyph-name="Eth" unicode="&#xd0;" horiz-adv-x="696" 
d="M570 341c0 88 -24.5 156 -73.5 204s-117.167 72 -204.5 72h-135v-247h196v-58h-196v-247h135c87.333 0 155.5 24 204.5 72s73.5 116 73.5 204zM639 341c0 -52.667 -8 -99.998 -24 -141.998s-39 -77.833 -69 -107.5s-66.167 -52.334 -108.5 -68.001
s-89.833 -23.5 -142.5 -23.5h-206v312h-72v58h72v312h206c52.667 0 100.167 -7.83301 142.5 -23.5s78.5 -38.334 108.5 -68.001s53 -65.5 69 -107.5s24 -89.333 24 -142z" />
    <glyph glyph-name="Ntilde" unicode="&#xd1;" horiz-adv-x="718" 
d="M429 757c-14.667 0 -28 2.16699 -40 6.5s-23.5 9.33301 -34.5 15s-21.833 10.667 -32.5 15s-21.667 6.5 -33 6.5s-21.5 -4.33301 -30.5 -13s-16.5 -18.667 -22.5 -30l-40 23c9.33301 19.333 22 36.166 38 50.499s34 21.5 54 21.5c14 0 27 -2.16699 39 -6.5
s23.667 -9.33301 35 -15s22.333 -10.667 33 -15s21.667 -6.5 33 -6.5s21.333 4 30 12s16 18 22 30l40 -22c-9.33301 -21.333 -21.833 -38.666 -37.5 -51.999s-33.5 -20 -53.5 -20zM629 682v-682.002h-65l-407 566h-2c0 -13.333 0.166992 -27.666 0.5 -42.999l1 -47.5
c0.333008 -16.333 0.5 -32.5 0.5 -48.5v-44v-383h-68v682h64l408 -566h2c0 12.667 -0.166992 26.834 -0.5 42.501l-1 48c-0.333008 16.333 -0.5 32.5 -0.5 48.5v44v383h68z" />
    <glyph glyph-name="Ograve" unicode="&#xd2;" horiz-adv-x="805" 
d="M403 694c-50.667 0 -97.167 -9 -139.5 -27s-78.833 -42.833 -109.5 -74.5s-54.5 -69 -71.5 -112s-25.5 -89.5 -25.5 -139.5s8.5 -96.5 25.5 -139.5s40.833 -80.333 71.5 -112s67.167 -56.667 109.5 -75s88.833 -27.5 139.5 -27.5c50 0 96.167 9.16699 138.5 27.5
s78.833 43.333 109.5 75s54.5 69 71.5 112s25.5 89.5 25.5 139.5s-8.5 96.5 -25.5 139.5s-40.833 80.333 -71.5 112s-67.167 56.5 -109.5 74.5s-88.5 27 -138.5 27zM403 52c-41.333 0 -79 7.5 -113 22.5s-63.333 35.5 -88 61.5s-43.667 56.667 -57 92s-20 73 -20 113
s6.66699 77.667 20 113s32.333 66 57 92s54 46.5 88 61.5s71.667 22.5 113 22.5c40.667 0 78 -7.5 112 -22.5s63.333 -35.5 88 -61.5s43.667 -56.667 57 -92s20 -73 20 -113s-6.66699 -77.667 -20 -113s-32.333 -66 -57 -92s-54 -46.5 -88 -61.5s-71.333 -22.5 -112 -22.5z
M407 755l-134 128l52 37l120 -139z" />
    <glyph glyph-name="Oacute" unicode="&#xd3;" horiz-adv-x="805" 
d="M402 52c-41.333 0 -78.833 7.5 -112.5 22.5s-62.834 35.5 -87.501 61.5s-43.667 56.667 -57 92s-20 73 -20 113s6.66699 77.667 20 113s32.333 66 57 92s53.834 46.5 87.501 61.5s71.167 22.5 112.5 22.5s79 -7.5 113 -22.5s63.333 -35.5 88 -61.5s43.667 -56.667 57 -92
s20 -73 20 -113s-6.66699 -77.667 -20 -113s-32.333 -66 -57 -92s-54 -46.5 -88 -61.5s-71.667 -22.5 -113 -22.5zM402 694c-50 0 -96.167 -9 -138.5 -27s-78.833 -42.833 -109.5 -74.5s-54.5 -69 -71.5 -112s-25.5 -89.5 -25.5 -139.5s8.5 -96.5 25.5 -139.5
s40.833 -80.333 71.5 -112s67.167 -56.667 109.5 -75s88.5 -27.5 138.5 -27.5c50.667 0 97.167 9.16699 139.5 27.5s78.833 43.333 109.5 75s54.5 69 71.5 112s25.5 89.5 25.5 139.5s-8.5 96.5 -25.5 139.5s-40.833 80.333 -71.5 112s-67.167 56.5 -109.5 74.5
s-88.833 27 -139.5 27zM361 781l119 139l52 -37l-134 -128z" />
    <glyph glyph-name="Ocircumflex" unicode="&#xd4;" horiz-adv-x="805" 
d="M402 850l-101 -103l-37 26l106 124h64l106 -124l-38 -26zM403 52c40.667 0 78 7.5 112 22.5s63.333 35.5 88 61.5s43.667 56.667 57 92s20 73 20 113s-6.66699 77.667 -20 113s-32.333 66 -57 92s-54 46.5 -88 61.5s-71.333 22.5 -112 22.5
c-41.333 0 -79 -7.5 -113 -22.5s-63.333 -35.5 -88 -61.5s-43.667 -56.667 -57 -92s-20 -73 -20 -113s6.66699 -77.667 20 -113s32.333 -66 57 -92s54 -46.5 88 -61.5s71.667 -22.5 113 -22.5zM403 694c50 0 96.167 -9.16699 138.5 -27.5s78.833 -43.333 109.5 -75
s54.5 -69 71.5 -112s25.5 -89.167 25.5 -138.5s-8.5 -95.5 -25.5 -138.5s-40.833 -80.5 -71.5 -112.5s-67.167 -57.167 -109.5 -75.5s-88.5 -27.5 -138.5 -27.5c-50.667 0 -97.167 9.16699 -139.5 27.5s-78.833 43.5 -109.5 75.5s-54.5 69.5 -71.5 112.5
s-25.5 89.167 -25.5 138.5s8.5 95.5 25.5 138.5s40.833 80.333 71.5 112s67.167 56.667 109.5 75s88.833 27.5 139.5 27.5z" />
    <glyph glyph-name="Otilde" unicode="&#xd5;" horiz-adv-x="805" 
d="M473 757c-14.667 0 -28 2.16699 -40 6.5s-23.5 9.33301 -34.5 15s-21.833 10.667 -32.5 15s-21.667 6.5 -33 6.5s-21.5 -4.33301 -30.5 -13s-16.5 -18.667 -22.5 -30l-40 23c9.33301 19.333 22 36.166 38 50.499s34 21.5 54 21.5c14 0 27 -2.16699 39 -6.5
s23.667 -9.33301 35 -15s22.333 -10.667 33 -15s21.667 -6.5 33 -6.5s21.333 4 30 12s16 18 22 30l40 -22c-9.33301 -21.333 -21.833 -38.666 -37.5 -51.999s-33.5 -20 -53.5 -20zM403 52c40.667 0 78 7.5 112 22.5s63.333 35.5 88 61.5s43.667 56.667 57 92s20 73 20 113
s-6.66699 77.667 -20 113s-32.333 66 -57 92s-54 46.5 -88 61.5s-71.333 22.5 -112 22.5c-41.333 0 -79 -7.5 -113 -22.5s-63.333 -35.5 -88 -61.5s-43.667 -56.667 -57 -92s-20 -73 -20 -113s6.66699 -77.667 20 -113s32.333 -66 57 -92s54 -46.5 88 -61.5
s71.667 -22.5 113 -22.5zM403 694c50 0 96.167 -9.16699 138.5 -27.5s78.833 -43.333 109.5 -75s54.5 -69 71.5 -112s25.5 -89.167 25.5 -138.5s-8.5 -95.5 -25.5 -138.5s-40.833 -80.5 -71.5 -112.5s-67.167 -57.167 -109.5 -75.5s-88.5 -27.5 -138.5 -27.5
c-50.667 0 -97.167 9.16699 -139.5 27.5s-78.833 43.5 -109.5 75.5s-54.5 69.5 -71.5 112.5s-25.5 89.167 -25.5 138.5s8.5 95.5 25.5 138.5s40.833 80.333 71.5 112s67.167 56.667 109.5 75s88.833 27.5 139.5 27.5z" />
    <glyph glyph-name="Odieresis" unicode="&#xd6;" horiz-adv-x="805" 
d="M278 829c0 12.667 4.16699 23.334 12.5 32.001s18.833 13 31.5 13s23.167 -4.33301 31.5 -13s12.5 -19.334 12.5 -32.001s-4.16699 -23.334 -12.5 -32.001s-18.833 -13 -31.5 -13s-23.167 4.33301 -31.5 13s-12.5 19.334 -12.5 32.001zM444 829
c0 12.667 4.16699 23.334 12.5 32.001s18.833 13 31.5 13s23.167 -4.33301 31.5 -13s12.5 -19.334 12.5 -32.001s-4.16699 -23.334 -12.5 -32.001s-18.833 -13 -31.5 -13s-23.167 4.33301 -31.5 13s-12.5 19.334 -12.5 32.001zM403 52c40.667 0 78 7.5 112 22.5
s63.333 35.5 88 61.5s43.667 56.667 57 92s20 73 20 113s-6.66699 77.667 -20 113s-32.333 66 -57 92s-54 46.5 -88 61.5s-71.333 22.5 -112 22.5c-41.333 0 -79 -7.5 -113 -22.5s-63.333 -35.5 -88 -61.5s-43.667 -56.667 -57 -92s-20 -73 -20 -113
s6.66699 -77.667 20 -113s32.333 -66 57 -92s54 -46.5 88 -61.5s71.667 -22.5 113 -22.5zM403 694c50 0 96.167 -9.16699 138.5 -27.5s78.833 -43.333 109.5 -75s54.5 -69 71.5 -112s25.5 -89.167 25.5 -138.5s-8.5 -95.5 -25.5 -138.5s-40.833 -80.5 -71.5 -112.5
s-67.167 -57.167 -109.5 -75.5s-88.5 -27.5 -138.5 -27.5c-50.667 0 -97.167 9.16699 -139.5 27.5s-78.833 43.5 -109.5 75.5s-54.5 69.5 -71.5 112.5s-25.5 89.167 -25.5 138.5s8.5 95.5 25.5 138.5s40.833 80.333 71.5 112s67.167 56.667 109.5 75s88.833 27.5 139.5 27.5
z" />
    <glyph glyph-name="multiply" unicode="&#xd7;" 
d="M466 51l-177 177l-177 -177l-43 44l176 176l-176 177l43 44l177 -177l177 177l43 -44l-176 -177l176 -176z" />
    <glyph glyph-name="Oslash" unicode="&#xd8;" horiz-adv-x="805" 
d="M403 52c40.667 0 78.0029 7.49805 112.003 22.498s63.333 35.5 88 61.5s43.667 56.667 57 92s20 73 20 113c0 34 -4.83301 66.833 -14.5 98.5s-24.834 60.834 -45.501 87.501l-396 -412c25.333 -21.333 53.166 -37.166 83.499 -47.499s62.166 -15.5 95.499 -15.5z
M125.003 340.998c0 -34 4.83105 -66.8311 14.498 -98.498s24.834 -60.834 45.501 -87.501l396 412c-25.333 21.333 -53.166 37.166 -83.499 47.499s-61.833 15.5 -94.5 15.5c-41.333 0 -79 -7.5 -113 -22.5s-63.333 -35.5 -88 -61.5s-43.667 -56.667 -57 -92
s-20 -73 -20 -113zM748.001 341c0 -50 -8.50098 -96.499 -25.501 -139.499s-40.833 -80.333 -71.5 -112s-67.167 -56.667 -109.5 -75s-88.5 -27.5 -138.5 -27.5c-41.333 0 -81.166 6.66699 -119.499 20s-73.5 33.666 -105.5 60.999l-77 -81l-40 39l78 81
c-28 32.667 -48.667 69.167 -62 109.5s-20 81.833 -20 124.5c0 50 8.5 96.5 25.5 139.5s40.833 80.333 71.5 112s67.167 56.5 109.5 74.5s88.833 27 139.5 27c40.667 0 80.167 -6.66699 118.5 -20s73.5 -33.333 105.5 -60l77 80l40 -38l-78 -81
c28 -32.667 48.667 -69.167 62 -109.5s20 -81.833 20 -124.5z" />
    <glyph glyph-name="Ugrave" unicode="&#xd9;" horiz-adv-x="682" 
d="M360 755l-134 128l52 37l120 -139zM341 -13c-40 0 -76.167 6.16699 -108.5 18.5s-59.833 29.833 -82.5 52.5s-40.167 50.167 -52.5 82.5s-18.5 68.833 -18.5 109.5v432h68v-428c0 -61.333 16.667 -110.333 50 -147s81.333 -55 144 -55s110.667 18.333 144 55
s50 85.667 50 147v428h68v-432c0 -40.667 -6.16699 -77.167 -18.5 -109.5s-29.833 -59.833 -52.5 -82.5s-50.167 -40.167 -82.5 -52.5s-68.5 -18.5 -108.5 -18.5z" />
    <glyph glyph-name="Uacute" unicode="&#xda;" horiz-adv-x="682" 
d="M285 781l119 139l52 -37l-134 -128zM341 -13c-40 0 -76.167 6.16699 -108.5 18.5s-59.833 29.833 -82.5 52.5s-40.167 50.167 -52.5 82.5s-18.5 68.833 -18.5 109.5v432h68v-428c0 -61.333 16.667 -110.333 50 -147s81.333 -55 144 -55s110.667 18.333 144 55
s50 85.667 50 147v428h68v-432c0 -40.667 -6.16699 -77.167 -18.5 -109.5s-29.833 -59.833 -52.5 -82.5s-50.167 -40.167 -82.5 -52.5s-68.5 -18.5 -108.5 -18.5z" />
    <glyph glyph-name="Ucircumflex" unicode="&#xdb;" horiz-adv-x="682" 
d="M341 -13c40 0 76.167 6.16699 108.5 18.5s59.833 29.833 82.5 52.5s40.167 50.167 52.5 82.5s18.5 68.833 18.5 109.5v432h-68v-428c0 -61.333 -16.667 -110.333 -50 -147s-81.333 -55 -144 -55s-110.667 18.333 -144 55s-50 85.667 -50 147v428h-68v-432
c0 -40.667 6.16699 -77.167 18.5 -109.5s29.833 -59.833 52.5 -82.5s50.167 -40.167 82.5 -52.5s68.5 -18.5 108.5 -18.5zM341 850l-100 -103l-38 26l107 124h63l106 -124l-37 -26z" />
    <glyph glyph-name="Udieresis" unicode="&#xdc;" horiz-adv-x="682" 
d="M341 -13c40 0 76.167 6.16699 108.5 18.5s59.833 29.833 82.5 52.5s40.167 50.167 52.5 82.5s18.5 68.833 18.5 109.5v432h-68v-428c0 -61.333 -16.667 -110.333 -50 -147s-81.333 -55 -144 -55s-110.667 18.333 -144 55s-50 85.667 -50 147v428h-68v-432
c0 -40.667 6.16699 -77.167 18.5 -109.5s29.833 -59.833 52.5 -82.5s50.167 -40.167 82.5 -52.5s68.5 -18.5 108.5 -18.5zM258 871c12.667 0 22.834 -4.16699 30.501 -12.5s11.5 -18.166 11.5 -29.499s-3.83301 -21 -11.5 -29s-17.834 -12 -30.501 -12
c-12 0 -21.833 4 -29.5 12s-11.5 17.667 -11.5 29s3.83301 21.166 11.5 29.499s17.5 12.5 29.5 12.5zM383 829c0 12.667 4.16699 23.334 12.5 32.001s18.833 13 31.5 13s23.167 -4.33301 31.5 -13s12.5 -19.334 12.5 -32.001s-4.16699 -23.334 -12.5 -32.001
s-18.833 -13 -31.5 -13s-23.167 4.33301 -31.5 13s-12.5 19.334 -12.5 32.001z" />
    <glyph glyph-name="Yacute" unicode="&#xdd;" horiz-adv-x="661" 
d="M264 781l120 139l52 -37l-134 -128zM297 0h68v302l272 380h-83l-222 -316h-2l-222 316h-84l273 -380v-302z" />
    <glyph glyph-name="Thorn" unicode="&#xde;" horiz-adv-x="639" 
d="M516 341c0 42 -12.667 75.5 -38 100.5s-64 37.5 -116 37.5h-205v-276h205c52 0 90.667 12.5 116 37.5s38 58.5 38 100.5zM585 341c0 -30 -5.16992 -57.333 -15.5029 -82s-25.166 -46 -44.499 -64s-42.833 -32 -70.5 -42s-58.5 -15 -92.5 -15h-205v-138h-68v682h68v-138
h206c36 0 67.833 -5 95.5 -15s50.834 -24 69.501 -42s32.834 -39.333 42.501 -64s14.5 -52 14.5 -82z" />
    <glyph glyph-name="germandbls" unicode="&#xdf;" horiz-adv-x="607" 
d="M553 221c0 -34.667 -5.00098 -66.334 -15.001 -95.001s-24.5 -53.167 -43.5 -73.5s-42.333 -36.166 -70 -47.499s-59.167 -17 -94.5 -17c-18 0 -36 0.833008 -54 2.5s-35.667 4.83398 -53 9.50098l17 62c12 -4 25.667 -7 41 -9s29.333 -3 42 -3
c52.667 0 93.167 15.667 121.5 47s42.5 73 42.5 125c0 26 -4.5 49 -13.5 69s-21.333 36.833 -37 50.5s-34.167 24 -55.5 31s-44.333 10.5 -69 10.5h-49v63h48c16 0 31.167 2.83301 45.5 8.5s27 13.667 38 24s19.833 22.5 26.5 36.5s10 29 10 45c0 20 -4 37.167 -12 51.5
s-18.5 26.166 -31.5 35.499s-27.833 16.166 -44.5 20.499s-34 6.5 -52 6.5c-44 0 -77.667 -12.833 -101 -38.5s-35 -59.834 -35 -102.501v-533h-66v533c0 30.667 4.66699 58.667 14 84s22.833 46.833 40.5 64.5s39 31.334 64 41.001s53.167 14.5 84.5 14.5
c26 0 51.333 -3.66699 76 -11s46.5 -18.333 65.5 -33s34.333 -32.667 46 -54s17.5 -46.333 17.5 -75c0 -30 -7.66699 -57.833 -23 -83.5s-36.333 -45.167 -63 -58.5v-2c22.667 -6.66699 42.834 -16.5 60.501 -29.5s32.5 -28.167 44.5 -45.5s21.167 -36.666 27.5 -57.999
s9.5 -43.333 9.5 -66z" />
    <glyph glyph-name="agrave" unicode="&#xe0;" horiz-adv-x="546" 
d="M265 505c-34.667 0 -68.3271 -5 -100.994 -15s-64.334 -22.667 -95.001 -38l33 -59c24.667 15.333 50.834 27.5 78.501 36.5s56.167 13.5 85.5 13.5c42 0 75.833 -9.66699 101.5 -29s38.5 -51 38.5 -95v-16c-24.667 3.33301 -49.334 6.33301 -74.001 9
s-49.334 4 -74.001 4c-26.667 0 -52.334 -3 -77.001 -9s-46.334 -15.5 -65.001 -28.5s-33.667 -29.833 -45 -50.5s-17 -46 -17 -76c0 -26.667 4.66699 -50.167 14 -70.5s22.166 -37.5 38.499 -51.5s35.333 -24.667 57 -32s45.167 -11 70.5 -11c36 0 69.667 7.5 101 22.5
s57 37.5 77 67.5h2l4 -77h54v309c0 66.667 -18.333 116 -55 148s-87.334 48 -152.001 48zM247.007 48c-16 0 -31.665 1.99902 -46.998 5.99902s-28.833 10.333 -40.5 19s-21.167 19.5 -28.5 32.5s-11 28.5 -11 46.5c0 20.667 4.33301 37.834 13 51.501s20 24.5 34 32.5
s29.667 13.667 47 17s34.666 5 51.999 5c23.333 0 46.666 -1.33301 69.999 -4s46.666 -6.33398 69.999 -11.001v-42c0 -23.333 -4 -44.333 -12 -63s-19.167 -34.667 -33.5 -48s-31.166 -23.666 -50.499 -30.999s-40.333 -11 -63 -11zM276.009 564.999l-134 128l52 37
l120 -139z" />
    <glyph glyph-name="aacute" unicode="&#xe1;" horiz-adv-x="546" 
d="M247 48c22.667 0 43.665 3.66797 62.998 11.001s36.166 17.666 50.499 30.999s25.5 29.333 33.5 48s12 39.667 12 63v42c-23.333 4.66699 -46.666 8.33398 -69.999 11.001s-46.666 4 -69.999 4c-17.333 0 -34.666 -1.66699 -51.999 -5s-33 -9 -47 -17
s-25.333 -18.833 -34 -32.5s-13 -30.834 -13 -51.501c0 -18 3.66699 -33.5 11 -46.5s16.833 -23.833 28.5 -32.5s25.167 -15 40.5 -19s31 -6 47 -6zM264.998 505.001c65.333 0 116.164 -15.999 152.497 -47.999s54.5 -81.333 54.5 -148v-309h-54l-4 77h-2
c-20 -30.667 -45.667 -53.334 -77 -68.001s-65 -22 -101 -22c-25.333 0 -48.833 3.66699 -70.5 11s-40.667 18 -57 32s-29.166 31.167 -38.499 51.5s-14 43.833 -14 70.5c0 30 5.5 55.333 16.5 76s26 37.5 45 50.5s40.667 22.5 65 28.5s50.166 9 77.499 9
c24.667 0 49.334 -1.33301 74.001 -4s49.334 -5.66699 74.001 -9v16c0 44 -12.833 75.667 -38.5 95s-59.5 29 -101.5 29c-29.333 0 -57.833 -4.5 -85.5 -13.5s-53.834 -21.167 -78.501 -36.5l-33 59c30.667 15.333 62.334 28 95.001 38s66.334 15 101.001 15z
M224.996 591.002l119 139l52 -37l-134 -128z" />
    <glyph glyph-name="acircumflex" unicode="&#xe2;" horiz-adv-x="546" 
d="M270 660l-101 -103l-37 26l106 124h64l106 -124l-38 -26zM247 48c22.667 0 43.665 3.66797 62.998 11.001s36.166 17.666 50.499 30.999s25.5 29.333 33.5 48s12 39.667 12 63v42c-23.333 4.66699 -46.666 8.33398 -69.999 11.001s-46.666 4 -69.999 4
c-17.333 0 -34.666 -1.66699 -51.999 -5s-33 -9 -47 -17s-25.333 -18.833 -34 -32.5s-13 -30.834 -13 -51.501c0 -18 3.66699 -33.5 11 -46.5s16.833 -23.833 28.5 -32.5s25.167 -15 40.5 -19s31 -6 47 -6zM264.998 505.001c65.333 0 116.164 -15.999 152.497 -47.999
s54.5 -81.333 54.5 -148v-309h-54l-4 77h-2c-20 -30.667 -45.667 -53.334 -77 -68.001s-65 -22 -101 -22c-25.333 0 -48.833 3.66699 -70.5 11s-40.667 18 -57 32s-29.166 31.167 -38.499 51.5s-14 43.833 -14 70.5c0 30 5.5 55.333 16.5 76s26 37.5 45 50.5
s40.667 22.5 65 28.5s50.166 9 77.499 9c24.667 0 49.334 -1.33301 74.001 -4s49.334 -5.66699 74.001 -9v16c0 44 -12.833 75.667 -38.5 95s-59.5 29 -101.5 29c-29.333 0 -57.833 -4.5 -85.5 -13.5s-53.834 -21.167 -78.501 -36.5l-33 59
c30.667 15.333 62.334 28 95.001 38s66.334 15 101.001 15z" />
    <glyph glyph-name="atilde" unicode="&#xe3;" horiz-adv-x="546" 
d="M336 567c-14.667 0 -28 2.16699 -40 6.5s-23.5 9.33301 -34.5 15s-21.833 10.667 -32.5 15s-21.667 6.5 -33 6.5s-21.5 -4.33301 -30.5 -13s-16.5 -18.667 -22.5 -30l-40 23c9.33301 19.333 22 36.166 38 50.499s34 21.5 54 21.5c14 0 27 -2.16699 39 -6.5
s23.667 -9.33301 35 -15s22.333 -10.667 33 -15s21.667 -6.5 33 -6.5s21.333 4 30 12s16 18 22 30l40 -22c-9.33301 -21.333 -21.833 -38.666 -37.5 -51.999s-33.5 -20 -53.5 -20zM247 48c22.667 0 43.665 3.66797 62.998 11.001s36.166 17.666 50.499 30.999
s25.5 29.333 33.5 48s12 39.667 12 63v42c-23.333 4.66699 -46.666 8.33398 -69.999 11.001s-46.666 4 -69.999 4c-17.333 0 -34.666 -1.66699 -51.999 -5s-33 -9 -47 -17s-25.333 -18.833 -34 -32.5s-13 -30.834 -13 -51.501c0 -18 3.66699 -33.5 11 -46.5
s16.833 -23.833 28.5 -32.5s25.167 -15 40.5 -19s31 -6 47 -6zM264.998 505.001c65.333 0 116.164 -15.999 152.497 -47.999s54.5 -81.333 54.5 -148v-309h-54l-4 77h-2c-20 -30.667 -45.667 -53.334 -77 -68.001s-65 -22 -101 -22c-25.333 0 -48.833 3.66699 -70.5 11
s-40.667 18 -57 32s-29.166 31.167 -38.499 51.5s-14 43.833 -14 70.5c0 30 5.5 55.333 16.5 76s26 37.5 45 50.5s40.667 22.5 65 28.5s50.166 9 77.499 9c24.667 0 49.334 -1.33301 74.001 -4s49.334 -5.66699 74.001 -9v16c0 44 -12.833 75.667 -38.5 95
s-59.5 29 -101.5 29c-29.333 0 -57.833 -4.5 -85.5 -13.5s-53.834 -21.167 -78.501 -36.5l-33 59c30.667 15.333 62.334 28 95.001 38s66.334 15 101.001 15z" />
    <glyph glyph-name="adieresis" unicode="&#xe4;" horiz-adv-x="546" 
d="M145 639c0 12.667 4.16699 23.334 12.5 32.001s18.833 13 31.5 13s23.167 -4.33301 31.5 -13s12.5 -19.334 12.5 -32.001s-4.16699 -23.334 -12.5 -32.001s-18.833 -13 -31.5 -13s-23.167 4.33301 -31.5 13s-12.5 19.334 -12.5 32.001zM311 639
c0 12.667 4.16699 23.334 12.5 32.001s18.833 13 31.5 13s23.167 -4.33301 31.5 -13s12.5 -19.334 12.5 -32.001s-4.16699 -23.334 -12.5 -32.001s-18.833 -13 -31.5 -13s-23.167 4.33301 -31.5 13s-12.5 19.334 -12.5 32.001zM247 48
c22.667 0 43.665 3.66797 62.998 11.001s36.166 17.666 50.499 30.999s25.5 29.333 33.5 48s12 39.667 12 63v42c-23.333 4.66699 -46.666 8.33398 -69.999 11.001s-46.666 4 -69.999 4c-17.333 0 -34.666 -1.66699 -51.999 -5s-33 -9 -47 -17s-25.333 -18.833 -34 -32.5
s-13 -30.834 -13 -51.501c0 -18 3.66699 -33.5 11 -46.5s16.833 -23.833 28.5 -32.5s25.167 -15 40.5 -19s31 -6 47 -6zM264.998 505.001c65.333 0 116.164 -15.999 152.497 -47.999s54.5 -81.333 54.5 -148v-309h-54l-4 77h-2c-20 -30.667 -45.667 -53.334 -77 -68.001
s-65 -22 -101 -22c-25.333 0 -48.833 3.66699 -70.5 11s-40.667 18 -57 32s-29.166 31.167 -38.499 51.5s-14 43.833 -14 70.5c0 30 5.5 55.333 16.5 76s26 37.5 45 50.5s40.667 22.5 65 28.5s50.166 9 77.499 9c24.667 0 49.334 -1.33301 74.001 -4
s49.334 -5.66699 74.001 -9v16c0 44 -12.833 75.667 -38.5 95s-59.5 29 -101.5 29c-29.333 0 -57.833 -4.5 -85.5 -13.5s-53.834 -21.167 -78.501 -36.5l-33 59c30.667 15.333 62.334 28 95.001 38s66.334 15 101.001 15z" />
    <glyph glyph-name="aring" unicode="&#xe5;" horiz-adv-x="546" 
d="M270 774c16 0 30.833 -2.66699 44.5 -8s25.667 -12.666 36 -21.999s18.5 -20.833 24.5 -34.5s9 -28.5 9 -44.5s-3 -30.667 -9 -44s-14.167 -24.666 -24.5 -33.999s-22.333 -16.666 -36 -21.999s-28.5 -8 -44.5 -8s-30.833 2.66699 -44.5 8s-25.667 12.666 -36 21.999
s-18.5 20.666 -24.5 33.999s-9 28 -9 44s3 30.833 9 44.5s14.167 25.167 24.5 34.5s22.333 16.666 36 21.999s28.5 8 44.5 8zM270 593c21.333 0 39 6.66699 53 20s21 30.666 21 51.999s-7 38.666 -21 51.999s-31.667 20 -53 20s-39 -6.66699 -53 -20
s-21 -30.666 -21 -51.999s7 -38.666 21 -51.999s31.667 -20 53 -20zM247 48c22.667 0 43.665 3.66797 62.998 11.001s36.166 17.666 50.499 30.999s25.5 29.333 33.5 48s12 39.667 12 63v42c-23.333 4.66699 -46.666 8.33398 -69.999 11.001s-46.666 4 -69.999 4
c-17.333 0 -34.666 -1.66699 -51.999 -5s-33 -9 -47 -17s-25.333 -18.833 -34 -32.5s-13 -30.834 -13 -51.501c0 -18 3.66699 -33.5 11 -46.5s16.833 -23.833 28.5 -32.5s25.167 -15 40.5 -19s31 -6 47 -6zM264.998 505.001c65.333 0 116.164 -15.999 152.497 -47.999
s54.5 -81.333 54.5 -148v-309h-54l-4 77h-2c-20 -30.667 -45.667 -53.334 -77 -68.001s-65 -22 -101 -22c-25.333 0 -48.833 3.66699 -70.5 11s-40.667 18 -57 32s-29.166 31.167 -38.499 51.5s-14 43.833 -14 70.5c0 30 5.5 55.333 16.5 76s26 37.5 45 50.5
s40.667 22.5 65 28.5s50.166 9 77.499 9c24.667 0 49.334 -1.33301 74.001 -4s49.334 -5.66699 74.001 -9v16c0 44 -12.833 75.667 -38.5 95s-59.5 29 -101.5 29c-29.333 0 -57.833 -4.5 -85.5 -13.5s-53.834 -21.167 -78.501 -36.5l-33 59
c30.667 15.333 62.334 28 95.001 38s66.334 15 101.001 15z" />
    <glyph glyph-name="ae" unicode="&#xe6;" horiz-adv-x="925" 
d="M247 48c22.667 0 43.665 3.66797 62.998 11.001s36.166 17.666 50.499 30.999s25.5 29.5 33.5 48.5s12 40.167 12 63.5v41c-23.333 4.66699 -46.666 8.5 -69.999 11.5s-46.666 4.5 -69.999 4.5c-17.333 0 -34.666 -1.66699 -51.999 -5s-33 -9.16602 -47 -17.499
s-25.333 -19.333 -34 -33s-13 -30.834 -13 -51.501c0 -18 3.66699 -33.5 11 -46.5s16.833 -23.833 28.5 -32.5s25.167 -15 40.5 -19s31 -6 47 -6zM642.998 442.001c-24.667 0 -46.832 -4.00098 -66.499 -12.001s-36.667 -19.167 -51 -33.5s-25.833 -31.333 -34.5 -51
s-14.334 -41.5 -17.001 -65.5h328c-1.33301 23.333 -5.83301 44.833 -13.5 64.5s-18.167 36.834 -31.5 51.501s-29.5 26 -48.5 34s-40.833 12 -65.5 12zM869 266l-0.00195312 -23c0 -8 -0.333008 -15.667 -1 -23h-394c2.66699 -24 8.66699 -46.5 18 -67.5
s21.666 -39 36.999 -54s33.333 -26.833 54 -35.5s43.667 -13 69 -13c12.667 0 26.167 1.66699 40.5 5s28.166 8 41.499 14s25.833 13.333 37.5 22s21.5 18 29.5 28l47 -45c-25.333 -28.667 -55.5 -50.334 -90.5 -65.001s-71.5 -22 -109.5 -22c-42 0 -80.5 9.5 -115.5 28.5
s-63.167 46.5 -84.5 82.5h-2c-10.667 -18.667 -23.834 -35 -39.501 -49s-32.667 -25.5 -51 -34.5s-37.833 -15.833 -58.5 -20.5s-41.667 -7 -63 -7c-25.333 0 -48.833 3.66699 -70.5 11s-40.667 18 -57 32s-29.166 31.167 -38.499 51.5s-14 43.833 -14 70.5
c0 30 5.5 55.5 16.5 76.5s26 38 45 51s40.667 22.5 65 28.5s50.166 9 77.499 9c24.667 0 49.334 -1.5 74.001 -4.5s49.334 -6.16699 74.001 -9.5v16c0 44 -12.833 75.833 -38.5 95.5s-59.5 29.5 -101.5 29.5c-29.333 0 -57.833 -4.66699 -85.5 -14
s-53.834 -21.666 -78.501 -36.999l-33 59c30.667 15.333 62.334 28 95.001 38s66.334 15 101.001 15c19.333 0 38.333 -1.66699 57 -5s36.334 -8.83301 53.001 -16.5s31.5 -17.834 44.5 -30.501s23.833 -28.667 32.5 -48h2c21.333 32.667 48.333 57.334 81 74.001
s68.334 25 107.001 25c35.333 0 67 -6 95 -18s51.833 -28.5 71.5 -49.5s34.667 -46 45 -75s15.5 -60.833 15.5 -95.5z" />
    <glyph glyph-name="ccedilla" unicode="&#xe7;" horiz-adv-x="543" 
d="M310 -48c7.33301 0 15.3311 -0.665039 23.998 -1.99805c13.333 -2 25.666 -5.66699 36.999 -11s20.833 -13 28.5 -23s11.5 -22.333 11.5 -37s-3 -27 -9 -37s-13.833 -18.167 -23.5 -24.5s-20.667 -10.833 -33 -13.5s-24.833 -4 -37.5 -4
c-18.667 0 -37.334 2.5 -56.001 7.5s-36 12.167 -52 21.5l17 31c12.667 -7.33301 26.167 -13.166 40.5 -17.499s28.833 -6.5 43.5 -6.5c14 0 26.5 3.33301 37.5 10s16.5 17.667 16.5 33s-6 26 -18 32s-24.667 9 -38 9s-25 -1.33301 -35 -4l-28 16l31 56v2
c-32.667 4.66699 -62.167 14.5 -88.5 29.5s-48.666 34 -66.999 57s-32.5 49 -42.5 78s-15 59.5 -15 91.5c0 36 6.16699 69.667 18.5 101s29.5 58.666 51.5 81.999s48.333 41.666 79 54.999s64.334 20 101.001 20c36 0 70.833 -7 104.5 -21s62.167 -35 85.5 -63l-48 -45
c-18 21.333 -39.167 37.666 -63.5 48.999s-50.5 17 -78.5 17s-53.333 -5 -76 -15s-42 -23.833 -58 -41.5s-28.333 -38.334 -37 -62.001s-13 -49.167 -13 -76.5s4.33301 -52.833 13 -76.5s21 -44.334 37 -62.001s35.333 -31.5 58 -41.5s48 -15 76 -15
c58.667 0 106.334 22.333 143.001 67l47 -44c-23.333 -27.333 -50.166 -48.166 -80.499 -62.499s-63.5 -22.166 -99.5 -23.499l-19 -34v-3c4.66699 0.666992 9.66699 1 15 1z" />
    <glyph glyph-name="egrave" unicode="&#xe8;" horiz-adv-x="573" 
d="M517 266c0 34.667 -5.16602 66.501 -15.499 95.501s-25.333 54 -45 75s-43.5 37.5 -71.5 49.5s-59.667 18 -95 18c-36.667 0 -69.667 -6.83301 -99 -20.5s-54.166 -32.334 -74.499 -56.001s-35.833 -51.167 -46.5 -82.5s-16 -64.333 -16 -99
c0 -35.333 5.66699 -68.666 17 -99.999s27.5 -58.833 48.5 -82.5s46.5 -42.334 76.5 -56.001s63.333 -20.5 100 -20.5c38 0 74.5 7.33301 109.5 22s65.167 36.334 90.5 65.001l-47 45c-17.333 -20.667 -39.833 -37.334 -67.5 -50.001s-54.834 -19 -81.501 -19
c-25.333 0 -48.333 4.33301 -69 13s-38.834 20.5 -54.501 35.5s-28.167 33 -37.5 54s-15.333 43.5 -18 67.5h394c0.666992 7.33301 1.16699 15 1.5 23s0.5 15.667 0.5 23zM291.001 442.001c24.667 0 46.502 -3.99902 65.502 -11.999s35.167 -19.333 48.5 -34
s23.666 -31.834 30.999 -51.501s12 -41.167 14 -64.5h-328c2.66699 24 8.16699 45.833 16.5 65.5s19.666 36.667 33.999 51s31.333 25.5 51 33.5s42.167 12 67.5 12zM307.003 565.002l-134 128l52 37l120 -139z" />
    <glyph glyph-name="eacute" unicode="&#xe9;" horiz-adv-x="573" 
d="M237 591l119 139l52 -37l-134 -128zM291 442c-25.333 0 -47.835 -4.00098 -67.502 -12.001s-36.667 -19.167 -51 -33.5s-25.666 -31.333 -33.999 -51s-13.833 -41.5 -16.5 -65.5h328c-2 23.333 -6.66699 44.833 -14 64.5s-17.666 36.834 -30.999 51.501
s-29.5 26 -48.5 34s-40.833 12 -65.5 12zM516.998 265.999c0 -7.33301 -0.167969 -15.001 -0.500977 -23.001s-0.833008 -15.667 -1.5 -23h-394c2.66699 -24 8.66699 -46.5 18 -67.5s21.833 -39 37.5 -54s33.834 -26.833 54.501 -35.5s43.667 -13 69 -13
c26.667 0 53.834 6.33301 81.501 19s50.167 29.334 67.5 50.001l47 -45c-25.333 -28.667 -55.5 -50.334 -90.5 -65.001s-71.5 -22 -109.5 -22c-36.667 0 -70 6.83301 -100 20.5s-55.5 32.334 -76.5 56.001s-37.167 51.167 -48.5 82.5s-17 64.666 -17 99.999
c0 34.667 5.33301 67.667 16 99s26.167 58.833 46.5 82.5s45.166 42.334 74.499 56.001s62.333 20.5 99 20.5c35.333 0 67 -6 95 -18s51.833 -28.5 71.5 -49.5s34.667 -46 45 -75s15.5 -60.833 15.5 -95.5z" />
    <glyph glyph-name="ecircumflex" unicode="&#xea;" horiz-adv-x="573" 
d="M291 660l-101 -103l-37 26l106 124h64l106 -124l-38 -26zM291 442c-25.333 0 -47.835 -4.00098 -67.502 -12.001s-36.667 -19.167 -51 -33.5s-25.666 -31.333 -33.999 -51s-13.833 -41.5 -16.5 -65.5h328c-2 23.333 -6.66699 44.833 -14 64.5
s-17.666 36.834 -30.999 51.501s-29.5 26 -48.5 34s-40.833 12 -65.5 12zM516.998 265.999c0 -7.33301 -0.167969 -15.001 -0.500977 -23.001s-0.833008 -15.667 -1.5 -23h-394c2.66699 -24 8.66699 -46.5 18 -67.5s21.833 -39 37.5 -54s33.834 -26.833 54.501 -35.5
s43.667 -13 69 -13c26.667 0 53.834 6.33301 81.501 19s50.167 29.334 67.5 50.001l47 -45c-25.333 -28.667 -55.5 -50.334 -90.5 -65.001s-71.5 -22 -109.5 -22c-36.667 0 -70 6.83301 -100 20.5s-55.5 32.334 -76.5 56.001s-37.167 51.167 -48.5 82.5
s-17 64.666 -17 99.999c0 34.667 5.33301 67.667 16 99s26.167 58.833 46.5 82.5s45.166 42.334 74.499 56.001s62.333 20.5 99 20.5c35.333 0 67 -6 95 -18s51.833 -28.5 71.5 -49.5s34.667 -46 45 -75s15.5 -60.833 15.5 -95.5z" />
    <glyph glyph-name="edieresis" unicode="&#xeb;" horiz-adv-x="573" 
d="M170 639c0 12.667 4.16699 23.334 12.5 32.001s18.833 13 31.5 13s23.167 -4.33301 31.5 -13s12.5 -19.334 12.5 -32.001s-4.16699 -23.334 -12.5 -32.001s-18.833 -13 -31.5 -13s-23.167 4.33301 -31.5 13s-12.5 19.334 -12.5 32.001zM336 639
c0 12.667 4.16699 23.334 12.5 32.001s18.833 13 31.5 13s23.167 -4.33301 31.5 -13s12.5 -19.334 12.5 -32.001s-4.16699 -23.334 -12.5 -32.001s-18.833 -13 -31.5 -13s-23.167 4.33301 -31.5 13s-12.5 19.334 -12.5 32.001zM291 442
c-25.333 0 -47.835 -4.00098 -67.502 -12.001s-36.667 -19.167 -51 -33.5s-25.666 -31.333 -33.999 -51s-13.833 -41.5 -16.5 -65.5h328c-2 23.333 -6.66699 44.833 -14 64.5s-17.666 36.834 -30.999 51.501s-29.5 26 -48.5 34s-40.833 12 -65.5 12zM516.998 265.999
c0 -7.33301 -0.167969 -15.001 -0.500977 -23.001s-0.833008 -15.667 -1.5 -23h-394c2.66699 -24 8.66699 -46.5 18 -67.5s21.833 -39 37.5 -54s33.834 -26.833 54.501 -35.5s43.667 -13 69 -13c26.667 0 53.834 6.33301 81.501 19s50.167 29.334 67.5 50.001l47 -45
c-25.333 -28.667 -55.5 -50.334 -90.5 -65.001s-71.5 -22 -109.5 -22c-36.667 0 -70 6.83301 -100 20.5s-55.5 32.334 -76.5 56.001s-37.167 51.167 -48.5 82.5s-17 64.666 -17 99.999c0 34.667 5.33301 67.667 16 99s26.167 58.833 46.5 82.5s45.166 42.334 74.499 56.001
s62.333 20.5 99 20.5c35.333 0 67 -6 95 -18s51.833 -28.5 71.5 -49.5s34.667 -46 45 -75s15.5 -60.833 15.5 -95.5z" />
    <glyph glyph-name="igrave" unicode="&#xec;" horiz-adv-x="235" 
d="M84 0h66v492h-66v-492zM122 565l-134 128l52 37l119 -139z" />
    <glyph glyph-name="iacute" unicode="&#xed;" horiz-adv-x="235" 
d="M79 591l119 139l52 -37l-134 -128zM84 492h66v-492h-66v492z" />
    <glyph glyph-name="icircumflex" unicode="&#xee;" horiz-adv-x="235" 
d="M117 660l-101 -103l-37 26l106 124h64l106 -124l-38 -26zM84 492h66v-492h-66v492z" />
    <glyph glyph-name="idieresis" unicode="&#xef;" horiz-adv-x="235" 
d="M-7 639c0 12.667 4.16699 23.334 12.5 32.001s18.833 13 31.5 13s23.167 -4.33301 31.5 -13s12.5 -19.334 12.5 -32.001s-4.16699 -23.334 -12.5 -32.001s-18.833 -13 -31.5 -13s-23.167 4.33301 -31.5 13s-12.5 19.334 -12.5 32.001zM159 639
c0 12.667 4.16699 23.334 12.5 32.001s18.833 13 31.5 13s23.167 -4.33301 31.5 -13s12.5 -19.334 12.5 -32.001s-4.16699 -23.334 -12.5 -32.001s-18.833 -13 -31.5 -13s-23.167 4.33301 -31.5 13s-12.5 19.334 -12.5 32.001zM84 492h66v-492h-66v492z" />
    <glyph glyph-name="eth" unicode="&#xf0;" horiz-adv-x="609" 
d="M304 51c26.667 0 51.167 4.66699 73.5 14s41.833 22.666 58.5 39.999s29.667 37.833 39 61.5s14 50.167 14 79.5c0 28.667 -4.66699 55 -14 79s-22.333 44.667 -39 62s-36.167 30.666 -58.5 39.999s-46.833 14 -73.5 14c-26 0 -50.333 -4.66699 -73 -14
s-42.167 -22.666 -58.5 -39.999s-29.166 -38 -38.499 -62s-14 -50.333 -14 -79c0 -29.333 4.66699 -55.833 14 -79.5s22.166 -44.167 38.499 -61.5s35.833 -30.666 58.5 -39.999s47 -14 73 -14zM555 246c0 -37.333 -6.50488 -71.835 -19.5049 -103.502s-30.667 -59 -53 -82
s-48.833 -41 -79.5 -54s-63.667 -19.5 -99 -19.5s-68.166 6.5 -98.499 19.5s-56.666 31 -78.999 54s-40 50.333 -53 82s-19.5 66.167 -19.5 103.5s6.33301 71.833 19 103.5s30 59 52 82s48 40.833 78 53.5s62.333 19 97 19c26 0 50.833 -3.66699 74.5 -11
s45.167 -17.666 64.5 -30.999h2c-13.333 22 -28.666 43.5 -45.999 64.5s-36.333 41.833 -57 62.5l-154 -62l-18 45l132 54c-12.667 11.333 -25.667 22.333 -39 33s-27.666 21.334 -42.999 32.001l55 46c34.667 -26 66.667 -54 96 -84l95 38l18 -45l-78 -32
c50.667 -58.667 88.834 -119.5 114.501 -182.5s38.5 -124.833 38.5 -185.5z" />
    <glyph glyph-name="ntilde" unicode="&#xf1;" horiz-adv-x="593" 
d="M331 504c31.333 0 58.8311 -5.66797 82.498 -17.001s43.334 -26.666 59.001 -45.999s27.334 -42 35.001 -68s11.5 -53.667 11.5 -83v-290h-66v269c0 23.333 -2.33301 45.5 -7 66.5s-12.5 39.333 -23.5 55s-25.333 28.167 -43 37.5s-39.5 14 -65.5 14
s-49.167 -5 -69.5 -15s-37.5 -23.333 -51.5 -40s-24.667 -36 -32 -58s-11 -45 -11 -69v-260h-66v492h54l4 -80h2c21.333 31.333 48.5 54.5 81.5 69.5s68.167 22.5 105.5 22.5zM377.998 566.999c-14.667 0 -28 2.16699 -40 6.5s-23.5 9.33301 -34.5 15
s-21.833 10.667 -32.5 15s-21.667 6.5 -33 6.5s-21.5 -4.33301 -30.5 -13s-16.5 -18.667 -22.5 -30l-40 23c9.33301 19.333 22 36.166 38 50.499s34 21.5 54 21.5c14 0 27 -2.16699 39 -6.5s23.667 -9.33301 35 -15s22.333 -10.667 33 -15s21.667 -6.5 33 -6.5
s21.333 4 30 12s16 18 22 30l40 -22c-9.33301 -21.333 -21.833 -38.666 -37.5 -51.999s-33.5 -20 -53.5 -20z" />
    <glyph glyph-name="ograve" unicode="&#xf2;" horiz-adv-x="609" 
d="M304 504c-36.667 0 -70.334 -6.66699 -101.001 -20s-57 -31.666 -79 -54.999s-39.167 -50.666 -51.5 -81.999s-18.5 -65 -18.5 -101s6.16699 -69.667 18.5 -101s29.5 -58.666 51.5 -81.999s48.333 -41.666 79 -54.999s64.334 -20 101.001 -20s70.334 6.66699 101.001 20
s57.167 31.666 79.5 54.999s39.666 50.666 51.999 81.999s18.5 65 18.5 101s-6.16699 69.667 -18.5 101s-29.666 58.666 -51.999 81.999s-48.833 41.666 -79.5 54.999s-64.334 20 -101.001 20zM304 51c-28 0 -53.333 5 -76 15s-42 23.833 -58 41.5
s-28.333 38.334 -37 62.001s-13 49.167 -13 76.5s4.33301 52.833 13 76.5s21 44.334 37 62.001s35.333 31.5 58 41.5s48 15 76 15s53.5 -5 76.5 -15s42.5 -23.833 58.5 -41.5s28.333 -38.334 37 -62.001s13 -49.167 13 -76.5s-4.33301 -52.833 -13 -76.5
s-21 -44.334 -37 -62.001s-35.5 -31.5 -58.5 -41.5s-48.5 -15 -76.5 -15zM310 565l-134 128l52 37l120 -139z" />
    <glyph glyph-name="oacute" unicode="&#xf3;" horiz-adv-x="609" 
d="M304 51c-28 0 -53.333 5 -76 15s-42 23.833 -58 41.5s-28.333 38.334 -37 62.001s-13 49.167 -13 76.5s4.33301 52.833 13 76.5s21 44.334 37 62.001s35.333 31.5 58 41.5s48 15 76 15s53.5 -5 76.5 -15s42.5 -23.833 58.5 -41.5s28.333 -38.334 37 -62.001
s13 -49.167 13 -76.5s-4.33301 -52.833 -13 -76.5s-21 -44.334 -37 -62.001s-35.5 -31.5 -58.5 -41.5s-48.5 -15 -76.5 -15zM304 504c-36.667 0 -70.334 -6.66699 -101.001 -20s-57 -31.666 -79 -54.999s-39.167 -50.666 -51.5 -81.999s-18.5 -65 -18.5 -101
s6.16699 -69.667 18.5 -101s29.5 -58.666 51.5 -81.999s48.333 -41.666 79 -54.999s64.334 -20 101.001 -20s70.334 6.66699 101.001 20s57.167 31.666 79.5 54.999s39.666 50.666 51.999 81.999s18.5 65 18.5 101s-6.16699 69.667 -18.5 101s-29.666 58.666 -51.999 81.999
s-48.833 41.666 -79.5 54.999s-64.334 20 -101.001 20zM261 591l119 139l52 -37l-134 -128z" />
    <glyph glyph-name="ocircumflex" unicode="&#xf4;" horiz-adv-x="609" 
d="M304 660l-101 -103l-37 26l106 124h64l106 -124l-38 -26zM304 51c28 0 53.5 5 76.5 15s42.5 23.833 58.5 41.5s28.333 38.334 37 62.001s13 49.167 13 76.5s-4.33301 52.833 -13 76.5s-21 44.334 -37 62.001s-35.5 31.5 -58.5 41.5s-48.5 15 -76.5 15s-53.333 -5 -76 -15
s-42 -23.833 -58 -41.5s-28.333 -38.334 -37 -62.001s-13 -49.167 -13 -76.5s4.33301 -52.833 13 -76.5s21 -44.334 37 -62.001s35.333 -31.5 58 -41.5s48 -15 76 -15zM304 504c36.667 0 70.334 -6.66699 101.001 -20s57.167 -31.666 79.5 -54.999
s39.666 -50.666 51.999 -81.999s18.5 -65 18.5 -101s-6.16699 -69.667 -18.5 -101s-29.666 -58.666 -51.999 -81.999s-48.833 -41.666 -79.5 -54.999s-64.334 -20 -101.001 -20s-70.334 6.66699 -101.001 20s-57 31.666 -79 54.999s-39.167 50.666 -51.5 81.999
s-18.5 65 -18.5 101s6.16699 69.667 18.5 101s29.5 58.666 51.5 81.999s48.333 41.666 79 54.999s64.334 20 101.001 20z" />
    <glyph glyph-name="otilde" unicode="&#xf5;" horiz-adv-x="609" 
d="M375 567c-14.667 0 -28 2.16699 -40 6.5s-23.5 9.33301 -34.5 15s-21.833 10.667 -32.5 15s-21.667 6.5 -33 6.5s-21.5 -4.33301 -30.5 -13s-16.5 -18.667 -22.5 -30l-40 23c9.33301 19.333 22 36.166 38 50.499s34 21.5 54 21.5c14 0 27 -2.16699 39 -6.5
s23.667 -9.33301 35 -15s22.333 -10.667 33 -15s21.667 -6.5 33 -6.5s21.333 4 30 12s16 18 22 30l40 -22c-9.33301 -21.333 -21.833 -38.666 -37.5 -51.999s-33.5 -20 -53.5 -20zM304 51c28 0 53.5 5 76.5 15s42.5 23.833 58.5 41.5s28.333 38.334 37 62.001
s13 49.167 13 76.5s-4.33301 52.833 -13 76.5s-21 44.334 -37 62.001s-35.5 31.5 -58.5 41.5s-48.5 15 -76.5 15s-53.333 -5 -76 -15s-42 -23.833 -58 -41.5s-28.333 -38.334 -37 -62.001s-13 -49.167 -13 -76.5s4.33301 -52.833 13 -76.5s21 -44.334 37 -62.001
s35.333 -31.5 58 -41.5s48 -15 76 -15zM304 504c36.667 0 70.334 -6.66699 101.001 -20s57.167 -31.666 79.5 -54.999s39.666 -50.666 51.999 -81.999s18.5 -65 18.5 -101s-6.16699 -69.667 -18.5 -101s-29.666 -58.666 -51.999 -81.999s-48.833 -41.666 -79.5 -54.999
s-64.334 -20 -101.001 -20s-70.334 6.66699 -101.001 20s-57 31.666 -79 54.999s-39.167 50.666 -51.5 81.999s-18.5 65 -18.5 101s6.16699 69.667 18.5 101s29.5 58.666 51.5 81.999s48.333 41.666 79 54.999s64.334 20 101.001 20z" />
    <glyph glyph-name="odieresis" unicode="&#xf6;" horiz-adv-x="609" 
d="M180 639c0 12.667 4.16699 23.334 12.5 32.001s18.833 13 31.5 13s23.167 -4.33301 31.5 -13s12.5 -19.334 12.5 -32.001s-4.16699 -23.334 -12.5 -32.001s-18.833 -13 -31.5 -13s-23.167 4.33301 -31.5 13s-12.5 19.334 -12.5 32.001zM346 639
c0 12.667 4.16699 23.334 12.5 32.001s18.833 13 31.5 13s23.167 -4.33301 31.5 -13s12.5 -19.334 12.5 -32.001s-4.16699 -23.334 -12.5 -32.001s-18.833 -13 -31.5 -13s-23.167 4.33301 -31.5 13s-12.5 19.334 -12.5 32.001zM304 51c28 0 53.5 5 76.5 15
s42.5 23.833 58.5 41.5s28.333 38.334 37 62.001s13 49.167 13 76.5s-4.33301 52.833 -13 76.5s-21 44.334 -37 62.001s-35.5 31.5 -58.5 41.5s-48.5 15 -76.5 15s-53.333 -5 -76 -15s-42 -23.833 -58 -41.5s-28.333 -38.334 -37 -62.001s-13 -49.167 -13 -76.5
s4.33301 -52.833 13 -76.5s21 -44.334 37 -62.001s35.333 -31.5 58 -41.5s48 -15 76 -15zM304 504c36.667 0 70.334 -6.66699 101.001 -20s57.167 -31.666 79.5 -54.999s39.666 -50.666 51.999 -81.999s18.5 -65 18.5 -101s-6.16699 -69.667 -18.5 -101
s-29.666 -58.666 -51.999 -81.999s-48.833 -41.666 -79.5 -54.999s-64.334 -20 -101.001 -20s-70.334 6.66699 -101.001 20s-57 31.666 -79 54.999s-39.167 50.666 -51.5 81.999s-18.5 65 -18.5 101s6.16699 69.667 18.5 101s29.5 58.666 51.5 81.999
s48.333 41.666 79 54.999s64.334 20 101.001 20z" />
    <glyph glyph-name="divide" unicode="&#xf7;" 
d="M511 301h-444v-59h444v59zM330 481c0 -11.333 -3.83301 -21 -11.5 -29s-17.5 -12 -29.5 -12s-21.833 4 -29.5 12s-11.5 17.667 -11.5 29c0 12 3.83301 22 11.5 30s17.5 12 29.5 12s21.833 -4 29.5 -12s11.5 -18 11.5 -30zM330 61c0 12 -3.83301 22 -11.5 30
s-17.5 12 -29.5 12s-21.833 -4 -29.5 -12s-11.5 -18 -11.5 -30c0 -11.333 3.83301 -21 11.5 -29s17.5 -12 29.5 -12s21.833 4 29.5 12s11.5 17.667 11.5 29z" />
    <glyph glyph-name="oslash" unicode="&#xf8;" horiz-adv-x="609" 
d="M304 51c26.667 0 51.167 4.66895 73.5 14.002s41.833 22.666 58.5 39.999s29.667 37.833 39 61.5s14 50.167 14 79.5c0 47.333 -12 87.666 -36 120.999l-263 -278c31.333 -25.333 69.333 -38 114 -38zM120 246.002c0 -47.333 11.998 -87.668 35.998 -121.001l263 278
c-31.333 25.333 -69.666 38 -114.999 38c-26 0 -50.333 -4.66699 -73 -14s-42.167 -22.666 -58.5 -39.999s-29.166 -38 -38.499 -62s-14 -50.333 -14 -79zM554.998 246c0 -37.333 -6.49805 -71.833 -19.498 -103.5s-30.667 -59 -53 -82s-48.833 -41 -79.5 -54
s-63.667 -19.5 -99 -19.5c-30 0 -58.5 5 -85.5 15s-51.167 23.667 -72.5 41l-52 -56l-36 34l53 57c-18 22 -32 47.167 -42 75.5s-15 59.166 -15 92.499c0 37.333 6.5 71.833 19.5 103.5s30.667 59 53 82s48.666 40.833 78.999 53.5s63.166 19 98.499 19
c30.667 0 59.5 -4.83301 86.5 -14.5s51.167 -23.167 72.5 -40.5l52 56l36 -34l-53 -57c18 -22 32 -47.167 42 -75.5s15 -59.166 15 -92.499z" />
    <glyph glyph-name="ugrave" unicode="&#xf9;" horiz-adv-x="593" 
d="M443 492l-0.00292969 -260.002c0 -24 -3.83301 -47 -11.5 -69s-18.5 -41.5 -32.5 -58.5s-31.167 -30.5 -51.5 -40.5s-43.166 -15 -68.499 -15c-26 0 -47.833 4.66699 -65.5 14s-32 22 -43 38s-18.833 34.5 -23.5 55.5s-7 43.167 -7 66.5v269h-66v-290
c0 -29.333 3.83301 -57.166 11.5 -83.499s19.334 -49.166 35.001 -68.499s35.334 -34.666 59.001 -45.999s51.167 -17 82.5 -17c37.333 0 72.5 7.66699 105.5 23s60.167 38.666 81.5 69.999h2l4 -80h54v492h-66zM294.997 564.998l-134 128l52 37l119 -139z" />
    <glyph glyph-name="uacute" unicode="&#xfa;" horiz-adv-x="593" 
d="M509 492l0.00292969 -491.998h-54l-4 80h-2c-21.333 -31.333 -48.5 -54.666 -81.5 -69.999s-68.167 -23 -105.5 -23c-31.333 0 -58.833 5.66699 -82.5 17s-43.334 26.666 -59.001 45.999s-27.334 42.166 -35.001 68.499s-11.5 54.166 -11.5 83.499v290h66v-269
c0 -23.333 2.33301 -45.5 7 -66.5s12.5 -39.5 23.5 -55.5s25.333 -28.667 43 -38s39.5 -14 65.5 -14c25.333 0 48.166 5 68.499 15s37.5 23.5 51.5 40.5s24.833 36.5 32.5 58.5s11.5 45 11.5 69v260h66zM256.003 591.002l119 139l52 -37l-134 -128z" />
    <glyph glyph-name="ucircumflex" unicode="&#xfb;" horiz-adv-x="593" 
d="M509 492l0.00292969 -491.998h-54l-4 80h-2c-21.333 -31.333 -48.5 -54.666 -81.5 -69.999s-68.167 -23 -105.5 -23c-31.333 0 -58.833 5.66699 -82.5 17s-43.334 26.666 -59.001 45.999s-27.334 42.166 -35.001 68.499s-11.5 54.166 -11.5 83.499v290h66v-269
c0 -23.333 2.33301 -45.5 7 -66.5s12.5 -39.5 23.5 -55.5s25.333 -28.667 43 -38s39.5 -14 65.5 -14c25.333 0 48.166 5 68.499 15s37.5 23.5 51.5 40.5s24.833 36.5 32.5 58.5s11.5 45 11.5 69v260h66zM291.003 660.002l-101 -103l-37 26l106 124h64l106 -124l-38 -26z" />
    <glyph glyph-name="udieresis" unicode="&#xfc;" horiz-adv-x="593" 
d="M509 492l0.00292969 -491.998h-54l-4 80h-2c-21.333 -31.333 -48.5 -54.666 -81.5 -69.999s-68.167 -23 -105.5 -23c-31.333 0 -58.833 5.66699 -82.5 17s-43.334 26.666 -59.001 45.999s-27.334 42.166 -35.001 68.499s-11.5 54.166 -11.5 83.499v290h66v-269
c0 -23.333 2.33301 -45.5 7 -66.5s12.5 -39.5 23.5 -55.5s25.333 -28.667 43 -38s39.5 -14 65.5 -14c25.333 0 48.166 5 68.499 15s37.5 23.5 51.5 40.5s24.833 36.5 32.5 58.5s11.5 45 11.5 69v260h66zM162.003 639.002c0 12.667 4.16699 23.334 12.5 32.001
s18.833 13 31.5 13s23.167 -4.33301 31.5 -13s12.5 -19.334 12.5 -32.001s-4.16699 -23.334 -12.5 -32.001s-18.833 -13 -31.5 -13s-23.167 4.33301 -31.5 13s-12.5 19.334 -12.5 32.001zM328.003 639.002c0 12.667 4.16699 23.334 12.5 32.001s18.833 13 31.5 13
s23.167 -4.33301 31.5 -13s12.5 -19.334 12.5 -32.001s-4.16699 -23.334 -12.5 -32.001s-18.833 -13 -31.5 -13s-23.167 4.33301 -31.5 13s-12.5 19.334 -12.5 32.001z" />
    <glyph glyph-name="yacute" unicode="&#xfd;" horiz-adv-x="546" 
d="M184 -200c-12 0 -24 1.16699 -36 3.5s-23.667 5.16602 -35 8.49902l11 60c10 -3.33301 20 -5.83301 30 -7.5s20.333 -2.5 31 -2.5c14.667 0 27 5 37 15s18.5 22 25.5 36s12.833 28.667 17.5 44l12 39l-253 496h77l204 -411h2l143 411h72l-201 -564
c-6 -17.333 -12.833 -33.666 -20.5 -48.999s-16.667 -28.833 -27 -40.5s-22.833 -21 -37.5 -28s-32 -10.5 -52 -10.5zM237 591l119 139l52 -37l-134 -128z" />
    <glyph glyph-name="thorn" unicode="&#xfe;" horiz-adv-x="638" 
d="M334 51c26 0 50.333 4.66699 73 14s42.167 22.666 58.5 39.999s29.166 37.833 38.499 61.5s14 50.167 14 79.5c0 28.667 -4.66699 55.167 -14 79.5s-22.166 45 -38.499 62s-35.833 30.333 -58.5 40s-47 14.5 -73 14.5c-26.667 0 -51.334 -4.83301 -74.001 -14.5
s-42.167 -23 -58.5 -40s-29.166 -37.667 -38.499 -62s-14 -50.833 -14 -79.5c0 -29.333 4.66699 -55.833 14 -79.5s22.166 -44.167 38.499 -61.5s35.833 -30.666 58.5 -39.999s47.334 -14 74.001 -14zM340 505c34 0 65.833 -6.5 95.5 -19.5s55.5 -31 77.5 -54
s39.333 -50.333 52 -82s19 -66.167 19 -103.5s-6.33301 -71.833 -19 -103.5s-30 -59 -52 -82s-47.833 -40.833 -77.5 -53.5s-61.5 -19 -95.5 -19c-38.667 0 -74.167 7.66699 -106.5 23s-59.5 37 -81.5 65h-2v-276h-66v925h66v-309h2c22 28 49.167 49.833 81.5 65.5
s67.833 23.5 106.5 23.5z" />
    <glyph glyph-name="ydieresis" unicode="&#xff;" horiz-adv-x="546" 
d="M184 -200c-12 0 -24 1.16699 -36 3.5s-23.667 5.16602 -35 8.49902l11 60c10 -3.33301 20 -5.83301 30 -7.5s20.333 -2.5 31 -2.5c14.667 0 27 5 37 15s18.5 22 25.5 36s12.833 28.667 17.5 44l12 39l-253 496h77l204 -411h2l143 411h72l-201 -564
c-6 -17.333 -12.833 -33.666 -20.5 -48.999s-16.667 -28.833 -27 -40.5s-22.833 -21 -37.5 -28s-32 -10.5 -52 -10.5zM151 639c0 12.667 4.16699 23.334 12.5 32.001s18.833 13 31.5 13s23.167 -4.33301 31.5 -13s12.5 -19.334 12.5 -32.001s-4.16699 -23.334 -12.5 -32.001
s-18.833 -13 -31.5 -13s-23.167 4.33301 -31.5 13s-12.5 19.334 -12.5 32.001zM317 639c0 12.667 4.16699 23.334 12.5 32.001s18.833 13 31.5 13s23.167 -4.33301 31.5 -13s12.5 -19.334 12.5 -32.001s-4.16699 -23.334 -12.5 -32.001s-18.833 -13 -31.5 -13
s-23.167 4.33301 -31.5 13s-12.5 19.334 -12.5 32.001z" />
    <glyph glyph-name="Amacron" unicode="&#x100;" horiz-adv-x="703" 
d="M607 0h77l-300 682h-64l-301 -682h77l79 182h353zM351 599h2l73.5 -176.5l73.5 -175.5h-297l74.5 175.5zM216 842h270v-55h-270v55z" />
    <glyph glyph-name="amacron" unicode="&#x101;" horiz-adv-x="546" 
d="M265 505c-34.667 0 -68.3271 -5 -100.994 -15s-64.334 -22.667 -95.001 -38l33 -59c24.667 15.333 50.834 27.5 78.501 36.5s56.167 13.5 85.5 13.5c42 0 75.833 -9.66699 101.5 -29s38.5 -51 38.5 -95v-16c-24.667 3.33301 -49.334 6.33301 -74.001 9
s-49.334 4 -74.001 4c-26.667 0 -52.334 -3 -77.001 -9s-46.334 -15.5 -65.001 -28.5s-33.667 -29.833 -45 -50.5s-17 -46 -17 -76c0 -26.667 4.66699 -50.167 14 -70.5s22.166 -37.5 38.499 -51.5s35.333 -24.667 57 -32s45.167 -11 70.5 -11c36 0 69.667 7.5 101 22.5
s57 37.5 77 67.5h2l4 -77h54v309c0 66.667 -18.333 116 -55 148s-87.334 48 -152.001 48zM247.007 48c-16 0 -31.665 1.99902 -46.998 5.99902s-28.833 10.333 -40.5 19s-21.167 19.5 -28.5 32.5s-11 28.5 -11 46.5c0 20.667 4.33301 37.834 13 51.501s20 24.5 34 32.5
s29.667 13.667 47 17s34.666 5 51.999 5c23.333 0 46.666 -1.33301 69.999 -4s46.666 -6.33398 69.999 -11.001v-42c0 -23.333 -4 -44.333 -12 -63s-19.167 -34.667 -33.5 -48s-31.166 -23.666 -50.499 -30.999s-40.333 -11 -63 -11zM135.009 651.999h270v-55h-270v55z" />
    <glyph glyph-name="Abreve" unicode="&#x102;" horiz-adv-x="703" 
d="M352 760c-32 0 -60.8291 9 -86.4961 27s-42.834 42.667 -51.501 74l42 18c8 -22.667 20.167 -40.167 36.5 -52.5s36.166 -18.5 59.499 -18.5s43.166 6.16699 59.499 18.5s28.5 29.833 36.5 52.5l42 -18c-8.66699 -31.333 -25.834 -56 -51.501 -74s-54.5 -27 -86.5 -27z
M277.504 422.5l-74.5 -175.5h297l-73.5 175.5l-73.5 176.5h-2zM528.004 182h-353l-79 -182h-77l301 682h64l300 -682h-77z" />
    <glyph glyph-name="abreve" unicode="&#x103;" horiz-adv-x="546" 
d="M271 570c-32 0 -60.8291 9 -86.4961 27s-42.834 42.667 -51.501 74l42 18c8 -22.667 20.167 -40.167 36.5 -52.5s36.166 -18.5 59.499 -18.5s43.166 6.16699 59.499 18.5s28.5 29.833 36.5 52.5l42 -18c-8.66699 -31.333 -25.834 -56 -51.501 -74s-54.5 -27 -86.5 -27z
M247.004 48c22.667 0 43.665 3.66797 62.998 11.001s36.166 17.666 50.499 30.999s25.5 29.333 33.5 48s12 39.667 12 63v42c-23.333 4.66699 -46.666 8.33398 -69.999 11.001s-46.666 4 -69.999 4c-17.333 0 -34.666 -1.66699 -51.999 -5s-33 -9 -47 -17
s-25.333 -18.833 -34 -32.5s-13 -30.834 -13 -51.501c0 -18 3.66699 -33.5 11 -46.5s16.833 -23.833 28.5 -32.5s25.167 -15 40.5 -19s31 -6 47 -6zM265.002 505.001c65.333 0 116.164 -15.999 152.497 -47.999s54.5 -81.333 54.5 -148v-309h-54l-4 77h-2
c-20 -30.667 -45.667 -53.334 -77 -68.001s-65 -22 -101 -22c-25.333 0 -48.833 3.66699 -70.5 11s-40.667 18 -57 32s-29.166 31.167 -38.499 51.5s-14 43.833 -14 70.5c0 30 5.5 55.333 16.5 76s26 37.5 45 50.5s40.667 22.5 65 28.5s50.166 9 77.499 9
c24.667 0 49.334 -1.33301 74.001 -4s49.334 -5.66699 74.001 -9v16c0 44 -12.833 75.667 -38.5 95s-59.5 29 -101.5 29c-29.333 0 -57.833 -4.5 -85.5 -13.5s-53.834 -21.167 -78.501 -36.5l-33 59c30.667 15.333 62.334 28 95.001 38s66.334 15 101.001 15z" />
    <glyph glyph-name="Aogonek" unicode="&#x104;" horiz-adv-x="703" 
d="M500 247l-23 55l-28 68l-30 70l-28 67.5l-23 55.5l-15 36h-2l-15 -36l-23 -55l-28.5 -67l-30 -71l-28 -67.5l-23.5 -55.5h297zM608 -200c-26.667 0 -47.332 6.99805 -61.999 20.998s-22 31.667 -22 53c0 18.667 5.83301 38.334 17.5 59.001s33.5 43 65.5 67l-79 182h-353
l-79 -182h-77l301 682h64l300 -682h-23c-31.333 -27.333 -52.5 -50 -63.5 -68s-16.5 -34 -16.5 -48c0 -12.667 3.66699 -23.167 11 -31.5s18.666 -12.5 33.999 -12.5c8.66699 0 17.167 1.33301 25.5 4s16.5 6.33398 24.5 11.001l15 -32c-10.667 -6 -23.5 -11.333 -38.5 -16
s-29.833 -7 -44.5 -7z" />
    <glyph glyph-name="aogonek" unicode="&#x105;" horiz-adv-x="546" 
d="M247 48c22.667 0 43.665 3.66797 62.998 11.001s36.166 17.666 50.499 30.999s25.5 29.333 33.5 48s12 39.667 12 63v42c-23.333 4.66699 -46.666 8.33398 -69.999 11.001s-46.666 4 -69.999 4c-17.333 0 -34.666 -1.66699 -51.999 -5s-33 -9 -47 -17
s-25.333 -18.833 -34 -32.5s-13 -30.834 -13 -51.501c0 -18 3.66699 -33.5 11 -46.5s16.833 -23.833 28.5 -32.5s25.167 -15 40.5 -19s31 -6 47 -6zM418.998 -199.999c-23.333 0 -43.1738 6.16699 -59.5068 18.5s-24.5 30.833 -24.5 55.5c0 13.333 2.5 26 7.5 38
s11.333 23.333 19 34s16.5 20.5 26.5 29.5s20 17.167 30 24.5l-4 77h-2c-20 -30 -45.667 -52.5 -77 -67.5s-65 -22.5 -101 -22.5c-25.333 0 -48.833 3.66699 -70.5 11s-40.667 18 -57 32s-29.166 31.167 -38.499 51.5s-14 43.833 -14 70.5c0 30 5.66699 55.333 17 76
s26.333 37.5 45 50.5s40.334 22.5 65.001 28.5s50.334 9 77.001 9c24.667 0 49.334 -1.33301 74.001 -4s49.334 -5.66699 74.001 -9v16c0 44 -12.833 75.667 -38.5 95s-59.5 29 -101.5 29c-29.333 0 -57.666 -4.5 -84.999 -13.5s-53.666 -21.167 -78.999 -36.5l-33 59
c30.667 15.333 62.334 28 95.001 38s66.334 15 101.001 15c64.667 0 115.334 -16 152.001 -48s55 -81.333 55 -148v-309c-8 -6.66699 -16.667 -14.5 -26 -23.5s-18 -18.5 -26 -28.5s-14.667 -20.5 -20 -31.5s-8 -21.833 -8 -32.5c0 -14 4.16699 -24.833 12.5 -32.5
s19.166 -11.5 32.499 -11.5c9.33301 0 18.166 1.5 26.499 4.5s16.166 6.5 23.499 10.5l15 -32c-12 -7.33301 -25.333 -13 -40 -17s-29 -6 -43 -6z" />
    <glyph glyph-name="Cacute" unicode="&#x106;" horiz-adv-x="721" 
d="M335 781l119 139l52 -37l-134 -128zM403 -13c-48.667 0 -93.999 8.83887 -135.999 26.5059s-78.5 42.167 -109.5 73.5s-55.5 68.666 -73.5 111.999s-27 90.666 -27 141.999s9 98.666 27 141.999s42.5 80.666 73.5 111.999s67.5 55.666 109.5 72.999s87.333 26 136 26
c53.333 0 102.666 -10.167 147.999 -30.5s84 -49.166 116 -86.499l-51 -46c-25.333 31.333 -56.333 55.666 -93 72.999s-76.667 26 -120 26c-39.333 0 -75.833 -7 -109.5 -21s-63 -33.833 -88 -59.5s-44.667 -56.167 -59 -91.5s-21.5 -74.333 -21.5 -117
s7.16699 -81.667 21.5 -117s34 -65.833 59 -91.5s54.333 -45.5 88 -59.5s70.167 -21 109.5 -21c44 0 84.5 9 121.5 27s68.167 43.333 93.5 76l52 -45c-32 -38.667 -71 -68.834 -117 -90.501s-96 -32.5 -150 -32.5z" />
    <glyph glyph-name="cacute" unicode="&#x107;" horiz-adv-x="543" 
d="M304 51c58.667 0 106.333 22.3398 143 67.0068l47 -44c-24 -28.667 -52.167 -50.167 -84.5 -64.5s-67.5 -21.5 -105.5 -21.5c-36.667 0 -70.334 6.66699 -101.001 20s-57 31.666 -79 54.999s-39.167 50.666 -51.5 81.999s-18.5 65 -18.5 101s6.16699 69.667 18.5 101
s29.5 58.666 51.5 81.999s48.333 41.666 79 54.999s64.334 20 101.001 20c36 0 70.833 -7 104.5 -21s62.167 -35 85.5 -63l-48 -45c-17.333 21.333 -38.333 37.666 -63 48.999s-51 17 -79 17s-53.333 -5 -76 -15s-42 -23.833 -58 -41.5s-28.333 -38.334 -37 -62.001
s-13 -49.167 -13 -76.5s4.33301 -52.833 13 -76.5s21 -44.334 37 -62.001s35.333 -31.5 58 -41.5s48 -15 76 -15zM248.999 591.007l119 139l52 -37l-134 -128z" />
    <glyph glyph-name="Ccircumflex" unicode="&#x108;" horiz-adv-x="721" 
d="M402 850l-101 -103l-37 26l106 124h64l106 -124l-38 -26zM403 -13c-48.667 0 -93.999 8.83887 -135.999 26.5059s-78.5 42.167 -109.5 73.5s-55.5 68.666 -73.5 111.999s-27 90.666 -27 141.999s9 98.666 27 141.999s42.5 80.666 73.5 111.999s67.5 55.666 109.5 72.999
s87.333 26 136 26c53.333 0 102.666 -10.167 147.999 -30.5s84 -49.166 116 -86.499l-51 -46c-25.333 31.333 -56.333 55.666 -93 72.999s-76.667 26 -120 26c-39.333 0 -75.833 -7 -109.5 -21s-63 -33.833 -88 -59.5s-44.667 -56.167 -59 -91.5s-21.5 -74.333 -21.5 -117
s7.16699 -81.667 21.5 -117s34 -65.833 59 -91.5s54.333 -45.5 88 -59.5s70.167 -21 109.5 -21c44 0 84.5 9 121.5 27s68.167 43.333 93.5 76l52 -45c-32 -38.667 -71 -68.834 -117 -90.501s-96 -32.5 -150 -32.5z" />
    <glyph glyph-name="ccircumflex" unicode="&#x109;" horiz-adv-x="543" 
d="M304 51c58.667 0 106.333 22.3398 143 67.0068l47 -44c-24 -28.667 -52.167 -50.167 -84.5 -64.5s-67.5 -21.5 -105.5 -21.5c-36.667 0 -70.334 6.66699 -101.001 20s-57 31.666 -79 54.999s-39.167 50.666 -51.5 81.999s-18.5 65 -18.5 101s6.16699 69.667 18.5 101
s29.5 58.666 51.5 81.999s48.333 41.666 79 54.999s64.334 20 101.001 20c36 0 70.833 -7 104.5 -21s62.167 -35 85.5 -63l-48 -45c-17.333 21.333 -38.333 37.666 -63 48.999s-51 17 -79 17s-53.333 -5 -76 -15s-42 -23.833 -58 -41.5s-28.333 -38.334 -37 -62.001
s-13 -49.167 -13 -76.5s4.33301 -52.833 13 -76.5s21 -44.334 37 -62.001s35.333 -31.5 58 -41.5s48 -15 76 -15zM304.999 660.007l-101 -103l-37 26l106 124h64l106 -124l-38 -26z" />
    <glyph glyph-name="Cdotaccent" unicode="&#x10a;" horiz-adv-x="721" 
d="M357 829c0 12.667 4.16699 23.334 12.5 32.001s18.833 13 31.5 13s23.167 -4.33301 31.5 -13s12.5 -19.334 12.5 -32.001s-4.16699 -23.334 -12.5 -32.001s-18.833 -13 -31.5 -13s-23.167 4.33301 -31.5 13s-12.5 19.334 -12.5 32.001zM403 -13
c-48.667 0 -93.999 8.83887 -135.999 26.5059s-78.5 42.167 -109.5 73.5s-55.5 68.666 -73.5 111.999s-27 90.666 -27 141.999s9 98.666 27 141.999s42.5 80.666 73.5 111.999s67.5 55.666 109.5 72.999s87.333 26 136 26c53.333 0 102.666 -10.167 147.999 -30.5
s84 -49.166 116 -86.499l-51 -46c-25.333 31.333 -56.333 55.666 -93 72.999s-76.667 26 -120 26c-39.333 0 -75.833 -7 -109.5 -21s-63 -33.833 -88 -59.5s-44.667 -56.167 -59 -91.5s-21.5 -74.333 -21.5 -117s7.16699 -81.667 21.5 -117s34 -65.833 59 -91.5
s54.333 -45.5 88 -59.5s70.167 -21 109.5 -21c44 0 84.5 9 121.5 27s68.167 43.333 93.5 76l52 -45c-32 -38.667 -71 -68.834 -117 -90.501s-96 -32.5 -150 -32.5z" />
    <glyph glyph-name="cdotaccent" unicode="&#x10b;" horiz-adv-x="543" 
d="M304 51c-28 0 -53.332 4.99316 -75.999 14.9932s-42 23.833 -58 41.5s-28.333 38.334 -37 62.001s-13 49.167 -13 76.5s4.33301 52.833 13 76.5s21 44.334 37 62.001s35.333 31.5 58 41.5s48 15 76 15s54.333 -5.66699 79 -17s45.667 -27.666 63 -48.999l48 45
c-23.333 28 -51.833 49 -85.5 63s-68.5 21 -104.5 21c-36.667 0 -70.334 -6.66699 -101.001 -20s-57 -31.666 -79 -54.999s-39.167 -50.666 -51.5 -81.999s-18.5 -65 -18.5 -101s6.16699 -69.667 18.5 -101s29.5 -58.666 51.5 -81.999s48.333 -41.666 79 -54.999
s64.334 -20 101.001 -20c38 0 73.167 7.16699 105.5 21.5s60.5 35.833 84.5 64.5l-47 44c-36.667 -44.667 -84.334 -67 -143.001 -67zM338.001 638.993c0 -11.333 -3.83301 -21 -11.5 -29s-17.5 -12 -29.5 -12s-21.833 4 -29.5 12s-11.5 17.667 -11.5 29
c0 12 3.83301 22 11.5 30s17.5 12 29.5 12s21.833 -4 29.5 -12s11.5 -18 11.5 -30z" />
    <glyph glyph-name="Ccaron" unicode="&#x10c;" horiz-adv-x="721" 
d="M403 52c-39.333 0 -75.834 6.99414 -109.501 20.9941s-63 33.833 -88 59.5s-44.667 56.167 -59 91.5s-21.5 74.333 -21.5 117s7.16699 81.667 21.5 117s34 65.833 59 91.5s54.333 45.5 88 59.5s70.167 21 109.5 21c43.333 0 83.333 -8.66699 120 -26
s67.667 -41.666 93 -72.999l51 46c-32 37.333 -70.667 66.166 -116 86.499s-94.666 30.5 -147.999 30.5c-48.667 0 -94 -8.66699 -136 -26s-78.5 -41.666 -109.5 -72.999s-55.5 -68.666 -73.5 -111.999s-27 -90.666 -27 -141.999s9 -98.666 27 -141.999
s42.5 -80.666 73.5 -111.999s67.5 -55.833 109.5 -73.5s87.333 -26.5 136 -26.5c54 0 104 10.833 150 32.5s85 51.834 117 90.501l-52 45c-25.333 -32.667 -56.5 -58 -93.5 -76s-77.5 -27 -121.5 -27zM498.999 913.994l37 -26l-106 -123h-64l-106 123l38 26l100 -103z" />
    <glyph glyph-name="ccaron" unicode="&#x10d;" horiz-adv-x="543" 
d="M304 51c-28 0 -53.332 4.99316 -75.999 14.9932s-42 23.833 -58 41.5s-28.333 38.334 -37 62.001s-13 49.167 -13 76.5s4.33301 52.833 13 76.5s21 44.334 37 62.001s35.333 31.5 58 41.5s48 15 76 15s54.333 -5.66699 79 -17s45.667 -27.666 63 -48.999l48 45
c-23.333 28 -51.833 49 -85.5 63s-68.5 21 -104.5 21c-36.667 0 -70.334 -6.66699 -101.001 -20s-57 -31.666 -79 -54.999s-39.167 -50.666 -51.5 -81.999s-18.5 -65 -18.5 -101s6.16699 -69.667 18.5 -101s29.5 -58.666 51.5 -81.999s48.333 -41.666 79 -54.999
s64.334 -20 101.001 -20c38 0 73.167 7.16699 105.5 21.5s60.5 35.833 84.5 64.5l-47 44c-36.667 -44.667 -84.334 -67 -143.001 -67zM401.001 729.993l37 -26l-106 -124h-64l-106 124l37 26l101 -103z" />
    <glyph glyph-name="Dcaron" unicode="&#x10e;" horiz-adv-x="696" 
d="M89 682v-682.002h206c52.667 0 100.167 7.83301 142.5 23.5s78.5 38.334 108.5 68.001s53 65.5 69 107.5s24 89.333 24 142s-8 100 -24 142s-39 77.833 -69 107.5s-66.167 52.334 -108.5 68.001s-89.833 23.5 -142.5 23.5h-206zM157 64.998v552h135
c87.333 0 155.5 -24 204.5 -72s73.5 -116 73.5 -204s-24.5 -156 -73.5 -204s-117.167 -72 -204.5 -72h-135zM393 913.998l37 -26l-106 -124h-64l-106 124l37 26l101 -103z" />
    <glyph glyph-name="dcaron" unicode="&#x10f;" horiz-adv-x="738" 
d="M603 550c21.333 42 38 85.999 50 131.999h71c-9.33301 -23.333 -20 -46.166 -32 -68.499s-25 -43.5 -39 -63.5h-50zM304 49.999c26.667 0 51.167 4.66699 73.5 14s41.833 22.666 58.5 39.999s29.667 37.833 39 61.5s14 50.167 14 79.5c0 28.667 -4.66699 55 -14 79
s-22.333 44.667 -39 62s-36.167 30.666 -58.5 39.999s-46.833 14 -73.5 14c-26 0 -50.333 -4.66699 -73 -14s-42.167 -22.666 -58.5 -39.999s-29.166 -38 -38.499 -62s-14 -50.333 -14 -79c0 -29.333 4.66699 -55.833 14 -79.5s22.166 -44.167 38.499 -61.5
s35.833 -30.666 58.5 -39.999s47 -14 73 -14zM554 723.999l0.000976562 -724.999h-54l-4 86h-2c-22 -30.667 -49.833 -54.834 -83.5 -72.501s-70.834 -26.5 -111.501 -26.5c-34.667 0 -66.834 6.5 -96.501 19.5s-55.5 31 -77.5 54s-39.333 50.333 -52 82
s-19 66.167 -19 103.5s6.33301 71.833 19 103.5s30 59 52 82s47.833 40.833 77.5 53.5s61.834 19 96.501 19c38 0 73.167 -7.66699 105.5 -23s59.5 -37 81.5 -65h2v309h66z" />
    <glyph glyph-name="Dcroat" unicode="&#x110;" horiz-adv-x="696" 
d="M570 341c0 88 -24.5 156 -73.5 204s-117.167 72 -204.5 72h-135v-247h196v-58h-196v-247h135c87.333 0 155.5 24 204.5 72s73.5 116 73.5 204zM639 341c0 -52.667 -8 -99.998 -24 -141.998s-39 -77.833 -69 -107.5s-66.167 -52.334 -108.5 -68.001
s-89.833 -23.5 -142.5 -23.5h-206v312h-72v58h72v312h206c52.667 0 100.167 -7.83301 142.5 -23.5s78.5 -38.334 108.5 -68.001s53 -65.5 69 -107.5s24 -89.333 24 -142z" />
    <glyph glyph-name="dcroat" unicode="&#x111;" horiz-adv-x="638" 
d="M304 51c26.667 0 51.167 4.66699 73.5 14s41.833 22.666 58.5 39.999s29.667 37.833 39 61.5s14 50.167 14 79.5c0 28.667 -4.66699 55 -14 79s-22.333 44.667 -39 62s-36.167 30.666 -58.5 39.999s-46.833 14 -73.5 14c-26 0 -50.333 -4.66699 -73 -14
s-42.167 -22.666 -58.5 -39.999s-29.166 -38 -38.499 -62s-14 -50.333 -14 -79c0 -29.333 4.66699 -55.833 14 -79.5s22.166 -44.167 38.499 -61.5s35.833 -30.666 58.5 -39.999s47 -14 73 -14zM614 573l-59.999 0.000976562v-573h-54l-4 86h-2
c-22 -30.667 -49.833 -54.834 -83.5 -72.501s-70.834 -26.5 -111.501 -26.5c-34.667 0 -66.834 6.5 -96.501 19.5s-55.5 31 -77.5 54s-39.333 50.333 -52 82s-19 66.167 -19 103.5s6.33301 71.833 19 103.5s30 59 52 82s47.833 40.833 77.5 53.5s61.834 19 96.501 19
c38 0 73.167 -7.66699 105.5 -23s59.5 -37 81.5 -65h2v157h-124v49h124v103h66v-103h60v-49z" />
    <glyph glyph-name="Emacron" unicode="&#x112;" horiz-adv-x="597" 
d="M157 65v250h334v65h-334v237h362v65h-430v-682h439v65h-371zM172 842h271v-55h-271v55z" />
    <glyph glyph-name="emacron" unicode="&#x113;" horiz-adv-x="573" 
d="M517 266c0 34.667 -5.16602 66.501 -15.499 95.501s-25.333 54 -45 75s-43.5 37.5 -71.5 49.5s-59.667 18 -95 18c-36.667 0 -69.667 -6.83301 -99 -20.5s-54.166 -32.334 -74.499 -56.001s-35.833 -51.167 -46.5 -82.5s-16 -64.333 -16 -99
c0 -35.333 5.66699 -68.666 17 -99.999s27.5 -58.833 48.5 -82.5s46.5 -42.334 76.5 -56.001s63.333 -20.5 100 -20.5c38 0 74.5 7.33301 109.5 22s65.167 36.334 90.5 65.001l-47 45c-17.333 -20.667 -39.833 -37.334 -67.5 -50.001s-54.834 -19 -81.501 -19
c-25.333 0 -48.333 4.33301 -69 13s-38.834 20.5 -54.501 35.5s-28.167 33 -37.5 54s-15.333 43.5 -18 67.5h394c0.666992 7.33301 1.16699 15 1.5 23s0.5 15.667 0.5 23zM291.001 442.001c24.667 0 46.502 -3.99902 65.502 -11.999s35.167 -19.333 48.5 -34
s23.666 -31.834 30.999 -51.501s12 -41.167 14 -64.5h-328c2.66699 24 8.16699 45.833 16.5 65.5s19.666 36.667 33.999 51s31.333 25.5 51 33.5s42.167 12 67.5 12zM154.003 652.002h270v-55h-270v55z" />
    <glyph glyph-name="Ebreve" unicode="&#x114;" horiz-adv-x="597" 
d="M307 760c-32 0 -60.8291 9 -86.4961 27s-42.834 42.667 -51.501 74l42 18c8 -22.667 20.167 -40.167 36.5 -52.5s36.166 -18.5 59.499 -18.5s43.166 6.16699 59.499 18.5s28.5 29.833 36.5 52.5l42 -18c-8.66699 -31.333 -25.834 -56 -51.501 -74s-54.5 -27 -86.5 -27z
M528.004 65v-65h-439v682h430v-65h-362v-237h334v-65h-334v-250h371z" />
    <glyph glyph-name="ebreve" unicode="&#x115;" horiz-adv-x="573" 
d="M290 570c-32 0 -60.8291 9 -86.4961 27s-42.834 42.667 -51.501 74l42 18c8 -22.667 20.167 -40.167 36.5 -52.5s36.166 -18.5 59.499 -18.5s43.166 6.16699 59.499 18.5s28.5 29.833 36.5 52.5l42 -18c-8.66699 -31.333 -25.834 -56 -51.501 -74s-54.5 -27 -86.5 -27z
M291.004 442c-25.333 0 -47.835 -4.00098 -67.502 -12.001s-36.667 -19.167 -51 -33.5s-25.666 -31.333 -33.999 -51s-13.833 -41.5 -16.5 -65.5h328c-2 23.333 -6.66699 44.833 -14 64.5s-17.666 36.834 -30.999 51.501s-29.5 26 -48.5 34s-40.833 12 -65.5 12z
M517.002 265.999c0 -7.33301 -0.167969 -15.001 -0.500977 -23.001s-0.833008 -15.667 -1.5 -23h-394c2.66699 -24 8.66699 -46.5 18 -67.5s21.833 -39 37.5 -54s33.834 -26.833 54.501 -35.5s43.667 -13 69 -13c26.667 0 53.834 6.33301 81.501 19
s50.167 29.334 67.5 50.001l47 -45c-25.333 -28.667 -55.5 -50.334 -90.5 -65.001s-71.5 -22 -109.5 -22c-36.667 0 -70 6.83301 -100 20.5s-55.5 32.334 -76.5 56.001s-37.167 51.167 -48.5 82.5s-17 64.666 -17 99.999c0 34.667 5.33301 67.667 16 99
s26.167 58.833 46.5 82.5s45.166 42.334 74.499 56.001s62.333 20.5 99 20.5c35.333 0 67 -6 95 -18s51.833 -28.5 71.5 -49.5s34.667 -46 45 -75s15.5 -60.833 15.5 -95.5z" />
    <glyph glyph-name="Edotaccent" unicode="&#x116;" horiz-adv-x="597" 
d="M274 829c0 12.667 4.16699 23.334 12.5 32.001s18.833 13 31.5 13s23.167 -4.33301 31.5 -13s12.5 -19.334 12.5 -32.001s-4.16699 -23.334 -12.5 -32.001s-18.833 -13 -31.5 -13s-23.167 4.33301 -31.5 13s-12.5 19.334 -12.5 32.001zM528 65v-65h-439v682h430v-65h-362
v-237h334v-65h-334v-250h371z" />
    <glyph glyph-name="edotaccent" unicode="&#x117;" horiz-adv-x="573" 
d="M517 266c0 34.667 -5.16602 66.501 -15.499 95.501s-25.333 54 -45 75s-43.5 37.5 -71.5 49.5s-59.667 18 -95 18c-36.667 0 -69.667 -6.83301 -99 -20.5s-54.166 -32.334 -74.499 -56.001s-35.833 -51.167 -46.5 -82.5s-16 -64.333 -16 -99
c0 -35.333 5.66699 -68.666 17 -99.999s27.5 -58.833 48.5 -82.5s46.5 -42.334 76.5 -56.001s63.333 -20.5 100 -20.5c38 0 74.5 7.33301 109.5 22s65.167 36.334 90.5 65.001l-47 45c-17.333 -20.667 -39.833 -37.334 -67.5 -50.001s-54.834 -19 -81.501 -19
c-25.333 0 -48.333 4.33301 -69 13s-38.834 20.5 -54.501 35.5s-28.167 33 -37.5 54s-15.333 43.5 -18 67.5h394c0.666992 7.33301 1.16699 15 1.5 23s0.5 15.667 0.5 23zM291.001 442.001c24.667 0 46.502 -3.99902 65.502 -11.999s35.167 -19.333 48.5 -34
s23.666 -31.834 30.999 -51.501s12 -41.167 14 -64.5h-328c2.66699 24 8.16699 45.833 16.5 65.5s19.666 36.667 33.999 51s31.333 25.5 51 33.5s42.167 12 67.5 12zM249.003 639.002c0 12.667 4.16699 23.334 12.5 32.001s18.833 13 31.5 13s23.167 -4.33301 31.5 -13
s12.5 -19.334 12.5 -32.001s-4.16699 -23.334 -12.5 -32.001s-18.833 -13 -31.5 -13s-23.167 4.33301 -31.5 13s-12.5 19.334 -12.5 32.001z" />
    <glyph glyph-name="Eogonek" unicode="&#x118;" horiz-adv-x="597" 
d="M417 -116c0 -14 4.33398 -24.832 13.001 -32.499s19.667 -11.5 33 -11.5c9.33301 0 18.166 1.5 26.499 4.5s16.166 6.5 23.499 10.5l15 -32c-12 -7.33301 -25.5 -13 -40.5 -17s-29.5 -6 -43.5 -6c-22.667 0 -42.167 6.16699 -58.5 18.5s-24.5 30.833 -24.5 55.5
c0 13.333 2.33301 25.833 7 37.5s10.834 22.667 18.501 33s16.167 20 25.5 29s19 17.167 29 24.5v2h-352v682h430v-65h-362v-237h334v-65h-334v-250h371v-65h-30c-8 -6.66699 -16.667 -14.334 -26 -23.001s-18 -18 -26 -28s-14.833 -20.5 -20.5 -31.5
s-8.5 -22.167 -8.5 -33.5z" />
    <glyph glyph-name="eogonek" unicode="&#x119;" horiz-adv-x="573" 
d="M291 442c-25.333 0 -47.835 -4.00098 -67.502 -12.001s-36.667 -19.167 -51 -33.5s-25.666 -31.333 -33.999 -51s-13.833 -41.5 -16.5 -65.5h328c-2 23.333 -6.66699 44.833 -14 64.5s-17.666 36.834 -30.999 51.501s-29.5 26 -48.5 34s-40.833 12 -65.5 12z
M516.998 265.999c0 -7.33301 -0.166016 -15.0039 -0.499023 -23.0039s-0.833008 -15.667 -1.5 -23h-394c2.66699 -24 8.66699 -46.5 18 -67.5s21.833 -39 37.5 -54s33.834 -26.833 54.501 -35.5s43.667 -13 69 -13c26.667 0 54 6.33301 82 19s50.333 29.334 67 50.001
l47 -45c-20.667 -23.333 -45.167 -42.166 -73.5 -56.499s-58.166 -23.5 -89.499 -27.5l-23 -22c-8 -8 -15.333 -16.5 -22 -25.5s-12.334 -18.5 -17.001 -28.5s-7 -20 -7 -30c0 -14 4.16699 -24.833 12.5 -32.5s19.166 -11.5 32.499 -11.5c9.33301 0 18.333 1.5 27 4.5
s16.667 6.5 24 10.5l15 -32c-12 -7.33301 -25.5 -13 -40.5 -17s-29.5 -6 -43.5 -6c-22.667 0 -42.167 6.16699 -58.5 18.5s-24.5 30.833 -24.5 55.5c0 23.333 6.83301 44.5 20.5 63.5s29.167 35.5 46.5 49.5v1c-34 2.66699 -64.667 11.334 -92 26.001s-50.5 33.667 -69.5 57
s-33.667 50 -44 80s-15.5 61.667 -15.5 95c0 34.667 5.33301 67.667 16 99s26.167 58.833 46.5 82.5s45.166 42.334 74.499 56.001s62.333 20.5 99 20.5c35.333 0 67 -6 95 -18s51.833 -28.5 71.5 -49.5s34.667 -46 45 -75s15.5 -60.833 15.5 -95.5z" />
    <glyph glyph-name="Ecaron" unicode="&#x11a;" horiz-adv-x="597" 
d="M157 65v250h334v65h-334v237h362v65h-430v-682h439v65h-371zM406 914l37 -26l-106 -123h-63l-107 123l38 26l100 -103z" />
    <glyph glyph-name="ecaron" unicode="&#x11b;" horiz-adv-x="573" 
d="M517 266c0 34.667 -5.16602 66.501 -15.499 95.501s-25.333 54 -45 75s-43.5 37.5 -71.5 49.5s-59.667 18 -95 18c-36.667 0 -69.667 -6.83301 -99 -20.5s-54.166 -32.334 -74.499 -56.001s-35.833 -51.167 -46.5 -82.5s-16 -64.333 -16 -99
c0 -35.333 5.66699 -68.666 17 -99.999s27.5 -58.833 48.5 -82.5s46.5 -42.334 76.5 -56.001s63.333 -20.5 100 -20.5c38 0 74.5 7.33301 109.5 22s65.167 36.334 90.5 65.001l-47 45c-17.333 -20.667 -39.833 -37.334 -67.5 -50.001s-54.834 -19 -81.501 -19
c-25.333 0 -48.333 4.33301 -69 13s-38.834 20.5 -54.501 35.5s-28.167 33 -37.5 54s-15.333 43.5 -18 67.5h394c0.666992 7.33301 1.16699 15 1.5 23s0.5 15.667 0.5 23zM291.001 442.001c24.667 0 46.502 -3.99902 65.502 -11.999s35.167 -19.333 48.5 -34
s23.666 -31.834 30.999 -51.501s12 -41.167 14 -64.5h-328c2.66699 24 8.16699 45.833 16.5 65.5s19.666 36.667 33.999 51s31.333 25.5 51 33.5s42.167 12 67.5 12zM388.003 730.002l37 -26l-106 -124h-64l-106 124l37 26l101 -103z" />
    <glyph glyph-name="Gcircumflex" unicode="&#x11c;" horiz-adv-x="750" 
d="M399 850l-101 -103l-37 26l106 124h64l106 -124l-38 -26zM671 362l-0.000976562 -298.002v-1c-38 -24.667 -80.833 -43.5 -128.5 -56.5s-94.167 -19.5 -139.5 -19.5c-50.667 0 -97.167 9.16699 -139.5 27.5s-78.833 43.333 -109.5 75s-54.5 69 -71.5 112
s-25.5 89.5 -25.5 139.5s8.5 96.5 25.5 139.5s40.833 80.333 71.5 112s67.167 56.5 109.5 74.5s88.833 27 139.5 27s99 -9.66699 145 -29s85.667 -48.666 119 -87.999l-51 -46c-26.667 32.667 -58.5 57.334 -95.5 74.001s-76.167 25 -117.5 25s-79 -7.5 -113 -22.5
s-63.333 -35.5 -88 -61.5s-43.667 -56.667 -57 -92s-20 -73 -20 -113s6.66699 -77.667 20 -113s32.333 -66 57 -92s54 -46.5 88 -61.5s71.667 -22.5 113 -22.5c34.667 0 68.834 3.83301 102.501 11.5s66.167 19.167 97.5 34.5v199h-183v65h251z" />
    <glyph glyph-name="gcircumflex" unicode="&#x11d;" horiz-adv-x="581" 
d="M296 -142c15.333 0 33.168 1.16797 53.501 3.50098s39.666 7 57.999 14s33.833 16.833 46.5 29.5s19 29.334 19 50.001c0 20 -6.5 35.833 -19.5 47.5s-28.833 20.667 -47.5 27s-38.167 10.666 -58.5 12.999s-37.5 3.83301 -51.5 4.5l-103 6
c-21.333 -8.66699 -38.833 -21 -52.5 -37s-20.5 -36.333 -20.5 -61c0 -20.667 6.33301 -37.334 19 -50.001s28.167 -22.5 46.5 -29.5s37.5 -11.667 57.5 -14s37.667 -3.5 53 -3.5zM296.002 444.001c-16 0 -32.5 -2 -49.5 -6s-32.333 -10.333 -46 -19
s-24.834 -19.834 -33.501 -33.501s-13 -29.834 -13 -48.501c0 -19.333 4.33301 -35.666 13 -48.999s19.834 -24.333 33.501 -33s29 -15 46 -19s33.5 -6 49.5 -6s32.5 2 49.5 6s32.5 10.333 46.5 19s25.333 19.667 34 33s13 29.666 13 48.999
c0 18.667 -4.33301 34.834 -13 48.501s-20 24.834 -34 33.501s-29.5 15 -46.5 19s-33.5 6 -49.5 6zM150.002 153.001c0 -14.667 5.50098 -25.1709 16.501 -31.5039s22.833 -10.166 35.5 -11.499c16.667 -1.33301 36.667 -2.5 60 -3.5s47.5 -2.83301 72.5 -5.5
s49.667 -7 74 -13s46.166 -14.5 65.499 -25.5s35 -25.167 47 -42.5s18 -39 18 -65c0 -31.333 -8 -56.833 -24 -76.5s-36.167 -35.334 -60.5 -47.001s-50.666 -19.667 -78.999 -24s-54.833 -6.5 -79.5 -6.5c-24 0 -50 2.16699 -78 6.5s-54.167 12.166 -78.5 23.499
s-44.666 26.833 -60.999 46.5s-24.5 44.834 -24.5 75.501c0 27.333 7 50.833 21 70.5s32.667 35.167 56 46.5v2c-12.667 8.66699 -22.5 19.334 -29.5 32.001s-10.5 26.667 -10.5 42s4.16699 29.833 12.5 43.5s19.166 24.834 32.499 33.501v2c-32 30 -48 67.333 -48 112
c0 28.667 6 53.5 18 74.5s27.833 38.333 47.5 52s42 23.834 67 30.501s50.167 10 75.5 10c21.333 0 42 -2 62 -6s39.333 -10.667 58 -20l74 73l43 -44l-68 -66c26.667 -28.667 40 -63.334 40 -104.001c0 -28.667 -6.16699 -53.5 -18.5 -74.5s-28.333 -38.333 -48 -52
s-42 -23.834 -67 -30.501s-50.167 -10 -75.5 -10c-20 0 -39.833 1.83301 -59.5 5.5s-38.5 9.83398 -56.5 18.501c-8.66699 -3.33301 -15.834 -8.66602 -21.501 -15.999s-8.5 -15.666 -8.5 -24.999zM302.003 659.997l-101 -103l-37 26l106 124h64l106 -124l-38 -26z" />
    <glyph glyph-name="Gbreve" unicode="&#x11e;" horiz-adv-x="750" 
d="M402 760c-32 0 -60.8291 9 -86.4961 27s-42.834 42.667 -51.501 74l42 18c8 -22.667 20.167 -40.167 36.5 -52.5s36.166 -18.5 59.499 -18.5s43.166 6.16699 59.499 18.5s28.5 29.833 36.5 52.5l42 -18c-8.66699 -31.333 -25.834 -56 -51.501 -74s-54.5 -27 -86.5 -27z
M671.004 362l-0.000976562 -298.002v-1c-38 -24.667 -80.833 -43.5 -128.5 -56.5s-94.167 -19.5 -139.5 -19.5c-50.667 0 -97.167 9.16699 -139.5 27.5s-78.833 43.333 -109.5 75s-54.5 69 -71.5 112s-25.5 89.5 -25.5 139.5s8.5 96.5 25.5 139.5s40.833 80.333 71.5 112
s67.167 56.5 109.5 74.5s88.833 27 139.5 27s99 -9.66699 145 -29s85.667 -48.666 119 -87.999l-51 -46c-26.667 32.667 -58.5 57.334 -95.5 74.001s-76.167 25 -117.5 25s-79 -7.5 -113 -22.5s-63.333 -35.5 -88 -61.5s-43.667 -56.667 -57 -92s-20 -73 -20 -113
s6.66699 -77.667 20 -113s32.333 -66 57 -92s54 -46.5 88 -61.5s71.667 -22.5 113 -22.5c34.667 0 68.834 3.83301 102.501 11.5s66.167 19.167 97.5 34.5v199h-183v65h251z" />
    <glyph glyph-name="gbreve" unicode="&#x11f;" horiz-adv-x="583" 
d="M296 -142c15.333 0 33.168 1.16797 53.501 3.50098s39.666 7 57.999 14s33.833 16.833 46.5 29.5s19 29.334 19 50.001c0 20 -6.5 35.833 -19.5 47.5s-28.833 20.667 -47.5 27s-38.167 10.666 -58.5 12.999s-37.5 3.83301 -51.5 4.5l-103 6
c-21.333 -8.66699 -38.833 -21 -52.5 -37s-20.5 -36.333 -20.5 -61c0 -20.667 6.33301 -37.334 19 -50.001s28.167 -22.5 46.5 -29.5s37.5 -11.667 57.5 -14s37.667 -3.5 53 -3.5zM296.002 444.001c-16 0 -32.5 -2 -49.5 -6s-32.333 -10.333 -46 -19
s-24.834 -19.834 -33.501 -33.501s-13 -29.834 -13 -48.501c0 -19.333 4.33301 -35.666 13 -48.999s19.834 -24.333 33.501 -33s29 -15 46 -19s33.5 -6 49.5 -6s32.5 2 49.5 6s32.5 10.333 46.5 19s25.333 19.667 34 33s13 29.666 13 48.999
c0 18.667 -4.33301 34.834 -13 48.501s-20 24.834 -34 33.501s-29.5 15 -46.5 19s-33.5 6 -49.5 6zM150.002 153.001c0 -14.667 5.50098 -25.1709 16.501 -31.5039s22.833 -10.166 35.5 -11.499c16.667 -1.33301 36.667 -2.5 60 -3.5s47.5 -2.83301 72.5 -5.5
s49.667 -7 74 -13s46.166 -14.5 65.499 -25.5s35 -25.167 47 -42.5s18 -39 18 -65c0 -31.333 -8 -56.833 -24 -76.5s-36.167 -35.334 -60.5 -47.001s-50.666 -19.667 -78.999 -24s-54.833 -6.5 -79.5 -6.5c-24 0 -50 2.16699 -78 6.5s-54.167 12.166 -78.5 23.499
s-44.666 26.833 -60.999 46.5s-24.5 44.834 -24.5 75.501c0 27.333 7 50.833 21 70.5s32.667 35.167 56 46.5v2c-12.667 8.66699 -22.5 19.334 -29.5 32.001s-10.5 26.667 -10.5 42s4.16699 29.833 12.5 43.5s19.166 24.834 32.499 33.501v2c-32 30 -48 67.333 -48 112
c0 28.667 6 53.5 18 74.5s27.833 38.333 47.5 52s42 23.834 67 30.501s50.167 10 75.5 10c21.333 0 42 -2 62 -6s39.333 -10.667 58 -20l74 73l43 -44l-68 -66c26.667 -28.667 40 -63.334 40 -104.001c0 -28.667 -6.16699 -53.5 -18.5 -74.5s-28.333 -38.333 -48 -52
s-42 -23.834 -67 -30.501s-50.167 -10 -75.5 -10c-20 0 -39.833 1.83301 -59.5 5.5s-38.5 9.83398 -56.5 18.501c-8.66699 -3.33301 -15.834 -8.66602 -21.501 -15.999s-8.5 -15.666 -8.5 -24.999zM299.003 569.997c-32 0 -60.8291 9 -86.4961 27s-42.834 42.667 -51.501 74
l42 18c8 -22.667 20.167 -40.167 36.5 -52.5s36.166 -18.5 59.499 -18.5s43.166 6.16699 59.499 18.5s28.5 29.833 36.5 52.5l42 -18c-8.66699 -31.333 -25.834 -56 -51.501 -74s-54.5 -27 -86.5 -27z" />
    <glyph glyph-name="Gdotaccent" unicode="&#x120;" horiz-adv-x="750" 
d="M357 829c0 12.667 4.16699 23.334 12.5 32.001s18.833 13 31.5 13s23.167 -4.33301 31.5 -13s12.5 -19.334 12.5 -32.001s-4.16699 -23.334 -12.5 -32.001s-18.833 -13 -31.5 -13s-23.167 4.33301 -31.5 13s-12.5 19.334 -12.5 32.001zM671 362l-0.000976562 -298.002v-1
c-38 -24.667 -80.833 -43.5 -128.5 -56.5s-94.167 -19.5 -139.5 -19.5c-50.667 0 -97.167 9.16699 -139.5 27.5s-78.833 43.333 -109.5 75s-54.5 69 -71.5 112s-25.5 89.5 -25.5 139.5s8.5 96.5 25.5 139.5s40.833 80.333 71.5 112s67.167 56.5 109.5 74.5
s88.833 27 139.5 27s99 -9.66699 145 -29s85.667 -48.666 119 -87.999l-51 -46c-26.667 32.667 -58.5 57.334 -95.5 74.001s-76.167 25 -117.5 25s-79 -7.5 -113 -22.5s-63.333 -35.5 -88 -61.5s-43.667 -56.667 -57 -92s-20 -73 -20 -113s6.66699 -77.667 20 -113
s32.333 -66 57 -92s54 -46.5 88 -61.5s71.667 -22.5 113 -22.5c34.667 0 68.834 3.83301 102.501 11.5s66.167 19.167 97.5 34.5v199h-183v65h251z" />
    <glyph glyph-name="gdotaccent" unicode="&#x121;" horiz-adv-x="583" 
d="M150 153c0 9.33301 2.83203 17.6699 8.49902 25.0029s12.834 12.666 21.501 15.999c18 -8.66699 36.833 -14.834 56.5 -18.501s39.5 -5.5 59.5 -5.5c25.333 0 50.5 3.33301 75.5 10s47.333 16.834 67 30.501s35.667 31 48 52s18.5 45.833 18.5 74.5
c0 40.667 -13.333 75.334 -40 104.001l68 66l-43 44l-74 -73c-18.667 9.33301 -38 16 -58 20s-40.667 6 -62 6c-25.333 0 -50.5 -3.33301 -75.5 -10s-47.333 -16.834 -67 -30.501s-35.5 -31 -47.5 -52s-18 -45.833 -18 -74.5c0 -44.667 16 -82 48 -112v-2
c-13.333 -8.66699 -24.166 -19.834 -32.499 -33.501s-12.5 -28.167 -12.5 -43.5s3.5 -29.333 10.5 -42s16.833 -23.334 29.5 -32.001v-2c-23.333 -11.333 -42 -26.833 -56 -46.5s-21 -43.167 -21 -70.5c0 -30.667 8.16699 -55.834 24.5 -75.501s36.666 -35.167 60.999 -46.5
s50.5 -19.166 78.5 -23.499s54 -6.5 78 -6.5c24.667 0 51.167 2.16699 79.5 6.5s54.666 12.333 78.999 24s44.5 27.334 60.5 47.001s24 45.167 24 76.5c0 26 -6 47.667 -18 65s-27.667 31.5 -47 42.5s-41.166 19.5 -65.499 25.5s-49 10.333 -74 13s-49.167 4.5 -72.5 5.5
s-43.333 2.16699 -60 3.5c-12.667 1.33301 -24.5 5.16602 -35.5 11.499s-16.5 16.833 -16.5 31.5zM295.999 -141.996c-15.333 0 -33.002 1.16602 -53.002 3.49902s-39.167 7 -57.5 14s-33.833 16.833 -46.5 29.5s-19 29.334 -19 50.001c0 24.667 6.83301 45 20.5 61
s31.167 28.333 52.5 37l103 -6c14 -0.666992 31.167 -2.16699 51.5 -4.5s39.833 -6.66602 58.5 -12.999s34.5 -15.333 47.5 -27s19.5 -27.5 19.5 -47.5c0 -20.667 -6.33301 -37.334 -19 -50.001s-28.167 -22.5 -46.5 -29.5s-37.666 -11.667 -57.999 -14
s-38.166 -3.5 -53.499 -3.5zM438.997 337.003c0 -16 -3 -31 -9 -45s-14.167 -26.167 -24.5 -36.5s-22.5 -18.5 -36.5 -24.5s-29 -9 -45 -9s-30.833 3 -44.5 9s-25.834 14.167 -36.501 24.5s-19 22.5 -25 36.5s-9 29 -9 45s3 31 9 45s14.333 26.167 25 36.5
s22.834 18.5 36.501 24.5s28.5 9 44.5 9s31 -3 45 -9s26.167 -14.167 36.5 -24.5s18.5 -22.5 24.5 -36.5s9 -29 9 -45zM251.997 639.003c0 12.667 4.16699 23.334 12.5 32.001s18.833 13 31.5 13s23.167 -4.33301 31.5 -13s12.5 -19.334 12.5 -32.001
s-4.16699 -23.334 -12.5 -32.001s-18.833 -13 -31.5 -13s-23.167 4.33301 -31.5 13s-12.5 19.334 -12.5 32.001z" />
    <glyph glyph-name="Gcommaaccent" unicode="&#x122;" horiz-adv-x="750" 
d="M322 -192c11.333 23.333 21.168 46.667 29.501 70s15.166 44.333 20.499 63h71c-8.66699 -21.333 -19.667 -44.333 -33 -69s-26 -46 -38 -64h-50zM671.002 362.001l-0.000976562 -298.002v-1c-38 -24.667 -80.833 -43.5 -128.5 -56.5s-94.167 -19.5 -139.5 -19.5
c-50.667 0 -97.167 9.16699 -139.5 27.5s-78.833 43.333 -109.5 75s-54.5 69 -71.5 112s-25.5 89.5 -25.5 139.5s8.5 96.5 25.5 139.5s40.833 80.333 71.5 112s67.167 56.5 109.5 74.5s88.833 27 139.5 27s99 -9.66699 145 -29s85.667 -48.666 119 -87.999l-51 -46
c-26.667 32.667 -58.5 57.334 -95.5 74.001s-76.167 25 -117.5 25s-79 -7.5 -113 -22.5s-63.333 -35.5 -88 -61.5s-43.667 -56.667 -57 -92s-20 -73 -20 -113s6.66699 -77.667 20 -113s32.333 -66 57 -92s54 -46.5 88 -61.5s71.667 -22.5 113 -22.5
c34.667 0 68.834 3.83301 102.501 11.5s66.167 19.167 97.5 34.5v199h-183v65h251z" />
    <glyph glyph-name="gcommaaccent" unicode="&#x123;" horiz-adv-x="583" 
d="M381 683c-10 -21.333 -19.333 -43 -28 -65s-16 -44.333 -22 -67h-71c9.33301 22.667 20 45.167 32 67.5s25.333 43.833 40 64.5h49zM296 -142c15.333 0 33.168 1.16797 53.501 3.50098s39.666 7 57.999 14s33.833 16.833 46.5 29.5s19 29.334 19 50.001
c0 20 -6.5 35.833 -19.5 47.5s-28.833 20.667 -47.5 27s-38.167 10.666 -58.5 12.999s-37.5 3.83301 -51.5 4.5l-103 6c-21.333 -8.66699 -38.833 -21 -52.5 -37s-20.5 -36.333 -20.5 -61c0 -20.667 6.33301 -37.334 19 -50.001s28.167 -22.5 46.5 -29.5
s37.5 -11.667 57.5 -14s37.667 -3.5 53 -3.5zM296.002 444.001c-16 0 -32.5 -2 -49.5 -6s-32.333 -10.333 -46 -19s-24.834 -19.834 -33.501 -33.501s-13 -29.834 -13 -48.501c0 -19.333 4.33301 -35.666 13 -48.999s19.834 -24.333 33.501 -33s29 -15 46 -19
s33.5 -6 49.5 -6s32.5 2 49.5 6s32.5 10.333 46.5 19s25.333 19.667 34 33s13 29.666 13 48.999c0 18.667 -4.33301 34.834 -13 48.501s-20 24.834 -34 33.501s-29.5 15 -46.5 19s-33.5 6 -49.5 6zM150.002 153.001c0 -14.667 5.50098 -25.1709 16.501 -31.5039
s22.833 -10.166 35.5 -11.499c16.667 -1.33301 36.667 -2.5 60 -3.5s47.5 -2.83301 72.5 -5.5s49.667 -7 74 -13s46.166 -14.5 65.499 -25.5s35 -25.167 47 -42.5s18 -39 18 -65c0 -31.333 -8 -56.833 -24 -76.5s-36.167 -35.334 -60.5 -47.001s-50.666 -19.667 -78.999 -24
s-54.833 -6.5 -79.5 -6.5c-24 0 -50 2.16699 -78 6.5s-54.167 12.166 -78.5 23.499s-44.666 26.833 -60.999 46.5s-24.5 44.834 -24.5 75.501c0 27.333 7 50.833 21 70.5s32.667 35.167 56 46.5v2c-12.667 8.66699 -22.5 19.334 -29.5 32.001s-10.5 26.667 -10.5 42
s4.16699 29.833 12.5 43.5s19.166 24.834 32.499 33.501v2c-32 30 -48 67.333 -48 112c0 28.667 6 53.5 18 74.5s27.833 38.333 47.5 52s42 23.834 67 30.501s50.167 10 75.5 10c21.333 0 42 -2 62 -6s39.333 -10.667 58 -20l74 73l43 -44l-68 -66
c26.667 -28.667 40 -63.334 40 -104.001c0 -28.667 -6.16699 -53.5 -18.5 -74.5s-28.333 -38.333 -48 -52s-42 -23.834 -67 -30.501s-50.167 -10 -75.5 -10c-20 0 -39.833 1.83301 -59.5 5.5s-38.5 9.83398 -56.5 18.501
c-8.66699 -3.33301 -15.834 -8.66602 -21.501 -15.999s-8.5 -15.666 -8.5 -24.999z" />
    <glyph glyph-name="Hcircumflex" unicode="&#x124;" horiz-adv-x="708" 
d="M354 850l-101 -103l-37 26l106 124h64l106 -124l-38 -26zM619 682v-682h-68v325h-394v-325h-68v682h68v-292h394v292h68z" />
    <glyph glyph-name="hcircumflex" unicode="&#x125;" horiz-adv-x="593" 
d="M115 850l-101 -103l-37 26l106 124h64l106 -124l-38 -26zM331 504c31.333 0 58.8311 -5.66699 82.498 -17s43.334 -26.666 59.001 -45.999s27.334 -42 35.001 -68s11.5 -53.667 11.5 -83v-290h-66v269c0 23.333 -2.33301 45.5 -7 66.5s-12.5 39.333 -23.5 55
s-25.333 28.167 -43 37.5s-39.5 14 -65.5 14s-49.167 -5 -69.5 -15s-37.5 -23.333 -51.5 -40s-24.667 -36 -32 -58s-11 -45 -11 -69v-260h-66v725h66v-302h2c22 27.333 48.667 47.666 80 60.999s64.333 20 99 20z" />
    <glyph glyph-name="Hbar" unicode="&#x126;" horiz-adv-x="708" 
d="M551 520h-394v-130h394v130zM678 520h-59v-520h-68v325h-394v-325h-68v520h-60v56h60v106h68v-106h394v106h68v-106h59v-56z" />
    <glyph glyph-name="hbar" unicode="&#x127;" horiz-adv-x="593" 
d="M331 504c31.333 0 58.8311 -5.66699 82.498 -17s43.334 -26.666 59.001 -45.999s27.334 -42 35.001 -68s11.5 -53.667 11.5 -83v-290h-66v269c0 23.333 -2.33301 45.5 -7 66.5s-12.5 39.333 -23.5 55s-25.333 28.167 -43 37.5s-39.5 14 -65.5 14s-49.167 -5 -69.5 -15
s-37.5 -23.333 -51.5 -40s-24.667 -36 -32 -58s-11 -45 -11 -69v-260h-66v573h-60v49h60v103h66v-103h124v-49h-124v-150h2c22 27.333 48.667 47.666 80 60.999s64.333 20 99 20z" />
    <glyph glyph-name="Itilde" unicode="&#x128;" horiz-adv-x="246" 
d="M194 757c-14.667 0 -28 2.16699 -40 6.5s-23.5 9.33301 -34.5 15s-21.833 10.667 -32.5 15s-21.667 6.5 -33 6.5s-21.5 -4.33301 -30.5 -13s-16.5 -18.667 -22.5 -30l-40 23c9.33301 19.333 22 36.166 38 50.499s34 21.5 54 21.5c14 0 27 -2.16699 39 -6.5
s23.667 -9.33301 35 -15s22.333 -10.667 33 -15s21.667 -6.5 33 -6.5s21.333 4 30 12s16 18 22 30l40 -22c-9.33301 -21.333 -21.833 -38.666 -37.5 -51.999s-33.5 -20 -53.5 -20zM89 0v682h68v-682h-68z" />
    <glyph glyph-name="itilde" unicode="&#x129;" horiz-adv-x="235" 
d="M188 567c-14.667 0 -28 2.16699 -40 6.5s-23.5 9.33301 -34.5 15s-21.833 10.667 -32.5 15s-21.667 6.5 -33 6.5s-21.5 -4.33301 -30.5 -13s-16.5 -18.667 -22.5 -30l-40 23c9.33301 19.333 22 36.166 38 50.499s34 21.5 54 21.5c14 0 27 -2.16699 39 -6.5
s23.667 -9.33301 35 -15s22.333 -10.667 33 -15s21.667 -6.5 33 -6.5s21.333 4 30 12s16 18 22 30l40 -22c-9.33301 -21.333 -21.833 -38.666 -37.5 -51.999s-33.5 -20 -53.5 -20zM84 492h66v-492h-66v492z" />
    <glyph glyph-name="Imacron" unicode="&#x12a;" horiz-adv-x="246" 
d="M-12 842h270v-55h-270v55zM157 0v682h-68v-682h68z" />
    <glyph glyph-name="imacron" unicode="&#x12b;" horiz-adv-x="235" 
d="M-18 652h271v-55h-271v55zM84 0h66v492h-66v-492z" />
    <glyph glyph-name="Ibreve" unicode="&#x12c;" horiz-adv-x="246" 
d="M123 760c-32 0 -60.8291 9 -86.4961 27s-42.834 42.667 -51.501 74l42 18c8 -22.667 20.167 -40.167 36.5 -52.5s36.166 -18.5 59.499 -18.5s43.166 6.16699 59.499 18.5s28.5 29.833 36.5 52.5l42 -18c-8.66699 -31.333 -25.834 -56 -51.501 -74s-54.5 -27 -86.5 -27z
M89.0039 0v682h68v-682h-68z" />
    <glyph glyph-name="ibreve" unicode="&#x12d;" horiz-adv-x="235" 
d="M117 570c-32 0 -60.8291 9 -86.4961 27s-42.834 42.667 -51.501 74l42 18c8 -22.667 20.167 -40.167 36.5 -52.5s36.166 -18.5 59.499 -18.5s43.166 6.16699 59.499 18.5s28.5 29.833 36.5 52.5l42 -18c-8.66699 -31.333 -25.834 -56 -51.501 -74s-54.5 -27 -86.5 -27z
M84.0039 492h66v-492h-66v492z" />
    <glyph glyph-name="Iogonek" unicode="&#x12e;" horiz-adv-x="246" 
d="M103 -200c-22.667 0 -42.166 6.16797 -58.499 18.501s-24.5 30.833 -24.5 55.5c0 13.333 2.33301 25.833 7 37.5s10.834 22.667 18.501 33s16.167 20 25.5 29s19 17.167 29 24.5v2h-11v682h68v-682c-8 -6.66699 -16.667 -14.334 -26 -23.001s-18 -18 -26 -28
s-14.833 -20.5 -20.5 -31.5s-8.5 -22.167 -8.5 -33.5c0 -14 4.33301 -24.833 13 -32.5s19.667 -11.5 33 -11.5c9.33301 0 18.166 1.5 26.499 4.5s16.166 6.5 23.499 10.5l15 -32c-12 -7.33301 -25.5 -13 -40.5 -17s-29.5 -6 -43.5 -6z" />
    <glyph glyph-name="iogonek" unicode="&#x12f;" horiz-adv-x="235" 
d="M159 639c0 -11.333 -4 -21 -12 -29s-18 -12 -30 -12c-11.333 0 -21 4 -29 12s-12 17.667 -12 29c0 12 4 22 12 30s17.667 12 29 12c12 0 22 -4 30 -12s12 -18 12 -30zM115 -160c-13.333 0 -24.167 3.83203 -32.5 11.499s-12.5 18.5 -12.5 32.5
c0 11.333 2.66699 22.5 8 33.5s12 21.5 20 31.5s16.667 19.333 26 28s18 16.334 26 23.001v492h-66v-492h10v-2c-10 -7.33301 -19.667 -15.5 -29 -24.5s-17.833 -18.667 -25.5 -29s-13.834 -21.333 -18.501 -33s-7 -24.167 -7 -37.5c0 -24.667 8 -43.167 24 -55.5
s35.667 -18.5 59 -18.5c14 0 28.333 2 43 6s28 9.66699 40 17l-14 32c-8 -4 -16.167 -7.5 -24.5 -10.5s-17.166 -4.5 -26.499 -4.5z" />
    <glyph glyph-name="Idotaccent" unicode="&#x130;" horiz-adv-x="246" 
d="M82 829c0 12.667 4.16699 23.334 12.5 32.001s18.833 13 31.5 13s23.167 -4.33301 31.5 -13s12.5 -19.334 12.5 -32.001s-4.16699 -23.334 -12.5 -32.001s-18.833 -13 -31.5 -13s-23.167 4.33301 -31.5 13s-12.5 19.334 -12.5 32.001zM89 0v682h68v-682h-68z" />
    <glyph glyph-name="dotlessi" unicode="&#x131;" horiz-adv-x="235" 
d="M84 492h66v-492h-66v492z" />
    <glyph glyph-name="IJ" unicode="&#x132;" horiz-adv-x="724" 
d="M418 53c46 0 82.334 14.832 109.001 44.499s40 69.5 40 119.5v465h68v-463c0 -35.333 -5 -67.166 -15 -95.499s-24.333 -52.5 -43 -72.5s-41.334 -35.5 -68.001 -46.5s-57 -16.5 -91 -16.5c-26 0 -50.5 3.66699 -73.5 11s-43.667 17 -62 29s-34.5 26 -48.5 42
s-25.333 32.667 -34 50l56 39c15.333 -31.333 36.333 -56.833 63 -76.5s59.667 -29.5 99 -29.5zM89.001 -0.000976562v682h68v-682h-68z" />
    <glyph glyph-name="ij" unicode="&#x133;" horiz-adv-x="444" 
d="M365 639c0 -11.333 -3.83301 -21 -11.5 -29s-17.834 -12 -30.501 -12c-12 0 -21.833 4 -29.5 12s-11.5 17.667 -11.5 29s3.83301 21.166 11.5 29.499s17.5 12.5 29.5 12.5c12.667 0 22.834 -4.16699 30.501 -12.5s11.5 -18.166 11.5 -29.499zM209 -138
c-13.333 0 -26.667 1.16895 -40 3.50195s-27 5.16602 -41 8.49902l-11 -60c14.667 -3.33301 30.5 -6.5 47.5 -9.5s33.5 -4.5 49.5 -4.5c48 0 83.667 16.167 107 48.5s35 77.166 35 134.499v509h-66l1 -509c0 -38.667 -6.33301 -68.5 -19 -89.5s-33.667 -31.5 -63 -31.5z
M83.999 0.00195312h66v492h-66v-492zM158.999 639.002c0 -11.333 -3.83301 -21 -11.5 -29s-17.834 -12 -30.501 -12c-12 0 -21.833 4 -29.5 12s-11.5 17.667 -11.5 29s3.83301 21.166 11.5 29.499s17.5 12.5 29.5 12.5c12.667 0 22.834 -4.16699 30.501 -12.5
s11.5 -18.166 11.5 -29.499z" />
    <glyph glyph-name="Jcircumflex" unicode="&#x134;" horiz-adv-x="538" 
d="M422 850l-101 -103l-37 26l106 124h64l106 -124l-38 -26zM242 53c46 0 82.334 14.832 109.001 44.499s40 69.5 40 119.5v465h68v-463c0 -35.333 -5 -67.166 -15 -95.499s-24.333 -52.5 -43 -72.5s-41.334 -35.5 -68.001 -46.5s-57 -16.5 -91 -16.5
c-26 0 -50.5 3.66699 -73.5 11s-43.667 17 -62 29s-34.5 26 -48.5 42s-25.333 32.667 -34 50l56 39c15.333 -31.333 36.333 -56.833 63 -76.5s59.667 -29.5 99 -29.5z" />
    <glyph glyph-name="jcircumflex" unicode="&#x135;" horiz-adv-x="286" 
d="M133 492l65.999 -0.000976562v-509c0 -23.333 -2.33301 -46 -7 -68s-12.5 -41.5 -23.5 -58.5s-25.5 -30.667 -43.5 -41s-40.667 -15.5 -68 -15.5c-16.667 0 -33.167 1.33301 -49.5 4s-32.5 6 -48.5 10l11 60c13.333 -3.33301 26.833 -6.16602 40.5 -8.49902
s27.5 -3.5 41.5 -3.5c17.333 0 31.333 3.66699 42 11s18.834 16.833 24.501 28.5s9.5 24.667 11.5 39s3 28.5 3 42.5v509zM164.999 659.999l-101 -103l-37 26l106 124h64l106 -124l-38 -26z" />
    <glyph glyph-name="Kcommaaccent" unicode="&#x136;" horiz-adv-x="658" 
d="M266 -192c11.333 23.333 21.168 46.667 29.501 70s15.166 44.333 20.499 63h71c-8.66699 -21.333 -19.667 -44.333 -33 -69s-26 -46 -38 -64h-50zM157.002 0.000976562h-68v682h68v-344h2l369 344h95l-332 -308l343 -374h-93l-299 330l-85 -76v-254z" />
    <glyph glyph-name="kcommaaccent" unicode="&#x137;" horiz-adv-x="543" 
d="M221 -193c10.667 21.333 20.333 43 29 65s16 44.333 22 67h70c-9.33301 -23.333 -20 -46 -32 -68s-25 -43.333 -39 -64h-50zM149.999 -1h-66v725h66v-490h2l274 257h84l-232 -216l246 -276h-86l-206 234l-82 -72v-162z" />
    <glyph glyph-name="kgreenlandic" unicode="&#x138;" horiz-adv-x="543" 
d="M150 0h-66v492h66v-257h2l274 257h84l-232 -216l246 -276h-86l-206 234l-82 -72v-162z" />
    <glyph glyph-name="Lacute" unicode="&#x139;" horiz-adv-x="548" 
d="M78 781l119 139l52 -37l-134 -128zM514 65v-65h-425v682h68v-617h357z" />
    <glyph glyph-name="lacute" unicode="&#x13a;" horiz-adv-x="234" 
d="M79 808l119 139l52 -37l-134 -128zM84 725h66v-725h-66v725z" />
    <glyph glyph-name="Lcommaaccent" unicode="&#x13b;" horiz-adv-x="548" 
d="M224 -192c11.333 23.333 21.168 46.667 29.501 70s15.166 44.333 20.499 63h71c-8.66699 -21.333 -19.667 -44.333 -33 -69s-26 -46 -38 -64h-50zM514.002 65.001v-65h-425v682h68v-617h357z" />
    <glyph glyph-name="uni013C" unicode="&#x13c;" horiz-adv-x="234" 
d="M31 -192c10 21.333 19.333 42.999 28 64.999s16 44.667 22 68h71c-9.33301 -23.333 -20 -46.166 -32 -68.499s-25 -43.833 -39 -64.5h-50zM84 724.999h66v-725h-66v725z" />
    <glyph glyph-name="Lcaron" unicode="&#x13d;" horiz-adv-x="548" 
d="M214 550c11.333 23.333 21.332 46.502 29.999 69.502s15.334 43.833 20.001 62.5h71c-4 -10.667 -8.83301 -21.834 -14.5 -33.501s-11.667 -23.334 -18 -35.001s-12.833 -23 -19.5 -34s-13 -20.833 -19 -29.5h-50zM513.999 65.002v-65h-425v682h68v-617h357z" />
    <glyph glyph-name="lcaron" unicode="&#x13e;" horiz-adv-x="334" 
d="M199 550c10 21.333 19.333 42.999 28 64.999s16 44.333 22 67h71c-9.33301 -23.333 -20 -46.166 -32 -68.499s-25 -43.5 -39 -63.5h-50zM84 724.999h66v-725h-66v725z" />
    <glyph glyph-name="Ldot" unicode="&#x13f;" horiz-adv-x="548" 
d="M305 380c0 11.333 -3.83301 21.166 -11.5 29.499s-17.5 12.5 -29.5 12.5s-22 -4.16699 -30 -12.5s-12 -18.166 -12 -29.499s4 -21 12 -29s18 -12 30 -12s21.833 4 29.5 12s11.5 17.667 11.5 29zM514 65v-65h-425v682h68v-617h357z" />
    <glyph glyph-name="ldot" unicode="&#x140;" horiz-adv-x="308" 
d="M294 362c0 12 -4 22 -12 30s-17.667 12 -29 12c-12 0 -22 -4 -30 -12s-12 -18 -12 -30c0 -11.333 4 -21 12 -29s18 -12 30 -12c11.333 0 21 4 29 12s12 17.667 12 29zM84 725h66v-725h-66v725z" />
    <glyph glyph-name="Lslash" unicode="&#x141;" horiz-adv-x="548" 
d="M514 65v-65h-425v321l-76 -24l-17 52l93 30v303h68v-281l80 26l17 -52l-97 -32v-278h357z" />
    <glyph glyph-name="lslash" unicode="&#x142;" horiz-adv-x="273" 
d="M170 0h-66v326l-80 -26l-15 47l95 31v347h66v-326l79 26l15 -47l-94 -31v-347z" />
    <glyph glyph-name="Nacute" unicode="&#x143;" horiz-adv-x="718" 
d="M320 781l119 139l52 -37l-134 -128zM629 682v-682.002h-65l-407 566h-2c0 -13.333 0.166992 -27.666 0.5 -42.999l1 -47.5c0.333008 -16.333 0.5 -32.5 0.5 -48.5v-44v-383h-68v682h64l408 -566h2c0 12.667 -0.166992 26.834 -0.5 42.501l-1 48
c-0.333008 16.333 -0.5 32.5 -0.5 48.5v44v383h68z" />
    <glyph glyph-name="nacute" unicode="&#x144;" horiz-adv-x="593" 
d="M331 504c31.333 0 58.8311 -5.66797 82.498 -17.001s43.334 -26.666 59.001 -45.999s27.334 -42 35.001 -68s11.5 -53.667 11.5 -83v-290h-66v269c0 23.333 -2.33301 45.5 -7 66.5s-12.5 39.333 -23.5 55s-25.333 28.167 -43 37.5s-39.5 14 -65.5 14
s-49.167 -5 -69.5 -15s-37.5 -23.333 -51.5 -40s-24.667 -36 -32 -58s-11 -45 -11 -69v-260h-66v492h54l4 -80h2c21.333 31.333 48.5 54.5 81.5 69.5s68.167 22.5 105.5 22.5zM266.998 590.999l119 139l52 -37l-134 -128z" />
    <glyph glyph-name="Ncommaaccent" unicode="&#x145;" horiz-adv-x="718" 
d="M291 -192c11.333 23.333 21.168 46.667 29.501 70s15.166 44.333 20.499 63h71c-8.66699 -21.333 -19.667 -44.333 -33 -69s-26 -46 -38 -64h-50zM629.002 682.001v-682.002h-65l-407 566h-2c0 -13.333 0.166992 -27.666 0.5 -42.999l1 -47.5
c0.333008 -16.333 0.5 -32.5 0.5 -48.5v-44v-383h-68v682h64l408 -566h2c0 12.667 -0.166992 26.834 -0.5 42.501l-1 48c-0.333008 16.333 -0.5 32.5 -0.5 48.5v44v383h68z" />
    <glyph glyph-name="ncommaaccent" unicode="&#x146;" horiz-adv-x="593" 
d="M230 -192c10 21.333 19.333 42.999 28 64.999s16 44.667 22 68h71c-9.33301 -23.333 -20 -46.166 -32 -68.499s-25 -43.833 -39 -64.5h-50zM331 503.999c31.333 0 58.8311 -5.66797 82.498 -17.001s43.334 -26.666 59.001 -45.999s27.334 -42 35.001 -68
s11.5 -53.667 11.5 -83v-290h-66v269c0 23.333 -2.33301 45.5 -7 66.5s-12.5 39.333 -23.5 55s-25.333 28.167 -43 37.5s-39.5 14 -65.5 14s-49.167 -5 -69.5 -15s-37.5 -23.333 -51.5 -40s-24.667 -36 -32 -58s-11 -45 -11 -69v-260h-66v492h54l4 -80h2
c21.333 31.333 48.5 54.5 81.5 69.5s68.167 22.5 105.5 22.5z" />
    <glyph glyph-name="Ncaron" unicode="&#x147;" horiz-adv-x="718" 
d="M459 914l38 -26l-106 -123h-64l-106 123l37 26l101 -103zM561 682v-382.998v-44c0 -16 0.166992 -32.167 0.5 -48.5l1 -48c0.333008 -15.667 0.5 -29.834 0.5 -42.501h-2l-408 566h-64v-682h68v383v44c0 16 -0.166992 32.167 -0.5 48.5l-1 47.5
c-0.333008 15.333 -0.5 29.666 -0.5 42.999h2l407 -566h65v682h-68z" />
    <glyph glyph-name="ncaron" unicode="&#x148;" horiz-adv-x="593" 
d="M331 504c-37.333 0 -72.498 -7.49902 -105.498 -22.499s-60.167 -38.167 -81.5 -69.5h-2l-4 80h-54v-492h66v260c0 24 3.66699 47 11 69s18 41.333 32 58s31.167 30 51.5 40s43.5 15 69.5 15s47.833 -4.66699 65.5 -14s32 -21.833 43 -37.5s18.833 -34 23.5 -55
s7 -43.167 7 -66.5v-269h66v290c0 29.333 -3.83301 57 -11.5 83s-19.334 48.667 -35.001 68s-35.334 34.666 -59.001 45.999s-51.167 17 -82.5 17zM402.002 730.001l37 -26l-106 -124h-64l-106 124l37 26l101 -103z" />
    <glyph glyph-name="napostrophe" unicode="&#x149;" horiz-adv-x="593" 
d="M48 561c11.333 23.333 21.1689 46.667 29.502 70s15.166 44 20.499 62h71c-4 -10 -8.83301 -21 -14.5 -33s-11.834 -23.833 -18.501 -35.5l-20 -34c-6.66699 -11 -13 -20.833 -19 -29.5h-49zM333.003 504.001c24.667 0 48.5 -4.33301 71.5 -13s43 -21.667 60 -39
s30.667 -39.5 41 -66.5s15.5 -58.833 15.5 -95.5v-290h-66v269c0 60 -12.833 103.833 -38.5 131.5s-59.167 41.5 -100.5 41.5c-26 0 -49.167 -5 -69.5 -15s-37.5 -23.5 -51.5 -40.5s-24.667 -36.5 -32 -58.5s-11 -44.667 -11 -68v-260h-66v492h54l4 -82
c21.333 30.667 48.333 54 81 70s68.667 24 108 24z" />
    <glyph glyph-name="Eng" unicode="&#x14a;" horiz-adv-x="718" 
d="M629 682l0.00488281 -656.003c0 -35.333 -3.16699 -67 -9.5 -95s-16.833 -51.667 -31.5 -71s-33.834 -34.166 -57.501 -44.499s-52.5 -15.5 -86.5 -15.5c-14.667 0 -29.834 1.16699 -45.501 3.5s-29.834 5.16602 -42.501 8.49902l14 64c12 -3.33301 24 -6 36 -8
s24.667 -3 38 -3c43.333 0 73.166 12.333 89.499 37s25.166 59.334 26.499 104.001l-403 560h-2c0 -13.333 0.166992 -27.666 0.5 -42.999l1 -47.5c0.333008 -16.333 0.5 -32.5 0.5 -48.5v-44v-383h-68v682h64l408 -566h2c0 12.667 -0.166992 26.834 -0.5 42.501l-1 48
c-0.333008 16.333 -0.5 32.5 -0.5 48.5v44v383h68z" />
    <glyph glyph-name="eng" unicode="&#x14b;" horiz-adv-x="593" 
d="M333 504c24.667 0 48.5029 -4.33203 71.5029 -12.999s43 -21.667 60 -39s30.667 -39.5 41 -66.5s15.5 -58.833 15.5 -95.5v-311c0 -57.333 -12.167 -101.5 -36.5 -132.5s-60.5 -46.5 -108.5 -46.5c-15.333 0 -30.833 1 -46.5 3s-29.834 4.66699 -42.501 8l12 60
c11.333 -2.66699 23.166 -4.83398 35.499 -6.50098s24.5 -2.5 36.5 -2.5c56 0 84 39 84 117v290c0 60 -12.833 103.833 -38.5 131.5s-59.167 41.5 -100.5 41.5c-26 0 -49.167 -5 -69.5 -15s-37.5 -23.5 -51.5 -40.5s-24.667 -36.5 -32 -58.5s-11 -44.667 -11 -68v-260h-66
v492h54l4 -80h2c21.333 30 48.166 52.833 80.499 68.5s67.833 23.5 106.5 23.5z" />
    <glyph glyph-name="Omacron" unicode="&#x14c;" horiz-adv-x="805" 
d="M403 694c-50.667 0 -97.167 -9 -139.5 -27s-78.833 -42.833 -109.5 -74.5s-54.5 -69 -71.5 -112s-25.5 -89.5 -25.5 -139.5s8.5 -96.5 25.5 -139.5s40.833 -80.333 71.5 -112s67.167 -56.667 109.5 -75s88.833 -27.5 139.5 -27.5c50 0 96.167 9.16699 138.5 27.5
s78.833 43.333 109.5 75s54.5 69 71.5 112s25.5 89.5 25.5 139.5s-8.5 96.5 -25.5 139.5s-40.833 80.333 -71.5 112s-67.167 56.5 -109.5 74.5s-88.5 27 -138.5 27zM403 52c-41.333 0 -79 7.5 -113 22.5s-63.333 35.5 -88 61.5s-43.667 56.667 -57 92s-20 73 -20 113
s6.66699 77.667 20 113s32.333 66 57 92s54 46.5 88 61.5s71.667 22.5 113 22.5c40.667 0 78 -7.5 112 -22.5s63.333 -35.5 88 -61.5s43.667 -56.667 57 -92s20 -73 20 -113s-6.66699 -77.667 -20 -113s-32.333 -66 -57 -92s-54 -46.5 -88 -61.5s-71.333 -22.5 -112 -22.5z
M267 842h270v-55h-270v55z" />
    <glyph glyph-name="omacron" unicode="&#x14d;" horiz-adv-x="609" 
d="M304 504c-36.667 0 -70.334 -6.66699 -101.001 -20s-57 -31.666 -79 -54.999s-39.167 -50.666 -51.5 -81.999s-18.5 -65 -18.5 -101s6.16699 -69.667 18.5 -101s29.5 -58.666 51.5 -81.999s48.333 -41.666 79 -54.999s64.334 -20 101.001 -20s70.334 6.66699 101.001 20
s57.167 31.666 79.5 54.999s39.666 50.666 51.999 81.999s18.5 65 18.5 101s-6.16699 69.667 -18.5 101s-29.666 58.666 -51.999 81.999s-48.833 41.666 -79.5 54.999s-64.334 20 -101.001 20zM304 51c-28 0 -53.333 5 -76 15s-42 23.833 -58 41.5
s-28.333 38.334 -37 62.001s-13 49.167 -13 76.5s4.33301 52.833 13 76.5s21 44.334 37 62.001s35.333 31.5 58 41.5s48 15 76 15s53.5 -5 76.5 -15s42.5 -23.833 58.5 -41.5s28.333 -38.334 37 -62.001s13 -49.167 13 -76.5s-4.33301 -52.833 -13 -76.5
s-21 -44.334 -37 -62.001s-35.5 -31.5 -58.5 -41.5s-48.5 -15 -76.5 -15zM169 652h270v-55h-270v55z" />
    <glyph glyph-name="Obreve" unicode="&#x14e;" horiz-adv-x="805" 
d="M402 760c-32 0 -60.8291 9 -86.4961 27s-42.834 42.667 -51.501 74l42 18c8 -22.667 20.167 -40.167 36.5 -52.5s36.166 -18.5 59.499 -18.5s43.166 6.16699 59.499 18.5s28.5 29.833 36.5 52.5l42 -18c-8.66699 -31.333 -25.834 -56 -51.501 -74s-54.5 -27 -86.5 -27z
M403.004 52c40.667 0 78 7.5 112 22.5s63.333 35.5 88 61.5s43.667 56.667 57 92s20 73 20 113s-6.66699 77.667 -20 113s-32.333 66 -57 92s-54 46.5 -88 61.5s-71.333 22.5 -112 22.5c-41.333 0 -79 -7.5 -113 -22.5s-63.333 -35.5 -88 -61.5s-43.667 -56.667 -57 -92
s-20 -73 -20 -113s6.66699 -77.667 20 -113s32.333 -66 57 -92s54 -46.5 88 -61.5s71.667 -22.5 113 -22.5zM403.004 694c50 0 96.167 -9.16699 138.5 -27.5s78.833 -43.333 109.5 -75s54.5 -69 71.5 -112s25.5 -89.167 25.5 -138.5s-8.5 -95.5 -25.5 -138.5
s-40.833 -80.5 -71.5 -112.5s-67.167 -57.167 -109.5 -75.5s-88.5 -27.5 -138.5 -27.5c-50.667 0 -97.167 9.16699 -139.5 27.5s-78.833 43.5 -109.5 75.5s-54.5 69.5 -71.5 112.5s-25.5 89.167 -25.5 138.5s8.5 95.5 25.5 138.5s40.833 80.333 71.5 112
s67.167 56.667 109.5 75s88.833 27.5 139.5 27.5z" />
    <glyph glyph-name="obreve" unicode="&#x14f;" horiz-adv-x="609" 
d="M304 570c-32 0 -60.8291 9 -86.4961 27s-42.834 42.667 -51.501 74l42 18c8 -22.667 20.167 -40.167 36.5 -52.5s36.166 -18.5 59.499 -18.5s43.166 6.16699 59.499 18.5s28.5 29.833 36.5 52.5l42 -18c-8.66699 -31.333 -25.834 -56 -51.501 -74s-54.5 -27 -86.5 -27z
M304.004 51c28 0 53.5 5 76.5 15s42.5 23.833 58.5 41.5s28.333 38.334 37 62.001s13 49.167 13 76.5s-4.33301 52.833 -13 76.5s-21 44.334 -37 62.001s-35.5 31.5 -58.5 41.5s-48.5 15 -76.5 15s-53.333 -5 -76 -15s-42 -23.833 -58 -41.5s-28.333 -38.334 -37 -62.001
s-13 -49.167 -13 -76.5s4.33301 -52.833 13 -76.5s21 -44.334 37 -62.001s35.333 -31.5 58 -41.5s48 -15 76 -15zM304.004 504c36.667 0 70.334 -6.66699 101.001 -20s57.167 -31.666 79.5 -54.999s39.666 -50.666 51.999 -81.999s18.5 -65 18.5 -101
s-6.16699 -69.667 -18.5 -101s-29.666 -58.666 -51.999 -81.999s-48.833 -41.666 -79.5 -54.999s-64.334 -20 -101.001 -20s-70.334 6.66699 -101.001 20s-57 31.666 -79 54.999s-39.167 50.666 -51.5 81.999s-18.5 65 -18.5 101s6.16699 69.667 18.5 101
s29.5 58.666 51.5 81.999s48.333 41.666 79 54.999s64.334 20 101.001 20z" />
    <glyph glyph-name="Ohungarumlaut" unicode="&#x150;" horiz-adv-x="805" 
d="M454 781l119 139l52 -37l-134 -128zM302 781l119 139l52 -37l-134 -128zM403 52c40.667 0 78 7.5 112 22.5s63.333 35.5 88 61.5s43.667 56.667 57 92s20 73 20 113s-6.66699 77.667 -20 113s-32.333 66 -57 92s-54 46.5 -88 61.5s-71.333 22.5 -112 22.5
c-41.333 0 -79 -7.5 -113 -22.5s-63.333 -35.5 -88 -61.5s-43.667 -56.667 -57 -92s-20 -73 -20 -113s6.66699 -77.667 20 -113s32.333 -66 57 -92s54 -46.5 88 -61.5s71.667 -22.5 113 -22.5zM403 694c50 0 96.167 -9.16699 138.5 -27.5s78.833 -43.333 109.5 -75
s54.5 -69 71.5 -112s25.5 -89.167 25.5 -138.5s-8.5 -95.5 -25.5 -138.5s-40.833 -80.5 -71.5 -112.5s-67.167 -57.167 -109.5 -75.5s-88.5 -27.5 -138.5 -27.5c-50.667 0 -97.167 9.16699 -139.5 27.5s-78.833 43.5 -109.5 75.5s-54.5 69.5 -71.5 112.5
s-25.5 89.167 -25.5 138.5s8.5 95.5 25.5 138.5s40.833 80.333 71.5 112s67.167 56.667 109.5 75s88.833 27.5 139.5 27.5z" />
    <glyph glyph-name="ohungarumlaut" unicode="&#x151;" horiz-adv-x="609" 
d="M349 591l119 139l52 -37l-134 -128zM197 591l119 139l52 -37l-134 -128zM304 51c28 0 53.5 5 76.5 15s42.5 23.833 58.5 41.5s28.333 38.334 37 62.001s13 49.167 13 76.5s-4.33301 52.833 -13 76.5s-21 44.334 -37 62.001s-35.5 31.5 -58.5 41.5s-48.5 15 -76.5 15
s-53.333 -5 -76 -15s-42 -23.833 -58 -41.5s-28.333 -38.334 -37 -62.001s-13 -49.167 -13 -76.5s4.33301 -52.833 13 -76.5s21 -44.334 37 -62.001s35.333 -31.5 58 -41.5s48 -15 76 -15zM304 504c36.667 0 70.334 -6.66699 101.001 -20s57.167 -31.666 79.5 -54.999
s39.666 -50.666 51.999 -81.999s18.5 -65 18.5 -101s-6.16699 -69.667 -18.5 -101s-29.666 -58.666 -51.999 -81.999s-48.833 -41.666 -79.5 -54.999s-64.334 -20 -101.001 -20s-70.334 6.66699 -101.001 20s-57 31.666 -79 54.999s-39.167 50.666 -51.5 81.999
s-18.5 65 -18.5 101s6.16699 69.667 18.5 101s29.5 58.666 51.5 81.999s48.333 41.666 79 54.999s64.334 20 101.001 20z" />
    <glyph glyph-name="OE" unicode="&#x152;" horiz-adv-x="1220" 
d="M435 52c40.667 0 78 7.5 112 22.5s63.333 35.5 88 61.5s43.667 56.667 57 92s20 73 20 113s-6.66699 77.667 -20 113s-32.333 66 -57 92s-54 46.5 -88 61.5s-71.333 22.5 -112 22.5c-41.333 0 -79 -7.5 -113 -22.5s-63.333 -35.5 -88 -61.5s-43.667 -56.667 -57 -92
s-20 -73 -20 -113s6.66699 -77.667 20 -113s32.333 -66 57 -92s54 -46.5 88 -61.5s71.667 -22.5 113 -22.5zM1151 65v-65h-439v122h-2c-32.667 -44 -73.167 -77.5 -121.5 -100.5s-99.5 -34.5 -153.5 -34.5c-50.667 0 -97.167 9.16699 -139.5 27.5s-78.833 43.333 -109.5 75
s-54.5 69 -71.5 112s-25.5 89.5 -25.5 139.5s8.5 96.5 25.5 139.5s40.833 80.333 71.5 112s67.167 56.5 109.5 74.5s88.833 27 139.5 27c54 0 105.167 -11.333 153.5 -34s88.833 -56 121.5 -100h2v122h430v-65h-362v-237h334v-65h-334v-250h371z" />
    <glyph glyph-name="oe" unicode="&#x153;" horiz-adv-x="1008" 
d="M304 51c28 0 53.5 5 76.5 15s42.5 23.833 58.5 41.5s28.333 38.334 37 62.001s13 49.167 13 76.5s-4.33301 52.833 -13 76.5s-21 44.334 -37 62.001s-35.5 31.5 -58.5 41.5s-48.5 15 -76.5 15s-53.333 -5 -76 -15s-42 -23.833 -58 -41.5s-28.333 -38.334 -37 -62.001
s-13 -49.167 -13 -76.5s4.33301 -52.833 13 -76.5s21 -44.334 37 -62.001s35.333 -31.5 58 -41.5s48 -15 76 -15zM726 443c-25.333 0 -47.833 -3.99805 -67.5 -11.998s-36.5 -19.333 -50.5 -34s-25.333 -31.834 -34 -51.501s-14.334 -41.5 -17.001 -65.5h328
c-2 23.333 -6.66699 45 -14 65s-17.666 37.167 -30.999 51.5s-29.5 25.666 -48.5 33.999s-40.833 12.5 -65.5 12.5zM952 266.002c0 -7.33301 -0.167969 -14.9961 -0.500977 -22.9961s-0.833008 -15.667 -1.5 -23h-394c2.66699 -24 8.66699 -46.5 18 -67.5
s21.833 -39 37.5 -54s33.834 -26.833 54.501 -35.5s43.667 -13 69 -13c12.667 0 26.167 1.66699 40.5 5s28.166 8 41.499 14s25.833 13.333 37.5 22s21.5 18 29.5 28l47 -45c-25.333 -28.667 -55.5 -50.167 -90.5 -64.5s-71.5 -21.5 -109.5 -21.5
c-44.667 0 -85.334 10.5 -122.001 31.5s-65.667 51.167 -87 90.5h-2c-22.667 -39.333 -53 -69.5 -91 -90.5s-79.667 -31.5 -125 -31.5c-36.667 0 -70.334 6.66699 -101.001 20s-57 31.666 -79 54.999s-39.167 50.666 -51.5 81.999s-18.5 65 -18.5 101
s6.16699 69.667 18.5 101s29.5 58.666 51.5 81.999s48.333 41.666 79 54.999s64.334 20 101.001 20c45.333 0 86.833 -10.333 124.5 -31s67.834 -50.667 90.501 -90h2c20.667 39.333 48.834 69.5 84.501 90.5s75.5 31.5 119.5 31.5c35.333 0 67 -6 95 -18
s51.833 -28.667 71.5 -50s34.667 -46.5 45 -75.5s15.5 -60.833 15.5 -95.5z" />
    <glyph glyph-name="Racute" unicode="&#x154;" horiz-adv-x="664" 
d="M257 781l119 139l52 -37l-134 -128zM157 354h219c50 0 88.167 11.333 114.5 34s39.5 55 39.5 97s-13.167 74.5 -39.5 97.5s-64.5 34.5 -114.5 34.5h-219v-263zM157 289l0.000976562 -289.001h-68v682h288c35.333 0 66.666 -4.66699 93.999 -14s50.5 -22.666 69.5 -39.999
s33.5 -38 43.5 -62s15 -51 15 -81c0 -48 -13.5 -88.5 -40.5 -121.5s-63.833 -55.167 -110.5 -66.5l170 -297h-82l-162 289h-217z" />
    <glyph glyph-name="racute" unicode="&#x155;" horiz-adv-x="374" 
d="M282 504c11.333 0 22.667 -0.833008 34 -2.5s22.666 -4.16699 33.999 -7.5l-13 -68c-12 3.33301 -24.167 6.33301 -36.5 9s-25.166 4 -38.499 4c-24 0 -43.333 -6.5 -58 -19.5s-26 -29.167 -34 -48.5s-13.333 -40 -16 -62s-4 -42 -4 -60v-249h-66v492h54l4 -67h2
c30.667 52.667 76.667 79 138 79zM149.001 591l119 139l52 -37l-134 -128z" />
    <glyph glyph-name="uni0156" unicode="&#x156;" horiz-adv-x="664" 
d="M262 -192c11.333 23.333 21.333 46.667 30 70s15.667 44.333 21 63h70c-8 -21.333 -18.833 -44.333 -32.5 -69s-26.5 -46 -38.5 -64h-50zM157 354.001h219c50 0 88.167 11.333 114.5 34s39.5 55 39.5 97s-13.167 74.5 -39.5 97.5s-64.5 34.5 -114.5 34.5h-219v-263z
M157 289.001l0.000976562 -289.001h-68v682h288c35.333 0 66.666 -4.66699 93.999 -14s50.5 -22.666 69.5 -39.999s33.5 -38 43.5 -62s15 -51 15 -81c0 -48 -13.5 -88.5 -40.5 -121.5s-63.833 -55.167 -110.5 -66.5l170 -297h-82l-162 289h-217z" />
    <glyph glyph-name="rcommaaccent" unicode="&#x157;" horiz-adv-x="374" 
d="M31 -192c10 21.333 19.333 42.999 28 64.999s16 44.667 22 68h71c-9.33301 -23.333 -20 -46.166 -32 -68.499s-25 -43.833 -39 -64.5h-50zM282 503.999c11.333 0 22.667 -0.833008 34 -2.5s22.666 -4.16699 33.999 -7.5l-13 -68c-12 3.33301 -24.167 6.33301 -36.5 9
s-25.166 4 -38.499 4c-24 0 -43.333 -6.5 -58 -19.5s-26 -29.167 -34 -48.5s-13.333 -40 -16 -62s-4 -42 -4 -60v-249h-66v492h54l4 -67h2c30.667 52.667 76.667 79 138 79z" />
    <glyph glyph-name="Rcaron" unicode="&#x158;" horiz-adv-x="664" 
d="M599 485c0 30 -5.00098 57.001 -15.001 81.001s-24.5 44.667 -43.5 62s-42.167 30.666 -69.5 39.999s-58.666 14 -93.999 14h-288v-682h68v289h217l162 -289h82l-170 297c46.667 11.333 83.5 33.5 110.5 66.5s40.5 73.5 40.5 121.5zM156.999 617.001h219
c50 0 88.167 -11.5 114.5 -34.5s39.5 -55.5 39.5 -97.5s-13.167 -74.333 -39.5 -97s-64.5 -34 -114.5 -34h-219v263zM412.999 914.001l37 -26l-106 -124h-64l-106 124l37 26l101 -103z" />
    <glyph glyph-name="rcaron" unicode="&#x159;" horiz-adv-x="374" 
d="M282 504c-61.333 0 -107.334 -26.333 -138.001 -79h-2l-4 67h-54v-492h66v249c0 18 1.33301 38 4 60s8 42.667 16 62s19.333 35.5 34 48.5s34 19.5 58 19.5c13.333 0 26.166 -1.33301 38.499 -4s24.5 -5.66699 36.5 -9l13 68
c-11.333 3.33301 -22.666 5.83301 -33.999 7.5s-22.666 2.5 -33.999 2.5zM306.999 730l37 -26l-106 -124h-64l-106 124l37 26l101 -103z" />
    <glyph glyph-name="Sacute" unicode="&#x15a;" horiz-adv-x="596" 
d="M254 781l119 139l52 -37l-134 -128zM540 176c0 -24.667 -4.66504 -48.3301 -13.998 -70.9971s-23.833 -42.667 -43.5 -60s-44.5 -31.166 -74.5 -41.499s-65.667 -15.5 -107 -15.5c-44.667 0 -88.834 7.16699 -132.501 21.5s-81.834 34.166 -114.501 59.499l41 56
c27.333 -20 59 -37.167 95 -51.5s73 -21.5 111 -21.5c58 0 101 11.5 129 34.5s42 51.833 42 86.5c0 17.333 -3.16699 33.166 -9.5 47.499s-16.833 27.5 -31.5 39.5s-34 22.833 -58 32.5s-53.333 18.5 -88 26.5c-78.667 17.333 -135.334 42.5 -170.001 75.5
s-52 72.5 -52 118.5c0 25.333 4.83301 49 14.5 71s24.334 41.167 44.001 57.5s44.167 29.166 73.5 38.499s64 14 104 14c44 0 87 -6.83301 129 -20.5s80 -32.5 114 -56.5l-41 -56c-26.667 19.333 -57.5 35.666 -92.5 48.999s-71.5 20 -109.5 20c-56 0 -98 -11 -126 -33
s-42 -48.667 -42 -80c0 -32 13.333 -59 40 -81s72 -40.333 136 -55c84 -19.333 143.833 -46 179.5 -80s53.5 -75.667 53.5 -125z" />
    <glyph glyph-name="sacute" unicode="&#x15b;" horiz-adv-x="477" 
d="M236 48c12.667 0 26.002 0.99707 40.002 2.99707s27 6 39 12s22 14 30 24s12 23 12 39c0 22 -7.33301 39.333 -22 52s-32.834 23 -54.501 31s-45.167 15.333 -70.5 22s-48.833 15.334 -70.5 26.001s-39.834 24.834 -54.501 42.501s-22 41.5 -22 71.5
c0 24 5.16699 44.5 15.5 61.5s23.833 30.667 40.5 41s35.334 18 56.001 23s41.334 7.5 62.001 7.5c32 0 64.167 -4.5 96.5 -13.5s61.166 -22.5 86.499 -40.5l-38 -54c-20.667 14.667 -43.5 26.167 -68.5 34.5s-50.167 12.5 -75.5 12.5c-11.333 0 -23.333 -1.16699 -36 -3.5
s-24.334 -6.16602 -35.001 -11.499s-19.667 -12.5 -27 -21.5s-11 -20.5 -11 -34.5c0 -14.667 4.16699 -27 12.5 -37s18.5 -18.333 30.5 -25s24.833 -12.167 38.5 -16.5s26.167 -7.83301 37.5 -10.5c20 -5.33301 40.333 -11.833 61 -19.5s39.5 -17.5 56.5 -29.5
s30.833 -26.667 41.5 -44s16 -38 16 -62c0 -26 -5.5 -48 -16.5 -66s-25.333 -32.5 -43 -43.5s-37.5 -19 -59.5 -24s-44.333 -7.5 -67 -7.5c-14.667 0 -30.667 1.33301 -48 4s-34.5 6.66699 -51.5 12s-33.333 12 -49 20s-28.834 17 -39.501 27l38 54
c19.333 -17.333 42.333 -31 69 -41s53.334 -15 80.001 -15zM200.002 590.997l119 139l52 -37l-134 -128z" />
    <glyph glyph-name="Scircumflex" unicode="&#x15c;" horiz-adv-x="596" 
d="M302 850l-101 -103l-37 26l106 124h64l106 -124l-38 -26zM540 176c0 -24.667 -4.66504 -48.3301 -13.998 -70.9971s-23.833 -42.667 -43.5 -60s-44.5 -31.166 -74.5 -41.499s-65.667 -15.5 -107 -15.5c-44.667 0 -88.834 7.16699 -132.501 21.5
s-81.834 34.166 -114.501 59.499l41 56c27.333 -20 59 -37.167 95 -51.5s73 -21.5 111 -21.5c58 0 101 11.5 129 34.5s42 51.833 42 86.5c0 17.333 -3.16699 33.166 -9.5 47.499s-16.833 27.5 -31.5 39.5s-34 22.833 -58 32.5s-53.333 18.5 -88 26.5
c-78.667 17.333 -135.334 42.5 -170.001 75.5s-52 72.5 -52 118.5c0 25.333 4.83301 49 14.5 71s24.334 41.167 44.001 57.5s44.167 29.166 73.5 38.499s64 14 104 14c44 0 87 -6.83301 129 -20.5s80 -32.5 114 -56.5l-41 -56c-26.667 19.333 -57.5 35.666 -92.5 48.999
s-71.5 20 -109.5 20c-56 0 -98 -11 -126 -33s-42 -48.667 -42 -80c0 -32 13.333 -59 40 -81s72 -40.333 136 -55c84 -19.333 143.833 -46 179.5 -80s53.5 -75.667 53.5 -125z" />
    <glyph glyph-name="scircumflex" unicode="&#x15d;" horiz-adv-x="477" 
d="M236 48c12.667 0 26.002 0.99707 40.002 2.99707s27 6 39 12s22 14 30 24s12 23 12 39c0 22 -7.33301 39.333 -22 52s-32.834 23 -54.501 31s-45.167 15.333 -70.5 22s-48.833 15.334 -70.5 26.001s-39.834 24.834 -54.501 42.501s-22 41.5 -22 71.5
c0 24 5.16699 44.5 15.5 61.5s23.833 30.667 40.5 41s35.334 18 56.001 23s41.334 7.5 62.001 7.5c32 0 64.167 -4.5 96.5 -13.5s61.166 -22.5 86.499 -40.5l-38 -54c-20.667 14.667 -43.5 26.167 -68.5 34.5s-50.167 12.5 -75.5 12.5c-11.333 0 -23.333 -1.16699 -36 -3.5
s-24.334 -6.16602 -35.001 -11.499s-19.667 -12.5 -27 -21.5s-11 -20.5 -11 -34.5c0 -14.667 4.16699 -27 12.5 -37s18.5 -18.333 30.5 -25s24.833 -12.167 38.5 -16.5s26.167 -7.83301 37.5 -10.5c20 -5.33301 40.333 -11.833 61 -19.5s39.5 -17.5 56.5 -29.5
s30.833 -26.667 41.5 -44s16 -38 16 -62c0 -26 -5.5 -48 -16.5 -66s-25.333 -32.5 -43 -43.5s-37.5 -19 -59.5 -24s-44.333 -7.5 -67 -7.5c-14.667 0 -30.667 1.33301 -48 4s-34.5 6.66699 -51.5 12s-33.333 12 -49 20s-28.834 17 -39.501 27l38 54
c19.333 -17.333 42.333 -31 69 -41s53.334 -15 80.001 -15zM240.002 659.997l-101 -103l-37 26l106 124h64l106 -124l-38 -26z" />
    <glyph glyph-name="Scedilla" unicode="&#x15e;" horiz-adv-x="596" 
d="M540 176c0 -23.333 -4.33301 -45.9941 -13 -67.9941s-21.834 -41.5 -39.501 -58.5s-40.167 -31 -67.5 -42s-59.666 -17.5 -96.999 -19.5l-20 -34v-3c2.66699 0.666992 6.66699 1 12 1c36 0 62.5 -7.16699 79.5 -21.5s25.5 -31.5 25.5 -51.5
c0 -23.333 -8.66699 -42.333 -26 -57s-43 -22 -77 -22c-19.333 0 -38.333 2.66699 -57 8s-35.667 12.333 -51 21l16 31c11.333 -6.66699 24.166 -12.334 38.499 -17.001s29.833 -7 46.5 -7c17.333 0 30.666 3.83301 39.999 11.5s14 18.167 14 31.5
c0 11.333 -4.66699 21 -14 29s-23.666 12 -42.999 12c-8 0 -15 -0.333008 -21 -1s-10.667 -1.66699 -14 -3l-27 16l30 55v1c-40 3.33301 -79.333 12 -118 26s-73 32.333 -103 55l41 56c27.333 -20 59 -37.167 95 -51.5s73 -21.5 111 -21.5c58 0 101 11.5 129 34.5
s42 51.833 42 86.5c0 17.333 -3.16699 33.166 -9.5 47.499s-16.833 27.5 -31.5 39.5s-34 22.833 -58 32.5s-53.333 18.5 -88 26.5c-80 18 -137 44 -171 78s-51 72.667 -51 116c0 25.333 4.83301 49 14.5 71s24.334 41.167 44.001 57.5s44.167 29.166 73.5 38.499
s64 14 104 14c44 0 87 -6.83301 129 -20.5s80 -32.5 114 -56.5l-41 -56c-26.667 19.333 -57.5 35.666 -92.5 48.999s-71.5 20 -109.5 20c-56 0 -98 -11 -126 -33s-42 -48.667 -42 -80c0 -30.667 13.333 -57.334 40 -80.001s72 -41.334 136 -56.001
c42.667 -10 78.667 -21.833 108 -35.5s53.333 -29 72 -46s32.167 -35.833 40.5 -56.5s12.5 -43 12.5 -67z" />
    <glyph glyph-name="scedilla" unicode="&#x15f;" horiz-adv-x="477" 
d="M248 -48c7.33301 0 15.3359 -0.668945 24.0029 -2.00195c13.333 -2 25.666 -5.66699 36.999 -11s20.833 -13 28.5 -23s11.5 -22.333 11.5 -37s-3 -27 -9 -37s-13.833 -18.167 -23.5 -24.5s-20.667 -10.833 -33 -13.5s-24.833 -4 -37.5 -4
c-38.667 0 -74.667 9.66699 -108 29l17 31c12.667 -7.33301 26.167 -13.166 40.5 -17.499s28.833 -6.5 43.5 -6.5c14 0 26.5 3.33301 37.5 10s16.5 17.667 16.5 33s-6 26 -18 32s-24.667 9 -38 9s-25 -1.33301 -35 -4l-28 16l32 57
c-12.667 1.33301 -26.167 3.66602 -40.5 6.99902s-28.5 7.5 -42.5 12.5s-27.5 10.833 -40.5 17.5s-24.167 14.667 -33.5 24l38 54c19.333 -17.333 42.5 -31 69.5 -41s53.5 -15 79.5 -15c12.667 0 26 1 40 3s27 6 39 12s22 14 30 24s12 23 12 39c0 22 -7.33301 39.333 -22 52
s-32.834 23 -54.501 31s-45.167 15.333 -70.5 22s-48.833 15.334 -70.5 26.001s-39.834 24.834 -54.501 42.501s-22 41.5 -22 71.5c0 24 5.16699 44.5 15.5 61.5s23.833 30.667 40.5 41s35.334 18 56.001 23s41.334 7.5 62.001 7.5c32 0 64.167 -4.5 96.5 -13.5
s61.166 -22.5 86.499 -40.5l-38 -54c-20.667 14.667 -43.5 26.167 -68.5 34.5s-50.167 12.5 -75.5 12.5c-11.333 0 -23.333 -1.16699 -36 -3.5s-24.334 -6.16602 -35.001 -11.499s-19.667 -12.5 -27 -21.5s-11 -20.5 -11 -34.5c0 -14.667 4.16699 -27 12.5 -37
s18.5 -18.333 30.5 -25s24.833 -12.167 38.5 -16.5s26.167 -7.83301 37.5 -10.5c20 -5.33301 40.333 -11.833 61 -19.5s39.5 -17.5 56.5 -29.5s30.833 -26.667 41.5 -44s16 -38 16 -62c0 -24.667 -4.83301 -45.667 -14.5 -63s-22.5 -31.5 -38.5 -42.5
s-34.333 -19.333 -55 -25s-41.667 -8.83398 -63 -9.50098l-19 -34v-3c4.66699 0.666992 9.66699 1 15 1z" />
    <glyph glyph-name="Scaron" unicode="&#x160;" horiz-adv-x="596" 
d="M131 517c0 31.333 13.998 57.9961 41.998 79.9961s70 33 126 33c38 0 74.5 -6.66699 109.5 -20s65.833 -29.666 92.5 -48.999l41 56c-34 24 -72 42.833 -114 56.5s-85 20.5 -129 20.5c-40 0 -74.667 -4.66699 -104 -14s-53.833 -22.166 -73.5 -38.499
s-34.334 -35.5 -44.001 -57.5s-14.5 -45.667 -14.5 -71c0 -46 17.333 -85.5 52 -118.5s91.334 -58.167 170.001 -75.5c34.667 -8 64 -16.833 88 -26.5s43.333 -20.5 58 -32.5s25.167 -25.167 31.5 -39.5s9.5 -30.166 9.5 -47.499c0 -34.667 -14 -63.5 -42 -86.5
s-71 -34.5 -129 -34.5c-38 0 -75 7.16699 -111 21.5s-67.667 31.5 -95 51.5l-41 -56c32.667 -25.333 70.834 -45.166 114.501 -59.499s87.834 -21.5 132.501 -21.5c41.333 0 77 5.16699 107 15.5s54.833 24.166 74.5 41.499s34.167 37.333 43.5 60s14 46.334 14 71.001
c0 49.333 -17.833 91 -53.5 125s-95.5 60.667 -179.5 80c-64 14.667 -109.333 33 -136 55s-40 49 -40 81zM396.998 913.996l37 -26l-106 -123h-63l-107 123l38 26l100 -103z" />
    <glyph glyph-name="scaron" unicode="&#x161;" horiz-adv-x="477" 
d="M237 -13c22.667 0 44.998 2.50293 66.998 7.50293s41.833 13 59.5 24s32 25.5 43 43.5s16.5 40 16.5 66c0 24 -5.33301 44.667 -16 62s-24.5 32 -41.5 44s-35.833 21.833 -56.5 29.5s-41 14.167 -61 19.5c-11.333 2.66699 -23.833 6.16699 -37.5 10.5
s-26.5 9.83301 -38.5 16.5s-22.167 15 -30.5 25s-12.5 22.333 -12.5 37c0 14 3.66699 25.5 11 34.5s16.333 16.167 27 21.5s22.334 9.16602 35.001 11.499s24.667 3.5 36 3.5c25.333 0 50.5 -4.16699 75.5 -12.5s47.833 -19.833 68.5 -34.5l38 54
c-25.333 18 -54.166 31.5 -86.499 40.5s-64.5 13.5 -96.5 13.5c-20.667 0 -41.334 -2.5 -62.001 -7.5s-39.334 -12.667 -56.001 -23s-30.167 -24 -40.5 -41s-15.5 -37.5 -15.5 -61.5c0 -30 7.33301 -53.833 22 -71.5s32.834 -31.834 54.501 -42.501
s45.167 -19.334 70.5 -26.001s48.833 -14 70.5 -22s39.834 -18.333 54.501 -31s22 -30 22 -52c0 -16 -4 -29 -12 -39s-18 -18 -30 -24s-25 -10 -39 -12s-27.333 -3 -40 -3c-26.667 0 -53.334 5 -80.001 15s-49.667 23.667 -69 41l-38 -54c10.667 -10 23.834 -19 39.501 -27
s32 -14.667 49 -20s34.167 -9.33301 51.5 -12s33.333 -4 48 -4zM342.998 730.003l37 -26l-106 -124h-64l-106 124l37 26l101 -103z" />
    <glyph glyph-name="Tcommaaccent" unicode="&#x162;" horiz-adv-x="565" 
d="M284 -48c7.33301 0 15.332 -0.667969 23.999 -2.00098c13.333 -2 25.833 -5.66699 37.5 -11s21.334 -13 29.001 -23s11.5 -22.333 11.5 -37s-3 -27 -9 -37s-14 -18.167 -24 -24.5s-21.167 -10.833 -33.5 -13.5s-24.833 -4 -37.5 -4c-18.667 0 -37.334 2.5 -56.001 7.5
s-36 12.167 -52 21.5l17 31c12.667 -7.33301 26.167 -13.166 40.5 -17.499s28.833 -6.5 43.5 -6.5s27.334 3.33301 38.001 10s16 17.667 16 33s-6 26 -18 32s-24.667 9 -38 9s-25 -1.33301 -35 -4l-28 16l39 68v617h-220v65h507v-65h-219v-617h-22l-26 -46v-3
c4.66699 0.666992 9.66699 1 15 1z" />
    <glyph glyph-name="tcommaaccent" unicode="&#x163;" horiz-adv-x="387" 
d="M228 -48c7.33301 0 15.3311 -0.668945 23.998 -2.00195c13.333 -2 25.833 -5.66699 37.5 -11s21.334 -13 29.001 -23s11.5 -22.333 11.5 -37s-3 -27 -9 -37s-13.833 -18.167 -23.5 -24.5s-20.667 -10.833 -33 -13.5s-24.833 -4 -37.5 -4
c-39.333 0 -75.333 9.66699 -108 29l17 31c12.667 -7.33301 26 -13.166 40 -17.499s28.667 -6.5 44 -6.5c14 0 26.5 3.33301 37.5 10s16.5 17.667 16.5 33s-6.16699 26 -18.5 32s-24.833 9 -37.5 9c-13.333 0 -25.333 -1.33301 -36 -4l-27 16l34 61
c-27.333 8 -46 23.167 -56 45.5s-15 46.5 -15 72.5v320h-82v61h82v166h66v-166h153v-61h-153v-309c0 -19.333 3.83301 -36.333 11.5 -51s22.5 -22 44.5 -22c16.667 0 33.167 1.5 49.5 4.5s32.166 6.83301 47.499 11.5l11 -62
c-17.333 -5.33301 -36.666 -9.16602 -57.999 -11.499s-40.666 -3.83301 -57.999 -4.5l-19 -33v-3c4.66699 0.666992 9.66699 1 15 1z" />
    <glyph glyph-name="Tcaron" unicode="&#x164;" horiz-adv-x="565" 
d="M383 914l38 -26l-107 -123h-63l-107 123l38 26l101 -103zM536 682h-507v-65h220v-617h68v617h219v65z" />
    <glyph glyph-name="tcaron" unicode="&#x165;" horiz-adv-x="387" 
d="M230 541c10 21.333 19.334 42.833 28.001 64.5s16 44.167 22 67.5h71c-18.667 -46 -42.334 -90 -71.001 -132h-50zM232.001 -13c-40 0 -68.999 11 -86.999 33s-27 52.333 -27 91v320h-82v61h82v166h66v-166h153v-61h-153v-309c0 -19.333 3.83301 -36.333 11.5 -51
s22.5 -22 44.5 -22c16 0 32.333 1.5 49 4.5s32.667 6.83301 48 11.5l11 -62c-16.667 -5.33301 -35.834 -9.33301 -57.501 -12s-41.167 -4 -58.5 -4z" />
    <glyph glyph-name="Tbar" unicode="&#x166;" horiz-adv-x="565" 
d="M317 617v-267h123v-55h-123v-295h-68v295h-124v55h124v267h-220v65h507v-65h-219z" />
    <glyph glyph-name="tbar" unicode="&#x167;" horiz-adv-x="387" 
d="M232 -12c-37.333 0 -65.667 10.001 -85 30.001s-29 51 -29 93v130h-71v49h71v141h-82v61h82v166h66v-166h153v-61h-153v-141h118v-49h-118v-119c0 -48.667 18.667 -73 56 -73c13.333 0 29 1.5 47 4.5s34.667 6.83301 50 11.5l11 -62
c-14.667 -4.66699 -33.167 -8.33398 -55.5 -11.001s-42.5 -4 -60.5 -4z" />
    <glyph glyph-name="Utilde" unicode="&#x168;" horiz-adv-x="682" 
d="M341 -13c40 0 76.167 6.16699 108.5 18.5s59.833 29.833 82.5 52.5s40.167 50.167 52.5 82.5s18.5 68.833 18.5 109.5v432h-68v-428c0 -61.333 -16.667 -110.333 -50 -147s-81.333 -55 -144 -55s-110.667 18.333 -144 55s-50 85.667 -50 147v428h-68v-432
c0 -40.667 6.16699 -77.167 18.5 -109.5s29.833 -59.833 52.5 -82.5s50.167 -40.167 82.5 -52.5s68.5 -18.5 108.5 -18.5zM412 757c-14.667 0 -28 2.16699 -40 6.5s-23.5 9.33301 -34.5 15s-21.833 10.667 -32.5 15s-21.667 6.5 -33 6.5s-21.5 -4.33301 -30.5 -13
s-16.5 -18.667 -22.5 -30l-40 23c9.33301 19.333 22 36.166 38 50.499s34.333 21.5 55 21.5c14 0 27 -2.16699 39 -6.5s23.5 -9.33301 34.5 -15s21.833 -10.667 32.5 -15s21.667 -6.5 33 -6.5s21.333 4 30 12s16 18 22 30l40 -22
c-9.33301 -21.333 -21.833 -38.666 -37.5 -51.999s-33.5 -20 -53.5 -20z" />
    <glyph glyph-name="utilde" unicode="&#x169;" horiz-adv-x="593" 
d="M509 492l0.00292969 -491.998h-54l-4 80h-2c-21.333 -31.333 -48.5 -54.666 -81.5 -69.999s-68.167 -23 -105.5 -23c-31.333 0 -58.833 5.66699 -82.5 17s-43.334 26.666 -59.001 45.999s-27.334 42.166 -35.001 68.499s-11.5 54.166 -11.5 83.499v290h66v-269
c0 -23.333 2.33301 -45.5 7 -66.5s12.5 -39.5 23.5 -55.5s25.333 -28.667 43 -38s39.5 -14 65.5 -14c25.333 0 48.166 5 68.499 15s37.5 23.5 51.5 40.5s24.833 36.5 32.5 58.5s11.5 45 11.5 69v260h66zM365.003 567.002c-14.667 0 -28 2.16699 -40 6.5
s-23.5 9.33301 -34.5 15s-21.833 10.667 -32.5 15s-21.667 6.5 -33 6.5s-21.5 -4.33301 -30.5 -13s-16.5 -18.667 -22.5 -30l-40 23c9.33301 19.333 22 36.166 38 50.499s34 21.5 54 21.5c14 0 27 -2.16699 39 -6.5s23.667 -9.33301 35 -15s22.333 -10.667 33 -15
s21.667 -6.5 33 -6.5s21.333 4 30 12s16 18 22 30l40 -22c-9.33301 -21.333 -21.833 -38.666 -37.5 -51.999s-33.5 -20 -53.5 -20z" />
    <glyph glyph-name="Umacron" unicode="&#x16a;" horiz-adv-x="682" 
d="M206 842h270v-55h-270v55zM341 -13c-40 0 -76.167 6.16699 -108.5 18.5s-59.833 29.833 -82.5 52.5s-40.167 50.167 -52.5 82.5s-18.5 68.833 -18.5 109.5v432h68v-428c0 -61.333 16.667 -110.333 50 -147s81.333 -55 144 -55s110.667 18.333 144 55s50 85.667 50 147
v428h68v-432c0 -40.667 -6.16699 -77.167 -18.5 -109.5s-29.833 -59.833 -52.5 -82.5s-50.167 -40.167 -82.5 -52.5s-68.5 -18.5 -108.5 -18.5z" />
    <glyph glyph-name="umacron" unicode="&#x16b;" horiz-adv-x="593" 
d="M443 492l-0.00292969 -260.002c0 -24 -3.83301 -47 -11.5 -69s-18.5 -41.5 -32.5 -58.5s-31.167 -30.5 -51.5 -40.5s-43.166 -15 -68.499 -15c-26 0 -47.833 4.66699 -65.5 14s-32 22 -43 38s-18.833 34.5 -23.5 55.5s-7 43.167 -7 66.5v269h-66v-290
c0 -29.333 3.83301 -57.166 11.5 -83.499s19.334 -49.166 35.001 -68.499s35.334 -34.666 59.001 -45.999s51.167 -17 82.5 -17c37.333 0 72.5 7.66699 105.5 23s60.167 38.666 81.5 69.999h2l4 -80h54v492h-66zM151.997 651.998h271v-55h-271v55z" />
    <glyph glyph-name="Ubreve" unicode="&#x16c;" horiz-adv-x="682" 
d="M341 -13c40 0 76.167 6.16699 108.5 18.5s59.833 29.833 82.5 52.5s40.167 50.167 52.5 82.5s18.5 68.833 18.5 109.5v432h-68v-428c0 -61.333 -16.667 -110.333 -50 -147s-81.333 -55 -144 -55s-110.667 18.333 -144 55s-50 85.667 -50 147v428h-68v-432
c0 -40.667 6.16699 -77.167 18.5 -109.5s29.833 -59.833 52.5 -82.5s50.167 -40.167 82.5 -52.5s68.5 -18.5 108.5 -18.5zM341 760c-32 0 -60.665 9 -85.998 27s-42.666 42.667 -51.999 74l42 18c8 -22.667 20.167 -40.167 36.5 -52.5s36.166 -18.5 59.499 -18.5
s43.166 6.16699 59.499 18.5s28.5 29.833 36.5 52.5l42 -18c-8.66699 -31.333 -25.834 -56 -51.501 -74s-54.5 -27 -86.5 -27z" />
    <glyph glyph-name="ubreve" unicode="&#x16d;" horiz-adv-x="593" 
d="M509 492l0.00292969 -491.998h-54l-4 80h-2c-21.333 -31.333 -48.5 -54.666 -81.5 -69.999s-68.167 -23 -105.5 -23c-31.333 0 -58.833 5.66699 -82.5 17s-43.334 26.666 -59.001 45.999s-27.334 42.166 -35.001 68.499s-11.5 54.166 -11.5 83.499v290h66v-269
c0 -23.333 2.33301 -45.5 7 -66.5s12.5 -39.5 23.5 -55.5s25.333 -28.667 43 -38s39.5 -14 65.5 -14c25.333 0 48.166 5 68.499 15s37.5 23.5 51.5 40.5s24.833 36.5 32.5 58.5s11.5 45 11.5 69v260h66zM291.003 570.002c-32 0 -60.8291 9 -86.4961 27
s-42.834 42.667 -51.501 74l42 18c8 -22.667 20.167 -40.167 36.5 -52.5s36.166 -18.5 59.499 -18.5s43.166 6.16699 59.499 18.5s28.5 29.833 36.5 52.5l42 -18c-8.66699 -31.333 -25.834 -56 -51.501 -74s-54.5 -27 -86.5 -27z" />
    <glyph glyph-name="Uring" unicode="&#x16e;" horiz-adv-x="682" 
d="M341 -13c40 0 76.167 6.16699 108.5 18.5s59.833 29.833 82.5 52.5s40.167 50.167 52.5 82.5s18.5 68.833 18.5 109.5v432h-68v-428c0 -61.333 -16.667 -110.333 -50 -147s-81.333 -55 -144 -55s-110.667 18.333 -144 55s-50 85.667 -50 147v428h-68v-432
c0 -40.667 6.16699 -77.167 18.5 -109.5s29.833 -59.833 52.5 -82.5s50.167 -40.167 82.5 -52.5s68.5 -18.5 108.5 -18.5zM341 963c32.667 0 59.834 -10.167 81.501 -30.5s32.5 -46.5 32.5 -78.5c0 -31.333 -10.833 -57.166 -32.5 -77.499s-48.834 -30.5 -81.501 -30.5
s-59.834 10.167 -81.501 30.5s-32.5 46.166 -32.5 77.499c0 32 10.833 58.167 32.5 78.5s48.834 30.5 81.501 30.5zM341 782c22 0 39.833 7 53.5 21s20.5 31 20.5 51c0 21.333 -6.83301 38.666 -20.5 51.999s-31.5 20 -53.5 20c-21.333 0 -39 -6.66699 -53 -20
s-21 -30.666 -21 -51.999c0 -20 7 -37 21 -51s31.667 -21 53 -21z" />
    <glyph glyph-name="uring" unicode="&#x16f;" horiz-adv-x="593" 
d="M295 593c21.333 0 39 6.66699 53 20s21 30.666 21 51.999s-7 38.666 -21 51.999s-31.667 20 -53 20s-39 -6.66699 -53 -20s-21 -30.666 -21 -51.999s7 -38.666 21 -51.999s31.667 -20 53 -20zM509 492l0.00292969 -491.998h-54l-4 80h-2
c-21.333 -31.333 -48.5 -54.666 -81.5 -69.999s-68.167 -23 -105.5 -23c-31.333 0 -58.833 5.66699 -82.5 17s-43.334 26.666 -59.001 45.999s-27.334 42.166 -35.001 68.499s-11.5 54.166 -11.5 83.499v290h66v-269c0 -23.333 2.33301 -45.5 7 -66.5s12.5 -39.5 23.5 -55.5
s25.333 -28.667 43 -38s39.5 -14 65.5 -14c25.333 0 48.166 5 68.499 15s37.5 23.5 51.5 40.5s24.833 36.5 32.5 58.5s11.5 45 11.5 69v260h66zM409.003 665.002c0 -16 -3 -31 -9 -45s-14.167 -26.167 -24.5 -36.5s-22.5 -18.5 -36.5 -24.5s-29 -9 -45 -9s-30.833 3 -44.5 9
s-25.834 14.167 -36.501 24.5s-19 22.5 -25 36.5s-9 29 -9 45s3 31 9 45s14.333 26.167 25 36.5s22.834 18.5 36.501 24.5s28.5 9 44.5 9s31 -3 45 -9s26.167 -14.167 36.5 -24.5s18.5 -22.5 24.5 -36.5s9 -29 9 -45z" />
    <glyph glyph-name="Uhungarumlaut" unicode="&#x170;" horiz-adv-x="682" 
d="M398 781l119 139l52 -37l-134 -128zM341 -13c40 0 76.167 6.16699 108.5 18.5s59.833 29.833 82.5 52.5s40.167 50.167 52.5 82.5s18.5 68.833 18.5 109.5v432h-68v-428c0 -61.333 -16.667 -110.333 -50 -147s-81.333 -55 -144 -55s-110.667 18.333 -144 55
s-50 85.667 -50 147v428h-68v-432c0 -40.667 6.16699 -77.167 18.5 -109.5s29.833 -59.833 52.5 -82.5s50.167 -40.167 82.5 -52.5s68.5 -18.5 108.5 -18.5zM246 781l119 139l52 -37l-134 -128z" />
    <glyph glyph-name="uhungarumlaut" unicode="&#x171;" horiz-adv-x="593" 
d="M509 492l0.00292969 -491.998h-54l-4 80h-2c-21.333 -31.333 -48.5 -54.666 -81.5 -69.999s-68.167 -23 -105.5 -23c-31.333 0 -58.833 5.66699 -82.5 17s-43.334 26.666 -59.001 45.999s-27.334 42.166 -35.001 68.499s-11.5 54.166 -11.5 83.499v290h66v-269
c0 -23.333 2.33301 -45.5 7 -66.5s12.5 -39.5 23.5 -55.5s25.333 -28.667 43 -38s39.5 -14 65.5 -14c25.333 0 48.166 5 68.499 15s37.5 23.5 51.5 40.5s24.833 36.5 32.5 58.5s11.5 45 11.5 69v260h66zM330.003 591.002l119 139l52 -37l-134 -128zM178.003 591.002l119 139
l52 -37l-134 -128z" />
    <glyph glyph-name="Uogonek" unicode="&#x172;" horiz-adv-x="682" 
d="M603 682v-432c0 -38 -5.16699 -72.167 -15.5 -102.5s-25 -56.333 -44 -78s-41.5 -39 -67.5 -52s-54.333 -21.833 -85 -26.5c-27.333 -24.667 -45.833 -45.334 -55.5 -62.001s-14.5 -31.667 -14.5 -45c0 -12.667 3.66699 -23.167 11 -31.5s18.666 -12.5 33.999 -12.5
c9.33301 0 18 1.33301 26 4s16.333 6.33398 25 11.001l14 -32c-10 -6 -22.5 -11.333 -37.5 -16s-30.167 -7 -45.5 -7c-26 0 -46.333 7 -61 21s-22 31.667 -22 53c0 16.667 4.66699 34.167 14 52.5s26.333 38.166 51 59.499v2c-36 0.666992 -69.333 6.83398 -100 18.501
s-57.167 28.5 -79.5 50.5s-39.833 49.167 -52.5 81.5s-19 69.5 -19 111.5v432h68v-428c0 -33.333 4.83301 -62.5 14.5 -87.5s23 -46 40 -63s37.5 -29.833 61.5 -38.5s50 -13 78 -13c28.667 0 54.834 4.33301 78.501 13s44 21.5 61 38.5s30.333 38 40 63
s14.5 54.167 14.5 87.5v428h68z" />
    <glyph glyph-name="uogonek" unicode="&#x173;" horiz-adv-x="593" 
d="M455 -200c-22.667 0 -42.167 6.16699 -58.5 18.5s-24.5 30.833 -24.5 55.5c0 13.333 2.5 26 7.5 38s11.333 23.333 19 34s16.5 20.5 26.5 29.5s20 17.167 30 24.5l-4 80h-2c-21.333 -31.333 -48.666 -54.666 -81.999 -69.999s-68.333 -23 -105 -23
c-31.333 0 -58.833 5.66699 -82.5 17s-43.334 26.833 -59.001 46.5s-27.334 42.5 -35.001 68.5s-11.5 53.667 -11.5 83v290h66v-269c0 -23.333 2.33301 -45.5 7 -66.5s12.334 -39.5 23.001 -55.5s25 -28.667 43 -38s40 -14 66 -14c25.333 0 48.166 5 68.499 15
s37.5 23.5 51.5 40.5s24.833 36.5 32.5 58.5s11.5 45 11.5 69v260h66v-492c-8 -6.66699 -16.667 -14.334 -26 -23.001s-18.166 -18 -26.499 -28s-15.166 -20.5 -20.499 -31.5s-8 -22.167 -8 -33.5c0 -13.333 4.16699 -24 12.5 -32s19.166 -12 32.499 -12
c9.33301 0 18.333 1.5 27 4.5s16.667 6.5 24 10.5l15 -32c-25.333 -15.333 -53.333 -23 -84 -23z" />
    <glyph glyph-name="Wcircumflex" unicode="&#x174;" horiz-adv-x="945" 
d="M472 850l-101 -103l-37 26l106 124h64l106 -124l-38 -26zM926 682l-208.998 -681.999h-64l-120 377l-16.5 54l-16.5 57l-15 53.5c-4.66699 17 -8.66699 32.167 -12 45.5h-2l-11.5 -45.5c-4.33301 -17 -9.16602 -34.833 -14.499 -53.5l-16.5 -57l-16.5 -54l-120 -377h-64
l-209 682h74l101 -341c13.333 -44 25.666 -87.667 36.999 -131l29 -113h2l15 54.5l16.5 59.5l16.5 59c5.33301 19.333 10.666 36.666 15.999 51.999l114 360h65l114 -360l15.5 -52l17 -59l16.5 -59.5l15 -54.5h2l29 113c11.333 43.333 23.666 87 36.999 131l101 341h74z" />
    <glyph glyph-name="wcircumflex" unicode="&#x175;" horiz-adv-x="747" 
d="M718 492l-149.999 -492h-63l-68 200.5c-22.667 66.333 -43.334 133.833 -62.001 202.5h-2c-19.333 -68.667 -40.333 -136.167 -63 -202.5l-68 -200.5h-63l-150 492h72l59 -197c20 -65.333 37.667 -131.333 53 -198h2c18.667 66.667 39 132.667 61 198l66 197h63l66 -197
c22 -65.333 42.667 -131.333 62 -198h2c15.333 66.667 32.833 132.667 52.5 198l58.5 197h72zM374.001 660l-101 -103l-37 26l106 124h64l106 -124l-38 -26z" />
    <glyph glyph-name="Ycircumflex" unicode="&#x176;" horiz-adv-x="661" 
d="M331 850l-101 -103l-37 26l106 124h64l106 -124l-38 -26zM365 0h-68v302l-273 380h84l222 -316h2l222 316h83l-272 -380v-302z" />
    <glyph glyph-name="ycircumflex" unicode="&#x177;" horiz-adv-x="546" 
d="M184 -200c-12 0 -24 1.16699 -36 3.5s-23.667 5.16602 -35 8.49902l11 60c10 -3.33301 20 -5.83301 30 -7.5s20.333 -2.5 31 -2.5c14.667 0 27 5 37 15s18.5 22 25.5 36s12.833 28.667 17.5 44l12 39l-253 496h77l204 -411h2l143 411h72l-201 -564
c-6 -17.333 -12.833 -33.666 -20.5 -48.999s-16.667 -28.833 -27 -40.5s-22.833 -21 -37.5 -28s-32 -10.5 -52 -10.5zM286 660l-101 -103l-37 26l106 124h64l106 -124l-38 -26z" />
    <glyph glyph-name="Ydieresis" unicode="&#x178;" horiz-adv-x="661" 
d="M206 829c0 12.667 4.16699 23.334 12.5 32.001s18.833 13 31.5 13s23.167 -4.33301 31.5 -13s12.5 -19.334 12.5 -32.001s-4.16699 -23.334 -12.5 -32.001s-18.833 -13 -31.5 -13s-23.167 4.33301 -31.5 13s-12.5 19.334 -12.5 32.001zM372 829
c0 12.667 4.16699 23.334 12.5 32.001s18.833 13 31.5 13s23.167 -4.33301 31.5 -13s12.5 -19.334 12.5 -32.001s-4.16699 -23.334 -12.5 -32.001s-18.833 -13 -31.5 -13s-23.167 4.33301 -31.5 13s-12.5 19.334 -12.5 32.001zM365 0h-68v302l-273 380h84l222 -316h2
l222 316h83l-272 -380v-302z" />
    <glyph glyph-name="Zacute" unicode="&#x179;" horiz-adv-x="615" 
d="M269 781l119 139l52 -37l-134 -128zM551 65v-65h-492v64l391 551v2h-375v65h461v-64l-391 -551v-2h406z" />
    <glyph glyph-name="zacute" unicode="&#x17a;" horiz-adv-x="489" 
d="M203 591l119 139l52 -37l-134 -128zM420 61v-61h-361v62l266 367v2h-255v61h339v-62l-267 -367v-2h278z" />
    <glyph glyph-name="Zdotaccent" unicode="&#x17b;" horiz-adv-x="615" 
d="M271 829c0 12.667 4.16699 23.334 12.5 32.001s18.833 13 31.5 13s23.167 -4.33301 31.5 -13s12.5 -19.334 12.5 -32.001s-4.16699 -23.334 -12.5 -32.001s-18.833 -13 -31.5 -13s-23.167 4.33301 -31.5 13s-12.5 19.334 -12.5 32.001zM551 65v-65h-492v64l391 551v2
h-375v65h461v-64l-391 -551v-2h406z" />
    <glyph glyph-name="zdotaccent" unicode="&#x17c;" horiz-adv-x="489" 
d="M142 61v2l267 367v62h-339v-61h255v-2l-266 -367v-62h361v61h-278zM288 639c0 -11.333 -4 -21 -12 -29s-17.667 -12 -29 -12c-12 0 -22 4 -30 12s-12 17.667 -12 29c0 12 4 22 12 30s18 12 30 12c11.333 0 21 -4 29 -12s12 -18 12 -30z" />
    <glyph glyph-name="Zcaron" unicode="&#x17d;" horiz-adv-x="615" 
d="M408 914l38 -26l-107 -123h-63l-107 123l38 26l101 -103zM145 65v2l391 551v64h-461v-65h375v-2l-391 -551v-64h492v65h-406z" />
    <glyph glyph-name="zcaron" unicode="&#x17e;" horiz-adv-x="489" 
d="M142 61v2l267 367v62h-339v-61h255v-2l-266 -367v-62h361v61h-278zM347 730l37 -26l-106 -124h-64l-106 124l37 26l101 -103z" />
    <glyph glyph-name="florin" unicode="&#x192;" horiz-adv-x="597" 
d="M488 653c-18 0 -32.668 -3.66895 -44.001 -11.002s-20.666 -16.666 -27.999 -27.999s-13 -24.166 -17 -38.499s-7.66699 -28.833 -11 -43.5l-26 -110h145v-55h-158l-71 -312c-6 -24 -12.833 -47 -20.5 -69s-17.667 -41.5 -30 -58.5s-28 -30.5 -47 -40.5
s-42.833 -15 -71.5 -15c-15.333 0 -30.666 1.16699 -45.999 3.5s-30 6.16602 -44 11.499l25 60c20 -8.66699 41.667 -13 65 -13c18 0 32.833 3.5 44.5 10.5s21.167 16.333 28.5 28s13 24.667 17 39s7.66699 28.833 11 43.5l72 312h-141v55h154l25 110
c5.33301 24 11.833 47 19.5 69s17.667 41.5 30 58.5s28 30.5 47 40.5s42.833 15 71.5 15c15.333 0 30.666 -1.16699 45.999 -3.5s30 -6.16602 44 -11.499l-25 -60c-19.333 8.66699 -41 13 -65 13z" />
    <glyph glyph-name="Aringacute" unicode="&#x1fa;" horiz-adv-x="703" 
d="M336 563l-23 -55l-28.5 -67l-30 -71l-28 -67.5l-23.5 -55.5h297l-23 55l-28 68l-30 70l-28 67.5l-23 55.5l-15 36h-2zM528 182h-353l-79 -182h-77l301 682h64l300 -682h-77zM307 998l120 89l52 -24l-134 -82zM352 949c32.667 0 59.834 -10.167 81.501 -30.5
s32.5 -46.5 32.5 -78.5c0 -31.333 -10.833 -57.166 -32.5 -77.499s-48.834 -30.5 -81.501 -30.5s-59.834 10.167 -81.501 30.5s-32.5 46.166 -32.5 77.499c0 32 10.833 58.167 32.5 78.5s48.834 30.5 81.501 30.5zM352 768c22 0 39.833 7 53.5 21s20.5 31 20.5 51
c0 21.333 -7 38.666 -21 51.999s-31.667 20 -53 20s-39 -6.66699 -53 -20s-21 -30.666 -21 -51.999c0 -20 6.83301 -37 20.5 -51s31.5 -21 53.5 -21z" />
    </font>
</defs>
</svg>
