<?xml version="1.0" standalone="no"?>
<!DOCTYPE svg PUBLIC "-//W3C//DTD SVG 1.1//EN" "http://www.w3.org/Graphics/SVG/1.1/DTD/svg11.dtd" >
<svg>
<metadata>
Created by FontForge 20090914 at Tue Sep 24 19:27:37 2019
 By www-data
Copyright (c) 2015 by GT &#38; Canary Inc. All rights reserved.
</metadata>
<defs>
<font id="Mirai-Medium" horiz-adv-x="590" vert-adv-y="1000" >
  <font-face 
    font-family="Mirai-Medium"
    font-weight="400"
    font-stretch="normal"
    units-per-em="1000"
    panose-1="0 0 0 0 0 0 0 0 0 0"
    ascent="787"
    descent="-213"
    x-height="492"
    cap-height="682"
    bbox="-80 -237.001 1153 1134"
    underline-thickness="60"
    underline-position="-120"
    unicode-range="U+000D-U+FB06"
  />
<missing-glyph horiz-adv-x="520" 
d="M421 647h-322l161 -248zM457 94v512l-165 -256zM228 350l-165 256v-512zM99 53h322l-161 249zM510 700v-700h-500v700h500z" />
    <glyph glyph-name="f_f" unicode="ff" horiz-adv-x="683" 
d="M508 492l150.002 -0.00292969v-92h-150v-400h-100v400h-201v-400h-100v400h-72v92h72v41c0 26.667 2.33301 52.334 7 77.001s13 46.334 25 65.001s28.167 33.667 48.5 45s46.166 17 77.499 17c21.333 0 41.666 -1.5 60.999 -4.5s38 -7.16699 56 -12.5l-20 -91
c-15.333 4.66699 -30.5 8.5 -45.5 11.5s-29.833 4.5 -44.5 4.5c-27.333 0 -45 -10.333 -53 -31s-12 -48 -12 -82v-40h201v54c0 58.667 12.833 105.167 38.5 139.5s64.5 51.5 116.5 51.5c17.333 0 35 -1.33301 53 -4s35.333 -6 52 -10l-19 -93
c-12.667 4.66699 -25.5 8.33398 -38.5 11.001s-25.167 4 -36.5 4c-12.667 0 -23.167 -2.5 -31.5 -7.5s-15 -12 -20 -21s-8.66699 -19.5 -11 -31.5s-3.5 -24.667 -3.5 -38v-55z" />
    <glyph glyph-name="fi" unicode="fi" horiz-adv-x="599" 
d="M207 492h311.001v-492h-100v400h-211v-400h-100v400h-72v92h72v54c0 58.667 12.667 105.167 38 139.5s64.333 51.5 117 51.5c18 0 35.667 -1.5 53 -4.5s33.666 -6.83301 48.999 -11.5l-22 -92l-34 10.5c-12 3.66699 -24.333 5.5 -37 5.5c-25.333 0 -42.333 -9 -51 -27
s-13 -41.667 -13 -71v-55zM410.001 639c0 17.333 5.83301 32 17.5 44s26.5 18 44.5 18c18.667 0 33.834 -6 45.501 -18s17.5 -26.667 17.5 -44s-5.83301 -32 -17.5 -44s-26.834 -18 -45.501 -18c-18 0 -32.833 6 -44.5 18s-17.5 26.667 -17.5 44z" />
    <glyph glyph-name="fl" unicode="fl" horiz-adv-x="598" 
d="M302 737c38 0 73.665 -2.83496 106.998 -8.50195s69.666 -13.5 108.999 -23.5v-705h-100v632c-19.333 4 -38.666 7.16699 -57.999 9.5s-37.666 3.5 -54.999 3.5c-20 0 -36.5 -2.66699 -49.5 -8s-23 -13 -30 -23s-11.833 -22.167 -14.5 -36.5s-4 -30.166 -4 -47.499v-38
h144v-92h-144v-400h-100v400h-72v92h72v38c0 64.667 15.333 115.334 46 152.001s80.334 55 149.001 55z" />
    <glyph glyph-name="f_f_i" unicode="ffi" horiz-adv-x="900" 
d="M508 492l312.003 -0.00195312v-492h-100v400h-212v-400h-100v400h-201v-400h-100v400h-72v92h72v41c0 26.667 2.33301 52.334 7 77.001s13 46.334 25 65.001s28.167 33.667 48.5 45s46.166 17 77.499 17c21.333 0 41.666 -1.5 60.999 -4.5s38 -7.16699 56 -12.5l-20 -91
c-15.333 4.66699 -30.5 8.5 -45.5 11.5s-29.833 4.5 -44.5 4.5c-27.333 0 -45 -10.333 -53 -31s-12 -48 -12 -82v-40h201v54c0 58.667 12.833 105.167 38.5 139.5s64.5 51.5 116.5 51.5c18.667 0 36.667 -1.5 54 -4.5s33.666 -6.83301 48.999 -11.5l-22 -92l-34 10.5
c-12 3.66699 -24.333 5.5 -37 5.5c-25.333 0 -42.5 -9 -51.5 -27s-13.5 -41.667 -13.5 -71v-55zM711.003 638.998c0 17.333 5.83301 32 17.5 44s26.5 18 44.5 18c18.667 0 33.834 -6 45.501 -18s17.5 -26.667 17.5 -44s-5.83301 -32 -17.5 -44s-26.834 -18 -45.501 -18
c-18 0 -32.833 6 -44.5 18s-17.5 26.667 -17.5 44z" />
    <glyph glyph-name="f_f_l" unicode="ffl" horiz-adv-x="900" 
d="M604 737c38 0 73.6699 -2.83691 107.003 -8.50391s69.666 -13.5 108.999 -23.5v-705h-100v632c-20 4 -39.667 7.16699 -59 9.5s-37.333 3.5 -54 3.5c-20 0 -36.5 -2.66699 -49.5 -8s-23.167 -13 -30.5 -23s-12.333 -22.167 -15 -36.5s-4 -30.166 -4 -47.499v-38h145v-92
h-145v-400h-100v400h-201v-400h-100v400h-72v92h72v41c0 26.667 2.33301 52.334 7 77.001s13 46.334 25 65.001s28.167 33.667 48.5 45s46.166 17 77.499 17c21.333 0 41.666 -1.5 60.999 -4.5s38 -7.16699 56 -12.5l-20 -91c-15.333 4.66699 -30.5 8.5 -45.5 11.5
s-29.833 4.5 -44.5 4.5c-27.333 0 -45 -10.333 -53 -31s-12 -48 -12 -82v-40h201v38c0 64.667 15.5 115.334 46.5 152.001s80.833 55 149.5 55z" />
    <glyph glyph-name=".notdef" horiz-adv-x="520" 
d="M421 647h-322l161 -248zM457 94v512l-165 -256zM228 350l-165 256v-512zM99 53h322l-161 249zM510 700v-700h-500v700h500z" />
    <glyph glyph-name="NULL" horiz-adv-x="0" vert-adv-y="0" 
 />
    <glyph glyph-name="NULL" horiz-adv-x="0" vert-adv-y="0" 
 />
    <glyph glyph-name="nonmarkingreturn" unicode="&#xd;" horiz-adv-x="0" vert-adv-y="0" 
 />
    <glyph glyph-name="space" unicode=" " horiz-adv-x="207" 
 />
    <glyph glyph-name="exclam" unicode="!" horiz-adv-x="255" 
d="M181 682l-16 -488h-75l-17 488h108zM65 49c0 -17.333 5.83301 -32 17.5 -44s26.5 -18 44.5 -18c18.667 0 33.834 6 45.501 18s17.5 26.667 17.5 44s-5.83301 32 -17.5 44s-26.834 18 -45.501 18c-18 0 -32.833 -6 -44.5 -18s-17.5 -26.667 -17.5 -44z" />
    <glyph glyph-name="quotedbl" unicode="&#x22;" horiz-adv-x="351" 
d="M286 481h-71l-15 244h101zM136 481h-71l-15 244h101z" />
    <glyph glyph-name="numbersign" unicode="#" horiz-adv-x="719" 
d="M452 426h-150l-30 -170h150zM542 426l-30 -170h118l-15 -81h-117l-31 -175h-90l31 175h-151l-31 -175h-90l31 175h-117l14 81h118l30 170h-118l15 81h117l31 175h90l-31 -175h151l30 175h90l-30 -175h117l-14 -81h-118z" />
    <glyph glyph-name="dollar" unicode="$" 
d="M433 192c0 19.333 -7.16699 36.667 -21.5 52s-39.5 29 -75.5 41v-179c33.333 5.33301 57.833 16 73.5 32s23.5 34 23.5 54zM163 495.001c0 -18.667 7.66699 -35.6689 23 -51.002s43.666 -29.666 84.999 -42.999v176c-37.333 -3.33301 -64.666 -12.666 -81.999 -27.999
s-26 -33.333 -26 -54zM529 194.999c0 -21.333 -3.67285 -42.166 -11.0059 -62.499s-18.666 -38.833 -33.999 -55.5s-35.166 -30.5 -59.499 -41.5s-53.833 -18.167 -88.5 -21.5v-56h-65v56c-39.333 2.66699 -77.666 10.5 -114.999 23.5s-69.666 29.833 -96.999 50.5l56 77
c22 -16.667 46 -30.167 72 -40.5s54 -16.833 84 -19.5v198c-73.333 16.667 -125.666 41.5 -156.999 74.5s-47 71.5 -47 115.5c0 22.667 4.33301 44.167 13 64.5s21.5 38.333 38.5 54s38.167 28.667 63.5 39s55 16.5 89 18.5v55h65v-57c36 -3.33301 70.833 -11 104.5 -23
s63.834 -27.333 90.501 -46l-56 -77c-21.333 14.667 -43.333 26.667 -66 36s-47 15.666 -73 18.999v-192c70.667 -19.333 120.5 -44.333 149.5 -75s43.5 -68.667 43.5 -114z" />
    <glyph glyph-name="percent" unicode="%" horiz-adv-x="842" 
d="M198 369c23.333 0 42 10.167 56 30.5s21 52.5 21 96.5c0 44.667 -7 77 -21 97s-32.667 30 -56 30s-42 -10 -56 -30s-21 -52.333 -21 -97c0 -44 7 -76.167 21 -96.5s32.667 -30.5 56 -30.5zM198 694c49.333 0 87.333 -17.167 114 -51.5s40 -83.166 40 -146.499
s-13.333 -112.166 -40 -146.499s-64.667 -51.5 -114 -51.5s-87.166 17.167 -113.499 51.5s-39.5 83.166 -39.5 146.499s13.167 112.166 39.5 146.499s64.166 51.5 113.499 51.5zM644 59c23.333 0 42 10 56 30s21 52.333 21 97c0 44 -7 76.167 -21 96.5
s-32.667 30.5 -56 30.5s-42 -10.167 -56 -30.5s-21 -52.5 -21 -96.5c0 -44.667 7 -77 21 -97s32.667 -30 56 -30zM644 384c49.333 0 87.166 -17.167 113.499 -51.5s39.5 -83.166 39.5 -146.499s-13.167 -112.333 -39.5 -147s-64.166 -52 -113.499 -52
s-87.333 17.333 -114 52s-40 83.667 -40 147s13.333 112.166 40 146.499s64.667 51.5 114 51.5zM538 705l64 -27l-298 -701l-64 27z" />
    <glyph glyph-name="ampersand" unicode="&#x26;" horiz-adv-x="662" 
d="M271 82c23.333 0 45.8311 3.33301 67.498 10s41.834 18.667 60.501 36l-79.5 81c-25 26.667 -51.833 57.334 -80.5 92.001c-30.667 -20 -53.167 -39.5 -67.5 -58.5s-21.5 -40.167 -21.5 -63.5c0 -15.333 3.16699 -28.833 9.5 -40.5s15 -21.834 26 -30.501
s23.833 -15.167 38.5 -19.5s30.334 -6.5 47.001 -6.5zM284.998 599c-22 0 -39.5 -6.33203 -52.5 -18.999s-19.5 -29 -19.5 -49c0 -8 0.666992 -15.667 2 -23s3.83301 -14.833 7.5 -22.5s8.66699 -15.834 15 -24.501s14.5 -19 24.5 -31c32.667 19.333 56.667 36.5 72 51.5
s23 32.5 23 52.5c0 18 -6.5 33.333 -19.5 46s-30.5 19 -52.5 19zM268.998 -12.999c-30.667 0 -59.334 4.66504 -86.001 13.998s-49.834 22.5 -69.501 39.5s-35.167 37.5 -46.5 61.5s-17 50.667 -17 80c0 16 1.83301 32 5.5 48s10.334 32 20.001 48s22.5 32.333 38.5 49
s36.667 33.667 62 51c-19.333 26 -34.666 51.667 -45.999 77s-17 51.666 -17 78.999c0 23.333 3.83301 44.833 11.5 64.5s19 36.5 34 50.5s33 25 54 33s45.167 12 72.5 12c26.667 0 50.667 -4.16699 72 -12.5s39.5 -19.666 54.5 -33.999s26.333 -31 34 -50
s11.5 -38.833 11.5 -59.5c0 -38 -11.333 -71.667 -34 -101s-55.334 -57.333 -98.001 -84l68 -77l60 -63h2c6.66699 17.333 12.334 36.833 17.001 58.5s8.33398 45.167 11.001 70.5l97 -14c-4.66699 -37.333 -11.334 -71.166 -20.001 -101.499s-19.667 -58.166 -33 -83.499
l42 -38l48 -43l-68 -75l-82 76c-54 -50.667 -120 -76 -198 -76z" />
    <glyph glyph-name="quotesingle" unicode="'" horiz-adv-x="201" 
d="M136 481h-71l-15 244h101z" />
    <glyph glyph-name="parenleft" unicode="(" horiz-adv-x="323" 
d="M165 294c0 -74.667 10.167 -146.667 30.5 -216s49.5 -133.666 87.5 -192.999l-76 -40c-42.667 64.667 -75.334 134.834 -98.001 210.501s-34 155.167 -34 238.5s11.333 162.666 34 237.999s55.334 145.666 98.001 210.999l76 -41
c-38 -59.333 -67.167 -123.5 -87.5 -192.5s-30.5 -140.833 -30.5 -215.5z" />
    <glyph glyph-name="parenright" unicode=")" horiz-adv-x="323" 
d="M248 294c0 -83.333 -11.333 -162.833 -34 -238.5s-55.334 -145.834 -98.001 -210.501l-76 40c38.667 59.333 68 123.666 88 192.999s30 141.333 30 216s-10 146.5 -30 215.5s-49.333 133.167 -88 192.5l76 41c42.667 -65.333 75.334 -135.666 98.001 -210.999
s34 -154.666 34 -237.999z" />
    <glyph glyph-name="asterisk" unicode="*" horiz-adv-x="467" 
d="M266 467l8 -142h-81l7 142h-2l-118 -77l-40 70l126 64v2l-126 64l40 70l118 -77h2l-7 142h81l-8 -142h2l118 77l41 -70l-126 -64v-2l126 -64l-41 -70l-118 77h-2z" />
    <glyph glyph-name="plus" unicode="+" 
d="M527 229h-188v-190h-88v190h-188v85h188v190h88v-190h188v-85z" />
    <glyph glyph-name="comma" unicode="," horiz-adv-x="188" 
d="M158 98c-5.33301 -19.333 -11.332 -39.832 -17.999 -61.499s-14 -43.334 -22 -65.001l-24 -63c-8 -20.333 -15.667 -38.5 -23 -54.5h-71c12.667 42 24.167 84.667 34.5 128s18.166 82 23.499 116h100z" />
    <glyph glyph-name="hyphen" unicode="-" horiz-adv-x="355" 
d="M45 314h265v-85h-265v85z" />
    <glyph glyph-name="period" unicode="." horiz-adv-x="200" 
d="M45 49c0 17.333 5.83301 32 17.5 44s26.5 18 44.5 18c18.667 0 33.834 -6 45.501 -18s17.5 -26.667 17.5 -44s-5.83301 -32 -17.5 -44s-26.834 -18 -45.501 -18c-18 0 -32.833 6 -44.5 18s-17.5 26.667 -17.5 44z" />
    <glyph glyph-name="slash" unicode="/" horiz-adv-x="397" 
d="M88 -62l-70 26l299 780l70 -26z" />
    <glyph glyph-name="zero" unicode="0" 
d="M295 83c50.667 0 89.167 21.167 115.5 63.5s39.5 107.166 39.5 194.499s-13.167 152.166 -39.5 194.499s-64.833 63.5 -115.5 63.5s-89.167 -21.167 -115.5 -63.5s-39.5 -107.166 -39.5 -194.499s13.167 -152.166 39.5 -194.499s64.833 -63.5 115.5 -63.5zM295 694
c38.667 0 73.834 -7.66699 105.501 -23s58.5 -37.833 80.5 -67.5s39 -66.5 51 -110.5s18 -94.667 18 -152s-6 -108 -18 -152s-29 -81 -51 -111s-48.833 -52.667 -80.5 -68s-66.834 -23 -105.501 -23c-39.333 0 -74.666 7.66699 -105.999 23s-58 38 -80 68s-39 67 -51 111
s-18 94.667 -18 152s6 108 18 152s29 80.833 51 110.5s48.667 52.167 80 67.5s66.666 23 105.999 23z" />
    <glyph glyph-name="one" unicode="1" 
d="M392 687v-687h-100v579l-147 -62l-30 86l198 84h79z" />
    <glyph glyph-name="two" unicode="2" 
d="M514 91v-90.999h-436v83l225 239l46 49.5c13.333 15 24.666 29.167 33.999 42.5s16.5 26.5 21.5 39.5s7.5 26.5 7.5 40.5c0 30 -9.5 55.167 -28.5 75.5s-46.833 30.5 -83.5 30.5c-37.333 0 -65.5 -11.667 -84.5 -35s-31.167 -53.333 -36.5 -90l-103 29
c9.33301 57.333 33 103.5 71 138.5s89 52.5 153 52.5c35.333 0 66.166 -5.5 92.499 -16.5s48.333 -25.667 66 -44s31 -39.833 40 -64.5s13.5 -50.667 13.5 -78c0 -20.667 -3.16699 -40.334 -9.5 -59.001s-15.166 -37 -26.499 -55s-24.666 -36 -39.999 -54
s-32 -36.333 -50 -55l-166 -176v-2h294z" />
    <glyph glyph-name="three" unicode="3" 
d="M524 190c0 -64.667 -21.6689 -114.668 -65.002 -150.001s-102.666 -53 -177.999 -53c-41.333 0 -81.166 7.5 -119.499 22.5s-70.166 36.5 -95.499 64.5l70 67c17.333 -18.667 38.833 -33 64.5 -43s52.5 -15 80.5 -15c44.667 0 79.667 9.83301 105 29.5s38 45.5 38 77.5
c0 32.667 -11.833 59.834 -35.5 81.501s-61.167 32.5 -112.5 32.5h-81v89h81c45.333 0 79.333 10.167 102 30.5s34 45.833 34 76.5c0 29.333 -10.833 53.333 -32.5 72s-54.834 28 -99.501 28c-28.667 0 -54.834 -4.83301 -78.501 -14.5s-44.5 -23.167 -62.5 -40.5l-69 71
c26.667 25.333 58 44.833 94 58.5s74.667 20.5 116 20.5c38 0 71.5 -5 100.5 -15s53.333 -23.667 73 -41s34.334 -37.333 44.001 -60s14.5 -47 14.5 -73c0 -33.333 -8 -62.833 -24 -88.5s-38.667 -46.5 -68 -62.5v-2c36 -17.333 62.333 -40.5 79 -69.5s25 -60.167 25 -93.5z
" />
    <glyph glyph-name="four" unicode="4" 
d="M361 233v282h-2l-204 -280v-2h206zM552 141h-91v-141h-100v141h-315l-8 89l330 452h93v-449h91v-92z" />
    <glyph glyph-name="five" unicode="5" 
d="M283 436c36.667 0 69.832 -5.16699 99.499 -15.5s54.834 -25.166 75.501 -44.499s36.5 -42.5 47.5 -69.5s16.5 -57.5 16.5 -91.5c0 -32 -5.5 -61.833 -16.5 -89.5s-27.167 -51.834 -48.5 -72.501s-47.5 -36.834 -78.5 -48.501s-66.167 -17.5 -105.5 -17.5
c-43.333 0 -83 8.33301 -119 25s-64.333 38.667 -85 66l71 67c15.333 -19.333 34.666 -34.666 57.999 -45.999s49.333 -17 78 -17c46 0 81.833 12.5 107.5 37.5s38.5 57.5 38.5 97.5c0 38.667 -12.833 69 -38.5 91s-62.5 33 -110.5 33c-24.667 0 -46.167 -1.5 -64.5 -4.5
s-35.833 -6.83301 -52.5 -11.5l-60 54l47 303h342v-92h-255l-26 -163h2c22.667 6 48.334 9 77.001 9z" />
    <glyph glyph-name="six" unicode="6" 
d="M295 82c23.333 0 44 3.66699 62 11s33.167 17.166 45.5 29.499s21.666 26.333 27.999 42s9.5 32.167 9.5 49.5s-3.16699 34 -9.5 50s-15.666 30 -27.999 42s-27.5 21.667 -45.5 29s-38.667 11 -62 11s-44 -3.66699 -62 -11s-33.167 -17 -45.5 -29
s-21.666 -26 -27.999 -42s-9.5 -32.667 -9.5 -50s3.16699 -33.833 9.5 -49.5s15.666 -29.667 27.999 -42s27.5 -22.166 45.5 -29.499s38.667 -11 62 -11zM311 441c32.667 0 62.8301 -5.83301 90.4971 -17.5s51.834 -27.667 72.501 -48s36.834 -44.333 48.501 -72
s17.5 -57.5 17.5 -89.5s-5.83301 -61.833 -17.5 -89.5s-28.167 -51.667 -49.5 -72s-47 -36.333 -77 -48s-63.667 -17.5 -101 -17.5s-71 5.83301 -101 17.5s-55.667 27.667 -77 48s-37.833 44.333 -49.5 72s-17.5 57.5 -17.5 89.5c0 24.667 3.33301 48.5 10 71.5
s18.334 51 35.001 84s39 74 67 123l107 189.5h115l-81 -140.5l-64 -108.5v-2c20.667 6.66699 44.667 10 72 10z" />
    <glyph glyph-name="seven" unicode="7" 
d="M503 682v-76l-236 -606h-112l238 590h-335v92h445z" />
    <glyph glyph-name="eight" unicode="8" 
d="M295 82c50.667 0 89 10.667 115 32s39 47 39 77s-13 55.5 -39 76.5s-64.333 31.5 -115 31.5s-89 -10.5 -115 -31.5s-39 -46.5 -39 -76.5s13 -55.667 39 -77s64.333 -32 115 -32zM295 599c-40 0 -72 -9.33301 -96 -28s-36 -43.667 -36 -75s12 -56.333 36 -75
s56 -28 96 -28s72 9.33301 96 28s36 43.667 36 75s-12 56.333 -36 75s-56 28 -96 28zM549 189c0 -30 -5.8291 -57.333 -17.4961 -82s-28.5 -45.834 -50.5 -63.501s-48.667 -31.5 -80 -41.5s-66.666 -15 -105.999 -15s-74.666 5 -105.999 15s-58 23.833 -80 41.5
s-38.833 38.834 -50.5 63.501s-17.5 52 -17.5 82c0 36 8.16699 67.5 24.5 94.5s40.166 48.833 71.499 65.5v2c-23.333 17.333 -41.333 38.166 -54 62.499s-19 52.166 -19 83.499c0 28.667 5.66699 55 17 79s27.166 44.833 47.499 62.5s44.666 31.334 72.999 41.001
s59.5 14.5 93.5 14.5s65.167 -4.83301 93.5 -14.5s52.666 -23.334 72.999 -41.001s36.166 -38.5 47.499 -62.5s17 -50.333 17 -79c0 -31.333 -6.33301 -59.166 -19 -83.499s-30.667 -45.166 -54 -62.499v-2c31.333 -16.667 55.166 -38.5 71.499 -65.5s24.5 -58.5 24.5 -94.5
z" />
    <glyph glyph-name="nine" unicode="9" 
d="M295 336c23.333 0 44 3.66699 62 11s33.167 17 45.5 29s21.666 26 27.999 42s9.5 32.667 9.5 50c0 16.667 -3.16699 33 -9.5 49s-15.666 30 -27.999 42s-27.5 21.667 -45.5 29s-38.667 11 -62 11s-44 -3.66699 -62 -11s-33.167 -17 -45.5 -29s-21.666 -26 -27.999 -42
s-9.5 -32.333 -9.5 -49c0 -17.333 3.16699 -34 9.5 -50s15.666 -30 27.999 -42s27.5 -21.667 45.5 -29s38.667 -11 62 -11zM295 694c37.333 0 71.001 -5.83301 101.001 -17.5s55.667 -27.5 77 -47.5s37.833 -43.833 49.5 -71.5s17.5 -57.5 17.5 -89.5
c0 -24.667 -3.33301 -48.5 -10 -71.5s-18.334 -51 -35.001 -84s-39.167 -74 -67.5 -123l-106.5 -189.5h-115l81 140.5l64 108.5v2c-20.667 -6.66699 -44.667 -10 -72 -10c-32.667 0 -63 5.83301 -91 17.5s-52.167 27.667 -72.5 48s-36.333 44.333 -48 72
s-17.5 57.5 -17.5 89.5s5.83301 61.833 17.5 89.5s28.167 51.5 49.5 71.5s47 35.833 77 47.5s63.667 17.5 101 17.5z" />
    <glyph glyph-name="colon" unicode=":" horiz-adv-x="235" 
d="M55 443c0 17.333 5.83301 32 17.5 44s26.5 18 44.5 18c18.667 0 33.834 -6 45.501 -18s17.5 -26.667 17.5 -44s-5.83301 -32 -17.5 -44s-26.834 -18 -45.501 -18c-18 0 -32.833 6 -44.5 18s-17.5 26.667 -17.5 44zM55 49c0 17.333 5.83301 32 17.5 44s26.5 18 44.5 18
c18.667 0 33.834 -6 45.501 -18s17.5 -26.667 17.5 -44s-5.83301 -32 -17.5 -44s-26.834 -18 -45.501 -18c-18 0 -32.833 6 -44.5 18s-17.5 26.667 -17.5 44z" />
    <glyph glyph-name="semicolon" unicode=";" horiz-adv-x="240" 
d="M74 98c-5.33301 -33.333 -13.167 -71.667 -23.5 -115s-21.833 -86 -34.5 -128h71c7.33301 16 15 34.167 23 54.5l24 62.5c8 21.333 15.333 42.833 22 64.5s12.667 42.167 18 61.5h-100zM59.999 442.999c0 17.333 5.83301 31.833 17.5 43.5s26.834 17.5 45.501 17.5
c18 0 32.833 -5.83301 44.5 -17.5s17.5 -26.167 17.5 -43.5s-5.83301 -32 -17.5 -44s-26.5 -18 -44.5 -18c-18.667 0 -33.834 6 -45.501 18s-17.5 26.667 -17.5 44z" />
    <glyph glyph-name="less" unicode="&#x3c;" 
d="M152 270l385 -183l-37 -77l-447 216v91l447 216l37 -77l-385 -184v-2z" />
    <glyph glyph-name="equal" unicode="=" 
d="M527 354h-464v85h464v-85zM527 104h-464v85h464v-85z" />
    <glyph glyph-name="greater" unicode="&#x3e;" 
d="M537 317v-91l-447 -216l-37 77l385 183v2l-385 184l37 77z" />
    <glyph glyph-name="question" unicode="?" horiz-adv-x="569" 
d="M251 194c0 26 0.665039 48.6631 1.99805 67.9961s4.33301 36.833 9 52.5s11.334 29.834 20.001 42.501s20 25.334 34 38.001c14.667 14 28.167 26.333 40.5 37s22.666 20.834 30.999 30.501s14.833 19.334 19.5 29.001s7 20.5 7 32.5c0 22.667 -10.5 41.334 -31.5 56.001
s-51.167 22 -90.5 22c-34 0 -62.5 -8 -85.5 -24s-38.167 -41 -45.5 -75l-96 28c14.667 51.333 41 91.333 79 120s87.333 43 148 43c36 0 67.833 -4.5 95.5 -13.5s50.834 -21.333 69.501 -37s32.834 -33.834 42.501 -54.501s14.5 -42.667 14.5 -66
c0 -18 -3.16699 -34.5 -9.5 -49.5s-15.166 -29.5 -26.499 -43.5s-24.666 -28 -39.999 -42l-51 -46c-10.667 -10 -19.334 -19.5 -26.001 -28.5s-12 -19.167 -16 -30.5s-6.83301 -24 -8.5 -38s-2.83398 -31 -3.50098 -51h-82zM229.998 48.9961c0 17.333 5.83301 32 17.5 44
s26.5 18 44.5 18c18.667 0 33.834 -6 45.501 -18s17.5 -26.667 17.5 -44s-5.83301 -32 -17.5 -44s-26.834 -18 -45.501 -18c-18 0 -32.833 6 -44.5 18s-17.5 26.667 -17.5 44z" />
    <glyph glyph-name="at" unicode="@" horiz-adv-x="922" 
d="M432 168c29.333 0 54.666 10.666 75.999 31.999s33.666 52.333 36.999 93c0.666992 6.66699 1 13 1 19c0 32 -7.33301 57 -22 75c-17.333 21.333 -41 32 -71 32c-29.333 0 -54.666 -10.667 -75.999 -32s-33.666 -52.666 -36.999 -93.999
c-0.666992 -6.66699 -1 -13 -1 -19c0 -31.333 7.33301 -56 22 -74c17.333 -21.333 41 -32 71 -32zM626 218.999c0 -16.667 4.99512 -30.333 14.9951 -41c13.333 -14 30.333 -21 51 -21c32 0 56.5 15.667 73.5 47s25.5 72.666 25.5 123.999
c0 46.667 -7.83301 89.167 -23.5 127.5s-38 70.833 -67 97.5s-63.667 47.334 -104 62.001s-84.833 22 -133.5 22s-93.334 -8 -134.001 -24s-75.667 -39 -105 -69s-52.166 -66.167 -68.499 -108.5s-24.5 -89.833 -24.5 -142.5c0 -51.333 7.66699 -98.166 23 -140.499
s37.333 -78.666 66 -108.999s63.334 -53.833 104.001 -70.5s86.334 -25 137.001 -25c46.667 0 91.834 7.16699 135.501 21.5s83.834 34.833 120.501 61.5l44 -59c-38 -29.333 -83.333 -52.5 -136 -69.5s-107.334 -25.5 -164.001 -25.5c-62.667 0 -119 11 -169 33
s-92.5 52 -127.5 90s-62 82.167 -81 132.5s-28.5 103.833 -28.5 160.5c0 58.667 10.167 113.5 30.5 164.5s48.666 95.167 84.999 132.5s79.333 66.666 129 87.999s104.167 32 163.5 32s113.833 -9.66699 163.5 -29s92.334 -46 128.001 -80s63.334 -74.333 83.001 -121
s29.5 -97.334 29.5 -152.001c0 -43.333 -5.16699 -80.833 -15.5 -112.5s-24.333 -57.667 -42 -78s-37.667 -35.333 -60 -45s-45.5 -14.5 -69.5 -14.5s-46.667 5.5 -68 16.5s-38.666 27.167 -51.999 48.5h-2c-17.333 -20.667 -37.666 -36.667 -60.999 -48s-49 -17 -77 -17
c-26.667 0 -51 5.33301 -73 16s-40.833 25.5 -56.5 44.5s-27.5 41.5 -35.5 67.5c-6.66699 21.333 -10 44 -10 68c0 6.66699 0.333008 13 1 19c2 31.333 8.5 60.166 19.5 86.499s25.333 49 43 68s38.167 33.833 61.5 44.5s48.333 16 75 16c28 0 53.167 -5.83301 75.5 -17.5
s41.166 -28.167 56.499 -49.5h2l13 57h82l-25 -138.5c-6 -34.333 -10.333 -60.5 -13 -78.5c-3.33301 -21.333 -6 -35.666 -8 -42.999c-1.33301 -6.66699 -2 -13 -2 -19z" />
    <glyph glyph-name="A" unicode="A" horiz-adv-x="716" 
d="M298.5 399.5l-60.5 -147.5h240l-60.5 147.5l-58.5 147.5h-2zM519 154h-323l-66 -154h-115l297 682h91l298 -682h-116z" />
    <glyph glyph-name="B" unicode="B" horiz-adv-x="657" 
d="M607 184c0 -58.667 -20.167 -104.001 -60.5 -136.001s-95.833 -48 -166.5 -48h-293h-2v682h270c70.667 0 126.167 -16 166.5 -48s60.5 -76.333 60.5 -133c0 -35.333 -7.66699 -65.666 -23 -90.999s-37.333 -45.333 -66 -60c36 -14 64 -34.667 84 -62s30 -62 30 -104z
M478 487.999c0 28 -9.83203 50.999 -29.499 68.999s-51.834 27 -96.501 27h-164v-192h164c42 0 73.5 8.83301 94.5 26.5s31.5 40.834 31.5 69.501zM503.001 195.998c0 31.333 -10.333 55.5 -31 72.5s-53 25.5 -97 25.5h-187v-196h187c41.333 0 73 8.5 95 25.5
s33 41.167 33 72.5z" />
    <glyph glyph-name="C" unicode="C" horiz-adv-x="720" 
d="M403 -13c-49.333 0 -95.332 8.83887 -137.999 26.5059s-79.667 42.167 -111 73.5s-56 68.666 -74 111.999s-27 90.666 -27 141.999s9 98.666 27 141.999s42.667 80.666 74 111.999s68.333 55.666 111 72.999s88.667 26 138 26c54 0 103.833 -9.83301 149.5 -29.5
s84.5 -48.167 116.5 -85.5l-78 -69c-22 27.333 -49.167 48.666 -81.5 63.999s-67.833 23 -106.5 23c-35.333 0 -68 -6.16699 -98 -18.5s-56 -29.833 -78 -52.5s-39.333 -49.667 -52 -81s-19 -66 -19 -104s6.33301 -72.833 19 -104.5s30 -58.667 52 -81s48 -39.833 78 -52.5
s62.667 -19 98 -19c40 0 76.333 8.16699 109 24.5s60 38.5 82 66.5l79 -68c-32 -38 -71.333 -67.5 -118 -88.5s-97.334 -31.5 -152.001 -31.5z" />
    <glyph glyph-name="D" unicode="D" horiz-adv-x="708" 
d="M655 341c0 -53.333 -8.33301 -101 -25 -143s-40.334 -77.667 -71.001 -107s-67.834 -51.833 -111.501 -67.5s-92.5 -23.5 -146.5 -23.5h-216v682h216c54 0 102.833 -7.83301 146.5 -23.5s80.834 -38.167 111.501 -67.5s54.334 -65 71.001 -107s25 -89.667 25 -143z
M551 341c0 78.667 -21.833 138.832 -65.5 180.499s-106.5 62.5 -188.5 62.5h-109v-486h109c82 0 144.833 20.833 188.5 62.5s65.5 101.834 65.5 180.501z" />
    <glyph glyph-name="E" unicode="E" horiz-adv-x="609" 
d="M544 0h-459v682h450v-98h-347v-190h319v-98h-319v-198h356v-98z" />
    <glyph glyph-name="F" unicode="F" horiz-adv-x="579" 
d="M529 584h-341v-202h313v-98h-313v-284h-103v682h444v-98z" />
    <glyph glyph-name="G" unicode="G" horiz-adv-x="749" 
d="M403 -13c-49.333 0 -95.332 8.83691 -137.999 26.5039s-79.667 42.167 -111 73.5s-56 68.666 -74 111.999s-27 90.666 -27 141.999s9 98.666 27 141.999s42.667 80.666 74 111.999s68.333 55.666 111 72.999s88.667 26 138 26c54 0 103.833 -9.83301 149.5 -29.5
s84.5 -48.167 116.5 -85.5l-78 -69c-22 27.333 -49.167 48.666 -81.5 63.999s-67.833 23 -106.5 23c-35.333 0 -68 -6.16699 -98 -18.5s-56 -29.833 -78 -52.5s-39.333 -49.667 -52 -81s-19 -66 -19 -104s6.33301 -72.833 19 -104.5s30 -58.667 52 -81s48 -39.833 78 -52.5
s62.667 -19 98 -19c27.333 0 55.166 2.83301 83.499 8.5s56.5 14.5 84.5 26.5v159h-161v98h264v-311c-16 -10 -34 -19.667 -54 -29s-41.5 -17.666 -64.5 -24.999s-47.333 -13.166 -73 -17.499s-52.167 -6.5 -79.5 -6.5z" />
    <glyph glyph-name="H" unicode="H" horiz-adv-x="720" 
d="M635 0h-103v306h-344v-306h-103v682h103v-278h344v278h103v-682z" />
    <glyph glyph-name="I" unicode="I" horiz-adv-x="273" 
d="M188 0h-103v682h103v-682z" />
    <glyph glyph-name="J" unicode="J" horiz-adv-x="551" 
d="M251 86c20.667 0 38.667 3.66797 54 11.001s28 17.333 38 30s17.5 27.5 22.5 44.5s7.5 35.5 7.5 55.5v455h103v-455c0 -36 -4.83301 -68.667 -14.5 -98s-24 -54.5 -43 -75.5s-42.667 -37.167 -71 -48.5s-60.833 -17 -97.5 -17c-22.667 0 -45.667 2.83301 -69 8.5
s-45.333 14 -66 25s-39.334 24.833 -56.001 41.5s-29.667 35.667 -39 57l85 59c14.667 -28.667 34.334 -51.334 59.001 -68.001s53.667 -25 87 -25z" />
    <glyph glyph-name="K" unicode="K" horiz-adv-x="671" 
d="M188 0h-103v682h103v-313h2l309 313h141l-312 -308l323 -374h-138l-257 310l-68 -59v-251z" />
    <glyph glyph-name="L" unicode="L" horiz-adv-x="560" 
d="M530 0h-445v682h103v-584h342v-98z" />
    <glyph glyph-name="M" unicode="M" horiz-adv-x="893" 
d="M818 0h-104l-21 356c-2 28.667 -3.5 55.334 -4.5 80.001s-2.16699 47.334 -3.5 68.001h-2l-35 -63.5l-23 -41.5c-7.33301 -12 -13 -21.667 -17 -29l-156 -254h-10l-157 254c-4 7.33301 -9.66699 17 -17 29l-23.5 41.5l-34.5 63.5h-2
c-1.33301 -20.667 -2.5 -43.334 -3.5 -68.001s-2.16699 -51.334 -3.5 -80.001l-21 -356h-105l42 682h96l233 -379h2l233 379h95z" />
    <glyph glyph-name="N" unicode="N" horiz-adv-x="730" 
d="M645 682l0.000976562 -682h-91l-367 500h-2c1.33301 -25.333 2.16602 -52.5 2.49902 -81.5s0.5 -56.167 0.5 -81.5v-337h-103v682h91l366 -500h2c-0.666992 25.333 -1.16699 52.5 -1.5 81.5s-0.5 56.167 -0.5 81.5v337h103z" />
    <glyph glyph-name="O" unicode="O" horiz-adv-x="805" 
d="M752 341c0 -51.333 -9 -98.666 -27 -141.999s-42.667 -80.666 -74 -111.999s-68.166 -55.833 -110.499 -73.5s-88.166 -26.5 -137.499 -26.5s-95.333 8.83301 -138 26.5s-79.667 42.167 -111 73.5s-56 68.666 -74 111.999s-27 90.666 -27 141.999s9 98.666 27 141.999
s42.667 80.666 74 111.999s68.333 55.666 111 72.999s88.667 26 138 26s95.166 -8.66699 137.499 -26s79.166 -41.666 110.499 -72.999s56 -68.666 74 -111.999s27 -90.666 27 -141.999zM649 341c0 38 -6.33301 72.667 -19 104s-30 58.333 -52 81s-48 40.167 -78 52.5
s-62.333 18.5 -97 18.5c-35.333 0 -68 -6.16699 -98 -18.5s-56 -29.833 -78 -52.5s-39.333 -49.667 -52 -81s-19 -66 -19 -104s6.33301 -72.833 19 -104.5s30 -58.667 52 -81s48 -39.833 78 -52.5s62.667 -19 98 -19c34.667 0 67 6.33301 97 19s56 30.167 78 52.5
s39.333 49.333 52 81s19 66.5 19 104.5z" />
    <glyph glyph-name="P" unicode="P" horiz-adv-x="651" 
d="M601 470c0 -31.333 -5 -60 -15 -86s-24.833 -48.5 -44.5 -67.5s-43.834 -33.667 -72.501 -44s-61.667 -15.5 -99 -15.5h-182v-257h-103v682h1h284c37.333 0 70.333 -5.16699 99 -15.5s52.834 -25 72.501 -44s34.5 -41.5 44.5 -67.5s15 -54.333 15 -85zM497 470
c0 32.667 -10 59.833 -30 81.5s-52.667 32.5 -98 32.5h-181v-229h181c45.333 0 78 10.833 98 32.5s30 49.167 30 82.5z" />
    <glyph glyph-name="Q" unicode="Q" horiz-adv-x="805" 
d="M752 341c0 -70.667 -16.167 -132.831 -48.5 -186.498s-75.5 -95.167 -129.5 -124.5l141 -152l-78 -65l-157 182c-26.667 -5.33301 -52.667 -8 -78 -8c-49.333 0 -95.166 8.83301 -137.499 26.5s-79.166 42.167 -110.499 73.5s-56 68.666 -74 111.999
s-27 90.666 -27 141.999s9 98.666 27 141.999s42.667 80.666 74 111.999s68.166 55.666 110.499 72.999s88.166 26 137.499 26s95.333 -8.66699 138 -26s79.667 -41.666 111 -72.999s56 -68.666 74 -111.999s27 -90.666 27 -141.999zM649 341.003
c0 38 -6.33301 72.667 -19 104s-30 58.333 -52 81s-48.167 40.167 -78.5 52.5s-62.833 18.5 -97.5 18.5s-67 -6.16699 -97 -18.5s-56 -29.833 -78 -52.5s-39.333 -49.667 -52 -81s-19 -66 -19 -104s6.33301 -72.833 19 -104.5s30 -58.667 52 -81s48 -39.833 78 -52.5
s62.333 -19 97 -19s67.167 6.33301 97.5 19s56.5 30.167 78.5 52.5s39.333 49.333 52 81s19 66.5 19 104.5z" />
    <glyph glyph-name="R" unicode="R" horiz-adv-x="676" 
d="M188 367l195 -0.000976562c44 0 76.333 9.83301 97 29.5s31 46.167 31 79.5c0 32.667 -10.333 58.834 -31 78.501s-53 29.5 -97 29.5h-195v-217zM188 268.999l-0.00195312 -269h-103v682h299c36.667 0 69.334 -5 98.001 -15s52.834 -24 72.501 -42s34.667 -39.667 45 -65
s15.5 -53.333 15.5 -84c0 -49.333 -12.333 -90.833 -37 -124.5s-60 -57.167 -106 -70.5l160 -281h-123l-145 269h-176z" />
    <glyph glyph-name="S" unicode="S" horiz-adv-x="608" 
d="M556 184c0 -25.333 -4.50293 -49.8369 -13.5029 -73.5039s-23.5 -44.667 -43.5 -63s-45.833 -33 -77.5 -44s-69.834 -16.5 -114.501 -16.5c-23.333 0 -46.666 2 -69.999 6s-46.166 9.5 -68.499 16.5s-43.666 15.5 -63.999 25.5s-38.5 21.333 -54.5 34l60 83
c27.333 -20.667 57.5 -37 90.5 -49s68.5 -18 106.5 -18c24.667 0 46.167 2.66699 64.5 8s33.5 12.333 45.5 21s21 18.834 27 30.501s9 23.834 9 36.501c0 26 -12.333 48.5 -37 67.5s-69 35.5 -133 49.5c-80 18 -137.333 44.833 -172 80.5s-52 77.834 -52 126.501
c0 26 5.16699 50.333 15.5 73s25.833 42.667 46.5 60s46.334 31 77.001 41s66.334 15 107.001 15c46 0 91.667 -6.83301 137 -20.5s84 -32.167 116 -55.5l-60 -84c-28 20 -57.667 35.333 -89 46s-66 16 -104 16c-50 0 -86.333 -8.66699 -109 -26s-34 -38.333 -34 -63
c0 -12 2.5 -23.167 7.5 -33.5s13.833 -20.333 26.5 -30s29.334 -18.667 50.001 -27s46.667 -16.166 78 -23.499c42.667 -10 78.667 -21.833 108 -35.5s53.166 -29.167 71.499 -46.5s31.666 -36.5 39.999 -57.5s12.5 -44.167 12.5 -69.5z" />
    <glyph glyph-name="T" unicode="T" horiz-adv-x="577" 
d="M552 584h-212v-584h-103v584h-212v98h527v-98z" />
    <glyph glyph-name="U" unicode="U" horiz-adv-x="695" 
d="M620 253c0 -43.333 -6.66895 -81.5 -20.002 -114.5s-32.166 -60.667 -56.499 -83s-53.166 -39.333 -86.499 -51s-70 -17.5 -110 -17.5s-76.667 5.83301 -110 17.5s-62 28.667 -86 51s-42.667 50 -56 83s-20 71.167 -20 114.5v429h103v-425
c0 -29.333 4.33301 -54.666 13 -75.999s20.5 -39.166 35.5 -53.499s32.833 -25 53.5 -32s43 -10.5 67 -10.5s46.5 3.5 67.5 10.5s39 17.667 54 32s26.833 32.166 35.5 53.499s13 46.666 13 75.999v425h103v-429z" />
    <glyph glyph-name="V" unicode="V" horiz-adv-x="726" 
d="M706 682l-298 -682h-91l-297 682h115l103 -241l27.5 -65.5l33.5 -82.5l34 -85l29 -73h2l29 73l34 85l33 82.5l27 65.5l103 241h116z" />
    <glyph glyph-name="W" unicode="W" horiz-adv-x="957" vert-adv-y="986" 
d="M942 682l-206.001 -681.999h-90l-118 362c-3.33301 9.33301 -7.33301 22.666 -12 39.999c-4 14 -9 32.5 -15 55.5s-13 51.5 -21 85.5h-2l-21.5 -85.5c-5.66699 -23 -10.5 -41.5 -14.5 -55.5c-4.66699 -17.333 -8.66699 -30.666 -12 -39.999l-118 -362h-91l-206 682h111
l90 -309c3.33301 -12 6.5 -24.167 9.5 -36.5l10.5 -43c4 -16.333 8.5 -35.833 13.5 -58.5l17.5 -83h2l18 70.5c5.33301 21 10.333 39.167 15 54.5c4.66699 17.333 9.33398 33 14.001 47l117 358h91l117 -358c4 -12 8.33301 -26.667 13 -44l14.5 -54l19.5 -74h2
c7.33301 37.333 14.333 69.666 21 96.999l17 69c5.33301 22 10 40.333 14 55l89 309h111z" />
    <glyph glyph-name="X" unicode="X" horiz-adv-x="742" 
d="M717 0h-134l-212 269l-212 -269h-134l282 350l-34 41.5l-40.5 50.5l-44.5 55l-44 55l-105 130h132l200 -253l200 253h132l-105 -130l-44 -55l-44.5 -55l-41 -50.5l-33.5 -41.5z" />
    <glyph glyph-name="Y" unicode="Y" horiz-adv-x="673" 
d="M388 0h-103v289l-265 393h124l192 -300h2l191 300h124l-265 -393v-289z" />
    <glyph glyph-name="Z" unicode="Z" horiz-adv-x="627" 
d="M567 98v-98h-512v91l362 491v2h-346v98h481v-91l-362 -491v-2h377z" />
    <glyph glyph-name="bracketleft" unicode="[" horiz-adv-x="308" 
d="M165 644v-701h103v-81h-193v863h193v-81h-103z" />
    <glyph glyph-name="backslash" unicode="\" horiz-adv-x="405" 
d="M18 718l70 26l299 -780l-70 -26z" />
    <glyph glyph-name="bracketright" unicode="]" horiz-adv-x="308" 
d="M40 -138v81h103v701h-103v81h193v-863h-193z" />
    <glyph glyph-name="asciicircum" unicode="^" 
d="M538 341l-90 -42l-89 163l-37.5 70l-25.5 48h-2l-25.5 -48l-37.5 -70l-89 -163l-90 42l198 341h90z" />
    <glyph glyph-name="underscore" unicode="_" horiz-adv-x="668" 
d="M55 -56h558v-65h-558v65z" />
    <glyph glyph-name="grave" unicode="`" horiz-adv-x="320" 
d="M168 559l-145 128l69 48l125 -141z" />
    <glyph glyph-name="a" unicode="a" horiz-adv-x="558" 
d="M253 76c16 0 32.001 2.50098 48.001 7.50098s30.5 12.5 43.5 22.5s23.5 22.833 31.5 38.5s12 34.167 12 55.5v13c-22 4.66699 -42.167 8.16699 -60.5 10.5s-36.833 3.5 -55.5 3.5c-35.333 0 -64.5 -5.33301 -87.5 -16s-34.5 -30.334 -34.5 -59.001
c0 -13.333 2.83301 -24.833 8.5 -34.5s13.167 -17.5 22.5 -23.5s20.166 -10.5 32.499 -13.5s25.5 -4.5 39.5 -4.5zM269.001 505.001c75.333 0 130.668 -18.332 166.001 -54.999s53 -86.334 53 -149.001v-301h-84l-4 59h-2c-18.667 -22 -41.667 -39.5 -69 -52.5
s-59 -19.5 -95 -19.5c-30 0 -56.333 4.33301 -79 13s-41.834 20.5 -57.501 35.5s-27.5 32.5 -35.5 52.5s-12 41.333 -12 64c0 52.667 18.167 93.167 54.5 121.5s87.833 42.5 154.5 42.5c21.333 0 42.833 -1 64.5 -3s43.167 -4.66699 64.5 -8v14c0 62.667 -39.333 94 -118 94
c-26 0 -52.333 -3.16699 -79 -9.5s-53 -17.833 -79 -34.5l-47 83c30.667 15.333 63.5 28 98.5 38s70.167 15 105.5 15z" />
    <glyph glyph-name="b" unicode="b" horiz-adv-x="638" 
d="M333 83c22.667 0 43.5 4 62.5 12s35.333 19.167 49 33.5s24.334 31.5 32.001 51.5s11.5 42 11.5 66s-3.83301 46.167 -11.5 66.5s-18.334 37.666 -32.001 51.999s-30 25.5 -49 33.5s-39.833 12 -62.5 12c-22 0 -42.5 -4 -61.5 -12s-35.333 -19.167 -49 -33.5
s-24.334 -31.666 -32.001 -51.999s-11.5 -42.5 -11.5 -66.5s3.83301 -46 11.5 -66s18.334 -37.167 32.001 -51.5s30 -25.5 49 -33.5s39.5 -12 61.5 -12zM347 505c34 0 65.833 -6.50098 95.5 -19.501s55.167 -31 76.5 -54s38.166 -50.333 50.499 -82
s18.5 -66.167 18.5 -103.5s-6.16699 -71.833 -18.5 -103.5s-29.166 -59 -50.499 -82s-46.833 -40.833 -76.5 -53.5s-61.5 -19 -95.5 -19c-36 0 -69 6.83301 -99 20.5s-56 32.834 -78 57.501h-2l-4 -66h-84v725h100v-287h2c21.333 21.333 46 37.833 74 49.5
s58.333 17.5 91 17.5z" />
    <glyph glyph-name="c" unicode="c" horiz-adv-x="542" 
d="M304 83c26 0 49.168 4.99902 69.501 14.999s37.166 24 50.499 42l73 -67c-23.333 -27.333 -51.333 -48.333 -84 -63s-69 -22 -109 -22c-36 0 -69.5 6.33301 -100.5 19s-57.833 30.5 -80.5 53.5s-40.5 50.333 -53.5 82s-19.5 66.167 -19.5 103.5s6.5 71.833 19.5 103.5
s30.833 59 53.5 82s49.5 40.833 80.5 53.5s64.5 19 100.5 19c39.333 0 75.166 -7.33301 107.499 -22s60.166 -35 83.499 -61l-72 -68c-13.333 18 -30.166 32 -50.499 42s-43.166 15 -68.499 15c-22 0 -42.5 -4 -61.5 -12s-35.333 -19.167 -49 -33.5
s-24.334 -31.666 -32.001 -51.999s-11.5 -42.5 -11.5 -66.5s3.83301 -46 11.5 -66s18.334 -37.167 32.001 -51.5s30 -25.5 49 -33.5s39.5 -12 61.5 -12z" />
    <glyph glyph-name="d" unicode="d" horiz-adv-x="638" 
d="M304 83c22.667 0 43.5 4 62.5 12s35.333 19.167 49 33.5s24.334 31.5 32.001 51.5s11.5 42 11.5 66s-3.83301 46.167 -11.5 66.5s-18.334 37.666 -32.001 51.999s-30 25.5 -49 33.5s-39.833 12 -62.5 12c-22 0 -42.5 -4 -61.5 -12s-35.333 -19.167 -49 -33.5
s-24.334 -31.666 -32.001 -51.999s-11.5 -42.5 -11.5 -66.5s3.83301 -46 11.5 -66s18.334 -37.167 32.001 -51.5s30 -25.5 49 -33.5s39.5 -12 61.5 -12zM558 725v-724.999h-84l-4 66h-2c-22 -24.667 -48 -43.834 -78 -57.501s-63 -20.5 -99 -20.5
c-34 0 -65.833 6.33301 -95.5 19s-55.167 30.5 -76.5 53.5s-38.166 50.333 -50.499 82s-18.5 66.167 -18.5 103.5s6.16699 71.833 18.5 103.5s29.166 59 50.499 82s46.833 41 76.5 54s61.5 19.5 95.5 19.5c32.667 0 63 -5.83301 91 -17.5s52.667 -28.167 74 -49.5h2v287h100
z" />
    <glyph glyph-name="e" unicode="e" horiz-adv-x="573" 
d="M290 411c-38 0 -68.5 -10.333 -91.5 -31s-37.833 -50 -44.5 -88h262c-5.33301 41.333 -18.833 71.5 -40.5 90.5s-50.167 28.5 -85.5 28.5zM520 240c0 -4.66699 -0.166992 -9.99805 -0.5 -15.998s-0.5 -12.667 -0.5 -20h-366c7.33301 -41.333 24.166 -72.5 50.499 -93.5
s58.5 -31.5 96.5 -31.5c24.667 0 48.334 5.33301 71.001 16s41.667 25.667 57 45l72 -68c-23.333 -26.667 -52.5 -47.667 -87.5 -63s-73.167 -23 -114.5 -23c-36 0 -69.167 6.5 -99.5 19.5s-56.5 31 -78.5 54s-39.167 50.333 -51.5 82s-18.5 66.167 -18.5 103.5
s5.83301 71.833 17.5 103.5s28 59 49 82s46.167 40.833 75.5 53.5s61.666 19 96.999 19c34.667 0 66.5 -5.83301 95.5 -17.5s53.833 -28.334 74.5 -50.001s36.334 -47.834 47.001 -78.501c9.33301 -27.333 14 -57.333 14 -90v-13v-14z" />
    <glyph glyph-name="f" unicode="f" horiz-adv-x="382" 
d="M207 492l149 -0.000976562v-92h-149v-400h-100v400h-72v92h72v54c0 58.667 12.667 105.167 38 139.5s64.333 51.5 117 51.5c16.667 0 34.167 -1.33301 52.5 -4s35.833 -6 52.5 -10l-19 -93c-13.333 4.66699 -26.5 8.33398 -39.5 11.001s-25.167 4 -36.5 4
c-24.667 0 -41.667 -9.5 -51 -28.5s-14 -42.167 -14 -69.5v-55z" />
    <glyph glyph-name="g" unicode="g" horiz-adv-x="584" 
d="M297 -117c48 0 85.001 6.16504 111.001 18.498s39 30.833 39 55.5c0 23.333 -13 38.833 -39 46.5s-63 12.834 -111 15.501l-95 5c-2.66699 0.666992 -5 1 -7 1s-4 0.333008 -6 1c-14 -9.33301 -24 -20.166 -30 -32.499s-9 -24.5 -9 -36.5c0 -25.333 13.167 -44 39.5 -56
s62.166 -18 107.499 -18zM297.001 415.998c-31.333 0 -57.999 -6.66699 -79.999 -20s-33 -33.333 -33 -60c0 -13.333 3 -25.166 9 -35.499s14.167 -18.833 24.5 -25.5s22.333 -11.667 36 -15s28.167 -5 43.5 -5c31.333 0 58.166 6.66699 80.499 20s33.5 33.666 33.5 60.999
c0 13.333 -3 25 -9 35s-14.167 18.333 -24.5 25s-22.333 11.667 -36 15s-28.5 5 -44.5 5zM544.002 -43.002c0 -46 -21 -83.5 -63 -112.5s-103.333 -43.5 -184 -43.5c-79.333 0 -140.333 14.167 -183 42.5s-64 66.166 -64 113.499c0 21.333 6.66699 41.5 20 60.5
s30.333 32.5 51 40.5v2c-10.667 10 -19.167 21.333 -25.5 34s-9.5 26.667 -9.5 42s3.66699 30.166 11 44.499s19.666 27.166 36.999 38.499v2c-33.333 31.333 -50 69.666 -50 114.999c0 24 4.83301 46.333 14.5 67s23.834 38.5 42.501 53.5s41 26.833 67 35.5
s55.667 13 89 13c19.333 0 37.5 -1.66699 54.5 -5s32.833 -7.66602 47.5 -12.999l78 78l62 -63l-67 -63c26 -29.333 39 -63.666 39 -102.999c0 -24 -5 -46.333 -15 -67s-24.167 -38.5 -42.5 -53.5s-40.833 -26.833 -67.5 -35.5s-56.334 -13 -89.001 -13
c-18.667 0 -36.167 1.33301 -52.5 4s-31.5 6.66699 -45.5 12c-9.33301 -5.33301 -15.333 -11.166 -18 -17.499s-4 -12.166 -4 -17.499c0 -9.33301 3.33301 -17.666 10 -24.999s16.667 -11.333 30 -12c4 -0.666992 12.833 -1.33398 26.5 -2.00098s36.834 -2 69.501 -4
c154 -8 231 -57.333 231 -148z" />
    <glyph glyph-name="h" unicode="h" horiz-adv-x="605" 
d="M344 504c25.333 0 49.5029 -4.33301 72.5029 -13s43.333 -21.834 61 -39.501s31.667 -40.167 42 -67.5s15.5 -59.666 15.5 -96.999v-287h-100v258c0 28 -3 51.833 -9 71.5s-14.333 35.5 -25 47.5s-23.334 20.667 -38.001 26s-30.334 8 -47.001 8
c-20.667 0 -39.334 -4.16699 -56.001 -12.5s-31 -19.5 -43 -33.5s-21.167 -30.5 -27.5 -49.5s-9.5 -39.167 -9.5 -60.5v-255h-100v725h100v-285h2c22 21.333 47 37.333 75 48s57 16 87 16z" />
    <glyph glyph-name="i" unicode="i" horiz-adv-x="261" 
d="M80 0h100v492h-100v-492zM189 639c0 -15.333 -5.5 -28.666 -16.5 -39.999s-25.167 -17 -42.5 -17s-31.333 5.66699 -42 17s-16 24.666 -16 39.999c0 16 5.33301 29.667 16 41s24.667 17 42 17s31.5 -5.66699 42.5 -17s16.5 -25 16.5 -41z" />
    <glyph glyph-name="j" unicode="j" horiz-adv-x="298" 
d="M223 639c0 -15.333 -5.33301 -28.666 -16 -39.999s-24.667 -17 -42 -17s-31.5 5.66699 -42.5 17s-16.5 24.666 -16.5 39.999c0 16 5.5 29.667 16.5 41s25.167 17 42.5 17s31.333 -5.66699 42 -17s16 -25 16 -41zM115 -9c0 -30 -4.83301 -53.833 -14.5 -71.5
s-26.5 -26.5 -50.5 -26.5c-11.333 0 -24.333 1.16699 -39 3.5s-27.667 4.83301 -39 7.5l-17 -90c16.667 -4 34 -7.33301 52 -10s35.667 -4 53 -4c52 0 90.833 16.5 116.5 49.5s38.5 78.833 38.5 137.5v505h-100v-501z" />
    <glyph glyph-name="k" unicode="k" horiz-adv-x="561" 
d="M180 0h-100v725h100v-463h2l225 230h124l-217 -216l232 -276h-129l-170 215l-67 -60v-155z" />
    <glyph glyph-name="l" unicode="l" horiz-adv-x="260" 
d="M80 725h100v-725h-100v725z" />
    <glyph glyph-name="m" unicode="m" horiz-adv-x="877" 
d="M633 504c24 0 46.499 -4.33008 67.499 -12.9971s39.333 -21.834 55 -39.501s28.167 -40.167 37.5 -67.5s14 -59.666 14 -96.999v-287h-100v258c0 55.333 -9.16699 94.666 -27.5 117.999s-42.5 35 -72.5 35c-37.333 0 -65.666 -14 -84.999 -42s-29 -64.333 -29 -109v-260
h-100v258c0 55.333 -9.16699 94.666 -27.5 117.999s-42.166 35 -71.499 35c-37.333 0 -65.666 -14 -84.999 -42s-29 -64.333 -29 -109v-260h-100v492h84l4 -55h2c19.333 22.667 42.166 39.5 68.499 50.5s53.5 16.5 81.5 16.5c30.667 0 58.667 -7 84 -21
s45.666 -36 60.999 -66h2c20 29.333 44.667 51.166 74 65.499s60 21.5 92 21.5z" />
    <glyph glyph-name="n" unicode="n" horiz-adv-x="605" 
d="M344 504c25.333 0 49.502 -4.33301 72.502 -13s43.333 -21.834 61 -39.501s31.667 -40.167 42 -67.5s15.5 -59.666 15.5 -96.999v-287h-100v258c0 28 -3 51.833 -9 71.5s-14.333 35.5 -25 47.5s-23.334 20.667 -38.001 26s-30.334 8 -47.001 8
c-20.667 0 -39.334 -4.16699 -56.001 -12.5s-31 -19.5 -43 -33.5s-21.167 -30.5 -27.5 -49.5s-9.5 -39.167 -9.5 -60.5v-255h-100v492h84l4 -64h2c22.667 25.333 49.334 44.333 80.001 57s62 19 94 19z" />
    <glyph glyph-name="o" unicode="o" horiz-adv-x="609" 
d="M304 83c22.667 0 43.5 4 62.5 12s35.333 19.167 49 33.5s24.334 31.5 32.001 51.5s11.5 42 11.5 66s-3.83301 46 -11.5 66s-18.334 37.167 -32.001 51.5s-30 25.5 -49 33.5s-39.833 12 -62.5 12c-22 0 -42.5 -4 -61.5 -12s-35.333 -19.167 -49 -33.5
s-24.334 -31.5 -32.001 -51.5s-11.5 -42 -11.5 -66s3.83301 -46 11.5 -66s18.334 -37.167 32.001 -51.5s30 -25.5 49 -33.5s39.5 -12 61.5 -12zM304 504c36 0 69.667 -6.33301 101 -19s58.333 -30.5 81 -53.5s40.5 -50.333 53.5 -82s19.5 -66.167 19.5 -103.5
s-6.5 -71.833 -19.5 -103.5s-30.833 -59 -53.5 -82s-49.667 -40.833 -81 -53.5s-65 -19 -101 -19s-69.5 6.33301 -100.5 19s-57.833 30.5 -80.5 53.5s-40.5 50.333 -53.5 82s-19.5 66.167 -19.5 103.5s6.5 71.833 19.5 103.5s30.833 59 53.5 82s49.5 40.833 80.5 53.5
s64.5 19 100.5 19z" />
    <glyph glyph-name="p" unicode="p" horiz-adv-x="638" 
d="M333 83c22.667 0 43.5 4 62.5 12s35.333 19.167 49 33.5s24.334 31.5 32.001 51.5s11.5 42 11.5 66s-3.83301 46 -11.5 66s-18.334 37.167 -32.001 51.5s-30 25.5 -49 33.5s-39.833 12 -62.5 12c-22 0 -42.5 -4 -61.5 -12s-35.333 -19.167 -49 -33.5
s-24.334 -31.5 -32.001 -51.5s-11.5 -42 -11.5 -66s3.83301 -46 11.5 -66s18.334 -37.167 32.001 -51.5s30 -25.5 49 -33.5s39.5 -12 61.5 -12zM347 505c34 0 65.833 -6.49902 95.5 -19.499s55.167 -31 76.5 -54s38.166 -50.333 50.499 -82s18.5 -66.167 18.5 -103.5
s-6.16699 -71.833 -18.5 -103.5s-29.166 -59 -50.499 -82s-46.833 -40.833 -76.5 -53.5s-61.5 -19 -95.5 -19c-32.667 0 -63 5.66699 -91 17s-52.667 27.666 -74 48.999h-2v-254h-100v692h84l4 -66h2c22 24.667 48 44 78 58s63 21 99 21z" />
    <glyph glyph-name="q" unicode="q" horiz-adv-x="638" 
d="M150 246c0 -24 3.83301 -46 11.5 -66s18.334 -37.167 32.001 -51.5s30 -25.5 49 -33.5s39.833 -12 62.5 -12c22 0 42.5 4 61.5 12s35.333 19.167 49 33.5s24.334 31.5 32.001 51.5s11.5 42 11.5 66s-3.83301 46 -11.5 66s-18.334 37.167 -32.001 51.5s-30 25.5 -49 33.5
s-39.5 12 -61.5 12c-22.667 0 -43.5 -4 -62.5 -12s-35.333 -19.167 -49 -33.5s-24.334 -31.5 -32.001 -51.5s-11.5 -42 -11.5 -66zM50 246c0 37.333 6.16699 71.832 18.5 103.499s29.166 59 50.499 82s46.833 41 76.5 54s61.5 19.5 95.5 19.5c36 0 69 -7 99 -21
s56 -33.333 78 -58h2l4 66h84v-692h-100v254h-2c-21.333 -21.333 -46 -37.666 -74 -48.999s-58.333 -17 -91 -17c-34 0 -65.833 6.33301 -95.5 19s-55.167 30.5 -76.5 53.5s-38.166 50.333 -50.499 82s-18.5 66.167 -18.5 103.5z" />
    <glyph glyph-name="r" unicode="r" horiz-adv-x="392" 
d="M304 504c12 0 24 -1 36 -3s22.667 -4.33301 32 -7l-20 -104c-11.333 3.33301 -24 6.83301 -38 10.5s-27.333 5.5 -40 5.5c-32 0 -55.667 -14.167 -71 -42.5s-23 -66.5 -23 -114.5v-249h-100v492h84l5 -68h2c30 53.333 74.333 80 133 80z" />
    <glyph glyph-name="s" unicode="s" horiz-adv-x="489" 
d="M243 78c34 0 58.4932 6.00195 73.4932 18.002s22.5 25 22.5 39c0 17.333 -8.16699 31.666 -24.5 42.999s-46.166 22 -89.499 32c-110.667 26 -166 77.667 -166 155c0 19.333 4.16699 37.5 12.5 54.5s20.333 31.667 36 44s34.834 22.166 57.501 29.499s48.667 11 78 11
c38 0 73.833 -5 107.5 -15s62.167 -23 85.5 -39l-56 -80c-18 13.333 -38.667 24 -62 32s-47.666 12 -72.999 12c-28.667 0 -50.167 -5 -64.5 -15s-21.5 -21.667 -21.5 -35c0 -17.333 8.83301 -30.833 26.5 -40.5s43.5 -18.5 77.5 -26.5c32.667 -8 60.334 -17.5 83.001 -28.5
s40.834 -23.5 54.501 -37.5s23.5 -29.167 29.5 -45.5s9 -33.5 9 -51.5c0 -20 -4.16699 -38.833 -12.5 -56.5s-20.833 -33.167 -37.5 -46.5s-37.167 -24 -61.5 -32s-52.5 -12 -84.5 -12c-17.333 0 -35.666 1.66699 -54.999 5s-38 7.66602 -56 12.999s-34.667 11.833 -50 19.5
s-27.666 16.167 -36.999 25.5l56 79c18 -15.333 39.833 -27.666 65.5 -36.999s51.167 -14 76.5 -14z" />
    <glyph glyph-name="t" unicode="t" horiz-adv-x="399" 
d="M245 -13c-40 0 -71.833 10.833 -95.5 32.5s-35.5 56.167 -35.5 103.5v277h-82v92h82v166h100v-166h139v-92h-139v-263c0 -20 3.5 -34.333 10.5 -43s17.833 -13 32.5 -13c12 0 26.333 1.16699 43 3.5s32.667 5.5 48 9.5l16 -91c-18.667 -4.66699 -38.667 -8.5 -60 -11.5
s-41 -4.5 -59 -4.5z" />
    <glyph glyph-name="u" unicode="u" horiz-adv-x="605" 
d="M525 492l0.000976562 -492h-84l-4 64h-2c-22.667 -25.333 -49.334 -44.333 -80.001 -57s-62 -19 -94 -19c-25.333 0 -49.5 4.33301 -72.5 13s-43.333 21.834 -61 39.501s-31.667 40.167 -42 67.5s-15.5 59.666 -15.5 96.999v287h100v-258c0 -28 3 -51.833 9 -71.5
s14.333 -35.5 25 -47.5s23.167 -20.667 37.5 -26s30.166 -8 47.499 -8c20.667 0 39.334 4.16699 56.001 12.5s31 19.5 43 33.5s21.167 30.5 27.5 49.5s9.5 39.167 9.5 60.5v255h100z" />
    <glyph glyph-name="v" unicode="v" horiz-adv-x="554" 
d="M534 492l-212.999 -492h-89l-212 492h112l71 -168l17 -45l20 -56l19.5 -57.5l16.5 -50.5h2l16.5 50.5l19.5 57.5l19.5 56c6.33301 18 12.166 33 17.499 45l71 168h112z" />
    <glyph glyph-name="w" unicode="w" horiz-adv-x="759" 
d="M734 492l-147.001 -492.002h-89l-83 240c-5.33301 16 -11 34.167 -17 54.5l-17 59.5h-2c-5.33301 -19.333 -11.166 -39.166 -17.499 -59.499l-17.5 -54.5l-83 -240h-89l-147 492h109l48 -179l21.5 -81.5c7 -27.667 13.167 -53.167 18.5 -76.5h2l22 74
c8 26.667 16.333 52.667 25 78l64 185h89l64 -185c9.33301 -25.333 17.833 -51.333 25.5 -78l21.5 -74h2l19 76.5c6.66699 27.667 13.667 54.834 21 81.501l49 179h108z" />
    <glyph glyph-name="x" unicode="x" horiz-adv-x="592" 
d="M557 0h-130l-130 175h-2l-130 -175h-130l204 249l-198 243h125l129 -168h2l129 168h125l-198 -243z" />
    <glyph glyph-name="y" unicode="y" horiz-adv-x="559" 
d="M188 -200c-14 0 -27.498 1.33203 -40.498 3.99902s-25.5 5.66699 -37.5 9l17 90c11.333 -3.33301 21.666 -5.66602 30.999 -6.99902s19.666 -2 30.999 -2c15.333 0 28 6.33301 38 19s18.667 29.667 26 51l13 39l-246 489h119l167 -362h2l121 362h110l-196 -552
c-10 -28.667 -20.667 -52 -32 -70s-23.333 -32.167 -36 -42.5s-26.167 -17.5 -40.5 -21.5s-29.833 -6 -46.5 -6z" />
    <glyph glyph-name="z" unicode="z" horiz-adv-x="501" 
d="M436 92v-92h-381v89l239 309v2h-228v92h359v-89l-240 -309v-2h251z" />
    <glyph glyph-name="braceleft" unicode="{" horiz-adv-x="348" 
d="M223 152v-114.999c0 -18.667 1 -34.334 3 -47.001s6.16699 -23 12.5 -31s15 -13.833 26 -17.5s25.5 -5.5 43.5 -5.5v-74c-37.333 0 -67.333 3.83301 -90 11.5s-40.334 19 -53.001 34s-21.167 33.667 -25.5 56s-6.5 47.833 -6.5 76.5v123c0 30 -6.33301 53 -19 69
s-31 24 -55 24h-19v74h19c24 0 42.333 8.16699 55 24.5s19 39.5 19 69.5v123c0 28.667 2.16699 54.167 6.5 76.5s12.833 41 25.5 56s30.334 26.333 53.001 34s52.667 11.5 90 11.5v-74c-18 0 -32.5 -1.83301 -43.5 -5.5s-19.667 -9.5 -26 -17.5s-10.5 -18.333 -12.5 -31
s-3 -28.334 -3 -47.001v-115c0 -21.333 -1.16699 -39.5 -3.5 -54.5s-6 -28 -11 -39s-11.5 -20.167 -19.5 -27.5s-17.667 -14 -29 -20v-2c12 -5.33301 22 -11.666 30 -18.999s14.5 -16.5 19.5 -27.5s8.5 -24 10.5 -39s3 -33.167 3 -54.5z" />
    <glyph glyph-name="bar" unicode="|" horiz-adv-x="290" 
d="M190 -200h-90v925h90v-925z" />
    <glyph glyph-name="braceright" unicode="}" horiz-adv-x="343" 
d="M308 330v-74.001h-19c-24 0 -42.333 -8 -55 -24s-19 -39 -19 -69v-123c0 -28.667 -2.16699 -54.167 -6.5 -76.5s-12.833 -41 -25.5 -56s-30.5 -26.333 -53.5 -34s-52.833 -11.5 -89.5 -11.5v74c18 0 32.5 1.83301 43.5 5.5s19.667 9.5 26 17.5s10.5 18.333 12.5 31
s3 28.334 3 47.001v115c0 21.333 1 39.5 3 54.5s5.5 28 10.5 39s11.5 20.167 19.5 27.5s18 13.666 30 18.999v2c-11.333 6 -21 12.667 -29 20s-14.5 16.5 -19.5 27.5s-8.66699 24 -11 39s-3.5 33.167 -3.5 54.5v115c0 18.667 -1 34.334 -3 47.001s-6.16699 23 -12.5 31
s-15 13.833 -26 17.5s-25.5 5.5 -43.5 5.5v74c36.667 0 66.5 -3.83301 89.5 -11.5s40.833 -19 53.5 -34s21.167 -33.667 25.5 -56s6.5 -47.833 6.5 -76.5v-123c0 -30 6.33301 -53.167 19 -69.5s31 -24.5 55 -24.5h19z" />
    <glyph glyph-name="asciitilde" unicode="~" horiz-adv-x="547" 
d="M367 258c14.667 0 28.167 6.00195 40.5 18.002s22.5 24.667 30.5 38l54 -42c-13.333 -24.667 -31.333 -46.334 -54 -65.001s-48 -28 -76 -28c-16 0 -32 2.83301 -48 8.5s-31.833 12 -47.5 19s-30.834 13.333 -45.501 19s-28.334 8.5 -41.001 8.5
c-14.667 0 -28 -5.83301 -40 -17.5s-22.333 -24.167 -31 -37.5l-54 41c13.333 25.333 31.5 47.166 54.5 65.499s48.5 27.833 76.5 28.5c15.333 0 31 -3 47 -9s31.833 -12.5 47.5 -19.5s30.834 -13.333 45.501 -19s28.334 -8.5 41.001 -8.5z" />
    <glyph glyph-name="uni00A0" unicode="&#xa0;" horiz-adv-x="207" 
 />
    <glyph glyph-name="exclamdown" unicode="&#xa1;" horiz-adv-x="255" 
d="M190 443c0 -17.333 -5.83301 -32 -17.5 -44s-26.834 -18 -45.501 -18c-18 0 -32.833 6 -44.5 18s-17.5 26.667 -17.5 44s5.83301 31.833 17.5 43.5s26.5 17.5 44.5 17.5c18.667 0 33.834 -5.83301 45.501 -17.5s17.5 -26.167 17.5 -43.5zM181 -190l-16 488h-75l-17 -488
h108z" />
    <glyph glyph-name="cent" unicode="&#xa2;" 
d="M168 341c0 -41.333 10.667 -76.333 32 -105s49.333 -47.667 84 -57v324c-34.667 -9.33301 -62.667 -28.333 -84 -57s-32 -63.667 -32 -105zM349 0l-65 -0.00390625v86c-30.667 4.66699 -59 14.334 -85 29.001s-48.333 33 -67 55s-33.334 47.5 -44.001 76.5
s-16 60.5 -16 94.5s5.33301 65.5 16 94.5s25.334 54.5 44.001 76.5s41 40.333 67 55s54.333 24.334 85 29.001v86h65v-83c34 -3.33301 65.333 -12 94 -26s53.667 -32.667 75 -56l-70 -66c-12.667 14.667 -27.334 26.834 -44.001 36.501s-35 16.167 -55 19.5v-332
c20 3.33301 38.333 9.83301 55 19.5s31.334 21.834 44.001 36.501l70 -66c-21.333 -23.333 -46.333 -42 -75 -56s-60 -22.667 -94 -26v-83z" />
    <glyph glyph-name="sterling" unicode="&#xa3;" 
d="M537 85l-0.000976562 -85.002h-484v71l82 9v232h-81v65h81v60c0 34.667 4.33301 66.334 13 95.001s21.667 53.167 39 73.5s39 36 65 47s56.667 16.5 92 16.5c20 0 39.167 -2.5 57.5 -7.5s35.333 -11.833 51 -20.5s29.667 -18.5 42 -29.5s22.5 -22.5 30.5 -34.5l-65 -63
c-11.333 16 -26.166 30.667 -44.499 44s-41.5 20 -69.5 20c-41.333 0 -70.833 -12.667 -88.5 -38s-26.5 -59.666 -26.5 -102.999v-60h192v-65h-192v-227h306z" />
    <glyph glyph-name="currency" unicode="&#xa4;" 
d="M295 167c24 0 46.5 4.5 67.5 13.5s39.5 21.5 55.5 37.5s28.5 34.5 37.5 55.5s13.5 43.5 13.5 67.5s-4.5 46.5 -13.5 67.5s-21.5 39.5 -37.5 55.5s-34.5 28.5 -55.5 37.5s-43.5 13.5 -67.5 13.5s-46.5 -4.5 -67.5 -13.5s-39.5 -21.5 -55.5 -37.5s-28.5 -34.5 -37.5 -55.5
s-13.5 -43.5 -13.5 -67.5s4.5 -46.5 13.5 -67.5s21.5 -39.5 37.5 -55.5s34.5 -28.5 55.5 -37.5s43.5 -13.5 67.5 -13.5zM551 341c0 -30 -4.66699 -58.167 -14 -84.5s-22.666 -50.166 -39.999 -71.499l63 -64l-45 -45l-64 63
c-21.333 -17.333 -45.166 -30.666 -71.499 -39.999s-54.5 -14 -84.5 -14s-58.167 4.66699 -84.5 14s-50.166 22.666 -71.499 39.999l-64 -63l-45 45l63 64c-17.333 21.333 -30.666 45.166 -39.999 71.499s-14 54.5 -14 84.5s4.66699 58.167 14 84.5
s22.666 50.166 39.999 71.499l-63 64l45 45l64 -63c21.333 17.333 45.166 30.666 71.499 39.999s54.5 14 84.5 14s58.167 -4.66699 84.5 -14s50.166 -22.666 71.499 -39.999l64 63l45 -45l-63 -64c17.333 -21.333 30.666 -45.166 39.999 -71.499s14 -54.5 14 -84.5z" />
    <glyph glyph-name="_380" unicode="&#xa5;" 
d="M382 377h161v-65h-200v-72h200v-64h-200v-176h-96v176h-200v64h200v72h-200v65h161v2l-187 279h113l160 -252h2l160 252h113l-187 -279v-2z" />
    <glyph glyph-name="brokenbar" unicode="&#xa6;" horiz-adv-x="290" 
d="M190 -138h-90v320h90v-320zM190 404h-90v321h90v-321z" />
    <glyph glyph-name="section" unicode="&#xa7;" horiz-adv-x="586" 
d="M431 273c0 24.667 -11.4971 45.501 -34.4971 62.501s-63.833 32.167 -122.5 45.5c-15.333 3.33301 -30.666 7.33301 -45.999 12c-25.333 -6.66699 -44 -17.334 -56 -32.001s-18 -30.667 -18 -48c0 -12 2.66699 -23.167 8 -33.5s14.166 -19.833 26.499 -28.5
s28.666 -16.834 48.999 -24.501s45.166 -14.834 74.499 -21.501c8.66699 -1.33301 16.667 -3.16602 24 -5.49902s14.666 -4.5 21.999 -6.5c25.333 6.66699 43.833 17.334 55.5 32.001s17.5 30.667 17.5 48zM507.003 26.001c0 -22.667 -4.5 -43.999 -13.5 -63.999
s-22.5 -37.5 -40.5 -52.5s-40.333 -26.833 -67 -35.5s-57.667 -13 -93 -13c-39.333 0 -78.333 6 -117 18s-73 28.333 -103 49l52 72c24.667 -17.333 50.667 -30.833 78 -40.5s57.333 -14.5 90 -14.5c43.333 0 74.833 7.83301 94.5 23.5s29.5 34.167 29.5 55.5
c0 10 -2.16699 19.833 -6.5 29.5s-11.666 18.667 -21.999 27s-24.5 16.333 -42.5 24s-40.667 14.834 -68 21.501c-75.333 18 -129.666 41.5 -162.999 70.5s-50 66.833 -50 113.5c0 26 5.83301 50 17.5 72s30.167 40.333 55.5 55v2c-20.667 16.667 -35.667 35.167 -45 55.5
s-14 42.166 -14 65.499c0 22.667 4.5 44 13.5 64s22.5 37.5 40.5 52.5s40.333 26.833 67 35.5s57.667 13 93 13c39.333 0 78.333 -6 117 -18s72.667 -28.333 102 -49l-51 -72c-24.667 17.333 -50.667 30.833 -78 40.5s-57.333 14.5 -90 14.5
c-43.333 0 -74.833 -7.83301 -94.5 -23.5s-29.5 -34.167 -29.5 -55.5c0 -10 2.16699 -19.833 6.5 -29.5s11.666 -18.667 21.999 -27s24.5 -16.333 42.5 -24s40.667 -14.834 68 -21.501c75.333 -18 129.666 -41.5 162.999 -70.5s50 -66.833 50 -113.5
c0 -26 -5.83301 -50 -17.5 -72s-30.167 -40.333 -55.5 -55v-2c20.667 -16 35.667 -34.167 45 -54.5s14 -42.5 14 -66.5z" />
    <glyph glyph-name="dieresis" unicode="&#xa8;" horiz-adv-x="320" 
d="M6 639c0 17.333 5.83301 32 17.5 44s26.5 18 44.5 18c18.667 0 33.834 -6 45.501 -18s17.5 -26.667 17.5 -44s-5.83301 -32 -17.5 -44s-26.834 -18 -45.501 -18c-18 0 -32.833 6 -44.5 18s-17.5 26.667 -17.5 44zM197 639c0 17.333 5.83301 32 17.5 44s26.5 18 44.5 18
c18.667 0 33.834 -6 45.501 -18s17.5 -26.667 17.5 -44s-5.83301 -32 -17.5 -44s-26.834 -18 -45.501 -18c-18 0 -32.833 6 -44.5 18s-17.5 26.667 -17.5 44z" />
    <glyph glyph-name="copyright" unicode="&#xa9;" horiz-adv-x="815" 
d="M408 -19c42.667 0 83 8.16699 121 24.5s71.167 38.666 99.5 66.999s50.666 61.333 66.999 99s24.5 78.167 24.5 121.5s-8.16699 84 -24.5 122s-38.666 71.167 -66.999 99.5s-61.5 50.666 -99.5 66.999s-78.333 24.5 -121 24.5c-43.333 0 -84 -8.16699 -122 -24.5
s-71.167 -38.666 -99.5 -66.999s-50.666 -61.5 -66.999 -99.5s-24.5 -78.667 -24.5 -122s8.16699 -83.833 24.5 -121.5s38.666 -70.667 66.999 -99s61.5 -50.666 99.5 -66.999s78.667 -24.5 122 -24.5zM408 656c50 0 97 -9.5 141 -28.5s82.333 -44.833 115 -77.5
s58.5 -71.167 77.5 -115.5s28.5 -91.5 28.5 -141.5s-9.5 -97 -28.5 -141s-44.833 -82.333 -77.5 -115s-71 -58.5 -115 -77.5s-91 -28.5 -141 -28.5s-97.167 9.5 -141.5 28.5s-82.833 44.833 -115.5 77.5s-58.5 71 -77.5 115s-28.5 91 -28.5 141s9.5 97.167 28.5 141.5
s44.833 82.833 77.5 115.5s71.167 58.5 115.5 77.5s91.5 28.5 141.5 28.5zM412 149c45.333 0 81.332 17.0049 107.999 51.0049l51 -43c-19.333 -22.667 -42.5 -40 -69.5 -52s-56.833 -18 -89.5 -18c-29.333 0 -56.333 5.16699 -81 15.5s-46.167 24.833 -64.5 43.5
s-32.666 40.5 -42.999 65.5s-15.5 52.167 -15.5 81.5s5.16699 56.666 15.5 81.999s24.666 47.166 42.999 65.499s39.833 32.833 64.5 43.5s51.667 16 81 16c32 0 61.333 -5.83301 88 -17.5s49.334 -28.167 68.001 -49.5l-50 -45c-26.667 32.667 -62 49 -106 49
c-20 0 -38.5 -3.5 -55.5 -10.5s-31.5 -17 -43.5 -30s-21.5 -28.333 -28.5 -46s-10.5 -36.834 -10.5 -57.501s3.5 -39.834 10.5 -57.501s16.5 -32.834 28.5 -45.501s26.5 -22.667 43.5 -30s35.5 -11 55.5 -11z" />
    <glyph glyph-name="ordfeminine" unicode="&#xaa;" horiz-adv-x="409" 
d="M204 489c-25.333 0 -46.167 -3.66309 -62.5 -10.9961s-24.5 -21.333 -24.5 -42c0 -18.667 7.33301 -32.334 22 -41.001s31.667 -13 51 -13c11.333 0 22.833 1.66699 34.5 5s22.167 8.66602 31.5 15.999s16.833 16.666 22.5 27.999s8.5 24.666 8.5 39.999v8
c-16 3.33301 -30.5 5.83301 -43.5 7.5s-26.167 2.5 -39.5 2.5zM201.999 689.004c54 0 93.6699 -13.001 119.003 -39.001s38 -61.667 38 -107v-215h-61l-2 41h-2c-13.333 -15.333 -30 -27.5 -50 -36.5s-42.667 -13.5 -68 -13.5c-42 0 -74.333 11.333 -97 34
s-34 50.334 -34 83.001c0 38 13 67.167 39 87.5s63 30.5 111 30.5c15.333 0 30.666 -0.666992 45.999 -2s30.666 -3.33301 45.999 -6v10c0 44.667 -28.333 67 -85 67c-18 0 -36.667 -2.33301 -56 -7s-38.333 -12.667 -57 -24l-34 59c22 11.333 45.667 20.5 71 27.5
s50.666 10.5 75.999 10.5z" />
    <glyph glyph-name="guillemotleft" unicode="&#xab;" horiz-adv-x="482" 
d="M127 246l133 -204l-68 -37l-157 241l157 241l68 -37zM304 246l133 -204l-68 -37l-157 241l157 241l68 -37z" />
    <glyph glyph-name="logicalnot" unicode="&#xac;" horiz-adv-x="620" 
d="M575 420v-297h-96v205h-434v92h530z" />
    <glyph glyph-name="uni00AD" unicode="&#xad;" horiz-adv-x="355" 
d="M45 314h265v-85h-265v85z" />
    <glyph glyph-name="registered" unicode="&#xae;" horiz-adv-x="815" 
d="M408 -19c42.667 0 83 8.16699 121 24.5s71.167 38.666 99.5 66.999s50.666 61.333 66.999 99s24.5 78.167 24.5 121.5s-8.16699 84 -24.5 122s-38.666 71.167 -66.999 99.5s-61.5 50.666 -99.5 66.999s-78.333 24.5 -121 24.5c-43.333 0 -84 -8.16699 -122 -24.5
s-71.167 -38.666 -99.5 -66.999s-50.666 -61.5 -66.999 -99.5s-24.5 -78.667 -24.5 -122s8.16699 -83.833 24.5 -121.5s38.666 -70.667 66.999 -99s61.5 -50.666 99.5 -66.999s78.667 -24.5 122 -24.5zM408 656c50 0 97 -9.5 141 -28.5s82.333 -44.833 115 -77.5
s58.5 -71.167 77.5 -115.5s28.5 -91.5 28.5 -141.5s-9.5 -97 -28.5 -141s-44.833 -82.333 -77.5 -115s-71 -58.5 -115 -77.5s-91 -28.5 -141 -28.5s-97.167 9.5 -141.5 28.5s-82.833 44.833 -115.5 77.5s-58.5 71 -77.5 115s-28.5 91 -28.5 141s9.5 97.167 28.5 141.5
s44.833 82.833 77.5 115.5s71.167 58.5 115.5 77.5s91.5 28.5 141.5 28.5zM437 314c46.667 0 70 19.333 70 58c0 39.333 -23.333 59 -70 59h-109v-117h109zM574 372c0 -28 -7.16797 -51.832 -21.501 -71.499s-34.166 -33.834 -59.499 -42.501l95 -166h-79l-85 158h-96v-154
h-66v399h175c42.667 0 76.167 -11 100.5 -33s36.5 -52 36.5 -90z" />
    <glyph glyph-name="macron" unicode="&#xaf;" horiz-adv-x="320" 
d="M19 662h282v-65h-282v65z" />
    <glyph glyph-name="degree" unicode="&#xb0;" horiz-adv-x="397" 
d="M199 442c28.667 0 51.5 9 68.5 27s25.5 41 25.5 69s-8.5 51 -25.5 69s-39.833 27 -68.5 27c-29.333 0 -52.333 -9 -69 -27s-25 -41 -25 -69s8.33301 -51 25 -69s39.667 -27 69 -27zM199 694c22.667 0 43.667 -4 63 -12s36 -19.167 50 -33.5s25 -31 33 -50
s12 -39.5 12 -61.5s-4 -42.667 -12 -62s-19 -36.166 -33 -50.499s-30.667 -25.666 -50 -33.999s-40.333 -12.5 -63 -12.5c-23.333 0 -44.666 4.16699 -63.999 12.5s-36 19.666 -50 33.999s-25 31.166 -33 50.499s-12 40 -12 62s4 42.5 12 61.5s19 35.667 33 50
s30.667 25.5 50 33.5s40.666 12 63.999 12z" />
    <glyph glyph-name="plusminus" unicode="&#xb1;" 
d="M527 0h-464v85h464v-85zM527 346h-188v-190h-88v190h-188v85h188v190h88v-190h188v-85z" />
    <glyph glyph-name="twosuperior" unicode="&#xb2;" horiz-adv-x="356" 
d="M220 498l88.9971 0.00292969v-71h-270v64l136 136c20.667 21.333 35.834 38.166 45.501 50.499s14.5 25.833 14.5 40.5c0 15.333 -4.83301 27.5 -14.5 36.5s-23.5 13.5 -41.5 13.5c-36 0 -57.333 -20.333 -64 -61l-79 20c7.33301 37.333 23.333 65.666 48 84.999
s56.334 29 95.001 29c41.333 0 73.833 -11.667 97.5 -35s35.5 -53 35.5 -89c0 -23.333 -6.66699 -45.833 -20 -67.5s-30.666 -42.834 -51.999 -63.501l-87 -88v-2c10 0.666992 20.667 1.16699 32 1.5s23 0.5 35 0.5z" />
    <glyph glyph-name="threesuperior" unicode="&#xb3;" horiz-adv-x="372" 
d="M328 544c0 -36.667 -12.335 -66.6689 -37.002 -90.002s-61.667 -35 -111 -35c-26 0 -51.5 4.33301 -76.5 13s-44.833 20.667 -59.5 36l56 52c9.33301 -9.33301 20.333 -16.5 33 -21.5s28.334 -7.5 47.001 -7.5c23.333 0 41 4.83301 53 14.5s18 23.167 18 40.5
c0 13.333 -5.16699 25.5 -15.5 36.5s-30.166 16.5 -59.499 16.5h-50v72h51c23.333 0 40.333 4.83301 51 14.5s16 21.834 16 36.501s-5.83301 26.334 -17.5 35.001s-28.5 13 -50.5 13c-16 0 -30 -2.5 -42 -7.5s-23 -11.5 -33 -19.5l-55 54
c38.667 29.333 83.334 44 134.001 44c46 0 81 -11.167 105 -33.5s36 -49.833 36 -82.5c0 -38 -15.667 -66.667 -47 -86v-2c19.333 -11.333 33.166 -25.333 41.499 -42s12.5 -33.667 12.5 -51z" />
    <glyph glyph-name="acute" unicode="&#xb4;" horiz-adv-x="320" 
d="M103 594l125 141l69 -48l-145 -128z" />
    <glyph glyph-name="mu" unicode="&#xb5;" horiz-adv-x="605" 
d="M535 492v-492h-84l-4 61h-2c-21.333 -24.667 -46 -43.167 -74 -55.5s-57 -18.5 -87 -18.5c-38.667 0 -72.667 10.667 -102 32h-2v-219h-100v692h100v-258c0 -28 3 -51.833 9 -71.5s14.333 -35.5 25 -47.5s23.167 -20.667 37.5 -26s30.166 -8 47.499 -8
c20.667 0 39.334 4.16699 56.001 12.5s31 19.5 43 33.5s21.167 30.5 27.5 49.5s9.5 39.167 9.5 60.5v255h100z" />
    <glyph glyph-name="paragraph" unicode="&#xb6;" horiz-adv-x="594" 
d="M514 682v-820h-90v739h-81v-739h-90v424c-28.667 0 -55.834 4.33301 -81.501 13s-48.334 21.5 -68.001 38.5s-35.167 37.833 -46.5 62.5s-17 52.667 -17 84c0 32 5.66699 60.167 17 84.5s26.833 45 46.5 62s42.334 29.833 68.001 38.5s52.834 13 81.501 13h261z" />
    <glyph glyph-name="periodcentered" unicode="&#xb7;" horiz-adv-x="235" 
d="M55 246c0 17.333 5.83301 32 17.5 44s26.5 18 44.5 18c18.667 0 33.834 -6 45.501 -18s17.5 -26.667 17.5 -44s-5.83301 -32 -17.5 -44s-26.834 -18 -45.501 -18c-18 0 -32.833 6 -44.5 18s-17.5 26.667 -17.5 44z" />
    <glyph glyph-name="cedilla" unicode="&#xb8;" horiz-adv-x="320" 
d="M284 -119c0 -23.333 -9.16797 -42.666 -27.501 -57.999s-46.5 -23 -84.5 -23c-19.333 0 -39 2.5 -59 7.5s-37.667 11.833 -53 20.5l21 40c10.667 -6.66699 23 -12.167 37 -16.5s28.667 -6.5 44 -6.5c14.667 0 26.167 3.16699 34.5 9.5s12.5 15.5 12.5 27.5
c0 9.33301 -3.83301 17.333 -11.5 24s-19.834 10 -36.501 10c-6.66699 0 -12.667 -0.333008 -18 -1s-9.66602 -1.66699 -12.999 -3l-33 20l38 68h59l-24 -42v-3c0.666992 0 1.33398 0.333008 2.00098 1c38 0 66.167 -7.33301 84.5 -22s27.5 -32.334 27.5 -53.001z" />
    <glyph glyph-name="onesuperior" unicode="&#xb9;" horiz-adv-x="295" 
d="M217 837v-410h-77v327l-83 -32l-23 65l124 50h59z" />
    <glyph glyph-name="ordmasculine" unicode="&#xba;" horiz-adv-x="444" 
d="M222 387c32 0 58.5 10.667 79.5 32s31.5 49.666 31.5 84.999c0 34.667 -10.5 62.834 -31.5 84.501s-47.5 32.5 -79.5 32.5s-58.333 -10.833 -79 -32.5s-31 -49.834 -31 -84.501c0 -35.333 10.333 -63.666 31 -84.999s47 -32 79 -32zM222 689
c26 0 50.167 -4.66699 72.5 -14s41.5 -22.166 57.5 -38.499s28.667 -35.833 38 -58.5s14 -47.334 14 -74.001c0 -27.333 -4.66699 -52.166 -14 -74.499s-22 -41.833 -38 -58.5s-35.167 -29.5 -57.5 -38.5s-46.5 -13.5 -72.5 -13.5s-50 4.5 -72 13.5
s-41.167 21.833 -57.5 38.5s-29.166 36.167 -38.499 58.5s-14 47.166 -14 74.499c0 26.667 4.66699 51.334 14 74.001s22.166 42.167 38.499 58.5s35.5 29.166 57.5 38.499s46 14 72 14z" />
    <glyph glyph-name="guillemotright" unicode="&#xbb;" horiz-adv-x="482" 
d="M45 450l68 37l157 -241l-157 -241l-68 37l133 204zM222 450l68 37l157 -241l-157 -241l-68 37l133 204z" />
    <glyph glyph-name="onequarter" unicode="&#xbc;" horiz-adv-x="842" 
d="M628 144v142h-2l-103 -140v-2h105zM751 74h-46v-73h-77v73h-186l-5 68l192 266h76v-264h46v-70zM518 705l64 -27l-298 -701l-64 27zM227 685v-410h-77v327l-83 -32l-23 65l124 50h59z" />
    <glyph glyph-name="onehalf" unicode="&#xbd;" horiz-adv-x="842" 
d="M698 71l88.9971 0.00292969v-71h-270v64l136 136c20.667 21.333 35.834 38.166 45.501 50.499s14.5 25.833 14.5 40.5c0 15.333 -4.83301 27.5 -14.5 36.5s-23.5 13.5 -41.5 13.5c-36 0 -57.333 -20.333 -64 -61l-79 20c7.33301 37.333 23.333 65.666 48 84.999
s56.334 29 95.001 29c41.333 0 73.833 -11.667 97.5 -35s35.5 -53 35.5 -89c0 -23.333 -6.66699 -45.833 -20 -67.5s-30.666 -42.834 -51.999 -63.501l-87 -88v-2c10 0.666992 20.667 1.16699 32 1.5s23 0.5 35 0.5zM517.997 705.003l64 -27l-298 -701l-64 27z
M226.997 685.003v-410h-77v327l-83 -32l-23 65l124 50h59z" />
    <glyph glyph-name="threequarters" unicode="&#xbe;" horiz-adv-x="842" 
d="M670 144v142h-2l-103 -140v-2h105zM793 74h-46v-73h-77v73h-186l-5 68l192 266h76v-264h46v-70zM330 392c0 -36.667 -12.335 -66.6689 -37.002 -90.002s-61.667 -35 -111 -35c-26 0 -51.5 4.33301 -76.5 13s-44.833 20.667 -59.5 36l56 52
c9.33301 -9.33301 20.333 -16.5 33 -21.5s28.334 -7.5 47.001 -7.5c23.333 0 41 4.83301 53 14.5s18 23.167 18 40.5c0 13.333 -5.16699 25.5 -15.5 36.5s-30.166 16.5 -59.499 16.5h-50v72h51c23.333 0 40.333 4.83301 51 14.5s16 21.834 16 36.501
s-5.83301 26.334 -17.5 35.001s-28.5 13 -50.5 13c-16 0 -30 -2.5 -42 -7.5s-23 -11.5 -33 -19.5l-55 54c38.667 29.333 83.334 44 134.001 44c46 0 81 -11.167 105 -33.5s36 -49.833 36 -82.5c0 -38 -15.667 -66.667 -47 -86v-2c19.333 -11.333 33.166 -25.333 41.499 -42
s12.5 -33.667 12.5 -51zM559.998 704.998l64 -27l-298 -701l-64 27z" />
    <glyph glyph-name="questiondown" unicode="&#xbf;" horiz-adv-x="569" 
d="M328 298c0 -26 -0.666016 -48.6621 -1.99902 -67.9951s-4.5 -36.833 -9.5 -52.5s-11.833 -29.834 -20.5 -42.501s-20 -25.334 -34 -38.001l-40.5 -37c-11.667 -10.667 -21.834 -20.834 -30.501 -30.501s-15.167 -19.334 -19.5 -29.001s-6.5 -20.5 -6.5 -32.5
c0 -22.667 10.5 -41.334 31.5 -56.001s50.833 -22 89.5 -22c34.667 0 63.334 8 86.001 24s37.667 41 45 75l97 -28c-14.667 -51.333 -41.167 -91.5 -79.5 -120.5s-87.833 -43.5 -148.5 -43.5c-36 0 -67.833 4.5 -95.5 13.5s-50.834 21.333 -69.501 37s-32.667 34 -42 55
s-14 43.167 -14 66.5c0 18 3.16699 34.5 9.5 49.5s15 29.5 26 43.5s24.167 28 39.5 42l51 46c10.667 10 19.5 19.5 26.5 28.5s12.5 19.167 16.5 30.5s6.66699 24 8 38s2.33301 31 3 51h83zM224.001 443.005c0 17.333 5.83301 32 17.5 44s26.5 18 44.5 18
c18.667 0 33.834 -6 45.501 -18s17.5 -26.667 17.5 -44s-5.83301 -32 -17.5 -44s-26.834 -18 -45.501 -18c-18 0 -32.833 6 -44.5 18s-17.5 26.667 -17.5 44z" />
    <glyph glyph-name="Agrave" unicode="&#xc0;" horiz-adv-x="716" 
d="M585 0h116l-298 682h-91l-297 -682h115l66 154h323zM357 547h2l58.5 -147.5l60.5 -147.5h-240l60.5 147.5zM376 749l-145 128l69 48l125 -141z" />
    <glyph glyph-name="Aacute" unicode="&#xc1;" horiz-adv-x="716" 
d="M306 784l125 141l69 -48l-145 -128zM298.5 399.5l-60.5 -147.5h240l-60.5 147.5l-58.5 147.5h-2zM519 154h-323l-66 -154h-115l297 682h91l298 -682h-116z" />
    <glyph glyph-name="Acircumflex" unicode="&#xc2;" horiz-adv-x="716" 
d="M358 845l-102 -98l-50 34l112 126h80l112 -126l-50 -34zM298.5 399.5l-60.5 -147.5h240l-60.5 147.5l-58.5 147.5h-2zM519 154h-323l-66 -154h-115l297 682h91l298 -682h-116z" />
    <glyph glyph-name="Atilde" unicode="&#xc3;" horiz-adv-x="716" 
d="M429 758c-14.667 0 -28.1689 2.33301 -40.502 7s-24.166 9.66699 -35.499 15l-33 15c-10.667 4.66699 -21.334 7 -32.001 7c-11.333 0 -21.166 -4.33301 -29.499 -13s-15.5 -18.667 -21.5 -30l-53 29c9.33301 22.667 23 42 41 58s38.667 24 62 24
c13.333 0 26.333 -2.33301 39 -7s24.834 -9.66699 36.501 -15l34 -15c11 -4.66699 21.833 -7 32.5 -7c11.333 0 21 4.16699 29 12.5s15 18.5 21 30.5l53 -29c-9.33301 -23.333 -23 -42.833 -41 -58.5s-38.667 -23.5 -62 -23.5zM298.498 399.5l-60.5 -147.5h240l-60.5 147.5
l-58.5 147.5h-2zM518.998 154h-323l-66 -154h-115l297 682h91l298 -682h-116z" />
    <glyph glyph-name="Adieresis" unicode="&#xc4;" horiz-adv-x="716" 
d="M204 829c0 17.333 5.83301 32 17.5 44s26.5 18 44.5 18c18.667 0 33.834 -6 45.501 -18s17.5 -26.667 17.5 -44s-5.83301 -32 -17.5 -44s-26.834 -18 -45.501 -18c-18 0 -32.833 6 -44.5 18s-17.5 26.667 -17.5 44zM394 829c0 17.333 5.83301 32 17.5 44s26.5 18 44.5 18
c18.667 0 33.834 -6 45.501 -18s17.5 -26.667 17.5 -44s-5.83301 -32 -17.5 -44s-26.834 -18 -45.501 -18c-18 0 -32.833 6 -44.5 18s-17.5 26.667 -17.5 44zM298.5 399.5l-60.5 -147.5h240l-60.5 147.5l-58.5 147.5h-2zM519 154h-323l-66 -154h-115l297 682h91l298 -682
h-116z" />
    <glyph glyph-name="Aring" unicode="&#xc5;" horiz-adv-x="716" 
d="M358 967c16.667 0 32.333 -2.83301 47 -8.5s27.334 -13.5 38.001 -23.5s19 -22 25 -36s9 -29 9 -45s-3 -30.833 -9 -44.5s-14.167 -25.5 -24.5 -35.5s-22.833 -17.833 -37.5 -23.5s-30.667 -8.5 -48 -8.5s-33.333 2.83301 -48 8.5s-27.167 13.5 -37.5 23.5
s-18.5 21.833 -24.5 35.5s-9 28.5 -9 44.5s3 31 9 45s14.333 26 25 36s23.167 17.833 37.5 23.5s30.166 8.5 47.499 8.5zM357.999 788c20.667 0 37.334 6.16699 50.001 18.5s19 28.166 19 47.499s-6.33301 35.333 -19 48s-29.334 19 -50.001 19
s-37.334 -6.33301 -50.001 -19s-19 -28.667 -19 -48s6.33301 -35.166 19 -47.499s29.334 -18.5 50.001 -18.5zM298.499 399.5l-60.5 -147.5h240l-60.5 147.5l-58.5 147.5h-2zM518.999 154h-323l-66 -154h-115l297 682h91l298 -682h-116z" />
    <glyph glyph-name="AE" unicode="&#xc6;" horiz-adv-x="1083" 
d="M569 252l-14 343h-2l-57.5 -82.5l-66 -94l-64 -91.5l-51.5 -75h255zM1009 682v-98h-351l8 -190h315v-98h-311l9 -198h339v-98h-335h-103l-6 154h-328l-109 -154h-127l484 682h515z" />
    <glyph glyph-name="Ccedilla" unicode="&#xc7;" horiz-adv-x="720" 
d="M400 -45c0.666992 0 1.33008 0.336914 1.99707 1.00391c38 0 66 -7.33301 84 -22s27 -32.334 27 -53.001c0 -23.333 -9 -42.666 -27 -57.999s-46 -23 -84 -23c-19.333 0 -39 2.5 -59 7.5s-37.667 11.833 -53 20.5l21 40c10.667 -6.66699 22.834 -12.167 36.501 -16.5
s28.5 -6.5 44.5 -6.5c14.667 0 26.167 3.16699 34.5 9.5s12.5 15.5 12.5 27.5c0 9.33301 -3.83301 17.333 -11.5 24s-19.834 10 -36.501 10c-6.66699 0 -12.667 -0.333008 -18 -1s-9.66602 -1.66699 -12.999 -3l-33 20l32 58c-44 4.66699 -84.667 16.667 -122 36
s-69.666 44.333 -96.999 75s-48.666 66.334 -63.999 107.001s-23 85 -23 133c0 51.333 9 98.666 27 141.999s42.667 80.666 74 111.999s68.333 55.666 111 72.999s88.667 26 138 26c54 0 103.833 -9.83301 149.5 -29.5s84.5 -48.167 116.5 -85.5l-78 -69
c-22 27.333 -49.167 48.666 -81.5 63.999s-67.833 23 -106.5 23c-35.333 0 -68 -6.16699 -98 -18.5s-56 -29.833 -78 -52.5s-39.333 -49.667 -52 -81s-19 -66 -19 -104s6.33301 -72.833 19 -104.5s30 -58.667 52 -81s48 -39.833 78 -52.5s62.667 -19 98 -19
c40 0 76.333 8.16699 109 24.5s60 38.5 82 66.5l79 -68c-30.667 -36.667 -68 -65.334 -112 -86.001s-92 -31.667 -144 -33l-17 -30v-3z" />
    <glyph glyph-name="Egrave" unicode="&#xc8;" horiz-adv-x="609" 
d="M346 749l-145 128l69 48l125 -141zM544 0h-459v682h450v-98h-347v-190h319v-98h-319v-198h356v-98z" />
    <glyph glyph-name="Eacute" unicode="&#xc9;" horiz-adv-x="609" 
d="M276 784l125 141l69 -48l-145 -128zM544 98h-356v198h319v98h-319v190h347v98h-450v-682h459v98z" />
    <glyph glyph-name="Ecircumflex" unicode="&#xca;" horiz-adv-x="609" 
d="M318 845l-102 -98l-50 34l112 126h80l111 -126l-49 -34zM544 98h-356v198h319v98h-319v190h347v98h-450v-682h459v98z" />
    <glyph glyph-name="Edieresis" unicode="&#xcb;" horiz-adv-x="609" 
d="M223 887c17.333 0 31.333 -5.66699 42 -17s16 -25 16 -41c0 -15.333 -5.33301 -28.666 -16 -39.999s-24.667 -17 -42 -17s-31.5 5.66699 -42.5 17s-16.5 24.666 -16.5 39.999c0 16 5.5 29.667 16.5 41s25.167 17 42.5 17zM544 98h-356v198h319v98h-319v190h347v98h-450
v-682h459v98zM354 829c0 17.333 5.83301 32 17.5 44s26.5 18 44.5 18c18.667 0 33.834 -6 45.501 -18s17.5 -26.667 17.5 -44s-5.83301 -32 -17.5 -44s-26.834 -18 -45.501 -18c-18 0 -32.833 6 -44.5 18s-17.5 26.667 -17.5 44z" />
    <glyph glyph-name="Igrave" unicode="&#xcc;" horiz-adv-x="273" 
d="M149 749l-145 128l69 48l125 -141zM188 0h-103v682h103v-682z" />
    <glyph glyph-name="Iacute" unicode="&#xcd;" horiz-adv-x="273" 
d="M75 784l126 141l68 -48l-145 -128zM188 682h-103v-682h103v682z" />
    <glyph glyph-name="Icircumflex" unicode="&#xce;" horiz-adv-x="273" 
d="M188 682h-103v-682h103v682zM137 845l-103 -98l-49 34l112 126h79l112 -126l-49 -34z" />
    <glyph glyph-name="Idieresis" unicode="&#xcf;" horiz-adv-x="273" 
d="M188 682h-103v-682h103v682zM41 887c17.333 0 31.5 -5.66699 42.5 -17s16.5 -25 16.5 -41c0 -15.333 -5.5 -28.666 -16.5 -39.999s-25.167 -17 -42.5 -17s-31.333 5.66699 -42 17s-16 24.666 -16 39.999c0 16 5.33301 29.667 16 41s24.667 17 42 17zM173 829
c0 17.333 5.83301 32 17.5 44s26.5 18 44.5 18c18.667 0 33.834 -6 45.501 -18s17.5 -26.667 17.5 -44s-5.83301 -32 -17.5 -44s-26.834 -18 -45.501 -18c-18 0 -32.833 6 -44.5 18s-17.5 26.667 -17.5 44z" />
    <glyph glyph-name="Eth" unicode="&#xd0;" horiz-adv-x="708" 
d="M551 341c0 81.333 -22.5 142.168 -67.5 182.501s-107.167 60.5 -186.5 60.5h-109v-200h174v-86h-174v-200h109c79.333 0 141.5 20.167 186.5 60.5s67.5 101.166 67.5 182.499zM655 341.002c0 -54 -8.5 -102.167 -25.5 -144.5s-41 -78 -72 -107
s-68.333 -51.167 -112 -66.5s-91.834 -23 -144.501 -23h-216v298h-68v86h68v298h216c52.667 0 100.834 -7.66699 144.501 -23s81 -37.5 112 -66.5s55 -64.667 72 -107s25.5 -90.5 25.5 -144.5z" />
    <glyph glyph-name="Ntilde" unicode="&#xd1;" horiz-adv-x="730" 
d="M429 758c-14.667 0 -28.1689 2.33301 -40.502 7s-24.166 9.66699 -35.499 15l-33 15c-10.667 4.66699 -21.334 7 -32.001 7c-11.333 0 -21.166 -4.33301 -29.499 -13s-15.5 -18.667 -21.5 -30l-53 29c9.33301 22.667 23 42 41 58s38.667 24 62 24
c13.333 0 26.333 -2.33301 39 -7s24.834 -9.66699 36.501 -15l34 -15c11 -4.66699 21.833 -7 32.5 -7c11.333 0 21 4.16699 29 12.5s15 18.5 21 30.5l53 -29c-9.33301 -23.333 -23 -42.833 -41 -58.5s-38.667 -23.5 -62 -23.5zM644.998 682l0.000976562 -682h-91l-367 500
h-2c1.33301 -25.333 2.16602 -52.5 2.49902 -81.5s0.5 -56.167 0.5 -81.5v-337h-103v682h91l366 -500h2c-0.666992 25.333 -1.16699 52.5 -1.5 81.5s-0.5 56.167 -0.5 81.5v337h103z" />
    <glyph glyph-name="Ograve" unicode="&#xd2;" horiz-adv-x="805" 
d="M415 749l-145 128l69 48l125 -141zM752 341c0 -51.333 -9 -98.666 -27 -141.999s-42.667 -80.666 -74 -111.999s-68.166 -55.833 -110.499 -73.5s-88.166 -26.5 -137.499 -26.5s-95.333 8.83301 -138 26.5s-79.667 42.167 -111 73.5s-56 68.666 -74 111.999
s-27 90.666 -27 141.999s9 98.666 27 141.999s42.667 80.666 74 111.999s68.333 55.666 111 72.999s88.667 26 138 26s95.166 -8.66699 137.499 -26s79.166 -41.666 110.499 -72.999s56 -68.666 74 -111.999s27 -90.666 27 -141.999zM649 341c0 38 -6.33301 72.667 -19 104
s-30 58.333 -52 81s-48 40.167 -78 52.5s-62.333 18.5 -97 18.5c-35.333 0 -68 -6.16699 -98 -18.5s-56 -29.833 -78 -52.5s-39.333 -49.667 -52 -81s-19 -66 -19 -104s6.33301 -72.833 19 -104.5s30 -58.667 52 -81s48 -39.833 78 -52.5s62.667 -19 98 -19
c34.667 0 67 6.33301 97 19s56 30.167 78 52.5s39.333 49.333 52 81s19 66.5 19 104.5z" />
    <glyph glyph-name="Oacute" unicode="&#xd3;" horiz-adv-x="805" 
d="M649 341c0 -38 -6.33301 -72.833 -19 -104.5s-30 -58.667 -52 -81s-48 -39.833 -78 -52.5s-62.333 -19 -97 -19c-35.333 0 -68 6.33301 -98 19s-56 30.167 -78 52.5s-39.333 49.333 -52 81s-19 66.5 -19 104.5s6.33301 72.667 19 104s30 58.333 52 81s48 40.167 78 52.5
s62.667 18.5 98 18.5c34.667 0 67 -6.16699 97 -18.5s56 -29.833 78 -52.5s39.333 -49.667 52 -81s19 -66 19 -104zM752 341c0 51.333 -9 98.666 -27 141.999s-42.667 80.666 -74 111.999s-68.166 55.666 -110.499 72.999s-88.166 26 -137.499 26s-95.333 -8.66699 -138 -26
s-79.667 -41.666 -111 -72.999s-56 -68.666 -74 -111.999s-27 -90.666 -27 -141.999s9 -98.666 27 -141.999s42.667 -80.666 74 -111.999s68.333 -55.833 111 -73.5s88.667 -26.5 138 -26.5s95.166 8.83301 137.499 26.5s79.166 42.167 110.499 73.5s56 68.666 74 111.999
s27 90.666 27 141.999zM338 784l125 141l69 -48l-145 -128z" />
    <glyph glyph-name="Ocircumflex" unicode="&#xd4;" horiz-adv-x="805" 
d="M649 341c0 -38 -6.33301 -72.833 -19 -104.5s-30 -58.667 -52 -81s-48 -39.833 -78 -52.5s-62.333 -19 -97 -19c-35.333 0 -68 6.33301 -98 19s-56 30.167 -78 52.5s-39.333 49.333 -52 81s-19 66.5 -19 104.5s6.33301 72.667 19 104s30 58.333 52 81s48 40.167 78 52.5
s62.667 18.5 98 18.5c34.667 0 67 -6.16699 97 -18.5s56 -29.833 78 -52.5s39.333 -49.667 52 -81s19 -66 19 -104zM752 341c0 51.333 -9 98.666 -27 141.999s-42.667 80.666 -74 111.999s-68.166 55.666 -110.499 72.999s-88.166 26 -137.499 26s-95.333 -8.66699 -138 -26
s-79.667 -41.666 -111 -72.999s-56 -68.666 -74 -111.999s-27 -90.666 -27 -141.999s9 -98.666 27 -141.999s42.667 -80.666 74 -111.999s68.333 -55.833 111 -73.5s88.667 -26.5 138 -26.5s95.166 8.83301 137.499 26.5s79.166 42.167 110.499 73.5s56 68.666 74 111.999
s27 90.666 27 141.999zM403 845l-102 -98l-50 34l112 126h80l112 -126l-50 -34z" />
    <glyph glyph-name="Otilde" unicode="&#xd5;" horiz-adv-x="805" 
d="M649 341c0 -38 -6.33301 -72.833 -19 -104.5s-30 -58.667 -52 -81s-48 -39.833 -78 -52.5s-62.333 -19 -97 -19c-35.333 0 -68 6.33301 -98 19s-56 30.167 -78 52.5s-39.333 49.333 -52 81s-19 66.5 -19 104.5s6.33301 72.667 19 104s30 58.333 52 81s48 40.167 78 52.5
s62.667 18.5 98 18.5c34.667 0 67 -6.16699 97 -18.5s56 -29.833 78 -52.5s39.333 -49.667 52 -81s19 -66 19 -104zM752 341c0 51.333 -9 98.666 -27 141.999s-42.667 80.666 -74 111.999s-68.166 55.666 -110.499 72.999s-88.166 26 -137.499 26s-95.333 -8.66699 -138 -26
s-79.667 -41.666 -111 -72.999s-56 -68.666 -74 -111.999s-27 -90.666 -27 -141.999s9 -98.666 27 -141.999s42.667 -80.666 74 -111.999s68.333 -55.833 111 -73.5s88.667 -26.5 138 -26.5s95.166 8.83301 137.499 26.5s79.166 42.167 110.499 73.5s56 68.666 74 111.999
s27 90.666 27 141.999zM474 758c-14.667 0 -28.1689 2.33301 -40.502 7s-24.166 9.66699 -35.499 15l-33 15c-10.667 4.66699 -21.334 7 -32.001 7c-11.333 0 -21.166 -4.33301 -29.499 -13s-15.5 -18.667 -21.5 -30l-53 29c9.33301 22.667 23 42 41 58s38.667 24 62 24
c13.333 0 26.333 -2.33301 39 -7s24.834 -9.66699 36.501 -15l34 -15c11 -4.66699 21.833 -7 32.5 -7c11.333 0 21 4.16699 29 12.5s15 18.5 21 30.5l53 -29c-9.33301 -23.333 -23 -42.833 -41 -58.5s-38.667 -23.5 -62 -23.5z" />
    <glyph glyph-name="Odieresis" unicode="&#xd6;" horiz-adv-x="805" 
d="M649 341c0 -38 -6.33301 -72.833 -19 -104.5s-30 -58.667 -52 -81s-48 -39.833 -78 -52.5s-62.333 -19 -97 -19c-35.333 0 -68 6.33301 -98 19s-56 30.167 -78 52.5s-39.333 49.333 -52 81s-19 66.5 -19 104.5s6.33301 72.667 19 104s30 58.333 52 81s48 40.167 78 52.5
s62.667 18.5 98 18.5c34.667 0 67 -6.16699 97 -18.5s56 -29.833 78 -52.5s39.333 -49.667 52 -81s19 -66 19 -104zM752 341c0 51.333 -9 98.666 -27 141.999s-42.667 80.666 -74 111.999s-68.166 55.666 -110.499 72.999s-88.166 26 -137.499 26s-95.333 -8.66699 -138 -26
s-79.667 -41.666 -111 -72.999s-56 -68.666 -74 -111.999s-27 -90.666 -27 -141.999s9 -98.666 27 -141.999s42.667 -80.666 74 -111.999s68.333 -55.833 111 -73.5s88.667 -26.5 138 -26.5s95.166 8.83301 137.499 26.5s79.166 42.167 110.499 73.5s56 68.666 74 111.999
s27 90.666 27 141.999zM249 829c0 17.333 5.83301 32 17.5 44s26.5 18 44.5 18c18.667 0 33.834 -6 45.501 -18s17.5 -26.667 17.5 -44s-5.83301 -32 -17.5 -44s-26.834 -18 -45.501 -18c-18 0 -32.833 6 -44.5 18s-17.5 26.667 -17.5 44zM439 829
c0 17.333 5.83301 32 17.5 44s26.5 18 44.5 18c18.667 0 33.834 -6 45.501 -18s17.5 -26.667 17.5 -44s-5.83301 -32 -17.5 -44s-26.834 -18 -45.501 -18c-18 0 -32.833 6 -44.5 18s-17.5 26.667 -17.5 44z" />
    <glyph glyph-name="multiply" unicode="&#xd7;" 
d="M355 271l169 -168l-61 -60l-168 168l-168 -168l-61 60l169 168l-169 169l61 60l168 -168l168 168l61 -60z" />
    <glyph glyph-name="Oslash" unicode="&#xd8;" horiz-adv-x="805" 
d="M402 85c36.667 0 70.334 6.49902 101.001 19.499s56.667 31 78 54s38 50.167 50 81.5s18 65 18 101c0 28 -3.83301 55.5 -11.5 82.5s-19.834 52.167 -36.501 75.5l-353 -363c22 -17.333 46.167 -30.166 72.5 -38.499s53.5 -12.5 81.5 -12.5zM156 340.999
c0 -28 3.83105 -55.5 11.498 -82.5s19.834 -52.167 36.501 -75.5l353 363c-22 17.333 -46.333 30.333 -73 39s-54 13 -82 13c-36.667 0 -70.167 -6.66699 -100.5 -20s-56.166 -31.5 -77.499 -54.5s-38 -50.167 -50 -81.5s-18 -65 -18 -101zM751.998 340.999
c0 -50 -8.66797 -96.668 -26.001 -140.001s-41.5 -80.666 -72.5 -111.999s-68 -56 -111 -74s-89.833 -27 -140.5 -27c-40.667 0 -80 6.33301 -118 19s-73 32 -105 58l-76 -78l-46 46l76 77c-27.333 32.667 -47.5 68.834 -60.5 108.501s-19.5 80.5 -19.5 122.5
c0 50 8.66699 96.667 26 140s41.5 80.833 72.5 112.5s67.833 56.5 110.5 74.5s89.334 27 140.001 27c41.333 0 81 -6.5 119 -19.5s73 -32.5 105 -58.5l76 78l46 -46l-76 -77c27.333 -32.667 47.5 -68.834 60.5 -108.501s19.5 -80.5 19.5 -122.5z" />
    <glyph glyph-name="Ugrave" unicode="&#xd9;" horiz-adv-x="695" 
d="M377 749l-145 128l69 48l125 -141zM620 253c0 -43.333 -6.66895 -81.5 -20.002 -114.5s-32.166 -60.667 -56.499 -83s-53.166 -39.333 -86.499 -51s-70 -17.5 -110 -17.5s-76.667 5.83301 -110 17.5s-62 28.667 -86 51s-42.667 50 -56 83s-20 71.167 -20 114.5v429h103
v-425c0 -29.333 4.33301 -54.666 13 -75.999s20.5 -39.166 35.5 -53.499s32.833 -25 53.5 -32s43 -10.5 67 -10.5s46.5 3.5 67.5 10.5s39 17.667 54 32s26.833 32.166 35.5 53.499s13 46.666 13 75.999v425h103v-429z" />
    <glyph glyph-name="Uacute" unicode="&#xda;" horiz-adv-x="695" 
d="M306 784l125 141l69 -48l-145 -128zM620 682h-102.998v-425c0 -29.333 -4.33301 -54.666 -13 -75.999s-20.5 -39.166 -35.5 -53.499s-33 -25 -54 -32s-43.5 -10.5 -67.5 -10.5s-46.333 3.5 -67 10.5s-38.5 17.667 -53.5 32s-26.833 32.166 -35.5 53.499
s-13 46.666 -13 75.999v425h-103v-429c0 -43.333 6.66699 -81.5 20 -114.5s32 -60.667 56 -83s52.667 -39.333 86 -51s70 -17.5 110 -17.5s76.667 5.83301 110 17.5s62.166 28.667 86.499 51s43.166 50 56.499 83s20 71.167 20 114.5v429z" />
    <glyph glyph-name="Ucircumflex" unicode="&#xdb;" horiz-adv-x="695" 
d="M620 682h-102.998v-425c0 -29.333 -4.33301 -54.666 -13 -75.999s-20.5 -39.166 -35.5 -53.499s-33 -25 -54 -32s-43.5 -10.5 -67.5 -10.5s-46.333 3.5 -67 10.5s-38.5 17.667 -53.5 32s-26.833 32.166 -35.5 53.499s-13 46.666 -13 75.999v425h-103v-429
c0 -43.333 6.66699 -81.5 20 -114.5s32 -60.667 56 -83s52.667 -39.333 86 -51s70 -17.5 110 -17.5s76.667 5.83301 110 17.5s62.166 28.667 86.499 51s43.166 50 56.499 83s20 71.167 20 114.5v429zM347.002 845l-102 -98l-49 34l111 126h80l112 -126l-50 -34z" />
    <glyph glyph-name="Udieresis" unicode="&#xdc;" horiz-adv-x="695" 
d="M620 682h-102.998v-425c0 -29.333 -4.33301 -54.666 -13 -75.999s-20.5 -39.166 -35.5 -53.499s-33 -25 -54 -32s-43.5 -10.5 -67.5 -10.5s-46.333 3.5 -67 10.5s-38.5 17.667 -53.5 32s-26.833 32.166 -35.5 53.499s-13 46.666 -13 75.999v425h-103v-429
c0 -43.333 6.66699 -81.5 20 -114.5s32 -60.667 56 -83s52.667 -39.333 86 -51s70 -17.5 110 -17.5s76.667 5.83301 110 17.5s62.166 28.667 86.499 51s43.166 50 56.499 83s20 71.167 20 114.5v429zM252.002 887c17.333 0 31.5 -5.66699 42.5 -17s16.5 -25 16.5 -41
c0 -15.333 -5.5 -28.666 -16.5 -39.999s-25.167 -17 -42.5 -17s-31.333 5.66699 -42 17s-16 24.666 -16 39.999c0 16 5.33301 29.667 16 41s24.667 17 42 17zM384.002 829c0 17.333 5.83301 32 17.5 44s26.5 18 44.5 18c18.667 0 33.834 -6 45.501 -18
s17.5 -26.667 17.5 -44s-5.83301 -32 -17.5 -44s-26.834 -18 -45.501 -18c-18 0 -32.833 6 -44.5 18s-17.5 26.667 -17.5 44z" />
    <glyph glyph-name="Yacute" unicode="&#xdd;" horiz-adv-x="673" 
d="M270 784l126 141l69 -48l-145 -128zM285 0h103v289l265 393h-124l-191 -300h-2l-192 300h-124l265 -393v-289z" />
    <glyph glyph-name="Thorn" unicode="&#xde;" horiz-adv-x="651" 
d="M497 341c0 32.667 -10 59.832 -30 81.499s-52.667 32.5 -98 32.5h-181v-228h181c45.333 0 78 10.833 98 32.5s30 48.834 30 81.501zM601 340.998c0 -31.333 -5 -60 -15 -86s-24.833 -48.333 -44.5 -67s-43.834 -33.167 -72.501 -43.5s-61.667 -15.5 -99 -15.5h-182v-129
h-103v682h103v-129h182c37.333 0 70.333 -5.16699 99 -15.5s52.834 -24.833 72.501 -43.5s34.5 -41 44.5 -67s15 -54.667 15 -86z" />
    <glyph glyph-name="germandbls" unicode="&#xdf;" horiz-adv-x="622" 
d="M572 229c0 -36 -5.33398 -69 -16.001 -99s-26 -55.5 -46 -76.5s-43.833 -37.333 -71.5 -49s-58.5 -17.5 -92.5 -17.5c-26.667 0 -48.667 1.33301 -66 4s-32.666 5.66699 -45.999 9l27 93c9.33301 -2.66699 20 -5 32 -7s25 -3 39 -3c44 0 78.333 12 103 36
s37 60.333 37 109c0 42.667 -13.167 77.167 -39.5 103.5s-61.833 39.5 -106.5 39.5h-52v88h35c32 0 58 8.5 78 25.5s30 39.5 30 67.5c0 30 -10.667 52.5 -32 67.5s-50.333 22.5 -87 22.5c-34 0 -62.167 -9.5 -84.5 -28.5s-33.5 -47.5 -33.5 -85.5v-528h-100v525
c0 32 5.16699 61.167 15.5 87.5s25 48.666 44 66.999s41.833 32.5 68.5 42.5s56.667 15 90 15c30.667 0 59.5 -4 86.5 -12s50.167 -19.667 69.5 -35s34.666 -33.833 45.999 -55.5s17 -46.5 17 -74.5c0 -31.333 -8.16699 -58.666 -24.5 -81.999
s-35.166 -41.666 -56.499 -54.999v-2c44 -16.667 77.667 -41.834 101 -75.501s35 -72.5 35 -116.5z" />
    <glyph glyph-name="agrave" unicode="&#xe0;" horiz-adv-x="558" 
d="M269 505c-35.333 0 -70.502 -5.00098 -105.502 -15.001s-67.833 -22.667 -98.5 -38l47 -83c26 16.667 52.333 28.167 79 34.5s53 9.5 79 9.5c78.667 0 118 -31.333 118 -94v-14c-21.333 3.33301 -42.833 6 -64.5 8s-43.167 3 -64.5 3
c-66.667 0 -118.167 -14.167 -154.5 -42.5s-54.5 -68.833 -54.5 -121.5c0 -22.667 4 -44 12 -64s19.833 -37.5 35.5 -52.5s34.834 -26.833 57.501 -35.5s49 -13 79 -13c36 0 67.667 6.5 95 19.5s50.333 30.5 69 52.5h3l3 -59h84v301c0 62.667 -17.667 112.334 -53 149.001
s-90.666 55 -165.999 55zM252.998 75.999c-14 0 -27.168 1.49902 -39.501 4.49902s-23.166 7.5 -32.499 13.5s-16.833 13.833 -22.5 23.5s-8.5 21.167 -8.5 34.5c0 28.667 11.5 48.334 34.5 59.001s52.167 16 87.5 16c18.667 0 37.167 -1.16699 55.5 -3.5
s38.5 -5.83301 60.5 -10.5v-13c0 -21.333 -4 -39.833 -12 -55.5s-18.5 -28.5 -31.5 -38.5s-27.5 -17.5 -43.5 -22.5s-32 -7.5 -48 -7.5zM298.997 558.998l-145 128l69 48l125 -141z" />
    <glyph glyph-name="aacute" unicode="&#xe1;" horiz-adv-x="558" 
d="M253 76c16 0 32.001 2.50098 48.001 7.50098s30.5 12.5 43.5 22.5s23.5 22.833 31.5 38.5s12 34.167 12 55.5v13c-22 4.66699 -42.167 8.16699 -60.5 10.5s-36.833 3.5 -55.5 3.5c-35.333 0 -64.5 -5.33301 -87.5 -16s-34.5 -30.334 -34.5 -59.001
c0 -13.333 2.83301 -24.833 8.5 -34.5s13.167 -17.5 22.5 -23.5s20.166 -10.5 32.499 -13.5s25.5 -4.5 39.5 -4.5zM269.001 505.001c75.333 0 130.668 -18.332 166.001 -54.999s53 -86.334 53 -149.001v-301h-84l-4 59h-2c-18.667 -22 -41.667 -39.5 -69 -52.5
s-59 -19.5 -95 -19.5c-30 0 -56.333 4.33301 -79 13s-41.834 20.5 -57.501 35.5s-27.5 32.5 -35.5 52.5s-12 41.333 -12 64c0 52.667 18.167 93.167 54.5 121.5s87.833 42.5 154.5 42.5c21.333 0 42.833 -1 64.5 -3s43.167 -4.66699 64.5 -8v14c0 62.667 -39.333 94 -118 94
c-26 0 -52.333 -3.16699 -79 -9.5s-53 -17.833 -79 -34.5l-47 83c30.667 15.333 63.5 28 98.5 38s70.167 15 105.5 15zM202.003 594.002l125 141l69 -48l-145 -128z" />
    <glyph glyph-name="acircumflex" unicode="&#xe2;" horiz-adv-x="558" 
d="M253 76c16 0 32.001 2.50098 48.001 7.50098s30.5 12.5 43.5 22.5s23.5 22.833 31.5 38.5s12 34.167 12 55.5v13c-22 4.66699 -42.167 8.16699 -60.5 10.5s-36.833 3.5 -55.5 3.5c-35.333 0 -64.5 -5.33301 -87.5 -16s-34.5 -30.334 -34.5 -59.001
c0 -13.333 2.83301 -24.833 8.5 -34.5s13.167 -17.5 22.5 -23.5s20.166 -10.5 32.499 -13.5s25.5 -4.5 39.5 -4.5zM269.001 505.001c75.333 0 130.668 -18.332 166.001 -54.999s53 -86.334 53 -149.001v-301h-84l-4 59h-2c-18.667 -22 -41.667 -39.5 -69 -52.5
s-59 -19.5 -95 -19.5c-30 0 -56.333 4.33301 -79 13s-41.834 20.5 -57.501 35.5s-27.5 32.5 -35.5 52.5s-12 41.333 -12 64c0 52.667 18.167 93.167 54.5 121.5s87.833 42.5 154.5 42.5c21.333 0 42.833 -1 64.5 -3s43.167 -4.66699 64.5 -8v14c0 62.667 -39.333 94 -118 94
c-26 0 -52.333 -3.16699 -79 -9.5s-53 -17.833 -79 -34.5l-47 83c30.667 15.333 63.5 28 98.5 38s70.167 15 105.5 15zM272.003 655.002l-102 -98l-50 34l112 126h80l112 -126l-50 -34z" />
    <glyph glyph-name="atilde" unicode="&#xe3;" horiz-adv-x="558" 
d="M344 568c-14.667 0 -28.1689 2.33301 -40.502 7s-24.166 9.66699 -35.499 15l-33 15c-10.667 4.66699 -21.334 7 -32.001 7c-11.333 0 -21.166 -4.33301 -29.499 -13s-15.5 -18.667 -21.5 -30l-53 29c9.33301 22.667 23 42 41 58s38.667 24 62 24
c13.333 0 26.333 -2.33301 39 -7s24.834 -9.66699 36.501 -15l34 -15c11 -4.66699 21.833 -7 32.5 -7c11.333 0 21 4.16699 29 12.5s15 18.5 21 30.5l53 -29c-9.33301 -23.333 -23 -42.833 -41 -58.5s-38.667 -23.5 -62 -23.5zM252.998 76
c16 0 32.001 2.50098 48.001 7.50098s30.5 12.5 43.5 22.5s23.5 22.833 31.5 38.5s12 34.167 12 55.5v13c-22 4.66699 -42.167 8.16699 -60.5 10.5s-36.833 3.5 -55.5 3.5c-35.333 0 -64.5 -5.33301 -87.5 -16s-34.5 -30.334 -34.5 -59.001
c0 -13.333 2.83301 -24.833 8.5 -34.5s13.167 -17.5 22.5 -23.5s20.166 -10.5 32.499 -13.5s25.5 -4.5 39.5 -4.5zM268.999 505.001c75.333 0 130.668 -18.332 166.001 -54.999s53 -86.334 53 -149.001v-301h-84l-4 59h-2c-18.667 -22 -41.667 -39.5 -69 -52.5
s-59 -19.5 -95 -19.5c-30 0 -56.333 4.33301 -79 13s-41.834 20.5 -57.501 35.5s-27.5 32.5 -35.5 52.5s-12 41.333 -12 64c0 52.667 18.167 93.167 54.5 121.5s87.833 42.5 154.5 42.5c21.333 0 42.833 -1 64.5 -3s43.167 -4.66699 64.5 -8v14c0 62.667 -39.333 94 -118 94
c-26 0 -52.333 -3.16699 -79 -9.5s-53 -17.833 -79 -34.5l-47 83c30.667 15.333 63.5 28 98.5 38s70.167 15 105.5 15z" />
    <glyph glyph-name="adieresis" unicode="&#xe4;" horiz-adv-x="558" 
d="M124 639c0 17.333 5.83301 32 17.5 44s26.5 18 44.5 18c18.667 0 33.834 -6 45.501 -18s17.5 -26.667 17.5 -44s-5.83301 -32 -17.5 -44s-26.834 -18 -45.501 -18c-18 0 -32.833 6 -44.5 18s-17.5 26.667 -17.5 44zM314 639c0 17.333 5.83301 32 17.5 44s26.5 18 44.5 18
c18.667 0 33.834 -6 45.501 -18s17.5 -26.667 17.5 -44s-5.83301 -32 -17.5 -44s-26.834 -18 -45.501 -18c-18 0 -32.833 6 -44.5 18s-17.5 26.667 -17.5 44zM253 76c16 0 32.001 2.50098 48.001 7.50098s30.5 12.5 43.5 22.5s23.5 22.833 31.5 38.5s12 34.167 12 55.5v13
c-22 4.66699 -42.167 8.16699 -60.5 10.5s-36.833 3.5 -55.5 3.5c-35.333 0 -64.5 -5.33301 -87.5 -16s-34.5 -30.334 -34.5 -59.001c0 -13.333 2.83301 -24.833 8.5 -34.5s13.167 -17.5 22.5 -23.5s20.166 -10.5 32.499 -13.5s25.5 -4.5 39.5 -4.5zM269.001 505.001
c75.333 0 130.668 -18.332 166.001 -54.999s53 -86.334 53 -149.001v-301h-84l-4 59h-2c-18.667 -22 -41.667 -39.5 -69 -52.5s-59 -19.5 -95 -19.5c-30 0 -56.333 4.33301 -79 13s-41.834 20.5 -57.501 35.5s-27.5 32.5 -35.5 52.5s-12 41.333 -12 64
c0 52.667 18.167 93.167 54.5 121.5s87.833 42.5 154.5 42.5c21.333 0 42.833 -1 64.5 -3s43.167 -4.66699 64.5 -8v14c0 62.667 -39.333 94 -118 94c-26 0 -52.333 -3.16699 -79 -9.5s-53 -17.833 -79 -34.5l-47 83c30.667 15.333 63.5 28 98.5 38s70.167 15 105.5 15z" />
    <glyph glyph-name="aring" unicode="&#xe5;" horiz-adv-x="558" 
d="M272 778c16.667 0 32.333 -2.83301 47 -8.5s27.334 -13.5 38.001 -23.5s19 -22 25 -36s9 -29 9 -45s-3 -30.833 -9 -44.5s-14.167 -25.5 -24.5 -35.5s-22.833 -17.833 -37.5 -23.5s-30.667 -8.5 -48 -8.5s-33.333 2.83301 -48 8.5s-27.167 13.5 -37.5 23.5
s-18.5 21.833 -24.5 35.5s-9 28.5 -9 44.5s3 31 9 45s14.333 26 25 36s23.167 17.833 37.5 23.5s30.166 8.5 47.499 8.5zM271.999 599c20.667 0 37.334 6.16699 50.001 18.5s19 28.166 19 47.499s-6.33301 35.333 -19 48s-29.334 19 -50.001 19
s-37.334 -6.33301 -50.001 -19s-19 -28.667 -19 -48s6.33301 -35.166 19 -47.499s29.334 -18.5 50.001 -18.5zM252.999 76c16 0 32.001 2.50098 48.001 7.50098s30.5 12.5 43.5 22.5s23.5 22.833 31.5 38.5s12 34.167 12 55.5v13c-22 4.66699 -42.167 8.16699 -60.5 10.5
s-36.833 3.5 -55.5 3.5c-35.333 0 -64.5 -5.33301 -87.5 -16s-34.5 -30.334 -34.5 -59.001c0 -13.333 2.83301 -24.833 8.5 -34.5s13.167 -17.5 22.5 -23.5s20.166 -10.5 32.499 -13.5s25.5 -4.5 39.5 -4.5zM269 505.001c75.333 0 130.668 -18.332 166.001 -54.999
s53 -86.334 53 -149.001v-301h-84l-4 59h-2c-18.667 -22 -41.667 -39.5 -69 -52.5s-59 -19.5 -95 -19.5c-30 0 -56.333 4.33301 -79 13s-41.834 20.5 -57.501 35.5s-27.5 32.5 -35.5 52.5s-12 41.333 -12 64c0 52.667 18.167 93.167 54.5 121.5s87.833 42.5 154.5 42.5
c21.333 0 42.833 -1 64.5 -3s43.167 -4.66699 64.5 -8v14c0 62.667 -39.333 94 -118 94c-26 0 -52.333 -3.16699 -79 -9.5s-53 -17.833 -79 -34.5l-47 83c30.667 15.333 63.5 28 98.5 38s70.167 15 105.5 15z" />
    <glyph glyph-name="ae" unicode="&#xe6;" horiz-adv-x="913" 
d="M255 76c16 0 32.001 2.5 48.001 7.5s30.5 12.5 43.5 22.5s23.5 22.833 31.5 38.5s12 34.167 12 55.5v13c-22 4 -42.167 7.5 -60.5 10.5s-36.833 4.5 -55.5 4.5c-36 0 -65.333 -5.5 -88 -16.5s-34 -30.833 -34 -59.5c0 -13.333 2.83301 -24.833 8.5 -34.5
s13.167 -17.5 22.5 -23.5s20.166 -10.5 32.499 -13.5s25.5 -4.5 39.5 -4.5zM630.001 412c-38 0 -68.5 -10.333 -91.5 -31s-37.833 -50 -44.5 -88h262c-5.33301 41.333 -18.833 71.5 -40.5 90.5s-50.167 28.5 -85.5 28.5zM861.001 241
c0 -4.66699 -0.167969 -10.002 -0.500977 -16.002s-0.833008 -12.667 -1.5 -20h-365c7.33301 -41.333 24 -72.5 50 -93.5s58 -31.5 96 -31.5c25.333 0 49.166 5.33301 71.499 16s41.166 25.667 56.499 45l72 -68c-23.333 -26.667 -52.5 -47.667 -87.5 -63
s-73.167 -23 -114.5 -23c-40 0 -76.333 8.16699 -109 24.5s-60 38.833 -82 67.5h-2c-23.333 -31.333 -53.166 -54.5 -89.499 -69.5s-76.166 -22.5 -119.499 -22.5c-30 0 -56.333 4.33301 -79 13s-41.834 20.5 -57.501 35.5s-27.5 32.5 -35.5 52.5s-12 41.333 -12 64
c0 52.667 18.167 93.334 54.5 122.001s87.833 43 154.5 43c21.333 0 42.833 -1.16699 64.5 -3.5s43.167 -5.16602 64.5 -8.49902v14c0 62.667 -39.333 94 -118 94c-26 0 -52.333 -3.16699 -79 -9.5s-53 -17.833 -79 -34.5l-47 83c30.667 15.333 63.5 28 98.5 38
s70.167 15 105.5 15c45.333 0 82.833 -6.66699 112.5 -20s52.834 -32.666 69.501 -57.999h2c20.667 24.667 45.667 43.667 75 57s62.333 20 99 20c34.667 0 66.5 -5.83301 95.5 -17.5s53.833 -28.334 74.5 -50.001s36.334 -47.834 47.001 -78.501
c10 -27.333 15 -57.666 15 -90.999v-12v-14z" />
    <glyph glyph-name="ccedilla" unicode="&#xe7;" horiz-adv-x="542" 
d="M423 -119c0 -23.333 -9.16504 -42.667 -27.498 -58s-46.5 -23 -84.5 -23c-19.333 0 -39 2.5 -59 7.5s-37.667 11.833 -53 20.5l21 40c10.667 -6.66699 23 -12.167 37 -16.5s28.667 -6.5 44 -6.5c14.667 0 26.334 3.16699 35.001 9.5s13 15.5 13 27.5
c0 9.33301 -4 17.333 -12 24s-20.333 10 -37 10c-6.66699 0 -12.667 -0.333008 -18 -1s-9.66602 -1.66699 -12.999 -3l-33 20l31 56v2c-31.333 4 -60.333 13.167 -87 27.5s-49.667 32.833 -69 55.5s-34.333 48.667 -45 78s-16 61 -16 95c0 37.333 6.5 71.833 19.5 103.5
s30.833 59 53.5 82s49.5 40.833 80.5 53.5s64.5 19 100.5 19c39.333 0 75.166 -7.33301 107.499 -22s60.166 -35 83.499 -61l-72 -68c-28 37.333 -67.667 56 -119 56c-22 0 -42.5 -4 -61.5 -12s-35.333 -19.167 -49 -33.5s-24.334 -31.5 -32.001 -51.5s-11.5 -42 -11.5 -66
s3.83301 -46 11.5 -66s18.334 -37.167 32.001 -51.5s30 -25.5 49 -33.5s39.5 -12 61.5 -12c26 0 49.167 5 69.5 15s37.166 24 50.499 42l73 -67c-21.333 -24.667 -46.333 -44.167 -75 -58.5s-60.334 -23.166 -95.001 -26.499l-17 -30v-3l1 1c38 0 66.167 -7.33301 84.5 -22
s27.5 -32.334 27.5 -53.001z" />
    <glyph glyph-name="egrave" unicode="&#xe8;" horiz-adv-x="573" 
d="M520 267c0 32.667 -4.66699 62.665 -14 89.998c-10.667 30.667 -26.334 56.834 -47.001 78.501s-45.5 38.334 -74.5 50.001s-60.833 17.5 -95.5 17.5c-35.333 0 -67.666 -6.33301 -96.999 -19s-54.5 -30.5 -75.5 -53.5s-37.333 -50.333 -49 -82
s-17.5 -66.167 -17.5 -103.5s6.16699 -71.833 18.5 -103.5s29.5 -59 51.5 -82s48.167 -41 78.5 -54s63.5 -19.5 99.5 -19.5c41.333 0 79.5 7.66699 114.5 23s64.167 36.333 87.5 63l-72 68c-15.333 -19.333 -34.333 -34.333 -57 -45s-46.334 -16 -71.001 -16
c-38 0 -70.167 10.5 -96.5 31.5s-43.166 52.167 -50.499 93.5h366c0 7.33301 0.166992 14 0.5 20s0.5 11.333 0.5 16v14v13zM290 410.998c35.333 0 63.833 -9.5 85.5 -28.5s35.167 -49.167 40.5 -90.5h-262c6.66699 38 21.5 67.333 44.5 88s53.5 31 91.5 31zM306 558.998
l-145 128l69 48l125 -141z" />
    <glyph glyph-name="eacute" unicode="&#xe9;" horiz-adv-x="573" 
d="M218 594l125 141l69 -48l-145 -128zM290 411c-38 0 -68.5 -10.333 -91.5 -31s-37.833 -50 -44.5 -88h262c-5.33301 41.333 -18.833 71.5 -40.5 90.5s-50.167 28.5 -85.5 28.5zM520 240c0 -4.66699 -0.166992 -9.99805 -0.5 -15.998s-0.5 -12.667 -0.5 -20h-366
c7.33301 -41.333 24.166 -72.5 50.499 -93.5s58.5 -31.5 96.5 -31.5c24.667 0 48.334 5.33301 71.001 16s41.667 25.667 57 45l72 -68c-23.333 -26.667 -52.5 -47.667 -87.5 -63s-73.167 -23 -114.5 -23c-36 0 -69.167 6.5 -99.5 19.5s-56.5 31 -78.5 54
s-39.167 50.333 -51.5 82s-18.5 66.167 -18.5 103.5s5.83301 71.833 17.5 103.5s28 59 49 82s46.167 40.833 75.5 53.5s61.666 19 96.999 19c34.667 0 66.5 -5.83301 95.5 -17.5s53.833 -28.334 74.5 -50.001s36.334 -47.834 47.001 -78.501
c9.33301 -27.333 14 -57.333 14 -90v-13v-14z" />
    <glyph glyph-name="ecircumflex" unicode="&#xea;" horiz-adv-x="573" 
d="M290 655l-102 -98l-50 34l112 126h80l112 -126l-50 -34zM290 411c-38 0 -68.5 -10.333 -91.5 -31s-37.833 -50 -44.5 -88h262c-5.33301 41.333 -18.833 71.5 -40.5 90.5s-50.167 28.5 -85.5 28.5zM520 240c0 -4.66699 -0.166992 -9.99805 -0.5 -15.998
s-0.5 -12.667 -0.5 -20h-366c7.33301 -41.333 24.166 -72.5 50.499 -93.5s58.5 -31.5 96.5 -31.5c24.667 0 48.334 5.33301 71.001 16s41.667 25.667 57 45l72 -68c-23.333 -26.667 -52.5 -47.667 -87.5 -63s-73.167 -23 -114.5 -23c-36 0 -69.167 6.5 -99.5 19.5
s-56.5 31 -78.5 54s-39.167 50.333 -51.5 82s-18.5 66.167 -18.5 103.5s5.83301 71.833 17.5 103.5s28 59 49 82s46.167 40.833 75.5 53.5s61.666 19 96.999 19c34.667 0 66.5 -5.83301 95.5 -17.5s53.833 -28.334 74.5 -50.001s36.334 -47.834 47.001 -78.501
c9.33301 -27.333 14 -57.333 14 -90v-13v-14z" />
    <glyph glyph-name="edieresis" unicode="&#xeb;" horiz-adv-x="573" 
d="M135 639c0 17.333 5.83301 32 17.5 44s26.5 18 44.5 18c18.667 0 33.834 -6 45.501 -18s17.5 -26.667 17.5 -44s-5.83301 -32 -17.5 -44s-26.834 -18 -45.501 -18c-18 0 -32.833 6 -44.5 18s-17.5 26.667 -17.5 44zM326 639c0 17.333 5.83301 32 17.5 44s26.5 18 44.5 18
c18.667 0 33.834 -6 45.501 -18s17.5 -26.667 17.5 -44s-5.83301 -32 -17.5 -44s-26.834 -18 -45.501 -18c-18 0 -32.833 6 -44.5 18s-17.5 26.667 -17.5 44zM290 411c-38 0 -68.5 -10.333 -91.5 -31s-37.833 -50 -44.5 -88h262c-5.33301 41.333 -18.833 71.5 -40.5 90.5
s-50.167 28.5 -85.5 28.5zM520 240c0 -4.66699 -0.166992 -9.99805 -0.5 -15.998s-0.5 -12.667 -0.5 -20h-366c7.33301 -41.333 24.166 -72.5 50.499 -93.5s58.5 -31.5 96.5 -31.5c24.667 0 48.334 5.33301 71.001 16s41.667 25.667 57 45l72 -68
c-23.333 -26.667 -52.5 -47.667 -87.5 -63s-73.167 -23 -114.5 -23c-36 0 -69.167 6.5 -99.5 19.5s-56.5 31 -78.5 54s-39.167 50.333 -51.5 82s-18.5 66.167 -18.5 103.5s5.83301 71.833 17.5 103.5s28 59 49 82s46.167 40.833 75.5 53.5s61.666 19 96.999 19
c34.667 0 66.5 -5.83301 95.5 -17.5s53.833 -28.334 74.5 -50.001s36.334 -47.834 47.001 -78.501c9.33301 -27.333 14 -57.333 14 -90v-13v-14z" />
    <glyph glyph-name="igrave" unicode="&#xec;" horiz-adv-x="261" 
d="M80 0h100v492h-100v-492zM149 559l-145 128l69 48l125 -141z" />
    <glyph glyph-name="iacute" unicode="&#xed;" horiz-adv-x="261" 
d="M69 594l125 141l69 -48l-145 -128zM80 492h100v-492h-100v492z" />
    <glyph glyph-name="icircumflex" unicode="&#xee;" horiz-adv-x="261" 
d="M130 655l-102 -98l-50 34l112 126h80l112 -126l-50 -34zM80 492h100v-492h-100v492z" />
    <glyph glyph-name="idieresis" unicode="&#xef;" horiz-adv-x="261" 
d="M-23 639c0 17.333 5.83301 32 17.5 44s26.5 18 44.5 18c18.667 0 33.834 -6 45.501 -18s17.5 -26.667 17.5 -44s-5.83301 -32 -17.5 -44s-26.834 -18 -45.501 -18c-18 0 -32.833 6 -44.5 18s-17.5 26.667 -17.5 44zM167 639c0 17.333 5.83301 32 17.5 44s26.5 18 44.5 18
c18.667 0 33.834 -6 45.501 -18s17.5 -26.667 17.5 -44s-5.83301 -32 -17.5 -44s-26.834 -18 -45.501 -18c-18 0 -32.833 6 -44.5 18s-17.5 26.667 -17.5 44zM80 492h100v-492h-100v492z" />
    <glyph glyph-name="eth" unicode="&#xf0;" horiz-adv-x="609" 
d="M304 82c22.667 0 43.5 4 62.5 12s35.333 19.167 49 33.5s24.334 31.666 32.001 51.999s11.5 42.5 11.5 66.5s-3.83301 46 -11.5 66s-18.334 37.167 -32.001 51.5s-30 25.5 -49 33.5s-39.833 12 -62.5 12c-22 0 -42.5 -4 -61.5 -12s-35.333 -19.167 -49 -33.5
s-24.334 -31.5 -32.001 -51.5s-11.5 -42 -11.5 -66s3.83301 -46.167 11.5 -66.5s18.334 -37.666 32.001 -51.999s30 -25.5 49 -33.5s39.5 -12 61.5 -12zM559 246c0 -37.333 -6.49902 -71.8301 -19.499 -103.497s-30.833 -59 -53.5 -82s-49.667 -41 -81 -54
s-65 -19.5 -101 -19.5s-69.5 6.5 -100.5 19.5s-57.833 31 -80.5 54s-40.5 50.333 -53.5 82s-19.5 66.167 -19.5 103.5s6.33301 71.833 19 103.5s30 59 52 82s48.167 40.833 78.5 53.5s63.166 19 98.499 19c32 0 62 -5 90 -15v2c-10.667 14 -22.167 28.167 -34.5 42.5
s-25.5 28.166 -39.5 41.499l-135 -55l-22 55l109 44l-34 27.5l-35 27.5l79 63c15.333 -12 30.5 -24.5 45.5 -37.5s29.167 -26.5 42.5 -40.5l93 39l22 -55l-73 -30c48 -56.667 85.5 -116.334 112.5 -179.001s40.5 -125.334 40.5 -188.001z" />
    <glyph glyph-name="ntilde" unicode="&#xf1;" horiz-adv-x="605" 
d="M384 568c-14.667 0 -28.1689 2.33301 -40.502 7s-24.166 9.66699 -35.499 15l-33 15c-10.667 4.66699 -21.334 7 -32.001 7c-11.333 0 -21.166 -4.33301 -29.499 -13s-15.5 -18.667 -21.5 -30l-53 29c9.33301 22.667 23 42 41 58s38.667 24 62 24
c13.333 0 26.333 -2.33301 39 -7s24.834 -9.66699 36.501 -15l34 -15c11 -4.66699 21.833 -7 32.5 -7c11.333 0 21 4.16699 29 12.5s15 18.5 21 30.5l53 -29c-9.33301 -23.333 -23 -42.833 -41 -58.5s-38.667 -23.5 -62 -23.5zM343.998 504
c25.333 0 49.502 -4.33301 72.502 -13s43.333 -21.834 61 -39.501s31.667 -40.167 42 -67.5s15.5 -59.666 15.5 -96.999v-287h-100v258c0 28 -3 51.833 -9 71.5s-14.333 35.5 -25 47.5s-23.334 20.667 -38.001 26s-30.334 8 -47.001 8
c-20.667 0 -39.334 -4.16699 -56.001 -12.5s-31 -19.5 -43 -33.5s-21.167 -30.5 -27.5 -49.5s-9.5 -39.167 -9.5 -60.5v-255h-100v492h84l4 -64h2c22.667 25.333 49.334 44.333 80.001 57s62 19 94 19z" />
    <glyph glyph-name="ograve" unicode="&#xf2;" horiz-adv-x="609" 
d="M304 504c-36 0 -69.5 -6.33301 -100.5 -19s-57.833 -30.5 -80.5 -53.5s-40.5 -50.333 -53.5 -82s-19.5 -66.167 -19.5 -103.5s6.5 -71.833 19.5 -103.5s30.833 -59 53.5 -82s49.5 -40.833 80.5 -53.5s64.5 -19 100.5 -19s69.667 6.33301 101 19s58.333 30.5 81 53.5
s40.5 50.333 53.5 82s19.5 66.167 19.5 103.5s-6.5 71.833 -19.5 103.5s-30.833 59 -53.5 82s-49.667 40.833 -81 53.5s-65 19 -101 19zM325 559l-145 128l68 48l126 -141zM459 246c0 -19.333 -3.66699 -37.666 -11 -54.999s-17.333 -32.333 -30 -45
s-27.5 -22.667 -44.5 -30s-35.167 -11 -54.5 -11s-37.666 3.66699 -54.999 11s-32.333 17.333 -45 30s-22.667 27.667 -30 45s-11 35.666 -11 54.999s3.66699 37.666 11 54.999s17.333 32.333 30 45s27.667 22.667 45 30s35.666 11 54.999 11s37.5 -3.66699 54.5 -11
s31.833 -17.333 44.5 -30s22.667 -27.667 30 -45s11 -35.666 11 -54.999z" />
    <glyph glyph-name="oacute" unicode="&#xf3;" horiz-adv-x="609" 
d="M228 594l125 141l69 -48l-145 -128zM304 83c22.667 0 43.5 4 62.5 12s35.333 19.167 49 33.5s24.334 31.5 32.001 51.5s11.5 42 11.5 66s-3.83301 46 -11.5 66s-18.334 37.167 -32.001 51.5s-30 25.5 -49 33.5s-39.833 12 -62.5 12c-22 0 -42.5 -4 -61.5 -12
s-35.333 -19.167 -49 -33.5s-24.334 -31.5 -32.001 -51.5s-11.5 -42 -11.5 -66s3.83301 -46 11.5 -66s18.334 -37.167 32.001 -51.5s30 -25.5 49 -33.5s39.5 -12 61.5 -12zM304 504c36 0 69.667 -6.33301 101 -19s58.333 -30.5 81 -53.5s40.5 -50.333 53.5 -82
s19.5 -66.167 19.5 -103.5s-6.5 -71.833 -19.5 -103.5s-30.833 -59 -53.5 -82s-49.667 -40.833 -81 -53.5s-65 -19 -101 -19s-69.5 6.33301 -100.5 19s-57.833 30.5 -80.5 53.5s-40.5 50.333 -53.5 82s-19.5 66.167 -19.5 103.5s6.5 71.833 19.5 103.5s30.833 59 53.5 82
s49.5 40.833 80.5 53.5s64.5 19 100.5 19z" />
    <glyph glyph-name="ocircumflex" unicode="&#xf4;" horiz-adv-x="609" 
d="M304 655l-102 -98l-50 34l112 126h80l112 -126l-50 -34zM304 83c22.667 0 43.5 4 62.5 12s35.333 19.167 49 33.5s24.334 31.5 32.001 51.5s11.5 42 11.5 66s-3.83301 46 -11.5 66s-18.334 37.167 -32.001 51.5s-30 25.5 -49 33.5s-39.833 12 -62.5 12
c-22 0 -42.5 -4 -61.5 -12s-35.333 -19.167 -49 -33.5s-24.334 -31.5 -32.001 -51.5s-11.5 -42 -11.5 -66s3.83301 -46 11.5 -66s18.334 -37.167 32.001 -51.5s30 -25.5 49 -33.5s39.5 -12 61.5 -12zM304 504c36 0 69.667 -6.33301 101 -19s58.333 -30.5 81 -53.5
s40.5 -50.333 53.5 -82s19.5 -66.167 19.5 -103.5s-6.5 -71.833 -19.5 -103.5s-30.833 -59 -53.5 -82s-49.667 -40.833 -81 -53.5s-65 -19 -101 -19s-69.5 6.33301 -100.5 19s-57.833 30.5 -80.5 53.5s-40.5 50.333 -53.5 82s-19.5 66.167 -19.5 103.5
s6.5 71.833 19.5 103.5s30.833 59 53.5 82s49.5 40.833 80.5 53.5s64.5 19 100.5 19z" />
    <glyph glyph-name="otilde" unicode="&#xf5;" horiz-adv-x="609" 
d="M376 568c-14.667 0 -28.1689 2.33301 -40.502 7s-24.166 9.66699 -35.499 15l-33 15c-10.667 4.66699 -21.334 7 -32.001 7c-11.333 0 -21.166 -4.33301 -29.499 -13s-15.5 -18.667 -21.5 -30l-53 29c9.33301 22.667 23 42 41 58s38.667 24 62 24
c13.333 0 26.333 -2.33301 39 -7s24.834 -9.66699 36.501 -15l34 -15c11 -4.66699 21.833 -7 32.5 -7c11.333 0 21 4.16699 29 12.5s15 18.5 21 30.5l53 -29c-9.33301 -23.333 -23 -42.833 -41 -58.5s-38.667 -23.5 -62 -23.5zM303.998 83c22.667 0 43.5 4 62.5 12
s35.333 19.167 49 33.5s24.334 31.5 32.001 51.5s11.5 42 11.5 66s-3.83301 46 -11.5 66s-18.334 37.167 -32.001 51.5s-30 25.5 -49 33.5s-39.833 12 -62.5 12c-22 0 -42.5 -4 -61.5 -12s-35.333 -19.167 -49 -33.5s-24.334 -31.5 -32.001 -51.5s-11.5 -42 -11.5 -66
s3.83301 -46 11.5 -66s18.334 -37.167 32.001 -51.5s30 -25.5 49 -33.5s39.5 -12 61.5 -12zM303.998 504c36 0 69.667 -6.33301 101 -19s58.333 -30.5 81 -53.5s40.5 -50.333 53.5 -82s19.5 -66.167 19.5 -103.5s-6.5 -71.833 -19.5 -103.5s-30.833 -59 -53.5 -82
s-49.667 -40.833 -81 -53.5s-65 -19 -101 -19s-69.5 6.33301 -100.5 19s-57.833 30.5 -80.5 53.5s-40.5 50.333 -53.5 82s-19.5 66.167 -19.5 103.5s6.5 71.833 19.5 103.5s30.833 59 53.5 82s49.5 40.833 80.5 53.5s64.5 19 100.5 19z" />
    <glyph glyph-name="odieresis" unicode="&#xf6;" horiz-adv-x="609" 
d="M151 639c0 17.333 5.83301 32 17.5 44s26.5 18 44.5 18c18.667 0 33.834 -6 45.501 -18s17.5 -26.667 17.5 -44s-5.83301 -32 -17.5 -44s-26.834 -18 -45.501 -18c-18 0 -32.833 6 -44.5 18s-17.5 26.667 -17.5 44zM341 639c0 17.333 5.83301 32 17.5 44s26.5 18 44.5 18
c18.667 0 33.834 -6 45.501 -18s17.5 -26.667 17.5 -44s-5.83301 -32 -17.5 -44s-26.834 -18 -45.501 -18c-18 0 -32.833 6 -44.5 18s-17.5 26.667 -17.5 44zM304 83c22.667 0 43.5 4 62.5 12s35.333 19.167 49 33.5s24.334 31.5 32.001 51.5s11.5 42 11.5 66
s-3.83301 46 -11.5 66s-18.334 37.167 -32.001 51.5s-30 25.5 -49 33.5s-39.833 12 -62.5 12c-22 0 -42.5 -4 -61.5 -12s-35.333 -19.167 -49 -33.5s-24.334 -31.5 -32.001 -51.5s-11.5 -42 -11.5 -66s3.83301 -46 11.5 -66s18.334 -37.167 32.001 -51.5s30 -25.5 49 -33.5
s39.5 -12 61.5 -12zM304 504c36 0 69.667 -6.33301 101 -19s58.333 -30.5 81 -53.5s40.5 -50.333 53.5 -82s19.5 -66.167 19.5 -103.5s-6.5 -71.833 -19.5 -103.5s-30.833 -59 -53.5 -82s-49.667 -40.833 -81 -53.5s-65 -19 -101 -19s-69.5 6.33301 -100.5 19
s-57.833 30.5 -80.5 53.5s-40.5 50.333 -53.5 82s-19.5 66.167 -19.5 103.5s6.5 71.833 19.5 103.5s30.833 59 53.5 82s49.5 40.833 80.5 53.5s64.5 19 100.5 19z" />
    <glyph glyph-name="divide" unicode="&#xf7;" 
d="M527 314h-464v-85h464v85zM353 498c0 -16 -5.33301 -29.5 -16 -40.5s-24.667 -16.5 -42 -16.5s-31.333 5.5 -42 16.5s-16 24.5 -16 40.5s5.33301 29.5 16 40.5s24.667 16.5 42 16.5s31.333 -5.5 42 -16.5s16 -24.5 16 -40.5zM353 45c0 16 -5.33301 29.5 -16 40.5
s-24.667 16.5 -42 16.5s-31.333 -5.5 -42 -16.5s-16 -24.5 -16 -40.5s5.33301 -29.667 16 -41s24.667 -17 42 -17s31.333 5.66699 42 17s16 25 16 41z" />
    <glyph glyph-name="oslash" unicode="&#xf8;" horiz-adv-x="609" 
d="M304 82c22.667 0 43.4971 4.00195 62.4971 12.002s35.333 19.167 49 33.5s24.334 31.666 32.001 51.999s11.5 42.5 11.5 66.5c0 18 -2.16699 34.667 -6.5 50s-10.166 29.666 -17.499 42.999l-220 -229c24.667 -18.667 54.334 -28 89.001 -28zM149.997 246.002
c0 -18 2.16895 -34.832 6.50195 -50.499s10.166 -29.834 17.499 -42.501l220 229c-24 18 -54 27 -90 27c-22 0 -42.5 -4 -61.5 -12s-35.333 -19.167 -49 -33.5s-24.334 -31.5 -32.001 -51.5s-11.5 -42 -11.5 -66zM558.999 246.003c0 -37.333 -6.5 -71.833 -19.5 -103.5
s-30.833 -59 -53.5 -82s-49.667 -41 -81 -54s-65 -19.5 -101 -19.5c-30 0 -58.333 4.5 -85 13.5s-50.667 21.833 -72 38.5l-50 -52l-42 41l50 52c-17.333 22 -30.833 47 -40.5 75s-14.5 58.333 -14.5 91c0 37.333 6.5 71.833 19.5 103.5s30.833 59 53.5 82
s49.5 40.833 80.5 53.5s64.5 19 100.5 19c61.333 0 114 -17 158 -51l50 52l42 -41l-50 -53c17.333 -21.333 30.833 -46 40.5 -74s14.5 -58.333 14.5 -91z" />
    <glyph glyph-name="ugrave" unicode="&#xf9;" horiz-adv-x="605" 
d="M425 492l-0.000976562 -255c0 -21.333 -3.16699 -41.5 -9.5 -60.5s-15.5 -35.5 -27.5 -49.5s-26.333 -25.167 -43 -33.5s-35.334 -12.5 -56.001 -12.5c-17.333 0 -33.166 2.66699 -47.499 8s-26.833 14 -37.5 26s-19 27.833 -25 47.5s-9 43.5 -9 71.5v258h-100v-287
c0 -37.333 5.16699 -69.666 15.5 -96.999s24.333 -49.833 42 -67.5s38 -30.834 61 -39.501s47.167 -13 72.5 -13c32 0 63.333 6.33301 94 19s57.334 31.667 80.001 57h2l4 -64h84v492h-100zM299.999 559l-145 128l68 48l126 -141z" />
    <glyph glyph-name="uacute" unicode="&#xfa;" horiz-adv-x="605" 
d="M228 594l125 141l69 -48l-145 -128zM525 492l0.000976562 -492h-84l-4 64h-2c-22.667 -25.333 -49.334 -44.333 -80.001 -57s-62 -19 -94 -19c-25.333 0 -49.5 4.33301 -72.5 13s-43.333 21.834 -61 39.501s-31.667 40.167 -42 67.5s-15.5 59.666 -15.5 96.999v287h100
v-258c0 -28 3 -51.833 9 -71.5s14.333 -35.5 25 -47.5s23.167 -20.667 37.5 -26s30.166 -8 47.499 -8c20.667 0 39.334 4.16699 56.001 12.5s31 19.5 43 33.5s21.167 30.5 27.5 49.5s9.5 39.167 9.5 60.5v255h100z" />
    <glyph glyph-name="ucircumflex" unicode="&#xfb;" horiz-adv-x="605" 
d="M298 655l-102 -98l-50 34l112 126h80l112 -126l-50 -34zM525 492l0.000976562 -492h-84l-4 64h-2c-22.667 -25.333 -49.334 -44.333 -80.001 -57s-62 -19 -94 -19c-25.333 0 -49.5 4.33301 -72.5 13s-43.333 21.834 -61 39.501s-31.667 40.167 -42 67.5
s-15.5 59.666 -15.5 96.999v287h100v-258c0 -28 3 -51.833 9 -71.5s14.333 -35.5 25 -47.5s23.167 -20.667 37.5 -26s30.166 -8 47.499 -8c20.667 0 39.334 4.16699 56.001 12.5s31 19.5 43 33.5s21.167 30.5 27.5 49.5s9.5 39.167 9.5 60.5v255h100z" />
    <glyph glyph-name="udieresis" unicode="&#xfc;" horiz-adv-x="605" 
d="M142 639c0 17.333 5.83301 32 17.5 44s26.5 18 44.5 18c18.667 0 33.834 -6 45.501 -18s17.5 -26.667 17.5 -44s-5.83301 -32 -17.5 -44s-26.834 -18 -45.501 -18c-18 0 -32.833 6 -44.5 18s-17.5 26.667 -17.5 44zM332 639c0 17.333 5.83301 32 17.5 44s26.5 18 44.5 18
c18.667 0 33.834 -6 45.501 -18s17.5 -26.667 17.5 -44s-5.83301 -32 -17.5 -44s-26.834 -18 -45.501 -18c-18 0 -32.833 6 -44.5 18s-17.5 26.667 -17.5 44zM525 492l0.000976562 -492h-84l-4 64h-2c-22.667 -25.333 -49.334 -44.333 -80.001 -57s-62 -19 -94 -19
c-25.333 0 -49.5 4.33301 -72.5 13s-43.333 21.834 -61 39.501s-31.667 40.167 -42 67.5s-15.5 59.666 -15.5 96.999v287h100v-258c0 -28 3 -51.833 9 -71.5s14.333 -35.5 25 -47.5s23.167 -20.667 37.5 -26s30.166 -8 47.499 -8c20.667 0 39.334 4.16699 56.001 12.5
s31 19.5 43 33.5s21.167 30.5 27.5 49.5s9.5 39.167 9.5 60.5v255h100z" />
    <glyph glyph-name="yacute" unicode="&#xfd;" horiz-adv-x="559" 
d="M228 594l125 141l69 -48l-145 -128zM188 -200c-14 0 -27.498 1.33203 -40.498 3.99902s-25.5 5.66699 -37.5 9l17 90c11.333 -3.33301 21.666 -5.66602 30.999 -6.99902s19.666 -2 30.999 -2c15.333 0 28 6.33301 38 19s18.667 29.667 26 51l13 39l-246 489h119l167 -362
h2l121 362h110l-196 -552c-10 -28.667 -20.667 -52 -32 -70s-23.333 -32.167 -36 -42.5s-26.167 -17.5 -40.5 -21.5s-29.833 -6 -46.5 -6z" />
    <glyph glyph-name="thorn" unicode="&#xfe;" horiz-adv-x="638" 
d="M329 83c22.667 0 43.5 4 62.5 12s35.333 19.167 49 33.5s24.334 31.5 32.001 51.5s11.5 42 11.5 66s-3.83301 46.167 -11.5 66.5s-18.334 37.666 -32.001 51.999s-30 25.5 -49 33.5s-39.833 12 -62.5 12c-22 0 -42.5 -4 -61.5 -12s-35.333 -19.167 -49 -33.5
s-24.334 -31.666 -32.001 -51.999s-11.5 -42.5 -11.5 -66.5s3.83301 -46 11.5 -66s18.334 -37.167 32.001 -51.5s30 -25.5 49 -33.5s39.5 -12 61.5 -12zM343 505c34 0 65.833 -6.49902 95.5 -19.499s55.167 -31 76.5 -54s38.166 -50.333 50.499 -82
s18.5 -66.167 18.5 -103.5s-6.16699 -71.833 -18.5 -103.5s-29.166 -59 -50.499 -82s-46.833 -40.833 -76.5 -53.5s-61.5 -19 -95.5 -19c-32.667 0 -63 5.66699 -91 17s-52.667 27.666 -74 48.999h-2v-254h-100v925h100v-287h2c21.333 21.333 46 37.833 74 49.5
s58.333 17.5 91 17.5z" />
    <glyph glyph-name="ydieresis" unicode="&#xff;" horiz-adv-x="559" 
d="M135 639c0 17.333 5.83301 32 17.5 44s26.5 18 44.5 18c18.667 0 33.834 -6 45.501 -18s17.5 -26.667 17.5 -44s-5.83301 -32 -17.5 -44s-26.834 -18 -45.501 -18c-18 0 -32.833 6 -44.5 18s-17.5 26.667 -17.5 44zM325 639c0 17.333 5.83301 32 17.5 44s26.5 18 44.5 18
c18.667 0 33.834 -6 45.501 -18s17.5 -26.667 17.5 -44s-5.83301 -32 -17.5 -44s-26.834 -18 -45.501 -18c-18 0 -32.833 6 -44.5 18s-17.5 26.667 -17.5 44zM188 -200c-14 0 -27.498 1.33203 -40.498 3.99902s-25.5 5.66699 -37.5 9l17 90
c11.333 -3.33301 21.666 -5.66602 30.999 -6.99902s19.666 -2 30.999 -2c15.333 0 28 6.33301 38 19s18.667 29.667 26 51l13 39l-246 489h119l167 -362h2l121 362h110l-196 -552c-10 -28.667 -20.667 -52 -32 -70s-23.333 -32.167 -36 -42.5s-26.167 -17.5 -40.5 -21.5
s-29.833 -6 -46.5 -6z" />
    <glyph glyph-name="Amacron" unicode="&#x100;" horiz-adv-x="716" 
d="M217 852h282v-65h-282v65zM298.5 399.5l-60.5 -147.5h240l-60.5 147.5l-58.5 147.5h-2zM519 154h-323l-66 -154h-115l297 682h91l298 -682h-116z" />
    <glyph glyph-name="amacron" unicode="&#x101;" horiz-adv-x="558" 
d="M136 662h282v-65h-282v65zM253 76c16 0 32.001 2.50098 48.001 7.50098s30.5 12.5 43.5 22.5s23.5 22.833 31.5 38.5s12 34.167 12 55.5v13c-22 4.66699 -42.167 8.16699 -60.5 10.5s-36.833 3.5 -55.5 3.5c-35.333 0 -64.5 -5.33301 -87.5 -16
s-34.5 -30.334 -34.5 -59.001c0 -13.333 2.83301 -24.833 8.5 -34.5s13.167 -17.5 22.5 -23.5s20.166 -10.5 32.499 -13.5s25.5 -4.5 39.5 -4.5zM269.001 505.001c75.333 0 130.668 -18.332 166.001 -54.999s53 -86.334 53 -149.001v-301h-84l-4 59h-2
c-18.667 -22 -41.667 -39.5 -69 -52.5s-59 -19.5 -95 -19.5c-30 0 -56.333 4.33301 -79 13s-41.834 20.5 -57.501 35.5s-27.5 32.5 -35.5 52.5s-12 41.333 -12 64c0 52.667 18.167 93.167 54.5 121.5s87.833 42.5 154.5 42.5c21.333 0 42.833 -1 64.5 -3
s43.167 -4.66699 64.5 -8v14c0 62.667 -39.333 94 -118 94c-26 0 -52.333 -3.16699 -79 -9.5s-53 -17.833 -79 -34.5l-47 83c30.667 15.333 63.5 28 98.5 38s70.167 15 105.5 15z" />
    <glyph glyph-name="Abreve" unicode="&#x102;" horiz-adv-x="716" 
d="M358 757c-17.333 0 -33.833 2.5 -49.5 7.5s-30 12.333 -43 22s-24.333 21.167 -34 34.5s-16.834 28.333 -21.501 45l55 22c16.667 -46 47.667 -69 93 -69c44.667 0 75.667 23 93 69l54 -22c-9.33301 -34 -27.666 -60.667 -54.999 -80s-58 -29 -92 -29zM298.5 399.5
l-60.5 -147.5h240l-60.5 147.5l-58.5 147.5h-2zM519 154h-323l-66 -154h-115l297 682h91l298 -682h-116z" />
    <glyph glyph-name="abreve" unicode="&#x103;" horiz-adv-x="558" 
d="M253 76c16 0 32.001 2.50098 48.001 7.50098s30.5 12.5 43.5 22.5s23.5 22.833 31.5 38.5s12 34.167 12 55.5v13c-22 4.66699 -42.167 8.16699 -60.5 10.5s-36.833 3.5 -55.5 3.5c-35.333 0 -64.5 -5.33301 -87.5 -16s-34.5 -30.334 -34.5 -59.001
c0 -13.333 2.83301 -24.833 8.5 -34.5s13.167 -17.5 22.5 -23.5s20.166 -10.5 32.499 -13.5s25.5 -4.5 39.5 -4.5zM269.001 505.001c75.333 0 130.668 -18.332 166.001 -54.999s53 -86.334 53 -149.001v-301h-84l-4 59h-2c-18.667 -22 -41.667 -39.5 -69 -52.5
s-59 -19.5 -95 -19.5c-30 0 -56.333 4.33301 -79 13s-41.834 20.5 -57.501 35.5s-27.5 32.5 -35.5 52.5s-12 41.333 -12 64c0 52.667 18.167 93.167 54.5 121.5s87.833 42.5 154.5 42.5c21.333 0 42.833 -1 64.5 -3s43.167 -4.66699 64.5 -8v14c0 62.667 -39.333 94 -118 94
c-26 0 -52.333 -3.16699 -79 -9.5s-53 -17.833 -79 -34.5l-47 83c30.667 15.333 63.5 28 98.5 38s70.167 15 105.5 15zM274.003 567.002c-34 0 -64.833 9.66699 -92.5 29s-46.167 46 -55.5 80l55 22c16.667 -46 47.667 -69 93 -69s76.333 23 93 69l55 -22
c-9.33301 -34 -27.833 -60.667 -55.5 -80s-58.5 -29 -92.5 -29z" />
    <glyph glyph-name="Aogonek" unicode="&#x104;" horiz-adv-x="716" 
d="M478 252l-27.5 66.5l-32 79.5l-32 80.5l-27.5 68.5h-2l-27.5 -68.5l-32 -80.5l-32 -79.5l-27.5 -66.5h240zM612 -148c8.66699 0 16.832 1.33398 24.499 4.00098s15.5 6 23.5 10l18 -41c-11.333 -7.33301 -25.5 -13.333 -42.5 -18s-33.5 -7 -49.5 -7
c-28 0 -49.667 7 -65 21s-23 32 -23 54c0 20 6.83301 40.333 20.5 61s35.834 42 66.501 64l-66 154h-323l-66 -154h-115l297 682h91l298 -682h-51c-30 -24.667 -50.5 -45.834 -61.5 -63.501s-16.5 -33.167 -16.5 -46.5c0 -10.667 3.33301 -19.667 10 -27s16.667 -11 30 -11z
" />
    <glyph glyph-name="aogonek" unicode="&#x105;" horiz-adv-x="558" 
d="M272 227c-35.333 0 -64.499 -5.33203 -87.499 -15.999s-34.5 -30.334 -34.5 -59.001c0 -13.333 2.83301 -24.833 8.5 -34.5s13.167 -17.5 22.5 -23.5s20.166 -10.5 32.499 -13.5s25.5 -4.5 39.5 -4.5c16 0 32 2.5 48 7.5s30.5 12.5 43.5 22.5s23.5 22.833 31.5 38.5
s12 34.167 12 55.5v13c-22 4.66699 -42.167 8.16699 -60.5 10.5s-36.833 3.5 -55.5 3.5zM405.001 -199.999c-28 0 -49.666 7.00195 -64.999 21.002s-23 32 -23 54c0 20 6.83301 40.333 20.5 61s35.834 42 66.501 64l-4 59h-2c-18.667 -22 -41.667 -39.5 -69 -52.5
s-59 -19.5 -95 -19.5c-30 0 -56.333 4.33301 -79 13s-41.834 20.5 -57.501 35.5s-27.5 32.5 -35.5 52.5s-12 41.333 -12 64c0 52.667 18.167 93.167 54.5 121.5s87.833 42.5 154.5 42.5c21.333 0 42.833 -1 64.5 -3s43.167 -4.66699 64.5 -8v14c0 62.667 -39.333 94 -118 94
c-26 0 -52.333 -3.16699 -79 -9.5s-53 -17.833 -79 -34.5l-47 83c30.667 15.333 63.5 28 98.5 38s70.167 15 105.5 15c75.333 0 130.666 -18.333 165.999 -55s53 -86.334 53 -149.001v-301h-19c-30 -24.667 -50.5 -45.834 -61.5 -63.501s-16.5 -33.167 -16.5 -46.5
c0 -10.667 3.33301 -19.667 10 -27s16.667 -11 30 -11c8 0 16 1.33301 24 4s16 6 24 10l18 -41c-11.333 -7.33301 -25.5 -13.333 -42.5 -18s-33.5 -7 -49.5 -7z" />
    <glyph glyph-name="Cacute" unicode="&#x106;" horiz-adv-x="720" 
d="M326 784l125 141l69 -48l-145 -128zM403 84c-35.333 0 -68.001 6.32715 -98.001 18.9941s-56 30.167 -78 52.5s-39.333 49.333 -52 81s-19 66.5 -19 104.5s6.33301 72.667 19 104s30 58.333 52 81s48 40.167 78 52.5s62.667 18.5 98 18.5
c38.667 0 74.167 -7.66699 106.5 -23s59.5 -36.666 81.5 -63.999l78 69c-32 37.333 -70.833 65.833 -116.5 85.5s-95.5 29.5 -149.5 29.5c-49.333 0 -95.333 -8.66699 -138 -26s-79.667 -41.666 -111 -72.999s-56 -68.666 -74 -111.999s-27 -90.666 -27 -141.999
s9 -98.666 27 -141.999s42.667 -80.666 74 -111.999s68.333 -55.833 111 -73.5s88.667 -26.5 138 -26.5c54.667 0 105.334 10.5 152.001 31.5s86 50.5 118 88.5l-79 68c-22 -28 -49.333 -50.167 -82 -66.5s-69 -24.5 -109 -24.5z" />
    <glyph glyph-name="cacute" unicode="&#x107;" horiz-adv-x="542" 
d="M231 594l125 141l69 -48l-145 -128zM304 83c26 0 49.168 4.99902 69.501 14.999s37.166 24 50.499 42l73 -67c-23.333 -27.333 -51.333 -48.333 -84 -63s-69 -22 -109 -22c-36 0 -69.5 6.33301 -100.5 19s-57.833 30.5 -80.5 53.5s-40.5 50.333 -53.5 82
s-19.5 66.167 -19.5 103.5s6.5 71.833 19.5 103.5s30.833 59 53.5 82s49.5 40.833 80.5 53.5s64.5 19 100.5 19c39.333 0 75.166 -7.33301 107.499 -22s60.166 -35 83.499 -61l-72 -68c-13.333 18 -30.166 32 -50.499 42s-43.166 15 -68.499 15c-22 0 -42.5 -4 -61.5 -12
s-35.333 -19.167 -49 -33.5s-24.334 -31.666 -32.001 -51.999s-11.5 -42.5 -11.5 -66.5s3.83301 -46 11.5 -66s18.334 -37.167 32.001 -51.5s30 -25.5 49 -33.5s39.5 -12 61.5 -12z" />
    <glyph glyph-name="Ccircumflex" unicode="&#x108;" horiz-adv-x="720" 
d="M398 845l-102 -98l-50 34l112 126h80l111 -126l-49 -34zM403 84c-35.333 0 -68.001 6.32715 -98.001 18.9941s-56 30.167 -78 52.5s-39.333 49.333 -52 81s-19 66.5 -19 104.5s6.33301 72.667 19 104s30 58.333 52 81s48 40.167 78 52.5s62.667 18.5 98 18.5
c38.667 0 74.167 -7.66699 106.5 -23s59.5 -36.666 81.5 -63.999l78 69c-32 37.333 -70.833 65.833 -116.5 85.5s-95.5 29.5 -149.5 29.5c-49.333 0 -95.333 -8.66699 -138 -26s-79.667 -41.666 -111 -72.999s-56 -68.666 -74 -111.999s-27 -90.666 -27 -141.999
s9 -98.666 27 -141.999s42.667 -80.666 74 -111.999s68.333 -55.833 111 -73.5s88.667 -26.5 138 -26.5c54.667 0 105.334 10.5 152.001 31.5s86 50.5 118 88.5l-79 68c-22 -28 -49.333 -50.167 -82 -66.5s-69 -24.5 -109 -24.5z" />
    <glyph glyph-name="ccircumflex" unicode="&#x109;" horiz-adv-x="542" 
d="M297 655l-102 -98l-50 34l112 126h80l112 -126l-50 -34zM304 83c26 0 49.168 4.99902 69.501 14.999s37.166 24 50.499 42l73 -67c-23.333 -27.333 -51.333 -48.333 -84 -63s-69 -22 -109 -22c-36 0 -69.5 6.33301 -100.5 19s-57.833 30.5 -80.5 53.5
s-40.5 50.333 -53.5 82s-19.5 66.167 -19.5 103.5s6.5 71.833 19.5 103.5s30.833 59 53.5 82s49.5 40.833 80.5 53.5s64.5 19 100.5 19c39.333 0 75.166 -7.33301 107.499 -22s60.166 -35 83.499 -61l-72 -68c-13.333 18 -30.166 32 -50.499 42s-43.166 15 -68.499 15
c-22 0 -42.5 -4 -61.5 -12s-35.333 -19.167 -49 -33.5s-24.334 -31.666 -32.001 -51.999s-11.5 -42.5 -11.5 -66.5s3.83301 -46 11.5 -66s18.334 -37.167 32.001 -51.5s30 -25.5 49 -33.5s39.5 -12 61.5 -12z" />
    <glyph glyph-name="Cdotaccent" unicode="&#x10a;" horiz-adv-x="720" 
d="M403 887c17.333 0 31.333 -5.66699 42 -17s16 -25 16 -41c0 -15.333 -5.33301 -28.666 -16 -39.999s-24.667 -17 -42 -17s-31.5 5.66699 -42.5 17s-16.5 24.666 -16.5 39.999c0 16 5.5 29.667 16.5 41s25.167 17 42.5 17zM403 84
c-35.333 0 -68.001 6.32715 -98.001 18.9941s-56 30.167 -78 52.5s-39.333 49.333 -52 81s-19 66.5 -19 104.5s6.33301 72.667 19 104s30 58.333 52 81s48 40.167 78 52.5s62.667 18.5 98 18.5c38.667 0 74.167 -7.66699 106.5 -23s59.5 -36.666 81.5 -63.999l78 69
c-32 37.333 -70.833 65.833 -116.5 85.5s-95.5 29.5 -149.5 29.5c-49.333 0 -95.333 -8.66699 -138 -26s-79.667 -41.666 -111 -72.999s-56 -68.666 -74 -111.999s-27 -90.666 -27 -141.999s9 -98.666 27 -141.999s42.667 -80.666 74 -111.999s68.333 -55.833 111 -73.5
s88.667 -26.5 138 -26.5c54.667 0 105.334 10.5 152.001 31.5s86 50.5 118 88.5l-79 68c-22 -28 -49.333 -50.167 -82 -66.5s-69 -24.5 -109 -24.5z" />
    <glyph glyph-name="cdotaccent" unicode="&#x10b;" horiz-adv-x="542" 
d="M304 83c-22 0 -42.501 4.00098 -61.501 12.001s-35.333 19.167 -49 33.5s-24.334 31.5 -32.001 51.5s-11.5 42 -11.5 66s3.83301 46.167 11.5 66.5s18.334 37.666 32.001 51.999s30 25.5 49 33.5s39.5 12 61.5 12c25.333 0 48.166 -5 68.499 -15s37.166 -24 50.499 -42
l72 68c-23.333 26 -51.166 46.333 -83.499 61s-68.166 22 -107.499 22c-36 0 -69.5 -6.33301 -100.5 -19s-57.833 -30.5 -80.5 -53.5s-40.5 -50.333 -53.5 -82s-19.5 -66.167 -19.5 -103.5s6.5 -71.833 19.5 -103.5s30.833 -59 53.5 -82s49.5 -40.833 80.5 -53.5
s64.5 -19 100.5 -19c40 0 76.333 7.33301 109 22s60.667 35.667 84 63l-73 67c-13.333 -18 -30.166 -32 -50.499 -42s-43.5 -15 -69.5 -15zM359.999 639.001c0 -15.333 -5.5 -28.666 -16.5 -39.999s-25.167 -17 -42.5 -17s-31.333 5.66699 -42 17s-16 24.666 -16 39.999
c0 16 5.33301 29.667 16 41s24.667 17 42 17s31.5 -5.66699 42.5 -17s16.5 -25 16.5 -41z" />
    <glyph glyph-name="Ccaron" unicode="&#x10c;" horiz-adv-x="720" 
d="M505 923l50 -34l-112 -126h-80l-112 126l50 34l102 -98zM403 -13c-49.333 0 -95.332 8.83887 -137.999 26.5059s-79.667 42.167 -111 73.5s-56 68.666 -74 111.999s-27 90.666 -27 141.999s9 98.666 27 141.999s42.667 80.666 74 111.999s68.333 55.666 111 72.999
s88.667 26 138 26c54 0 103.833 -9.83301 149.5 -29.5s84.5 -48.167 116.5 -85.5l-78 -69c-22 27.333 -49.167 48.666 -81.5 63.999s-67.833 23 -106.5 23c-35.333 0 -68 -6.16699 -98 -18.5s-56 -29.833 -78 -52.5s-39.333 -49.667 -52 -81s-19 -66 -19 -104
s6.33301 -72.833 19 -104.5s30 -58.667 52 -81s48 -39.833 78 -52.5s62.667 -19 98 -19c40 0 76.333 8.16699 109 24.5s60 38.5 82 66.5l79 -68c-32 -38 -71.333 -67.5 -118 -88.5s-97.334 -31.5 -152.001 -31.5z" />
    <glyph glyph-name="ccaron" unicode="&#x10d;" horiz-adv-x="542" 
d="M304 83c-22 0 -42.501 4.00098 -61.501 12.001s-35.333 19.167 -49 33.5s-24.334 31.5 -32.001 51.5s-11.5 42 -11.5 66s3.83301 46.167 11.5 66.5s18.334 37.666 32.001 51.999s30 25.5 49 33.5s39.5 12 61.5 12c25.333 0 48.166 -5 68.499 -15s37.166 -24 50.499 -42
l72 68c-23.333 26 -51.166 46.333 -83.499 61s-68.166 22 -107.499 22c-36 0 -69.5 -6.33301 -100.5 -19s-57.833 -30.5 -80.5 -53.5s-40.5 -50.333 -53.5 -82s-19.5 -66.167 -19.5 -103.5s6.5 -71.833 19.5 -103.5s30.833 -59 53.5 -82s49.5 -40.833 80.5 -53.5
s64.5 -19 100.5 -19c40 0 76.333 7.33301 109 22s60.667 35.667 84 63l-73 67c-13.333 -18 -30.166 -32 -50.499 -42s-43.5 -15 -69.5 -15zM399.999 733.001l50 -34l-112 -126h-80l-112 126l50 34l102 -98z" />
    <glyph glyph-name="Dcaron" unicode="&#x10e;" horiz-adv-x="708" 
d="M425 923l50 -34l-112 -126h-80l-112 126l50 34l102 -98zM655 341c0 -53.333 -8.33301 -101 -25 -143s-40.334 -77.667 -71.001 -107s-67.834 -51.833 -111.501 -67.5s-92.5 -23.5 -146.5 -23.5h-216v682h216c54 0 102.833 -7.83301 146.5 -23.5
s80.834 -38.167 111.501 -67.5s54.334 -65 71.001 -107s25 -89.667 25 -143zM551 341c0 78.667 -21.833 138.832 -65.5 180.499s-106.5 62.5 -188.5 62.5h-109v-486h109c82 0 144.833 20.833 188.5 62.5s65.5 101.834 65.5 180.501z" />
    <glyph glyph-name="dcaron" unicode="&#x10f;" horiz-adv-x="772" 
d="M762 682l-18 -36.999c-6.66699 -13.333 -13.667 -26.5 -21 -39.5s-15 -25.5 -23 -37.5l-23 -33h-70c12 25.333 22.833 51.166 32.5 77.499s17.167 49.5 22.5 69.5h100zM304 83.001c22.667 0 43.5 4 62.5 12s35.333 19.167 49 33.5s24.334 31.5 32.001 51.5
s11.5 42 11.5 66s-3.83301 46.167 -11.5 66.5s-18.334 37.666 -32.001 51.999s-30 25.5 -49 33.5s-39.833 12 -62.5 12c-22 0 -42.5 -4 -61.5 -12s-35.333 -19.167 -49 -33.5s-24.334 -31.666 -32.001 -51.999s-11.5 -42.5 -11.5 -66.5s3.83301 -46 11.5 -66
s18.334 -37.167 32.001 -51.5s30 -25.5 49 -33.5s39.5 -12 61.5 -12zM558 725.001v-724.999h-84l-4 66h-2c-22 -24.667 -48 -43.834 -78 -57.501s-63 -20.5 -99 -20.5c-34 0 -65.833 6.33301 -95.5 19s-55.167 30.5 -76.5 53.5s-38.166 50.333 -50.499 82
s-18.5 66.167 -18.5 103.5s6.16699 71.833 18.5 103.5s29.166 59 50.499 82s46.833 41 76.5 54s61.5 19.5 95.5 19.5c32.667 0 63 -5.83301 91 -17.5s52.667 -28.167 74 -49.5h2v287h100z" />
    <glyph glyph-name="Dcroat" unicode="&#x110;" horiz-adv-x="708" 
d="M551 341c0 81.333 -22.5 142.168 -67.5 182.501s-107.167 60.5 -186.5 60.5h-109v-200h174v-86h-174v-200h109c79.333 0 141.5 20.167 186.5 60.5s67.5 101.166 67.5 182.499zM655 341.002c0 -54 -8.5 -102.167 -25.5 -144.5s-41 -78 -72 -107
s-68.333 -51.167 -112 -66.5s-91.834 -23 -144.501 -23h-216v298h-68v86h68v298h216c52.667 0 100.834 -7.66699 144.501 -23s81 -37.5 112 -66.5s55 -64.667 72 -107s25.5 -90.5 25.5 -144.5z" />
    <glyph glyph-name="dcroat" unicode="&#x111;" horiz-adv-x="638" 
d="M304 83c22.667 0 43.5 4 62.5 12s35.333 19.167 49 33.5s24.334 31.5 32.001 51.5s11.5 42 11.5 66s-3.83301 46 -11.5 66s-18.334 37.167 -32.001 51.5s-30 25.5 -49 33.5s-39.833 12 -62.5 12c-22 0 -42.5 -4 -61.5 -12s-35.333 -19.167 -49 -33.5
s-24.334 -31.5 -32.001 -51.5s-11.5 -42 -11.5 -66s3.83301 -46 11.5 -66s18.334 -37.167 32.001 -51.5s30 -25.5 49 -33.5s39.5 -12 61.5 -12zM618 568l-60 0.000976562v-568h-84l-4 66h-2c-22 -24.667 -48 -43.834 -78 -57.501s-63 -20.5 -99 -20.5
c-34 0 -65.833 6.33301 -95.5 19s-55.167 30.5 -76.5 53.5s-38.166 50.333 -50.499 82s-18.5 66.167 -18.5 103.5s6.16699 71.833 18.5 103.5s29.166 59 50.499 82s46.833 41 76.5 54s61.5 19.5 95.5 19.5c32.667 0 63 -5.83301 91 -17.5s52.667 -28.167 74 -49.5h2v130
h-124v59h124v98h100v-98h60v-59z" />
    <glyph glyph-name="Emacron" unicode="&#x112;" horiz-adv-x="609" 
d="M177 852h282v-65h-282v65zM544 98h-356v198h319v98h-319v190h347v98h-450v-682h459v98z" />
    <glyph glyph-name="emacron" unicode="&#x113;" horiz-adv-x="573" 
d="M146 662h282v-65h-282v65zM290 411c-38 0 -68.5 -10.333 -91.5 -31s-37.833 -50 -44.5 -88h262c-5.33301 41.333 -18.833 71.5 -40.5 90.5s-50.167 28.5 -85.5 28.5zM520 240c0 -4.66699 -0.166992 -9.99805 -0.5 -15.998s-0.5 -12.667 -0.5 -20h-366
c7.33301 -41.333 24.166 -72.5 50.499 -93.5s58.5 -31.5 96.5 -31.5c24.667 0 48.334 5.33301 71.001 16s41.667 25.667 57 45l72 -68c-23.333 -26.667 -52.5 -47.667 -87.5 -63s-73.167 -23 -114.5 -23c-36 0 -69.167 6.5 -99.5 19.5s-56.5 31 -78.5 54
s-39.167 50.333 -51.5 82s-18.5 66.167 -18.5 103.5s5.83301 71.833 17.5 103.5s28 59 49 82s46.167 40.833 75.5 53.5s61.666 19 96.999 19c34.667 0 66.5 -5.83301 95.5 -17.5s53.833 -28.334 74.5 -50.001s36.334 -47.834 47.001 -78.501
c9.33301 -27.333 14 -57.333 14 -90v-13v-14z" />
    <glyph glyph-name="Ebreve" unicode="&#x114;" horiz-adv-x="609" 
d="M318 757c-17.333 0 -33.833 2.5 -49.5 7.5s-30 12.333 -43 22s-24.333 21.167 -34 34.5s-16.834 28.333 -21.501 45l55 22c16.667 -46 47.667 -69 93 -69c44.667 0 75.667 23 93 69l54 -22c-9.33301 -34 -27.666 -60.667 -54.999 -80s-58 -29 -92 -29zM544 98h-356v198
h319v98h-319v190h347v98h-450v-682h459v98z" />
    <glyph glyph-name="ebreve" unicode="&#x115;" horiz-adv-x="573" 
d="M290 567c-34 0 -64.833 9.66699 -92.5 29s-46.167 46 -55.5 80l55 22c16.667 -46 47.667 -69 93 -69s76.333 23 93 69l55 -22c-9.33301 -34 -27.833 -60.667 -55.5 -80s-58.5 -29 -92.5 -29zM290 411c-38 0 -68.5 -10.333 -91.5 -31s-37.833 -50 -44.5 -88h262
c-5.33301 41.333 -18.833 71.5 -40.5 90.5s-50.167 28.5 -85.5 28.5zM520 240c0 -4.66699 -0.166992 -9.99805 -0.5 -15.998s-0.5 -12.667 -0.5 -20h-366c7.33301 -41.333 24.166 -72.5 50.499 -93.5s58.5 -31.5 96.5 -31.5c24.667 0 48.334 5.33301 71.001 16
s41.667 25.667 57 45l72 -68c-23.333 -26.667 -52.5 -47.667 -87.5 -63s-73.167 -23 -114.5 -23c-36 0 -69.167 6.5 -99.5 19.5s-56.5 31 -78.5 54s-39.167 50.333 -51.5 82s-18.5 66.167 -18.5 103.5s5.83301 71.833 17.5 103.5s28 59 49 82s46.167 40.833 75.5 53.5
s61.666 19 96.999 19c34.667 0 66.5 -5.83301 95.5 -17.5s53.833 -28.334 74.5 -50.001s36.334 -47.834 47.001 -78.501c9.33301 -27.333 14 -57.333 14 -90v-13v-14z" />
    <glyph glyph-name="Edotaccent" unicode="&#x116;" horiz-adv-x="609" 
d="M323 887c17.333 0 31.333 -5.66699 42 -17s16 -25 16 -41c0 -15.333 -5.33301 -28.666 -16 -39.999s-24.667 -17 -42 -17s-31.5 5.66699 -42.5 17s-16.5 24.666 -16.5 39.999c0 16 5.5 29.667 16.5 41s25.167 17 42.5 17zM544 98h-356v198h319v98h-319v190h347v98h-450
v-682h459v98z" />
    <glyph glyph-name="edotaccent" unicode="&#x117;" horiz-adv-x="573" 
d="M520 267c0 32.667 -4.66699 62.665 -14 89.998c-10.667 30.667 -26.334 56.834 -47.001 78.501s-45.5 38.334 -74.5 50.001s-60.833 17.5 -95.5 17.5c-35.333 0 -67.666 -6.33301 -96.999 -19s-54.5 -30.5 -75.5 -53.5s-37.333 -50.333 -49 -82
s-17.5 -66.167 -17.5 -103.5s6.16699 -71.833 18.5 -103.5s29.5 -59 51.5 -82s48.167 -41 78.5 -54s63.5 -19.5 99.5 -19.5c41.333 0 79.5 7.66699 114.5 23s64.167 36.333 87.5 63l-72 68c-15.333 -19.333 -34.333 -34.333 -57 -45s-46.334 -16 -71.001 -16
c-38 0 -70.167 10.5 -96.5 31.5s-43.166 52.167 -50.499 93.5h366c0 7.33301 0.166992 14 0.5 20s0.5 11.333 0.5 16v14v13zM290 410.998c35.333 0 63.833 -9.5 85.5 -28.5s35.167 -49.167 40.5 -90.5h-262c6.66699 38 21.5 67.333 44.5 88s53.5 31 91.5 31zM233 638.998
c0 17.333 5.83301 32 17.5 44s26.5 18 44.5 18c18.667 0 33.834 -6 45.501 -18s17.5 -26.667 17.5 -44s-5.83301 -32 -17.5 -44s-26.834 -18 -45.501 -18c-18 0 -32.833 6 -44.5 18s-17.5 26.667 -17.5 44z" />
    <glyph glyph-name="Eogonek" unicode="&#x118;" horiz-adv-x="609" 
d="M437 -110c0 -10.667 3.33301 -19.666 10 -26.999s16.667 -11 30 -11c8.66699 0 16.834 1.33301 24.501 4s15.5 6 23.5 10l18 -41c-11.333 -7.33301 -25.333 -13.333 -42 -18s-33.334 -7 -50.001 -7c-28 0 -49.667 7 -65 21s-23 32 -23 54c0 19.333 6.66699 39.333 20 60
s35 41.667 65 63v2h-363v682h450v-98h-347v-190h319v-98h-319v-198h355v-98h-28c-30 -24.667 -50.5 -45.834 -61.5 -63.501s-16.5 -33.167 -16.5 -46.5z" />
    <glyph glyph-name="eogonek" unicode="&#x119;" horiz-adv-x="573" 
d="M290 411c-38 0 -68.5 -10.167 -91.5 -30.5s-37.833 -49.5 -44.5 -87.5h262c-5.33301 41.333 -18.833 71.333 -40.5 90s-50.167 28 -85.5 28zM520 241c0 -4.66699 -0.167969 -10 -0.500977 -16s-0.5 -12.667 -0.5 -20h-366c7.33301 -41.333 24.166 -72.5 50.499 -93.5
s58.5 -31.5 96.5 -31.5c24.667 0 48.334 5.33301 71.001 16s41.667 25.667 57 45l72 -68c-18 -20.667 -39.667 -37.834 -65 -51.501s-53 -23.167 -83 -28.5c-26 -23.333 -44 -43.166 -54 -59.499s-15 -30.833 -15 -43.5c0 -10.667 3.33301 -19.667 10 -27s16.667 -11 30 -11
c8.66699 0 16.834 1.33301 24.501 4s15.5 6 23.5 10l18 -41c-11.333 -7.33301 -25.333 -13.333 -42 -18s-33.334 -7 -50.001 -7c-28 0 -49.667 7 -65 21s-23 32 -23 54c0 17.333 5.5 35.333 16.5 54s28.5 37.667 52.5 57v2c-33.333 2.66699 -63.833 10.834 -91.5 24.501
s-51.667 31.834 -72 54.501s-36.166 49.167 -47.499 79.5s-17 63.5 -17 99.5c0 37.333 5.83301 71.833 17.5 103.5s28 59 49 82s46.167 40.833 75.5 53.5s61.666 19 96.999 19c34.667 0 66.5 -5.83301 95.5 -17.5s53.833 -28.334 74.5 -50.001
s36.334 -47.834 47.001 -78.501c9.33301 -27.333 14 -57.333 14 -90v-13v-14z" />
    <glyph glyph-name="Ecaron" unicode="&#x11a;" horiz-adv-x="609" 
d="M425 923l50 -34l-112 -126h-80l-112 126l50 34l102 -98zM544 0h-459v682h450v-98h-347v-190h319v-98h-319v-198h356v-98z" />
    <glyph glyph-name="ecaron" unicode="&#x11b;" horiz-adv-x="573" 
d="M520 267c0 32.667 -4.66699 62.665 -14 89.998c-10.667 30.667 -26.334 56.834 -47.001 78.501s-45.5 38.334 -74.5 50.001s-60.833 17.5 -95.5 17.5c-35.333 0 -67.666 -6.33301 -96.999 -19s-54.5 -30.5 -75.5 -53.5s-37.333 -50.333 -49 -82
s-17.5 -66.167 -17.5 -103.5s6.16699 -71.833 18.5 -103.5s29.5 -59 51.5 -82s48.167 -41 78.5 -54s63.5 -19.5 99.5 -19.5c41.333 0 79.5 7.66699 114.5 23s64.167 36.333 87.5 63l-72 68c-15.333 -19.333 -34.333 -34.333 -57 -45s-46.334 -16 -71.001 -16
c-38 0 -70.167 10.5 -96.5 31.5s-43.166 52.167 -50.499 93.5h366c0 7.33301 0.166992 14 0.5 20s0.5 11.333 0.5 16v14v13zM290 410.998c35.333 0 63.833 -9.5 85.5 -28.5s35.167 -49.167 40.5 -90.5h-262c6.66699 38 21.5 67.333 44.5 88s53.5 31 91.5 31zM394 732.998
l50 -34l-112 -126h-80l-112 126l50 34l102 -98z" />
    <glyph glyph-name="Gcircumflex" unicode="&#x11c;" horiz-adv-x="749" 
d="M398 845l-102 -98l-50 34l112 126h80l111 -126l-49 -34zM674 376l-264.001 -0.00390625v-98h161v-159c-28 -12 -56.167 -20.833 -84.5 -26.5s-56.166 -8.5 -83.499 -8.5c-35.333 0 -68 6.33301 -98 19s-56 30.167 -78 52.5s-39.333 49.333 -52 81s-19 66.5 -19 104.5
s6.33301 72.667 19 104s30 58.333 52 81s48 40.167 78 52.5s62.667 18.5 98 18.5c38.667 0 74.167 -7.66699 106.5 -23s59.5 -36.666 81.5 -63.999l78 69c-32 37.333 -70.833 65.833 -116.5 85.5s-95.5 29.5 -149.5 29.5c-49.333 0 -95.333 -8.66699 -138 -26
s-79.667 -41.666 -111 -72.999s-56 -68.666 -74 -111.999s-27 -90.666 -27 -141.999s9 -98.666 27 -141.999s42.667 -80.666 74 -111.999s68.333 -55.833 111 -73.5s88.667 -26.5 138 -26.5c27.333 0 53.833 2.16699 79.5 6.5s50 10.166 73 17.499s44.5 15.666 64.5 24.999
s38 19 54 29v311z" />
    <glyph glyph-name="gcircumflex" unicode="&#x11d;" horiz-adv-x="584" 
d="M296 655l-102 -98l-50 34l112 126h80l112 -126l-50 -34zM297 -117c48 0 85.001 6.16504 111.001 18.498s39 30.833 39 55.5c0 23.333 -13 38.833 -39 46.5s-63 12.834 -111 15.501l-95 5c-2.66699 0.666992 -5 1 -7 1s-4 0.333008 -6 1
c-14 -9.33301 -24 -20.166 -30 -32.499s-9 -24.5 -9 -36.5c0 -25.333 13.167 -44 39.5 -56s62.166 -18 107.499 -18zM297.001 415.998c-31.333 0 -57.999 -6.66699 -79.999 -20s-33 -33.333 -33 -60c0 -13.333 3 -25.166 9 -35.499s14.167 -18.833 24.5 -25.5
s22.333 -11.667 36 -15s28.167 -5 43.5 -5c31.333 0 58.166 6.66699 80.499 20s33.5 33.666 33.5 60.999c0 13.333 -3 25 -9 35s-14.167 18.333 -24.5 25s-22.333 11.667 -36 15s-28.5 5 -44.5 5zM544.002 -43.002c0 -46 -21 -83.5 -63 -112.5s-103.333 -43.5 -184 -43.5
c-79.333 0 -140.333 14.167 -183 42.5s-64 66.166 -64 113.499c0 21.333 6.66699 41.5 20 60.5s30.333 32.5 51 40.5v2c-10.667 10 -19.167 21.333 -25.5 34s-9.5 26.667 -9.5 42s3.66699 30.166 11 44.499s19.666 27.166 36.999 38.499v2
c-33.333 31.333 -50 69.666 -50 114.999c0 24 4.83301 46.333 14.5 67s23.834 38.5 42.501 53.5s41 26.833 67 35.5s55.667 13 89 13c19.333 0 37.5 -1.66699 54.5 -5s32.833 -7.66602 47.5 -12.999l78 78l62 -63l-67 -63c26 -29.333 39 -63.666 39 -102.999
c0 -24 -5 -46.333 -15 -67s-24.167 -38.5 -42.5 -53.5s-40.833 -26.833 -67.5 -35.5s-56.334 -13 -89.001 -13c-18.667 0 -36.167 1.33301 -52.5 4s-31.5 6.66699 -45.5 12c-9.33301 -5.33301 -15.333 -11.166 -18 -17.499s-4 -12.166 -4 -17.499
c0 -9.33301 3.33301 -17.666 10 -24.999s16.667 -11.333 30 -12c4 -0.666992 12.833 -1.33398 26.5 -2.00098s36.834 -2 69.501 -4c154 -8 231 -57.333 231 -148z" />
    <glyph glyph-name="Gbreve" unicode="&#x11e;" horiz-adv-x="749" 
d="M398 757c-17.333 0 -33.833 2.5 -49.5 7.5s-30 12.333 -43 22s-24.333 21.167 -34 34.5s-16.834 28.333 -21.501 45l55 22c16.667 -46 47.667 -69 93 -69c44.667 0 75.667 23 93 69l54 -22c-9.33301 -34 -27.666 -60.667 -54.999 -80s-58 -29 -92 -29zM674 376
l-264.001 -0.00390625v-98h161v-159c-28 -12 -56.167 -20.833 -84.5 -26.5s-56.166 -8.5 -83.499 -8.5c-35.333 0 -68 6.33301 -98 19s-56 30.167 -78 52.5s-39.333 49.333 -52 81s-19 66.5 -19 104.5s6.33301 72.667 19 104s30 58.333 52 81s48 40.167 78 52.5
s62.667 18.5 98 18.5c38.667 0 74.167 -7.66699 106.5 -23s59.5 -36.666 81.5 -63.999l78 69c-32 37.333 -70.833 65.833 -116.5 85.5s-95.5 29.5 -149.5 29.5c-49.333 0 -95.333 -8.66699 -138 -26s-79.667 -41.666 -111 -72.999s-56 -68.666 -74 -111.999
s-27 -90.666 -27 -141.999s9 -98.666 27 -141.999s42.667 -80.666 74 -111.999s68.333 -55.833 111 -73.5s88.667 -26.5 138 -26.5c27.333 0 53.833 2.16699 79.5 6.5s50 10.166 73 17.499s44.5 15.666 64.5 24.999s38 19 54 29v311z" />
    <glyph glyph-name="gbreve" unicode="&#x11f;" horiz-adv-x="584" 
d="M298 567c-34 0 -64.833 9.66699 -92.5 29s-46.167 46 -55.5 80l55 22c16.667 -46 47.667 -69 93 -69s76.333 23 93 69l55 -22c-9.33301 -34 -27.833 -60.667 -55.5 -80s-58.5 -29 -92.5 -29zM297 -117c48 0 85.001 6.16504 111.001 18.498s39 30.833 39 55.5
c0 23.333 -13 38.833 -39 46.5s-63 12.834 -111 15.501l-95 5c-2.66699 0.666992 -5 1 -7 1s-4 0.333008 -6 1c-14 -9.33301 -24 -20.166 -30 -32.499s-9 -24.5 -9 -36.5c0 -25.333 13.167 -44 39.5 -56s62.166 -18 107.499 -18zM297.001 415.998
c-31.333 0 -57.999 -6.66699 -79.999 -20s-33 -33.333 -33 -60c0 -13.333 3 -25.166 9 -35.499s14.167 -18.833 24.5 -25.5s22.333 -11.667 36 -15s28.167 -5 43.5 -5c31.333 0 58.166 6.66699 80.499 20s33.5 33.666 33.5 60.999c0 13.333 -3 25 -9 35
s-14.167 18.333 -24.5 25s-22.333 11.667 -36 15s-28.5 5 -44.5 5zM544.002 -43.002c0 -46 -21 -83.5 -63 -112.5s-103.333 -43.5 -184 -43.5c-79.333 0 -140.333 14.167 -183 42.5s-64 66.166 -64 113.499c0 21.333 6.66699 41.5 20 60.5s30.333 32.5 51 40.5v2
c-10.667 10 -19.167 21.333 -25.5 34s-9.5 26.667 -9.5 42s3.66699 30.166 11 44.499s19.666 27.166 36.999 38.499v2c-33.333 31.333 -50 69.666 -50 114.999c0 24 4.83301 46.333 14.5 67s23.834 38.5 42.501 53.5s41 26.833 67 35.5s55.667 13 89 13
c19.333 0 37.5 -1.66699 54.5 -5s32.833 -7.66602 47.5 -12.999l78 78l62 -63l-67 -63c26 -29.333 39 -63.666 39 -102.999c0 -24 -5 -46.333 -15 -67s-24.167 -38.5 -42.5 -53.5s-40.833 -26.833 -67.5 -35.5s-56.334 -13 -89.001 -13c-18.667 0 -36.167 1.33301 -52.5 4
s-31.5 6.66699 -45.5 12c-9.33301 -5.33301 -15.333 -11.166 -18 -17.499s-4 -12.166 -4 -17.499c0 -9.33301 3.33301 -17.666 10 -24.999s16.667 -11.333 30 -12c4 -0.666992 12.833 -1.33398 26.5 -2.00098s36.834 -2 69.501 -4c154 -8 231 -57.333 231 -148z" />
    <glyph glyph-name="Gdotaccent" unicode="&#x120;" horiz-adv-x="749" 
d="M393 887c17.333 0 31.333 -5.66699 42 -17s16 -25 16 -41c0 -15.333 -5.33301 -28.666 -16 -39.999s-24.667 -17 -42 -17s-31.5 5.66699 -42.5 17s-16.5 24.666 -16.5 39.999c0 16 5.5 29.667 16.5 41s25.167 17 42.5 17zM674 376l-264.001 -0.00390625v-98h161v-159
c-28 -12 -56.167 -20.833 -84.5 -26.5s-56.166 -8.5 -83.499 -8.5c-35.333 0 -68 6.33301 -98 19s-56 30.167 -78 52.5s-39.333 49.333 -52 81s-19 66.5 -19 104.5s6.33301 72.667 19 104s30 58.333 52 81s48 40.167 78 52.5s62.667 18.5 98 18.5
c38.667 0 74.167 -7.66699 106.5 -23s59.5 -36.666 81.5 -63.999l78 69c-32 37.333 -70.833 65.833 -116.5 85.5s-95.5 29.5 -149.5 29.5c-49.333 0 -95.333 -8.66699 -138 -26s-79.667 -41.666 -111 -72.999s-56 -68.666 -74 -111.999s-27 -90.666 -27 -141.999
s9 -98.666 27 -141.999s42.667 -80.666 74 -111.999s68.333 -55.833 111 -73.5s88.667 -26.5 138 -26.5c27.333 0 53.833 2.16699 79.5 6.5s50 10.166 73 17.499s44.5 15.666 64.5 24.999s38 19 54 29v311z" />
    <glyph glyph-name="gdotaccent" unicode="&#x121;" horiz-adv-x="584" 
d="M177 148c0 5.33301 1.33301 11.166 4 17.499s8.66699 12.166 18 17.499c14 -5.33301 29.167 -9.33301 45.5 -12s33.833 -4 52.5 -4c32.667 0 62.334 4.33301 89.001 13s49.167 20.5 67.5 35.5s32.5 32.833 42.5 53.5s15 43 15 67c0 39.333 -13 73.666 -39 102.999l67 63
l-62 63l-78 -78c-14.667 5.33301 -30.5 9.66602 -47.5 12.999s-35.167 5 -54.5 5c-33.333 0 -63 -4.33301 -89 -13s-48.333 -20.5 -67 -35.5s-32.834 -32.833 -42.501 -53.5s-14.5 -43 -14.5 -67c0 -45.333 16.667 -83.666 50 -114.999v-2
c-17.333 -11.333 -29.666 -24.166 -36.999 -38.499s-11 -29.166 -11 -44.499s3.16699 -29.333 9.5 -42s14.833 -24 25.5 -34v-2c-20.667 -8 -37.667 -21.5 -51 -40.5s-20 -39.167 -20 -60.5c0 -47.333 21.333 -85.166 64 -113.499s103.667 -42.5 183 -42.5
c80.667 0 142 14.5 184 43.5s63 66.5 63 112.5c0 90.667 -77 140 -231 148c-32.667 2 -55.834 3.33301 -69.501 4s-22.5 1.33398 -26.5 2.00098c-13.333 0.666992 -23.333 4.66699 -30 12s-10 15.666 -10 24.999zM297 416c16 0 30.832 -1.66699 44.499 -5
s25.667 -8.33301 36 -15s18.5 -15 24.5 -25s9 -21.667 9 -35c0 -27.333 -11.167 -47.666 -33.5 -60.999s-49.166 -20 -80.499 -20c-15.333 0 -29.833 1.66699 -43.5 5s-25.667 8.33301 -36 15s-18.5 15.167 -24.5 25.5s-9 22.166 -9 35.499c0 26.667 11 46.667 33 60
s48.667 20 80 20zM296.999 -117c-45.333 0 -81.167 6.00195 -107.5 18.002s-39.5 30.667 -39.5 56c0 12 3 24.167 9 36.5s16 23.166 30 32.499c2 -0.666992 4 -1 6 -1s4.33301 -0.333008 7 -1l95 -5c48 -2.66699 85 -7.83398 111 -15.501s39 -23.167 39 -46.5
c0 -24.667 -13 -43.167 -39 -55.5s-63 -18.5 -111 -18.5zM238.998 639.002c0 17.333 5.83301 32 17.5 44s26.5 18 44.5 18c18.667 0 33.834 -6 45.501 -18s17.5 -26.667 17.5 -44s-5.83301 -32 -17.5 -44s-26.834 -18 -45.501 -18c-18 0 -32.833 6 -44.5 18
s-17.5 26.667 -17.5 44z" />
    <glyph glyph-name="Gcommaaccent" unicode="&#x122;" horiz-adv-x="749" 
d="M403 -13c-49.333 0 -95.332 8.83691 -137.999 26.5039s-79.667 42.167 -111 73.5s-56 68.666 -74 111.999s-27 90.666 -27 141.999s9 98.666 27 141.999s42.667 80.666 74 111.999s68.333 55.666 111 72.999s88.667 26 138 26c54 0 103.833 -9.83301 149.5 -29.5
s84.5 -48.167 116.5 -85.5l-78 -69c-22 27.333 -49.167 48.666 -81.5 63.999s-67.833 23 -106.5 23c-35.333 0 -68 -6.16699 -98 -18.5s-56 -29.833 -78 -52.5s-39.333 -49.667 -52 -81s-19 -66 -19 -104s6.33301 -72.833 19 -104.5s30 -58.667 52 -81s48 -39.833 78 -52.5
s62.667 -19 98 -19c27.333 0 55.166 2.83301 83.499 8.5s56.5 14.5 84.5 26.5v159h-161v98h264v-311c-16 -10 -34 -19.667 -54 -29s-41.5 -17.666 -64.5 -24.999s-47.333 -13.166 -73 -17.499s-52.167 -6.5 -79.5 -6.5zM355.001 -58.9961
c-5.33301 -20.667 -12.833 -44.168 -22.5 -70.501s-20.5 -52.166 -32.5 -77.499h70c7.33301 10 15 21.167 23 33.5s15.667 25 23 38s14.333 26.167 21 39.5l18 37h-100z" />
    <glyph glyph-name="gcommaaccent" unicode="&#x123;" horiz-adv-x="584" 
d="M297 -117c48 0 85.001 6.16504 111.001 18.498s39 30.833 39 55.5c0 23.333 -13 38.833 -39 46.5s-63 12.834 -111 15.501l-95 5c-2.66699 0.666992 -5 1 -7 1s-4 0.333008 -6 1c-14 -9.33301 -24 -20.166 -30 -32.499s-9 -24.5 -9 -36.5c0 -25.333 13.167 -44 39.5 -56
s62.166 -18 107.499 -18zM297.001 415.998c-31.333 0 -57.999 -6.66699 -79.999 -20s-33 -33.333 -33 -60c0 -13.333 3 -25.166 9 -35.499s14.167 -18.833 24.5 -25.5s22.333 -11.667 36 -15s28.167 -5 43.5 -5c31.333 0 58.166 6.66699 80.499 20s33.5 33.666 33.5 60.999
c0 13.333 -3 25 -9 35s-14.167 18.333 -24.5 25s-22.333 11.667 -36 15s-28.5 5 -44.5 5zM544.002 -43.002c0 -46 -21 -83.499 -63 -112.499s-103.333 -43.5 -184 -43.5c-79.333 0 -140.333 14.167 -183 42.5s-64 66.166 -64 113.499c0 21.333 6.66699 41.5 20 60.5
s30.333 32.5 51 40.5v2c-10.667 10 -19.167 21.333 -25.5 34s-9.5 26.667 -9.5 42s3.66699 30.166 11 44.499s19.666 27.166 36.999 38.499v2c-33.333 31.333 -50 69.666 -50 114.999c0 24 4.83301 46.333 14.5 67s23.834 38.5 42.501 53.5s41 26.667 67 35
s55.667 12.5 89 12.5c38 0 72 -5.66699 102 -17l78 78l62 -63l-67 -63c26 -29.333 39 -63.666 39 -102.999c0 -24 -5 -46.333 -15 -67s-24.167 -38.5 -42.5 -53.5s-40.833 -26.833 -67.5 -35.5s-56.334 -13 -89.001 -13c-18.667 0 -36.167 1.33301 -52.5 4
s-31.5 6.66699 -45.5 12c-9.33301 -5.33301 -15.333 -11.166 -18 -17.499s-4 -12.166 -4 -17.499c0 -9.33301 3.33301 -17.666 10 -24.999s16.667 -11.333 30 -12c4 -0.666992 12.833 -1.33398 26.5 -2.00098s36.834 -2 69.501 -4c154 -8 231 -57.333 231 -148z
M245.002 550.999c4.66699 11.333 10.5 23.666 17.5 36.999l21.5 39.5c7.33301 13 15 25.5 23 37.5l23 33h70c-12 -25.333 -22.833 -51.166 -32.5 -77.499s-17.167 -49.5 -22.5 -69.5h-100z" />
    <glyph glyph-name="Hcircumflex" unicode="&#x124;" horiz-adv-x="720" 
d="M635 682h-103v-278h-344v278h-103v-682h103v306h344v-306h103v682zM360 845l-102 -98l-50 34l112 126h80l112 -126l-50 -34z" />
    <glyph glyph-name="hcircumflex" unicode="&#x125;" horiz-adv-x="605" 
d="M129 845l-102 -98l-50 34l112 126h80l112 -126l-50 -34zM344 504c25.333 0 49.5029 -4.33301 72.5029 -13s43.333 -21.834 61 -39.501s31.667 -40.167 42 -67.5s15.5 -59.666 15.5 -96.999v-287h-100v258c0 28 -3 51.833 -9 71.5s-14.333 35.5 -25 47.5
s-23.334 20.667 -38.001 26s-30.334 8 -47.001 8c-20.667 0 -39.334 -4.16699 -56.001 -12.5s-31 -19.5 -43 -33.5s-21.167 -30.5 -27.5 -49.5s-9.5 -39.167 -9.5 -60.5v-255h-100v725h100v-285h2c22 21.333 47 37.333 75 48s57 16 87 16z" />
    <glyph glyph-name="Hbar" unicode="&#x126;" horiz-adv-x="720" 
d="M532 516h-344v-112h344v112zM695 516h-60v-516h-103v306h-344v-306h-103v516h-60v64h60v102h103v-102h344v102h103v-102h60v-64z" />
    <glyph glyph-name="hbar" unicode="&#x127;" horiz-adv-x="605" 
d="M344 504c25.333 0 49.5029 -4.33301 72.5029 -13s43.333 -21.834 61 -39.501s31.667 -40.167 42 -67.5s15.5 -59.666 15.5 -96.999v-287h-100v258c0 28 -3 51.833 -9 71.5s-14.333 35.5 -25 47.5s-23.334 20.667 -38.001 26s-30.334 8 -47.001 8
c-20.667 0 -39.334 -4.16699 -56.001 -12.5s-31 -19.5 -43 -33.5s-21.167 -30.5 -27.5 -49.5s-9.5 -39.167 -9.5 -60.5v-255h-100v568h-60v59h60v98h100v-98h124v-59h-124v-128h2c22 21.333 47 37.333 75 48s57 16 87 16z" />
    <glyph glyph-name="Itilde" unicode="&#x128;" horiz-adv-x="273" 
d="M188 682h-103v-682h103v682zM208 758c-14.667 0 -28.168 2.33301 -40.501 7s-24.166 9.66699 -35.499 15s-22.5 10.333 -33.5 15s-21.833 7 -32.5 7s-20.167 -4.33301 -28.5 -13s-15.833 -18.667 -22.5 -30l-52 29c9.33301 22.667 23 42 41 58s38.667 24 62 24
c13.333 0 26.333 -2.33301 39 -7s24.667 -9.66699 36 -15s22.5 -10.333 33.5 -15s21.833 -7 32.5 -7c11.333 0 21 4.16699 29 12.5s15.333 18.5 22 30.5l52 -29c-9.33301 -23.333 -22.833 -42.833 -40.5 -58.5s-38.167 -23.5 -61.5 -23.5z" />
    <glyph glyph-name="itilde" unicode="&#x129;" horiz-adv-x="261" 
d="M202 568c-14.667 0 -28.1689 2.33301 -40.502 7s-24.166 9.66699 -35.499 15l-33 15c-10.667 4.66699 -21.334 7 -32.001 7c-11.333 0 -21.166 -4.33301 -29.499 -13s-15.5 -18.667 -21.5 -30l-53 29c9.33301 22.667 23 42 41 58s38.667 24 62 24
c13.333 0 26.333 -2.33301 39 -7s24.834 -9.66699 36.501 -15l34 -15c11 -4.66699 21.833 -7 32.5 -7c11.333 0 21 4.16699 29 12.5s15 18.5 21 30.5l53 -29c-9.33301 -23.333 -23 -42.833 -41 -58.5s-38.667 -23.5 -62 -23.5zM79.998 492h100v-492h-100v492z" />
    <glyph glyph-name="Imacron" unicode="&#x12a;" horiz-adv-x="273" 
d="M188 682h-103v-682h103v682zM-5 852h283v-65h-283v65z" />
    <glyph glyph-name="imacron" unicode="&#x12b;" horiz-adv-x="261" 
d="M-11 662h282v-65h-282v65zM80 492h100v-492h-100v492z" />
    <glyph glyph-name="Ibreve" unicode="&#x12c;" horiz-adv-x="273" 
d="M188 682h-103v-682h103v682zM136 757c-34 0 -64.6689 9.66699 -92.002 29s-45.666 46 -54.999 80l55 22c16.667 -46 47.334 -69 92.001 -69c45.333 0 76.333 23 93 69l55 -22c-9.33301 -33.333 -27.833 -59.833 -55.5 -79.5s-58.5 -29.5 -92.5 -29.5z" />
    <glyph glyph-name="ibreve" unicode="&#x12d;" horiz-adv-x="261" 
d="M130 567c-34 0 -64.833 9.66699 -92.5 29s-46.167 46 -55.5 80l55 22c16.667 -46 47.667 -69 93 -69s76.333 23 93 69l55 -22c-9.33301 -34 -27.833 -60.667 -55.5 -80s-58.5 -29 -92.5 -29zM80 492h100v-492h-100v492z" />
    <glyph glyph-name="Iogonek" unicode="&#x12e;" horiz-adv-x="273" 
d="M116 -200c-28 0 -49.667 7.00098 -65 21.001s-23 32 -23 54c0 19.333 6.5 39.333 19.5 60s34.5 41.667 64.5 63v2h-27v682h103v-682h-8c-30 -24.667 -50.5 -45.834 -61.5 -63.501s-16.5 -33.167 -16.5 -46.5c0 -10.667 3.33301 -19.667 10 -27s16.667 -11 30 -11
c8 0 16 1.33301 24 4s16 6 24 10l18 -41c-11.333 -7.33301 -25.5 -13.333 -42.5 -18s-33.5 -7 -49.5 -7z" />
    <glyph glyph-name="iogonek" unicode="&#x12f;" horiz-adv-x="261" 
d="M123 -148c8 0 16 1.33398 24 4.00098s15.667 6 23 10l19 -41c-11.333 -7.33301 -25.5 -13.333 -42.5 -18s-33.5 -7 -49.5 -7c-28 0 -49.667 7 -65 21s-23 32 -23 54c0 19.333 6.5 39.333 19.5 60s34.5 41.667 64.5 63v2h-13v492h100v-492h-19
c-30 -24.667 -50.5 -45.834 -61.5 -63.501s-16.5 -33.167 -16.5 -46.5c0 -10.667 3.33301 -19.667 10 -27s16.667 -11 30 -11zM72 639.001c0 17.333 5.83301 32 17.5 44s26.5 18 44.5 18c18.667 0 33.834 -6 45.501 -18s17.5 -26.667 17.5 -44s-5.83301 -32 -17.5 -44
s-26.834 -18 -45.501 -18c-18 0 -32.833 6 -44.5 18s-17.5 26.667 -17.5 44z" />
    <glyph glyph-name="Idotaccent" unicode="&#x130;" horiz-adv-x="273" 
d="M188 682h-103v-682h103v682zM136 887c17.333 0 31.5 -5.66699 42.5 -17s16.5 -25 16.5 -41c0 -15.333 -5.5 -28.666 -16.5 -39.999s-25.167 -17 -42.5 -17s-31.333 5.66699 -42 17s-16 24.666 -16 39.999c0 16 5.33301 29.667 16 41s24.667 17 42 17z" />
    <glyph glyph-name="dotlessi" unicode="&#x131;" horiz-adv-x="261" 
d="M80 492h100v-492h-100v492z" />
    <glyph glyph-name="IJ" unicode="&#x132;" horiz-adv-x="761" 
d="M461 86c39.333 0 69.499 12.5 90.499 37.5s31.5 59.5 31.5 103.5v455h103v-455c0 -75.333 -20 -134 -60 -176s-95.333 -63 -166 -63c-27.333 0 -53.166 3.5 -77.499 10.5s-46.5 16.5 -66.5 28.5s-37.333 26 -52 42s-26 33 -34 51l85 59c14.667 -30 34.5 -53 59.5 -69
s53.833 -24 86.5 -24zM187.999 0h-103v682h103v-682z" />
    <glyph glyph-name="ij" unicode="&#x133;" horiz-adv-x="504" 
d="M429 639c0 -15.333 -5.33301 -28.666 -16 -39.999s-24.667 -17 -42 -17s-31.5 5.66699 -42.5 17s-16.5 24.666 -16.5 39.999c0 16 5.5 29.667 16.5 41s25.167 17 42.5 17s31.333 -5.66699 42 -17s16 -25 16 -41zM321 -9c0 -30 -4.83301 -53.833 -14.5 -71.5
s-26.5 -26.5 -50.5 -26.5c-11.333 0 -24.333 1.16699 -39 3.5s-27.667 4.83301 -39 7.5l-17 -90c16.667 -4 34 -7.33301 52 -10s35.667 -4 53 -4c52 0 90.833 16.5 116.5 49.5s38.5 78.833 38.5 137.5v505h-100v-501zM80 0h100v492h-100v-492zM189 639
c0 -15.333 -5.5 -28.666 -16.5 -39.999s-25.167 -17 -42.5 -17s-31.333 5.66699 -42 17s-16 24.666 -16 39.999c0 16 5.33301 29.667 16 41s24.667 17 42 17s31.5 -5.66699 42.5 -17s16.5 -25 16.5 -41z" />
    <glyph glyph-name="Jcircumflex" unicode="&#x134;" horiz-adv-x="551" 
d="M422 845l-102 -98l-50 34l112 126h80l112 -126l-50 -34zM251 86c20.667 0 38.667 3.66797 54 11.001s28 17.333 38 30s17.5 27.5 22.5 44.5s7.5 35.5 7.5 55.5v455h103v-455c0 -36 -4.83301 -68.667 -14.5 -98s-24 -54.5 -43 -75.5s-42.667 -37.167 -71 -48.5
s-60.833 -17 -97.5 -17c-22.667 0 -45.667 2.83301 -69 8.5s-45.333 14 -66 25s-39.334 24.833 -56.001 41.5s-29.667 35.667 -39 57l85 59c14.667 -28.667 34.334 -51.334 59.001 -68.001s53.667 -25 87 -25z" />
    <glyph glyph-name="jcircumflex" unicode="&#x135;" horiz-adv-x="298" 
d="M115 492h100v-505c0 -58.667 -12.833 -104.5 -38.5 -137.5s-64.5 -49.5 -116.5 -49.5c-17.333 0 -35 1.33301 -53 4s-35.333 6 -52 10l17 90c11.333 -2.66699 24.333 -5.16699 39 -7.5s27.667 -3.5 39 -3.5c24 0 40.833 8.83301 50.5 26.5s14.5 41.5 14.5 71.5v501z
M164 655l-102 -98l-50 34l112 126h80l112 -126l-50 -34z" />
    <glyph glyph-name="Kcommaaccent" unicode="&#x136;" horiz-adv-x="671" 
d="M405 -59l-18 -36.999c-6.66699 -13.333 -13.667 -26.5 -21 -39.5s-15 -25.667 -23 -38s-15.667 -23.5 -23 -33.5h-70c12 25.333 22.833 51.166 32.5 77.499s17.167 49.833 22.5 70.5h100zM188 0.000976562h-103v682h103v-313h2l309 313h141l-312 -308l323 -374h-138
l-257 310l-68 -59v-251z" />
    <glyph glyph-name="kcommaaccent" unicode="&#x137;" horiz-adv-x="561" 
d="M349 -59l-18 -36.999c-6.66699 -13.333 -13.667 -26.5 -21 -39.5s-15 -25.667 -23 -38s-15.667 -23.5 -23 -33.5h-70c12 25.333 22.833 51.166 32.5 77.499s17.167 49.833 22.5 70.5h100zM180 0.000976562h-100v725h100v-463h2l225 230h124l-217 -216l232 -276h-129
l-170 215l-67 -60v-155z" />
    <glyph glyph-name="kgreenlandic" unicode="&#x138;" horiz-adv-x="561" 
d="M180 0h-100v492h100v-230h2l225 230h124l-217 -216l232 -276h-129l-170 215l-67 -60v-155z" />
    <glyph glyph-name="Lacute" unicode="&#x139;" horiz-adv-x="560" 
d="M81 784l126 141l68 -48l-145 -128zM530 98h-342v584h-103v-682h445v98z" />
    <glyph glyph-name="lacute" unicode="&#x13a;" horiz-adv-x="260" 
d="M74 804l125 141l69 -48l-145 -128zM80 725h100v-725h-100v725z" />
    <glyph glyph-name="Lcommaaccent" unicode="&#x13b;" horiz-adv-x="560" 
d="M530 0h-445v682h103v-584h342v-98zM278 -59c-5.33301 -20.667 -12.833 -44.168 -22.5 -70.501s-20.5 -52.166 -32.5 -77.499h70c7.33301 10 15 21.167 23 33.5s15.667 25 23 38s14.333 26.167 21 39.5l18 37h-100z" />
    <glyph glyph-name="uni013C" unicode="&#x13c;" horiz-adv-x="260" 
d="M180 -59l-18 -36.999c-6.66699 -13.333 -13.667 -26.5 -21 -39.5s-15 -25.667 -23 -38s-15.667 -23.5 -23 -33.5h-70c12 25.333 22.833 51.166 32.5 77.499s17.167 49.833 22.5 70.5h100zM80 725.001h100v-725h-100v725z" />
    <glyph glyph-name="Lcaron" unicode="&#x13d;" horiz-adv-x="560" 
d="M530 0h-445v682h103v-584h342v-98zM292 682c-5.33301 -20 -12.834 -43.168 -22.501 -69.501s-20.5 -52.166 -32.5 -77.499h71l22 33c8 12 15.833 24.5 23.5 37.5s14.834 26.167 21.501 39.5l18 37h-101z" />
    <glyph glyph-name="lcaron" unicode="&#x13e;" horiz-adv-x="394" 
d="M384 682l-18 -36.999c-6.66699 -13.333 -13.667 -26.5 -21 -39.5s-15 -25.5 -23 -37.5l-23 -33h-70c12 25.333 22.833 51.166 32.5 77.499s17.167 49.5 22.5 69.5h100zM80 725.001h100v-725h-100v725z" />
    <glyph glyph-name="Ldot" unicode="&#x13f;" horiz-adv-x="560" 
d="M253 380c0 17.333 5.83301 32 17.5 44s26.5 18 44.5 18c18.667 0 33.834 -6 45.501 -18s17.5 -26.667 17.5 -44s-5.83301 -32 -17.5 -44s-26.834 -18 -45.501 -18c-18 0 -32.833 6 -44.5 18s-17.5 26.667 -17.5 44zM530 0h-445v682h103v-584h342v-98z" />
    <glyph glyph-name="ldot" unicode="&#x140;" horiz-adv-x="372" 
d="M362 362c0 16 -5.33301 29.667 -16 41s-24.667 17 -42 17s-31.5 -5.66699 -42.5 -17s-16.5 -25 -16.5 -41c0 -15.333 5.5 -28.666 16.5 -39.999s25.167 -17 42.5 -17s31.333 5.66699 42 17s16 24.666 16 39.999zM80 725h100v-725h-100v725z" />
    <glyph glyph-name="Lslash" unicode="&#x141;" horiz-adv-x="560" 
d="M530 98v-98h-445v316l-73 -24l-20 62l93 30v298h103v-265l77 25l20 -62l-97 -31v-251h342z" />
    <glyph glyph-name="lslash" unicode="&#x142;" horiz-adv-x="307" 
d="M204 0h-100v313l-77 -25l-18 56l95 31v350h100v-318l76 25l18 -56l-94 -31v-345z" />
    <glyph glyph-name="Nacute" unicode="&#x143;" horiz-adv-x="730" 
d="M318 784l125 141l69 -48l-145 -128zM645 682l0.000976562 -682h-91l-367 500h-2c1.33301 -25.333 2.16602 -52.5 2.49902 -81.5s0.5 -56.167 0.5 -81.5v-337h-103v682h91l366 -500h2c-0.666992 25.333 -1.16699 52.5 -1.5 81.5s-0.5 56.167 -0.5 81.5v337h103z" />
    <glyph glyph-name="nacute" unicode="&#x144;" horiz-adv-x="605" 
d="M237 594l125 141l69 -48l-145 -128zM344 504c25.333 0 49.502 -4.33301 72.502 -13s43.333 -21.834 61 -39.501s31.667 -40.167 42 -67.5s15.5 -59.666 15.5 -96.999v-287h-100v258c0 28 -3 51.833 -9 71.5s-14.333 35.5 -25 47.5s-23.334 20.667 -38.001 26
s-30.334 8 -47.001 8c-20.667 0 -39.334 -4.16699 -56.001 -12.5s-31 -19.5 -43 -33.5s-21.167 -30.5 -27.5 -49.5s-9.5 -39.167 -9.5 -60.5v-255h-100v492h84l4 -64h2c22.667 25.333 49.334 44.333 80.001 57s62 19 94 19z" />
    <glyph glyph-name="Ncommaaccent" unicode="&#x145;" horiz-adv-x="730" 
d="M433 -59l-18 -36.999c-6.66699 -13.333 -13.667 -26.5 -21 -39.5s-15 -25.667 -23 -38s-15.667 -23.5 -23 -33.5h-70c12 25.333 22.833 51.166 32.5 77.499s17.167 49.833 22.5 70.5h100zM645 682.001l0.000976562 -682h-91l-367 500h-2
c1.33301 -25.333 2.16602 -52.5 2.49902 -81.5s0.5 -56.167 0.5 -81.5v-337h-103v682h91l366 -500h2c-0.666992 25.333 -1.16699 52.5 -1.5 81.5s-0.5 56.167 -0.5 81.5v337h103z" />
    <glyph glyph-name="ncommaaccent" unicode="&#x146;" horiz-adv-x="605" 
d="M372 -59l-18 -36.999c-6.66699 -13.333 -13.667 -26.5 -21 -39.5s-15 -25.667 -23 -38s-15.667 -23.5 -23 -33.5h-70c12 25.333 22.833 51.166 32.5 77.499s17.167 49.833 22.5 70.5h100zM344 504.001c25.333 0 49.502 -4.33301 72.502 -13s43.333 -21.834 61 -39.501
s31.667 -40.167 42 -67.5s15.5 -59.666 15.5 -96.999v-287h-100v258c0 28 -3 51.833 -9 71.5s-14.333 35.5 -25 47.5s-23.334 20.667 -38.001 26s-30.334 8 -47.001 8c-20.667 0 -39.334 -4.16699 -56.001 -12.5s-31 -19.5 -43 -33.5s-21.167 -30.5 -27.5 -49.5
s-9.5 -39.167 -9.5 -60.5v-255h-100v492h84l4 -64h2c22.667 25.333 49.334 44.333 80.001 57s62 19 94 19z" />
    <glyph glyph-name="Ncaron" unicode="&#x147;" horiz-adv-x="730" 
d="M467 923l50 -34l-112 -126h-80l-112 126l50 34l102 -98zM542 682l-0.000976562 -337c0 -25.333 0.166992 -52.5 0.5 -81.5s0.833008 -56.167 1.5 -81.5h-2l-366 500h-91v-682h103v337c0 25.333 -0.166992 52.5 -0.5 81.5s-1.16602 56.167 -2.49902 81.5h2l367 -500h91
v682h-103z" />
    <glyph glyph-name="ncaron" unicode="&#x148;" horiz-adv-x="605" 
d="M344 504c-32 0 -63.335 -6.33301 -94.002 -19s-57.334 -31.667 -80.001 -57h-2l-4 64h-84v-492h100v255c0 21.333 3.16699 41.5 9.5 60.5s15.5 35.5 27.5 49.5s26.333 25.167 43 33.5s35.334 12.5 56.001 12.5c16.667 0 32.334 -2.66699 47.001 -8s27.334 -14 38.001 -26
s19 -27.833 25 -47.5s9 -43.5 9 -71.5v-258h100v287c0 37.333 -5.16699 69.666 -15.5 96.999s-24.333 49.833 -42 67.5s-38 30.834 -61 39.501s-47.167 13 -72.5 13zM413.998 733l50 -34l-112 -126h-80l-112 126l50 34l102 -98z" />
    <glyph glyph-name="napostrophe" unicode="&#x149;" horiz-adv-x="605" 
d="M157.5 624.5c-16.333 -27.667 -31.5 -51.167 -45.5 -70.5h-70c12 25.333 22.833 51 32.5 77s17.167 49.333 22.5 70h100c-10 -23.333 -23.167 -48.833 -39.5 -76.5zM344 504c25.333 0 49.502 -4.33301 72.502 -13s43.333 -21.834 61 -39.501s31.667 -40.167 42 -67.5
s15.5 -59.666 15.5 -96.999v-287h-100v258c0 28 -3 51.833 -9 71.5s-14.333 35.5 -25 47.5s-23.334 20.667 -38.001 26s-30.334 8 -47.001 8c-20.667 0 -39.334 -4.16699 -56.001 -12.5s-31 -19.5 -43 -33.5s-21.167 -30.5 -27.5 -49.5s-9.5 -39.167 -9.5 -60.5v-255h-100
v492h84l4 -64h2c22.667 25.333 49.334 44.333 80.001 57s62 19 94 19z" />
    <glyph glyph-name="Eng" unicode="&#x14a;" horiz-adv-x="730" 
d="M645 682v-584v-59c0 -74.667 -17.333 -133.167 -52 -175.5s-86.667 -63.5 -156 -63.5c-13.333 0 -27.333 0.833008 -42 2.5s-27.667 4.16699 -39 7.5l21 98c7.33301 -3.33301 16.666 -5.83301 27.999 -7.5s22 -2.5 32 -2.5c34 0 59.5 9.83301 76.5 29.5
s26.167 49.5 27.5 89.5l-354 483h-2c0.666992 -25.333 1.33398 -52.5 2.00098 -81.5s1 -56.167 1 -81.5v-337h-103v682h91l366 -500h2c-0.666992 25.333 -1.16699 52.5 -1.5 81.5s-0.5 56.167 -0.5 81.5v337h103z" />
    <glyph glyph-name="eng" unicode="&#x14b;" horiz-adv-x="605" 
d="M344 504c25.333 0 49.501 -4.33203 72.501 -12.999s43.333 -21.834 61 -39.501s31.667 -40.167 42 -67.5s15.5 -59.666 15.5 -96.999v-295c0 -58.667 -12.833 -105.334 -38.5 -140.001s-64.5 -52 -116.5 -52c-17.333 0 -35 1.33301 -53 4s-33.667 5.66699 -47 9l19 90
c10.667 -2.66699 22.334 -5 35.001 -7s24.667 -3 36 -3c22.667 0 39.167 8.5 49.5 25.5s15.5 41.167 15.5 72.5v267c0 28 -3 51.833 -9 71.5s-14.333 35.5 -25 47.5s-23.334 20.667 -38.001 26s-30.334 8 -47.001 8c-20.667 0 -39.334 -4.16699 -56.001 -12.5
s-31 -19.5 -43 -33.5s-21.167 -30.5 -27.5 -49.5s-9.5 -39.167 -9.5 -60.5v-255h-100v492h84l4 -64h2c22.667 25.333 49.334 44.333 80.001 57s62 19 94 19z" />
    <glyph glyph-name="Omacron" unicode="&#x14c;" horiz-adv-x="805" 
d="M649 341c0 -38 -6.33301 -72.833 -19 -104.5s-30 -58.667 -52 -81s-48 -39.833 -78 -52.5s-62.333 -19 -97 -19c-35.333 0 -68 6.33301 -98 19s-56 30.167 -78 52.5s-39.333 49.333 -52 81s-19 66.5 -19 104.5s6.33301 72.667 19 104s30 58.333 52 81s48 40.167 78 52.5
s62.667 18.5 98 18.5c34.667 0 67 -6.16699 97 -18.5s56 -29.833 78 -52.5s39.333 -49.667 52 -81s19 -66 19 -104zM752 341c0 51.333 -9 98.666 -27 141.999s-42.667 80.666 -74 111.999s-68.166 55.666 -110.499 72.999s-88.166 26 -137.499 26s-95.333 -8.66699 -138 -26
s-79.667 -41.666 -111 -72.999s-56 -68.666 -74 -111.999s-27 -90.666 -27 -141.999s9 -98.666 27 -141.999s42.667 -80.666 74 -111.999s68.333 -55.833 111 -73.5s88.667 -26.5 138 -26.5s95.166 8.83301 137.499 26.5s79.166 42.167 110.499 73.5s56 68.666 74 111.999
s27 90.666 27 141.999zM261 852h282v-65h-282v65z" />
    <glyph glyph-name="omacron" unicode="&#x14d;" horiz-adv-x="609" 
d="M163 662h282v-65h-282v65zM304 83c22.667 0 43.5 4 62.5 12s35.333 19.167 49 33.5s24.334 31.5 32.001 51.5s11.5 42 11.5 66s-3.83301 46 -11.5 66s-18.334 37.167 -32.001 51.5s-30 25.5 -49 33.5s-39.833 12 -62.5 12c-22 0 -42.5 -4 -61.5 -12
s-35.333 -19.167 -49 -33.5s-24.334 -31.5 -32.001 -51.5s-11.5 -42 -11.5 -66s3.83301 -46 11.5 -66s18.334 -37.167 32.001 -51.5s30 -25.5 49 -33.5s39.5 -12 61.5 -12zM304 504c36 0 69.667 -6.33301 101 -19s58.333 -30.5 81 -53.5s40.5 -50.333 53.5 -82
s19.5 -66.167 19.5 -103.5s-6.5 -71.833 -19.5 -103.5s-30.833 -59 -53.5 -82s-49.667 -40.833 -81 -53.5s-65 -19 -101 -19s-69.5 6.33301 -100.5 19s-57.833 30.5 -80.5 53.5s-40.5 50.333 -53.5 82s-19.5 66.167 -19.5 103.5s6.5 71.833 19.5 103.5s30.833 59 53.5 82
s49.5 40.833 80.5 53.5s64.5 19 100.5 19z" />
    <glyph glyph-name="Obreve" unicode="&#x14e;" horiz-adv-x="805" 
d="M649 341c0 -38 -6.33301 -72.833 -19 -104.5s-30 -58.667 -52 -81s-48 -39.833 -78 -52.5s-62.333 -19 -97 -19c-35.333 0 -68 6.33301 -98 19s-56 30.167 -78 52.5s-39.333 49.333 -52 81s-19 66.5 -19 104.5s6.33301 72.667 19 104s30 58.333 52 81s48 40.167 78 52.5
s62.667 18.5 98 18.5c34.667 0 67 -6.16699 97 -18.5s56 -29.833 78 -52.5s39.333 -49.667 52 -81s19 -66 19 -104zM752 341c0 51.333 -9 98.666 -27 141.999s-42.667 80.666 -74 111.999s-68.166 55.666 -110.499 72.999s-88.166 26 -137.499 26s-95.333 -8.66699 -138 -26
s-79.667 -41.666 -111 -72.999s-56 -68.666 -74 -111.999s-27 -90.666 -27 -141.999s9 -98.666 27 -141.999s42.667 -80.666 74 -111.999s68.333 -55.833 111 -73.5s88.667 -26.5 138 -26.5s95.166 8.83301 137.499 26.5s79.166 42.167 110.499 73.5s56 68.666 74 111.999
s27 90.666 27 141.999zM402 757c-34 0 -64.833 9.66699 -92.5 29s-46.167 46 -55.5 80l55 22c16.667 -46 47.667 -69 93 -69s76.333 23 93 69l55 -22c-9.33301 -34 -27.833 -60.667 -55.5 -80s-58.5 -29 -92.5 -29z" />
    <glyph glyph-name="obreve" unicode="&#x14f;" horiz-adv-x="609" 
d="M304 567c-34 0 -64.833 9.66699 -92.5 29s-46.167 46 -55.5 80l55 22c16.667 -46 47.667 -69 93 -69s76.333 23 93 69l55 -22c-9.33301 -34 -27.833 -60.667 -55.5 -80s-58.5 -29 -92.5 -29zM304 83c22.667 0 43.5 4 62.5 12s35.333 19.167 49 33.5
s24.334 31.5 32.001 51.5s11.5 42 11.5 66s-3.83301 46 -11.5 66s-18.334 37.167 -32.001 51.5s-30 25.5 -49 33.5s-39.833 12 -62.5 12c-22 0 -42.5 -4 -61.5 -12s-35.333 -19.167 -49 -33.5s-24.334 -31.5 -32.001 -51.5s-11.5 -42 -11.5 -66s3.83301 -46 11.5 -66
s18.334 -37.167 32.001 -51.5s30 -25.5 49 -33.5s39.5 -12 61.5 -12zM304 504c36 0 69.667 -6.33301 101 -19s58.333 -30.5 81 -53.5s40.5 -50.333 53.5 -82s19.5 -66.167 19.5 -103.5s-6.5 -71.833 -19.5 -103.5s-30.833 -59 -53.5 -82s-49.667 -40.833 -81 -53.5
s-65 -19 -101 -19s-69.5 6.33301 -100.5 19s-57.833 30.5 -80.5 53.5s-40.5 50.333 -53.5 82s-19.5 66.167 -19.5 103.5s6.5 71.833 19.5 103.5s30.833 59 53.5 82s49.5 40.833 80.5 53.5s64.5 19 100.5 19z" />
    <glyph glyph-name="Ohungarumlaut" unicode="&#x150;" horiz-adv-x="805" 
d="M649 341c0 -38 -6.33301 -72.833 -19 -104.5s-30 -58.667 -52 -81s-48 -39.833 -78 -52.5s-62.333 -19 -97 -19c-35.333 0 -68 6.33301 -98 19s-56 30.167 -78 52.5s-39.333 49.333 -52 81s-19 66.5 -19 104.5s6.33301 72.667 19 104s30 58.333 52 81s48 40.167 78 52.5
s62.667 18.5 98 18.5c34.667 0 67 -6.16699 97 -18.5s56 -29.833 78 -52.5s39.333 -49.667 52 -81s19 -66 19 -104zM752 341c0 51.333 -9 98.666 -27 141.999s-42.667 80.666 -74 111.999s-68.166 55.666 -110.499 72.999s-88.166 26 -137.499 26s-95.333 -8.66699 -138 -26
s-79.667 -41.666 -111 -72.999s-56 -68.666 -74 -111.999s-27 -90.666 -27 -141.999s9 -98.666 27 -141.999s42.667 -80.666 74 -111.999s68.333 -55.833 111 -73.5s88.667 -26.5 138 -26.5s95.166 8.83301 137.499 26.5s79.166 42.167 110.499 73.5s56 68.666 74 111.999
s27 90.666 27 141.999zM277 784l125 141l69 -48l-145 -128zM455 784l125 141l69 -48l-145 -128z" />
    <glyph glyph-name="ohungarumlaut" unicode="&#x151;" horiz-adv-x="609" 
d="M343 594l125 141l69 -48l-145 -128zM166 594l125 141l69 -48l-145 -128zM304 83c22.667 0 43.5 4 62.5 12s35.333 19.167 49 33.5s24.334 31.5 32.001 51.5s11.5 42 11.5 66s-3.83301 46 -11.5 66s-18.334 37.167 -32.001 51.5s-30 25.5 -49 33.5s-39.833 12 -62.5 12
c-22 0 -42.5 -4 -61.5 -12s-35.333 -19.167 -49 -33.5s-24.334 -31.5 -32.001 -51.5s-11.5 -42 -11.5 -66s3.83301 -46 11.5 -66s18.334 -37.167 32.001 -51.5s30 -25.5 49 -33.5s39.5 -12 61.5 -12zM304 504c36 0 69.667 -6.33301 101 -19s58.333 -30.5 81 -53.5
s40.5 -50.333 53.5 -82s19.5 -66.167 19.5 -103.5s-6.5 -71.833 -19.5 -103.5s-30.833 -59 -53.5 -82s-49.667 -40.833 -81 -53.5s-65 -19 -101 -19s-69.5 6.33301 -100.5 19s-57.833 30.5 -80.5 53.5s-40.5 50.333 -53.5 82s-19.5 66.167 -19.5 103.5
s6.5 71.833 19.5 103.5s30.833 59 53.5 82s49.5 40.833 80.5 53.5s64.5 19 100.5 19z" />
    <glyph glyph-name="OE" unicode="&#x152;" horiz-adv-x="1173" 
d="M403 85c34.667 0 67 6.16699 97 18.5s56 29.833 78 52.5s39.333 49.667 52 81s19 66 19 104s-6.33301 72.667 -19 104s-30 58.333 -52 81s-48 40.167 -78 52.5s-62.333 18.5 -97 18.5c-35.333 0 -68 -6.16699 -98 -18.5s-56 -29.833 -78 -52.5s-39.333 -49.667 -52 -81
s-19 -66 -19 -104s6.33301 -72.667 19 -104s30 -58.333 52 -81s48 -40.167 78 -52.5s62.667 -18.5 98 -18.5zM1108 98v-97.9951h-459v89h-2c-31.333 -32 -68 -57 -110 -75s-88 -27 -138 -27c-48.667 0 -94.167 8.83301 -136.5 26.5s-79 42.167 -110 73.5
s-55.333 68.666 -73 111.999s-26.5 90.666 -26.5 141.999s8.83301 98.666 26.5 141.999s42 80.666 73 111.999s67.667 55.666 110 72.999s87.833 26 136.5 26c50 0 96 -8.83301 138 -26.5s78.667 -42.5 110 -74.5h2v89h450v-98h-347v-190h319v-98h-319v-198h356z" />
    <glyph glyph-name="oe" unicode="&#x153;" horiz-adv-x="982" 
d="M304 83c22.667 0 43.5 4 62.5 12s35.333 19.167 49 33.5s24.334 31.5 32.001 51.5s11.5 42 11.5 66s-3.83301 46 -11.5 66s-18.334 37.167 -32.001 51.5s-30 25.5 -49 33.5s-39.833 12 -62.5 12c-22 0 -42.5 -4 -61.5 -12s-35.333 -19.167 -49 -33.5
s-24.334 -31.5 -32.001 -51.5s-11.5 -42 -11.5 -66s3.83301 -46 11.5 -66s18.334 -37.167 32.001 -51.5s30 -25.5 49 -33.5s39.5 -12 61.5 -12zM699 412c-38 0 -68.5 -10.333 -91.5 -31s-37.833 -50 -44.5 -88h262c-5.33301 41.333 -18.833 71.5 -40.5 90.5
s-50.167 28.5 -85.5 28.5zM929 241c0 -4.66699 -0.165039 -10 -0.498047 -16s-0.5 -12.667 -0.5 -20h-366c7.33301 -41.333 24.166 -72.5 50.499 -93.5s58.5 -31.5 96.5 -31.5c24.667 0 48.334 5.33301 71.001 16s41.667 25.667 57 45l72 -68
c-23.333 -26.667 -52.333 -47.5 -87 -62.5s-72.334 -22.5 -113.001 -22.5c-42.667 0 -81.334 9.16699 -116.001 27.5s-62.667 44.166 -84 77.499h-2c-22.667 -33.333 -51.667 -59.166 -87 -77.499s-75 -27.5 -119 -27.5c-36 0 -69.167 6.33301 -99.5 19
s-56.833 30.5 -79.5 53.5s-40.334 50.333 -53.001 82s-19 66.167 -19 103.5s6.33301 71.833 19 103.5s30.334 59 53.001 82s49.167 40.833 79.5 53.5s63.5 19 99.5 19c44 0 83.5 -9 118.5 -27s63.5 -43 85.5 -75h2c20.667 32 47.5 57.167 80.5 75.5s70.833 27.5 113.5 27.5
c34 0 65.333 -5.83301 94 -17.5s53.167 -28.5 73.5 -50.5s35.833 -48.333 46.5 -79c9.33301 -27.333 14 -57.333 14 -90v-13v-14z" />
    <glyph glyph-name="Racute" unicode="&#x154;" horiz-adv-x="676" 
d="M274 784l125 141l69 -48l-145 -128zM188 367l195 -0.000976562c44 0 76.333 9.83301 97 29.5s31 46.167 31 79.5c0 32.667 -10.333 58.834 -31 78.501s-53 29.5 -97 29.5h-195v-217zM188 268.999l-0.00195312 -269h-103v682h299c36.667 0 69.334 -5 98.001 -15
s52.834 -24 72.501 -42s34.667 -39.667 45 -65s15.5 -53.333 15.5 -84c0 -49.333 -12.333 -90.833 -37 -124.5s-60 -57.167 -106 -70.5l160 -281h-123l-145 269h-176z" />
    <glyph glyph-name="racute" unicode="&#x155;" horiz-adv-x="392" 
d="M133 594l125 141l69 -48l-145 -128zM304 504c12 0 24 -1 36 -3s22.667 -4.33301 32 -7l-20 -104c-11.333 3.33301 -24 6.83301 -38 10.5s-27.333 5.5 -40 5.5c-32 0 -55.667 -14.167 -71 -42.5s-23 -66.5 -23 -114.5v-249h-100v492h84l5 -68h2
c30 53.333 74.333 80 133 80z" />
    <glyph glyph-name="uni0156" unicode="&#x156;" horiz-adv-x="676" 
d="M395 -59l-18 -36.999c-6.66699 -13.333 -13.667 -26.5 -21 -39.5s-15 -25.667 -23 -38s-15.667 -23.5 -23 -33.5h-70c12 25.333 22.833 51.166 32.5 77.499s17.167 49.833 22.5 70.5h100zM188 367.001l195 -0.000976562c44 0 76.333 9.83301 97 29.5s31 46.167 31 79.5
c0 32.667 -10.333 58.834 -31 78.501s-53 29.5 -97 29.5h-195v-217zM188 269l-0.00195312 -269h-103v682h299c36.667 0 69.334 -5 98.001 -15s52.834 -24 72.501 -42s34.667 -39.667 45 -65s15.5 -53.333 15.5 -84c0 -49.333 -12.333 -90.833 -37 -124.5
s-60 -57.167 -106 -70.5l160 -281h-123l-145 269h-176z" />
    <glyph glyph-name="rcommaaccent" unicode="&#x157;" horiz-adv-x="392" 
d="M180 -59l-18 -36.999c-6.66699 -13.333 -13.667 -26.5 -21 -39.5s-15 -25.667 -23 -38s-15.667 -23.5 -23 -33.5h-70c12 25.333 22.833 51.166 32.5 77.499s17.167 49.833 22.5 70.5h100zM304 504.001c12 0 24 -1 36 -3s22.667 -4.33301 32 -7l-20 -104
c-11.333 3.33301 -24 6.83301 -38 10.5s-27.333 5.5 -40 5.5c-32 0 -55.667 -14.167 -71 -42.5s-23 -66.5 -23 -114.5v-249h-100v492h84l5 -68h2c30 53.333 74.333 80 133 80z" />
    <glyph glyph-name="Rcaron" unicode="&#x158;" horiz-adv-x="676" 
d="M615 476c0 30.667 -5.16504 58.667 -15.498 84s-25.333 47 -45 65s-43.834 32 -72.501 42s-61.334 15 -98.001 15h-299v-682h103v269h176l145 -269h123l-160 281c46 13.333 81.333 36.833 106 70.5s37 75.167 37 124.5zM188.002 584l195 0.000976562
c44 0 76.333 -9.83301 97 -29.5s31 -45.834 31 -78.501c0 -33.333 -10.333 -59.833 -31 -79.5s-53 -29.5 -97 -29.5h-195v217zM443.002 923.001l50 -34l-112 -126h-80l-112 126l50 34l102 -98z" />
    <glyph glyph-name="rcaron" unicode="&#x159;" horiz-adv-x="392" 
d="M304 504c-58.667 0 -103 -26.667 -133 -80h-2l-5 68h-84v-492h100v249c0 48 7.66699 86.167 23 114.5s39 42.5 71 42.5c12.667 0 26 -1.83301 40 -5.5s26.667 -7.16699 38 -10.5l20 104c-9.33301 2.66699 -20 5 -32 7s-24 3 -36 3zM302 733l49 -34l-112 -126h-79
l-112 126l49 34l102 -98z" />
    <glyph glyph-name="Sacute" unicode="&#x15a;" horiz-adv-x="608" 
d="M251 784l125 141l69 -48l-145 -128zM556 184c0 -25.333 -4.50293 -49.8369 -13.5029 -73.5039s-23.5 -44.667 -43.5 -63s-45.833 -33 -77.5 -44s-69.834 -16.5 -114.501 -16.5c-23.333 0 -46.666 2 -69.999 6s-46.166 9.5 -68.499 16.5s-43.666 15.5 -63.999 25.5
s-38.5 21.333 -54.5 34l60 83c27.333 -20.667 57.5 -37 90.5 -49s68.5 -18 106.5 -18c24.667 0 46.167 2.66699 64.5 8s33.5 12.333 45.5 21s21 18.834 27 30.501s9 23.834 9 36.501c0 26 -12.333 48.5 -37 67.5s-69 35.5 -133 49.5c-80 18 -137.333 44.833 -172 80.5
s-52 77.834 -52 126.501c0 26 5.16699 50.333 15.5 73s25.833 42.667 46.5 60s46.334 31 77.001 41s66.334 15 107.001 15c46 0 91.667 -6.83301 137 -20.5s84 -32.167 116 -55.5l-60 -84c-28 20 -57.667 35.333 -89 46s-66 16 -104 16c-50 0 -86.333 -8.66699 -109 -26
s-34 -38.333 -34 -63c0 -12 2.5 -23.167 7.5 -33.5s13.833 -20.333 26.5 -30s29.334 -18.667 50.001 -27s46.667 -16.166 78 -23.499c42.667 -10 78.667 -21.833 108 -35.5s53.166 -29.167 71.499 -46.5s31.666 -36.5 39.999 -57.5s12.5 -44.167 12.5 -69.5z" />
    <glyph glyph-name="sacute" unicode="&#x15b;" horiz-adv-x="489" 
d="M175 594l125 141l69 -48l-145 -128zM243 78c34 0 58.4932 6.00195 73.4932 18.002s22.5 25 22.5 39c0 17.333 -8.16699 31.666 -24.5 42.999s-46.166 22 -89.499 32c-110.667 26 -166 77.667 -166 155c0 19.333 4.16699 37.5 12.5 54.5s20.333 31.667 36 44
s34.834 22.166 57.501 29.499s48.667 11 78 11c38 0 73.833 -5 107.5 -15s62.167 -23 85.5 -39l-56 -80c-18 13.333 -38.667 24 -62 32s-47.666 12 -72.999 12c-28.667 0 -50.167 -5 -64.5 -15s-21.5 -21.667 -21.5 -35c0 -17.333 8.83301 -30.833 26.5 -40.5
s43.5 -18.5 77.5 -26.5c32.667 -8 60.334 -17.5 83.001 -28.5s40.834 -23.5 54.501 -37.5s23.5 -29.167 29.5 -45.5s9 -33.5 9 -51.5c0 -20 -4.16699 -38.833 -12.5 -56.5s-20.833 -33.167 -37.5 -46.5s-37.167 -24 -61.5 -32s-52.5 -12 -84.5 -12
c-17.333 0 -35.666 1.66699 -54.999 5s-38 7.66602 -56 12.999s-34.667 11.833 -50 19.5s-27.666 16.167 -36.999 25.5l56 79c18 -15.333 39.833 -27.666 65.5 -36.999s51.167 -14 76.5 -14z" />
    <glyph glyph-name="Scircumflex" unicode="&#x15c;" horiz-adv-x="608" 
d="M305 845l-102 -98l-50 34l112 126h80l112 -126l-50 -34zM556 184c0 -25.333 -4.50293 -49.8369 -13.5029 -73.5039s-23.5 -44.667 -43.5 -63s-45.833 -33 -77.5 -44s-69.834 -16.5 -114.501 -16.5c-23.333 0 -46.666 2 -69.999 6s-46.166 9.5 -68.499 16.5
s-43.666 15.5 -63.999 25.5s-38.5 21.333 -54.5 34l60 83c27.333 -20.667 57.5 -37 90.5 -49s68.5 -18 106.5 -18c24.667 0 46.167 2.66699 64.5 8s33.5 12.333 45.5 21s21 18.834 27 30.501s9 23.834 9 36.501c0 26 -12.333 48.5 -37 67.5s-69 35.5 -133 49.5
c-80 18 -137.333 44.833 -172 80.5s-52 77.834 -52 126.501c0 26 5.16699 50.333 15.5 73s25.833 42.667 46.5 60s46.334 31 77.001 41s66.334 15 107.001 15c46 0 91.667 -6.83301 137 -20.5s84 -32.167 116 -55.5l-60 -84c-28 20 -57.667 35.333 -89 46s-66 16 -104 16
c-50 0 -86.333 -8.66699 -109 -26s-34 -38.333 -34 -63c0 -12 2.5 -23.167 7.5 -33.5s13.833 -20.333 26.5 -30s29.334 -18.667 50.001 -27s46.667 -16.166 78 -23.499c42.667 -10 78.667 -21.833 108 -35.5s53.166 -29.167 71.499 -46.5s31.666 -36.5 39.999 -57.5
s12.5 -44.167 12.5 -69.5z" />
    <glyph glyph-name="scircumflex" unicode="&#x15d;" horiz-adv-x="489" 
d="M247 655l-102 -98l-50 34l112 126h80l112 -126l-50 -34zM243 78c34 0 58.4932 6.00195 73.4932 18.002s22.5 25 22.5 39c0 17.333 -8.16699 31.666 -24.5 42.999s-46.166 22 -89.499 32c-110.667 26 -166 77.667 -166 155c0 19.333 4.16699 37.5 12.5 54.5
s20.333 31.667 36 44s34.834 22.166 57.501 29.499s48.667 11 78 11c38 0 73.833 -5 107.5 -15s62.167 -23 85.5 -39l-56 -80c-18 13.333 -38.667 24 -62 32s-47.666 12 -72.999 12c-28.667 0 -50.167 -5 -64.5 -15s-21.5 -21.667 -21.5 -35
c0 -17.333 8.83301 -30.833 26.5 -40.5s43.5 -18.5 77.5 -26.5c32.667 -8 60.334 -17.5 83.001 -28.5s40.834 -23.5 54.501 -37.5s23.5 -29.167 29.5 -45.5s9 -33.5 9 -51.5c0 -20 -4.16699 -38.833 -12.5 -56.5s-20.833 -33.167 -37.5 -46.5s-37.167 -24 -61.5 -32
s-52.5 -12 -84.5 -12c-17.333 0 -35.666 1.66699 -54.999 5s-38 7.66602 -56 12.999s-34.667 11.833 -50 19.5s-27.666 16.167 -36.999 25.5l56 79c18 -15.333 39.833 -27.666 65.5 -36.999s51.167 -14 76.5 -14z" />
    <glyph glyph-name="Scedilla" unicode="&#x15e;" horiz-adv-x="608" 
d="M556 184c0 -23.333 -3.99902 -46.1709 -11.999 -68.5039s-20.667 -42.333 -38 -60s-39.5 -32.5 -66.5 -44.5s-59.833 -19.333 -98.5 -22l-17 -31v-3c0.666992 0 1 0.166992 1 0.5s0.333008 0.5 1 0.5c38 0 66 -7.33301 84 -22s27 -32.334 27 -53.001
c0 -23.333 -9 -42.666 -27 -57.999s-46 -23 -84 -23c-19.333 0 -39 2.5 -59 7.5s-37.667 11.833 -53 20.5l20 40c10.667 -6.66699 23 -12.167 37 -16.5s28.667 -6.5 44 -6.5s27.166 3.16699 35.499 9.5s12.5 15.5 12.5 27.5c0 9.33301 -3.83301 17.333 -11.5 24
s-19.834 10 -36.501 10c-7.33301 0 -13.5 -0.333008 -18.5 -1s-9.16699 -1.66699 -12.5 -3l-33 20l31 56c-42.667 2.66699 -84.5 11 -125.5 25s-76.5 32.667 -106.5 56l60 83c27.333 -20.667 57.5 -37 90.5 -49s68.5 -18 106.5 -18c24.667 0 46.167 2.66699 64.5 8
s33.5 12.333 45.5 21s21 18.834 27 30.501s9 23.834 9 36.501c0 26 -12.333 48.5 -37 67.5s-69 35.5 -133 49.5c-80 18 -137.333 44.833 -172 80.5s-52 77.834 -52 126.501c0 26 5.16699 50.333 15.5 73s25.833 42.667 46.5 60s46.334 31 77.001 41s66.334 15 107.001 15
c45.333 0 90.333 -6.83301 135 -20.5s84 -32.5 118 -56.5l-60 -82c-28 19.333 -57.667 34.333 -89 45s-66 16 -104 16c-50 0 -86.333 -8.66699 -109 -26s-34 -38.333 -34 -63c0 -12 2.5 -23.167 7.5 -33.5s13.833 -20.333 26.5 -30s29.334 -18.667 50.001 -27
s46.667 -16.166 78 -23.499c42.667 -10 78.667 -21.833 108 -35.5s53.166 -29.167 71.499 -46.5s31.666 -36.5 39.999 -57.5s12.5 -44.167 12.5 -69.5z" />
    <glyph glyph-name="scedilla" unicode="&#x15f;" horiz-adv-x="489" 
d="M253 -45c0.666992 0 0.99707 0.168945 0.99707 0.501953s0.333008 0.5 1 0.5c38 0 66 -7.33301 84 -22s27 -32.334 27 -53.001c0 -23.333 -9 -42.666 -27 -57.999s-46 -23 -84 -23c-19.333 0 -39 2.5 -59 7.5s-37.667 11.833 -53 20.5l20 40
c10.667 -6.66699 23 -12.167 37 -16.5s28.667 -6.5 44 -6.5s27.166 3.16699 35.499 9.5s12.5 15.5 12.5 27.5c0 9.33301 -3.83301 17.333 -11.5 24s-19.834 10 -36.501 10c-7.33301 0 -13.5 -0.333008 -18.5 -1s-9.16699 -1.66699 -12.5 -3l-33 20l31 56v1
c-32 3.33301 -63.5 10.5 -94.5 21.5s-54.833 24.167 -71.5 39.5l56 79c18 -15.333 39.833 -27.666 65.5 -36.999s51.167 -14 76.5 -14c34 0 58.5 6 73.5 18s22.5 25 22.5 39c0 17.333 -8.16699 31.666 -24.5 42.999s-46.166 22 -89.499 32c-110.667 26 -166 77.667 -166 155
c0 19.333 4.16699 37.5 12.5 54.5s20.333 31.833 36 44.5s34.834 22.667 57.501 30s48.667 11 78 11c38 0 73.833 -5.16699 107.5 -15.5s62.167 -23.5 85.5 -39.5l-56 -80c-18 13.333 -38.667 24 -62 32s-47.666 12 -72.999 12c-28.667 0 -50.167 -5 -64.5 -15
s-21.5 -21.667 -21.5 -35c0 -17.333 8.83301 -30.833 26.5 -40.5s43.5 -18.5 77.5 -26.5c32.667 -8 60.334 -17.5 83.001 -28.5s40.834 -23.5 54.501 -37.5s23.5 -29.167 29.5 -45.5s9 -33.5 9 -51.5c0 -36.667 -14.167 -68.834 -42.5 -96.501s-70.5 -43.834 -126.5 -48.501
l-17 -31v-3z" />
    <glyph glyph-name="Scaron" unicode="&#x160;" horiz-adv-x="608" 
d="M162 507c0 24.667 11.3359 45.6709 34.0029 63.0039s59 26 109 26c38 0 72.667 -5.33301 104 -16s61 -26 89 -46l60 84c-32 23.333 -70.667 41.833 -116 55.5s-91 20.5 -137 20.5c-40.667 0 -76.334 -5 -107.001 -15s-56.334 -23.667 -77.001 -41
s-36.167 -37.333 -46.5 -60s-15.5 -47 -15.5 -73c0 -48.667 17.333 -90.834 52 -126.501s92 -62.5 172 -80.5c64 -14 108.333 -30.5 133 -49.5s37 -41.5 37 -67.5c0 -12.667 -3 -24.834 -9 -36.501s-15 -21.834 -27 -30.501s-27.167 -15.667 -45.5 -21s-39.833 -8 -64.5 -8
c-38 0 -73.5 6 -106.5 18s-63.167 28.333 -90.5 49l-60 -83c16 -12.667 34.167 -24 54.5 -34s41.666 -18.5 63.999 -25.5s45.166 -12.5 68.499 -16.5s46.666 -6 69.999 -6c44.667 0 82.834 5.5 114.501 16.5s57.5 25.667 77.5 44s34.5 39.333 43.5 63s13.5 48.167 13.5 73.5
s-4.16699 48.5 -12.5 69.5s-21.666 40.167 -39.999 57.5s-42.166 32.833 -71.499 46.5s-65.333 25.5 -108 35.5c-31.333 7.33301 -57.333 15.166 -78 23.499s-37.334 17.333 -50.001 27s-21.5 19.667 -26.5 30s-7.5 21.5 -7.5 33.5zM410.003 923.004l50 -34l-112 -126h-80
l-112 126l50 34l102 -98z" />
    <glyph glyph-name="scaron" unicode="&#x161;" horiz-adv-x="489" 
d="M243 -13c32 0 60.1738 3.99805 84.5068 11.998s44.833 18.667 61.5 32s29.167 28.833 37.5 46.5s12.5 36.5 12.5 56.5c0 18 -3 35.167 -9 51.5s-15.833 31.5 -29.5 45.5s-31.834 26.5 -54.501 37.5s-50.334 20.5 -83.001 28.5c-34 8 -59.833 16.833 -77.5 26.5
s-26.5 23.167 -26.5 40.5c0 13.333 7.16699 25 21.5 35s35.833 15 64.5 15c25.333 0 49.666 -4 72.999 -12s44 -18.667 62 -32l56 80c-23.333 16 -51.833 29 -85.5 39s-69.5 15 -107.5 15c-29.333 0 -55.333 -3.66699 -78 -11s-41.834 -17.166 -57.501 -29.499
s-27.667 -27 -36 -44s-12.5 -35.167 -12.5 -54.5c0 -77.333 55.333 -129 166 -155c43.333 -10 73.166 -20.667 89.499 -32s24.5 -25.666 24.5 -42.999c0 -14 -7.5 -27 -22.5 -39s-39.5 -18 -73.5 -18c-25.333 0 -50.833 4.66699 -76.5 14s-47.5 21.666 -65.5 36.999l-56 -79
c9.33301 -9.33301 21.666 -17.833 36.999 -25.5s32 -14.167 50 -19.5s36.667 -9.66602 56 -12.999s37.666 -5 54.999 -5zM355.007 732.998l49 -34l-112 -126h-80l-111 126l49 34l102 -98z" />
    <glyph glyph-name="Tcommaaccent" unicode="&#x162;" horiz-adv-x="577" 
d="M287 -45c0.666992 0 1.00098 0.166992 1.00098 0.5s0.333008 0.5 1 0.5c38 0 66 -7.33301 84 -22s27 -32.334 27 -53.001c0 -23.333 -9 -42.666 -27 -57.999s-46 -23 -84 -23c-19.333 0 -39 2.5 -59 7.5s-37.667 11.833 -53 20.5l21 40c10 -6.66699 22 -12.167 36 -16.5
s29 -6.5 45 -6.5c14.667 0 26.167 3.16699 34.5 9.5s12.5 15.5 12.5 27.5c0 9.33301 -3.83301 17.333 -11.5 24s-19.834 10 -36.501 10c-7.33301 0 -13.5 -0.333008 -18.5 -1s-9.16699 -1.66699 -12.5 -3l-33 20l37 67v1h-14v584h-212v98h527v-98h-212v-584h-29l-24 -42v-3z
" />
    <glyph glyph-name="tcommaaccent" unicode="&#x163;" horiz-adv-x="399" 
d="M342 -119c0 -23.333 -9.16797 -42.666 -27.501 -57.999s-46.5 -23 -84.5 -23c-19.333 0 -39 2.5 -59 7.5s-37.667 11.833 -53 20.5l21 40c10.667 -6.66699 23 -12.167 37 -16.5s28.667 -6.5 44 -6.5c14.667 0 26.167 3.16699 34.5 9.5s12.5 15.5 12.5 27.5
c0 9.33301 -3.83301 17.333 -11.5 24s-19.834 10 -36.501 10c-6.66699 0 -12.667 -0.333008 -18 -1s-9.66602 -1.66699 -12.999 -3l-33 20l36 64c-24 8 -42.833 22.333 -56.5 43s-20.5 48.667 -20.5 84v277h-82v92h82v166h100v-166h139v-92h-139v-263
c0 -20 3.5 -34.333 10.5 -43s17.833 -13 32.5 -13c12 0 26.333 1.16699 43 3.5s32.667 5.5 48 9.5l16 -91c-18.667 -4.66699 -38.667 -8.5 -60 -11.5s-41 -4.5 -59 -4.5l-17 -29v-3c0.666992 0 1.33398 0.333008 2.00098 1c38 0 66.167 -7.33301 84.5 -22
s27.5 -32.334 27.5 -53.001z" />
    <glyph glyph-name="Tcaron" unicode="&#x164;" horiz-adv-x="577" 
d="M391 923l50 -34l-112 -126h-80l-112 126l50 34l102 -98zM552 584h-212v-584h-103v584h-212v98h527v-98z" />
    <glyph glyph-name="tcaron" unicode="&#x165;" horiz-adv-x="412" 
d="M402 688c-10 -23.333 -23.167 -48.833 -39.5 -76.5s-31.5 -51.167 -45.5 -70.5h-70c11.333 25.333 21.833 51 31.5 77s17.167 49.333 22.5 70h101zM245 -13c-40 0 -71.833 10.833 -95.5 32.5s-35.5 56.167 -35.5 103.5v277h-82v92h82v166h100v-166h139v-92h-139v-263
c0 -20 3.5 -34.333 10.5 -43s17.833 -13 32.5 -13c12 0 26.333 1.16699 43 3.5s32.667 5.5 48 9.5l16 -91c-18.667 -4.66699 -38.667 -8.5 -60 -11.5s-41 -4.5 -59 -4.5z" />
    <glyph glyph-name="Tbar" unicode="&#x166;" horiz-adv-x="577" 
d="M340 584v-229h89v-65h-89v-290h-103v290h-89v65h89v229h-212v98h527v-98h-212z" />
    <glyph glyph-name="tbar" unicode="&#x167;" horiz-adv-x="399" 
d="M245 -13c-40 0 -71.833 10.833 -95.5 32.5s-35.5 56.167 -35.5 103.5v96h-71v59h71v122h-82v92h82v166h100v-166h139v-92h-139v-122h101v-59h-101v-82c0 -20 3.5 -34.333 10.5 -43s17.833 -13 32.5 -13c12 0 26.333 1.16699 43 3.5s32.667 5.5 48 9.5l16 -91
c-18.667 -4.66699 -38.667 -8.5 -60 -11.5s-41 -4.5 -59 -4.5z" />
    <glyph glyph-name="Utilde" unicode="&#x168;" horiz-adv-x="695" 
d="M620 682h-102.998v-425c0 -29.333 -4.33301 -54.666 -13 -75.999s-20.5 -39.166 -35.5 -53.499s-33 -25 -54 -32s-43.5 -10.5 -67.5 -10.5s-46.333 3.5 -67 10.5s-38.5 17.667 -53.5 32s-26.833 32.166 -35.5 53.499s-13 46.666 -13 75.999v425h-103v-429
c0 -43.333 6.66699 -81.5 20 -114.5s32 -60.667 56 -83s52.667 -39.333 86 -51s70 -17.5 110 -17.5s76.667 5.83301 110 17.5s62.166 28.667 86.499 51s43.166 50 56.499 83s20 71.167 20 114.5v429zM418.002 758c-14.667 0 -28.168 2.33301 -40.501 7
s-24.166 9.66699 -35.499 15l-33 15c-10.667 4.66699 -21.334 7 -32.001 7c-11.333 0 -21.166 -4.33301 -29.499 -13s-15.5 -18.667 -21.5 -30l-53 29c10 22.667 24 42 42 58s38.667 24 62 24c13.333 0 26.333 -2.33301 39 -7s24.667 -9.66699 36 -15s22.5 -10.333 33.5 -15
s21.833 -7 32.5 -7c11.333 0 21 4.16699 29 12.5s15 18.5 21 30.5l53 -29c-9.33301 -23.333 -23 -42.833 -41 -58.5s-38.667 -23.5 -62 -23.5z" />
    <glyph glyph-name="utilde" unicode="&#x169;" horiz-adv-x="605" 
d="M365 568c-14.667 0 -28.1689 2.33301 -40.502 7s-24.166 9.66699 -35.499 15l-33 15c-10.667 4.66699 -21.334 7 -32.001 7c-11.333 0 -21.166 -4.33301 -29.499 -13s-15.5 -18.667 -21.5 -30l-53 29c9.33301 22.667 23 42 41 58s38.667 24 62 24
c13.333 0 26.333 -2.33301 39 -7s24.834 -9.66699 36.501 -15l34 -15c11 -4.66699 21.833 -7 32.5 -7c11.333 0 21 4.16699 29 12.5s15 18.5 21 30.5l53 -29c-9.33301 -23.333 -23 -42.833 -41 -58.5s-38.667 -23.5 -62 -23.5zM524.998 492l0.000976562 -492h-84l-4 64h-2
c-22.667 -25.333 -49.334 -44.333 -80.001 -57s-62 -19 -94 -19c-25.333 0 -49.5 4.33301 -72.5 13s-43.333 21.834 -61 39.501s-31.667 40.167 -42 67.5s-15.5 59.666 -15.5 96.999v287h100v-258c0 -28 3 -51.833 9 -71.5s14.333 -35.5 25 -47.5s23.167 -20.667 37.5 -26
s30.166 -8 47.499 -8c20.667 0 39.334 4.16699 56.001 12.5s31 19.5 43 33.5s21.167 30.5 27.5 49.5s9.5 39.167 9.5 60.5v255h100z" />
    <glyph glyph-name="Umacron" unicode="&#x16a;" horiz-adv-x="695" 
d="M620 682h-102.998v-425c0 -29.333 -4.33301 -54.666 -13 -75.999s-20.5 -39.166 -35.5 -53.499s-33 -25 -54 -32s-43.5 -10.5 -67.5 -10.5s-46.333 3.5 -67 10.5s-38.5 17.667 -53.5 32s-26.833 32.166 -35.5 53.499s-13 46.666 -13 75.999v425h-103v-429
c0 -43.333 6.66699 -81.5 20 -114.5s32 -60.667 56 -83s52.667 -39.333 86 -51s70 -17.5 110 -17.5s76.667 5.83301 110 17.5s62.166 28.667 86.499 51s43.166 50 56.499 83s20 71.167 20 114.5v429zM206.002 852h283v-65h-283v65z" />
    <glyph glyph-name="umacron" unicode="&#x16b;" horiz-adv-x="605" 
d="M156 662h282v-65h-282v65zM525 492l0.000976562 -492h-84l-4 64h-2c-22.667 -25.333 -49.334 -44.333 -80.001 -57s-62 -19 -94 -19c-25.333 0 -49.5 4.33301 -72.5 13s-43.333 21.834 -61 39.501s-31.667 40.167 -42 67.5s-15.5 59.666 -15.5 96.999v287h100v-258
c0 -28 3 -51.833 9 -71.5s14.333 -35.5 25 -47.5s23.167 -20.667 37.5 -26s30.166 -8 47.499 -8c20.667 0 39.334 4.16699 56.001 12.5s31 19.5 43 33.5s21.167 30.5 27.5 49.5s9.5 39.167 9.5 60.5v255h100z" />
    <glyph glyph-name="Ubreve" unicode="&#x16c;" horiz-adv-x="695" 
d="M620 682h-102.998v-425c0 -29.333 -4.33301 -54.666 -13 -75.999s-20.5 -39.166 -35.5 -53.499s-33 -25 -54 -32s-43.5 -10.5 -67.5 -10.5s-46.333 3.5 -67 10.5s-38.5 17.667 -53.5 32s-26.833 32.166 -35.5 53.499s-13 46.666 -13 75.999v425h-103v-429
c0 -43.333 6.66699 -81.5 20 -114.5s32 -60.667 56 -83s52.667 -39.333 86 -51s70 -17.5 110 -17.5s76.667 5.83301 110 17.5s62.166 28.667 86.499 51s43.166 50 56.499 83s20 71.167 20 114.5v429zM347.002 757c-34 0 -64.6689 9.66699 -92.002 29s-45.666 46 -54.999 80
l55 22c16.667 -46 47.334 -69 92.001 -69c45.333 0 76.333 23 93 69l55 -22c-9.33301 -33.333 -27.833 -59.833 -55.5 -79.5s-58.5 -29.5 -92.5 -29.5z" />
    <glyph glyph-name="ubreve" unicode="&#x16d;" horiz-adv-x="605" 
d="M295 567c-34 0 -64.833 9.66699 -92.5 29s-46.167 46 -55.5 80l55 22c16.667 -46 47.667 -69 93 -69s76.333 23 93 69l55 -22c-9.33301 -34 -27.833 -60.667 -55.5 -80s-58.5 -29 -92.5 -29zM525 492l0.000976562 -492h-84l-4 64h-2
c-22.667 -25.333 -49.334 -44.333 -80.001 -57s-62 -19 -94 -19c-25.333 0 -49.5 4.33301 -72.5 13s-43.333 21.834 -61 39.501s-31.667 40.167 -42 67.5s-15.5 59.666 -15.5 96.999v287h100v-258c0 -28 3 -51.833 9 -71.5s14.333 -35.5 25 -47.5s23.167 -20.667 37.5 -26
s30.166 -8 47.499 -8c20.667 0 39.334 4.16699 56.001 12.5s31 19.5 43 33.5s21.167 30.5 27.5 49.5s9.5 39.167 9.5 60.5v255h100z" />
    <glyph glyph-name="Uring" unicode="&#x16e;" horiz-adv-x="695" 
d="M620 682h-102.998v-425c0 -29.333 -4.33301 -54.666 -13 -75.999s-20.5 -39.166 -35.5 -53.499s-33 -25 -54 -32s-43.5 -10.5 -67.5 -10.5s-46.333 3.5 -67 10.5s-38.5 17.667 -53.5 32s-26.833 32.166 -35.5 53.499s-13 46.666 -13 75.999v425h-103v-429
c0 -43.333 6.66699 -81.5 20 -114.5s32 -60.667 56 -83s52.667 -39.333 86 -51s70 -17.5 110 -17.5s76.667 5.83301 110 17.5s62.166 28.667 86.499 51s43.166 50 56.499 83s20 71.167 20 114.5v429zM347.002 967c34.667 0 63.334 -10.667 86.001 -32s34 -48.333 34 -81
c0 -16 -3 -30.833 -9 -44.5s-14.333 -25.5 -25 -35.5s-23.334 -17.833 -38.001 -23.5s-30.667 -8.5 -48 -8.5s-33.166 2.83301 -47.499 8.5s-26.833 13.5 -37.5 23.5s-19 21.833 -25 35.5s-9 28.5 -9 44.5s3 31 9 45s14.333 26 25 36s23.167 17.833 37.5 23.5
s30.166 8.5 47.499 8.5zM347.002 788c21.333 0 38.333 6.16699 51 18.5s19 28.166 19 47.499s-6.5 35.333 -19.5 48s-29.833 19 -50.5 19s-37.334 -6.33301 -50.001 -19s-19 -28.667 -19 -48s6.33301 -35.166 19 -47.499s29.334 -18.5 50.001 -18.5z" />
    <glyph glyph-name="uring" unicode="&#x16f;" horiz-adv-x="605" 
d="M295 778c16.667 0 32.333 -2.83301 47 -8.5s27.334 -13.5 38.001 -23.5s19 -22 25 -36s9 -29 9 -45s-3 -30.833 -9 -44.5s-14.167 -25.5 -24.5 -35.5s-22.833 -17.833 -37.5 -23.5s-30.667 -8.5 -48 -8.5s-33.333 2.83301 -48 8.5s-27.167 13.5 -37.5 23.5
s-18.5 21.833 -24.5 35.5s-9 28.5 -9 44.5s3 31 9 45s14.333 26 25 36s23.167 17.833 37.5 23.5s30.166 8.5 47.499 8.5zM294.999 599c20.667 0 37.334 6.16699 50.001 18.5s19 28.166 19 47.499s-6.33301 35.333 -19 48s-29.334 19 -50.001 19
s-37.334 -6.33301 -50.001 -19s-19 -28.667 -19 -48s6.33301 -35.166 19 -47.499s29.334 -18.5 50.001 -18.5zM524.999 492l0.000976562 -492h-84l-4 64h-2c-22.667 -25.333 -49.334 -44.333 -80.001 -57s-62 -19 -94 -19c-25.333 0 -49.5 4.33301 -72.5 13
s-43.333 21.834 -61 39.501s-31.667 40.167 -42 67.5s-15.5 59.666 -15.5 96.999v287h100v-258c0 -28 3 -51.833 9 -71.5s14.333 -35.5 25 -47.5s23.167 -20.667 37.5 -26s30.166 -8 47.499 -8c20.667 0 39.334 4.16699 56.001 12.5s31 19.5 43 33.5s21.167 30.5 27.5 49.5
s9.5 39.167 9.5 60.5v255h100z" />
    <glyph glyph-name="Uhungarumlaut" unicode="&#x170;" horiz-adv-x="695" 
d="M219 784l126 141l69 -48l-145 -128zM620 682h-102.998v-425c0 -29.333 -4.33301 -54.666 -13 -75.999s-20.5 -39.166 -35.5 -53.499s-33 -25 -54 -32s-43.5 -10.5 -67.5 -10.5s-46.333 3.5 -67 10.5s-38.5 17.667 -53.5 32s-26.833 32.166 -35.5 53.499
s-13 46.666 -13 75.999v425h-103v-429c0 -43.333 6.66699 -81.5 20 -114.5s32 -60.667 56 -83s52.667 -39.333 86 -51s70 -17.5 110 -17.5s76.667 5.83301 110 17.5s62.166 28.667 86.499 51s43.166 50 56.499 83s20 71.167 20 114.5v429zM397.002 784l125 141l69 -48
l-145 -128z" />
    <glyph glyph-name="uhungarumlaut" unicode="&#x171;" horiz-adv-x="605" 
d="M158 594l125 141l69 -48l-145 -128zM336 594l125 141l69 -48l-145 -128zM525 492l0.000976562 -492h-84l-4 64h-2c-22.667 -25.333 -49.334 -44.333 -80.001 -57s-62 -19 -94 -19c-25.333 0 -49.5 4.33301 -72.5 13s-43.333 21.834 -61 39.501s-31.667 40.167 -42 67.5
s-15.5 59.666 -15.5 96.999v287h100v-258c0 -28 3 -51.833 9 -71.5s14.333 -35.5 25 -47.5s23.167 -20.667 37.5 -26s30.166 -8 47.499 -8c20.667 0 39.334 4.16699 56.001 12.5s31 19.5 43 33.5s21.167 30.5 27.5 49.5s9.5 39.167 9.5 60.5v255h100z" />
    <glyph glyph-name="Uogonek" unicode="&#x172;" horiz-adv-x="695" 
d="M620 682l-0.000976562 -428.996c0 -37.333 -5.16699 -71 -15.5 -101s-25 -56 -44 -78s-41.667 -40 -68 -54s-55.5 -23.333 -87.5 -28c-26 -22.667 -43.833 -42.167 -53.5 -58.5s-14.5 -30.833 -14.5 -43.5c0 -10.667 3.33301 -19.667 10 -27s16.667 -11 30 -11
c8 0 15.833 1.33301 23.5 4s15.5 6 23.5 10l19 -41c-11.333 -7.33301 -25.5 -13.333 -42.5 -18s-33.5 -7 -49.5 -7c-28 0 -49.667 7 -65 21s-23 32 -23 54c0 17.333 5.33301 35.333 16 54s28 37.667 52 57v2c-38 1.33301 -72.667 8.16602 -104 20.499
s-58.166 29.666 -80.499 51.999s-39.833 49.666 -52.5 81.999s-19 69.166 -19 110.499v429h103v-425c0 -29.333 4.33301 -54.666 13 -75.999s20.5 -39.166 35.5 -53.499s32.833 -25 53.5 -32s43 -10.5 67 -10.5s46.5 3.5 67.5 10.5s39 17.667 54 32
s26.833 32.166 35.5 53.499s13 46.666 13 75.999v425h103z" />
    <glyph glyph-name="uogonek" unicode="&#x173;" horiz-adv-x="605" 
d="M442 -200c-28 0 -49.665 7.00098 -64.998 21.001s-23 32 -23 54c0 20 6.66699 40.333 20 61s35.666 42 66.999 64l-4 64h-2c-22.667 -25.333 -49.334 -44.333 -80.001 -57s-62 -19 -94 -19c-25.333 0 -49.5 4.33301 -72.5 13s-43.333 21.834 -61 39.501
s-31.667 40.167 -42 67.5s-15.5 59.666 -15.5 96.999v287h100v-258c0 -28 3 -51.833 9 -71.5s14.333 -35.5 25 -47.5s23.167 -20.667 37.5 -26s30.166 -8 47.499 -8c20.667 0 39.334 4.16699 56.001 12.5s31 19.5 43 33.5s21.167 30.5 27.5 49.5s9.5 39.167 9.5 60.5v255
h100v-492h-19c-30 -24.667 -50.667 -45.834 -62 -63.501s-17 -33.167 -17 -46.5c0 -10.667 3.5 -19.667 10.5 -27s17.167 -11 30.5 -11c8 0 15.833 1.33301 23.5 4s15.5 6 23.5 10l19 -41c-11.333 -7.33301 -25.5 -13.333 -42.5 -18s-33.5 -7 -49.5 -7z" />
    <glyph glyph-name="Wcircumflex" unicode="&#x174;" horiz-adv-x="957" 
d="M479 845l-102 -98l-50 34l112 126h80l112 -126l-50 -34zM942 682l-206.001 -681.999h-90l-118 362c-3.33301 9.33301 -7.33301 22.666 -12 39.999c-4 14 -9 32.5 -15 55.5s-13 51.5 -21 85.5h-2l-21.5 -85.5c-5.66699 -23 -10.5 -41.5 -14.5 -55.5
c-4.66699 -17.333 -8.66699 -30.666 -12 -39.999l-118 -362h-91l-206 682h111l90 -309c3.33301 -12 6.5 -24.167 9.5 -36.5l10.5 -43c4 -16.333 8.5 -35.833 13.5 -58.5l17.5 -83h2l18 70.5c5.33301 21 10.333 39.167 15 54.5c4.66699 17.333 9.33398 33 14.001 47l117 358
h91l117 -358c4 -12 8.33301 -26.667 13 -44l14.5 -54l19.5 -74h2c7.33301 37.333 14.333 69.666 21 96.999l17 69c5.33301 22 10 40.333 14 55l89 309h111z" />
    <glyph glyph-name="wcircumflex" unicode="&#x175;" horiz-adv-x="759" 
d="M380 655l-102 -98l-50 34l112 126h80l112 -126l-50 -34zM734 492l-147.001 -492.002h-89l-83 240c-5.33301 16 -11 34.167 -17 54.5l-17 59.5h-2c-5.33301 -19.333 -11.166 -39.166 -17.499 -59.499l-17.5 -54.5l-83 -240h-89l-147 492h109l48 -179l21.5 -81.5
c7 -27.667 13.167 -53.167 18.5 -76.5h2l22 74c8 26.667 16.333 52.667 25 78l64 185h89l64 -185c9.33301 -25.333 17.833 -51.333 25.5 -78l21.5 -74h2l19 76.5c6.66699 27.667 13.667 54.834 21 81.501l49 179h108z" />
    <glyph glyph-name="Ycircumflex" unicode="&#x176;" horiz-adv-x="673" 
d="M337 845l-102 -98l-50 34l112 126h80l112 -126l-50 -34zM388 0h-103v289l-265 393h124l192 -300h2l191 300h124l-265 -393v-289z" />
    <glyph glyph-name="ycircumflex" unicode="&#x177;" horiz-adv-x="559" 
d="M289 655l-102 -98l-50 34l112 126h80l112 -126l-50 -34zM188 -200c-14 0 -27.498 1.33203 -40.498 3.99902s-25.5 5.66699 -37.5 9l17 90c11.333 -3.33301 21.666 -5.66602 30.999 -6.99902s19.666 -2 30.999 -2c15.333 0 28 6.33301 38 19s18.667 29.667 26 51l13 39
l-246 489h119l167 -362h2l121 362h110l-196 -552c-10 -28.667 -20.667 -52 -32 -70s-23.333 -32.167 -36 -42.5s-26.167 -17.5 -40.5 -21.5s-29.833 -6 -46.5 -6z" />
    <glyph glyph-name="Ydieresis" unicode="&#x178;" horiz-adv-x="673" 
d="M183 829c0 17.333 5.83301 32 17.5 44s26.5 18 44.5 18c18.667 0 33.834 -6 45.501 -18s17.5 -26.667 17.5 -44s-5.83301 -32 -17.5 -44s-26.834 -18 -45.501 -18c-18 0 -32.833 6 -44.5 18s-17.5 26.667 -17.5 44zM373 829c0 17.333 5.83301 32 17.5 44s26.5 18 44.5 18
c18.667 0 33.834 -6 45.501 -18s17.5 -26.667 17.5 -44s-5.83301 -32 -17.5 -44s-26.834 -18 -45.501 -18c-18 0 -32.833 6 -44.5 18s-17.5 26.667 -17.5 44zM388 0h-103v289l-265 393h124l192 -300h2l191 300h124l-265 -393v-289z" />
    <glyph glyph-name="Zacute" unicode="&#x179;" horiz-adv-x="627" 
d="M266 784l125 141l69 -48l-145 -128zM567 98v-98h-512v91l362 491v2h-346v98h481v-91l-362 -491v-2h377z" />
    <glyph glyph-name="zacute" unicode="&#x17a;" horiz-adv-x="501" 
d="M204 594l125 141l69 -48l-145 -128zM436 92v-92h-381v89l239 309v2h-228v92h359v-89l-240 -309v-2h251z" />
    <glyph glyph-name="Zdotaccent" unicode="&#x17b;" horiz-adv-x="627" 
d="M269 829c0 17.333 5.83301 32 17.5 44s26.5 18 44.5 18c18.667 0 33.834 -6 45.501 -18s17.5 -26.667 17.5 -44s-5.83301 -32 -17.5 -44s-26.834 -18 -45.501 -18c-18 0 -32.833 6 -44.5 18s-17.5 26.667 -17.5 44zM567 98v-98h-512v91l362 491v2h-346v98h481v-91
l-362 -491v-2h377z" />
    <glyph glyph-name="zdotaccent" unicode="&#x17c;" horiz-adv-x="501" 
d="M185 92v2l240 309v89h-359v-92h228v-2l-239 -309v-89h381v92h-251zM309 639c0 -15.333 -5.33301 -28.666 -16 -39.999s-24.667 -17 -42 -17s-31.333 5.66699 -42 17s-16 24.666 -16 39.999c0 16 5.33301 29.667 16 41s24.667 17 42 17s31.333 -5.66699 42 -17
s16 -25 16 -41z" />
    <glyph glyph-name="Zcaron" unicode="&#x17d;" horiz-adv-x="627" 
d="M190 98v2l362 491v91h-481v-98h346v-2l-362 -491v-91h512v98h-377zM426 923l50 -34l-112 -126h-80l-112 126l50 34l102 -98z" />
    <glyph glyph-name="zcaron" unicode="&#x17e;" horiz-adv-x="501" 
d="M185 92v2l240 309v89h-359v-92h228v-2l-239 -309v-89h381v92h-251zM357 733l49 -34l-112 -126h-79l-112 126l49 34l102 -98z" />
    <glyph glyph-name="florin" unicode="&#x192;" horiz-adv-x="600" 
d="M487 622c-26.667 0 -45.332 -8.83105 -55.999 -26.498s-19.667 -41.5 -27 -71.5l-21 -94h135v-81h-154l-66 -286c-6.66699 -29.333 -14.834 -55.833 -24.501 -79.5s-21.834 -43.834 -36.501 -60.501s-32.167 -29.334 -52.5 -38.001s-44.5 -13 -72.5 -13
c-17.333 0 -34.666 1.16699 -51.999 3.5s-34 6.16602 -50 11.499l38 90c12 -4 23 -7 33 -9s20.333 -3 31 -3c26.667 0 45.5 8.83301 56.5 26.5s19.833 41.5 26.5 71.5l66 286h-129v81h148l22 93c6.66699 30 14.834 56.833 24.501 80.5s21.667 43.667 36 60
s31.666 29 51.999 38s44.5 13.5 72.5 13.5c17.333 0 34.833 -1.16699 52.5 -3.5s34.5 -6.16602 50.5 -11.499l-38 -90c-12 4 -23 7 -33 9s-20.667 3 -32 3z" />
    <glyph glyph-name="Aringacute" unicode="&#x1fa;" horiz-adv-x="716" 
d="M343 993l-50 28l126 113l69 -38zM347 907c-19.333 0 -35.666 -6.16699 -48.999 -18.5s-20 -28.5 -20 -48.5s6.66699 -36.167 20 -48.5s29.666 -18.5 48.999 -18.5c20 0 36.667 6.16699 50 18.5s20 28.5 20 48.5s-6.66699 36.167 -20 48.5s-30 18.5 -50 18.5zM467 840
c0 -19.333 -3.66699 -37.666 -11 -54.999s-17.333 -32.333 -30 -45s-27.5 -22.667 -44.5 -30s-35.167 -11 -54.5 -11s-37.666 3.66699 -54.999 11s-32.333 17.333 -45 30s-22.667 27.667 -30 45s-11 35.666 -11 54.999s3.66699 37.666 11 54.999s17.333 32.333 30 45
s27.667 22.667 45 30s35.666 11 54.999 11s37.5 -3.66699 54.5 -11s31.833 -17.333 44.5 -30s22.667 -27.667 30 -45s11 -35.666 11 -54.999zM298.5 399.5l-60.5 -147.5h240l-60.5 147.5l-58.5 147.5h-2zM519 154h-323l-66 -154h-115l297 682h91l298 -682h-116z" />
    <glyph glyph-name="aringacute" unicode="&#x1fb;" horiz-adv-x="558" 
d="M208 843l126 113l69 -38l-145 -102zM271 778c16.667 0 32.334 -2.83301 47.001 -8.5s27.334 -13.5 38.001 -23.5s19 -22 25 -36s9 -29 9 -45s-3 -30.833 -9 -44.5s-14.333 -25.5 -25 -35.5s-23.334 -17.833 -38.001 -23.5s-30.334 -8.5 -47.001 -8.5
c-17.333 0 -33.333 2.83301 -48 8.5s-27.334 13.5 -38.001 23.5s-19 21.833 -25 35.5s-9 28.5 -9 44.5c0 32.667 11.333 59.667 34 81s51.334 32 86.001 32zM271 599c20.667 0 37.333 6.16699 50 18.5s19 28.166 19 47.499s-6.5 35.333 -19.5 48s-29.5 19 -49.5 19
c-20.667 0 -37.5 -6.33301 -50.5 -19s-19.5 -28.667 -19.5 -48s6.33301 -35.166 19 -47.499s29.667 -18.5 51 -18.5zM252.999 76c16 0 32.001 2.50098 48.001 7.50098s30.5 12.5 43.5 22.5s23.5 22.833 31.5 38.5s12 34.167 12 55.5v13
c-22 4.66699 -42.167 8.16699 -60.5 10.5s-36.833 3.5 -55.5 3.5c-35.333 0 -64.5 -5.33301 -87.5 -16s-34.5 -30.334 -34.5 -59.001c0 -13.333 2.83301 -24.833 8.5 -34.5s13.167 -17.5 22.5 -23.5s20.166 -10.5 32.499 -13.5s25.5 -4.5 39.5 -4.5zM269 505.001
c75.333 0 130.668 -18.332 166.001 -54.999s53 -86.334 53 -149.001v-301h-84l-4 59h-2c-18.667 -22 -41.667 -39.5 -69 -52.5s-59 -19.5 -95 -19.5c-30 0 -56.333 4.33301 -79 13s-41.834 20.5 -57.501 35.5s-27.5 32.5 -35.5 52.5s-12 41.333 -12 64
c0 52.667 18.167 93.167 54.5 121.5s87.833 42.5 154.5 42.5c21.333 0 42.833 -1 64.5 -3s43.167 -4.66699 64.5 -8v14c0 62.667 -39.333 94 -118 94c-26 0 -52.333 -3.16699 -79 -9.5s-53 -17.833 -79 -34.5l-47 83c30.667 15.333 63.5 28 98.5 38s70.167 15 105.5 15z" />
    <glyph glyph-name="AEacute" unicode="&#x1fc;" horiz-adv-x="1083" 
d="M579 784l125 141l69 -48l-145 -128zM569 252l-14 343h-2l-57.5 -82.5l-66 -94l-64 -91.5l-51.5 -75h255zM1009 682v-98h-351l8 -190h315v-98h-311l9 -198h339v-98h-335h-103l-6 154h-328l-109 -154h-127l484 682h515z" />
    <glyph glyph-name="aeacute" unicode="&#x1fd;" horiz-adv-x="913" 
d="M372 594l125 141l69 -48l-145 -128zM255 76c16 0 32.001 2.5 48.001 7.5s30.5 12.5 43.5 22.5s23.5 22.833 31.5 38.5s12 34.167 12 55.5v13c-22 4 -42.167 7.5 -60.5 10.5s-36.833 4.5 -55.5 4.5c-36 0 -65.333 -5.5 -88 -16.5s-34 -30.833 -34 -59.5
c0 -13.333 2.83301 -24.833 8.5 -34.5s13.167 -17.5 22.5 -23.5s20.166 -10.5 32.499 -13.5s25.5 -4.5 39.5 -4.5zM630.001 412c-38 0 -68.5 -10.333 -91.5 -31s-37.833 -50 -44.5 -88h262c-5.33301 41.333 -18.833 71.5 -40.5 90.5s-50.167 28.5 -85.5 28.5zM861.001 241
c0 -4.66699 -0.167969 -10.002 -0.500977 -16.002s-0.833008 -12.667 -1.5 -20h-365c7.33301 -41.333 24 -72.5 50 -93.5s58 -31.5 96 -31.5c25.333 0 49.166 5.33301 71.499 16s41.166 25.667 56.499 45l72 -68c-23.333 -26.667 -52.5 -47.667 -87.5 -63
s-73.167 -23 -114.5 -23c-40 0 -76.333 8.16699 -109 24.5s-60 38.833 -82 67.5h-2c-23.333 -31.333 -53.166 -54.5 -89.499 -69.5s-76.166 -22.5 -119.499 -22.5c-30 0 -56.333 4.33301 -79 13s-41.834 20.5 -57.501 35.5s-27.5 32.5 -35.5 52.5s-12 41.333 -12 64
c0 52.667 18.167 93.334 54.5 122.001s87.833 43 154.5 43c21.333 0 42.833 -1.16699 64.5 -3.5s43.167 -5.16602 64.5 -8.49902v14c0 62.667 -39.333 94 -118 94c-26 0 -52.333 -3.16699 -79 -9.5s-53 -17.833 -79 -34.5l-47 83c30.667 15.333 63.5 28 98.5 38
s70.167 15 105.5 15c45.333 0 82.833 -6.66699 112.5 -20s52.834 -32.666 69.501 -57.999h2c20.667 24.667 45.667 43.667 75 57s62.333 20 99 20c34.667 0 66.5 -5.83301 95.5 -17.5s53.833 -28.334 74.5 -50.001s36.334 -47.834 47.001 -78.501
c10 -27.333 15 -57.666 15 -90.999v-12v-14z" />
    <glyph glyph-name="Oslashacute" unicode="&#x1fe;" horiz-adv-x="805" 
d="M347 784l125 141l69 -48l-145 -128zM402 85c36.667 0 70.334 6.49902 101.001 19.499s56.667 31 78 54s38 50.167 50 81.5s18 65 18 101c0 28 -3.83301 55.5 -11.5 82.5s-19.834 52.167 -36.501 75.5l-353 -363c22 -17.333 46.167 -30.166 72.5 -38.499
s53.5 -12.5 81.5 -12.5zM156 340.999c0 -28 3.83105 -55.5 11.498 -82.5s19.834 -52.167 36.501 -75.5l353 363c-22 17.333 -46.333 30.333 -73 39s-54 13 -82 13c-36.667 0 -70.167 -6.66699 -100.5 -20s-56.166 -31.5 -77.499 -54.5s-38 -50.167 -50 -81.5
s-18 -65 -18 -101zM751.998 340.999c0 -50 -8.66797 -96.668 -26.001 -140.001s-41.5 -80.666 -72.5 -111.999s-68 -56 -111 -74s-89.833 -27 -140.5 -27c-40.667 0 -80 6.33301 -118 19s-73 32 -105 58l-76 -78l-46 46l76 77c-27.333 32.667 -47.5 68.834 -60.5 108.501
s-19.5 80.5 -19.5 122.5c0 50 8.66699 96.667 26 140s41.5 80.833 72.5 112.5s67.833 56.5 110.5 74.5s89.334 27 140.001 27c41.333 0 81 -6.5 119 -19.5s73 -32.5 105 -58.5l76 78l46 -46l-76 -77c27.333 -32.667 47.5 -68.834 60.5 -108.501s19.5 -80.5 19.5 -122.5z" />
    <glyph glyph-name="oslashacute" unicode="&#x1ff;" horiz-adv-x="609" 
d="M245 594l125 141l69 -48l-145 -128zM304 82c22.667 0 43.4971 4.00195 62.4971 12.002s35.333 19.167 49 33.5s24.334 31.666 32.001 51.999s11.5 42.5 11.5 66.5c0 18 -2.16699 34.667 -6.5 50s-10.166 29.666 -17.499 42.999l-220 -229
c24.667 -18.667 54.334 -28 89.001 -28zM149.997 246.002c0 -18 2.16895 -34.832 6.50195 -50.499s10.166 -29.834 17.499 -42.501l220 229c-24 18 -54 27 -90 27c-22 0 -42.5 -4 -61.5 -12s-35.333 -19.167 -49 -33.5s-24.334 -31.5 -32.001 -51.5s-11.5 -42 -11.5 -66z
M558.999 246.003c0 -37.333 -6.5 -71.833 -19.5 -103.5s-30.833 -59 -53.5 -82s-49.667 -41 -81 -54s-65 -19.5 -101 -19.5c-30 0 -58.333 4.5 -85 13.5s-50.667 21.833 -72 38.5l-50 -52l-42 41l50 52c-17.333 22 -30.833 47 -40.5 75s-14.5 58.333 -14.5 91
c0 37.333 6.5 71.833 19.5 103.5s30.833 59 53.5 82s49.5 40.833 80.5 53.5s64.5 19 100.5 19c61.333 0 114 -17 158 -51l50 52l42 -41l-50 -53c17.333 -21.333 30.833 -46 40.5 -74s14.5 -58.333 14.5 -91z" />
    <glyph glyph-name="uni0218" unicode="&#x218;" horiz-adv-x="608" 
d="M364 -59l-18 -36.999c-6.66699 -13.333 -13.667 -26.5 -21 -39.5s-15 -25.667 -23 -38s-15.667 -23.5 -23 -33.5h-70c12 25.333 22.833 51.166 32.5 77.499s17.167 49.833 22.5 70.5h100zM556 184.001c0 -25.333 -4.50293 -49.8369 -13.5029 -73.5039
s-23.5 -44.667 -43.5 -63s-45.833 -33 -77.5 -44s-69.834 -16.5 -114.501 -16.5c-23.333 0 -46.666 2 -69.999 6s-46.166 9.5 -68.499 16.5s-43.666 15.5 -63.999 25.5s-38.5 21.333 -54.5 34l60 83c27.333 -20.667 57.5 -37 90.5 -49s68.5 -18 106.5 -18
c24.667 0 46.167 2.66699 64.5 8s33.5 12.333 45.5 21s21 18.834 27 30.501s9 23.834 9 36.501c0 26 -12.333 48.5 -37 67.5s-69 35.5 -133 49.5c-80 18 -137.333 44.833 -172 80.5s-52 77.834 -52 126.501c0 26 5.16699 50.333 15.5 73s25.833 42.667 46.5 60
s46.334 31 77.001 41s66.334 15 107.001 15c46 0 91.667 -6.83301 137 -20.5s84 -32.167 116 -55.5l-60 -84c-28 20 -57.667 35.333 -89 46s-66 16 -104 16c-50 0 -86.333 -8.66699 -109 -26s-34 -38.333 -34 -63c0 -12 2.5 -23.167 7.5 -33.5s13.833 -20.333 26.5 -30
s29.334 -18.667 50.001 -27s46.667 -16.166 78 -23.499c42.667 -10 78.667 -21.833 108 -35.5s53.166 -29.167 71.499 -46.5s31.666 -36.5 39.999 -57.5s12.5 -44.167 12.5 -69.5z" />
    <glyph glyph-name="scommaaccent" unicode="&#x219;" horiz-adv-x="489" 
d="M302 -59l-17.998 -36.999c-6.66699 -13.333 -13.834 -26.5 -21.501 -39.5l-23.5 -38l-22 -33.5h-70c12 25.333 22.667 51.166 32 77.499s16.666 49.833 21.999 70.5h101zM243.002 78.001c34 0 58.4932 6.00195 73.4932 18.002s22.5 25 22.5 39
c0 17.333 -8.16699 31.666 -24.5 42.999s-46.166 22 -89.499 32c-110.667 26 -166 77.667 -166 155c0 19.333 4.16699 37.5 12.5 54.5s20.333 31.667 36 44s34.834 22.166 57.501 29.499s48.667 11 78 11c38 0 73.833 -5 107.5 -15s62.167 -23 85.5 -39l-56 -80
c-18 13.333 -38.667 24 -62 32s-47.666 12 -72.999 12c-28.667 0 -50.167 -5 -64.5 -15s-21.5 -21.667 -21.5 -35c0 -17.333 8.83301 -30.833 26.5 -40.5s43.5 -18.5 77.5 -26.5c32.667 -8 60.334 -17.5 83.001 -28.5s40.834 -23.5 54.501 -37.5s23.5 -29.167 29.5 -45.5
s9 -33.5 9 -51.5c0 -20 -4.16699 -38.833 -12.5 -56.5s-20.833 -33.167 -37.5 -46.5s-37.167 -24 -61.5 -32s-52.5 -12 -84.5 -12c-17.333 0 -35.666 1.66699 -54.999 5s-38 7.66602 -56 12.999s-34.667 11.833 -50 19.5s-27.666 16.167 -36.999 25.5l56 79
c18 -15.333 39.833 -27.666 65.5 -36.999s51.167 -14 76.5 -14z" />
    <glyph glyph-name="uni021A" unicode="&#x21a;" horiz-adv-x="577" 
d="M552 584h-212v-584h-103v584h-212v98h527v-98zM242 -59c-5.33301 -20.667 -12.833 -44.168 -22.5 -70.501s-20.5 -52.166 -32.5 -77.499h70c7.33301 10 15 21.167 23 33.5s15.667 25 23 38s14.333 26.167 21 39.5l18 37h-100z" />
    <glyph glyph-name="uni021B" unicode="&#x21b;" horiz-adv-x="399" 
d="M267 -59l-18 -36.999c-6.66699 -13.333 -13.667 -26.5 -21 -39.5s-15 -25.667 -23 -38s-15.667 -23.5 -23 -33.5h-70c12 25.333 22.833 51.166 32.5 77.499s17.167 49.833 22.5 70.5h100zM245 -12.999c-40 0 -71.833 10.833 -95.5 32.5s-35.5 56.167 -35.5 103.5v277h-82
v92h82v166h100v-166h139v-92h-139v-263c0 -20 3.5 -34.333 10.5 -43s17.833 -13 32.5 -13c12 0 26.333 1.16699 43 3.5s32.667 5.5 48 9.5l16 -91c-18.667 -4.66699 -38.667 -8.5 -60 -11.5s-41 -4.5 -59 -4.5z" />
    <glyph glyph-name="Ymacron" unicode="&#x232;" horiz-adv-x="673" 
d="M195 852h282v-65h-282v65zM388 0h-103v289l-265 393h124l192 -300h2l191 300h124l-265 -393v-289z" />
    <glyph glyph-name="uni0233" unicode="&#x233;" horiz-adv-x="559" 
d="M146 662h282v-65h-282v65zM188 -200c-14 0 -27.498 1.33203 -40.498 3.99902s-25.5 5.66699 -37.5 9l17 90c11.333 -3.33301 21.666 -5.66602 30.999 -6.99902s19.666 -2 30.999 -2c15.333 0 28 6.33301 38 19s18.667 29.667 26 51l13 39l-246 489h119l167 -362h2
l121 362h110l-196 -552c-10 -28.667 -20.667 -52 -32 -70s-23.333 -32.167 -36 -42.5s-26.167 -17.5 -40.5 -21.5s-29.833 -6 -46.5 -6z" />
    <glyph glyph-name="circumflex" unicode="&#x2c6;" horiz-adv-x="320" 
d="M160 655l-102 -98l-50 34l112 126h80l112 -126l-50 -34z" />
    <glyph glyph-name="caron" unicode="&#x2c7;" horiz-adv-x="320" 
d="M262 733l50 -34l-112 -126h-80l-112 126l50 34l102 -98z" />
    </font>
</defs>
</svg>
