<?xml version="1.0" standalone="no"?>
<!DOCTYPE svg PUBLIC "-//W3C//DTD SVG 1.1//EN" "http://www.w3.org/Graphics/SVG/1.1/DTD/svg11.dtd" >
<svg>
<metadata>
Created by FontForge 20090914 at Tue Sep 24 19:27:07 2019
 By www-data
Copyright (c) 2015 by GT &#38; Canary Inc. All rights reserved.
</metadata>
<defs>
<font id="Mirai-Light" horiz-adv-x="586" vert-adv-y="1000" >
  <font-face 
    font-family="Mirai-Light"
    font-weight="400"
    font-stretch="normal"
    units-per-em="1000"
    panose-1="0 0 0 0 0 0 0 0 0 0"
    ascent="787"
    descent="-213"
    x-height="492"
    cap-height="682"
    bbox="-62 -237 1157 1131"
    underline-thickness="60"
    underline-position="-120"
    unicode-range="U+000D-U+FB06"
  />
<missing-glyph horiz-adv-x="536" 
d="M429 647h-322l161 -248zM465 94v512l-165 -256zM236 350l-165 256v-512zM107 53h322l-161 249zM518 700v-700h-500v700h500z" />
    <glyph glyph-name="f_f" unicode="ff" horiz-adv-x="637" 
d="M603 454l-173.001 -0.000976562v-454h-40v454h-235v-454h-40v454h-72v38h72v48c0 62.667 10.5 111.167 31.5 145.5s55.833 51.5 104.5 51.5c17.333 0 34.833 -1.83301 52.5 -5.5s34.167 -8.5 49.5 -14.5l-12 -37c-15.333 5.33301 -30.166 9.83301 -44.499 13.5
s-30.166 5.5 -47.499 5.5c-36 0 -60.667 -14.167 -74 -42.5s-20 -68.5 -20 -120.5v-44h235v69c0 55.333 10.667 98.5 32 129.5s54.333 46.5 99 46.5c16 0 32.167 -1.33301 48.5 -4s31.166 -6 44.499 -10l-8 -39c-14.667 4.66699 -29.167 8.33398 -43.5 11.001
s-27.5 4 -39.5 4c-62 0 -93 -46.333 -93 -139v-68h173v-38z" />
    <glyph glyph-name="fi" unicode="fi" horiz-adv-x="529" 
d="M155 492h285.001v-492h-40v454h-245v-454h-40v454h-72v38h72v64c0 26.667 2.33301 51.167 7 73.5s12 41.5 22 57.5s22.833 28.333 38.5 37s34.834 13 57.501 13c19.333 0 37.666 -2.66699 54.999 -8s32.666 -11.666 45.999 -18.999l-15 -36
c-12.667 7.33301 -26.5 13.333 -41.5 18s-29.167 7 -42.5 7c-32 0 -54.5 -12.833 -67.5 -38.5s-19.5 -60.834 -19.5 -105.501v-63zM391.001 639c0 9.33301 2.83301 17.166 8.5 23.499s13.167 9.5 22.5 9.5s16.833 -3.16699 22.5 -9.5s8.5 -14.166 8.5 -23.499
s-2.83301 -17.166 -8.5 -23.499s-13.167 -9.5 -22.5 -9.5s-16.833 3.16699 -22.5 9.5s-8.5 14.166 -8.5 23.499z" />
    <glyph glyph-name="fl" unicode="fl" horiz-adv-x="528" 
d="M266 737c59.333 0 117.334 -10.668 174.001 -32.001v-705h-40v677c-21.333 6.66699 -42.333 12 -63 16s-43.667 6 -69 6c-22 0 -40.167 -4.33301 -54.5 -13s-25.833 -20.5 -34.5 -35.5s-14.834 -32.333 -18.501 -52s-5.5 -40.5 -5.5 -62.5v-44h173v-38h-173v-454h-40v454
h-72v38h72v44c0 29.333 2.83301 56.333 8.5 81s14.5 45.834 26.5 63.501s27.5 31.5 46.5 41.5s42.167 15 69.5 15z" />
    <glyph glyph-name="f_f_i" unicode="ffi" horiz-adv-x="804" 
d="M430 492h285.999v-492h-40v454h-246v-454h-40v454h-235v-454h-40v454h-72v38h72v48c0 62.667 10.5 111.167 31.5 145.5s55.833 51.5 104.5 51.5c17.333 0 34.833 -1.83301 52.5 -5.5s34.167 -8.5 49.5 -14.5l-12 -37c-15.333 5.33301 -30.166 9.83301 -44.499 13.5
s-30.166 5.5 -47.499 5.5c-36 0 -60.667 -14.167 -74 -42.5s-20 -68.5 -20 -120.5v-44h235v64c0 26.667 2.33301 51.167 7 73.5s12 41.5 22 57.5s22.833 28.333 38.5 37s34.834 13 57.501 13c19.333 0 37.666 -2.66699 54.999 -8s32.666 -11.666 45.999 -18.999l-14 -36
c-13.333 7.33301 -27.333 13.333 -42 18s-29 7 -43 7c-32 0 -54.5 -12.833 -67.5 -38.5s-19.5 -60.834 -19.5 -105.501v-63zM666.999 639c0 9.33301 2.83301 17.166 8.5 23.499s13.167 9.5 22.5 9.5s16.833 -3.16699 22.5 -9.5s8.5 -14.166 8.5 -23.499
s-2.83301 -17.166 -8.5 -23.499s-13.167 -9.5 -22.5 -9.5s-16.833 3.16699 -22.5 9.5s-8.5 14.166 -8.5 23.499z" />
    <glyph glyph-name="f_f_l" unicode="ffl" horiz-adv-x="804" 
d="M541 737c58.667 0 117 -10.668 175 -32.001v-705h-40v677c-21.333 6.66699 -42.5 12 -63.5 16s-44.167 6 -69.5 6c-21.333 0 -39.333 -4.33301 -54 -13s-26.334 -20.5 -35.001 -35.5s-14.834 -32.333 -18.501 -52s-5.5 -40.5 -5.5 -62.5v-44h173v-38h-173v-454h-40v454
h-235v-454h-40v454h-72v38h72v48c0 62.667 10.5 111.167 31.5 145.5s55.833 51.5 104.5 51.5c17.333 0 34.833 -1.83301 52.5 -5.5s34.167 -8.5 49.5 -14.5l-12 -37c-15.333 5.33301 -30.166 9.83301 -44.499 13.5s-30.166 5.5 -47.499 5.5c-36 0 -60.667 -14.167 -74 -42.5
s-20 -68.5 -20 -120.5v-44h235v44c0 29.333 2.83301 56.333 8.5 81s14.667 45.834 27 63.501s28 31.5 47 41.5s41.833 15 68.5 15z" />
    <glyph glyph-name=".notdef" horiz-adv-x="536" 
d="M429 647h-322l161 -248zM465 94v512l-165 -256zM236 350l-165 256v-512zM107 53h322l-161 249zM518 700v-700h-500v700h500z" />
    <glyph glyph-name="NULL" horiz-adv-x="0" vert-adv-y="0" 
 />
    <glyph glyph-name="NULL" horiz-adv-x="0" vert-adv-y="0" 
 />
    <glyph glyph-name="nonmarkingreturn" unicode="&#xd;" horiz-adv-x="0" vert-adv-y="0" 
 />
    <glyph glyph-name="space" unicode=" " horiz-adv-x="223" 
 />
    <glyph glyph-name="exclam" unicode="!" horiz-adv-x="208" 
d="M128 682l-8 -517h-32l-8 517h48zM73 20c0 -9.33301 2.83301 -17 8.5 -23s13.167 -9 22.5 -9s16.833 3 22.5 9s8.5 13.667 8.5 23s-2.83301 17.166 -8.5 23.499s-13.167 9.5 -22.5 9.5s-16.833 -3.16699 -22.5 -9.5s-8.5 -14.166 -8.5 -23.499z" />
    <glyph glyph-name="quotedbl" unicode="&#x22;" horiz-adv-x="238" 
d="M174 540h-29l-6 185h41zM93 540h-29l-6 185h41z" />
    <glyph glyph-name="numbersign" unicode="#" horiz-adv-x="695" 
d="M474 462h-205l-43 -242h205zM510 462l-42 -242h125l-6 -35h-125l-33 -185h-37l33 185h-205l-33 -185h-36l32 185h-125l6 35h125l43 242h-125l6 35h125l33 185h37l-33 -185h205l33 185h36l-32 -185h125l-6 -35h-126z" />
    <glyph glyph-name="dollar" unicode="$" 
d="M472 181c0 34 -12.167 62.6699 -36.5 86.0029s-63.5 42.666 -117.5 57.999v-275c50.667 3.33301 89 17.166 115 41.499s39 54.166 39 89.499zM121 512.003c0 -34.667 12.667 -63 38 -85s66.333 -40.333 123 -55v260c-54.667 -2 -95.167 -14.5 -121.5 -37.5
s-39.5 -50.5 -39.5 -82.5zM510 181.003c0 -22 -3.66602 -42.6719 -10.999 -62.0049s-18.833 -36.666 -34.5 -51.999s-35.5 -27.666 -59.5 -36.999s-53 -15 -87 -17v-55h-36v55c-38 1.33301 -75 8.83301 -111 22.5s-68.333 31.167 -97 52.5l23 33
c26 -21.333 55.167 -38.166 87.5 -50.499s64.833 -19.166 97.5 -20.499v285c-72.667 16.667 -124.167 39.5 -154.5 68.5s-45.5 63.5 -45.5 103.5c0 22 4.16699 42.667 12.5 62s20.833 36.333 37.5 51s37.5 26.167 62.5 34.5s54.167 13.166 87.5 14.499v55h36v-55
c36.667 -3.33301 71.667 -11.166 105 -23.499s63 -28.166 89 -47.499l-23 -32c-24.667 18.667 -51.334 33.5 -80.001 44.5s-59 17.833 -91 20.5v-268c70 -18.667 119.5 -43 148.5 -73s43.5 -66.333 43.5 -109z" />
    <glyph glyph-name="percent" unicode="%" horiz-adv-x="804" 
d="M604 384c-46.667 0 -82.834 -17.833 -108.501 -53.5s-38.5 -83.834 -38.5 -144.501c0 -60 12.833 -108.167 38.5 -144.5s61.834 -54.5 108.501 -54.5s82.834 18.167 108.501 54.5s38.5 84.5 38.5 144.5c0 60.667 -12.833 108.834 -38.5 144.501
s-61.834 53.5 -108.501 53.5zM604 23c-34.667 0 -61.667 14.667 -81 44s-29 69 -29 119s9.66699 89.667 29 119s46.333 44 81 44s61.667 -14.667 81 -44s29 -69 29 -119s-9.66699 -89.667 -29 -119s-46.333 -44 -81 -44zM200 695c-46 0 -82 -18.167 -108 -54.5
s-39 -84.5 -39 -144.5s13 -108 39 -144s62 -54 108 -54c46.667 0 83 18 109 54s39 84 39 144s-13 108.167 -39 144.5s-62.333 54.5 -109 54.5zM200 333c-34 0 -60.667 14.667 -80 44s-29 69 -29 119s9.66699 89.667 29 119s46 44 80 44c34.667 0 61.667 -14.667 81 -44
s29 -69 29 -119s-9.66699 -89.667 -29 -119s-46.333 -44 -81 -44zM567 684l-297 -700l-32 14l297 700z" />
    <glyph glyph-name="ampersand" unicode="&#x26;" horiz-adv-x="641" 
d="M259 26c32 0 62.333 6.66699 91 20s54.667 35 78 65l-50 50.5l-48 51.5l-50 58l-57 69c-43.333 -28 -75 -55.833 -95 -83.5s-30 -58.5 -30 -92.5c0 -22 4.33301 -41.5 13 -58.5s20.167 -31.333 34.5 -43s31.333 -20.667 51 -27s40.5 -9.5 62.5 -9.5zM161 545
c0 -25.333 7.33105 -51.168 21.998 -77.501s31 -51.166 49 -74.499c1.33301 0.666992 2.33301 1 3 1s1.33398 0.333008 2.00098 1c48 27.333 85.167 52.833 111.5 76.5s39.5 51.5 39.5 83.5c0 28 -10.167 51.667 -30.5 71s-47.833 29 -82.5 29
c-35.333 0 -63.166 -10.167 -83.499 -30.5s-30.5 -46.833 -30.5 -79.5zM258.998 -13.002c-29.333 0 -56.167 4.33203 -80.5 12.999s-45.5 20.667 -63.5 36s-32 34 -42 56s-15 46.667 -15 74c0 34.667 9.83301 68.834 29.5 102.501s56.5 68.167 110.5 103.5
c-20.667 27.333 -38.667 55.666 -54 84.999s-23 59 -23 89c0 44 13.833 79.667 41.5 107s65.167 41 112.5 41c24 0 45.5 -3.66699 64.5 -11s35 -17.333 48 -30s23 -27.5 30 -44.5s10.5 -34.833 10.5 -53.5c0 -37.333 -13.833 -70.666 -41.5 -99.999s-69.5 -60 -125.5 -92
c-0.666992 -0.666992 -1.16699 -1 -1.5 -1s-0.833008 -0.333008 -1.5 -1l58 -69.5l48.5 -56l43.5 -48c14 -15 28.333 -29.5 43 -43.5c13.333 23.333 25.166 50.833 35.499 82.5s18.5 67.5 24.5 107.5l40 -6c-6 -42 -15.167 -80.833 -27.5 -116.5
s-27.166 -67.5 -44.499 -95.5l50 -46.5l59 -53.5l-28 -29l-55.5 52.5l-48.5 44.5c-25.333 -31.333 -54.5 -55.333 -87.5 -72s-69.5 -25 -109.5 -25z" />
    <glyph glyph-name="quotesingle" unicode="'" horiz-adv-x="157" 
d="M93 540h-29l-6 185h41z" />
    <glyph glyph-name="parenleft" unicode="(" horiz-adv-x="295" 
d="M120 294c0 -80.667 11.167 -157.331 33.5 -229.998s53.5 -138.334 93.5 -197.001l-31 -18c-44 64 -77.167 133.333 -99.5 208s-33.5 153.667 -33.5 237s11.167 162.166 33.5 236.499s55.5 143.5 99.5 207.5l31 -18c-40 -58.667 -71.167 -124.167 -93.5 -196.5
s-33.5 -148.833 -33.5 -229.5z" />
    <glyph glyph-name="parenright" unicode=")" horiz-adv-x="295" 
d="M212 294c0 -83.333 -11.167 -162.336 -33.5 -237.003s-55.5 -144 -99.5 -208l-31 18c40 58.667 71.167 124.334 93.5 197.001s33.5 149.334 33.5 230.001s-11.167 157.167 -33.5 229.5s-53.5 137.833 -93.5 196.5l31 18c44 -64 77.167 -133.167 99.5 -207.5
s33.5 -153.166 33.5 -236.499z" />
    <glyph glyph-name="asterisk" unicode="*" horiz-adv-x="463" 
d="M268 523l147 -80l-21 -36l-142 85h-2l2 -167h-41l2 167h-2l-142 -85l-21 36l147 80v2l-147 82l21 36l142 -87h2l-2 169h41l-2 -169h2l142 87l21 -36l-147 -82v-2z" />
    <glyph glyph-name="plus" unicode="+" 
d="M507 253h-194v-196h-40v196h-194v37h194v195h40v-195h194v-37z" />
    <glyph glyph-name="comma" unicode="," horiz-adv-x="134" 
d="M8 -145c10 32 19.168 64.333 27.501 97s15.166 62 20.499 88h40c-3.33301 -14.667 -7.33301 -30.334 -12 -47.001l-14.5 -49.5c-5 -16.333 -10.333 -32.166 -16 -47.499s-11.167 -29 -16.5 -41h-29z" />
    <glyph glyph-name="hyphen" unicode="-" horiz-adv-x="335" 
d="M53 292h229v-37h-229v37z" />
    <glyph glyph-name="period" unicode="." horiz-adv-x="153" 
d="M53 20c0 9.33301 2.83301 17.166 8.5 23.499s13.167 9.5 22.5 9.5s16.833 -3.16699 22.5 -9.5s8.5 -14.166 8.5 -23.499s-2.83301 -17.166 -8.5 -23.499s-13.167 -9.5 -22.5 -9.5s-16.833 3.16699 -22.5 9.5s-8.5 14.166 -8.5 23.499z" />
    <glyph glyph-name="slash" unicode="/" horiz-adv-x="387" 
d="M361 726l-301 -784l-34 14l301 784z" />
    <glyph glyph-name="zero" unicode="0" 
d="M293 26c64.667 0 115 27.167 151 81.5s54 132.166 54 233.499s-18 179 -54 233s-86.333 81 -151 81s-115 -27 -151 -81s-54 -131.667 -54 -233s18 -179.166 54 -233.499s86.333 -81.5 151 -81.5zM293 694c36.667 0 70.167 -7.66699 100.5 -23s56.166 -38 77.499 -68
s37.833 -67 49.5 -111s17.5 -94.333 17.5 -151c0 -57.333 -5.83301 -108 -17.5 -152s-28.167 -81 -49.5 -111s-47.166 -52.667 -77.499 -68s-63.833 -23 -100.5 -23c-37.333 0 -71 7.66699 -101 23s-55.667 38 -77 68s-37.833 67 -49.5 111s-17.5 94.667 -17.5 152
c0 56.667 5.83301 107 17.5 151s28.167 81 49.5 111s47 52.667 77 68s63.667 23 101 23z" />
    <glyph glyph-name="one" unicode="1" 
d="M346 687v-687h-40v644l-165 -70l-12 36l182 77h35z" />
    <glyph glyph-name="two" unicode="2" 
d="M494 38l0.00195312 -38.002h-400v36l228 252l50.5 56.5c15.667 17.667 29.334 35.334 41.001 53.001s21 35.5 28 53.5s10.5 37 10.5 57c0 20.667 -3.33301 39.834 -10 57.501s-16.5 33.167 -29.5 46.5s-29.167 23.833 -48.5 31.5s-41.333 11.5 -66 11.5
c-48 0 -85.167 -14 -111.5 -42s-44.166 -66 -53.499 -114l-41 11c9.33301 54.667 31.166 99 65.499 133s81.166 51 140.499 51c31.333 0 59.166 -5 83.499 -15s44.666 -23.5 60.999 -40.5s28.666 -36.833 36.999 -59.5s12.5 -47 12.5 -73
c0 -22.667 -3.66699 -44.167 -11 -64.5s-17.166 -40 -29.499 -59s-26.833 -38 -43.5 -57l-52 -58.5l-205 -227v-2h343z" />
    <glyph glyph-name="three" unicode="3" 
d="M504 177c0 -59.333 -19.6611 -105.666 -58.9941 -138.999s-95 -50 -167 -50c-18 0 -36.333 1.83301 -55 5.5s-36.834 8.83398 -54.501 15.501s-34 14.667 -49 24s-27.5 19.666 -37.5 30.999l29 29c17.333 -18.667 40.666 -34.5 69.999 -47.5s61.666 -19.5 96.999 -19.5
c61.333 0 107.666 13.667 138.999 41s47 64 47 110c0 20 -3.5 39.167 -10.5 57.5s-18 34.5 -33 48.5s-34.167 25.333 -57.5 34s-51.333 13 -84 13h-82v37h77c28.667 0 54.167 3.83301 76.5 11.5s41 18 56 31s26.333 28.5 34 46.5s11.5 37 11.5 57s-3.83301 38.667 -11.5 56
s-18.834 32.333 -33.501 45s-32.834 22.667 -54.501 30s-46.5 11 -74.5 11c-36.667 0 -68 -5.83301 -94 -17.5s-48.667 -26.5 -68 -44.5l-30 32c24 21.333 52 38.166 84 50.499s68 18.5 108 18.5c34.667 0 65.334 -4.5 92.001 -13.5s49 -21.5 67 -37.5s31.667 -35 41 -57
s14 -46 14 -72c0 -37.333 -9.83301 -70.166 -29.5 -98.499s-47.834 -49.833 -84.501 -64.5v-2c22 -8 41 -18.333 57 -31s29 -26.834 39 -42.501s17.5 -32 22.5 -49s7.5 -33.5 7.5 -49.5z" />
    <glyph glyph-name="four" unicode="4" 
d="M401 206v397h-2l-289 -395v-2h291zM532 168h-91v-168h-40v168h-343l-4 36l349 478h38v-476h91v-38z" />
    <glyph glyph-name="five" unicode="5" 
d="M277 429c34.667 0 65.832 -5.33301 93.499 -16s51.167 -25.5 70.5 -44.5s34.166 -41.667 44.499 -68s15.5 -55.5 15.5 -87.5s-5.16699 -61.667 -15.5 -89s-25.333 -51.166 -45 -71.499s-43.667 -36.333 -72 -48s-60.833 -17.5 -97.5 -17.5
c-39.333 0 -75.666 8.5 -108.999 25.5s-59 37.167 -77 60.5l31 29c16 -21.333 38 -39.333 66 -54s58 -22 90 -22c28.667 0 54.5 4.66699 77.5 14s42.833 22.166 59.5 38.499s29.5 36 38.5 59s13.5 48.167 13.5 75.5c0 54 -16.833 97 -50.5 129s-79.5 48 -137.5 48
c-25.333 0 -49.666 -3.16699 -72.999 -9.5s-44.333 -14.833 -63 -25.5l-25 23l48 304h305v-38h-271l-38 -241h2c15.333 7.33301 33 13.5 53 18.5s42 7.5 66 7.5z" />
    <glyph glyph-name="six" unicode="6" 
d="M293 27c32 0 60.333 5 85 15s45.167 23.5 61.5 40.5s28.833 36.5 37.5 58.5s13 45 13 69s-4.33301 47 -13 69s-21.167 41.5 -37.5 58.5s-36.833 30.5 -61.5 40.5s-53 15 -85 15s-60.333 -5 -85 -15s-45.167 -23.5 -61.5 -40.5s-28.833 -36.5 -37.5 -58.5s-13 -45 -13 -69
s4.33301 -47.167 13 -69.5s21.167 -41.833 37.5 -58.5s36.833 -30 61.5 -40s53 -15 85 -15zM299 432c32.667 0 62.9951 -5.50098 90.9951 -16.501s52.333 -26.5 73 -46.5s37 -43.5 49 -70.5s18 -56.5 18 -88.5c0 -31.333 -5.66699 -60.5 -17 -87.5
s-27.166 -50.5 -47.499 -70.5s-45.166 -35.833 -74.499 -47.5s-62 -17.5 -98 -17.5s-68.667 5.83301 -98 17.5s-54.166 27.5 -74.499 47.5s-36.166 43.5 -47.499 70.5s-17 56.167 -17 87.5v1c0 24 3.83301 47.5 11.5 70.5s20.5 51.333 38.5 85s41.667 75.334 71 125.001
l108 190.5h47l-92.5 -160.5l-68.5 -117.5v-2c34.667 20 77.334 30 128.001 30z" />
    <glyph glyph-name="seven" unicode="7" 
d="M497 682v-35l-252 -647h-44l252 644h-364v38h408z" />
    <glyph glyph-name="eight" unicode="8" 
d="M293 27c34.667 0 64.834 4 90.501 12s47 18.833 64 32.5s29.833 29.667 38.5 48s13 37.5 13 57.5s-4.33301 39 -13 57s-21.5 34 -38.5 48s-38.333 25 -64 33s-55.834 12 -90.501 12s-64.834 -4 -90.501 -12s-47 -19 -64 -33s-29.833 -30 -38.5 -48s-13 -37 -13 -57
s4.33301 -39.167 13 -57.5s21.5 -34.333 38.5 -48s38.333 -24.5 64 -32.5s55.834 -12 90.501 -12zM111 510c0 -20 4.33301 -38.833 13 -56.5s20.834 -33 36.501 -46s34.667 -23.333 57 -31s47.5 -11.5 75.5 -11.5s53.167 3.83301 75.5 11.5s41.333 18 57 31
s27.834 28.333 36.501 46s13 36.5 13 56.5c0 20.667 -4.33301 39.834 -13 57.501s-20.834 33 -36.501 46s-34.667 23.167 -57 30.5s-47.5 11 -75.5 11s-53.167 -3.66699 -75.5 -11s-41.333 -17.5 -57 -30.5s-27.834 -28.333 -36.501 -46s-13 -36.834 -13 -57.501zM539 176
c0 -26.667 -5.66406 -51.334 -16.9971 -74.001s-27.5 -42.5 -48.5 -59.5s-46.667 -30.333 -77 -40s-64.833 -14.5 -103.5 -14.5s-73.167 4.83301 -103.5 14.5s-56 23 -77 40s-37.167 36.833 -48.5 59.5s-17 47.334 -17 74.001c0 39.333 11.5 74 34.5 104
s56.167 52.667 99.5 68v2c-34.667 15.333 -61.834 37 -81.501 65s-29.5 60 -29.5 96c0 26 5.5 50.167 16.5 72.5s26.167 41.666 45.5 57.999s42.666 29.166 69.999 38.499s57.666 14 90.999 14c32.667 0 62.834 -4.66699 90.501 -14s51.167 -22.166 70.5 -38.499
s34.5 -35.666 45.5 -57.999s16.5 -46.5 16.5 -72.5c0 -36 -9.83301 -68 -29.5 -96s-46.834 -49.667 -81.501 -65v-2c43.333 -15.333 76.5 -38 99.5 -68s34.5 -64.667 34.5 -104z" />
    <glyph glyph-name="nine" unicode="9" 
d="M106 472c0 -24 4.33301 -47 13 -69s21.167 -41.5 37.5 -58.5s36.833 -30.5 61.5 -40.5s53 -15 85 -15s60.333 5 85 15s45.167 23.5 61.5 40.5s28.833 36.5 37.5 58.5s13 45 13 69s-4.33301 47.167 -13 69.5s-21.167 41.833 -37.5 58.5s-36.833 30 -61.5 40s-53 15 -85 15
s-60.333 -5 -85 -15s-45.167 -23.5 -61.5 -40.5s-28.833 -36.5 -37.5 -58.5s-13 -45 -13 -69zM540 471c0 -24 -3.8291 -47.499 -11.4961 -70.499s-20.5 -51.333 -38.5 -85s-41.667 -75.334 -71 -125.001l-108 -190.5h-47l92.5 160.5l68.5 117.5v2
c-35.333 -20 -78 -30 -128 -30c-32.667 0 -63 5.5 -91 16.5s-52.333 26.5 -73 46.5s-37 43.5 -49 70.5s-18 56.5 -18 88.5c0 31.333 5.66699 60.5 17 87.5s27.166 50.5 47.499 70.5s45.166 35.667 74.499 47s62 17 98 17s68.667 -5.66699 98 -17s54.166 -27 74.499 -47
s36.166 -43.5 47.499 -70.5s17 -56.167 17 -87.5v-1z" />
    <glyph glyph-name="colon" unicode=":" horiz-adv-x="188" 
d="M63 472c0 9.33301 2.83301 17.166 8.5 23.499s13.167 9.5 22.5 9.5s16.833 -3.16699 22.5 -9.5s8.5 -14.166 8.5 -23.499s-2.83301 -17.166 -8.5 -23.499s-13.167 -9.5 -22.5 -9.5s-16.833 3.16699 -22.5 9.5s-8.5 14.166 -8.5 23.499zM63 20
c0 9.33301 2.83301 17.166 8.5 23.499s13.167 9.5 22.5 9.5s16.833 -3.16699 22.5 -9.5s8.5 -14.166 8.5 -23.499s-2.83301 -17.166 -8.5 -23.499s-13.167 -9.5 -22.5 -9.5s-16.833 3.16699 -22.5 9.5s-8.5 14.166 -8.5 23.499z" />
    <glyph glyph-name="semicolon" unicode=";" horiz-adv-x="186" 
d="M53 -145c5.33301 12 10.832 25.667 16.499 41s11 31.166 16 47.499l14.5 49.5c4.66699 16.667 8.66699 32.334 12 47.001h-40c-5.33301 -25.333 -12.166 -54.5 -20.499 -87.5s-17.5 -65.5 -27.5 -97.5h29zM60.999 472c0 9.33301 2.83301 17.166 8.5 23.499
s13.167 9.5 22.5 9.5s16.833 -3.16699 22.5 -9.5s8.5 -14.166 8.5 -23.499s-2.83301 -17.166 -8.5 -23.499s-13.167 -9.5 -22.5 -9.5s-16.833 3.16699 -22.5 9.5s-8.5 14.166 -8.5 23.499z" />
    <glyph glyph-name="less" unicode="&#x3c;" 
d="M118 270l397 -190l-15 -33l-429 205v39l429 205l15 -34l-397 -190v-2z" />
    <glyph glyph-name="equal" unicode="=" 
d="M507 367h-428v37h428v-37zM507 139h-428v37h428v-37z" />
    <glyph glyph-name="greater" unicode="&#x3e;" 
d="M515 252l-429 -205l-15 33l397 190v2l-397 190l15 34l429 -205v-39z" />
    <glyph glyph-name="question" unicode="?" horiz-adv-x="548" 
d="M302 165l-40.002 -0.00292969c0 28.667 0.833008 53.334 2.5 74.001s5 38.834 10 54.501s12.167 29.834 21.5 42.501s21 25.667 35 39l48 44.5c14 13 26 25.667 36 38s17.5 24.833 22.5 37.5s7.5 27 7.5 43c0 15.333 -3.66699 30.166 -11 44.499s-17.833 27 -31.5 38
s-30.667 19.667 -51 26s-43.5 9.5 -69.5 9.5c-47.333 0 -84.833 -11.833 -112.5 -35.5s-47.167 -55.834 -58.5 -96.501l-38 11c12.667 46.667 36.334 84.834 71.001 114.501s80.667 44.5 138 44.5c32.667 0 61.5 -4.16699 86.5 -12.5s46.167 -19.666 63.5 -33.999
s30.5 -31.166 39.5 -50.499s13.5 -39.666 13.5 -60.999c0 -18 -2.83301 -34.833 -8.5 -50.5s-13.667 -30.834 -24 -45.501s-23.166 -29.334 -38.499 -44.001l-51 -47c-13.333 -12 -24 -23.833 -32 -35.5s-14 -24.5 -18 -38.5s-6.83301 -29.833 -8.5 -47.5
s-2.5 -38.5 -2.5 -62.5zM250.998 19.9971c0 9.33301 2.83301 17.166 8.5 23.499s13.167 9.5 22.5 9.5s16.833 -3.16699 22.5 -9.5s8.5 -14.166 8.5 -23.499s-2.83301 -17.166 -8.5 -23.499s-13.167 -9.5 -22.5 -9.5s-16.833 3.16699 -22.5 9.5s-8.5 14.166 -8.5 23.499z" />
    <glyph glyph-name="at" unicode="@" horiz-adv-x="896" 
d="M421 117c21.333 0 41.333 4.16895 60 12.502s35.167 20.166 49.5 35.499s26 33.833 35 55.5s14.5 45.834 16.5 72.501c0.666992 6.66699 1 13 1 19c0 19.333 -2.33301 37.333 -7 54c-6.66699 21.333 -16.167 39.666 -28.5 54.999s-27.333 27.166 -45 35.499
s-37.167 12.5 -58.5 12.5s-41.333 -4.16699 -60 -12.5s-35.167 -20.166 -49.5 -35.499s-25.833 -33.833 -34.5 -55.5s-14 -45.834 -16 -72.501c-0.666992 -6.66699 -1 -13.334 -1 -20.001c0 -18.667 2.33301 -36.334 7 -53.001c6 -21.333 15.167 -39.666 27.5 -54.999
s27.333 -27.166 45 -35.499s37.167 -12.5 58.5 -12.5zM606 200.002c0 -6 0.324219 -12.002 0.991211 -18.002c2 -15.333 6.16699 -28 12.5 -38s14.333 -17.5 24 -22.5s20.5 -7.5 32.5 -7.5c16 0 31.167 4 45.5 12s27 20.667 38 38s19.833 39.5 26.5 66.5s10 59.5 10 97.5
c0 54.667 -8.66699 103.334 -26 146.001s-41.166 78.834 -71.499 108.501s-66.5 52.167 -108.5 67.5s-87.667 23 -137 23c-50 0 -96.5 -9.5 -139.5 -28.5s-80.333 -45.5 -112 -79.5s-56.334 -74.167 -74.001 -120.5s-26.5 -96.833 -26.5 -151.5
s8.83301 -105.167 26.5 -151.5s42.334 -86.333 74.001 -120s69 -60 112 -79s89.5 -28.5 139.5 -28.5c54.667 0 106.334 10.833 155.001 32.5s90 49.834 124 84.501l24 -31c-16 -16 -35 -31.5 -57 -46.5s-46.167 -28.167 -72.5 -39.5s-54.166 -20.333 -83.499 -27
s-59 -10 -89 -10c-56 0 -107.833 10.5 -155.5 31.5s-89 50 -124 87s-62.333 81 -82 132s-29.5 106.167 -29.5 165.5s9.83301 114.5 29.5 165.5s46.834 95.167 81.501 132.5s75.834 66.5 123.501 87.5s99.5 31.5 155.5 31.5c54.667 0 105.167 -8.83301 151.5 -26.5
s86.5 -43 120.5 -76s60.5 -73.167 79.5 -120.5s28.5 -100.333 28.5 -159c0 -35.333 -3.5 -68.333 -10.5 -99s-17.333 -57.167 -31 -79.5s-30.5 -39.833 -50.5 -52.5s-43.333 -19 -70 -19c-21.333 0 -41.666 7.16699 -60.999 21.5s-31.666 35.5 -36.999 63.5h-2
c-17.333 -26 -39 -46.667 -65 -62s-55.333 -23 -88 -23c-28 0 -53.167 5.66699 -75.5 17s-41.166 26.666 -56.499 45.999s-26.666 42 -33.999 68c-6.66699 20.667 -10 42.667 -10 66c0 6 0.333008 12 1 18c2 30 8.16699 58 18.5 84s24.333 48.833 42 68.5s38.167 35 61.5 46
s49 16.5 77 16.5c38.667 0 71.5 -9.83301 98.5 -29.5s46.833 -45.5 59.5 -77.5h2l20 97h33l-24 -139.5l-14 -78.5c-4 -21.333 -6.66699 -36 -8 -44c-2 -12.667 -3 -24.667 -3 -36z" />
    <glyph glyph-name="A" unicode="A" horiz-adv-x="695" 
d="M520 241l-171 392h-2l-172 -392h345zM538 201h-381l-87 -201h-47l303 682h43l303 -682h-46z" />
    <glyph glyph-name="B" unicode="B" horiz-adv-x="637" 
d="M537 182c0 27.333 -5 50.167 -15 68.5s-23.333 33 -40 44s-36 18.833 -58 23.5s-45 7 -69 7h-220v-285h220c22.667 0 45 2.5 67 7.5s41.5 13 58.5 24s30.667 25.667 41 44s15.5 40.5 15.5 66.5zM135 642.001v-276.999h191c24 0 47.167 2 69.5 6
s42.166 11.167 59.499 21.5s31.166 24.333 41.499 42s15.5 40.5 15.5 68.5c0 27.333 -5.33301 50 -16 68s-24.667 32.167 -42 42.5s-37.166 17.666 -59.499 21.999s-45.166 6.5 -68.499 6.5h-191zM579 179.002c0 -32 -6.50098 -59.332 -19.501 -81.999
s-30.167 -41.167 -51.5 -55.5s-45.5 -24.833 -72.5 -31.5s-54.833 -10 -83.5 -10h-259v682h234c28.667 0 56.667 -3 84 -9s51.5 -15.667 72.5 -29s37.833 -31.333 50.5 -54s19 -50.334 19 -83.001c0 -37.333 -8.33301 -69.333 -25 -96s-42.667 -47 -78 -61v-2
c40.667 -12 72.334 -32.5 95.001 -61.5s34 -64.833 34 -107.5z" />
    <glyph glyph-name="C" unicode="C" horiz-adv-x="723" 
d="M403 -13c-48 0 -92.667 8.83984 -134 26.5068s-77.5 42.167 -108.5 73.5s-55.333 68.666 -73 111.999s-26.5 90.666 -26.5 141.999s8.83301 98.666 26.5 141.999s42 80.666 73 111.999s67.167 55.666 108.5 72.999s86 26 134 26c52.667 0 101.5 -10.5 146.5 -31.5
s83.167 -50.5 114.5 -88.5l-31 -27c-28 34 -61.667 60.5 -101 79.5s-82.333 28.5 -129 28.5c-42 0 -81.333 -7.66699 -118 -23s-68.5 -37 -95.5 -65s-48.167 -61.167 -63.5 -99.5s-23 -80.5 -23 -126.5s7.66699 -88.333 23 -127s36.5 -71.834 63.5 -99.501
s58.833 -49.334 95.5 -65.001s76 -23.5 118 -23.5c48 0 92 10 132 30s73.667 47.667 101 83l32 -27c-32 -39.333 -70.667 -70 -116 -92s-95 -33 -149 -33z" />
    <glyph glyph-name="D" unicode="D" horiz-adv-x="687" 
d="M584 341c0 46.667 -6.66699 88.667 -20 126s-32.833 69 -58.5 95s-56.834 45.833 -93.501 59.5s-78 20.5 -124 20.5h-153v-602h153c46 0 87.333 6.83301 124 20.5s67.834 33.5 93.501 59.5s45.167 57.667 58.5 95s20 79.333 20 126zM626 341c0 -53.333 -8 -101 -24 -143
s-38.667 -77.667 -68 -107s-64.666 -51.833 -105.999 -67.5s-87.333 -23.5 -138 -23.5h-197v682h197c50.667 0 96.667 -7.83301 138 -23.5s76.666 -38.167 105.999 -67.5s52 -65 68 -107s24 -89.667 24 -143z" />
    <glyph glyph-name="E" unicode="E" horiz-adv-x="588" 
d="M515 40v-40h-422v682h414v-40h-372v-271h344v-40h-344v-291h380z" />
    <glyph glyph-name="F" unicode="F" horiz-adv-x="559" 
d="M135 642v-279h338v-40h-338v-323h-42v682h408v-40h-366z" />
    <glyph glyph-name="G" unicode="G" horiz-adv-x="751" 
d="M668 353l-0.000976562 -289.993c-29.333 -20 -66.333 -37.667 -111 -53s-96 -23 -154 -23c-48 0 -92.667 8.83301 -134 26.5s-77.5 42.167 -108.5 73.5s-55.333 68.666 -73 111.999s-26.5 90.666 -26.5 141.999s8.83301 98.666 26.5 141.999s42 80.666 73 111.999
s67.167 55.666 108.5 72.999s86 26 134 26c52.667 0 101.5 -10.5 146.5 -31.5s83.167 -50.5 114.5 -88.5l-31 -27c-28 34 -61.667 60.5 -101 79.5s-82.333 28.5 -129 28.5c-42 0 -81.333 -7.66699 -118 -23s-68.5 -37 -95.5 -65s-48.167 -61.167 -63.5 -99.5
s-23 -80.5 -23 -126.5s7.66699 -88.333 23 -127s36.5 -71.834 63.5 -99.501s58.833 -49.334 95.5 -65.001s76 -23.5 118 -23.5c42.667 0 82.834 5.16699 120.501 15.5s72.167 24.5 103.5 42.5v229h-199v40h240z" />
    <glyph glyph-name="H" unicode="H" horiz-adv-x="699" 
d="M606 682v-682h-41v341h-430v-341h-42v682h42v-301h430v301h41z" />
    <glyph glyph-name="I" unicode="I" horiz-adv-x="228" 
d="M93 0v682h42v-682h-42z" />
    <glyph glyph-name="J" unicode="J" horiz-adv-x="530" 
d="M240 28c51.333 0 91.665 16.8311 120.998 50.498s44 78.167 44 133.5v470h42v-470c0 -33.333 -4.66699 -63.666 -14 -90.999s-22.666 -50.833 -39.999 -70.5s-39 -35 -65 -46s-55.333 -16.5 -88 -16.5c-49.333 0 -92.666 12.333 -129.999 37
s-64.666 56.334 -81.999 95.001l34 24c19.333 -40 44.666 -69.333 75.999 -88s65.333 -28 102 -28z" />
    <glyph glyph-name="K" unicode="K" horiz-adv-x="649" 
d="M135 0h-42v682h42v-375h2l415 375h57l-344 -308l356 -374h-59l-327 348l-100 -90v-258z" />
    <glyph glyph-name="L" unicode="L" horiz-adv-x="540" 
d="M502 40v-40h-409v682h42v-642h367z" />
    <glyph glyph-name="M" unicode="M" horiz-adv-x="873" 
d="M790 0h-43.002l-27 448l-5 98c-1.33301 27.333 -2.66602 49.666 -3.99902 66.999h-2l-30.5 -49.5l-33.5 -54.5l-204 -330h-10l-203 330l-33.5 54.5l-30.5 49.5h-2c-1.33301 -17.333 -2.66602 -39.666 -3.99902 -66.999s-3.33301 -60 -6 -98l-26 -448h-43l42 682h45
l265 -432h2l266 432h44z" />
    <glyph glyph-name="N" unicode="N" horiz-adv-x="709" 
d="M616 682l0.000976562 -682.001h-42l-439 613h-2c0 -10.667 0.166992 -23.667 0.5 -39s0.666016 -31.666 0.999023 -48.999s0.5 -35 0.5 -53v-49v-423h-42v682h43l438 -613h2c0 10.667 -0.166992 23.667 -0.5 39s-0.5 31.333 -0.5 48v52v51v423h41z" />
    <glyph glyph-name="O" unicode="O" horiz-adv-x="805" 
d="M402 26c42 0 81.333 7.83301 118 23.5s68.5 37.334 95.5 65.001s48.167 60.834 63.5 99.501s23 81 23 127s-7.66699 88.167 -23 126.5s-36.5 71.5 -63.5 99.5s-58.833 49.667 -95.5 65s-76 23 -118 23s-81.167 -7.66699 -117.5 -23s-68 -37 -95 -65
s-48.167 -61.167 -63.5 -99.5s-23 -80.5 -23 -126.5s7.66699 -88.333 23 -127s36.5 -71.834 63.5 -99.501s58.667 -49.334 95 -65.001s75.5 -23.5 117.5 -23.5zM402 694c48 0 92.667 -8.66699 134 -26s77.5 -41.666 108.5 -72.999s55.333 -68.666 73 -111.999
s26.5 -90.666 26.5 -141.999s-8.83301 -98.666 -26.5 -141.999s-42 -80.666 -73 -111.999s-67.167 -55.666 -108.5 -72.999s-86 -26 -134 -26c-47.333 0 -91.833 8.66699 -133.5 26s-77.834 41.666 -108.501 72.999s-54.834 68.666 -72.501 111.999
s-26.5 90.666 -26.5 141.999s8.83301 98.666 26.5 141.999s41.834 80.666 72.501 111.999s66.834 55.666 108.501 72.999s86.167 26 133.5 26z" />
    <glyph glyph-name="P" unicode="P" horiz-adv-x="631" 
d="M530 487c0 22 -3.5 42.5 -10.5 61.5s-17.667 35.5 -32 49.5s-32.5 24.833 -54.5 32.5s-47.667 11.5 -77 11.5h-221v-310h221c54 0 96.5 13.833 127.5 41.5s46.5 65.5 46.5 113.5zM573 487c0 -28.667 -4.83301 -54.999 -14.5 -78.999s-23.667 -44.5 -42 -61.5
s-41 -30.333 -68 -40s-57.833 -14.5 -92.5 -14.5h-221v-292h-42v682h264c35.333 0 66.5 -4.83301 93.5 -14.5s49.5 -23.167 67.5 -40.5s31.667 -37.833 41 -61.5s14 -49.834 14 -78.501z" />
    <glyph glyph-name="Q" unicode="Q" horiz-adv-x="805" 
d="M103 341c0 -46 7.66699 -88.333 23 -127s36.5 -71.834 63.5 -99.501s58.833 -49.334 95.5 -65.001s76 -23.5 118 -23.5s81.167 7.83301 117.5 23.5s68 37.334 95 65.001s48.167 60.834 63.5 99.501s23 81 23 127s-7.66699 88.167 -23 126.5s-36.5 71.5 -63.5 99.5
s-58.667 49.667 -95 65s-75.5 23 -117.5 23s-81.333 -7.66699 -118 -23s-68.5 -37 -95.5 -65s-48.167 -61.167 -63.5 -99.5s-23 -80.5 -23 -126.5zM744 341c0 -40 -5.50293 -77.666 -16.5029 -112.999s-26.167 -67.166 -45.5 -95.499s-42.666 -53.166 -69.999 -74.499
s-57.333 -38 -90 -50l156 -168l-32 -27l-165 183c-26.667 -5.33301 -52.667 -8 -78 -8c-48 0 -92.667 8.66699 -134 26s-77.5 41.666 -108.5 72.999s-55.333 68.666 -73 111.999s-26.5 90.666 -26.5 141.999s8.83301 98.666 26.5 141.999s42 80.666 73 111.999
s67.167 55.666 108.5 72.999s86 26 134 26c47.333 0 91.833 -8.66699 133.5 -26s77.834 -41.666 108.501 -72.999s54.834 -68.666 72.501 -111.999s26.5 -90.666 26.5 -141.999z" />
    <glyph glyph-name="R" unicode="R" horiz-adv-x="653" 
d="M135 344h235c24 0 46.5 3 67.5 9s39.333 15.167 55 27.5s28.167 27.833 37.5 46.5s14 40.667 14 66c0 26 -4.5 48.333 -13.5 67s-21.333 34.167 -37 46.5s-34.167 21.333 -55.5 27s-44 8.5 -68 8.5h-235v-298zM135 304l0.000976562 -303.997h-42v682h278
c30 0 58.167 -3.83301 84.5 -11.5s49.166 -19.167 68.499 -34.5s34.666 -34.833 45.999 -58.5s17 -51.834 17 -84.501c0 -50.667 -14.333 -91.834 -43 -123.501s-67.667 -51.834 -117 -60.501l178 -309h-50l-172 304c-27.333 -0.666992 -55 -1 -83 -1h-41
c-41.333 0.666992 -82.666 1 -123.999 1z" />
    <glyph glyph-name="S" unicode="S" horiz-adv-x="587" 
d="M109 525c0 -26 6.00293 -47.665 18.0029 -64.998s27.333 -31.833 46 -43.5s39.167 -21 61.5 -28s43.833 -13.167 64.5 -18.5c26.667 -6.66699 53.667 -14.834 81 -24.501s51.833 -22 73.5 -37s39.334 -33.833 53.001 -56.5s20.5 -50.334 20.5 -83.001
c0 -33.333 -6.5 -61.666 -19.5 -84.999s-30.167 -42.166 -51.5 -56.499s-45.833 -24.666 -73.5 -30.999s-56.167 -9.5 -85.5 -9.5c-42 0 -84 7.33301 -126 22s-79.667 34.667 -113 60l25 35c30 -24 63.667 -42.833 101 -56.5s75 -20.5 113 -20.5c22 0 44.333 2.5 67 7.5
s43 13 61 24s32.667 25.667 44 44s17 40.5 17 66.5c0 27.333 -6.5 50.166 -19.5 68.499s-29.333 33.833 -49 46.5s-41.334 22.667 -65.001 30s-46.167 13.666 -67.5 18.999c-24.667 6 -50 13.5 -76 22.5s-49.5 20.667 -70.5 35s-38.167 32 -51.5 53s-20 46.5 -20 76.5
c0 32 6.66699 59 20 81s30.666 40 51.999 54s45.5 24 72.5 30s54.5 9 82.5 9c42 0 83.333 -6.5 124 -19.5s77.667 -32.167 111 -57.5l-25 -34c-30 23.333 -62.833 41 -98.5 53s-72.834 18 -111.501 18c-20.667 0 -41.834 -2 -63.501 -6s-41.5 -11 -59.5 -21
s-32.833 -23.333 -44.5 -40s-17.5 -37.334 -17.5 -62.001z" />
    <glyph glyph-name="T" unicode="T" horiz-adv-x="557" 
d="M524 642h-225v-642h-41v642h-225v40h491v-40z" />
    <glyph glyph-name="U" unicode="U" horiz-adv-x="674" 
d="M337 -13c-35.333 0 -68.332 5.5 -98.999 16.5s-57.5 27.333 -80.5 49s-41.167 48.667 -54.5 81s-20 70.166 -20 113.499v435h42v-430c0 -36 5.16699 -68 15.5 -96s24.833 -51.5 43.5 -70.5s41 -33.5 67 -43.5s54.667 -15 86 -15s60.166 5 86.499 15
s48.833 24.5 67.5 43.5s33.167 42.5 43.5 70.5s15.5 60 15.5 96v430h41v-435c0 -43.333 -6.66699 -81.166 -20 -113.499s-31.5 -59.333 -54.5 -81s-50 -38 -81 -49s-63.833 -16.5 -98.5 -16.5z" />
    <glyph glyph-name="V" unicode="V" horiz-adv-x="705" 
d="M374 0h-43l-303 682h47l277 -633h2l277 633h46z" />
    <glyph glyph-name="W" unicode="W" horiz-adv-x="937" vert-adv-y="986" 
d="M914 682l-212.003 -682h-43l-154 499c-7.33301 22 -13.666 44 -18.999 66s-11 44 -17 66h-2l-16.5 -66c-5.66699 -22 -11.834 -44 -18.501 -66l-155 -499h-42l-212 682h45l153 -502c6.66699 -21.333 12.667 -42.5 18 -63.5l16 -63.5h2c22 86.667 46.5 172.167 73.5 256.5
l79.5 254.5c6.66699 19.333 12.834 39 18.501 59s11.834 39.667 18.501 59h43c6.66699 -19.333 12.834 -39 18.501 -59l17.5 -59l80 -254.5c26.667 -84.333 51 -169.833 73 -256.5h2l16 63.5c5.33301 21 11.333 42.167 18 63.5l153 502h46z" />
    <glyph glyph-name="X" unicode="X" horiz-adv-x="721" 
d="M632 0l-271 318l-271 -318h-57l301 350l-287 332h55l259 -301l258 301h56l-288 -332l301 -350h-56z" />
    <glyph glyph-name="Y" unicode="Y" horiz-adv-x="653" 
d="M347 0h-41v311l-278 371h52l246 -330h2l245 330h52l-278 -371v-311z" />
    <glyph glyph-name="Z" unicode="Z" horiz-adv-x="623" 
d="M539 40v-40h-476v43l410 597v2h-394v40h444v-43l-410 -597v-2h426z" />
    <glyph glyph-name="bracketleft" unicode="[" horiz-adv-x="271" 
d="M120 690v-793h103v-35h-140v863h140v-35h-103z" />
    <glyph glyph-name="backslash" unicode="\" horiz-adv-x="387" 
d="M60 740l301 -784l-34 -14l-301 784z" />
    <glyph glyph-name="bracketright" unicode="]" horiz-adv-x="271" 
d="M83 690v35h140v-863h-140v35h103v793h-103z" />
    <glyph glyph-name="asciicircum" unicode="^" 
d="M476 324l-182 320h-2l-182 -320l-36 17l198 341h42l198 -341z" />
    <glyph glyph-name="underscore" unicode="_" horiz-adv-x="684" 
d="M63 -56h558v-37h-558v37z" />
    <glyph glyph-name="grave" unicode="`" horiz-adv-x="336" 
d="M178 570l-123 130l36 24l113 -136z" />
    <glyph glyph-name="a" unicode="a" horiz-adv-x="538" 
d="M263 279c-20.667 0 -40.833 -2.16602 -60.5 -6.49902s-37.334 -11.5 -53.001 -21.5s-28.167 -23.167 -37.5 -39.5s-14 -36.166 -14 -59.499c0 -30 8 -54.833 24 -74.5s36 -33.834 60 -42.501c18 -6.66699 37.667 -10 59 -10c6 0 11.667 0.333008 17 1
c28 2 54 9.83301 78 23.5s44 33.167 60 58.5s24 56.666 24 93.999v60c-53.333 11.333 -105.666 17 -156.999 17zM263.001 505.001c67.333 0 117.002 -16.832 149.002 -50.499s48 -80.167 48 -139.5v-315h-34l-2 92h-2c-17.333 -32 -41.833 -57.5 -73.5 -76.5
s-68.834 -28.5 -111.501 -28.5c-26.667 0 -51 4 -73 12s-40.833 19.167 -56.5 33.5s-27.834 31.666 -36.501 51.999s-13 42.833 -13 67.5c0 52 17.5 92.333 52.5 121s84.167 43 147.5 43c28 0 54.833 -1.33301 80.5 -4s52.834 -6.33398 81.501 -11.001v17
c0 45.333 -12.333 81.5 -37 108.5s-64.334 40.5 -119.001 40.5c-30 0 -59.333 -5.16699 -88 -15.5s-55.667 -23.166 -81 -38.499l-22 39c30 15.333 60.833 28 92.5 38s64.167 15 97.5 15z" />
    <glyph glyph-name="b" unicode="b" horiz-adv-x="638" 
d="M334 27c28.667 0 55.5 5.33301 80.5 16s46.833 25.5 65.5 44.5s33.334 42 44.001 69s16 56.833 16 89.5s-5.33301 62.5 -16 89.5s-25.334 50 -44.001 69s-40.5 33.833 -65.5 44.5s-51.833 16 -80.5 16s-55.667 -5.33301 -81 -16s-47.333 -25.5 -66 -44.5
s-33.334 -42 -44.001 -69s-16 -56.833 -16 -89.5s5.33301 -62.5 16 -89.5s25.334 -50 44.001 -69s40.667 -33.833 66 -44.5s52.333 -16 81 -16zM336 504c34 0 65.834 -6.33301 95.501 -19s55.5 -30.5 77.5 -53.5s39.333 -50.333 52 -82s19 -66.167 19 -103.5
s-6.33301 -71.833 -19 -103.5s-30 -59 -52 -82s-47.833 -40.833 -77.5 -53.5s-61.5 -19 -95.5 -19c-44.667 0 -85.334 10.833 -122.001 32.5s-65.667 51.167 -87 88.5h-2l-3 -109h-34v725h40v-337h2c21.333 36 50 64.333 86 85s76 31 120 31z" />
    <glyph glyph-name="c" unicode="c" horiz-adv-x="545" 
d="M304 27c32.667 0 62.502 6.66699 89.502 20s50.167 32 69.5 56l29 -27c-22.667 -28 -50 -49.833 -82 -65.5s-67.333 -23.5 -106 -23.5c-34 0 -66 6.5 -96 19.5s-56.167 31 -78.5 54s-39.833 50.333 -52.5 82s-19 66.167 -19 103.5s6.33301 71.833 19 103.5
s30.167 59 52.5 82s48.5 40.833 78.5 53.5s62 19 96 19c38 0 73 -7.5 105 -22.5s59.333 -36.167 82 -63.5l-30 -27c-18.667 23.333 -41.334 41.5 -68.001 54.5s-56.334 19.5 -89.001 19.5c-28.667 0 -55.5 -5.33301 -80.5 -16s-46.833 -25.5 -65.5 -44.5
s-33.334 -42 -44.001 -69s-16 -56.833 -16 -89.5s5.33301 -62.5 16 -89.5s25.334 -50 44.001 -69s40.5 -33.833 65.5 -44.5s51.833 -16 80.5 -16z" />
    <glyph glyph-name="d" unicode="d" horiz-adv-x="638" 
d="M304 27c28.667 0 55.667 5.33301 81 16s47.333 25.5 66 44.5s33.334 42 44.001 69s16 56.833 16 89.5s-5.33301 62.5 -16 89.5s-25.334 50 -44.001 69s-40.667 33.833 -66 44.5s-52.333 16 -81 16s-55.5 -5.33301 -80.5 -16s-46.833 -25.5 -65.5 -44.5
s-33.334 -42 -44.001 -69s-16 -56.833 -16 -89.5s5.33301 -62.5 16 -89.5s25.334 -50 44.001 -69s40.5 -33.833 65.5 -44.5s51.833 -16 80.5 -16zM550 725v-725h-34l-2 109h-2c-21.333 -37.333 -50.333 -66.833 -87 -88.5s-77.667 -32.5 -123 -32.5
c-34 0 -65.833 6.33301 -95.5 19s-55.5 30.5 -77.5 53.5s-39.333 50.333 -52 82s-19 66.167 -19 103.5s6.33301 71.833 19 103.5s30 59 52 82s47.833 40.833 77.5 53.5s61.5 19 95.5 19c44 0 84 -10.333 120 -31s64.667 -49 86 -85h2v337h40z" />
    <glyph glyph-name="e" unicode="e" horiz-adv-x="573" 
d="M290 465c-52 0 -95.499 -16.667 -130.499 -50s-55.167 -81 -60.5 -143h373c-3.33301 61.333 -21.333 108.833 -54 142.5s-75.334 50.5 -128.001 50.5zM512.001 248c0 -2 -0.166016 -4.33301 -0.499023 -7s-0.5 -5.33398 -0.5 -8.00098h-413
c1.33301 -33.333 7.66602 -62.833 18.999 -88.5s26.166 -47.167 44.499 -64.5s39.333 -30.5 63 -39.5s48.834 -13.5 75.501 -13.5c32 0 62.333 7.16699 91 21.5s53 32.833 73 55.5l28 -28c-22.667 -26 -50.834 -47.333 -84.501 -64s-71.5 -25 -113.5 -25
c-32.667 0 -63.334 6.16699 -92.001 18.5s-53.667 29.833 -75 52.5s-38.166 50 -50.499 82s-18.5 67.333 -18.5 106s5.83301 73.834 17.5 105.501s27.834 58.834 48.501 81.501s45.167 40.167 73.5 52.5s58.833 18.5 91.5 18.5c34 0 65.167 -6 93.5 -18
s52.5 -28.833 72.5 -50.5s35 -47.834 45 -78.501c8 -25.333 12 -53.333 12 -84v-18v-7z" />
    <glyph glyph-name="f" unicode="f" horiz-adv-x="361" 
d="M248 699c-62 0 -93.001 -46.334 -93.001 -139.001v-68h173v-38h-173v-454h-40v454h-72v38h72v69c0 55.333 10.667 98.5 32 129.5s54.333 46.5 99 46.5c16 0 32 -1.33301 48 -4s30.667 -6 44 -10l-8 -39c-14.667 4.66699 -29.167 8.33398 -43.5 11.001
s-27.166 4 -38.499 4z" />
    <glyph glyph-name="g" unicode="g" 
d="M300 -163c60.667 0 108.834 10.499 144.501 31.499s53.5 49.5 53.5 85.5s-17.833 62.667 -53.5 80s-83.834 27.666 -144.501 30.999l-97 5c-66.667 -21.333 -100 -60 -100 -116c0 -18 4.83301 -34.167 14.5 -48.5s23.167 -26.666 40.5 -36.999s38 -18.166 62 -23.499
s50.667 -8 80 -8zM137 337.999c0 -17.333 3.5 -33.666 10.5 -48.999s17.5 -28.833 31.5 -40.5s31.167 -21 51.5 -28s43.5 -10.5 69.5 -10.5c26.667 0 50.167 3.5 70.5 10.5s37.5 16.333 51.5 28s24.5 25.167 31.5 40.5s10.5 31.666 10.5 48.999s-3.5 33.666 -10.5 48.999
s-17.5 28.833 -31.5 40.5s-31.167 21 -51.5 28s-43.833 10.5 -70.5 10.5c-26 0 -49.167 -3.5 -69.5 -10.5s-37.5 -16.333 -51.5 -28s-24.5 -25.167 -31.5 -40.5s-10.5 -31.666 -10.5 -48.999zM538 -46.001c0 -46 -20.4971 -82.998 -61.4971 -110.998s-99.833 -42 -176.5 -42
c-74.667 0 -132.834 14 -174.501 42s-62.5 65 -62.5 111c0 27.333 7.5 51.666 22.5 72.999s36.5 38.666 64.5 51.999v2c-16.667 7.33301 -29 17.166 -37 29.499s-12 25.833 -12 40.5c0 13.333 3.66699 26.5 11 39.5s19 23.833 35 32.5v2
c-16.667 15.333 -29.167 32.666 -37.5 51.999s-12.5 39.666 -12.5 60.999c0 22.667 4.66699 44.167 14 64.5s22.666 38 39.999 53s38.5 26.833 63.5 35.5s53.5 13 85.5 13c28 0 53 -3.16699 75 -9.5s41.333 -15.166 58 -26.499l73 71l26 -27l-70 -68
c28 -29.333 42 -64.666 42 -105.999c0 -22.667 -4.66699 -44 -14 -64s-22.666 -37.5 -39.999 -52.5s-38.666 -27 -63.999 -36s-54 -13.5 -86 -13.5c-24.667 0 -47.334 2.83301 -68.001 8.5s-39.334 13.167 -56.001 22.5c-10.667 -4.66699 -19.334 -11.167 -26.001 -19.5
s-10 -18.166 -10 -29.499c0 -13.333 5.33301 -24 16 -32s24.334 -12.333 41.001 -13c4.66699 -0.666992 17.167 -1.5 37.5 -2.5s42.166 -2.16699 65.499 -3.5c76.667 -4.66699 135.5 -19.167 176.5 -43.5s61.5 -59.5 61.5 -105.5z" />
    <glyph glyph-name="h" unicode="h" horiz-adv-x="585" 
d="M320 504c56.667 0 102 -18 136 -54s51 -88.333 51 -157v-293h-40v258c0 72.667 -12.667 125.667 -38 159s-64.333 50 -117 50c-30 0 -56.5 -5.83301 -79.5 -17.5s-42.167 -27 -57.5 -46s-27 -40.667 -35 -65s-12 -49.5 -12 -75.5v-263h-40v725h40v-325h2
c19.333 32 45.5 57.333 78.5 76s70.167 28 111.5 28z" />
    <glyph glyph-name="i" unicode="i" horiz-adv-x="218" 
d="M89 0h40v492h-40v-492zM138 639c0 -8 -2.66699 -15 -8 -21s-12.333 -9 -21 -9s-15.667 3 -21 9s-8 13 -8 21c0 8.66699 2.66699 16 8 22s12.333 9 21 9s15.667 -3 21 -9s8 -13.333 8 -22z" />
    <glyph glyph-name="j" unicode="j" horiz-adv-x="278" 
d="M195 639c0 -8 -2.5 -15 -7.5 -21s-11.833 -9 -20.5 -9s-15.667 3 -21 9s-8 13 -8 21c0 8.66699 2.66699 16 8 22s12.333 9 21 9s15.5 -3 20.5 -9s7.5 -13.333 7.5 -22zM147 -21c0 -44 -7.16602 -78.332 -21.499 -102.999s-38.5 -37 -72.5 -37
c-13.333 0 -26.833 1.16699 -40.5 3.5s-27.834 5.16602 -42.501 8.49902l-7 -37c13.333 -3.33301 28 -6.5 44 -9.5s32 -4.5 48 -4.5c24 0 44.333 4.33301 61 13s30.167 20.667 40.5 36s18 34 23 56s7.5 46.333 7.5 73v514h-40v-513z" />
    <glyph glyph-name="k" unicode="k" horiz-adv-x="530" 
d="M128 0h-40v725h40v-505h2l308 272h54l-246 -217l261 -275h-54l-235 251l-90 -79v-172z" />
    <glyph glyph-name="l" unicode="l" horiz-adv-x="216" 
d="M88 725h40v-725h-40v725z" />
    <glyph glyph-name="m" unicode="m" horiz-adv-x="856" 
d="M608 504c28 0 52.499 -5.50195 73.499 -16.502s38.667 -26 53 -45s25.166 -40.833 32.499 -65.5s11 -50.667 11 -78v-299h-40v283c0 24.667 -2.5 48.167 -7.5 70.5s-13 41.833 -24 58.5s-25 29.834 -42 39.501s-37.833 14.5 -62.5 14.5s-46.334 -4.83301 -65.001 -14.5
s-34.167 -23 -46.5 -40s-21.666 -37 -27.999 -60s-9.5 -47.5 -9.5 -73.5v-278h-40v283c0 24.667 -2.5 48.167 -7.5 70.5s-13 41.833 -24 58.5s-25 29.834 -42 39.501s-37.833 14.5 -62.5 14.5s-46.334 -4.83301 -65.001 -14.5s-34.167 -23 -46.5 -40
s-21.666 -37 -27.999 -60s-9.5 -47.5 -9.5 -73.5v-278h-40v492h34l2 -73h2c17.333 26.667 39.333 47.5 66 62.5s57 22.5 91 22.5c38 0 69.833 -10.167 95.5 -30.5s44.834 -46.5 57.501 -78.5h2c15.333 34 37.833 60.667 67.5 80s63.834 29 102.501 29z" />
    <glyph glyph-name="n" unicode="n" horiz-adv-x="585" 
d="M320 504c56.667 0 102.001 -18 136.001 -54s51 -88.333 51 -157v-293h-40v258c0 72.667 -12.667 125.5 -38 158.5s-64.333 49.5 -117 49.5c-30 0 -56.5 -5.66699 -79.5 -17s-42.167 -26.5 -57.5 -45.5s-27 -40.667 -35 -65s-12 -49.5 -12 -75.5v-263h-40v492h34l3 -98h2
c19.333 34 45.666 60.833 78.999 80.5s71.333 29.5 114 29.5z" />
    <glyph glyph-name="o" unicode="o" horiz-adv-x="609" 
d="M304 27c28.667 0 55.667 5.33301 81 16s47.333 25.5 66 44.5s33.334 42 44.001 69s16 56.833 16 89.5s-5.33301 62.5 -16 89.5s-25.334 50 -44.001 69s-40.667 33.833 -66 44.5s-52.333 16 -81 16s-55.5 -5.33301 -80.5 -16s-46.833 -25.5 -65.5 -44.5
s-33.334 -42 -44.001 -69s-16 -56.833 -16 -89.5s5.33301 -62.5 16 -89.5s25.334 -50 44.001 -69s40.5 -33.833 65.5 -44.5s51.833 -16 80.5 -16zM304 504c34.667 0 67 -6.33301 97 -19s56.167 -30.5 78.5 -53.5s39.833 -50.333 52.5 -82s19 -66.167 19 -103.5
s-6.33301 -71.833 -19 -103.5s-30.167 -59 -52.5 -82s-48.5 -41 -78.5 -54s-62.333 -19.5 -97 -19.5c-34 0 -66 6.5 -96 19.5s-56.167 31 -78.5 54s-39.833 50.333 -52.5 82s-19 66.167 -19 103.5s6.33301 71.833 19 103.5s30.167 59 52.5 82s48.5 40.833 78.5 53.5
s62 19 96 19z" />
    <glyph glyph-name="p" unicode="p" horiz-adv-x="638" 
d="M334 465c-28.667 0 -55.667 -5.33301 -81 -16s-47.333 -25.5 -66 -44.5s-33.334 -42 -44.001 -69s-16 -56.833 -16 -89.5s5.33301 -62.5 16 -89.5s25.334 -50.167 44.001 -69.5s40.667 -34.333 66 -45s52.333 -16 81 -16s55.5 5.33301 80.5 16s46.833 25.667 65.5 45
s33.334 42.5 44.001 69.5s16 56.833 16 89.5s-5.33301 62.5 -16 89.5s-25.334 50 -44.001 69s-40.5 33.833 -65.5 44.5s-51.833 16 -80.5 16zM88 -200l-0.000976562 692h34l3 -109h2c21.333 37.333 50.333 66.833 87 88.5s77.334 32.5 122.001 32.5
c34 0 65.833 -6.33301 95.5 -19s55.5 -30.5 77.5 -53.5s39.333 -50.333 52 -82s19 -66.167 19 -103.5s-6.33301 -71.833 -19 -103.5s-30 -59 -52 -82s-47.833 -41 -77.5 -54s-61.5 -19.5 -95.5 -19.5c-44 0 -84 10.5 -120 31.5s-64.667 49.5 -86 85.5h-2v-304h-40z" />
    <glyph glyph-name="q" unicode="q" horiz-adv-x="638" 
d="M511 246c0 32.667 -5.33301 62.5 -16 89.5s-25.334 50 -44.001 69s-40.667 33.833 -66 44.5s-52.333 16 -81 16s-55.5 -5.33301 -80.5 -16s-46.833 -25.5 -65.5 -44.5s-33.334 -42 -44.001 -69s-16 -56.833 -16 -89.5s5.33301 -62.5 16 -89.5
s25.334 -50.167 44.001 -69.5s40.5 -34.333 65.5 -45s51.833 -16 80.5 -16s55.667 5.33301 81 16s47.333 25.667 66 45s33.334 42.5 44.001 69.5s16 56.833 16 89.5zM510 -200v304h-2c-21.333 -36 -50 -64.5 -86 -85.5s-76 -31.5 -120 -31.5c-34 0 -65.833 6.5 -95.5 19.5
s-55.5 31 -77.5 54s-39.333 50.333 -52 82s-19 66.167 -19 103.5s6.33301 71.833 19 103.5s30 59 52 82s47.833 40.833 77.5 53.5s61.5 19 95.5 19c45.333 0 86.333 -10.833 123 -32.5s65.667 -51.167 87 -88.5h2l2 109h34v-692h-40z" />
    <glyph glyph-name="r" unicode="r" horiz-adv-x="364" 
d="M268 504c11.333 0 23.168 -0.999023 35.501 -2.99902s23.166 -4.33301 32.499 -7l-8 -42c-12 3.33301 -24 6.16602 -36 8.49902s-24 3.5 -36 3.5c-22 0 -41 -5.66699 -57 -17s-29.167 -26.833 -39.5 -46.5s-18.166 -43 -23.499 -70s-8 -56.167 -8 -87.5v-243h-40v492h34
l2 -83h2c29.333 63.333 76.666 95 141.999 95z" />
    <glyph glyph-name="s" unicode="s" horiz-adv-x="469" 
d="M232 24c46 0 80.668 8.99902 104.001 26.999s35 41.667 35 71c0 30 -12.167 54.333 -36.5 73s-60.5 33 -108.5 43c-54.667 12 -94.834 30 -120.501 54s-38.5 53.333 -38.5 88c0 17.333 3.83301 33.666 11.5 48.999s18.5 28.5 32.5 39.5s31.333 19.667 52 26
s44 9.5 70 9.5c34 0 66.333 -5.16699 97 -15.5s56.667 -23.166 78 -38.499l-23 -33c-19.333 13.333 -42.333 25.166 -69 35.499s-54 15.5 -82 15.5c-40 0 -71.167 -8.5 -93.5 -25.5s-33.5 -38.167 -33.5 -63.5c0 -26 10.5 -47.5 31.5 -64.5s54.167 -30.833 99.5 -41.5
c59.333 -13.333 103 -32.666 131 -57.999s42 -56 42 -92c0 -39.333 -15 -71.666 -45 -96.999s-74.333 -38 -133 -38c-15.333 0 -31.5 1.5 -48.5 4.5s-33.667 7.16699 -50 12.5s-31.5 11.833 -45.5 19.5s-26 16.167 -36 25.5l23 33c20.667 -18 45.167 -32.333 73.5 -43
s55.833 -16 82.5 -16z" />
    <glyph glyph-name="t" unicode="t" horiz-adv-x="358" 
d="M223 -12c-32 0 -56.835 9.33496 -74.502 28.002s-26.5 47 -26.5 85v353h-82v38h82v166h40v-166h163v-38h-163v-344c0 -28 5 -49 15 -63s26.667 -21 50 -21c12.667 0 29 1.5 49 4.5s37.667 6.5 53 10.5l6 -38c-6.66699 -2 -14.667 -3.83301 -24 -5.5
s-19.166 -3.33398 -29.499 -5.00098s-20.666 -2.83398 -30.999 -3.50098s-19.5 -1 -27.5 -1z" />
    <glyph glyph-name="u" unicode="u" horiz-adv-x="585" 
d="M497 492l0.00195312 -492h-35l-2 98h-2c-19.333 -34 -45.833 -60.833 -79.5 -80.5s-71.834 -29.5 -114.501 -29.5c-56.667 0 -101.834 18 -135.501 54s-50.5 88.333 -50.5 157v293h40v-258c0 -72.667 12.5 -125.667 37.5 -159s63.833 -50 116.5 -50
c30 0 56.5 5.83301 79.5 17.5s42.333 27 58 46s27.5 40.667 35.5 65s12 49.5 12 75.5v263h40z" />
    <glyph glyph-name="v" unicode="v" horiz-adv-x="533" 
d="M505 492l-218 -492h-41l-218 492h45l192 -441h2l193 441h45z" />
    <glyph glyph-name="w" unicode="w" horiz-adv-x="739" 
d="M706 492l-153 -492h-41l-142 430h-2l-141 -430h-41l-153 492h43l130 -428h2l141 428h41l141 -428h2l130 428h43z" />
    <glyph glyph-name="x" unicode="x" horiz-adv-x="571" 
d="M473 0l-187 220l-188 -220h-55l218 249l-212 243h52l185 -214l185 214h52l-212 -243l217 -249h-55z" />
    <glyph glyph-name="y" unicode="y" horiz-adv-x="538" 
d="M182 -200c-12.667 0 -24.332 1.16699 -34.999 3.5s-20.667 4.83301 -30 7.5l7 38c9.33301 -3.33301 19 -5.83301 29 -7.5s19.667 -2.5 29 -2.5c21.333 0 38.666 9.5 51.999 28.5s25.666 44.5 36.999 76.5l16 47l-259 501h46l230 -450h2l160 450h44l-208 -574
c-16 -44.667 -33.167 -75.5 -51.5 -92.5s-41.166 -25.5 -68.499 -25.5z" />
    <glyph glyph-name="z" unicode="z" horiz-adv-x="480" 
d="M407 38v-38h-344v40l284 412v2h-273v38h322v-40l-286 -412v-2h297z" />
    <glyph glyph-name="braceleft" unicode="{" horiz-adv-x="298" 
d="M165 570v-134.002v-11v-11c0 -3.33301 0.166992 -7.16602 0.5 -11.499s0.5 -8.16602 0.5 -11.499c0 -12 -1.33301 -23.667 -4 -35c-2.66699 -13.333 -7.16699 -25.5 -13.5 -36.5s-16.5 -19.5 -30.5 -25.5v-2c14 -6 24.167 -14.333 30.5 -25s10.833 -22.334 13.5 -35.001
c2.66699 -12 4 -24 4 -36c0 -5.33301 -0.166992 -13 -0.5 -23s-0.5 -17.333 -0.5 -22v-134c0 -16.667 0.666992 -32.5 2 -47.5s4.83301 -28.167 10.5 -39.5s14.167 -20.166 25.5 -26.499s27 -9.5 47 -9.5v-32c-25.333 0 -46 3.83301 -62 11.5s-28.5 18.334 -37.5 32.001
s-15 30 -18 49s-4.5 39.833 -4.5 62.5v168c0 12 -0.833008 23.5 -2.5 34.5s-4.83398 20.667 -9.50098 29s-11.334 15.166 -20.001 20.499s-20 8 -34 8h-14v32h14c14 0 25.333 2.66699 34 8s15.334 12.333 20.001 21s7.83398 18.5 9.50098 29.5s2.5 22.5 2.5 34.5v168
c0 22.667 1.5 43.5 4.5 62.5s9 35.333 18 49s21.5 24.334 37.5 32.001s36.667 11.5 62 11.5v-32c-20 0 -35.667 -3.33301 -47 -10s-19.833 -15.667 -25.5 -27s-9.16699 -24.333 -10.5 -39s-2 -30.334 -2 -47.001z" />
    <glyph glyph-name="bar" unicode="|" horiz-adv-x="253" 
d="M145 -200h-37v925h37v-925z" />
    <glyph glyph-name="braceright" unicode="}" horiz-adv-x="298" 
d="M48 693v32.001c26 0 46.833 -3.83301 62.5 -11.5s28 -18.334 37 -32.001s15 -30 18 -49s4.5 -39.833 4.5 -62.5v-168c0 -12 0.833008 -23.5 2.5 -34.5s5 -20.833 10 -29.5s11.833 -15.667 20.5 -21s20 -8 34 -8h13v-32h-13c-14 0 -25.333 -2.66699 -34 -8
s-15.5 -12.166 -20.5 -20.499s-8.33301 -18 -10 -29s-2.5 -22.5 -2.5 -34.5v-168c0 -22.667 -1.5 -43.5 -4.5 -62.5s-9 -35.333 -18 -49s-21.333 -24.334 -37 -32.001s-36.5 -11.5 -62.5 -11.5v32c20 0 35.833 3.16699 47.5 9.5s20.167 15.166 25.5 26.499
s8.66602 24.5 9.99902 39.5s2 30.833 2 47.5v134v40c0 14 1.16699 27.5 3.5 40.5s6.83301 24.833 13.5 35.5s17 19 31 25v2c-14 6 -24.333 14.5 -31 25.5s-11.167 23 -13.5 36s-3.5 26.5 -3.5 40.5v40v134c0 16.667 -0.666992 32.334 -2 47.001s-4.66602 27.667 -9.99902 39
s-13.833 20.333 -25.5 27s-27.5 10 -47.5 10z" />
    <glyph glyph-name="asciitilde" unicode="~" horiz-adv-x="505" 
d="M344 239c14.667 0 28.332 6.00195 40.999 18.002s22.667 24 30 36l27 -21c-11.333 -19.333 -25.833 -36.166 -43.5 -50.499s-36.167 -21.5 -55.5 -21.5h-5l-43 8c-16 5.33301 -31.667 11.5 -47 18.5s-30.5 13.333 -45.5 19s-29.167 8.5 -42.5 8.5
c-14 -0.666992 -27.5 -6.83398 -40.5 -18.501s-23.167 -23.5 -30.5 -35.5l-26 20c10.667 19.333 25 36.166 43 50.499s36.667 21.833 56 22.5c16 0 31.833 -2.83301 47.5 -8.5s31.334 -11.834 47.001 -18.501l45.5 -18.5c14.667 -5.66699 28.667 -8.5 42 -8.5z" />
    <glyph glyph-name="uni00A0" unicode="&#xa0;" horiz-adv-x="223" 
 />
    <glyph glyph-name="exclamdown" unicode="&#xa1;" horiz-adv-x="208" 
d="M135 472c0 -9.33301 -2.83301 -17.166 -8.5 -23.499s-13.167 -9.5 -22.5 -9.5s-16.833 3.16699 -22.5 9.5s-8.5 14.166 -8.5 23.499s2.83301 17.166 8.5 23.499s13.167 9.5 22.5 9.5s16.833 -3.16699 22.5 -9.5s8.5 -14.166 8.5 -23.499zM128 -190l-8 517h-32l-8 -517h48
z" />
    <glyph glyph-name="cent" unicode="&#xa2;" 
d="M115 341c0 -29.333 4.5 -56.668 13.5 -82.001s21.333 -47.5 37 -66.5s34.167 -34.5 55.5 -46.5s44.333 -20 69 -24v438c-24.667 -4 -47.667 -12 -69 -24s-39.833 -27.5 -55.5 -46.5s-28 -41.167 -37 -66.5s-13.5 -52.666 -13.5 -81.999zM327 -0.00195312l-37 0.00195312
v85c-30 4 -58.167 13 -84.5 27s-49 32.333 -68 55s-34 48.667 -45 78s-16.5 61.333 -16.5 96s5.5 66.667 16.5 96s26 55.333 45 78s41.667 41 68 55s54.5 23 84.5 27v85h37v-83c38 -0.666992 72.667 -8.5 104 -23.5s57.666 -35.833 78.999 -62.5l-30 -27
c-16 21.333 -37.333 39.166 -64 53.499s-56.334 21.833 -89.001 22.5v-442c32.667 0.666992 62.334 8.16699 89.001 22.5s48 32.166 64 53.499l30 -27c-21.333 -26.667 -47.666 -47.5 -78.999 -62.5s-66 -22.833 -104 -23.5v-83z" />
    <glyph glyph-name="sterling" unicode="&#xa3;" 
d="M527 35v-35.001h-468v32l93 2v299h-92v37h92v71c0 33.333 4 64 12 92s19.833 52 35.5 72s35.334 35.667 59.001 47s51.167 17 82.5 17c38.667 0 72 -8.83301 100 -26.5s49.333 -39.167 64 -64.5l-28 -27c-13.333 22.667 -31.5 41.834 -54.5 57.501s-49.5 23.5 -79.5 23.5
c-52.667 0 -91.334 -17.167 -116.001 -51.5s-37 -80.833 -37 -139.5v-71h223v-37h-223v-298h337z" />
    <glyph glyph-name="currency" unicode="&#xa4;" 
d="M293 123c30 0 58.333 5.66699 85 17s49.834 26.833 69.501 46.5s35.167 42.834 46.5 69.501s17 55 17 85s-5.66699 58.333 -17 85s-26.833 49.834 -46.5 69.501s-42.834 35.167 -69.501 46.5s-55 17 -85 17s-58.333 -5.66699 -85 -17s-49.834 -26.833 -69.501 -46.5
s-35.167 -42.834 -46.5 -69.501s-17 -55 -17 -85s5.66699 -58.333 17 -85s26.833 -49.834 46.5 -69.501s42.834 -35.167 69.501 -46.5s55 -17 85 -17zM293 85c-30.667 0 -60.334 5.5 -89.001 16.5s-54.667 26.5 -78 46.5l-62 -63l-27 27l63 62
c-20 23.333 -35.5 49.333 -46.5 78s-16.5 58.334 -16.5 89.001s5.5 60.334 16.5 89.001s26.5 54.667 46.5 78l-63 62l27 27l62 -63c23.333 20 49.333 35.5 78 46.5s58.334 16.5 89.001 16.5s60.334 -5.5 89.001 -16.5s54.667 -26.5 78 -46.5l62 63l27 -27l-63 -62
c20 -23.333 35.5 -49.333 46.5 -78s16.5 -58.334 16.5 -89.001s-5.5 -60.334 -16.5 -89.001s-26.5 -54.667 -46.5 -78l63 -62l-27 -27l-62 63c-23.333 -20 -49.333 -35.5 -78 -46.5s-58.334 -16.5 -89.001 -16.5z" />
    <glyph glyph-name="_380" unicode="&#xa5;" 
d="M340 370h184v-37h-212v-90h212v-37h-212v-206h-38v206h-212v37h212v90h-212v37h184v2l-208 286h49l205 -286h2l205 286h49l-208 -286v-2z" />
    <glyph glyph-name="brokenbar" unicode="&#xa6;" horiz-adv-x="253" 
d="M145 -138h-37v320h37v-320zM145 404h-37v321h37v-321z" />
    <glyph glyph-name="section" unicode="&#xa7;" horiz-adv-x="570" 
d="M109 324c0 -38 14.667 -68.667 44 -92s76.333 -42.333 141 -57c13.333 -3.33301 26 -6.66602 38 -9.99902s23 -7.33301 33 -12c32 8.66699 56 22.5 72 41.5s24 41.833 24 68.5c0 38 -14.667 68.5 -44 91.5s-76.333 41.833 -141 56.5
c-27.333 7.33301 -51 14.666 -71 21.999c-32 -8 -56 -21.667 -72 -41s-24 -42 -24 -68zM483 13c0 -21.333 -4.16699 -41.1689 -12.5 -59.502s-20.666 -34.333 -36.999 -48s-37 -24.5 -62 -32.5s-53.833 -12 -86.5 -12c-34.667 0 -70.334 5.83301 -107.001 17.5
s-69 28.167 -97 49.5l22 30c24.667 -19.333 52.667 -34.5 84 -45.5s64 -16.5 98 -16.5c54.667 0 95.334 11 122.001 33s40 48.667 40 80c0 34 -13 61.5 -39 82.5s-68.333 38.167 -127 51.5c-72 16.667 -124.667 39.5 -158 68.5s-50 66.5 -50 112.5
c0 28.667 6.83301 54.167 20.5 76.5s36.167 39.5 67.5 51.5v2c-26 16 -44.833 34 -56.5 54s-17.5 41.667 -17.5 65c0 21.333 4.16699 41.166 12.5 59.499s20.666 34.333 36.999 48s36.833 24.5 61.5 32.5s53.667 12 87 12c35.333 0 71.166 -5.66699 107.499 -17
s68.5 -28 96.5 -50l-22 -30c-24.667 19.333 -52.5 34.5 -83.5 45.5s-63.833 16.5 -98.5 16.5c-27.333 0 -51.166 -3 -71.499 -9s-37.166 -14 -50.499 -24s-23.333 -21.833 -30 -35.5s-10 -28.167 -10 -43.5c0 -34 13 -61.5 39 -82.5s68.333 -38.5 127 -52.5
c72.667 -17.333 125.5 -40.166 158.5 -68.499s49.5 -65.5 49.5 -111.5c0 -28.667 -6.83301 -54.167 -20.5 -76.5s-35.834 -39.833 -66.501 -52.5v-2c25.333 -15.333 43.833 -33.166 55.5 -53.499s17.5 -42.166 17.5 -65.499z" />
    <glyph glyph-name="dieresis" unicode="&#xa8;" horiz-adv-x="336" 
d="M64 639c0 9.33301 2.83301 17.166 8.5 23.499s13.167 9.5 22.5 9.5s16.833 -3.16699 22.5 -9.5s8.5 -14.166 8.5 -23.499s-2.83301 -17.166 -8.5 -23.499s-13.167 -9.5 -22.5 -9.5s-16.833 3.16699 -22.5 9.5s-8.5 14.166 -8.5 23.499zM215 639
c0 9.33301 2.83301 17.166 8.5 23.499s13.167 9.5 22.5 9.5s16.833 -3.16699 22.5 -9.5s8.5 -14.166 8.5 -23.499s-2.83301 -17.166 -8.5 -23.499s-13.167 -9.5 -22.5 -9.5s-16.833 3.16699 -22.5 9.5s-8.5 14.166 -8.5 23.499z" />
    <glyph glyph-name="copyright" unicode="&#xa9;" horiz-adv-x="831" 
d="M416 656c50 0 97 -9.5 141 -28.5s82.333 -44.833 115 -77.5s58.5 -71.167 77.5 -115.5s28.5 -91.5 28.5 -141.5s-9.5 -97 -28.5 -141s-44.833 -82.333 -77.5 -115s-71 -58.5 -115 -77.5s-91 -28.5 -141 -28.5s-97.167 9.5 -141.5 28.5s-82.833 44.833 -115.5 77.5
s-58.5 71 -77.5 115s-28.5 91 -28.5 141s9.5 97.167 28.5 141.5s44.833 82.833 77.5 115.5s71.167 58.5 115.5 77.5s91.5 28.5 141.5 28.5zM416 625c-46 0 -89.167 -8.66699 -129.5 -26s-75.5 -41 -105.5 -71s-53.667 -65.167 -71 -105.5s-26 -83.5 -26 -129.5
s8.66699 -89 26 -129s41 -75 71 -105s65.167 -53.667 105.5 -71s83.5 -26 129.5 -26s89.167 8.66699 129.5 26s75.5 41 105.5 71s53.667 65 71 105s26 83 26 129s-8.66699 89.167 -26 129.5s-41 75.5 -71 105.5s-65.167 53.667 -105.5 71s-83.5 26 -129.5 26zM420 469
c-24.667 0 -47.1699 -4.66895 -67.5029 -14.002s-37.833 -22 -52.5 -38s-26 -34.667 -34 -56s-12 -44 -12 -68s4 -46.667 12 -68s19.333 -39.833 34 -55.5s32.167 -28.167 52.5 -37.5s42.833 -14 67.5 -14c25.333 0 49.5 5.5 72.5 16.5s42.167 26.5 57.5 46.5l26 -21
c-19.333 -24 -42.666 -42.167 -69.999 -54.5s-56 -18.5 -86 -18.5c-29.333 0 -56.166 5.33301 -80.499 16s-45.333 25.334 -63 44.001s-31.5 40.5 -41.5 65.5s-15 51.833 -15 80.5s5 55.667 15 81s23.833 47.333 41.5 66s38.667 33.334 63 44.001s51.166 16 80.499 16
c30 0 58.333 -6 85 -18s49.667 -29.333 69 -52l-26 -22c-15.333 19.333 -34.166 34.333 -56.499 45s-46.166 16 -71.499 16z" />
    <glyph glyph-name="ordfeminine" unicode="&#xaa;" horiz-adv-x="400" 
d="M186 351c37.333 0 67.3359 11.833 90.0029 35.5s34 53.834 34 90.501v33c-34.667 8.66699 -71.334 13 -110.001 13c-14.667 0 -28.834 -1.33301 -42.501 -4s-25.834 -7.33398 -36.501 -14.001s-19.167 -15.667 -25.5 -27s-9.5 -25.333 -9.5 -42
c0 -29.333 9.83301 -50.833 29.5 -64.5s43.167 -20.5 70.5 -20.5zM201.003 688c44.667 0 79.3369 -11.002 104.004 -33.002s37 -56 37 -102v-226h-28l-1 61h-2c-14 -23.333 -32.333 -40.833 -55 -52.5s-47.334 -17.5 -74.001 -17.5c-18 0 -34.833 2.66699 -50.5 8
s-29.334 13 -41.001 23s-20.834 22.333 -27.501 37s-10 31.334 -10 50.001c0 21.333 4 39.5 12 54.5s18.5 27.167 31.5 36.5s28.167 16.166 45.5 20.499s35.666 6.5 54.999 6.5s38.333 -1 57 -3s37.334 -4.66699 56.001 -8c0 38.667 -7.83301 67.334 -23.5 86.001
s-44.167 28 -85.5 28c-21.333 0 -42 -3.16699 -62 -9.5s-39.333 -15.166 -58 -26.499l-18 30c21.333 11.333 43.666 20.333 66.999 27s47 10 71 10z" />
    <glyph glyph-name="guillemotleft" unicode="&#xab;" horiz-adv-x="388" 
d="M80 246l144 -220l-28 -15l-153 235l153 235l28 -15zM191 246l144 -220l-28 -15l-153 235l153 235l28 -15z" />
    <glyph glyph-name="logicalnot" unicode="&#xac;" horiz-adv-x="595" 
d="M542 399v-256h-39v218h-450v38h489z" />
    <glyph glyph-name="uni00AD" unicode="&#xad;" horiz-adv-x="351" 
d="M53 290h229v-37h-229v37z" />
    <glyph glyph-name="registered" unicode="&#xae;" horiz-adv-x="831" 
d="M416 656c50 0 97 -9.5 141 -28.5s82.333 -44.833 115 -77.5s58.5 -71.167 77.5 -115.5s28.5 -91.5 28.5 -141.5s-9.5 -97 -28.5 -141s-44.833 -82.333 -77.5 -115s-71 -58.5 -115 -77.5s-91 -28.5 -141 -28.5s-97.167 9.5 -141.5 28.5s-82.833 44.833 -115.5 77.5
s-58.5 71 -77.5 115s-28.5 91 -28.5 141s9.5 97.167 28.5 141.5s44.833 82.833 77.5 115.5s71.167 58.5 115.5 77.5s91.5 28.5 141.5 28.5zM416 625c-46 0 -89.167 -8.66602 -129.5 -25.999s-75.5 -41 -105.5 -71s-53.667 -65.167 -71 -105.5s-26 -83.5 -26 -129.5
s8.66699 -89 26 -129s41 -75 71 -105s65.167 -53.667 105.5 -71s83.5 -26 129.5 -26s89.167 8.66699 129.5 26s75.5 41 105.5 71s53.667 65.167 71 105.5s26 83.166 26 128.499c0 46 -8.66699 89.167 -26 129.5s-41 75.5 -71 105.5s-65.167 53.667 -105.5 71
s-83.5 26 -129.5 26zM315 302.001l130 -0.000976562c25.333 0 47.5 6.33301 66.5 19s28.5 33 28.5 61c0 28.667 -9.33301 49.334 -28 62.001s-41 19 -67 19h-130v-161zM405 268l-23.001 0.000976562c-22 0.666992 -44.333 1 -67 1v-173h-33v399h163
c18 0 34.667 -2.33301 50 -7s28.833 -11.667 40.5 -21s20.834 -21.166 27.501 -35.499s10 -30.833 10 -49.5c0 -28.667 -7.66699 -52.334 -23 -71.001s-37 -31.334 -65 -38.001l104 -181h-39l-100 177c-15.333 -0.666992 -30.333 -1 -45 -1z" />
    <glyph glyph-name="macron" unicode="&#xaf;" horiz-adv-x="336" 
d="M39 638h258v-37h-258v37z" />
    <glyph glyph-name="degree" unicode="&#xb0;" horiz-adv-x="405" 
d="M203 424c35.333 0 63.333 11 84 33s31 50.333 31 85c0 34 -10.333 61.833 -31 83.5s-48.667 32.5 -84 32.5c-36 0 -64.167 -10.833 -84.5 -32.5s-30.5 -49.5 -30.5 -83.5c0 -34.667 10.167 -63 30.5 -85s48.5 -33 84.5 -33zM203 694c22 0 42.5 -4 61.5 -12
s35.333 -18.833 49 -32.5s24.334 -29.834 32.001 -48.501s11.5 -38.667 11.5 -60s-3.83301 -41.333 -11.5 -60s-18.334 -35 -32.001 -49s-30 -25 -49 -33s-39.5 -12 -61.5 -12c-22.667 0 -43.5 4 -62.5 12s-35.333 19 -49 33s-24.334 30.333 -32.001 49
s-11.5 38.667 -11.5 60s3.83301 41.333 11.5 60s18.334 34.834 32.001 48.501s30 24.5 49 32.5s39.833 12 62.5 12z" />
    <glyph glyph-name="plusminus" unicode="&#xb1;" 
d="M507 306h-194v-196h-40v196h-194v36h194v196h40v-196h194v-36zM507 37h-428v-37h428v37z" />
    <glyph glyph-name="twosuperior" unicode="&#xb2;" horiz-adv-x="354" 
d="M103 462h195.999v-35h-252v31l141 148c22 22.667 40.167 43.167 54.5 61.5s21.5 38.166 21.5 59.499c0 23.333 -7.5 42.333 -22.5 57s-36.833 22 -65.5 22c-26.667 0 -48 -7.5 -64 -22.5s-26.333 -35.833 -31 -62.5l-37 9c5.33301 33.333 19.5 60.166 42.5 80.499
s52.833 30.5 89.5 30.5c40.667 0 71.834 -10.667 93.501 -32s32.5 -48.666 32.5 -81.999c0 -26 -8.16699 -50.167 -24.5 -72.5s-35.5 -45.166 -57.5 -68.499l-117 -122v-2z" />
    <glyph glyph-name="threesuperior" unicode="&#xb3;" horiz-adv-x="366" 
d="M314 534c0 -20 -3.66406 -37.332 -10.9971 -51.999s-17.333 -26.667 -30 -36s-27.334 -16.166 -44.001 -20.499s-34.334 -6.5 -53.001 -6.5c-20 0 -41.833 3.83301 -65.5 11.5s-43.167 18.834 -58.5 33.501l27 26c13.333 -11.333 28.5 -20.166 45.5 -26.499
s34.167 -9.5 51.5 -9.5c12.667 0 25.167 1.5 37.5 4.5s23.166 7.66699 32.499 14s16.833 14.666 22.5 24.999s8.5 22.833 8.5 37.5c0 22 -4.83301 38.5 -14.5 49.5s-22 19 -37 24s-31.167 7.66699 -48.5 8s-34 0.5 -50 0.5v35h47c12 0 23.667 1.66699 35 5
s21.5 8.16602 30.5 14.499s16.333 14.5 22 24.5s8.5 21.667 8.5 35c0 26.667 -9.66699 45.667 -29 57s-41.333 17 -66 17c-17.333 0 -34.166 -2.83301 -50.499 -8.5s-30.833 -14.5 -43.5 -26.5l-27 27c17.333 14.667 36.333 25.5 57 32.5s42 10.5 64 10.5
c17.333 0 34 -2.16699 50 -6.5s30 -11 42 -20s21.667 -20.333 29 -34s11 -29.834 11 -48.501c0 -21.333 -5.33301 -40 -16 -56s-25.334 -28.667 -44.001 -38v-2c20 -9.33301 36.167 -22.833 48.5 -40.5s18.5 -37.834 18.5 -60.501z" />
    <glyph glyph-name="acute" unicode="&#xb4;" horiz-adv-x="336" 
d="M136 588l114 136l35 -24l-123 -130z" />
    <glyph glyph-name="mu" unicode="&#xb5;" horiz-adv-x="585" 
d="M507 492v-492.003h-35l-2 97h-2c-19.333 -35.333 -45.833 -62.5 -79.5 -81.5s-70.5 -28.5 -110.5 -28.5c-30 0 -57.833 6.16699 -83.5 18.5s-47.167 31.5 -64.5 57.5h-2v-263h-40v692h40v-258c0 -27.333 2 -53.666 6 -78.999s11.667 -47.666 23 -66.999
s27 -34.666 47 -45.999s46 -17 78 -17c30.667 0 57.5 5.83301 80.5 17.5s42.167 27.167 57.5 46.5s27 41.833 35 67.5s12 52.5 12 80.5v255h40z" />
    <glyph glyph-name="paragraph" unicode="&#xb6;" horiz-adv-x="534" 
d="M446 682v-820h-36v785h-81v-785h-36v424h-32c-28.667 0 -55.834 4.33301 -81.501 13s-48.334 21.5 -68.001 38.5s-35.167 37.833 -46.5 62.5s-17 52.667 -17 84c0 32 5.66699 60.167 17 84.5s26.833 45 46.5 62s42.334 29.833 68.001 38.5s52.834 13 81.501 13h185z" />
    <glyph glyph-name="periodcentered" unicode="&#xb7;" horiz-adv-x="188" 
d="M63 246c0 9.33301 2.83301 17.166 8.5 23.499s13.167 9.5 22.5 9.5s16.833 -3.16699 22.5 -9.5s8.5 -14.166 8.5 -23.499s-2.83301 -17.166 -8.5 -23.499s-13.167 -9.5 -22.5 -9.5s-16.833 3.16699 -22.5 9.5s-8.5 14.166 -8.5 23.499z" />
    <glyph glyph-name="cedilla" unicode="&#xb8;" horiz-adv-x="336" 
d="M177 -52c11.333 0 22.833 -1.16504 34.5 -3.49805s22.334 -6.33301 32.001 -12s17.5 -13 23.5 -22s9 -20.167 9 -33.5s-2.83301 -24.833 -8.5 -34.5s-13 -17.667 -22 -24s-19.167 -11 -30.5 -14s-23 -4.5 -35 -4.5c-18 0 -35.833 2.66699 -53.5 8
s-34.5 12.666 -50.5 21.999l13 22c27.333 -16.667 56.666 -25 87.999 -25c16 0 30 4 42 12s18 20.667 18 38s-6.83301 29.666 -20.5 36.999s-28.167 11 -43.5 11c-13.333 0 -26.333 -2 -39 -6l-23 13l39 68h34l-29 -51v-2c3.33301 0.666992 7 1 11 1h11z" />
    <glyph glyph-name="onesuperior" unicode="&#xb9;" horiz-adv-x="268" 
d="M184 837v-410h-37v369l-93 -38l-12 32l114 47h28z" />
    <glyph glyph-name="ordmasculine" unicode="&#xba;" horiz-adv-x="450" 
d="M224 350c20 0 38.833 3.66699 56.5 11s33 17.833 46 31.5s23.333 29.834 31 48.501s11.5 39.334 11.5 62.001s-3.83301 43.5 -11.5 62.5s-18 35.333 -31 49s-28.333 24.167 -46 31.5s-36.5 11 -56.5 11s-38.833 -3.66699 -56.5 -11s-33 -17.833 -46 -31.5
s-23.167 -30 -30.5 -49s-11 -39.833 -11 -62.5s3.66699 -43.334 11 -62.001s17.5 -34.834 30.5 -48.501s28.333 -24.167 46 -31.5s36.5 -11 56.5 -11zM224 688c24.667 0 47.834 -4.5 69.501 -13.5s40.5 -21.833 56.5 -38.5s28.667 -36.334 38 -59.001s14 -47.334 14 -74.001
s-4.66699 -51.334 -14 -74.001s-22 -42.167 -38 -58.5s-34.833 -29 -56.5 -38s-44.834 -13.5 -69.501 -13.5s-47.667 4.5 -69 13.5s-40 21.667 -56 38s-28.5 35.833 -37.5 58.5s-13.5 47.334 -13.5 74.001s4.5 51.334 13.5 74.001s21.5 42.334 37.5 59.001
s34.667 29.5 56 38.5s44.333 13.5 69 13.5z" />
    <glyph glyph-name="guillemotright" unicode="&#xbb;" horiz-adv-x="388" 
d="M53 466l28 15l153 -235l-153 -235l-28 15l144 220zM164 466l28 15l153 -235l-153 -235l-28 15l144 220z" />
    <glyph glyph-name="onequarter" unicode="&#xbc;" horiz-adv-x="803" 
d="M179 275h37v410h-28l-114 -47l12 -32l93 38v-369zM718 129h-47v278h-42l-207 -282l3 -31h208v-94h38v94h47v35zM475 129v2l156 214h2v-216h-158zM558 684l-297 -700l-32 14l297 700z" />
    <glyph glyph-name="onehalf" unicode="&#xbd;" horiz-adv-x="803" 
d="M167 275h37v410h-28l-114 -47l12 -32l93 38v-369zM731 300c0 37.333 -12.166 65.833 -36.499 85.5s-54.166 29.5 -89.499 29.5c-34.667 0 -63.834 -10 -87.501 -30s-38.167 -47.333 -43.5 -82l37 -9c4 26 13.833 46.667 29.5 62s37.167 23 64.5 23
c25.333 0 46.333 -6.5 63 -19.5s25 -32.833 25 -59.5c0 -12 -2.5 -23.5 -7.5 -34.5s-11.333 -21.667 -19 -32s-15.834 -20 -24.501 -29l-24 -25.5l-141 -147v-32h252v35h-197v2l117 123l28.5 29.5c9.66699 10.333 18.5 21.333 26.5 33s14.5 24 19.5 37s7.5 26.5 7.5 40.5z
M535.001 684l-297 -700l-32 14l297 699z" />
    <glyph glyph-name="threequarters" unicode="&#xbe;" horiz-adv-x="803" 
d="M313 580c0 18.667 -3.67285 34.9971 -11.0059 48.9971s-17.333 25.333 -30 34s-27 15.167 -43 19.5s-32.333 6.5 -49 6.5c-22.667 0 -44.5 -3.5 -65.5 -10.5s-40.167 -17.833 -57.5 -32.5l26 -27c13.333 12 28.333 20.833 45 26.5s34 8.5 52 8.5
c12 0 23.667 -1.33301 35 -4s21.5 -6.83398 30.5 -12.501s16.167 -13.167 21.5 -22.5s8 -21 8 -35c0 -13.333 -2.83301 -25 -8.5 -35s-13.167 -18.167 -22.5 -24.5s-19.666 -11.166 -30.999 -14.499s-23 -5 -35 -5h-47v-36c15.333 0 31.833 -0.166992 49.5 -0.5
s34 -2.83301 49 -7.5s27.5 -12.5 37.5 -23.5s15 -27.5 15 -49.5c0 -14.667 -2.83301 -27.167 -8.5 -37.5s-13.167 -18.666 -22.5 -24.999s-20.166 -11 -32.499 -14s-24.833 -4.5 -37.5 -4.5c-17.333 0 -34.833 3 -52.5 9s-33.167 14.667 -46.5 26l-28 -26
c8 -7.33301 17 -13.666 27 -18.999s20.667 -10 32 -14s22.833 -7 34.5 -9s22.834 -3 33.501 -3c18.667 0 36.334 2.16699 53.001 6.5s31.334 11.166 44.001 20.499s22.834 21.333 30.501 36s11.5 32.334 11.5 53.001c0 22.667 -6.33301 42.834 -19 60.501
s-29 31.167 -49 40.5v2c18.667 9.33301 33.5 22 44.5 38s16.5 34.667 16.5 56zM748.994 128.997h-47v278h-43l-206 -282l3 -31h208v-94h38v94h47v35zM504.994 128.997v2l157 214h2v-216h-159zM588.994 683.997l-297 -700l-32 14l297 700z" />
    <glyph glyph-name="questiondown" unicode="&#xbf;" horiz-adv-x="548" 
d="M256 327h40.001c0 -29.333 -0.833008 -54.166 -2.5 -74.499s-5 -38.333 -10 -54s-12.167 -29.834 -21.5 -42.501s-21 -25.334 -35 -38.001l-48 -44.5c-14 -13 -26 -25.833 -36 -38.5s-17.5 -25.334 -22.5 -38.001s-7.5 -26.667 -7.5 -42c0 -16 3.66699 -31.167 11 -45.5
s17.833 -27 31.5 -38s30.667 -19.667 51 -26s43.5 -9.5 69.5 -9.5c47.333 0 84.833 12 112.5 36s47.167 56 58.5 96l38 -11c-12.667 -46.667 -36.334 -84.834 -71.001 -114.501s-80.667 -44.5 -138 -44.5c-32.667 0 -61.5 4.16699 -86.5 12.5s-46.167 19.833 -63.5 34.5
s-30.5 31.5 -39.5 50.5s-13.5 39.167 -13.5 60.5c0 18 2.83301 34.833 8.5 50.5s13.667 30.834 24 45.501s23 29.334 38 44.001s32.167 30.334 51.5 47.001c13.333 12 24 23.833 32 35.5s14 24.667 18 39s6.83301 30.333 8.5 48s2.5 38.167 2.5 61.5zM245.001 472
c0 9.33301 2.83301 17.166 8.5 23.499s13.167 9.5 22.5 9.5s16.833 -3.16699 22.5 -9.5s8.5 -14.166 8.5 -23.499s-2.83301 -17.166 -8.5 -23.499s-13.167 -9.5 -22.5 -9.5s-16.833 3.16699 -22.5 9.5s-8.5 14.166 -8.5 23.499z" />
    <glyph glyph-name="Agrave" unicode="&#xc0;" horiz-adv-x="695" 
d="M626 0h46l-303 682h-43l-303 -682h47l87 201h381zM175 241l172 392h2l171 -392h-345zM350 760l-123 130l36 24l113 -136z" />
    <glyph glyph-name="Aacute" unicode="&#xc1;" horiz-adv-x="695" 
d="M175 241l172 392h2l171 -392h-345zM157 201h381l88 -201h46l-303 682h-43l-303 -682h47zM320 778l114 136l35 -24l-123 -130z" />
    <glyph glyph-name="Acircumflex" unicode="&#xc2;" horiz-adv-x="695" 
d="M348 855l-99 -108l-25 18l101 122h46l101 -122l-25 -18zM520 241l-171 392h-2l-172 -392h345zM538 201h-381l-87 -201h-47l303 682h43l303 -682h-46z" />
    <glyph glyph-name="Atilde" unicode="&#xc3;" horiz-adv-x="695" 
d="M418 759c-14.667 0 -27.832 2.16797 -39.499 6.50098s-22.834 9.16602 -33.501 14.499s-21.167 10.166 -31.5 14.499s-21.5 6.5 -33.5 6.5c-11.333 0 -21.833 -4.33301 -31.5 -13s-17.5 -18.334 -23.5 -29.001l-27 16c8 16.667 19.167 31.167 33.5 43.5
s30.166 18.5 47.499 18.5c14 0 26.833 -2.16699 38.5 -6.5s22.834 -9.16602 33.501 -14.499s21.334 -10.166 32.001 -14.499s22 -6.5 34 -6.5c11.333 0 21.666 3.66699 30.999 11s17 17.333 23 30l27 -16c-8 -18.667 -19 -33.5 -33 -44.5s-29.667 -16.5 -47 -16.5z
M520.002 241.001l-171 392h-2l-172 -392h345zM538.002 201.001h-381l-87 -201h-47l303 682h43l303 -682h-46z" />
    <glyph glyph-name="Adieresis" unicode="&#xc4;" horiz-adv-x="695" 
d="M243 829c0 9.33301 2.83301 17.166 8.5 23.499s13.167 9.5 22.5 9.5s16.833 -3.16699 22.5 -9.5s8.5 -14.166 8.5 -23.499s-2.83301 -17.166 -8.5 -23.499s-13.167 -9.5 -22.5 -9.5s-16.833 3.16699 -22.5 9.5s-8.5 14.166 -8.5 23.499zM394 829
c0 9.33301 2.83301 17.166 8.5 23.499s13.167 9.5 22.5 9.5s16.833 -3.16699 22.5 -9.5s8.5 -14.166 8.5 -23.499s-2.83301 -17.166 -8.5 -23.499s-13.167 -9.5 -22.5 -9.5s-16.833 3.16699 -22.5 9.5s-8.5 14.166 -8.5 23.499zM520 241l-171 392h-2l-172 -392h345zM538 201
h-381l-87 -201h-47l303 682h43l303 -682h-46z" />
    <glyph glyph-name="Aring" unicode="&#xc5;" horiz-adv-x="695" 
d="M347 960c30.667 0 56.5 -9.83301 77.5 -29.5s31.5 -45.167 31.5 -76.5c0 -30.667 -10.333 -55.834 -31 -75.501s-46.667 -29.5 -78 -29.5s-57.333 9.83301 -78 29.5s-31 44.834 -31 75.501c0 31.333 10.333 56.833 31 76.5s46.667 29.5 78 29.5zM347 777
c23.333 0 42.333 7.5 57 22.5s22 33.5 22 55.5s-7.33301 40.167 -22 54.5s-33.667 21.5 -57 21.5c-22.667 0 -41.5 -7.16699 -56.5 -21.5s-22.5 -32.5 -22.5 -54.5s7.33301 -40.5 22 -55.5s33.667 -22.5 57 -22.5zM520 241l-171 392h-2l-172 -392h345zM538 201h-381
l-87 -201h-47l303 682h43l303 -682h-46z" />
    <glyph glyph-name="AE" unicode="&#xc6;" horiz-adv-x="1098" 
d="M273 241h340l-21 401h-2l-317 -399v-2zM1025 40v-40h-400l-10 201h-375l-159 -201h-58l546 682h447v-40h-382l14 -271h340v-40h-338l14 -291h361z" />
    <glyph glyph-name="Ccedilla" unicode="&#xc7;" horiz-adv-x="723" 
d="M398 -52l11.001 0.00195312c11.333 0 22.833 -1.16699 34.5 -3.5s22.334 -6.33301 32.001 -12s17.5 -13 23.5 -22s9 -20.167 9 -33.5s-2.66699 -24.833 -8 -34.5s-12.5 -17.667 -21.5 -24s-19.167 -11 -30.5 -14s-23 -4.5 -35 -4.5c-18.667 0 -36.834 2.66699 -54.501 8
s-34.167 12.666 -49.5 21.999l13 22c27.333 -16.667 56.333 -25 87 -25c16.667 0 30.834 4 42.501 12s17.5 20.667 17.5 38s-6.83301 29.666 -20.5 36.999s-27.834 11 -42.501 11c-14 0 -27.333 -2 -40 -6l-22 13l30 55v2c-46.667 3.33301 -89.167 15 -127.5 35
s-71.333 45.667 -99 77s-49 67.666 -64 108.999s-22.5 85 -22.5 131c0 48.667 8.5 94.5 25.5 137.5s40.5 80.5 70.5 112.5s66 57.167 108 75.5s88 27.5 138 27.5c50.667 0 98.667 -10 144 -30s84.333 -50 117 -90l-31 -27c-28.667 35.333 -62.834 62.166 -102.501 80.499
s-82.167 27.5 -127.5 27.5c-44.667 0 -85.334 -8.16699 -122.001 -24.5s-68.167 -38.833 -94.5 -67.5s-46.833 -62 -61.5 -100s-22 -78.667 -22 -122s7.33301 -84.166 22 -122.499s35.167 -71.666 61.5 -99.999s57.833 -50.833 94.5 -67.5s77.334 -25 122.001 -25
c46 0 89.333 9.83301 130 29.5s75 47.5 103 83.5l32 -27c-32 -40 -70.5 -70.5 -115.5 -91.5s-92.833 -31.833 -143.5 -32.5l-22 -39v-2c4 0.666992 7.66699 1 11 1z" />
    <glyph glyph-name="Egrave" unicode="&#xc8;" horiz-adv-x="588" 
d="M135 40v291h344v40h-344v271h372v40h-414v-682h422v40h-380zM324 760l-123 129l35 25l114 -136z" />
    <glyph glyph-name="Eacute" unicode="&#xc9;" horiz-adv-x="588" 
d="M279 778l114 136l35 -24l-123 -130zM515 40v-40h-422v682h414v-40h-372v-271h344v-40h-344v-291h380z" />
    <glyph glyph-name="Ecircumflex" unicode="&#xca;" horiz-adv-x="588" 
d="M313 855l-99 -108l-25 18l101 122h46l101 -122l-25 -18zM515 40v-40h-422v682h414v-40h-372v-271h344v-40h-344v-291h380z" />
    <glyph glyph-name="Edieresis" unicode="&#xcb;" horiz-adv-x="588" 
d="M205 829c0 9.33301 2.83301 17.166 8.5 23.499s13.167 9.5 22.5 9.5s16.833 -3.16699 22.5 -9.5s8.5 -14.166 8.5 -23.499s-2.83301 -17.166 -8.5 -23.499s-13.167 -9.5 -22.5 -9.5s-16.833 3.16699 -22.5 9.5s-8.5 14.166 -8.5 23.499zM356 829
c0 9.33301 2.83301 17.166 8.5 23.499s13.167 9.5 22.5 9.5s16.833 -3.16699 22.5 -9.5s8.5 -14.166 8.5 -23.499s-2.83301 -17.166 -8.5 -23.499s-13.167 -9.5 -22.5 -9.5s-16.833 3.16699 -22.5 9.5s-8.5 14.166 -8.5 23.499zM515 40v-40h-422v682h414v-40h-372v-271h344
v-40h-344v-291h380z" />
    <glyph glyph-name="Igrave" unicode="&#xcc;" horiz-adv-x="228" 
d="M135 0v682h-42v-682h42zM116 760l-123 129l35 25l114 -136z" />
    <glyph glyph-name="Iacute" unicode="&#xcd;" horiz-adv-x="228" 
d="M85 778l114 136l35 -24l-123 -130zM93 0v682h42v-682h-42z" />
    <glyph glyph-name="Icircumflex" unicode="&#xce;" horiz-adv-x="228" 
d="M114 855l-99 -108l-25 18l101 122h46l101 -122l-25 -18zM93 0v682h42v-682h-42z" />
    <glyph glyph-name="Idieresis" unicode="&#xcf;" horiz-adv-x="228" 
d="M10 829c0 9.33301 2.83301 17.166 8.5 23.499s13.167 9.5 22.5 9.5s16.833 -3.16699 22.5 -9.5s8.5 -14.166 8.5 -23.499s-2.83301 -17.166 -8.5 -23.499s-13.167 -9.5 -22.5 -9.5s-16.833 3.16699 -22.5 9.5s-8.5 14.166 -8.5 23.499zM160 829
c0 9.33301 2.83301 17.166 8.5 23.499s13.167 9.5 22.5 9.5s16.833 -3.16699 22.5 -9.5s8.5 -14.166 8.5 -23.499s-2.83301 -17.166 -8.5 -23.499s-13.167 -9.5 -22.5 -9.5s-16.833 3.16699 -22.5 9.5s-8.5 14.166 -8.5 23.499zM93 0v682h42v-682h-42z" />
    <glyph glyph-name="Eth" unicode="&#xd0;" horiz-adv-x="687" 
d="M584 341c0 46 -6.66699 87.667 -20 125s-32.666 69 -57.999 95s-56.333 46 -93 60s-78.334 21 -125.001 21h-153v-283h212v-36h-212v-283h153c46.667 0 88.334 7 125.001 21s67.667 34 93 60s44.666 57.667 57.999 95s20 79 20 125zM626 341
c0 -52 -7.83301 -99 -23.5 -141s-38 -77.833 -67 -107.5s-64.167 -52.5 -105.5 -68.5s-88 -24 -140 -24h-197v323h-76v36h76v323h197c52 0 98.667 -8 140 -24s76.5 -38.833 105.5 -68.5s51.333 -65.5 67 -107.5s23.5 -89 23.5 -141z" />
    <glyph glyph-name="Ntilde" unicode="&#xd1;" horiz-adv-x="709" 
d="M425 759c-14.667 0 -27.832 2.16797 -39.499 6.50098s-22.834 9.16602 -33.501 14.499s-21.167 10.166 -31.5 14.499s-21.5 6.5 -33.5 6.5c-11.333 0 -21.833 -4.33301 -31.5 -13s-17.5 -18.334 -23.5 -29.001l-27 16c8 16.667 19.167 31.167 33.5 43.5
s30.166 18.5 47.499 18.5c14 0 26.833 -2.16699 38.5 -6.5s22.834 -9.16602 33.501 -14.499s21.334 -10.166 32.001 -14.499s22 -6.5 34 -6.5c11.333 0 21.666 3.66699 30.999 11s17 17.333 23 30l27 -16c-8 -18.667 -19 -33.5 -33 -44.5s-29.667 -16.5 -47 -16.5z
M616.002 682.001l0.000976562 -682.001h-42l-439 613h-2c0 -10.667 0.166992 -23.667 0.5 -39s0.666016 -31.666 0.999023 -48.999s0.5 -35 0.5 -53v-49v-423h-42v682h43l438 -613h2c0 10.667 -0.166992 23.667 -0.5 39s-0.5 31.333 -0.5 48v52v51v423h41z" />
    <glyph glyph-name="Ograve" unicode="&#xd2;" horiz-adv-x="805" 
d="M402 694c-47.333 0 -91.833 -8.66699 -133.5 -26s-77.834 -41.666 -108.501 -72.999s-54.834 -68.666 -72.501 -111.999s-26.5 -90.666 -26.5 -141.999s8.83301 -98.666 26.5 -141.999s41.834 -80.666 72.501 -111.999s66.834 -55.666 108.501 -72.999
s86.167 -26 133.5 -26c48 0 92.667 8.66699 134 26s77.5 41.666 108.5 72.999s55.333 68.666 73 111.999s26.5 90.666 26.5 141.999s-8.83301 98.666 -26.5 141.999s-42 80.666 -73 111.999s-67.167 55.666 -108.5 72.999s-86 26 -134 26zM402 26
c-42 0 -81.167 7.83301 -117.5 23.5s-68 37.334 -95 65.001s-48.167 60.834 -63.5 99.501s-23 81 -23 127s7.66699 88.167 23 126.5s36.5 71.5 63.5 99.5s58.667 49.667 95 65s75.5 23 117.5 23s81.333 -7.66699 118 -23s68.5 -37 95.5 -65s48.167 -61.167 63.5 -99.5
s23 -80.5 23 -126.5s-7.66699 -88.333 -23 -127s-36.5 -71.834 -63.5 -99.501s-58.833 -49.334 -95.5 -65.001s-76 -23.5 -118 -23.5zM409 760l-123 130l36 24l113 -136z" />
    <glyph glyph-name="Oacute" unicode="&#xd3;" horiz-adv-x="805" 
d="M402 26c-42 0 -81.167 7.83301 -117.5 23.5s-68 37.334 -95 65.001s-48.167 60.834 -63.5 99.501s-23 81 -23 127s7.66699 88.167 23 126.5s36.5 71.5 63.5 99.5s58.667 49.667 95 65s75.5 23 117.5 23s81.333 -7.66699 118 -23s68.5 -37 95.5 -65
s48.167 -61.167 63.5 -99.5s23 -80.5 23 -126.5s-7.66699 -88.333 -23 -127s-36.5 -71.834 -63.5 -99.501s-58.833 -49.334 -95.5 -65.001s-76 -23.5 -118 -23.5zM402 694c-47.333 0 -91.833 -8.66699 -133.5 -26s-77.834 -41.666 -108.501 -72.999
s-54.834 -68.666 -72.501 -111.999s-26.5 -90.666 -26.5 -141.999s8.83301 -98.666 26.5 -141.999s41.834 -80.666 72.501 -111.999s66.834 -55.666 108.501 -72.999s86.167 -26 133.5 -26c48 0 92.667 8.66699 134 26s77.5 41.666 108.5 72.999s55.333 68.666 73 111.999
s26.5 90.666 26.5 141.999s-8.83301 98.666 -26.5 141.999s-42 80.666 -73 111.999s-67.167 55.666 -108.5 72.999s-86 26 -134 26zM370 778l114 136l35 -24l-123 -130z" />
    <glyph glyph-name="Ocircumflex" unicode="&#xd4;" horiz-adv-x="805" 
d="M403 855l-99 -108l-25 18l101 122h46l101 -122l-25 -18zM402 26c42 0 81.333 7.83301 118 23.5s68.5 37.334 95.5 65.001s48.167 60.834 63.5 99.501s23 81 23 127s-7.66699 88.167 -23 126.5s-36.5 71.5 -63.5 99.5s-58.833 49.667 -95.5 65s-76 23 -118 23
s-81.167 -7.66699 -117.5 -23s-68 -37 -95 -65s-48.167 -61.167 -63.5 -99.5s-23 -80.5 -23 -126.5s7.66699 -88.333 23 -127s36.5 -71.834 63.5 -99.501s58.667 -49.334 95 -65.001s75.5 -23.5 117.5 -23.5zM402 694c48 0 92.667 -8.66699 134 -26
s77.5 -41.666 108.5 -72.999s55.333 -68.666 73 -111.999s26.5 -90.666 26.5 -141.999s-8.83301 -98.666 -26.5 -141.999s-42 -80.666 -73 -111.999s-67.167 -55.666 -108.5 -72.999s-86 -26 -134 -26c-47.333 0 -91.833 8.66699 -133.5 26s-77.834 41.666 -108.501 72.999
s-54.834 68.666 -72.501 111.999s-26.5 90.666 -26.5 141.999s8.83301 98.666 26.5 141.999s41.834 80.666 72.501 111.999s66.834 55.666 108.501 72.999s86.167 26 133.5 26z" />
    <glyph glyph-name="Otilde" unicode="&#xd5;" horiz-adv-x="805" 
d="M473 759c-14.667 0 -27.832 2.16797 -39.499 6.50098s-22.834 9.16602 -33.501 14.499s-21.167 10.166 -31.5 14.499s-21.5 6.5 -33.5 6.5c-11.333 0 -21.833 -4.33301 -31.5 -13s-17.5 -18.334 -23.5 -29.001l-27 16c8 16.667 19.167 31.167 33.5 43.5
s30.166 18.5 47.499 18.5c14 0 26.833 -2.16699 38.5 -6.5s22.834 -9.16602 33.501 -14.499s21.334 -10.166 32.001 -14.499s22 -6.5 34 -6.5c11.333 0 21.666 3.66699 30.999 11s17 17.333 23 30l27 -16c-8 -18.667 -19 -33.5 -33 -44.5s-29.667 -16.5 -47 -16.5z
M402.002 26.001c42 0 81.333 7.83301 118 23.5s68.5 37.334 95.5 65.001s48.167 60.834 63.5 99.501s23 81 23 127s-7.66699 88.167 -23 126.5s-36.5 71.5 -63.5 99.5s-58.833 49.667 -95.5 65s-76 23 -118 23s-81.167 -7.66699 -117.5 -23s-68 -37 -95 -65
s-48.167 -61.167 -63.5 -99.5s-23 -80.5 -23 -126.5s7.66699 -88.333 23 -127s36.5 -71.834 63.5 -99.501s58.667 -49.334 95 -65.001s75.5 -23.5 117.5 -23.5zM402.002 694.001c48 0 92.667 -8.66699 134 -26s77.5 -41.666 108.5 -72.999s55.333 -68.666 73 -111.999
s26.5 -90.666 26.5 -141.999s-8.83301 -98.666 -26.5 -141.999s-42 -80.666 -73 -111.999s-67.167 -55.666 -108.5 -72.999s-86 -26 -134 -26c-47.333 0 -91.833 8.66699 -133.5 26s-77.834 41.666 -108.501 72.999s-54.834 68.666 -72.501 111.999
s-26.5 90.666 -26.5 141.999s8.83301 98.666 26.5 141.999s41.834 80.666 72.501 111.999s66.834 55.666 108.501 72.999s86.167 26 133.5 26z" />
    <glyph glyph-name="Odieresis" unicode="&#xd6;" horiz-adv-x="805" 
d="M298 829c0 9.33301 2.83301 17.166 8.5 23.499s13.167 9.5 22.5 9.5s16.833 -3.16699 22.5 -9.5s8.5 -14.166 8.5 -23.499s-2.83301 -17.166 -8.5 -23.499s-13.167 -9.5 -22.5 -9.5s-16.833 3.16699 -22.5 9.5s-8.5 14.166 -8.5 23.499zM449 829
c0 9.33301 2.83301 17.166 8.5 23.499s13.167 9.5 22.5 9.5s16.833 -3.16699 22.5 -9.5s8.5 -14.166 8.5 -23.499s-2.83301 -17.166 -8.5 -23.499s-13.167 -9.5 -22.5 -9.5s-16.833 3.16699 -22.5 9.5s-8.5 14.166 -8.5 23.499zM402 26c42 0 81.333 7.83301 118 23.5
s68.5 37.334 95.5 65.001s48.167 60.834 63.5 99.501s23 81 23 127s-7.66699 88.167 -23 126.5s-36.5 71.5 -63.5 99.5s-58.833 49.667 -95.5 65s-76 23 -118 23s-81.167 -7.66699 -117.5 -23s-68 -37 -95 -65s-48.167 -61.167 -63.5 -99.5s-23 -80.5 -23 -126.5
s7.66699 -88.333 23 -127s36.5 -71.834 63.5 -99.501s58.667 -49.334 95 -65.001s75.5 -23.5 117.5 -23.5zM402 694c48 0 92.667 -8.66699 134 -26s77.5 -41.666 108.5 -72.999s55.333 -68.666 73 -111.999s26.5 -90.666 26.5 -141.999s-8.83301 -98.666 -26.5 -141.999
s-42 -80.666 -73 -111.999s-67.167 -55.666 -108.5 -72.999s-86 -26 -134 -26c-47.333 0 -91.833 8.66699 -133.5 26s-77.834 41.666 -108.501 72.999s-54.834 68.666 -72.501 111.999s-26.5 90.666 -26.5 141.999s8.83301 98.666 26.5 141.999
s41.834 80.666 72.501 111.999s66.834 55.666 108.501 72.999s86.167 26 133.5 26z" />
    <glyph glyph-name="multiply" unicode="&#xd7;" 
d="M480 58l-187 187l-187 -187l-26 26l187 187l-187 187l26 26l187 -186l187 186l26 -26l-187 -187l187 -187z" />
    <glyph glyph-name="Oslash" unicode="&#xd8;" horiz-adv-x="805" 
d="M403 26c44 0 84.333 8.33496 121 25.002s68.167 39.167 94.5 67.5s46.833 61.666 61.5 99.999s22 79.166 22 122.499c0 38.667 -5.83301 76 -17.5 112s-30.167 69 -55.5 99l-427 -449c28 -25.333 59 -44.5 93 -57.5s70 -19.5 108 -19.5zM103 341.002
c0 -38.667 5.83398 -76 17.501 -112s30.167 -69 55.5 -99l427 449c-28 25.333 -59 44.333 -93 57s-69.667 19 -107 19c-44.667 0 -85.334 -8.16699 -122.001 -24.5s-68.167 -38.833 -94.5 -67.5s-46.833 -62 -61.5 -100s-22 -78.667 -22 -122zM744.001 341.002
c0 -49.333 -8.5 -95.501 -25.5 -138.501s-40.5 -80.5 -70.5 -112.5s-65.833 -57.167 -107.5 -75.5s-87.5 -27.5 -137.5 -27.5c-42.667 0 -83.5 7.33301 -122.5 22s-74.5 36.334 -106.5 65.001l-82 -87l-27 26l83 87c-30 34 -52 71.667 -66 113s-21 84 -21 128
c0 48.667 8.5 94.5 25.5 137.5s40.5 80.5 70.5 112.5s66 57.167 108 75.5s88 27.5 138 27.5c42 0 82.5 -7.16699 121.5 -21.5s74.5 -35.833 106.5 -64.5l82 86l27 -25l-83 -87c30 -34 52 -71.667 66 -113s21 -84 21 -128z" />
    <glyph glyph-name="Ugrave" unicode="&#xd9;" horiz-adv-x="674" 
d="M348 760l-123 130l36 24l113 -136zM337 -13c-35.333 0 -68.332 5.5 -98.999 16.5s-57.5 27.333 -80.5 49s-41.167 48.667 -54.5 81s-20 70.166 -20 113.499v435h42v-430c0 -36 5.16699 -68 15.5 -96s24.833 -51.5 43.5 -70.5s41 -33.5 67 -43.5s54.667 -15 86 -15
s60.166 5 86.499 15s48.833 24.5 67.5 43.5s33.167 42.5 43.5 70.5s15.5 60 15.5 96v430h41v-435c0 -43.333 -6.66699 -81.166 -20 -113.499s-31.5 -59.333 -54.5 -81s-50 -38 -81 -49s-63.833 -16.5 -98.5 -16.5z" />
    <glyph glyph-name="Uacute" unicode="&#xda;" horiz-adv-x="674" 
d="M301 778l114 136l35 -24l-123 -130zM337 -13c-35.333 0 -68.332 5.5 -98.999 16.5s-57.5 27.333 -80.5 49s-41.167 48.667 -54.5 81s-20 70.166 -20 113.499v435h42v-430c0 -36 5.16699 -68 15.5 -96s24.833 -51.5 43.5 -70.5s41 -33.5 67 -43.5s54.667 -15 86 -15
s60.166 5 86.499 15s48.833 24.5 67.5 43.5s33.167 42.5 43.5 70.5s15.5 60 15.5 96v430h41v-435c0 -43.333 -6.66699 -81.166 -20 -113.499s-31.5 -59.333 -54.5 -81s-50 -38 -81 -49s-63.833 -16.5 -98.5 -16.5z" />
    <glyph glyph-name="Ucircumflex" unicode="&#xdb;" horiz-adv-x="674" 
d="M337 -13c34.667 0 67.499 5.5 98.499 16.5s58 27.333 81 49s41.167 48.667 54.5 81s20 70.166 20 113.499v435h-41v-430c0 -36 -5.16699 -68 -15.5 -96s-24.833 -51.5 -43.5 -70.5s-41.167 -33.5 -67.5 -43.5s-55.166 -15 -86.499 -15s-60 5 -86 15
s-48.333 24.5 -67 43.5s-33.167 42.5 -43.5 70.5s-15.5 60 -15.5 96v430h-42v-435c0 -43.333 6.66699 -81.166 20 -113.499s31.5 -59.333 54.5 -81s49.833 -38 80.5 -49s63.667 -16.5 99 -16.5zM336.999 855l-99 -108l-25 18l101 121h47l101 -121l-26 -18z" />
    <glyph glyph-name="Udieresis" unicode="&#xdc;" horiz-adv-x="674" 
d="M337 -13c34.667 0 67.499 5.5 98.499 16.5s58 27.333 81 49s41.167 48.667 54.5 81s20 70.166 20 113.499v435h-41v-430c0 -36 -5.16699 -68 -15.5 -96s-24.833 -51.5 -43.5 -70.5s-41.167 -33.5 -67.5 -43.5s-55.166 -15 -86.499 -15s-60 5 -86 15
s-48.333 24.5 -67 43.5s-33.167 42.5 -43.5 70.5s-15.5 60 -15.5 96v430h-42v-435c0 -43.333 6.66699 -81.166 20 -113.499s31.5 -59.333 54.5 -81s49.833 -38 80.5 -49s63.667 -16.5 99 -16.5zM411.999 859c8.66699 0 15.667 -2.83301 21 -8.5s8 -12.834 8 -21.501
s-2.66699 -15.834 -8 -21.501s-12.333 -8.5 -21 -8.5c-8 0 -14.667 2.83301 -20 8.5s-8 12.834 -8 21.501s2.66699 15.834 8 21.501s12 8.5 20 8.5zM232.999 829c0 9.33301 2.83301 17.166 8.5 23.499s13.167 9.5 22.5 9.5s16.833 -3.16699 22.5 -9.5
s8.5 -14.166 8.5 -23.499s-2.83301 -17.166 -8.5 -23.499s-13.167 -9.5 -22.5 -9.5s-16.833 3.16699 -22.5 9.5s-8.5 14.166 -8.5 23.499z" />
    <glyph glyph-name="Yacute" unicode="&#xdd;" horiz-adv-x="653" 
d="M291 778l113 136l35 -25l-123 -129zM306 0h41v311l278 371h-52l-245 -330h-2l-246 330h-52l278 -371v-311z" />
    <glyph glyph-name="Thorn" unicode="&#xde;" horiz-adv-x="631" 
d="M533 341c0 22 -3.5 42.5 -10.5 61.5s-17.667 35.5 -32 49.5s-32.5 24.833 -54.5 32.5s-47.667 11.5 -77 11.5h-221v-310h221c54 0 96.5 13.833 127.5 41.5s46.5 65.5 46.5 113.5zM576 341c0 -28.667 -4.83301 -54.999 -14.5 -78.999s-23.667 -44.5 -42 -61.5
s-41 -30.333 -68 -40s-57.833 -14.5 -92.5 -14.5h-221v-146h-42v682h42v-146h222c35.333 0 66.5 -4.83301 93.5 -14.5s49.5 -23.167 67.5 -40.5s31.667 -37.833 41 -61.5s14 -49.834 14 -78.501z" />
    <glyph glyph-name="germandbls" unicode="&#xdf;" horiz-adv-x="587" 
d="M529 215c0 -34.667 -5.16797 -66.001 -15.501 -94.001s-25.166 -52 -44.499 -72s-42.666 -35.333 -69.999 -46s-58 -16 -92 -16c-19.333 0 -37.666 1.33301 -54.999 4s-32.666 5.66699 -45.999 9l11 40c9.33301 -3.33301 21.5 -6.5 36.5 -9.5s30.167 -4.5 45.5 -4.5
c58.667 0 105 16.5 139 49.5s51 79.167 51 138.5c0 24.667 -4 48 -12 70s-19.833 41.167 -35.5 57.5s-35 29.166 -58 38.499s-49.5 14 -79.5 14h-59v39h55c20.667 0 39.167 4 55.5 12s30.166 18.5 41.499 31.5s20.166 27.333 26.499 43s9.5 31.5 9.5 47.5
c0 39.333 -13.833 71 -41.5 95s-64.834 36 -111.501 36c-44.667 0 -81.167 -13.833 -109.5 -41.5s-42.5 -67.5 -42.5 -119.5v-537h-40v536c0 29.333 4.33301 56.333 13 81s21.167 45.834 37.5 63.501s36.5 31.5 60.5 41.5s51 15 81 15s57 -4.33301 81 -13
s44.167 -20.5 60.5 -35.5s29 -32.833 38 -53.5s13.5 -42.667 13.5 -66c0 -33.333 -8.5 -63.166 -25.5 -89.499s-39.167 -46.166 -66.5 -59.499v-2c26 -8.66699 48.333 -20 67 -34s34 -29.833 46 -47.5s20.833 -36.834 26.5 -57.501s8.5 -42 8.5 -64z" />
    <glyph glyph-name="agrave" unicode="&#xe0;" horiz-adv-x="538" 
d="M266 505c-35.333 0 -69.501 -5.16895 -102.501 -15.502s-63.167 -22.833 -90.5 -37.5l21 -37c25.333 15.333 52.833 27.833 82.5 37.5s59.5 14.5 89.5 14.5c54 0 93.167 -13.333 117.5 -40s36.5 -63 36.5 -109v-17c-28.667 4.66699 -55.834 8.33398 -81.501 11.001
s-52.5 4 -80.5 4c-63.333 0 -112.5 -14.333 -147.5 -43s-52.5 -69 -52.5 -121c0 -24.667 4.33301 -47.167 13 -67.5s20.834 -37.666 36.501 -51.999s34.5 -25.5 56.5 -33.5s46.333 -12 73 -12c42.667 0 79.834 9.5 111.501 28.5s56.167 44.5 73.5 76.5h2l2 -92h34v315
c0 59.333 -15.5 105.833 -46.5 139.5s-80.167 50.5 -147.5 50.5zM242.999 24.998c-19.333 0 -37.668 2.66992 -55.001 8.00293s-32.666 13.333 -45.999 24s-24 24 -32 40s-12 34.333 -12 55c0 23.333 4.66699 43.166 14 59.499s21.833 29.5 37.5 39.5
s33.334 17.167 53.001 21.5s39.834 6.5 60.501 6.5c51.333 0 103.666 -5.66699 156.999 -17v-60c0 -26 -4.5 -49.833 -13.5 -71.5s-21.333 -40.334 -37 -56.001s-34.334 -27.834 -56.001 -36.501s-45.167 -13 -70.5 -13zM277.997 570.001l-123 130l36 24l113 -136z" />
    <glyph glyph-name="aacute" unicode="&#xe1;" horiz-adv-x="538" 
d="M243 25c25.333 0 48.835 4.33008 70.502 12.9971s40.334 20.834 56.001 36.501s28 34.334 37 56.001s13.5 45.5 13.5 71.5v60c-53.333 11.333 -105.666 17 -156.999 17c-20.667 0 -40.834 -2.16699 -60.501 -6.5s-37.334 -11.5 -53.001 -21.5
s-28.167 -23.167 -37.5 -39.5s-14 -36.166 -14 -59.499c0 -20.667 4 -39 12 -55s18.667 -29.333 32 -40s28.666 -18.667 45.999 -24s35.666 -8 54.999 -8zM266.002 504.997c67.333 0 116.501 -16.8311 147.501 -50.498s46.5 -80.167 46.5 -139.5v-315h-34l-2 92h-2
c-17.333 -32 -41.833 -57.5 -73.5 -76.5s-68.834 -28.5 -111.501 -28.5c-26.667 0 -51 4 -73 12s-40.833 19.167 -56.5 33.5s-27.834 31.666 -36.501 51.999s-13 42.833 -13 67.5c0 52 17.5 92.333 52.5 121s84.167 43 147.5 43c28 0 54.833 -1.33301 80.5 -4
s52.834 -6.33398 81.501 -11.001v17c0 46 -12.167 82.333 -36.5 109s-63.5 40 -117.5 40c-30 0 -59.833 -4.83301 -89.5 -14.5s-57.167 -22.167 -82.5 -37.5l-21 37c27.333 14.667 57.5 27.167 90.5 37.5s67.167 15.5 102.5 15.5zM228.003 587.999l114 136l35 -24l-123 -130
z" />
    <glyph glyph-name="acircumflex" unicode="&#xe2;" horiz-adv-x="538" 
d="M243 25c25.333 0 48.835 4.33008 70.502 12.9971s40.334 20.834 56.001 36.501s28 34.334 37 56.001s13.5 45.5 13.5 71.5v60c-53.333 11.333 -105.666 17 -156.999 17c-20.667 0 -40.834 -2.16699 -60.501 -6.5s-37.334 -11.5 -53.001 -21.5
s-28.167 -23.167 -37.5 -39.5s-14 -36.166 -14 -59.499c0 -20.667 4 -39 12 -55s18.667 -29.333 32 -40s28.666 -18.667 45.999 -24s35.666 -8 54.999 -8zM266.002 504.997c67.333 0 116.501 -16.8311 147.501 -50.498s46.5 -80.167 46.5 -139.5v-315h-34l-2 92h-2
c-17.333 -32 -41.833 -57.5 -73.5 -76.5s-68.834 -28.5 -111.501 -28.5c-26.667 0 -51 4 -73 12s-40.833 19.167 -56.5 33.5s-27.834 31.666 -36.501 51.999s-13 42.833 -13 67.5c0 52 17.5 92.333 52.5 121s84.167 43 147.5 43c28 0 54.833 -1.33301 80.5 -4
s52.834 -6.33398 81.501 -11.001v17c0 46 -12.167 82.333 -36.5 109s-63.5 40 -117.5 40c-30 0 -59.833 -4.83301 -89.5 -14.5s-57.167 -22.167 -82.5 -37.5l-21 37c27.333 14.667 57.5 27.167 90.5 37.5s67.167 15.5 102.5 15.5zM270.003 664.999l-99 -108l-25 18l101 122
h46l101 -122l-25 -18z" />
    <glyph glyph-name="atilde" unicode="&#xe3;" horiz-adv-x="538" 
d="M243 25c25.333 0 48.835 4.33008 70.502 12.9971s40.334 20.834 56.001 36.501s28 34.334 37 56.001s13.5 45.5 13.5 71.5v60c-53.333 11.333 -105.666 17 -156.999 17c-20.667 0 -40.834 -2.16699 -60.501 -6.5s-37.334 -11.5 -53.001 -21.5
s-28.167 -23.167 -37.5 -39.5s-14 -36.166 -14 -59.499c0 -20.667 4 -39 12 -55s18.667 -29.333 32 -40s28.666 -18.667 45.999 -24s35.666 -8 54.999 -8zM266.002 504.997c67.333 0 116.501 -16.8311 147.501 -50.498s46.5 -80.167 46.5 -139.5v-315h-34l-2 92h-2
c-17.333 -32 -41.833 -57.5 -73.5 -76.5s-68.834 -28.5 -111.501 -28.5c-26.667 0 -51 4 -73 12s-40.833 19.167 -56.5 33.5s-27.834 31.666 -36.501 51.999s-13 42.833 -13 67.5c0 52 17.5 92.333 52.5 121s84.167 43 147.5 43c28 0 54.833 -1.33301 80.5 -4
s52.834 -6.33398 81.501 -11.001v17c0 46 -12.167 82.333 -36.5 109s-63.5 40 -117.5 40c-30 0 -59.833 -4.83301 -89.5 -14.5s-57.167 -22.167 -82.5 -37.5l-21 37c27.333 14.667 57.5 27.167 90.5 37.5s67.167 15.5 102.5 15.5zM341.003 568.999
c-14.667 0 -27.832 2.16797 -39.499 6.50098s-22.834 9.16602 -33.501 14.499s-21.167 10.166 -31.5 14.499s-21.5 6.5 -33.5 6.5c-11.333 0 -21.833 -4.33301 -31.5 -13s-17.5 -18.334 -23.5 -29.001l-27 16c8 16.667 19.167 31.167 33.5 43.5s30.166 18.5 47.499 18.5
c14 0 26.833 -2.16699 38.5 -6.5s22.834 -9.16602 33.501 -14.499s21.334 -10.166 32.001 -14.499s22 -6.5 34 -6.5c11.333 0 21.666 3.66699 30.999 11s17 17.333 23 30l27 -16c-8 -18.667 -19 -33.5 -33 -44.5s-29.667 -16.5 -47 -16.5z" />
    <glyph glyph-name="adieresis" unicode="&#xe4;" horiz-adv-x="538" 
d="M243 25c25.333 0 48.835 4.33008 70.502 12.9971s40.334 20.834 56.001 36.501s28 34.334 37 56.001s13.5 45.5 13.5 71.5v60c-53.333 11.333 -105.666 17 -156.999 17c-20.667 0 -40.834 -2.16699 -60.501 -6.5s-37.334 -11.5 -53.001 -21.5
s-28.167 -23.167 -37.5 -39.5s-14 -36.166 -14 -59.499c0 -20.667 4 -39 12 -55s18.667 -29.333 32 -40s28.666 -18.667 45.999 -24s35.666 -8 54.999 -8zM266.002 504.997c67.333 0 116.501 -16.8311 147.501 -50.498s46.5 -80.167 46.5 -139.5v-315h-34l-2 92h-2
c-17.333 -32 -41.833 -57.5 -73.5 -76.5s-68.834 -28.5 -111.501 -28.5c-26.667 0 -51 4 -73 12s-40.833 19.167 -56.5 33.5s-27.834 31.666 -36.501 51.999s-13 42.833 -13 67.5c0 52 17.5 92.333 52.5 121s84.167 43 147.5 43c28 0 54.833 -1.33301 80.5 -4
s52.834 -6.33398 81.501 -11.001v17c0 46 -12.167 82.333 -36.5 109s-63.5 40 -117.5 40c-30 0 -59.833 -4.83301 -89.5 -14.5s-57.167 -22.167 -82.5 -37.5l-21 37c27.333 14.667 57.5 27.167 90.5 37.5s67.167 15.5 102.5 15.5zM162.003 638.999
c0 9.33301 2.83301 17.166 8.5 23.499s13.167 9.5 22.5 9.5s16.833 -3.16699 22.5 -9.5s8.5 -14.166 8.5 -23.499s-2.83301 -17.166 -8.5 -23.499s-13.167 -9.5 -22.5 -9.5s-16.833 3.16699 -22.5 9.5s-8.5 14.166 -8.5 23.499zM313.003 638.999
c0 9.33301 2.83301 17.166 8.5 23.499s13.167 9.5 22.5 9.5s16.833 -3.16699 22.5 -9.5s8.5 -14.166 8.5 -23.499s-2.83301 -17.166 -8.5 -23.499s-13.167 -9.5 -22.5 -9.5s-16.833 3.16699 -22.5 9.5s-8.5 14.166 -8.5 23.499z" />
    <glyph glyph-name="aring" unicode="&#xe5;" horiz-adv-x="538" 
d="M243 25c25.333 0 48.835 4.33008 70.502 12.9971s40.334 20.834 56.001 36.501s28 34.334 37 56.001s13.5 45.5 13.5 71.5v60c-53.333 11.333 -105.666 17 -156.999 17c-20.667 0 -40.834 -2.16699 -60.501 -6.5s-37.334 -11.5 -53.001 -21.5
s-28.167 -23.167 -37.5 -39.5s-14 -36.166 -14 -59.499c0 -20.667 4 -39 12 -55s18.667 -29.333 32 -40s28.666 -18.667 45.999 -24s35.666 -8 54.999 -8zM266.002 504.997c67.333 0 116.501 -16.8311 147.501 -50.498s46.5 -80.167 46.5 -139.5v-315h-34l-2 92h-2
c-17.333 -32 -41.833 -57.5 -73.5 -76.5s-68.834 -28.5 -111.501 -28.5c-26.667 0 -51 4 -73 12s-40.833 19.167 -56.5 33.5s-27.834 31.666 -36.501 51.999s-13 42.833 -13 67.5c0 52 17.5 92.333 52.5 121s84.167 43 147.5 43c28 0 54.833 -1.33301 80.5 -4
s52.834 -6.33398 81.501 -11.001v17c0 46 -12.167 82.333 -36.5 109s-63.5 40 -117.5 40c-30 0 -59.833 -4.83301 -89.5 -14.5s-57.167 -22.167 -82.5 -37.5l-21 37c27.333 14.667 57.5 27.167 90.5 37.5s67.167 15.5 102.5 15.5zM271.003 770.999
c30.667 0 56.5 -9.83301 77.5 -29.5s31.5 -45.167 31.5 -76.5c0 -30.667 -10.333 -55.834 -31 -75.501s-46.667 -29.5 -78 -29.5s-57.333 9.83301 -78 29.5s-31 44.834 -31 75.501c0 31.333 10.333 56.833 31 76.5s46.667 29.5 78 29.5zM271.003 587.999
c23.333 0 42.333 7.5 57 22.5s22 33.5 22 55.5s-7.33301 40.167 -22 54.5s-33.667 21.5 -57 21.5c-22.667 0 -41.5 -7.16699 -56.5 -21.5s-22.5 -32.5 -22.5 -54.5s7.33301 -40.5 22 -55.5s33.667 -22.5 57 -22.5z" />
    <glyph glyph-name="ae" unicode="&#xe6;" horiz-adv-x="935" 
d="M243 25c25.333 0 48.8359 4.33105 70.5029 12.998s40.334 20.834 56.001 36.501s28 34.334 37 56.001s13.5 45.5 13.5 71.5v60c-26 5.33301 -52.167 9.66602 -78.5 12.999s-52.5 5 -78.5 5c-20.667 0 -40.834 -2.33301 -60.501 -7s-37.334 -12 -53.001 -22
s-28.167 -23.167 -37.5 -39.5s-14 -36.166 -14 -59.499c0 -20.667 4 -39 12 -55s18.667 -29.333 32 -40s28.666 -18.667 45.999 -24s35.666 -8 54.999 -8zM652.003 464.998c-28.667 0 -54.335 -5 -77.002 -15s-42.167 -23.667 -58.5 -41s-29.166 -37.666 -38.499 -60.999
s-15 -48.666 -17 -75.999h373c-1.33301 27.333 -6.16602 52.666 -14.499 75.999s-20 43.666 -35 60.999s-33.667 31 -56 41s-47.833 15 -76.5 15zM875.002 272.998c0 -7.33301 -0.169922 -14.1738 -0.50293 -20.5068s-0.833008 -12.833 -1.5 -19.5h-413
c1.33301 -29.333 6.83301 -56.5 16.5 -81.5s23.167 -46.833 40.5 -65.5s38.166 -33.167 62.499 -43.5s51.5 -15.5 81.5 -15.5c32 0 62.167 7 90.5 21s52.833 32.667 73.5 56l29 -28c-25.333 -29.333 -55.166 -51.5 -89.499 -66.5s-70.5 -22.5 -108.5 -22.5
c-46 0 -87.5 11.833 -124.5 35.5s-65.167 56.167 -84.5 97.5h-2c-8.66699 -21.333 -20.167 -40.166 -34.5 -56.499s-30.666 -30.166 -48.999 -41.499s-38.166 -20 -59.499 -26s-43 -9 -65 -9c-25.333 0 -48.833 3.66699 -70.5 11s-40.5 18 -56.5 32s-28.667 31.333 -38 52
s-14 44 -14 70c0 29.333 5.5 54.5 16.5 75.5s25.667 38.167 44 51.5s39.5 23 63.5 29s49.333 9 76 9c27.333 0 54.333 -1.5 81 -4.5s53.667 -6.83301 81 -11.5v17c0 50.667 -13.667 88.167 -41 112.5s-65.666 36.5 -114.999 36.5c-30 0 -59.333 -5.16699 -88 -15.5
s-55.667 -23.166 -81 -38.499l-22 39c29.333 15.333 59.833 28 91.5 38s64.5 15 98.5 15c22 0 42.833 -2.16699 62.5 -6.5s37.667 -11.166 54 -20.499s30.666 -21.666 42.999 -36.999s21.5 -34.333 27.5 -57h2c20 38 47.333 67.5 82 88.5s73.667 31.5 117 31.5
c34 0 64.833 -5.83301 92.5 -17.5s51.334 -27.667 71.001 -48s34.667 -44.666 45 -72.999s15.5 -59.166 15.5 -92.499z" />
    <glyph glyph-name="ccedilla" unicode="&#xe7;" horiz-adv-x="545" 
d="M304 -52l12.0029 0.00390625c11.333 0 22.833 -1.16699 34.5 -3.5s22.167 -6.33301 31.5 -12s17 -13 23 -22s9 -20.167 9 -33.5s-2.66699 -24.833 -8 -34.5s-12.5 -17.667 -21.5 -24s-19.167 -11 -30.5 -14s-23 -4.5 -35 -4.5c-18 0 -35.833 2.66699 -53.5 8
s-34.5 12.666 -50.5 21.999l13 22c27.333 -16.667 56.666 -25 87.999 -25c16 0 30 4 42 12s18 20.667 18 38s-6.83301 29.666 -20.5 36.999s-28.167 11 -43.5 11c-14 0 -27 -2 -39 -6l-23 13l31 55v2c-34 2.66699 -64.667 11.5 -92 26.5s-50.666 34 -69.999 57
s-34.333 49.333 -45 79s-16 61.167 -16 94.5c0 35.333 6 68.666 18 99.999s28.833 58.666 50.5 81.999s47.667 41.833 78 55.5s63.5 20.5 99.5 20.5c36.667 0 71.167 -7.33301 103.5 -22s60.166 -36 83.499 -64l-30 -27c-19.333 24 -42.5 42.333 -69.5 55
s-56.167 19 -87.5 19s-59.666 -5.66699 -84.999 -17s-47 -27 -65 -47s-31.833 -43.333 -41.5 -70s-14.5 -55 -14.5 -85s4.83301 -58.333 14.5 -85s23.5 -50 41.5 -70s39.667 -35.667 65 -47s53.666 -17 84.999 -17c32 0 61.667 6.33301 89 19s50.666 31.667 69.999 57
l29 -27c-22 -27.333 -48.167 -48.5 -78.5 -63.5s-62.833 -23.167 -97.5 -24.5l-22 -39v-2c3.33301 0.666992 6.66602 1 9.99902 1z" />
    <glyph glyph-name="egrave" unicode="&#xe8;" horiz-adv-x="573" 
d="M512 273c0 30.667 -4.00098 58.667 -12.001 84c-10 30.667 -25 56.834 -45 78.501s-44.167 38.5 -72.5 50.5s-59.5 18 -93.5 18c-32.667 0 -63.167 -6.16699 -91.5 -18.5s-52.833 -29.833 -73.5 -52.5s-36.834 -49.834 -48.501 -81.501s-17.5 -66.834 -17.5 -105.501
s6.16699 -74 18.5 -106s29.166 -59.333 50.499 -82s46.333 -40.167 75 -52.5s59.334 -18.5 92.001 -18.5c42 0 79.833 8.33301 113.5 25s61.834 38 84.501 64l-28 28c-20 -22.667 -44.333 -41.167 -73 -55.5s-59 -21.5 -91 -21.5c-26.667 0 -51.834 4.5 -75.501 13.5
s-44.667 22.167 -63 39.5s-33.166 38.833 -44.499 64.5s-17.666 55.167 -18.999 88.5h413c0 2.66699 0.166992 5.33398 0.5 8.00098s0.5 5 0.5 7v7v18zM289.999 465c52.667 0 95.333 -16.833 128 -50.5s50.667 -81.167 54 -142.5h-373c5.33301 62 25.5 109.667 60.5 143
s78.5 50 130.5 50zM306.998 570l-123 130l36 24l113 -136z" />
    <glyph glyph-name="eacute" unicode="&#xe9;" horiz-adv-x="573" 
d="M241 588l114 136l35 -24l-123 -130zM290 465c-52 0 -95.499 -16.667 -130.499 -50s-55.167 -81 -60.5 -143h373c-3.33301 61.333 -21.333 108.833 -54 142.5s-75.334 50.5 -128.001 50.5zM512.001 248c0 -2 -0.166016 -4.33301 -0.499023 -7s-0.5 -5.33398 -0.5 -8.00098
h-413c1.33301 -33.333 7.66602 -62.833 18.999 -88.5s26.166 -47.167 44.499 -64.5s39.333 -30.5 63 -39.5s48.834 -13.5 75.501 -13.5c32 0 62.333 7.16699 91 21.5s53 32.833 73 55.5l28 -28c-22.667 -26 -50.834 -47.333 -84.501 -64s-71.5 -25 -113.5 -25
c-32.667 0 -63.334 6.16699 -92.001 18.5s-53.667 29.833 -75 52.5s-38.166 50 -50.499 82s-18.5 67.333 -18.5 106s5.83301 73.834 17.5 105.501s27.834 58.834 48.501 81.501s45.167 40.167 73.5 52.5s58.833 18.5 91.5 18.5c34 0 65.167 -6 93.5 -18
s52.5 -28.833 72.5 -50.5s35 -47.834 45 -78.501c8 -25.333 12 -53.333 12 -84v-18v-7z" />
    <glyph glyph-name="ecircumflex" unicode="&#xea;" horiz-adv-x="573" 
d="M290 665l-99 -108l-25 18l101 122h46l101 -122l-25 -18zM290 465c-52 0 -95.499 -16.667 -130.499 -50s-55.167 -81 -60.5 -143h373c-3.33301 61.333 -21.333 108.833 -54 142.5s-75.334 50.5 -128.001 50.5zM512.001 248c0 -2 -0.166016 -4.33301 -0.499023 -7
s-0.5 -5.33398 -0.5 -8.00098h-413c1.33301 -33.333 7.66602 -62.833 18.999 -88.5s26.166 -47.167 44.499 -64.5s39.333 -30.5 63 -39.5s48.834 -13.5 75.501 -13.5c32 0 62.333 7.16699 91 21.5s53 32.833 73 55.5l28 -28c-22.667 -26 -50.834 -47.333 -84.501 -64
s-71.5 -25 -113.5 -25c-32.667 0 -63.334 6.16699 -92.001 18.5s-53.667 29.833 -75 52.5s-38.166 50 -50.499 82s-18.5 67.333 -18.5 106s5.83301 73.834 17.5 105.501s27.834 58.834 48.501 81.501s45.167 40.167 73.5 52.5s58.833 18.5 91.5 18.5
c34 0 65.167 -6 93.5 -18s52.5 -28.833 72.5 -50.5s35 -47.834 45 -78.501c8 -25.333 12 -53.333 12 -84v-18v-7z" />
    <glyph glyph-name="edieresis" unicode="&#xeb;" horiz-adv-x="573" 
d="M180 639c0 9.33301 2.83301 17.166 8.5 23.499s13.167 9.5 22.5 9.5s16.833 -3.16699 22.5 -9.5s8.5 -14.166 8.5 -23.499s-2.83301 -17.166 -8.5 -23.499s-13.167 -9.5 -22.5 -9.5s-16.833 3.16699 -22.5 9.5s-8.5 14.166 -8.5 23.499zM331 639
c0 9.33301 2.83301 17.166 8.5 23.499s13.167 9.5 22.5 9.5s16.833 -3.16699 22.5 -9.5s8.5 -14.166 8.5 -23.499s-2.83301 -17.166 -8.5 -23.499s-13.167 -9.5 -22.5 -9.5s-16.833 3.16699 -22.5 9.5s-8.5 14.166 -8.5 23.499zM290 465c-52 0 -95.499 -16.667 -130.499 -50
s-55.167 -81 -60.5 -143h373c-3.33301 61.333 -21.333 108.833 -54 142.5s-75.334 50.5 -128.001 50.5zM512.001 248c0 -2 -0.166016 -4.33301 -0.499023 -7s-0.5 -5.33398 -0.5 -8.00098h-413c1.33301 -33.333 7.66602 -62.833 18.999 -88.5s26.166 -47.167 44.499 -64.5
s39.333 -30.5 63 -39.5s48.834 -13.5 75.501 -13.5c32 0 62.333 7.16699 91 21.5s53 32.833 73 55.5l28 -28c-22.667 -26 -50.834 -47.333 -84.501 -64s-71.5 -25 -113.5 -25c-32.667 0 -63.334 6.16699 -92.001 18.5s-53.667 29.833 -75 52.5s-38.166 50 -50.499 82
s-18.5 67.333 -18.5 106s5.83301 73.834 17.5 105.501s27.834 58.834 48.501 81.501s45.167 40.167 73.5 52.5s58.833 18.5 91.5 18.5c34 0 65.167 -6 93.5 -18s52.5 -28.833 72.5 -50.5s35 -47.834 45 -78.501c8 -25.333 12 -53.333 12 -84v-18v-7z" />
    <glyph glyph-name="igrave" unicode="&#xec;" horiz-adv-x="218" 
d="M89 0h40v492h-40v-492zM109 570l-123 130l35 24l114 -136z" />
    <glyph glyph-name="iacute" unicode="&#xed;" horiz-adv-x="218" 
d="M81 588l114 136l35 -24l-123 -130zM89 492h40v-492h-40v492z" />
    <glyph glyph-name="icircumflex" unicode="&#xee;" horiz-adv-x="218" 
d="M109 665l-99 -108l-25 18l101 122h46l101 -122l-25 -18zM89 492h40v-492h-40v492z" />
    <glyph glyph-name="idieresis" unicode="&#xef;" horiz-adv-x="218" 
d="M5 639c0 9.33301 2.83301 17.166 8.5 23.499s13.167 9.5 22.5 9.5s16.833 -3.16699 22.5 -9.5s8.5 -14.166 8.5 -23.499s-2.83301 -17.166 -8.5 -23.499s-13.167 -9.5 -22.5 -9.5s-16.833 3.16699 -22.5 9.5s-8.5 14.166 -8.5 23.499zM155 639
c0 9.33301 2.83301 17.166 8.5 23.499s13.167 9.5 22.5 9.5s16.833 -3.16699 22.5 -9.5s8.5 -14.166 8.5 -23.499s-2.83301 -17.166 -8.5 -23.499s-13.167 -9.5 -22.5 -9.5s-16.833 3.16699 -22.5 9.5s-8.5 14.166 -8.5 23.499zM89 492h40v-492h-40v492z" />
    <glyph glyph-name="eth" unicode="&#xf0;" horiz-adv-x="609" 
d="M304 27c31.333 0 59.666 5.66699 84.999 17s47 27 65 47s32 43.333 42 70s15 55 15 85s-5 58.333 -15 85s-24 50 -42 70s-39.667 35.667 -65 47s-53.666 17 -84.999 17s-59.666 -5.66699 -84.999 -17s-47 -27 -65 -47s-31.833 -43.333 -41.5 -70s-14.5 -55 -14.5 -85
s4.83301 -58.333 14.5 -85s23.5 -50 41.5 -70s39.667 -35.667 65 -47s53.666 -17 84.999 -17zM551 246c0 -35.333 -5.99902 -68.832 -17.999 -100.499s-28.833 -59.167 -50.5 -82.5s-47.667 -41.833 -78 -55.5s-63.833 -20.5 -100.5 -20.5c-36 0 -69.167 6.83301 -99.5 20.5
s-56.333 32.167 -78 55.5s-38.5 50.833 -50.5 82.5s-18 65.167 -18 100.5s6 68.666 18 99.999s28.833 58.666 50.5 81.999s47.667 41.833 78 55.5s63.5 20.5 99.5 20.5c29.333 0 57.666 -4.66699 84.999 -14s52 -23.666 74 -42.999h2c-28.667 55.333 -65 107 -109 155
l-163 -66l-12 30l150 61c-31.333 31.333 -63.333 59 -96 83l32 27c36.667 -28 71.667 -59 105 -93l95 38l12 -30l-84 -34c21.333 -25.333 41.5 -52.666 60.5 -81.999s35.5 -59.833 49.5 -91.5s25.167 -64.334 33.5 -98.001s12.5 -67.167 12.5 -100.5z" />
    <glyph glyph-name="ntilde" unicode="&#xf1;" horiz-adv-x="585" 
d="M370 569c-14.667 0 -27.832 2.16797 -39.499 6.50098s-22.834 9.16602 -33.501 14.499s-21.167 10.166 -31.5 14.499s-21.5 6.5 -33.5 6.5c-11.333 0 -21.833 -4.33301 -31.5 -13s-17.5 -18.334 -23.5 -29.001l-27 16c8 16.667 19.167 31.167 33.5 43.5
s30.166 18.5 47.499 18.5c14 0 26.833 -2.16699 38.5 -6.5s22.834 -9.16602 33.501 -14.499s21.334 -10.166 32.001 -14.499s22 -6.5 34 -6.5c11.333 0 21.666 3.66699 30.999 11s17 17.333 23 30l27 -16c-8 -18.667 -19 -33.5 -33 -44.5s-29.667 -16.5 -47 -16.5z
M320.002 504.001c56.667 0 102.001 -18 136.001 -54s51 -88.333 51 -157v-293h-40v258c0 72.667 -12.667 125.5 -38 158.5s-64.333 49.5 -117 49.5c-30 0 -56.5 -5.66699 -79.5 -17s-42.167 -26.5 -57.5 -45.5s-27 -40.667 -35 -65s-12 -49.5 -12 -75.5v-263h-40v492h34
l3 -98h2c19.333 34 45.666 60.833 78.999 80.5s71.333 29.5 114 29.5z" />
    <glyph glyph-name="ograve" unicode="&#xf2;" horiz-adv-x="609" 
d="M304 504c-34 0 -66 -6.33301 -96 -19s-56.167 -30.5 -78.5 -53.5s-39.833 -50.333 -52.5 -82s-19 -66.167 -19 -103.5s6.33301 -71.833 19 -103.5s30.167 -59 52.5 -82s48.5 -41 78.5 -54s62 -19.5 96 -19.5c34.667 0 67 6.5 97 19.5s56.167 31 78.5 54
s39.833 50.333 52.5 82s19 66.167 19 103.5s-6.33301 71.833 -19 103.5s-30.167 59 -52.5 82s-48.5 40.833 -78.5 53.5s-62.333 19 -97 19zM304 27c-28.667 0 -55.5 5.33301 -80.5 16s-46.833 25.5 -65.5 44.5s-33.334 42 -44.001 69s-16 56.833 -16 89.5
s5.33301 62.5 16 89.5s25.334 50 44.001 69s40.5 33.833 65.5 44.5s51.833 16 80.5 16s55.667 -5.33301 81 -16s47.333 -25.5 66 -44.5s33.334 -42 44.001 -69s16 -56.833 16 -89.5s-5.33301 -62.5 -16 -89.5s-25.334 -50 -44.001 -69s-40.667 -33.833 -66 -44.5
s-52.333 -16 -81 -16zM317 570l-123 130l36 24l113 -136z" />
    <glyph glyph-name="oacute" unicode="&#xf3;" horiz-adv-x="609" 
d="M304 27c-28.667 0 -55.5 5.33301 -80.5 16s-46.833 25.5 -65.5 44.5s-33.334 42 -44.001 69s-16 56.833 -16 89.5s5.33301 62.5 16 89.5s25.334 50 44.001 69s40.5 33.833 65.5 44.5s51.833 16 80.5 16s55.667 -5.33301 81 -16s47.333 -25.5 66 -44.5
s33.334 -42 44.001 -69s16 -56.833 16 -89.5s-5.33301 -62.5 -16 -89.5s-25.334 -50 -44.001 -69s-40.667 -33.833 -66 -44.5s-52.333 -16 -81 -16zM304 504c-34 0 -66 -6.33301 -96 -19s-56.167 -30.5 -78.5 -53.5s-39.833 -50.333 -52.5 -82s-19 -66.167 -19 -103.5
s6.33301 -71.833 19 -103.5s30.167 -59 52.5 -82s48.5 -41 78.5 -54s62 -19.5 96 -19.5c34.667 0 67 6.5 97 19.5s56.167 31 78.5 54s39.833 50.333 52.5 82s19 66.167 19 103.5s-6.33301 71.833 -19 103.5s-30.167 59 -52.5 82s-48.5 40.833 -78.5 53.5s-62.333 19 -97 19z
M266 588l114 136l35 -24l-123 -130z" />
    <glyph glyph-name="ocircumflex" unicode="&#xf4;" horiz-adv-x="609" 
d="M304 665l-99 -108l-25 18l101 122h46l101 -122l-25 -18zM304 27c28.667 0 55.667 5.33301 81 16s47.333 25.5 66 44.5s33.334 42 44.001 69s16 56.833 16 89.5s-5.33301 62.5 -16 89.5s-25.334 50 -44.001 69s-40.667 33.833 -66 44.5s-52.333 16 -81 16
s-55.5 -5.33301 -80.5 -16s-46.833 -25.5 -65.5 -44.5s-33.334 -42 -44.001 -69s-16 -56.833 -16 -89.5s5.33301 -62.5 16 -89.5s25.334 -50 44.001 -69s40.5 -33.833 65.5 -44.5s51.833 -16 80.5 -16zM304 504c34.667 0 67 -6.33301 97 -19s56.167 -30.5 78.5 -53.5
s39.833 -50.333 52.5 -82s19 -66.167 19 -103.5s-6.33301 -71.833 -19 -103.5s-30.167 -59 -52.5 -82s-48.5 -41 -78.5 -54s-62.333 -19.5 -97 -19.5c-34 0 -66 6.5 -96 19.5s-56.167 31 -78.5 54s-39.833 50.333 -52.5 82s-19 66.167 -19 103.5s6.33301 71.833 19 103.5
s30.167 59 52.5 82s48.5 40.833 78.5 53.5s62 19 96 19z" />
    <glyph glyph-name="otilde" unicode="&#xf5;" horiz-adv-x="609" 
d="M375 569c-14.667 0 -27.832 2.16797 -39.499 6.50098s-22.834 9.16602 -33.501 14.499s-21.167 10.166 -31.5 14.499s-21.5 6.5 -33.5 6.5c-11.333 0 -21.833 -4.33301 -31.5 -13s-17.5 -18.334 -23.5 -29.001l-27 16c8 16.667 19.167 31.167 33.5 43.5
s30.166 18.5 47.499 18.5c14 0 26.833 -2.16699 38.5 -6.5s22.834 -9.16602 33.501 -14.499s21.334 -10.166 32.001 -14.499s22 -6.5 34 -6.5c11.333 0 21.666 3.66699 30.999 11s17 17.333 23 30l27 -16c-8 -18.667 -19 -33.5 -33 -44.5s-29.667 -16.5 -47 -16.5z
M304.002 27.001c28.667 0 55.667 5.33301 81 16s47.333 25.5 66 44.5s33.334 42 44.001 69s16 56.833 16 89.5s-5.33301 62.5 -16 89.5s-25.334 50 -44.001 69s-40.667 33.833 -66 44.5s-52.333 16 -81 16s-55.5 -5.33301 -80.5 -16s-46.833 -25.5 -65.5 -44.5
s-33.334 -42 -44.001 -69s-16 -56.833 -16 -89.5s5.33301 -62.5 16 -89.5s25.334 -50 44.001 -69s40.5 -33.833 65.5 -44.5s51.833 -16 80.5 -16zM304.002 504.001c34.667 0 67 -6.33301 97 -19s56.167 -30.5 78.5 -53.5s39.833 -50.333 52.5 -82s19 -66.167 19 -103.5
s-6.33301 -71.833 -19 -103.5s-30.167 -59 -52.5 -82s-48.5 -41 -78.5 -54s-62.333 -19.5 -97 -19.5c-34 0 -66 6.5 -96 19.5s-56.167 31 -78.5 54s-39.833 50.333 -52.5 82s-19 66.167 -19 103.5s6.33301 71.833 19 103.5s30.167 59 52.5 82s48.5 40.833 78.5 53.5
s62 19 96 19z" />
    <glyph glyph-name="odieresis" unicode="&#xf6;" horiz-adv-x="609" 
d="M200 639c0 9.33301 2.83301 17.166 8.5 23.499s13.167 9.5 22.5 9.5s16.833 -3.16699 22.5 -9.5s8.5 -14.166 8.5 -23.499s-2.83301 -17.166 -8.5 -23.499s-13.167 -9.5 -22.5 -9.5s-16.833 3.16699 -22.5 9.5s-8.5 14.166 -8.5 23.499zM351 639
c0 9.33301 2.83301 17.166 8.5 23.499s13.167 9.5 22.5 9.5s16.833 -3.16699 22.5 -9.5s8.5 -14.166 8.5 -23.499s-2.83301 -17.166 -8.5 -23.499s-13.167 -9.5 -22.5 -9.5s-16.833 3.16699 -22.5 9.5s-8.5 14.166 -8.5 23.499zM304 27c28.667 0 55.667 5.33301 81 16
s47.333 25.5 66 44.5s33.334 42 44.001 69s16 56.833 16 89.5s-5.33301 62.5 -16 89.5s-25.334 50 -44.001 69s-40.667 33.833 -66 44.5s-52.333 16 -81 16s-55.5 -5.33301 -80.5 -16s-46.833 -25.5 -65.5 -44.5s-33.334 -42 -44.001 -69s-16 -56.833 -16 -89.5
s5.33301 -62.5 16 -89.5s25.334 -50 44.001 -69s40.5 -33.833 65.5 -44.5s51.833 -16 80.5 -16zM304 504c34.667 0 67 -6.33301 97 -19s56.167 -30.5 78.5 -53.5s39.833 -50.333 52.5 -82s19 -66.167 19 -103.5s-6.33301 -71.833 -19 -103.5s-30.167 -59 -52.5 -82
s-48.5 -41 -78.5 -54s-62.333 -19.5 -97 -19.5c-34 0 -66 6.5 -96 19.5s-56.167 31 -78.5 54s-39.833 50.333 -52.5 82s-19 66.167 -19 103.5s6.33301 71.833 19 103.5s30.167 59 52.5 82s48.5 40.833 78.5 53.5s62 19 96 19z" />
    <glyph glyph-name="divide" unicode="&#xf7;" 
d="M507 290h-428v-37h428v37zM325 450c0 -8 -2.66699 -15 -8 -21s-12.333 -9 -21 -9s-15.667 3 -21 9s-8 13 -8 21c0 8.66699 2.66699 15.834 8 21.501s12.333 8.5 21 8.5s15.667 -2.83301 21 -8.5s8 -12.834 8 -21.501zM325 93c0 8 -2.66699 15 -8 21s-12.333 9 -21 9
s-15.667 -3 -21 -9s-8 -13 -8 -21c0 -8.66699 2.66699 -16 8 -22s12.333 -9 21 -9s15.667 3 21 9s8 13.333 8 22z" />
    <glyph glyph-name="oslash" unicode="&#xf8;" horiz-adv-x="609" 
d="M304 27c28.667 0 55.665 5.33496 80.998 16.002s47.333 25.5 66 44.5s33.334 42 44.001 69s16 56.833 16 89.5c0 29.333 -4.16699 56.166 -12.5 80.499s-20.166 46.166 -35.499 65.499l-294 -315c37.333 -33.333 82.333 -50 135 -50zM97.998 246.002
c0 -29.333 4.16895 -56.168 12.502 -80.501s20.166 -46.166 35.499 -65.499l294 315c-18 16 -38.5 28.333 -61.5 37s-47.833 13 -74.5 13c-28.667 0 -55.5 -5.33301 -80.5 -16s-46.833 -25.5 -65.5 -44.5s-33.334 -42 -44.001 -69s-16 -56.833 -16 -89.5zM551 246
c0 -37.333 -6.33398 -71.834 -19.001 -103.501s-30.167 -59 -52.5 -82s-48.5 -41 -78.5 -54s-62.333 -19.5 -97 -19.5c-31.333 0 -60.666 5.33301 -87.999 16s-51.666 25.667 -72.999 45l-57 -61l-24 23l58 62c-19.333 22.667 -34.5 48.667 -45.5 78s-16.5 61.333 -16.5 96
c0 37.333 6.33301 71.833 19 103.5s30.167 59 52.5 82s48.5 40.833 78.5 53.5s62 19 96 19c32 0 61.667 -5.16699 89 -15.5s51.666 -25.166 72.999 -44.499l57 61l24 -23l-58 -62c19.333 -22.667 34.5 -48.667 45.5 -78s16.5 -61.333 16.5 -96z" />
    <glyph glyph-name="ugrave" unicode="&#xf9;" horiz-adv-x="585" 
d="M457 492l-0.00195312 -263c0 -26 -4 -51.167 -12 -75.5s-19.833 -46 -35.5 -65s-35 -34.333 -58 -46s-49.5 -17.5 -79.5 -17.5c-52.667 0 -91.5 16.667 -116.5 50s-37.5 86.333 -37.5 159v258h-40v-293c0 -68.667 16.833 -121 50.5 -157s78.834 -54 135.501 -54
c42.667 0 80.834 9.83301 114.501 29.5s60.167 46.5 79.5 80.5h2l2 -98h35v492h-40zM294.998 570l-123 130l36 24l113 -136z" />
    <glyph glyph-name="uacute" unicode="&#xfa;" horiz-adv-x="585" 
d="M254 588l114 136l35 -24l-123 -130zM497 492l0.00195312 -492h-35l-2 98h-2c-19.333 -34 -45.833 -60.833 -79.5 -80.5s-71.834 -29.5 -114.501 -29.5c-56.667 0 -101.834 18 -135.501 54s-50.5 88.333 -50.5 157v293h40v-258c0 -72.667 12.5 -125.667 37.5 -159
s63.833 -50 116.5 -50c30 0 56.5 5.83301 79.5 17.5s42.333 27 58 46s27.5 40.667 35.5 65s12 49.5 12 75.5v263h40z" />
    <glyph glyph-name="ucircumflex" unicode="&#xfb;" horiz-adv-x="585" 
d="M288 665l-99 -108l-25 18l101 122h46l101 -122l-25 -18zM497 492l0.00195312 -492h-35l-2 98h-2c-19.333 -34 -45.833 -60.833 -79.5 -80.5s-71.834 -29.5 -114.501 -29.5c-56.667 0 -101.834 18 -135.501 54s-50.5 88.333 -50.5 157v293h40v-258
c0 -72.667 12.5 -125.667 37.5 -159s63.833 -50 116.5 -50c30 0 56.5 5.83301 79.5 17.5s42.333 27 58 46s27.5 40.667 35.5 65s12 49.5 12 75.5v263h40z" />
    <glyph glyph-name="udieresis" unicode="&#xfc;" horiz-adv-x="585" 
d="M179 639c0 9.33301 2.83301 17.166 8.5 23.499s13.167 9.5 22.5 9.5s16.833 -3.16699 22.5 -9.5s8.5 -14.166 8.5 -23.499s-2.83301 -17.166 -8.5 -23.499s-13.167 -9.5 -22.5 -9.5s-16.833 3.16699 -22.5 9.5s-8.5 14.166 -8.5 23.499zM330 639
c0 9.33301 2.83301 17.166 8.5 23.499s13.167 9.5 22.5 9.5s16.833 -3.16699 22.5 -9.5s8.5 -14.166 8.5 -23.499s-2.83301 -17.166 -8.5 -23.499s-13.167 -9.5 -22.5 -9.5s-16.833 3.16699 -22.5 9.5s-8.5 14.166 -8.5 23.499zM497 492l0.00195312 -492h-35l-2 98h-2
c-19.333 -34 -45.833 -60.833 -79.5 -80.5s-71.834 -29.5 -114.501 -29.5c-56.667 0 -101.834 18 -135.501 54s-50.5 88.333 -50.5 157v293h40v-258c0 -72.667 12.5 -125.667 37.5 -159s63.833 -50 116.5 -50c30 0 56.5 5.83301 79.5 17.5s42.333 27 58 46
s27.5 40.667 35.5 65s12 49.5 12 75.5v263h40z" />
    <glyph glyph-name="yacute" unicode="&#xfd;" horiz-adv-x="538" 
d="M239 588l114 136l35 -24l-123 -130zM182 -200c-12.667 0 -24.332 1.16699 -34.999 3.5s-20.667 4.83301 -30 7.5l7 38c9.33301 -3.33301 19 -5.83301 29 -7.5s19.667 -2.5 29 -2.5c21.333 0 38.666 9.5 51.999 28.5s25.666 44.5 36.999 76.5l16 47l-259 501h46l230 -450
h2l160 450h44l-208 -574c-16 -44.667 -33.167 -75.5 -51.5 -92.5s-41.166 -25.5 -68.499 -25.5z" />
    <glyph glyph-name="thorn" unicode="&#xfe;" horiz-adv-x="638" 
d="M334 26c28.667 0 55.5 5.33301 80.5 16s46.833 25.667 65.5 45s33.334 42.5 44.001 69.5s16 56.833 16 89.5s-5.33301 62.5 -16 89.5s-25.334 50 -44.001 69s-40.5 33.833 -65.5 44.5s-51.833 16 -80.5 16s-55.667 -5.33301 -81 -16s-47.333 -25.5 -66 -44.5
s-33.334 -42 -44.001 -69s-16 -56.833 -16 -89.5s5.33301 -62.5 16 -89.5s25.334 -50.167 44.001 -69.5s40.667 -34.333 66 -45s52.333 -16 81 -16zM336 504c34 0 65.833 -6.33301 95.5 -19s55.5 -30.5 77.5 -53.5s39.333 -50.333 52 -82s19 -66.167 19 -103.5
s-6.33301 -71.833 -19 -103.5s-30 -59 -52 -82s-47.833 -41 -77.5 -54s-61.5 -19.5 -95.5 -19.5c-44 0 -84 10.5 -120 31.5s-64.667 49.5 -86 85.5h-2v-304h-40v925h40v-337h2c21.333 36 50 64.333 86 85s76 31 120 31z" />
    <glyph glyph-name="ydieresis" unicode="&#xff;" horiz-adv-x="538" 
d="M166 639c0 9.33301 2.83301 17.166 8.5 23.499s13.167 9.5 22.5 9.5s16.833 -3.16699 22.5 -9.5s8.5 -14.166 8.5 -23.499s-2.83301 -17.166 -8.5 -23.499s-13.167 -9.5 -22.5 -9.5s-16.833 3.16699 -22.5 9.5s-8.5 14.166 -8.5 23.499zM317 639
c0 9.33301 2.83301 17.166 8.5 23.499s13.167 9.5 22.5 9.5s16.833 -3.16699 22.5 -9.5s8.5 -14.166 8.5 -23.499s-2.83301 -17.166 -8.5 -23.499s-13.167 -9.5 -22.5 -9.5s-16.833 3.16699 -22.5 9.5s-8.5 14.166 -8.5 23.499zM182 -200
c-12.667 0 -24.332 1.16699 -34.999 3.5s-20.667 4.83301 -30 7.5l7 38c9.33301 -3.33301 19 -5.83301 29 -7.5s19.667 -2.5 29 -2.5c21.333 0 38.666 9.5 51.999 28.5s25.666 44.5 36.999 76.5l16 47l-259 501h46l230 -450h2l160 450h44l-208 -574
c-16 -44.667 -33.167 -75.5 -51.5 -92.5s-41.166 -25.5 -68.499 -25.5z" />
    <glyph glyph-name="Amacron" unicode="&#x100;" horiz-adv-x="695" 
d="M626 0h46l-303 682h-43l-303 -682h47l87 201h381zM175 241l172 392h2l171 -392h-345zM218 828h258v-37h-258v37z" />
    <glyph glyph-name="amacron" unicode="&#x101;" horiz-adv-x="538" 
d="M266 505c-35.333 0 -69.501 -5.16895 -102.501 -15.502s-63.167 -22.833 -90.5 -37.5l21 -37c25.333 15.333 52.833 27.833 82.5 37.5s59.5 14.5 89.5 14.5c54 0 93.167 -13.333 117.5 -40s36.5 -63 36.5 -109v-17c-28.667 4.66699 -55.834 8.33398 -81.501 11.001
s-52.5 4 -80.5 4c-63.333 0 -112.5 -14.333 -147.5 -43s-52.5 -69 -52.5 -121c0 -24.667 4.33301 -47.167 13 -67.5s20.834 -37.666 36.501 -51.999s34.5 -25.5 56.5 -33.5s46.333 -12 73 -12c42.667 0 79.834 9.5 111.501 28.5s56.167 44.5 73.5 76.5h2l2 -92h34v315
c0 59.333 -15.5 105.833 -46.5 139.5s-80.167 50.5 -147.5 50.5zM242.999 24.998c-19.333 0 -37.668 2.66992 -55.001 8.00293s-32.666 13.333 -45.999 24s-24 24 -32 40s-12 34.333 -12 55c0 23.333 4.66699 43.166 14 59.499s21.833 29.5 37.5 39.5
s33.334 17.167 53.001 21.5s39.834 6.5 60.501 6.5c51.333 0 103.666 -5.66699 156.999 -17v-60c0 -26 -4.5 -49.833 -13.5 -71.5s-21.333 -40.334 -37 -56.001s-34.334 -27.834 -56.001 -36.501s-45.167 -13 -70.5 -13zM137.997 638.001h258v-37h-258v37z" />
    <glyph glyph-name="Abreve" unicode="&#x102;" horiz-adv-x="695" 
d="M348 763c-29.333 0 -56 8.5 -80 25.5s-40.333 39.833 -49 68.5l30 12c7.33301 -22 19.5 -39.333 36.5 -52s37.833 -19 62.5 -19s45.5 6.33301 62.5 19s29.167 30 36.5 52l30 -12c-8.66699 -28.667 -25 -51.5 -49 -68.5s-50.667 -25.5 -80 -25.5zM520 241l-171 392h-2
l-172 -392h345zM538 201h-381l-87 -201h-47l303 682h43l303 -682h-46z" />
    <glyph glyph-name="abreve" unicode="&#x103;" horiz-adv-x="538" 
d="M243 25c25.333 0 48.835 4.33008 70.502 12.9971s40.334 20.834 56.001 36.501s28 34.334 37 56.001s13.5 45.5 13.5 71.5v60c-53.333 11.333 -105.666 17 -156.999 17c-20.667 0 -40.834 -2.16699 -60.501 -6.5s-37.334 -11.5 -53.001 -21.5
s-28.167 -23.167 -37.5 -39.5s-14 -36.166 -14 -59.499c0 -20.667 4 -39 12 -55s18.667 -29.333 32 -40s28.666 -18.667 45.999 -24s35.666 -8 54.999 -8zM266.002 504.997c67.333 0 116.501 -16.8311 147.501 -50.498s46.5 -80.167 46.5 -139.5v-315h-34l-2 92h-2
c-17.333 -32 -41.833 -57.5 -73.5 -76.5s-68.834 -28.5 -111.501 -28.5c-26.667 0 -51 4 -73 12s-40.833 19.167 -56.5 33.5s-27.834 31.666 -36.501 51.999s-13 42.833 -13 67.5c0 52 17.5 92.333 52.5 121s84.167 43 147.5 43c28 0 54.833 -1.33301 80.5 -4
s52.834 -6.33398 81.501 -11.001v17c0 46 -12.167 82.333 -36.5 109s-63.5 40 -117.5 40c-30 0 -59.833 -4.83301 -89.5 -14.5s-57.167 -22.167 -82.5 -37.5l-21 37c27.333 14.667 57.5 27.167 90.5 37.5s67.167 15.5 102.5 15.5zM267.003 572.999
c-29.333 0 -56 8.5 -80 25.5s-40.333 39.833 -49 68.5l30 12c7.33301 -22 19.5 -39.333 36.5 -52s37.833 -19 62.5 -19s45.5 6.33301 62.5 19s29.167 30 36.5 52l30 -12c-8.66699 -28.667 -25 -51.5 -49 -68.5s-50.667 -25.5 -80 -25.5z" />
    <glyph glyph-name="Aogonek" unicode="&#x104;" horiz-adv-x="695" 
d="M520 241l-171 392h-2l-172 -392h345zM616 -200c-22 0 -40.501 6.33398 -55.501 19.001s-22.5 30.667 -22.5 54c0 12.667 2.83301 25 8.5 37s12.834 23.5 21.501 34.5s18 21.167 28 30.5s19.667 17.666 29 24.999l-87 201h-381l-87 -201h-47l303 682h43l303 -682
c-9.33301 -6.66699 -19.5 -14.5 -30.5 -23.5s-21.167 -18.667 -30.5 -29s-17.333 -21.5 -24 -33.5s-10 -24 -10 -36c0 -15.333 4.5 -27.5 13.5 -36.5s21.167 -13.5 36.5 -13.5c9.33301 0 18.5 1.5 27.5 4.5s17.5 6.83301 25.5 11.5l11 -22
c-10.667 -6.66699 -22.667 -12 -36 -16s-26.333 -6 -39 -6z" />
    <glyph glyph-name="aogonek" unicode="&#x105;" horiz-adv-x="538" 
d="M243 26c25.333 0 48.835 4.33301 70.502 13s40.334 20.834 56.001 36.501s28 34.167 37 55.5s13.5 45 13.5 71v60c-53.333 11.333 -105.666 17 -156.999 17c-20.667 0 -40.834 -2.16699 -60.501 -6.5s-37.334 -11.5 -53.001 -21.5s-28.167 -23.167 -37.5 -39.5
s-14 -36.166 -14 -59.499c0 -20.667 4 -38.834 12 -54.501s18.667 -28.834 32 -39.501s28.666 -18.667 45.999 -24s35.666 -8 54.999 -8zM416.002 -200c-22 0 -40.499 6.33398 -55.499 19.001s-22.5 30.667 -22.5 54c0 12.667 2.83301 25 8.5 37s13 23.5 22 34.5
s18.5 21.167 28.5 30.5s19.667 17.666 29 24.999l-2 92h-2c-19.333 -34.667 -45.333 -60.667 -78 -78s-68.334 -26 -107.001 -26c-25.333 0 -48.833 3.66699 -70.5 11s-40.5 18 -56.5 32s-28.667 31.167 -38 51.5s-14 43.5 -14 69.5c0 29.333 5.5 54.5 16.5 75.5
s25.667 38 44 51s39.5 22.5 63.5 28.5s49.333 9 76 9c27.333 0 54.333 -1.33301 81 -4s53.667 -6.33398 81 -11.001v17c0 50.667 -13.333 88.167 -40 112.5s-64.667 36.5 -114 36.5c-30 0 -59.833 -4.83301 -89.5 -14.5s-57.167 -22.167 -82.5 -37.5l-21 37
c29.333 16 60.333 28.833 93 38.5s66 14.5 100 14.5c62.667 0 110.667 -15.667 144 -47s50 -79 50 -143v-315l-26.5 -24.5c-9.66699 -9 -18.667 -18.833 -27 -29.5s-15.333 -21.667 -21 -33s-8.5 -23 -8.5 -35c0 -15.333 4.5 -27.333 13.5 -36s21.167 -13 36.5 -13
c9.33301 0 18.5 1.33301 27.5 4s17.833 6.33398 26.5 11.001l10 -22c-10.667 -6.66699 -22.667 -12 -36 -16s-26.333 -6 -39 -6z" />
    <glyph glyph-name="Cacute" unicode="&#x106;" horiz-adv-x="723" 
d="M370 778l114 136l35 -24l-123 -130zM403 -13c-48 0 -92.667 8.83984 -134 26.5068s-77.5 42.167 -108.5 73.5s-55.333 68.666 -73 111.999s-26.5 90.666 -26.5 141.999s8.83301 98.666 26.5 141.999s42 80.666 73 111.999s67.167 55.666 108.5 72.999s86 26 134 26
c52.667 0 101.5 -10.5 146.5 -31.5s83.167 -50.5 114.5 -88.5l-31 -27c-28 34 -61.667 60.5 -101 79.5s-82.333 28.5 -129 28.5c-42 0 -81.333 -7.66699 -118 -23s-68.5 -37 -95.5 -65s-48.167 -61.167 -63.5 -99.5s-23 -80.5 -23 -126.5s7.66699 -88.333 23 -127
s36.5 -71.834 63.5 -99.501s58.833 -49.334 95.5 -65.001s76 -23.5 118 -23.5c48 0 92 10 132 30s73.667 47.667 101 83l32 -27c-32 -39.333 -70.667 -70 -116 -92s-95 -33 -149 -33z" />
    <glyph glyph-name="cacute" unicode="&#x107;" horiz-adv-x="545" 
d="M262 588l114 136l35 -24l-123 -130zM304 27c32.667 0 62.502 6.66699 89.502 20s50.167 32 69.5 56l29 -27c-22.667 -28 -50 -49.833 -82 -65.5s-67.333 -23.5 -106 -23.5c-34 0 -66 6.5 -96 19.5s-56.167 31 -78.5 54s-39.833 50.333 -52.5 82s-19 66.167 -19 103.5
s6.33301 71.833 19 103.5s30.167 59 52.5 82s48.5 40.833 78.5 53.5s62 19 96 19c38 0 73 -7.5 105 -22.5s59.333 -36.167 82 -63.5l-30 -27c-18.667 23.333 -41.334 41.5 -68.001 54.5s-56.334 19.5 -89.001 19.5c-28.667 0 -55.5 -5.33301 -80.5 -16
s-46.833 -25.5 -65.5 -44.5s-33.334 -42 -44.001 -69s-16 -56.833 -16 -89.5s5.33301 -62.5 16 -89.5s25.334 -50 44.001 -69s40.5 -33.833 65.5 -44.5s51.833 -16 80.5 -16z" />
    <glyph glyph-name="Ccircumflex" unicode="&#x108;" horiz-adv-x="723" 
d="M401 855l-99 -108l-25 18l101 122h46l101 -122l-25 -18zM403 -13c-48 0 -92.667 8.83984 -134 26.5068s-77.5 42.167 -108.5 73.5s-55.333 68.666 -73 111.999s-26.5 90.666 -26.5 141.999s8.83301 98.666 26.5 141.999s42 80.666 73 111.999s67.167 55.666 108.5 72.999
s86 26 134 26c52.667 0 101.5 -10.5 146.5 -31.5s83.167 -50.5 114.5 -88.5l-31 -27c-28 34 -61.667 60.5 -101 79.5s-82.333 28.5 -129 28.5c-42 0 -81.333 -7.66699 -118 -23s-68.5 -37 -95.5 -65s-48.167 -61.167 -63.5 -99.5s-23 -80.5 -23 -126.5
s7.66699 -88.333 23 -127s36.5 -71.834 63.5 -99.501s58.833 -49.334 95.5 -65.001s76 -23.5 118 -23.5c48 0 92 10 132 30s73.667 47.667 101 83l32 -27c-32 -39.333 -70.667 -70 -116 -92s-95 -33 -149 -33z" />
    <glyph glyph-name="ccircumflex" unicode="&#x109;" horiz-adv-x="545" 
d="M301 665l-99 -108l-25 18l101 122h46l101 -122l-25 -18zM304 27c32.667 0 62.502 6.66699 89.502 20s50.167 32 69.5 56l29 -27c-22.667 -28 -50 -49.833 -82 -65.5s-67.333 -23.5 -106 -23.5c-34 0 -66 6.5 -96 19.5s-56.167 31 -78.5 54s-39.833 50.333 -52.5 82
s-19 66.167 -19 103.5s6.33301 71.833 19 103.5s30.167 59 52.5 82s48.5 40.833 78.5 53.5s62 19 96 19c38 0 73 -7.5 105 -22.5s59.333 -36.167 82 -63.5l-30 -27c-18.667 23.333 -41.334 41.5 -68.001 54.5s-56.334 19.5 -89.001 19.5c-28.667 0 -55.5 -5.33301 -80.5 -16
s-46.833 -25.5 -65.5 -44.5s-33.334 -42 -44.001 -69s-16 -56.833 -16 -89.5s5.33301 -62.5 16 -89.5s25.334 -50 44.001 -69s40.5 -33.833 65.5 -44.5s51.833 -16 80.5 -16z" />
    <glyph glyph-name="Cdotaccent" unicode="&#x10a;" horiz-adv-x="723" 
d="M403 26c-42 0 -81.333 7.82617 -118 23.4932s-68.5 37.334 -95.5 65.001s-48.167 60.834 -63.5 99.501s-23 81 -23 127s7.66699 88.167 23 126.5s36.5 71.5 63.5 99.5s58.833 49.667 95.5 65s76 23 118 23c46.667 0 89.667 -9.5 129 -28.5s73 -45.5 101 -79.5l31 27
c-31.333 38 -69.5 67.5 -114.5 88.5s-93.833 31.5 -146.5 31.5c-48 0 -92.667 -8.66699 -134 -26s-77.5 -41.666 -108.5 -72.999s-55.333 -68.666 -73 -111.999s-26.5 -90.666 -26.5 -141.999s8.83301 -98.666 26.5 -141.999s42 -80.666 73 -111.999
s67.167 -55.833 108.5 -73.5s86 -26.5 134 -26.5c54 0 103.667 11 149 33s84 52.667 116 92l-32 27c-27.333 -35.333 -61 -63 -101 -83s-84 -30 -132 -30zM423 828.993c0 -8.66699 -2.66699 -15.834 -8 -21.501s-12 -8.5 -20 -8.5c-8.66699 0 -15.667 2.83301 -21 8.5
s-8 12.834 -8 21.501s2.66699 15.834 8 21.501s12.333 8.5 21 8.5c8 0 14.667 -2.83301 20 -8.5s8 -12.834 8 -21.501z" />
    <glyph glyph-name="cdotaccent" unicode="&#x10b;" horiz-adv-x="545" 
d="M271 639c0 9.33301 2.83301 17.166 8.5 23.499s13.167 9.5 22.5 9.5s16.833 -3.16699 22.5 -9.5s8.5 -14.166 8.5 -23.499s-2.83301 -17.166 -8.5 -23.499s-13.167 -9.5 -22.5 -9.5s-16.833 3.16699 -22.5 9.5s-8.5 14.166 -8.5 23.499zM304 27
c32.667 0 62.502 6.66699 89.502 20s50.167 32 69.5 56l29 -27c-22.667 -28 -50 -49.833 -82 -65.5s-67.333 -23.5 -106 -23.5c-34 0 -66 6.5 -96 19.5s-56.167 31 -78.5 54s-39.833 50.333 -52.5 82s-19 66.167 -19 103.5s6.33301 71.833 19 103.5s30.167 59 52.5 82
s48.5 40.833 78.5 53.5s62 19 96 19c38 0 73 -7.5 105 -22.5s59.333 -36.167 82 -63.5l-30 -27c-18.667 23.333 -41.334 41.5 -68.001 54.5s-56.334 19.5 -89.001 19.5c-28.667 0 -55.5 -5.33301 -80.5 -16s-46.833 -25.5 -65.5 -44.5s-33.334 -42 -44.001 -69
s-16 -56.833 -16 -89.5s5.33301 -62.5 16 -89.5s25.334 -50 44.001 -69s40.5 -33.833 65.5 -44.5s51.833 -16 80.5 -16z" />
    <glyph glyph-name="Ccaron" unicode="&#x10c;" horiz-adv-x="723" 
d="M403 26c-42 0 -81.333 7.82617 -118 23.4932s-68.5 37.334 -95.5 65.001s-48.167 60.834 -63.5 99.501s-23 81 -23 127s7.66699 88.167 23 126.5s36.5 71.5 63.5 99.5s58.833 49.667 95.5 65s76 23 118 23c46.667 0 89.667 -9.5 129 -28.5s73 -45.5 101 -79.5l31 27
c-31.333 38 -69.5 67.5 -114.5 88.5s-93.833 31.5 -146.5 31.5c-48 0 -92.667 -8.66699 -134 -26s-77.5 -41.666 -108.5 -72.999s-55.333 -68.666 -73 -111.999s-26.5 -90.666 -26.5 -141.999s8.83301 -98.666 26.5 -141.999s42 -80.666 73 -111.999
s67.167 -55.833 108.5 -73.5s86 -26.5 134 -26.5c54 0 103.667 11 149 33s84 52.667 116 92l-32 27c-27.333 -35.333 -61 -63 -101 -83s-84 -30 -132 -30zM497 904.993l26 -18l-101 -121h-47l-101 121l26 18l98 -108z" />
    <glyph glyph-name="ccaron" unicode="&#x10d;" horiz-adv-x="545" 
d="M304 27c-28.667 0 -55.502 5.33301 -80.502 16s-46.833 25.5 -65.5 44.5s-33.334 42 -44.001 69s-16 56.833 -16 89.5s5.33301 62.5 16 89.5s25.334 50 44.001 69s40.5 33.833 65.5 44.5s51.833 16 80.5 16c32.667 0 62.334 -6.5 89.001 -19.5
s49.334 -31.167 68.001 -54.5l30 27c-22.667 27.333 -50 48.5 -82 63.5s-67 22.5 -105 22.5c-34 0 -66 -6.33301 -96 -19s-56.167 -30.5 -78.5 -53.5s-39.833 -50.333 -52.5 -82s-19 -66.167 -19 -103.5s6.33301 -71.833 19 -103.5s30.167 -59 52.5 -82s48.5 -41 78.5 -54
s62 -19.5 96 -19.5c38.667 0 74 7.83301 106 23.5s59.333 37.5 82 65.5l-29 27c-19.333 -24 -42.5 -42.667 -69.5 -56s-56.833 -20 -89.5 -20zM397.998 715l26 -18l-101 -121h-47l-101 121l26 18l99 -108z" />
    <glyph glyph-name="Dcaron" unicode="&#x10e;" horiz-adv-x="687" 
d="M290 682h-197v-682h197c50.667 -0 96.667 7.83301 138 23.5s76.666 38.167 105.999 67.5s52 65 68 107s24 89.667 24 143s-8 101 -24 143s-38.667 77.667 -68 107s-64.666 51.833 -105.999 67.5s-87.333 23.5 -138 23.5zM288 40h-153v602h153
c46 0 87.333 -6.83301 124 -20.5s67.834 -33.5 93.501 -59.5s45.167 -57.667 58.5 -95s20 -79.333 20 -126s-6.66699 -88.667 -20 -126s-32.833 -69 -58.5 -95s-56.834 -45.833 -93.501 -59.5s-78 -20.5 -124 -20.5zM383 905l25 -18l-101 -121h-46l-101 121l25 18l99 -108z
" />
    <glyph glyph-name="dcaron" unicode="&#x10f;" horiz-adv-x="712" 
d="M601 560c9.33301 19.333 18.334 39.1689 27.001 59.502s16 41.166 22 62.499h44c-8 -21.333 -17.333 -42.333 -28 -63s-22.334 -40.334 -35.001 -59.001h-30zM304.001 27.0029c28.667 0 55.667 5.33301 81 16s47.333 25.5 66 44.5s33.334 42 44.001 69s16 56.833 16 89.5
s-5.33301 62.5 -16 89.5s-25.334 50 -44.001 69s-40.667 33.833 -66 44.5s-52.333 16 -81 16s-55.5 -5.33301 -80.5 -16s-46.833 -25.5 -65.5 -44.5s-33.334 -42 -44.001 -69s-16 -56.833 -16 -89.5s5.33301 -62.5 16 -89.5s25.334 -50 44.001 -69s40.5 -33.833 65.5 -44.5
s51.833 -16 80.5 -16zM550.001 725.003v-725h-34l-2 109h-2c-21.333 -37.333 -50.333 -66.833 -87 -88.5s-77.667 -32.5 -123 -32.5c-34 0 -65.833 6.33301 -95.5 19s-55.5 30.5 -77.5 53.5s-39.333 50.333 -52 82s-19 66.167 -19 103.5s6.33301 71.833 19 103.5
s30 59 52 82s47.833 40.833 77.5 53.5s61.5 19 95.5 19c44 0 84 -10.333 120 -31s64.667 -49 86 -85h2v337h40z" />
    <glyph glyph-name="Dcroat" unicode="&#x110;" horiz-adv-x="687" 
d="M584 341c0 46 -6.66699 87.667 -20 125s-32.666 69 -57.999 95s-56.333 46 -93 60s-78.334 21 -125.001 21h-153v-283h212v-36h-212v-283h153c46.667 0 88.334 7 125.001 21s67.667 34 93 60s44.666 57.667 57.999 95s20 79 20 125zM626 341
c0 -52 -7.83301 -99 -23.5 -141s-38 -77.833 -67 -107.5s-64.167 -52.5 -105.5 -68.5s-88 -24 -140 -24h-197v323h-76v36h76v323h197c52 0 98.667 -8 140 -24s76.5 -38.833 105.5 -68.5s51.333 -65.5 67 -107.5s23.5 -89 23.5 -141z" />
    <glyph glyph-name="dcroat" unicode="&#x111;" horiz-adv-x="638" 
d="M304 27c31.333 0 59.666 5.66699 84.999 17s47 27 65 47s32 43.333 42 70s15 55 15 85s-5 58.333 -15 85s-24 50 -42 70s-39.667 35.833 -65 47.5s-53.666 17.5 -84.999 17.5s-59.666 -5.83301 -84.999 -17.5s-47 -27.5 -65 -47.5s-31.833 -43.333 -41.5 -70
s-14.5 -55 -14.5 -85s4.83301 -58.333 14.5 -85s23.5 -50 41.5 -70s39.667 -35.667 65 -47s53.666 -17 84.999 -17zM610 582l-60 -0.000976562v-582h-34l-2 109h-2c-22 -38 -51.5 -67.667 -88.5 -89s-77.5 -32 -121.5 -32c-36 0 -69 6.83301 -99 20.5
s-55.833 32.334 -77.5 56.001s-38.334 51 -50.001 82s-17.5 64.167 -17.5 99.5c0 34.667 5.83301 67.834 17.5 99.501s28.334 59.167 50.001 82.5s47.5 42 77.5 56s63 21 99 21c43.333 0 83 -10.333 119 -31s65 -49.334 87 -86.001h2v194h-124v33h124v110h40v-110h60v-33z
" />
    <glyph glyph-name="Emacron" unicode="&#x112;" horiz-adv-x="588" 
d="M135 40v291h344v40h-344v271h372v40h-414v-682h422v40h-380zM175 828h259v-37h-259v37z" />
    <glyph glyph-name="emacron" unicode="&#x113;" horiz-adv-x="573" 
d="M512 273c0 30.667 -4.00098 58.667 -12.001 84c-10 30.667 -25 56.834 -45 78.501s-44.167 38.5 -72.5 50.5s-59.5 18 -93.5 18c-32.667 0 -63.167 -6.16699 -91.5 -18.5s-52.833 -29.833 -73.5 -52.5s-36.834 -49.834 -48.501 -81.501s-17.5 -66.834 -17.5 -105.501
s6.16699 -74 18.5 -106s29.166 -59.333 50.499 -82s46.333 -40.167 75 -52.5s59.334 -18.5 92.001 -18.5c42 0 79.833 8.33301 113.5 25s61.834 38 84.501 64l-28 28c-20 -22.667 -44.333 -41.167 -73 -55.5s-59 -21.5 -91 -21.5c-26.667 0 -51.834 4.5 -75.501 13.5
s-44.667 22.167 -63 39.5s-33.166 38.833 -44.499 64.5s-17.666 55.167 -18.999 88.5h413c0 2.66699 0.166992 5.33398 0.5 8.00098s0.5 5 0.5 7v7v18zM289.999 465c52.667 0 95.333 -16.833 128 -50.5s50.667 -81.167 54 -142.5h-373c5.33301 62 25.5 109.667 60.5 143
s78.5 50 130.5 50zM159.998 638h258v-37h-258v37z" />
    <glyph glyph-name="Ebreve" unicode="&#x114;" horiz-adv-x="588" 
d="M309 763c-29.333 0 -56 8.5 -80 25.5s-40.333 39.833 -49 68.5l30 12c7.33301 -22 19.5 -39.333 36.5 -52s37.833 -19 62.5 -19s45.5 6.33301 62.5 19s29.167 30 36.5 52l30 -12c-8.66699 -28.667 -25 -51.5 -49 -68.5s-50.667 -25.5 -80 -25.5zM515 40v-40h-422v682h414
v-40h-372v-271h344v-40h-344v-291h380z" />
    <glyph glyph-name="ebreve" unicode="&#x115;" horiz-adv-x="573" 
d="M290 573c-29.333 0 -56 8.5 -80 25.5s-40.333 39.833 -49 68.5l30 12c7.33301 -22 19.5 -39.333 36.5 -52s37.833 -19 62.5 -19s45.5 6.33301 62.5 19s29.167 30 36.5 52l30 -12c-8.66699 -28.667 -25 -51.5 -49 -68.5s-50.667 -25.5 -80 -25.5zM290 465
c-52 0 -95.499 -16.667 -130.499 -50s-55.167 -81 -60.5 -143h373c-3.33301 61.333 -21.333 108.833 -54 142.5s-75.334 50.5 -128.001 50.5zM512.001 248c0 -2 -0.166016 -4.33301 -0.499023 -7s-0.5 -5.33398 -0.5 -8.00098h-413
c1.33301 -33.333 7.66602 -62.833 18.999 -88.5s26.166 -47.167 44.499 -64.5s39.333 -30.5 63 -39.5s48.834 -13.5 75.501 -13.5c32 0 62.333 7.16699 91 21.5s53 32.833 73 55.5l28 -28c-22.667 -26 -50.834 -47.333 -84.501 -64s-71.5 -25 -113.5 -25
c-32.667 0 -63.334 6.16699 -92.001 18.5s-53.667 29.833 -75 52.5s-38.166 50 -50.499 82s-18.5 67.333 -18.5 106s5.83301 73.834 17.5 105.501s27.834 58.834 48.501 81.501s45.167 40.167 73.5 52.5s58.833 18.5 91.5 18.5c34 0 65.167 -6 93.5 -18
s52.5 -28.833 72.5 -50.5s35 -47.834 45 -78.501c8 -25.333 12 -53.333 12 -84v-18v-7z" />
    <glyph glyph-name="Edotaccent" unicode="&#x116;" horiz-adv-x="588" 
d="M135 40v291h344v40h-344v271h372v40h-414v-682h422v40h-380zM338 829c0 -8.66699 -2.66699 -15.834 -8 -21.501s-12.333 -8.5 -21 -8.5s-15.667 2.83301 -21 8.5s-8 12.834 -8 21.501s2.66699 15.834 8 21.501s12.333 8.5 21 8.5s15.667 -2.83301 21 -8.5
s8 -12.834 8 -21.501z" />
    <glyph glyph-name="edotaccent" unicode="&#x117;" horiz-adv-x="573" 
d="M259 639c0 9.33301 2.83301 17.166 8.5 23.499s13.167 9.5 22.5 9.5s16.833 -3.16699 22.5 -9.5s8.5 -14.166 8.5 -23.499s-2.83301 -17.166 -8.5 -23.499s-13.167 -9.5 -22.5 -9.5s-16.833 3.16699 -22.5 9.5s-8.5 14.166 -8.5 23.499zM290 465
c-52 0 -95.499 -16.667 -130.499 -50s-55.167 -81 -60.5 -143h373c-3.33301 61.333 -21.333 108.833 -54 142.5s-75.334 50.5 -128.001 50.5zM512.001 248c0 -2 -0.166016 -4.33301 -0.499023 -7s-0.5 -5.33398 -0.5 -8.00098h-413
c1.33301 -33.333 7.66602 -62.833 18.999 -88.5s26.166 -47.167 44.499 -64.5s39.333 -30.5 63 -39.5s48.834 -13.5 75.501 -13.5c32 0 62.333 7.16699 91 21.5s53 32.833 73 55.5l28 -28c-22.667 -26 -50.834 -47.333 -84.501 -64s-71.5 -25 -113.5 -25
c-32.667 0 -63.334 6.16699 -92.001 18.5s-53.667 29.833 -75 52.5s-38.166 50 -50.499 82s-18.5 67.333 -18.5 106s5.83301 73.834 17.5 105.501s27.834 58.834 48.501 81.501s45.167 40.167 73.5 52.5s58.833 18.5 91.5 18.5c34 0 65.167 -6 93.5 -18
s52.5 -28.833 72.5 -50.5s35 -47.834 45 -78.501c8 -25.333 12 -53.333 12 -84v-18v-7z" />
    <glyph glyph-name="Eogonek" unicode="&#x118;" horiz-adv-x="588" 
d="M401 -122c0 -15.333 4.49902 -27.501 13.499 -36.501s21.167 -13.5 36.5 -13.5c9.33301 0 18.5 1.5 27.5 4.5s17.833 6.83301 26.5 11.5l10 -22c-10.667 -6.66699 -22.5 -12 -35.5 -16s-25.833 -6 -38.5 -6c-22 0 -40.5 6.33301 -55.5 19s-22.5 30.667 -22.5 54
c0 12.667 2.66699 24.834 8 36.501s12.333 22.834 21 33.501s17.834 20.667 27.501 30s19.167 17.666 28.5 24.999v2h-355v682h414v-40h-372v-271h344v-40h-344v-291h380v-40h-29l-27 -24.5c-10 -9 -19.167 -18.833 -27.5 -29.5s-15.5 -21.667 -21.5 -33s-9 -23 -9 -35z" />
    <glyph glyph-name="eogonek" unicode="&#x119;" horiz-adv-x="573" 
d="M290 465c-28.667 0 -54.335 -5 -77.002 -15s-42.167 -23.667 -58.5 -41s-29.166 -37.666 -38.499 -60.999s-15 -48.666 -17 -75.999h373c-1.33301 27.333 -6.16602 52.666 -14.499 75.999s-20 43.666 -35 60.999s-33.667 31 -56 41s-47.833 15 -76.5 15zM512.999 273
l-0.00195312 -21c0 -6 -0.666992 -12.333 -2 -19h-413c1.33301 -29.333 6.83301 -56.5 16.5 -81.5s23.334 -46.833 41.001 -65.5s38.667 -33.167 63 -43.5s51.5 -15.5 81.5 -15.5c31.333 0 61.166 7 89.499 21s53.166 32.667 74.499 56l28 -28
c-20 -23.333 -43.333 -42.166 -70 -56.499s-55 -23.833 -85 -28.5l-24 -23.5c-8.66699 -8.33301 -16.667 -17.333 -24 -27s-13.333 -19.834 -18 -30.501s-7 -21.334 -7 -32.001c0 -15.333 4.5 -27.5 13.5 -36.5s21.167 -13.5 36.5 -13.5c9.33301 0 18.666 1.5 27.999 4.5
s18 6.83301 26 11.5l11 -22c-11.333 -6.66699 -23.5 -12 -36.5 -16s-25.833 -6 -38.5 -6c-22 0 -40.5 6.33301 -55.5 19s-22.5 30.667 -22.5 54c0 11.333 2.16699 22.333 6.5 33s10 20.667 17 30s14.5 18.166 22.5 26.499s16 16.166 24 23.499v2l-2 -1h-5
c-34.667 0 -66 6.33301 -94 19c-29.333 14 -54.166 32.833 -74.499 56.5s-35.833 51.334 -46.5 83.001s-16 65.167 -16 100.5c0 34.667 5.16699 67.5 15.5 98.5s25.333 58.333 45 82s43.834 42.5 72.501 56.5s61.334 21 98.001 21c34 0 64.833 -5.83301 92.5 -17.5
s51.334 -27.667 71.001 -48s34.667 -44.666 45 -72.999s15.5 -59.166 15.5 -92.499z" />
    <glyph glyph-name="Ecaron" unicode="&#x11a;" horiz-adv-x="588" 
d="M135 40v291h344v40h-344v271h372v40h-414v-682h422v40h-380zM405 905l26 -18l-101 -121h-47l-101 121l26 18l99 -108z" />
    <glyph glyph-name="ecaron" unicode="&#x11b;" horiz-adv-x="573" 
d="M512 273c0 30.667 -4.00098 58.667 -12.001 84c-10 30.667 -25 56.834 -45 78.501s-44.167 38.5 -72.5 50.5s-59.5 18 -93.5 18c-32.667 0 -63.167 -6.16699 -91.5 -18.5s-52.833 -29.833 -73.5 -52.5s-36.834 -49.834 -48.501 -81.501s-17.5 -66.834 -17.5 -105.501
s6.16699 -74 18.5 -106s29.166 -59.333 50.499 -82s46.333 -40.167 75 -52.5s59.334 -18.5 92.001 -18.5c42 0 79.833 8.33301 113.5 25s61.834 38 84.501 64l-28 28c-20 -22.667 -44.333 -41.167 -73 -55.5s-59 -21.5 -91 -21.5c-26.667 0 -51.834 4.5 -75.501 13.5
s-44.667 22.167 -63 39.5s-33.166 38.833 -44.499 64.5s-17.666 55.167 -18.999 88.5h413c0 2.66699 0.166992 5.33398 0.5 8.00098s0.5 5 0.5 7v7v18zM289.999 465c52.667 0 95.333 -16.833 128 -50.5s50.667 -81.167 54 -142.5h-373c5.33301 62 25.5 109.667 60.5 143
s78.5 50 130.5 50zM388.998 715l25 -18l-101 -121h-46l-101 121l25 18l99 -108z" />
    <glyph glyph-name="Gcircumflex" unicode="&#x11c;" horiz-adv-x="751" 
d="M399 855l-99 -108l-25 18l101 122h46l101 -122l-25 -18zM668 353l-0.000976562 -289.993c-29.333 -20 -66.333 -37.667 -111 -53s-96 -23 -154 -23c-48 0 -92.667 8.83301 -134 26.5s-77.5 42.167 -108.5 73.5s-55.333 68.666 -73 111.999s-26.5 90.666 -26.5 141.999
s8.83301 98.666 26.5 141.999s42 80.666 73 111.999s67.167 55.666 108.5 72.999s86 26 134 26c52.667 0 101.5 -10.5 146.5 -31.5s83.167 -50.5 114.5 -88.5l-31 -27c-28 34 -61.667 60.5 -101 79.5s-82.333 28.5 -129 28.5c-42 0 -81.333 -7.66699 -118 -23
s-68.5 -37 -95.5 -65s-48.167 -61.167 -63.5 -99.5s-23 -80.5 -23 -126.5s7.66699 -88.333 23 -127s36.5 -71.834 63.5 -99.501s58.833 -49.334 95.5 -65.001s76 -23.5 118 -23.5c42.667 0 82.834 5.16699 120.501 15.5s72.167 24.5 103.5 42.5v229h-199v40h240z" />
    <glyph glyph-name="gcircumflex" unicode="&#x11d;" 
d="M303 665l-99 -108l-25 18l101 122h46l101 -122l-25 -18zM300 -163c60.667 0 108.834 10.499 144.501 31.499s53.5 49.5 53.5 85.5s-17.833 62.667 -53.5 80s-83.834 27.666 -144.501 30.999l-97 5c-66.667 -21.333 -100 -60 -100 -116c0 -18 4.83301 -34.167 14.5 -48.5
s23.167 -26.666 40.5 -36.999s38 -18.166 62 -23.499s50.667 -8 80 -8zM137 337.999c0 -17.333 3.5 -33.666 10.5 -48.999s17.5 -28.833 31.5 -40.5s31.167 -21 51.5 -28s43.5 -10.5 69.5 -10.5c26.667 0 50.167 3.5 70.5 10.5s37.5 16.333 51.5 28s24.5 25.167 31.5 40.5
s10.5 31.666 10.5 48.999s-3.5 33.666 -10.5 48.999s-17.5 28.833 -31.5 40.5s-31.167 21 -51.5 28s-43.833 10.5 -70.5 10.5c-26 0 -49.167 -3.5 -69.5 -10.5s-37.5 -16.333 -51.5 -28s-24.5 -25.167 -31.5 -40.5s-10.5 -31.666 -10.5 -48.999zM538 -46.001
c0 -46 -20.4971 -82.998 -61.4971 -110.998s-99.833 -42 -176.5 -42c-74.667 0 -132.834 14 -174.501 42s-62.5 65 -62.5 111c0 27.333 7.5 51.666 22.5 72.999s36.5 38.666 64.5 51.999v2c-16.667 7.33301 -29 17.166 -37 29.499s-12 25.833 -12 40.5
c0 13.333 3.66699 26.5 11 39.5s19 23.833 35 32.5v2c-16.667 15.333 -29.167 32.666 -37.5 51.999s-12.5 39.666 -12.5 60.999c0 22.667 4.66699 44.167 14 64.5s22.666 38 39.999 53s38.5 26.833 63.5 35.5s53.5 13 85.5 13c28 0 53 -3.16699 75 -9.5
s41.333 -15.166 58 -26.499l73 71l26 -27l-70 -68c28 -29.333 42 -64.666 42 -105.999c0 -22.667 -4.66699 -44 -14 -64s-22.666 -37.5 -39.999 -52.5s-38.666 -27 -63.999 -36s-54 -13.5 -86 -13.5c-24.667 0 -47.334 2.83301 -68.001 8.5s-39.334 13.167 -56.001 22.5
c-10.667 -4.66699 -19.334 -11.167 -26.001 -19.5s-10 -18.166 -10 -29.499c0 -13.333 5.33301 -24 16 -32s24.334 -12.333 41.001 -13c4.66699 -0.666992 17.167 -1.5 37.5 -2.5s42.166 -2.16699 65.499 -3.5c76.667 -4.66699 135.5 -19.167 176.5 -43.5
s61.5 -59.5 61.5 -105.5z" />
    <glyph glyph-name="Gbreve" unicode="&#x11e;" horiz-adv-x="751" 
d="M398 763c-29.333 0 -56 8.5 -80 25.5s-40.333 39.833 -49 68.5l30 12c7.33301 -22 19.5 -39.333 36.5 -52s37.833 -19 62.5 -19s45.5 6.33301 62.5 19s29.167 30 36.5 52l30 -12c-8.66699 -28.667 -25 -51.5 -49 -68.5s-50.667 -25.5 -80 -25.5zM668 353
l-0.000976562 -289.993c-29.333 -20 -66.333 -37.667 -111 -53s-96 -23 -154 -23c-48 0 -92.667 8.83301 -134 26.5s-77.5 42.167 -108.5 73.5s-55.333 68.666 -73 111.999s-26.5 90.666 -26.5 141.999s8.83301 98.666 26.5 141.999s42 80.666 73 111.999
s67.167 55.666 108.5 72.999s86 26 134 26c52.667 0 101.5 -10.5 146.5 -31.5s83.167 -50.5 114.5 -88.5l-31 -27c-28 34 -61.667 60.5 -101 79.5s-82.333 28.5 -129 28.5c-42 0 -81.333 -7.66699 -118 -23s-68.5 -37 -95.5 -65s-48.167 -61.167 -63.5 -99.5
s-23 -80.5 -23 -126.5s7.66699 -88.333 23 -127s36.5 -71.834 63.5 -99.501s58.833 -49.334 95.5 -65.001s76 -23.5 118 -23.5c42.667 0 82.834 5.16699 120.501 15.5s72.167 24.5 103.5 42.5v229h-199v40h240z" />
    <glyph glyph-name="gbreve" unicode="&#x11f;" 
d="M300 573c-29.333 0 -56 8.5 -80 25.5s-40.333 39.833 -49 68.5l30 12c7.33301 -22 19.5 -39.333 36.5 -52s37.833 -19 62.5 -19s45.5 6.33301 62.5 19s29.167 30 36.5 52l30 -12c-8.66699 -28.667 -25 -51.5 -49 -68.5s-50.667 -25.5 -80 -25.5zM300 -163
c60.667 0 108.834 10.499 144.501 31.499s53.5 49.5 53.5 85.5s-17.833 62.667 -53.5 80s-83.834 27.666 -144.501 30.999l-97 5c-66.667 -21.333 -100 -60 -100 -116c0 -18 4.83301 -34.167 14.5 -48.5s23.167 -26.666 40.5 -36.999s38 -18.166 62 -23.499s50.667 -8 80 -8
zM137 337.999c0 -17.333 3.5 -33.666 10.5 -48.999s17.5 -28.833 31.5 -40.5s31.167 -21 51.5 -28s43.5 -10.5 69.5 -10.5c26.667 0 50.167 3.5 70.5 10.5s37.5 16.333 51.5 28s24.5 25.167 31.5 40.5s10.5 31.666 10.5 48.999s-3.5 33.666 -10.5 48.999
s-17.5 28.833 -31.5 40.5s-31.167 21 -51.5 28s-43.833 10.5 -70.5 10.5c-26 0 -49.167 -3.5 -69.5 -10.5s-37.5 -16.333 -51.5 -28s-24.5 -25.167 -31.5 -40.5s-10.5 -31.666 -10.5 -48.999zM538 -46.001c0 -46 -20.4971 -82.998 -61.4971 -110.998s-99.833 -42 -176.5 -42
c-74.667 0 -132.834 14 -174.501 42s-62.5 65 -62.5 111c0 27.333 7.5 51.666 22.5 72.999s36.5 38.666 64.5 51.999v2c-16.667 7.33301 -29 17.166 -37 29.499s-12 25.833 -12 40.5c0 13.333 3.66699 26.5 11 39.5s19 23.833 35 32.5v2
c-16.667 15.333 -29.167 32.666 -37.5 51.999s-12.5 39.666 -12.5 60.999c0 22.667 4.66699 44.167 14 64.5s22.666 38 39.999 53s38.5 26.833 63.5 35.5s53.5 13 85.5 13c28 0 53 -3.16699 75 -9.5s41.333 -15.166 58 -26.499l73 71l26 -27l-70 -68
c28 -29.333 42 -64.666 42 -105.999c0 -22.667 -4.66699 -44 -14 -64s-22.666 -37.5 -39.999 -52.5s-38.666 -27 -63.999 -36s-54 -13.5 -86 -13.5c-24.667 0 -47.334 2.83301 -68.001 8.5s-39.334 13.167 -56.001 22.5c-10.667 -4.66699 -19.334 -11.167 -26.001 -19.5
s-10 -18.166 -10 -29.499c0 -13.333 5.33301 -24 16 -32s24.334 -12.333 41.001 -13c4.66699 -0.666992 17.167 -1.5 37.5 -2.5s42.166 -2.16699 65.499 -3.5c76.667 -4.66699 135.5 -19.167 176.5 -43.5s61.5 -59.5 61.5 -105.5z" />
    <glyph glyph-name="Gdotaccent" unicode="&#x120;" horiz-adv-x="751" 
d="M428 353l0.000976562 -40.0068h199v-229c-31.333 -18 -65.833 -32.167 -103.5 -42.5s-77.834 -15.5 -120.501 -15.5c-42 0 -81.333 7.83301 -118 23.5s-68.5 37.334 -95.5 65.001s-48.167 60.834 -63.5 99.501s-23 81 -23 127s7.66699 88.167 23 126.5
s36.5 71.5 63.5 99.5s58.833 49.667 95.5 65s76 23 118 23c46.667 0 89.667 -9.5 129 -28.5s73 -45.5 101 -79.5l31 27c-31.333 38 -69.5 67.5 -114.5 88.5s-93.833 31.5 -146.5 31.5c-48 0 -92.667 -8.66699 -134 -26s-77.5 -41.666 -108.5 -72.999
s-55.333 -68.666 -73 -111.999s-26.5 -90.666 -26.5 -141.999s8.83301 -98.666 26.5 -141.999s42 -80.666 73 -111.999s67.167 -55.833 108.5 -73.5s86 -26.5 134 -26.5c58 0 109.333 7.66699 154 23s81.667 33 111 53v290h-240zM427.001 828.993
c0 -8.66699 -2.66699 -15.834 -8 -21.501s-12 -8.5 -20 -8.5c-8.66699 0 -15.667 2.83301 -21 8.5s-8 12.834 -8 21.501s2.66699 15.834 8 21.501s12.333 8.5 21 8.5c8 0 14.667 -2.83301 20 -8.5s8 -12.834 8 -21.501z" />
    <glyph glyph-name="gdotaccent" unicode="&#x121;" 
d="M271 639c0 9.33301 2.83301 17.166 8.5 23.499s13.167 9.5 22.5 9.5s16.833 -3.16699 22.5 -9.5s8.5 -14.166 8.5 -23.499s-2.83301 -17.166 -8.5 -23.499s-13.167 -9.5 -22.5 -9.5s-16.833 3.16699 -22.5 9.5s-8.5 14.166 -8.5 23.499zM300 -163
c60.667 0 108.834 10.499 144.501 31.499s53.5 49.5 53.5 85.5s-17.833 62.667 -53.5 80s-83.834 27.666 -144.501 30.999l-97 5c-66.667 -21.333 -100 -60 -100 -116c0 -18 4.83301 -34.167 14.5 -48.5s23.167 -26.666 40.5 -36.999s38 -18.166 62 -23.499s50.667 -8 80 -8
zM137 337.999c0 -17.333 3.5 -33.666 10.5 -48.999s17.5 -28.833 31.5 -40.5s31.167 -21 51.5 -28s43.5 -10.5 69.5 -10.5c26.667 0 50.167 3.5 70.5 10.5s37.5 16.333 51.5 28s24.5 25.167 31.5 40.5s10.5 31.666 10.5 48.999s-3.5 33.666 -10.5 48.999
s-17.5 28.833 -31.5 40.5s-31.167 21 -51.5 28s-43.833 10.5 -70.5 10.5c-26 0 -49.167 -3.5 -69.5 -10.5s-37.5 -16.333 -51.5 -28s-24.5 -25.167 -31.5 -40.5s-10.5 -31.666 -10.5 -48.999zM538 -46.001c0 -46 -20.4971 -82.998 -61.4971 -110.998s-99.833 -42 -176.5 -42
c-74.667 0 -132.834 14 -174.501 42s-62.5 65 -62.5 111c0 27.333 7.5 51.666 22.5 72.999s36.5 38.666 64.5 51.999v2c-16.667 7.33301 -29 17.166 -37 29.499s-12 25.833 -12 40.5c0 13.333 3.66699 26.5 11 39.5s19 23.833 35 32.5v2
c-16.667 15.333 -29.167 32.666 -37.5 51.999s-12.5 39.666 -12.5 60.999c0 22.667 4.66699 44.167 14 64.5s22.666 38 39.999 53s38.5 26.833 63.5 35.5s53.5 13 85.5 13c28 0 53 -3.16699 75 -9.5s41.333 -15.166 58 -26.499l73 71l26 -27l-70 -68
c28 -29.333 42 -64.666 42 -105.999c0 -22.667 -4.66699 -44 -14 -64s-22.666 -37.5 -39.999 -52.5s-38.666 -27 -63.999 -36s-54 -13.5 -86 -13.5c-24.667 0 -47.334 2.83301 -68.001 8.5s-39.334 13.167 -56.001 22.5c-10.667 -4.66699 -19.334 -11.167 -26.001 -19.5
s-10 -18.166 -10 -29.499c0 -13.333 5.33301 -24 16 -32s24.334 -12.333 41.001 -13c4.66699 -0.666992 17.167 -1.5 37.5 -2.5s42.166 -2.16699 65.499 -3.5c76.667 -4.66699 135.5 -19.167 176.5 -43.5s61.5 -59.5 61.5 -105.5z" />
    <glyph glyph-name="Gcommaaccent" unicode="&#x122;" horiz-adv-x="751" 
d="M332 -182c7.33301 24.667 13.833 48.833 19.5 72.5s10.167 45.5 13.5 65.5h38c-4.66699 -20.667 -11 -44 -19 -70s-16.333 -48.667 -25 -68h-27zM668 352.999l-0.000976562 -289.993c-29.333 -20 -66.333 -37.667 -111 -53s-96 -23 -154 -23
c-48 0 -92.667 8.83301 -134 26.5s-77.5 42.167 -108.5 73.5s-55.333 68.666 -73 111.999s-26.5 90.666 -26.5 141.999s8.83301 98.666 26.5 141.999s42 80.666 73 111.999s67.167 55.666 108.5 72.999s86 26 134 26c52.667 0 101.5 -10.5 146.5 -31.5
s83.167 -50.5 114.5 -88.5l-31 -27c-28 34 -61.667 60.5 -101 79.5s-82.333 28.5 -129 28.5c-42 0 -81.333 -7.66699 -118 -23s-68.5 -37 -95.5 -65s-48.167 -61.167 -63.5 -99.5s-23 -80.5 -23 -126.5s7.66699 -88.333 23 -127s36.5 -71.834 63.5 -99.501
s58.833 -49.334 95.5 -65.001s76 -23.5 118 -23.5c42.667 0 82.834 5.16699 120.501 15.5s72.167 24.5 103.5 42.5v229h-199v40h240z" />
    <glyph glyph-name="gcommaaccent" unicode="&#x123;" 
d="M369 673c-11.333 -21.333 -21 -42.6689 -29 -64.002s-14.667 -40.666 -20 -57.999h-44c7.33301 19.333 16.833 40.333 28.5 63s23.167 42.334 34.5 59.001h30zM300 -163.003c60.667 0 108.834 10.499 144.501 31.499s53.5 49.5 53.5 85.5s-17.833 62.667 -53.5 80
s-83.834 27.666 -144.501 30.999l-97 5c-66.667 -21.333 -100 -60 -100 -116c0 -18 4.83301 -34.167 14.5 -48.5s23.167 -26.666 40.5 -36.999s38 -18.166 62 -23.499s50.667 -8 80 -8zM137 337.996c0 -17.333 3.5 -33.666 10.5 -48.999s17.5 -28.833 31.5 -40.5
s31.167 -21 51.5 -28s43.5 -10.5 69.5 -10.5c26.667 0 50.167 3.5 70.5 10.5s37.5 16.333 51.5 28s24.5 25.167 31.5 40.5s10.5 31.666 10.5 48.999s-3.5 33.666 -10.5 48.999s-17.5 28.833 -31.5 40.5s-31.167 21 -51.5 28s-43.833 10.5 -70.5 10.5
c-26 0 -49.167 -3.5 -69.5 -10.5s-37.5 -16.333 -51.5 -28s-24.5 -25.167 -31.5 -40.5s-10.5 -31.666 -10.5 -48.999zM538 -46.0039c0 -46 -20.4971 -82.998 -61.4971 -110.998s-99.833 -42 -176.5 -42c-74.667 0 -132.834 14 -174.501 42s-62.5 65 -62.5 111
c0 27.333 7.5 51.666 22.5 72.999s36.5 38.666 64.5 51.999v2c-16.667 7.33301 -29 17.166 -37 29.499s-12 25.833 -12 40.5c0 13.333 3.66699 26.5 11 39.5s19 23.833 35 32.5v2c-16.667 15.333 -29.167 32.666 -37.5 51.999s-12.5 39.666 -12.5 60.999
c0 22.667 4.66699 44.167 14 64.5s22.666 38 39.999 53s38.5 26.833 63.5 35.5s53.5 13 85.5 13c28 0 53 -3.16699 75 -9.5s41.333 -15.166 58 -26.499l73 71l26 -27l-70 -68c28 -29.333 42 -64.666 42 -105.999c0 -22.667 -4.66699 -44 -14 -64
s-22.666 -37.5 -39.999 -52.5s-38.666 -27 -63.999 -36s-54 -13.5 -86 -13.5c-24.667 0 -47.334 2.83301 -68.001 8.5s-39.334 13.167 -56.001 22.5c-10.667 -4.66699 -19.334 -11.167 -26.001 -19.5s-10 -18.166 -10 -29.499c0 -13.333 5.33301 -24 16 -32
s24.334 -12.333 41.001 -13c4.66699 -0.666992 17.167 -1.5 37.5 -2.5s42.166 -2.16699 65.499 -3.5c76.667 -4.66699 135.5 -19.167 176.5 -43.5s61.5 -59.5 61.5 -105.5z" />
    <glyph glyph-name="Hcircumflex" unicode="&#x124;" horiz-adv-x="699" 
d="M350 855l-99 -108l-25 18l101 122h46l101 -122l-25 -18zM606 682v-682h-41v341h-430v-341h-42v682h42v-301h430v301h41z" />
    <glyph glyph-name="hcircumflex" unicode="&#x125;" horiz-adv-x="585" 
d="M106 870l-99 -108l-25 18l101 122h46l101 -122l-25 -18zM320 504c56.667 0 102 -18 136 -54s51 -88.333 51 -157v-293h-40v258c0 72.667 -12.667 125.667 -38 159s-64.333 50 -117 50c-30 0 -56.5 -5.83301 -79.5 -17.5s-42.167 -27 -57.5 -46s-27 -40.667 -35 -65
s-12 -49.5 -12 -75.5v-263h-40v725h40v-325h2c19.333 32 45.5 57.333 78.5 76s70.167 28 111.5 28z" />
    <glyph glyph-name="Hbar" unicode="&#x126;" horiz-adv-x="699" 
d="M565 530h-430v-149h430v149zM666 530h-60v-530h-41v341h-430v-341h-42v530h-60v37h60v115h42v-115h430v115h41v-115h60v-37z" />
    <glyph glyph-name="hbar" unicode="&#x127;" horiz-adv-x="585" 
d="M320 505c32 0 59.6699 -5.49902 83.0029 -16.499s42.666 -26 57.999 -45s26.833 -41.333 34.5 -67s11.5 -53.5 11.5 -83.5v-293h-40v258c0 27.333 -2 53.5 -6 78.5s-11.833 47.167 -23.5 66.5s-27.5 34.833 -47.5 46.5s-46 17.5 -78 17.5
c-28.667 0 -54.334 -5.5 -77.001 -16.5s-42 -25.833 -58 -44.5s-28.167 -40.334 -36.5 -65.001s-12.5 -50.667 -12.5 -78v-263h-40v582h-60v33h60v110h40v-110h124v-33h-124v-182h2c20.667 34 47.667 60 81 78s69.666 27 108.999 27z" />
    <glyph glyph-name="Itilde" unicode="&#x128;" horiz-adv-x="228" 
d="M184 759c-14.667 0 -27.832 2.16797 -39.499 6.50098s-22.834 9.16602 -33.501 14.499s-21.167 10.166 -31.5 14.499s-21.5 6.5 -33.5 6.5c-11.333 0 -21.833 -4.33301 -31.5 -13s-17.5 -18.334 -23.5 -29.001l-27 16c8 16.667 19.167 31.167 33.5 43.5
s30.166 18.5 47.499 18.5c14 0 26.833 -2.16699 38.5 -6.5s22.834 -9.16602 33.501 -14.499s21.334 -10.166 32.001 -14.499s22 -6.5 34 -6.5c11.333 0 21.666 3.66699 30.999 11s17 17.333 23 30l27 -16c-8 -18.667 -19 -33.5 -33 -44.5s-29.667 -16.5 -47 -16.5z
M93.002 0.000976562v682h42v-682h-42z" />
    <glyph glyph-name="itilde" unicode="&#x129;" horiz-adv-x="218" 
d="M179 569c-14.667 0 -27.832 2.16797 -39.499 6.50098s-22.834 9.16602 -33.501 14.499s-21.167 10.166 -31.5 14.499s-21.5 6.5 -33.5 6.5c-11.333 0 -21.833 -4.33301 -31.5 -13s-17.5 -18.334 -23.5 -29.001l-27 16c8 16.667 19.167 31.167 33.5 43.5
s30.166 18.5 47.499 18.5c14 0 26.833 -2.16699 38.5 -6.5s22.834 -9.16602 33.501 -14.499s21.334 -10.166 32.001 -14.499s22 -6.5 34 -6.5c11.333 0 21.666 3.66699 30.999 11s17 17.333 23 30l27 -16c-8 -18.667 -19 -33.5 -33 -44.5s-29.667 -16.5 -47 -16.5z
M89.002 492.001h40v-492h-40v492z" />
    <glyph glyph-name="Imacron" unicode="&#x12a;" horiz-adv-x="228" 
d="M-15 828h258v-37h-258v37zM135 0v682h-42v-682h42z" />
    <glyph glyph-name="imacron" unicode="&#x12b;" horiz-adv-x="218" 
d="M-20 638h258v-37h-258v37zM89 0h40v492h-40v-492z" />
    <glyph glyph-name="Ibreve" unicode="&#x12c;" horiz-adv-x="228" 
d="M114 763c-29.333 0 -56 8.5 -80 25.5s-40.333 39.833 -49 68.5l30 12c7.33301 -22 19.5 -39.333 36.5 -52s37.833 -19 62.5 -19s45.5 6.33301 62.5 19s29.167 30 36.5 52l30 -12c-8.66699 -28.667 -25 -51.5 -49 -68.5s-50.667 -25.5 -80 -25.5zM93 0v682h42v-682h-42z
" />
    <glyph glyph-name="ibreve" unicode="&#x12d;" horiz-adv-x="218" 
d="M109 573c-29.333 0 -56 8.5 -80 25.5s-40.333 39.833 -49 68.5l30 12c7.33301 -22 19.5 -39.333 36.5 -52s37.833 -19 62.5 -19s45.5 6.33301 62.5 19s29.167 30 36.5 52l30 -12c-8.66699 -28.667 -25 -51.5 -49 -68.5s-50.667 -25.5 -80 -25.5zM89 492h40v-492h-40v492z
" />
    <glyph glyph-name="Iogonek" unicode="&#x12e;" horiz-adv-x="228" 
d="M89 -200c-22 0 -40.499 6.33301 -55.499 19s-22.5 30.667 -22.5 54c0 12.667 2.5 25 7.5 37s11.5 23.333 19.5 34s16.833 20.667 26.5 30s19.167 18 28.5 26v682h42v-682l-27 -24.5c-10 -9 -19.333 -18.833 -28 -29.5s-16 -21.667 -22 -33s-9 -23 -9 -35
c0 -15.333 4.66699 -27.5 14 -36.5s21.666 -13.5 36.999 -13.5c9.33301 0 18.5 1.5 27.5 4.5s17.5 6.83301 25.5 11.5l11 -22c-10.667 -6.66699 -22.667 -12 -36 -16s-26.333 -6 -39 -6z" />
    <glyph glyph-name="iogonek" unicode="&#x12f;" horiz-adv-x="218" 
d="M138 639c0 -8 -2.66699 -15 -8 -21s-12.333 -9 -21 -9s-15.667 3 -21 9s-8 13 -8 21c0 8.66699 2.66699 16 8 22s12.333 9 21 9s15.667 -3 21 -9s8 -13.333 8 -22zM96 -172c-15.333 0 -27.499 4.5 -36.499 13.5s-13.5 21.167 -13.5 36.5c0 12 2.83301 23.667 8.5 35
s12.667 22.333 21 33s17.333 20.5 27 29.5l26.5 24.5v492h-40v-492c-10 -8 -19.833 -16.5 -29.5 -25.5s-18.334 -18.833 -26.001 -29.5s-14 -22 -19 -34s-7.5 -24.667 -7.5 -38c0 -23.333 7.5 -41.333 22.5 -54s33.5 -19 55.5 -19c12.667 0 25.667 2 39 6
s25.333 9.33301 36 16l-10 22c-8.66699 -4.66699 -17.5 -8.5 -26.5 -11.5s-18.167 -4.5 -27.5 -4.5z" />
    <glyph glyph-name="Idotaccent" unicode="&#x130;" horiz-adv-x="228" 
d="M143 829c0 -8.66699 -2.66699 -15.834 -8 -21.501s-12.333 -8.5 -21 -8.5s-15.667 2.83301 -21 8.5s-8 12.834 -8 21.501s2.66699 15.834 8 21.501s12.333 8.5 21 8.5s15.667 -2.83301 21 -8.5s8 -12.834 8 -21.501zM135 0v682h-42v-682h42z" />
    <glyph glyph-name="dotlessi" unicode="&#x131;" horiz-adv-x="216" 
d="M88 492h40v-492h-40v492z" />
    <glyph glyph-name="IJ" unicode="&#x132;" horiz-adv-x="679" 
d="M389 28c25.333 0 48.166 4.49805 68.499 13.498s37.666 21.5 51.999 37.5s25.333 35.333 33 58s11.5 47.667 11.5 75v470h42v-470c0 -33.333 -4.66699 -63.666 -14 -90.999s-22.833 -50.833 -40.5 -70.5s-39.334 -35 -65.001 -46s-54.834 -16.5 -87.501 -16.5
c-49.333 0 -92.666 12.333 -129.999 37s-64.666 56.334 -81.999 95.001l34 24c18.667 -39.333 43.834 -68.5 75.501 -87.5s65.834 -28.5 102.501 -28.5zM93 -0.00195312v682h42v-682h-42z" />
    <glyph glyph-name="ij" unicode="&#x133;" horiz-adv-x="401" 
d="M318 639c0 -8 -2.66699 -15 -8 -21s-12.333 -9 -21 -9s-15.667 3 -21 9s-8 13 -8 21c0 8.66699 2.66699 16 8 22s12.333 9 21 9s15.667 -3 21 -9s8 -13.333 8 -22zM269 -21c0 -16 -1.16602 -32.332 -3.49902 -48.999s-6.66602 -31.667 -12.999 -45
s-15.666 -24.333 -27.999 -33s-28.5 -13 -48.5 -13c-14.667 0 -28.834 1.16699 -42.501 3.5s-27.5 5.16602 -41.5 8.49902l-7 -37c15.333 -4 30.666 -7.33301 45.999 -10s30.666 -4 45.999 -4c26.667 0 48.5 5.16699 65.5 15.5s30.5 23.833 40.5 40.5s16.833 35.667 20.5 57
s5.5 43 5.5 65v514h-40v-513zM89.001 0.000976562h40v492h-40v-492zM138.001 639.001c0 -8 -2.66699 -15 -8 -21s-12.333 -9 -21 -9s-15.667 3 -21 9s-8 13 -8 21c0 8.66699 2.66699 16 8 22s12.333 9 21 9s15.667 -3 21 -9s8 -13.333 8 -22z" />
    <glyph glyph-name="Jcircumflex" unicode="&#x134;" horiz-adv-x="530" 
d="M426 855l-99 -108l-25 18l101 122h46l101 -122l-25 -18zM240 28c51.333 0 91.665 16.8311 120.998 50.498s44 78.167 44 133.5v470h42v-470c0 -33.333 -4.66699 -63.666 -14 -90.999s-22.666 -50.833 -39.999 -70.5s-39 -35 -65 -46s-55.333 -16.5 -88 -16.5
c-49.333 0 -92.666 12.333 -129.999 37s-64.666 56.334 -81.999 95.001l34 24c19.333 -40 44.666 -69.333 75.999 -88s65.333 -28 102 -28z" />
    <glyph glyph-name="jcircumflex" unicode="&#x135;" horiz-adv-x="278" 
d="M147 492l39.999 -0.000976562v-514c0 -26.667 -2.5 -51 -7.5 -73s-12.667 -40.667 -23 -56s-23.833 -27.333 -40.5 -36s-37 -13 -61 -13c-16 0 -32 1.5 -48 4.5s-30.667 6.16699 -44 9.5l7 37c14.667 -3.33301 28.834 -6.16602 42.501 -8.49902s27.167 -3.5 40.5 -3.5
c34 0 58.167 12.333 72.5 37s21.5 59 21.5 103v513zM165.999 664.999l-99 -108l-25 18l101 122h46l101 -122l-25 -18z" />
    <glyph glyph-name="Kcommaaccent" unicode="&#x136;" horiz-adv-x="649" 
d="M287 -182c7.33301 24.667 13.833 48.833 19.5 72.5s10.167 45.5 13.5 65.5h38c-4.66699 -20.667 -11 -44 -19 -70s-16.333 -48.667 -25 -68h-27zM135 -0.000976562h-42v682h42v-375h2l415 375h57l-344 -308l356 -374h-59l-327 348l-100 -90v-258z" />
    <glyph glyph-name="kcommaaccent" unicode="&#x137;" horiz-adv-x="530" 
d="M224 -182c7.33301 24.667 13.833 48.833 19.5 72.5s10.167 45.5 13.5 65.5h38c-4.66699 -20.667 -11 -44 -19 -70s-16.333 -48.667 -25 -68h-27zM128 -0.000976562h-40v725h40v-505h2l308 272h54l-246 -217l261 -275h-54l-235 251l-90 -79v-172z" />
    <glyph glyph-name="kgreenlandic" unicode="&#x138;" horiz-adv-x="530" 
d="M130 0h-40v492h40v-272h2l308 272h54l-246 -217l261 -275h-54l-235 251l-90 -79v-172z" />
    <glyph glyph-name="Lacute" unicode="&#x139;" horiz-adv-x="540" 
d="M89 778l114 136l35 -24l-123 -130zM502 40v-40h-409v682h42v-642h367z" />
    <glyph glyph-name="lacute" unicode="&#x13a;" horiz-adv-x="216" 
d="M79 793l114 136l35 -24l-123 -130zM88 725h40v-725h-40v725z" />
    <glyph glyph-name="Lcommaaccent" unicode="&#x13b;" horiz-adv-x="540" 
d="M237 -182c7.33301 24.667 13.833 48.833 19.5 72.5s10.167 45.5 13.5 65.5h38c-4.66699 -20.667 -11 -44 -19 -70s-16.333 -48.667 -25 -68h-27zM502 39.999v-40h-409v682h42v-642h367z" />
    <glyph glyph-name="uni013C" unicode="&#x13c;" horiz-adv-x="216" 
d="M35 -182c7.33301 24.667 13.833 48.833 19.5 72.5s10.167 45.5 13.5 65.5h38c-4.66699 -20.667 -11 -44 -19 -70s-16.333 -48.667 -25 -68h-27zM88 724.999h40v-725h-40v725z" />
    <glyph glyph-name="Lcaron" unicode="&#x13d;" horiz-adv-x="540" 
d="M188 560c10 19.333 19.168 39.1689 27.501 59.502s15.5 41.166 21.5 62.499h44c-8 -21.333 -17.333 -42.333 -28 -63s-22.334 -40.334 -35.001 -59.001h-30zM502.001 40.0029v-40h-409v682h42v-642h367z" />
    <glyph glyph-name="lcaron" unicode="&#x13e;" horiz-adv-x="290" 
d="M178 560c7.33301 24.667 13.833 48.833 19.5 72.5s10.167 45.5 13.5 65.5h38c-4.66699 -20.667 -11 -44 -19 -70s-16.333 -48.667 -25 -68h-27zM88 724.999h40v-725h-40v725z" />
    <glyph glyph-name="Ldot" unicode="&#x13f;" horiz-adv-x="540" 
d="M258 380c0 8.66699 -2.66699 16 -8 22s-12.333 9 -21 9s-15.667 -3 -21 -9s-8 -13.333 -8 -22c0 -8 2.66699 -15 8 -21s12.333 -9 21 -9s15.667 3 21 9s8 13 8 21zM502 40v-40h-409v682h42v-642h367z" />
    <glyph glyph-name="ldot" unicode="&#x140;" horiz-adv-x="265" 
d="M247 362c0 8.66699 -2.66699 16 -8 22s-12.333 9 -21 9s-15.667 -3 -21 -9s-8 -13.333 -8 -22c0 -8 2.66699 -15 8 -21s12.333 -9 21 -9s15.667 3 21 9s8 13 8 21zM88 725h40v-725h-40v725z" />
    <glyph glyph-name="Lslash" unicode="&#x141;" horiz-adv-x="540" 
d="M502 40v-40h-409v331l-81 -26l-12 35l93 30v312h42v-298l85 27l11 -35l-96 -31v-305h367z" />
    <glyph glyph-name="lslash" unicode="&#x142;" horiz-adv-x="267" 
d="M154 0h-40v339l-85 -28l-10 32l95 30v352h40v-339l84 28l10 -32l-94 -30v-352z" />
    <glyph glyph-name="Nacute" unicode="&#x143;" horiz-adv-x="709" 
d="M331 778l114 136l35 -24l-123 -130zM616 682l0.000976562 -682.001h-42l-439 613h-2c0 -10.667 0.166992 -23.667 0.5 -39s0.666016 -31.666 0.999023 -48.999s0.5 -35 0.5 -53v-49v-423h-42v682h43l438 -613h2c0 10.667 -0.166992 23.667 -0.5 39s-0.5 31.333 -0.5 48
v52v51v423h41z" />
    <glyph glyph-name="nacute" unicode="&#x144;" horiz-adv-x="585" 
d="M271 588l114 136l35 -24l-123 -130zM320 504c56.667 0 102.001 -18 136.001 -54s51 -88.333 51 -157v-293h-40v258c0 72.667 -12.667 125.5 -38 158.5s-64.333 49.5 -117 49.5c-30 0 -56.5 -5.66699 -79.5 -17s-42.167 -26.5 -57.5 -45.5s-27 -40.667 -35 -65
s-12 -49.5 -12 -75.5v-263h-40v492h34l3 -98h2c19.333 34 45.666 60.833 78.999 80.5s71.333 29.5 114 29.5z" />
    <glyph glyph-name="Ncommaaccent" unicode="&#x145;" horiz-adv-x="709" 
d="M307 -182c7.33301 24.667 13.833 48.833 19.5 72.5s10.167 45.5 13.5 65.5h38c-4.66699 -20.667 -11 -44 -19 -70s-16.333 -48.667 -25 -68h-27zM616 681.999l0.000976562 -682.001h-42l-439 613h-2c0 -10.667 0.166992 -23.667 0.5 -39
s0.666016 -31.666 0.999023 -48.999s0.5 -35 0.5 -53v-49v-423h-42v682h43l438 -613h2c0 10.667 -0.166992 23.667 -0.5 39s-0.5 31.333 -0.5 48v52v51v423h41z" />
    <glyph glyph-name="ncommaaccent" unicode="&#x146;" horiz-adv-x="585" 
d="M239 -182c7.33301 24.667 13.833 48.833 19.5 72.5s10.167 45.5 13.5 65.5h38c-4.66699 -20.667 -11 -44 -19 -70s-16.333 -48.667 -25 -68h-27zM320 503.999c56.667 0 102.001 -18 136.001 -54s51 -88.333 51 -157v-293h-40v258c0 72.667 -12.667 125.5 -38 158.5
s-64.333 49.5 -117 49.5c-30 0 -56.5 -5.66699 -79.5 -17s-42.167 -26.5 -57.5 -45.5s-27 -40.667 -35 -65s-12 -49.5 -12 -75.5v-263h-40v492h34l3 -98h2c19.333 34 45.666 60.833 78.999 80.5s71.333 29.5 114 29.5z" />
    <glyph glyph-name="Ncaron" unicode="&#x147;" horiz-adv-x="709" 
d="M454 905l25 -18l-101 -121h-47l-101 121l26 18l99 -108zM575 682l-0.000976562 -422.999v-51v-52c0 -16.667 0.166992 -32.667 0.5 -48s0.5 -28.333 0.5 -39h-2l-438 613h-43v-682h42v423v49c0 18 -0.166992 35.667 -0.5 53s-0.666016 33.666 -0.999023 48.999
s-0.5 28.333 -0.5 39h2l439 -613h42v682h-41z" />
    <glyph glyph-name="ncaron" unicode="&#x148;" horiz-adv-x="585" 
d="M320 504c-42.667 0 -80.668 -9.83301 -114.001 -29.5s-59.666 -46.5 -78.999 -80.5h-2l-3 98h-34v-492h40v263c0 26 4 51.167 12 75.5s19.667 46 35 65s34.5 34.167 57.5 45.5s49.5 17 79.5 17c52.667 0 91.667 -16.5 117 -49.5s38 -85.833 38 -158.5v-258h40v293
c0 68.667 -17 121 -51 157s-79.333 54 -136 54zM400.999 715l26 -18l-101 -121h-47l-101 121l26 18l99 -108z" />
    <glyph glyph-name="napostrophe" unicode="&#x149;" horiz-adv-x="585" 
d="M56 566c9.33301 19.333 18.334 39.166 27.001 59.499s16 41.166 22 62.499h44c-8 -21.333 -17.333 -42.166 -28 -62.499s-22.334 -40.166 -35.001 -59.499h-30zM320.001 504c32 0 59.6689 -5.33203 83.002 -15.999s42.666 -25.5 57.999 -44.5s26.833 -41.333 34.5 -67
s11.5 -53.5 11.5 -83.5v-293h-40v258c0 27.333 -2 53.5 -6 78.5s-11.833 47.167 -23.5 66.5s-27.5 34.833 -47.5 46.5s-46 17.5 -78 17.5c-28.667 0 -54.334 -5.5 -77.001 -16.5s-42 -25.833 -58 -44.5s-28.167 -40.334 -36.5 -65.001s-12.5 -50.667 -12.5 -78v-263h-40v492
h34l3 -98h2c20 36 47 63.333 81 82s71.333 28 112 28z" />
    <glyph glyph-name="Eng" unicode="&#x14a;" horiz-adv-x="709" 
d="M616 682l0.00488281 -658.002c0 -33.333 -2.83301 -63.666 -8.5 -90.999s-15.334 -50.833 -29.001 -70.5s-31.5 -35 -53.5 -46s-49.333 -16.5 -82 -16.5c-13.333 0 -27.333 1.16699 -42 3.5s-28.334 5.16602 -41.001 8.49902l9 40
c11.333 -3.33301 23.666 -6.16602 36.999 -8.49902s25.666 -3.5 36.999 -3.5c23.333 0 43 3.83301 59 11.5s29.167 18.5 39.5 32.5s18 30.833 23 50.5s8.16699 41.5 9.5 65.5l-439 613h-2c0 -10.667 0.166992 -23.667 0.5 -39s0.666016 -31.666 0.999023 -48.999
s0.5 -35 0.5 -53v-49v-423h-42v682h43l438 -613h2c0 10.667 -0.166992 23.667 -0.5 39s-0.5 31.333 -0.5 48v52v51v423h41z" />
    <glyph glyph-name="eng" unicode="&#x14b;" horiz-adv-x="585" 
d="M320 504c32 0 59.667 -5.33301 83 -16s42.666 -25.5 57.999 -44.5s26.833 -41.333 34.5 -67s11.5 -53.5 11.5 -83.5v-317c0 -22 -2.16699 -43.667 -6.5 -65s-11.666 -40.166 -21.999 -56.499s-24.166 -29.5 -41.499 -39.5s-39 -15 -65 -15c-14 0 -28 1.16699 -42 3.5
s-27.667 5.5 -41 9.5l7 37c12 -3.33301 24.167 -6 36.5 -8s24.833 -3 37.5 -3c20 0 36.167 4 48.5 12s22.166 18.333 29.499 31s12.333 27.167 15 43.5s4 32.5 4 48.5v284c0 27.333 -2.16699 53.5 -6.5 78.5s-12.166 47.167 -23.499 66.5s-27 34.833 -47 46.5
s-46 17.5 -78 17.5c-28.667 0 -54.334 -5.5 -77.001 -16.5s-42 -25.833 -58 -44.5s-28.167 -40.334 -36.5 -65.001s-12.5 -50.667 -12.5 -78v-263h-40v492h34l3 -98h2c20 36 47 63.333 81 82s71.333 28 112 28z" />
    <glyph glyph-name="Omacron" unicode="&#x14c;" horiz-adv-x="805" 
d="M402 694c-47.333 0 -91.833 -8.66699 -133.5 -26s-77.834 -41.666 -108.501 -72.999s-54.834 -68.666 -72.501 -111.999s-26.5 -90.666 -26.5 -141.999s8.83301 -98.666 26.5 -141.999s41.834 -80.666 72.501 -111.999s66.834 -55.666 108.501 -72.999
s86.167 -26 133.5 -26c48 0 92.667 8.66699 134 26s77.5 41.666 108.5 72.999s55.333 68.666 73 111.999s26.5 90.666 26.5 141.999s-8.83301 98.666 -26.5 141.999s-42 80.666 -73 111.999s-67.167 55.666 -108.5 72.999s-86 26 -134 26zM402 26
c-42 0 -81.167 7.83301 -117.5 23.5s-68 37.334 -95 65.001s-48.167 60.834 -63.5 99.501s-23 81 -23 127s7.66699 88.167 23 126.5s36.5 71.5 63.5 99.5s58.667 49.667 95 65s75.5 23 117.5 23s81.333 -7.66699 118 -23s68.5 -37 95.5 -65s48.167 -61.167 63.5 -99.5
s23 -80.5 23 -126.5s-7.66699 -88.333 -23 -127s-36.5 -71.834 -63.5 -99.501s-58.833 -49.334 -95.5 -65.001s-76 -23.5 -118 -23.5zM273 828h258v-37h-258v37z" />
    <glyph glyph-name="omacron" unicode="&#x14d;" horiz-adv-x="609" 
d="M375 569c-14.667 0 -27.832 2.16797 -39.499 6.50098s-22.834 9.16602 -33.501 14.499s-21.167 10.166 -31.5 14.499s-21.5 6.5 -33.5 6.5c-11.333 0 -21.833 -4.33301 -31.5 -13s-17.5 -18.334 -23.5 -29.001l-27 16c8 16.667 19.167 31.167 33.5 43.5
s30.166 18.5 47.499 18.5c14 0 26.833 -2.16699 38.5 -6.5s22.834 -9.16602 33.501 -14.499s21.334 -10.166 32.001 -14.499s22 -6.5 34 -6.5c11.333 0 21.666 3.66699 30.999 11s17 17.333 23 30l27 -16c-8 -18.667 -19 -33.5 -33 -44.5s-29.667 -16.5 -47 -16.5z
M304.002 27.001c28.667 0 55.667 5.33301 81 16s47.333 25.5 66 44.5s33.334 42 44.001 69s16 56.833 16 89.5s-5.33301 62.5 -16 89.5s-25.334 50 -44.001 69s-40.667 33.833 -66 44.5s-52.333 16 -81 16s-55.5 -5.33301 -80.5 -16s-46.833 -25.5 -65.5 -44.5
s-33.334 -42 -44.001 -69s-16 -56.833 -16 -89.5s5.33301 -62.5 16 -89.5s25.334 -50 44.001 -69s40.5 -33.833 65.5 -44.5s51.833 -16 80.5 -16zM304.002 504.001c34.667 0 67 -6.33301 97 -19s56.167 -30.5 78.5 -53.5s39.833 -50.333 52.5 -82s19 -66.167 19 -103.5
s-6.33301 -71.833 -19 -103.5s-30.167 -59 -52.5 -82s-48.5 -41 -78.5 -54s-62.333 -19.5 -97 -19.5c-34 0 -66 6.5 -96 19.5s-56.167 31 -78.5 54s-39.833 50.333 -52.5 82s-19 66.167 -19 103.5s6.33301 71.833 19 103.5s30.167 59 52.5 82s48.5 40.833 78.5 53.5
s62 19 96 19z" />
    <glyph glyph-name="Obreve" unicode="&#x14e;" horiz-adv-x="805" 
d="M402 763c-29.333 0 -56 8.5 -80 25.5s-40.333 39.833 -49 68.5l30 12c7.33301 -22 19.5 -39.333 36.5 -52s37.833 -19 62.5 -19s45.5 6.33301 62.5 19s29.167 30 36.5 52l30 -12c-8.66699 -28.667 -25 -51.5 -49 -68.5s-50.667 -25.5 -80 -25.5zM402 26
c42 0 81.333 7.83301 118 23.5s68.5 37.334 95.5 65.001s48.167 60.834 63.5 99.501s23 81 23 127s-7.66699 88.167 -23 126.5s-36.5 71.5 -63.5 99.5s-58.833 49.667 -95.5 65s-76 23 -118 23s-81.167 -7.66699 -117.5 -23s-68 -37 -95 -65s-48.167 -61.167 -63.5 -99.5
s-23 -80.5 -23 -126.5s7.66699 -88.333 23 -127s36.5 -71.834 63.5 -99.501s58.667 -49.334 95 -65.001s75.5 -23.5 117.5 -23.5zM402 694c48 0 92.667 -8.66699 134 -26s77.5 -41.666 108.5 -72.999s55.333 -68.666 73 -111.999s26.5 -90.666 26.5 -141.999
s-8.83301 -98.666 -26.5 -141.999s-42 -80.666 -73 -111.999s-67.167 -55.666 -108.5 -72.999s-86 -26 -134 -26c-47.333 0 -91.833 8.66699 -133.5 26s-77.834 41.666 -108.501 72.999s-54.834 68.666 -72.501 111.999s-26.5 90.666 -26.5 141.999
s8.83301 98.666 26.5 141.999s41.834 80.666 72.501 111.999s66.834 55.666 108.501 72.999s86.167 26 133.5 26z" />
    <glyph glyph-name="obreve" unicode="&#x14f;" horiz-adv-x="609" 
d="M304 573c-29.333 0 -56 8.5 -80 25.5s-40.333 39.833 -49 68.5l30 12c7.33301 -22 19.5 -39.333 36.5 -52s37.833 -19 62.5 -19s45.5 6.33301 62.5 19s29.167 30 36.5 52l30 -12c-8.66699 -28.667 -25 -51.5 -49 -68.5s-50.667 -25.5 -80 -25.5zM304 27
c28.667 0 55.667 5.33301 81 16s47.333 25.5 66 44.5s33.334 42 44.001 69s16 56.833 16 89.5s-5.33301 62.5 -16 89.5s-25.334 50 -44.001 69s-40.667 33.833 -66 44.5s-52.333 16 -81 16s-55.5 -5.33301 -80.5 -16s-46.833 -25.5 -65.5 -44.5s-33.334 -42 -44.001 -69
s-16 -56.833 -16 -89.5s5.33301 -62.5 16 -89.5s25.334 -50 44.001 -69s40.5 -33.833 65.5 -44.5s51.833 -16 80.5 -16zM304 504c34.667 0 67 -6.33301 97 -19s56.167 -30.5 78.5 -53.5s39.833 -50.333 52.5 -82s19 -66.167 19 -103.5s-6.33301 -71.833 -19 -103.5
s-30.167 -59 -52.5 -82s-48.5 -41 -78.5 -54s-62.333 -19.5 -97 -19.5c-34 0 -66 6.5 -96 19.5s-56.167 31 -78.5 54s-39.833 50.333 -52.5 82s-19 66.167 -19 103.5s6.33301 71.833 19 103.5s30.167 59 52.5 82s48.5 40.833 78.5 53.5s62 19 96 19z" />
    <glyph glyph-name="Ohungarumlaut" unicode="&#x150;" horiz-adv-x="805" 
d="M436 778l114 136l35 -24l-123 -130zM310 778l114 136l35 -24l-123 -130zM402 26c42 0 81.333 7.83301 118 23.5s68.5 37.334 95.5 65.001s48.167 60.834 63.5 99.501s23 81 23 127s-7.66699 88.167 -23 126.5s-36.5 71.5 -63.5 99.5s-58.833 49.667 -95.5 65
s-76 23 -118 23s-81.167 -7.66699 -117.5 -23s-68 -37 -95 -65s-48.167 -61.167 -63.5 -99.5s-23 -80.5 -23 -126.5s7.66699 -88.333 23 -127s36.5 -71.834 63.5 -99.501s58.667 -49.334 95 -65.001s75.5 -23.5 117.5 -23.5zM402 694c48 0 92.667 -8.66699 134 -26
s77.5 -41.666 108.5 -72.999s55.333 -68.666 73 -111.999s26.5 -90.666 26.5 -141.999s-8.83301 -98.666 -26.5 -141.999s-42 -80.666 -73 -111.999s-67.167 -55.666 -108.5 -72.999s-86 -26 -134 -26c-47.333 0 -91.833 8.66699 -133.5 26s-77.834 41.666 -108.501 72.999
s-54.834 68.666 -72.501 111.999s-26.5 90.666 -26.5 141.999s8.83301 98.666 26.5 141.999s41.834 80.666 72.501 111.999s66.834 55.666 108.501 72.999s86.167 26 133.5 26z" />
    <glyph glyph-name="ohungarumlaut" unicode="&#x151;" horiz-adv-x="609" 
d="M206 588l114 136l35 -24l-123 -130zM331 588l114 136l35 -24l-123 -130zM304 27c28.667 0 55.667 5.33301 81 16s47.333 25.5 66 44.5s33.334 42 44.001 69s16 56.833 16 89.5s-5.33301 62.5 -16 89.5s-25.334 50 -44.001 69s-40.667 33.833 -66 44.5s-52.333 16 -81 16
s-55.5 -5.33301 -80.5 -16s-46.833 -25.5 -65.5 -44.5s-33.334 -42 -44.001 -69s-16 -56.833 -16 -89.5s5.33301 -62.5 16 -89.5s25.334 -50 44.001 -69s40.5 -33.833 65.5 -44.5s51.833 -16 80.5 -16zM304 504c34.667 0 67 -6.33301 97 -19s56.167 -30.5 78.5 -53.5
s39.833 -50.333 52.5 -82s19 -66.167 19 -103.5s-6.33301 -71.833 -19 -103.5s-30.167 -59 -52.5 -82s-48.5 -41 -78.5 -54s-62.333 -19.5 -97 -19.5c-34 0 -66 6.5 -96 19.5s-56.167 31 -78.5 54s-39.833 50.333 -52.5 82s-19 66.167 -19 103.5s6.33301 71.833 19 103.5
s30.167 59 52.5 82s48.5 40.833 78.5 53.5s62 19 96 19z" />
    <glyph glyph-name="OE" unicode="&#x152;" horiz-adv-x="1230" 
d="M434 27c44.667 0 85.334 8.16699 122.001 24.5s68.167 38.833 94.5 67.5s46.833 62 61.5 100s22 78.667 22 122s-7.33301 84.166 -22 122.499s-35.167 71.666 -61.5 99.999s-57.833 50.833 -94.5 67.5s-77.334 25 -122.001 25c-44 0 -84.333 -8.33301 -121 -25
s-68.167 -39.167 -94.5 -67.5s-46.833 -61.666 -61.5 -99.999s-22 -79.166 -22 -122.499s7.33301 -84 22 -122s35.167 -71.333 61.5 -100s57.833 -51.167 94.5 -67.5s77 -24.5 121 -24.5zM1157 40v-40h-423v163h-2c-30 -56 -71.333 -99.167 -124 -129.5
s-110.667 -45.5 -174 -45.5c-50 0 -95.833 9.16699 -137.5 27.5s-77.5 43.5 -107.5 75.5s-53.5 69.333 -70.5 112s-25.5 88.667 -25.5 138c0 48.667 8.5 94.5 25.5 137.5s40.5 80.5 70.5 112.5s65.833 57.333 107.5 76s87.5 28 137.5 28c63.333 0 121.333 -15.333 174 -46
s94 -74 124 -130h2v163h414v-40h-372v-271h344v-40h-344v-291h381z" />
    <glyph glyph-name="oe" unicode="&#x153;" horiz-adv-x="1026" 
d="M304 27c31.333 0 59.666 5.66699 84.999 17s47 27 65 47s32 43.333 42 70s15 55 15 85s-5 58.333 -15 85s-24 50 -42 70s-39.667 35.667 -65 47s-53.666 17 -84.999 17s-59.666 -5.66699 -84.999 -17s-47 -27 -65 -47s-31.833 -43.333 -41.5 -70s-14.5 -55 -14.5 -85
s4.83301 -58.333 14.5 -85s23.5 -50 41.5 -70s39.667 -35.667 65 -47s53.666 -17 84.999 -17zM743 465c-28.667 0 -54.335 -5 -77.002 -15s-42.167 -23.667 -58.5 -41s-29.166 -37.666 -38.499 -60.999s-15 -48.666 -17 -75.999h373
c-1.33301 27.333 -6.16602 52.666 -14.499 75.999s-20 43.666 -35 60.999s-33.667 31 -56 41s-47.833 15 -76.5 15zM965.999 273c0 -7.33301 -0.169922 -14.1631 -0.50293 -20.4961s-0.833008 -12.833 -1.5 -19.5h-413c1.33301 -29.333 6.83301 -56.5 16.5 -81.5
s23.334 -46.833 41.001 -65.5s38.667 -33.167 63 -43.5s51.5 -15.5 81.5 -15.5c31.333 0 61.166 7 89.499 21s53.166 32.667 74.499 56l28 -28c-25.333 -29.333 -55.166 -51.5 -89.499 -66.5s-70.5 -22.5 -108.5 -22.5c-49.333 0 -93.166 13.333 -131.499 40
s-66.5 63 -84.5 109h-2c-19.333 -46 -49.166 -82.167 -89.499 -108.5s-85.5 -39.5 -135.5 -39.5c-36 0 -69.167 6.83301 -99.5 20.5s-56.333 32.167 -78 55.5s-38.5 50.666 -50.5 81.999s-18 64.666 -18 99.999s6 68.666 18 99.999s28.833 58.666 50.5 81.999
s47.667 41.833 78 55.5s63.5 20.5 99.5 20.5c50 0 95 -13 135 -39s70 -62 90 -108h2c17.333 46 44.5 82.167 81.5 108.5s80.167 39.5 129.5 39.5c34 0 64.833 -5.83301 92.5 -17.5s51.334 -27.834 71.001 -48.501s34.667 -45.167 45 -73.5s15.5 -59.166 15.5 -92.499z" />
    <glyph glyph-name="Racute" unicode="&#x154;" horiz-adv-x="653" 
d="M257 778l114 136l35 -24l-123 -130zM135 344h235c24 0 46.5 3 67.5 9s39.333 15.167 55 27.5s28.167 27.833 37.5 46.5s14 40.667 14 66c0 26 -4.5 48.333 -13.5 67s-21.333 34.167 -37 46.5s-34.167 21.333 -55.5 27s-44 8.5 -68 8.5h-235v-298zM135 304
l0.000976562 -303.997h-42v682h278c30 0 58.167 -3.83301 84.5 -11.5s49.166 -19.167 68.499 -34.5s34.666 -34.833 45.999 -58.5s17 -51.834 17 -84.501c0 -50.667 -14.333 -91.834 -43 -123.501s-67.667 -51.834 -117 -60.501l178 -309h-50l-172 304
c-27.333 -0.666992 -55 -1 -83 -1h-41c-41.333 0.666992 -82.666 1 -123.999 1z" />
    <glyph glyph-name="racute" unicode="&#x155;" horiz-adv-x="364" 
d="M268 504c11.333 0 23.168 -0.999023 35.501 -2.99902s23.166 -4.33301 32.499 -7l-8 -42c-12 3.33301 -24 6.16602 -36 8.49902s-24 3.5 -36 3.5c-22 0 -41 -5.66699 -57 -17s-29.167 -26.833 -39.5 -46.5s-18.166 -43 -23.499 -70s-8 -56.167 -8 -87.5v-243h-40v492h34
l2 -83h2c29.333 63.333 76.666 95 141.999 95zM126.002 588.001l114 136l35 -24l-123 -130z" />
    <glyph glyph-name="uni0156" unicode="&#x156;" horiz-adv-x="653" 
d="M281 -182c7.33301 24.667 13.833 48.833 19.5 72.5s10.167 45.5 13.5 65.5h38c-4.66699 -20.667 -11 -44 -19 -70s-16.333 -48.667 -25 -68h-27zM135 343.999h235c24 0 46.5 3 67.5 9s39.333 15.167 55 27.5s28.167 27.833 37.5 46.5s14 40.667 14 66
c0 26 -4.5 48.333 -13.5 67s-21.333 34.167 -37 46.5s-34.167 21.333 -55.5 27s-44 8.5 -68 8.5h-235v-298zM135 303.999l0.000976562 -303.997h-42v682h278c30 0 58.167 -3.83301 84.5 -11.5s49.166 -19.167 68.499 -34.5s34.666 -34.833 45.999 -58.5
s17 -51.834 17 -84.501c0 -50.667 -14.333 -91.834 -43 -123.501s-67.667 -51.834 -117 -60.501l178 -309h-50l-172 304c-27.333 -0.666992 -55 -1 -83 -1h-41c-41.333 0.666992 -82.666 1 -123.999 1z" />
    <glyph glyph-name="rcommaaccent" unicode="&#x157;" horiz-adv-x="364" 
d="M39 -182c7.33301 24.667 13.833 48.833 19.5 72.5s10.167 45.5 13.5 65.5h38c-4.66699 -20.667 -11 -44 -19 -70s-16.333 -48.667 -25 -68h-27zM268 503.999c11.333 0 23.168 -0.999023 35.501 -2.99902s23.166 -4.33301 32.499 -7l-8 -42
c-12 3.33301 -24 6.16602 -36 8.49902s-24 3.5 -36 3.5c-22 0 -41 -5.66699 -57 -17s-29.167 -26.833 -39.5 -46.5s-18.166 -43 -23.499 -70s-8 -56.167 -8 -87.5v-243h-40v492h34l2 -83h2c29.333 63.333 76.666 95 141.999 95z" />
    <glyph glyph-name="Rcaron" unicode="&#x158;" horiz-adv-x="653" 
d="M587 493c0 32.667 -5.66797 60.8311 -17.001 84.498s-26.666 43.167 -45.999 58.5s-42.166 26.833 -68.499 34.5s-54.5 11.5 -84.5 11.5h-278v-682h42v304c41.333 0 82.666 -0.333008 123.999 -1h41l83 1l172 -304h50l-178 309c49.333 8.66699 88.333 28.834 117 60.501
s43 72.834 43 123.501zM134.999 641.997h235c24 0 46.667 -2.83301 68 -8.5s39.833 -14.667 55.5 -27s28 -27.833 37 -46.5s13.5 -41 13.5 -67c0 -25.333 -4.66699 -47.333 -14 -66s-21.833 -34.167 -37.5 -46.5s-34 -21.5 -55 -27.5s-43.5 -9 -67.5 -9h-235v298z
M400.999 904.997l25 -18l-101 -121h-46l-101 121l25 18l99 -108z" />
    <glyph glyph-name="rcaron" unicode="&#x159;" horiz-adv-x="364" 
d="M268 504c-65.333 0 -112.669 -31.668 -142.002 -95.001h-2l-2 83h-34v-492h40v243c0 31.333 2.5 60.5 7.5 87.5s12.833 50.333 23.5 70s24 35.167 40 46.5s35 17 57 17c12 0 24 -1.16699 36 -3.5s24 -5.16602 36 -8.49902l8 42c-9.33301 2.66699 -20.166 5 -32.499 7
s-24.166 3 -35.499 3zM280.997 714.999l25 -18l-101 -121h-46l-101 121l25 18l99 -108z" />
    <glyph glyph-name="Sacute" unicode="&#x15a;" horiz-adv-x="587" 
d="M264 778l114 136l35 -24l-123 -130zM109 525c0 -26 6.00293 -47.665 18.0029 -64.998s27.333 -31.833 46 -43.5s39.167 -21 61.5 -28s43.833 -13.167 64.5 -18.5c26.667 -6.66699 53.667 -14.834 81 -24.501s51.833 -22 73.5 -37s39.334 -33.833 53.001 -56.5
s20.5 -50.334 20.5 -83.001c0 -33.333 -6.5 -61.666 -19.5 -84.999s-30.167 -42.166 -51.5 -56.499s-45.833 -24.666 -73.5 -30.999s-56.167 -9.5 -85.5 -9.5c-42 0 -84 7.33301 -126 22s-79.667 34.667 -113 60l25 35c30 -24 63.667 -42.833 101 -56.5s75 -20.5 113 -20.5
c22 0 44.333 2.5 67 7.5s43 13 61 24s32.667 25.667 44 44s17 40.5 17 66.5c0 27.333 -6.5 50.166 -19.5 68.499s-29.333 33.833 -49 46.5s-41.334 22.667 -65.001 30s-46.167 13.666 -67.5 18.999c-24.667 6 -50 13.5 -76 22.5s-49.5 20.667 -70.5 35s-38.167 32 -51.5 53
s-20 46.5 -20 76.5c0 32 6.66699 59 20 81s30.666 40 51.999 54s45.5 24 72.5 30s54.5 9 82.5 9c42 0 83.333 -6.5 124 -19.5s77.667 -32.167 111 -57.5l-25 -34c-30 23.333 -62.833 41 -98.5 53s-72.834 18 -111.501 18c-20.667 0 -41.834 -2 -63.501 -6
s-41.5 -11 -59.5 -21s-32.833 -23.333 -44.5 -40s-17.5 -37.334 -17.5 -62.001z" />
    <glyph glyph-name="sacute" unicode="&#x15b;" horiz-adv-x="469" 
d="M187 588l114 136l35 -24l-123 -130zM232 24c46 0 80.668 8.99902 104.001 26.999s35 41.667 35 71c0 30 -12.167 54.333 -36.5 73s-60.5 33 -108.5 43c-54.667 12 -94.834 30 -120.501 54s-38.5 53.333 -38.5 88c0 17.333 3.83301 33.666 11.5 48.999
s18.5 28.5 32.5 39.5s31.333 19.667 52 26s44 9.5 70 9.5c34 0 66.333 -5.16699 97 -15.5s56.667 -23.166 78 -38.499l-23 -33c-19.333 13.333 -42.333 25.166 -69 35.499s-54 15.5 -82 15.5c-40 0 -71.167 -8.5 -93.5 -25.5s-33.5 -38.167 -33.5 -63.5
c0 -26 10.5 -47.5 31.5 -64.5s54.167 -30.833 99.5 -41.5c59.333 -13.333 103 -32.666 131 -57.999s42 -56 42 -92c0 -39.333 -15 -71.666 -45 -96.999s-74.333 -38 -133 -38c-15.333 0 -31.5 1.5 -48.5 4.5s-33.667 7.16699 -50 12.5s-31.5 11.833 -45.5 19.5
s-26 16.167 -36 25.5l23 33c20.667 -18 45.167 -32.333 73.5 -43s55.833 -16 82.5 -16z" />
    <glyph glyph-name="Scircumflex" unicode="&#x15c;" horiz-adv-x="587" 
d="M297 855l-99 -108l-25 18l101 122h46l101 -122l-25 -18zM109 525c0 -26 6.00293 -47.665 18.0029 -64.998s27.333 -31.833 46 -43.5s39.167 -21 61.5 -28s43.833 -13.167 64.5 -18.5c26.667 -6.66699 53.667 -14.834 81 -24.501s51.833 -22 73.5 -37
s39.334 -33.833 53.001 -56.5s20.5 -50.334 20.5 -83.001c0 -33.333 -6.5 -61.666 -19.5 -84.999s-30.167 -42.166 -51.5 -56.499s-45.833 -24.666 -73.5 -30.999s-56.167 -9.5 -85.5 -9.5c-42 0 -84 7.33301 -126 22s-79.667 34.667 -113 60l25 35
c30 -24 63.667 -42.833 101 -56.5s75 -20.5 113 -20.5c22 0 44.333 2.5 67 7.5s43 13 61 24s32.667 25.667 44 44s17 40.5 17 66.5c0 27.333 -6.5 50.166 -19.5 68.499s-29.333 33.833 -49 46.5s-41.334 22.667 -65.001 30s-46.167 13.666 -67.5 18.999
c-24.667 6 -50 13.5 -76 22.5s-49.5 20.667 -70.5 35s-38.167 32 -51.5 53s-20 46.5 -20 76.5c0 32 6.66699 59 20 81s30.666 40 51.999 54s45.5 24 72.5 30s54.5 9 82.5 9c42 0 83.333 -6.5 124 -19.5s77.667 -32.167 111 -57.5l-25 -34c-30 23.333 -62.833 41 -98.5 53
s-72.834 18 -111.501 18c-20.667 0 -41.834 -2 -63.501 -6s-41.5 -11 -59.5 -21s-32.833 -23.333 -44.5 -40s-17.5 -37.334 -17.5 -62.001z" />
    <glyph glyph-name="scircumflex" unicode="&#x15d;" horiz-adv-x="469" 
d="M239 665l-99 -108l-25 18l101 122h46l101 -122l-25 -18zM232 24c46 0 80.668 8.99902 104.001 26.999s35 41.667 35 71c0 30 -12.167 54.333 -36.5 73s-60.5 33 -108.5 43c-54.667 12 -94.834 30 -120.501 54s-38.5 53.333 -38.5 88c0 17.333 3.83301 33.666 11.5 48.999
s18.5 28.5 32.5 39.5s31.333 19.667 52 26s44 9.5 70 9.5c34 0 66.333 -5.16699 97 -15.5s56.667 -23.166 78 -38.499l-23 -33c-19.333 13.333 -42.333 25.166 -69 35.499s-54 15.5 -82 15.5c-40 0 -71.167 -8.5 -93.5 -25.5s-33.5 -38.167 -33.5 -63.5
c0 -26 10.5 -47.5 31.5 -64.5s54.167 -30.833 99.5 -41.5c59.333 -13.333 103 -32.666 131 -57.999s42 -56 42 -92c0 -39.333 -15 -71.666 -45 -96.999s-74.333 -38 -133 -38c-15.333 0 -31.5 1.5 -48.5 4.5s-33.667 7.16699 -50 12.5s-31.5 11.833 -45.5 19.5
s-26 16.167 -36 25.5l23 33c20.667 -18 45.167 -32.333 73.5 -43s55.833 -16 82.5 -16z" />
    <glyph glyph-name="Scedilla" unicode="&#x15e;" horiz-adv-x="587" 
d="M109 525c0 -26 6.00391 -47.6631 18.0039 -64.9961s27.333 -31.833 46 -43.5s39.167 -21.167 61.5 -28.5s43.833 -13.333 64.5 -18c26.667 -6.66699 53.667 -14.834 81 -24.501s51.833 -22 73.5 -37s39.334 -33.833 53.001 -56.5s20.5 -50.334 20.5 -83.001
c0 -32 -6 -59.333 -18 -82s-28 -41.167 -48 -55.5s-43.167 -25 -69.5 -32s-53.833 -10.833 -82.5 -11.5l-22 -39v-2c4 0.666992 7.66699 1 11 1h11c11.333 0 22.833 -1.16699 34.5 -3.5s22.334 -6.33301 32.001 -12s17.5 -13 23.5 -22s9 -20.167 9 -33.5
s-2.66699 -24.833 -8 -34.5s-12.5 -17.667 -21.5 -24s-19.167 -11 -30.5 -14s-23 -4.5 -35 -4.5c-18 0 -36 2.66699 -54 8s-34.667 12.666 -50 21.999l13 22c27.333 -16.667 56.333 -25 87 -25c16.667 0 30.834 4 42.501 12s17.5 20.667 17.5 38
s-6.83301 29.666 -20.5 36.999s-27.834 11 -42.501 11c-14 0 -27.333 -2 -40 -6l-22 13l31 55v1c-38.667 2.66699 -76.834 11 -114.501 25s-71.834 32.667 -102.501 56l25 35c30 -24 63.667 -42.833 101 -56.5s75 -20.5 113 -20.5c22 0 44.333 2.5 67 7.5s43 13 61 24
s32.667 25.667 44 44s17 40.5 17 66.5c0 26.667 -6.5 49.334 -19.5 68.001s-29.333 34.334 -49 47.001s-41.334 22.667 -65.001 30s-46.167 13.666 -67.5 18.999c-24.667 6 -50 13.5 -76 22.5s-49.5 20.667 -70.5 35s-38.167 32 -51.5 53s-20 46.5 -20 76.5
c0 32 6.66699 59 20 81s30.666 40 51.999 54s45.5 24 72.5 30s54.5 9 82.5 9c42 0 83.333 -6.5 124 -19.5s77.667 -32.167 111 -57.5l-25 -34c-30 23.333 -62.833 41 -98.5 53s-72.834 18 -111.501 18c-20.667 0 -41.834 -2 -63.501 -6s-41.5 -11 -59.5 -21
s-32.833 -23.333 -44.5 -40s-17.5 -37.334 -17.5 -62.001z" />
    <glyph glyph-name="scedilla" unicode="&#x15f;" horiz-adv-x="469" 
d="M238 -52l11.001 0.00292969c33.333 0 58.166 -7 74.499 -21s24.5 -30.667 24.5 -50c0 -23.333 -8.33301 -42 -25 -56s-40 -21 -70 -21c-18.667 0 -36.834 2.66699 -54.501 8s-34.167 12.666 -49.5 21.999l13 22c11.333 -7.33301 24.5 -13.333 39.5 -18s30.833 -7 47.5 -7
c19.333 0 34.166 4.5 44.499 13.5s15.5 21.167 15.5 36.5c0 13.333 -5.16699 24.666 -15.5 33.999s-26.166 14 -47.499 14c-10 0 -18.333 -0.666992 -25 -2s-11.667 -2.66602 -15 -3.99902l-22 13l30 54v2c-14.667 1.33301 -29.667 3.66602 -45 6.99902
s-30.166 7.66602 -44.499 12.999s-27.666 11.5 -39.999 18.5s-22.833 14.833 -31.5 23.5l23 33c20.667 -18 45.167 -32.333 73.5 -43s55.833 -16 82.5 -16c46 0 80.667 9 104 27s35 41.667 35 71c0 30 -12.167 54.333 -36.5 73s-60.5 33 -108.5 43
c-54.667 12 -94.834 30 -120.501 54s-38.5 53.333 -38.5 88c0 17.333 3.83301 33.666 11.5 48.999s18.5 28.5 32.5 39.5s31.333 19.667 52 26s44 9.5 70 9.5c34 0 66.333 -5.16699 97 -15.5s56.667 -23.166 78 -38.499l-23 -33c-19.333 13.333 -42.333 25.166 -69 35.499
s-54 15.5 -82 15.5c-40 0 -71.167 -8.5 -93.5 -25.5s-33.5 -38.167 -33.5 -63.5c0 -26 10.5 -47.5 31.5 -64.5s54.167 -30.833 99.5 -41.5c59.333 -13.333 103 -32.666 131 -57.999s42 -56 42 -92c0 -37.333 -13.5 -68.5 -40.5 -93.5s-67.5 -38.833 -121.5 -41.5l-22 -39v-2
c3.33301 0.666992 7 1 11 1z" />
    <glyph glyph-name="Scaron" unicode="&#x160;" horiz-adv-x="587" 
d="M109 525c0 24.667 5.83008 45.332 17.4971 61.999s26.5 30 44.5 40s37.833 17 59.5 21s42.834 6 63.501 6c38.667 0 75.834 -6 111.501 -18s68.5 -29.667 98.5 -53l25 34c-33.333 25.333 -70.333 44.5 -111 57.5s-82 19.5 -124 19.5c-28 0 -55.5 -3 -82.5 -9
s-51.167 -16 -72.5 -30s-38.666 -32 -51.999 -54s-20 -49 -20 -81c0 -30 6.66699 -55.5 20 -76.5s30.5 -38.667 51.5 -53s44.5 -26 70.5 -35s51.333 -16.5 76 -22.5c21.333 -5.33301 43.833 -11.666 67.5 -18.999s45.334 -17.333 65.001 -30s36 -28.167 49 -46.5
s19.5 -41.166 19.5 -68.499c0 -26 -5.66699 -48.167 -17 -66.5s-26 -33 -44 -44s-38.333 -19 -61 -24s-45 -7.5 -67 -7.5c-38 0 -75.667 6.83301 -113 20.5s-71 32.5 -101 56.5l-25 -35c33.333 -25.333 71 -45.333 113 -60s84 -22 126 -22c29.333 0 57.833 3.16699 85.5 9.5
s52.167 16.666 73.5 30.999s38.5 33.166 51.5 56.499s19.5 51.666 19.5 84.999c0 32.667 -6.83301 60.334 -20.5 83.001s-31.334 41.5 -53.001 56.5s-46.167 27.333 -73.5 37s-54.333 17.834 -81 24.501c-20.667 5.33301 -42.167 11.5 -64.5 18.5s-42.833 16.333 -61.5 28
s-34 26.167 -46 43.5s-18 39 -18 65zM396.997 904.998l25 -18l-101 -121h-46l-101 121l25 18l99 -108z" />
    <glyph glyph-name="scaron" unicode="&#x161;" horiz-adv-x="469" 
d="M233 -12c58.667 0 102.999 12.668 132.999 38.001s45 57.666 45 96.999c0 36 -14 66.667 -42 92s-71.667 44.666 -131 57.999c-45.333 10.667 -78.5 24.5 -99.5 41.5s-31.5 38.5 -31.5 64.5c0 25.333 11.167 46.5 33.5 63.5s53.5 25.5 93.5 25.5
c28 0 55.333 -5.16699 82 -15.5s49.667 -22.166 69 -35.499l23 33c-21.333 15.333 -47.333 28.166 -78 38.499s-63 15.5 -97 15.5c-26 0 -49.333 -3.16699 -70 -9.5s-38 -15 -52 -26s-24.833 -24.167 -32.5 -39.5s-11.5 -31.666 -11.5 -48.999
c0 -34.667 12.833 -64 38.5 -88s65.834 -42 120.501 -54c48 -10 84.167 -24.333 108.5 -43s36.5 -43 36.5 -73c0 -29.333 -11.667 -53 -35 -71s-58 -27 -104 -27c-26.667 0 -54.167 5.33301 -82.5 16s-52.833 25 -73.5 43l-23 -33c10 -9.33301 22 -17.833 36 -25.5
s29.167 -14.167 45.5 -19.5s33 -9.5 50 -12.5s33.167 -4.5 48.5 -4.5zM335.999 715.001l26 -18l-101 -121h-47l-101 121l26 18l99 -108z" />
    <glyph glyph-name="Tcommaaccent" unicode="&#x162;" horiz-adv-x="557" 
d="M274 -52l11 0.00195312c11.333 0 22.833 -1.16699 34.5 -3.5s22.334 -6.33301 32.001 -12s17.5 -13 23.5 -22s9 -20.167 9 -33.5s-2.66699 -24.833 -8 -34.5s-12.5 -17.667 -21.5 -24s-19.167 -11 -30.5 -14s-23 -4.5 -35 -4.5c-18.667 0 -36.834 2.66699 -54.501 8
s-34.167 12.666 -49.5 21.999l13 22c26 -16.667 55 -25 87 -25c16 0 30 4 42 12s18 20.667 18 38s-6.83301 29.666 -20.5 36.999s-28.167 11 -43.5 11c-13.333 0 -26.333 -2 -39 -6l-23 13l39 68v642h-225v40h491v-40h-225v-642h-7l-29 -51v-2c3.33301 0.666992 7 1 11 1z
" />
    <glyph glyph-name="tcommaaccent" unicode="&#x163;" horiz-adv-x="358" 
d="M218 -52c11.333 0 22.834 -1.16699 34.501 -3.5s22.334 -6.33301 32.001 -12s17.5 -13 23.5 -22s9 -20.167 9 -33.5s-2.66699 -24.833 -8 -34.5s-12.5 -17.667 -21.5 -24s-19.167 -11 -30.5 -14s-23 -4.5 -35 -4.5c-18.667 0 -36.834 2.66699 -54.501 8
s-34.167 12.666 -49.5 21.999l13 22c26 -16.667 55 -25 87 -25c16 0 30 4 42 12s18 20.667 18 38s-6.83301 29.666 -20.5 36.999s-28.167 11 -43.5 11c-13.333 0 -26.333 -2 -39 -6l-23 13l34 61c-24 7.33301 -40.667 21.333 -50 42s-14 42.667 -14 66v353h-82v38h82v166h40
v-166h163v-38h-163v-344c0 -11.333 0.833008 -22.166 2.5 -32.499s5 -19.333 10 -27s11.667 -13.667 20 -18s19.166 -6.5 32.499 -6.5c16.667 0 33.667 1.33301 51 4s34.333 6.33398 51 11.001l6 -38c-15.333 -4.66699 -33.833 -8.5 -55.5 -11.5s-40.5 -4.5 -56.5 -4.5l-5 1
l-22 -39v-2c3.33301 0.666992 7 1 11 1h11z" />
    <glyph glyph-name="Tcaron" unicode="&#x164;" horiz-adv-x="557" 
d="M377 905l26 -18l-101 -121h-47l-101 121l25 18l99 -108zM524 682h-491v-40h225v-642h41v642h225v40z" />
    <glyph glyph-name="tcaron" unicode="&#x165;" horiz-adv-x="358" 
d="M208 541c9.33301 19.333 18.334 39.1689 27.001 59.502s16 41.166 22 62.499h44c-8 -21.333 -17.333 -42.333 -28 -63s-22.334 -40.334 -35.001 -59.001h-30zM223.001 -12.9971c-35.333 0 -60.999 10.666 -76.999 31.999s-24 48.666 -24 81.999v353h-82v38h82v166h40
v-166h163v-38h-163v-344c0 -11.333 0.833008 -22.166 2.5 -32.499s5 -19.333 10 -27s11.667 -13.667 20 -18s19.166 -6.5 32.499 -6.5c16.667 0 33.667 1.33301 51 4s34.333 6.33398 51 11.001l6 -38c-15.333 -4.66699 -33.833 -8.5 -55.5 -11.5s-40.5 -4.5 -56.5 -4.5z" />
    <glyph glyph-name="Tbar" unicode="&#x166;" horiz-adv-x="557" 
d="M299 642v-301h124v-37h-124v-304h-41v304h-124v37h124v301h-225v40h491v-40h-225z" />
    <glyph glyph-name="tbar" unicode="&#x167;" horiz-adv-x="358" 
d="M223 -12c-35.333 0 -60.999 10.499 -76.999 31.499s-24 48.167 -24 81.5v152h-71v33h71v168h-82v38h82v166h40v-166h163v-38h-163v-168h125v-33h-125v-143c0 -11.333 0.833008 -22.166 2.5 -32.499s5 -19.333 10 -27s11.667 -13.667 20 -18s19.166 -6.5 32.499 -6.5
c16.667 0 33.667 1.33301 51 4s34.333 6.33398 51 11.001l6 -38c-15.333 -4.66699 -33.833 -8.33398 -55.5 -11.001s-40.5 -4 -56.5 -4z" />
    <glyph glyph-name="Utilde" unicode="&#x168;" horiz-adv-x="674" 
d="M337 -13c34.667 0 67.499 5.5 98.499 16.5s58 27.333 81 49s41.167 48.667 54.5 81s20 70.166 20 113.499v435h-41v-430c0 -36 -5.16699 -68 -15.5 -96s-24.833 -51.5 -43.5 -70.5s-41.167 -33.5 -67.5 -43.5s-55.166 -15 -86.499 -15s-60 5 -86 15
s-48.333 24.5 -67 43.5s-33.167 42.5 -43.5 70.5s-15.5 60 -15.5 96v430h-42v-435c0 -43.333 6.66699 -81.166 20 -113.499s31.5 -59.333 54.5 -81s49.833 -38 80.5 -49s63.667 -16.5 99 -16.5zM406.999 759c-14.667 0 -27.833 2.16699 -39.5 6.5
s-22.834 9.16602 -33.501 14.499s-21.167 10.166 -31.5 14.499s-21.5 6.5 -33.5 6.5c-11.333 0 -21.833 -4.33301 -31.5 -13s-17.5 -18.334 -23.5 -29.001l-27 16c8.66699 16.667 20 31 34 43s29.667 18 47 18c14 0 26.833 -2.16699 38.5 -6.5
s22.834 -9.16602 33.501 -14.499s21.334 -10.166 32.001 -14.499s22 -6.5 34 -6.5c11.333 0 21.666 3.83301 30.999 11.5s17 17.834 23 30.501l27 -16c-8 -18.667 -19 -33.5 -33 -44.5s-29.667 -16.5 -47 -16.5z" />
    <glyph glyph-name="utilde" unicode="&#x169;" horiz-adv-x="585" 
d="M358 569c-14.667 0 -27.832 2.16797 -39.499 6.50098s-22.834 9.16602 -33.501 14.499s-21.167 10.166 -31.5 14.499s-21.5 6.5 -33.5 6.5c-11.333 0 -21.833 -4.33301 -31.5 -13s-17.5 -18.334 -23.5 -29.001l-27 16c8 16.667 19.167 31.167 33.5 43.5
s30.166 18.5 47.499 18.5c14 0 26.833 -2.16699 38.5 -6.5s22.834 -9.16602 33.501 -14.499s21.334 -10.166 32.001 -14.499s22 -6.5 34 -6.5c11.333 0 21.666 3.66699 30.999 11s17 17.333 23 30l27 -16c-8 -18.667 -19 -33.5 -33 -44.5s-29.667 -16.5 -47 -16.5z
M497.002 492.001l0.00195312 -492h-35l-2 98h-2c-19.333 -34 -45.833 -60.833 -79.5 -80.5s-71.834 -29.5 -114.501 -29.5c-56.667 0 -101.834 18 -135.501 54s-50.5 88.333 -50.5 157v293h40v-258c0 -72.667 12.5 -125.667 37.5 -159s63.833 -50 116.5 -50
c30 0 56.5 5.83301 79.5 17.5s42.333 27 58 46s27.5 40.667 35.5 65s12 49.5 12 75.5v263h40z" />
    <glyph glyph-name="Umacron" unicode="&#x16a;" horiz-adv-x="674" 
d="M208 828h258v-37h-258v37zM337 -13c-35.333 0 -68.332 5.5 -98.999 16.5s-57.5 27.333 -80.5 49s-41.167 48.667 -54.5 81s-20 70.166 -20 113.499v435h42v-430c0 -36 5.16699 -68 15.5 -96s24.833 -51.5 43.5 -70.5s41 -33.5 67 -43.5s54.667 -15 86 -15
s60.166 5 86.499 15s48.833 24.5 67.5 43.5s33.167 42.5 43.5 70.5s15.5 60 15.5 96v430h41v-435c0 -43.333 -6.66699 -81.166 -20 -113.499s-31.5 -59.333 -54.5 -81s-50 -38 -81 -49s-63.833 -16.5 -98.5 -16.5z" />
    <glyph glyph-name="umacron" unicode="&#x16b;" horiz-adv-x="585" 
d="M457 492l-0.00195312 -263c0 -26 -4 -51.167 -12 -75.5s-19.833 -46 -35.5 -65s-35 -34.333 -58 -46s-49.5 -17.5 -79.5 -17.5c-52.667 0 -91.5 16.667 -116.5 50s-37.5 86.333 -37.5 159v258h-40v-293c0 -68.667 16.833 -121 50.5 -157s78.834 -54 135.501 -54
c42.667 0 80.834 9.83301 114.501 29.5s60.167 46.5 79.5 80.5h2l2 -98h35v492h-40zM157.998 638h259v-37h-259v37z" />
    <glyph glyph-name="Ubreve" unicode="&#x16c;" horiz-adv-x="674" 
d="M337 -13c34.667 0 67.499 5.5 98.499 16.5s58 27.333 81 49s41.167 48.667 54.5 81s20 70.166 20 113.499v435h-41v-430c0 -36 -5.16699 -68 -15.5 -96s-24.833 -51.5 -43.5 -70.5s-41.167 -33.5 -67.5 -43.5s-55.166 -15 -86.499 -15s-60 5 -86 15
s-48.333 24.5 -67 43.5s-33.167 42.5 -43.5 70.5s-15.5 60 -15.5 96v430h-42v-435c0 -43.333 6.66699 -81.166 20 -113.499s31.5 -59.333 54.5 -81s49.833 -38 80.5 -49s63.667 -16.5 99 -16.5zM336.999 763c-29.333 0 -55.999 8.5 -79.999 25.5s-40.333 39.833 -49 68.5
l30 12c7.33301 -22 19.666 -39.333 36.999 -52s38 -19 62 -19c24.667 0 45.5 6.33301 62.5 19s29.167 30 36.5 52l30 -12c-8.66699 -28.667 -25 -51.5 -49 -68.5s-50.667 -25.5 -80 -25.5z" />
    <glyph glyph-name="ubreve" unicode="&#x16d;" horiz-adv-x="585" 
d="M286 573c-29.333 0 -56 8.5 -80 25.5s-40.333 39.833 -49 68.5l30 12c7.33301 -22 19.5 -39.333 36.5 -52s37.833 -19 62.5 -19s45.5 6.33301 62.5 19s29.167 30 36.5 52l30 -12c-8.66699 -28.667 -25 -51.5 -49 -68.5s-50.667 -25.5 -80 -25.5zM497 492l0.00195312 -492
h-35l-2 98h-2c-19.333 -34 -45.833 -60.833 -79.5 -80.5s-71.834 -29.5 -114.501 -29.5c-56.667 0 -101.834 18 -135.501 54s-50.5 88.333 -50.5 157v293h40v-258c0 -72.667 12.5 -125.667 37.5 -159s63.833 -50 116.5 -50c30 0 56.5 5.83301 79.5 17.5s42.333 27 58 46
s27.5 40.667 35.5 65s12 49.5 12 75.5v263h40z" />
    <glyph glyph-name="Uring" unicode="&#x16e;" horiz-adv-x="674" 
d="M337 -13c34.667 0 67.499 5.5 98.499 16.5s58 27.333 81 49s41.167 48.667 54.5 81s20 70.166 20 113.499v435h-41v-430c0 -36 -5.16699 -68 -15.5 -96s-24.833 -51.5 -43.5 -70.5s-41.167 -33.5 -67.5 -43.5s-55.166 -15 -86.499 -15s-60 5 -86 15
s-48.333 24.5 -67 43.5s-33.167 42.5 -43.5 70.5s-15.5 60 -15.5 96v430h-42v-435c0 -43.333 6.66699 -81.166 20 -113.499s31.5 -59.333 54.5 -81s49.833 -38 80.5 -49s63.667 -16.5 99 -16.5zM336.999 960c30.667 0 56.5 -9.66699 77.5 -29s31.5 -44.666 31.5 -75.999
c0 -30.667 -10.333 -55.834 -31 -75.501s-46.667 -29.5 -78 -29.5s-57.333 9.83301 -78 29.5s-31 44.834 -31 75.501c0 31.333 10.333 56.666 31 75.999s46.667 29 78 29zM336.999 778c23.333 0 42.335 7.5 57.002 22.5s22 33.167 22 54.5
c0 22.667 -7.33301 41.167 -22 55.5s-33.667 21.5 -57 21.5c-22.667 0 -41.334 -7.16699 -56.001 -21.5s-22 -32.833 -22 -55.5c0 -21.333 7.16699 -39.5 21.5 -54.5s33.166 -22.5 56.499 -22.5z" />
    <glyph glyph-name="uring" unicode="&#x16f;" horiz-adv-x="585" 
d="M287 771c30.667 0 56.5 -9.83301 77.5 -29.5s31.5 -45.167 31.5 -76.5c0 -30.667 -10.333 -55.834 -31 -75.501s-46.667 -29.5 -78 -29.5s-57.333 9.83301 -78 29.5s-31 44.834 -31 75.501c0 31.333 10.333 56.833 31 76.5s46.667 29.5 78 29.5zM287 588
c23.333 0 42.333 7.5 57 22.5s22 33.5 22 55.5s-7.33301 40.167 -22 54.5s-33.667 21.5 -57 21.5c-22.667 0 -41.5 -7.16699 -56.5 -21.5s-22.5 -32.5 -22.5 -54.5s7.33301 -40.5 22 -55.5s33.667 -22.5 57 -22.5zM497 492l0.00195312 -492h-35l-2 98h-2
c-19.333 -34 -45.833 -60.833 -79.5 -80.5s-71.834 -29.5 -114.501 -29.5c-56.667 0 -101.834 18 -135.501 54s-50.5 88.333 -50.5 157v293h40v-258c0 -72.667 12.5 -125.667 37.5 -159s63.833 -50 116.5 -50c30 0 56.5 5.83301 79.5 17.5s42.333 27 58 46
s27.5 40.667 35.5 65s12 49.5 12 75.5v263h40z" />
    <glyph glyph-name="Uhungarumlaut" unicode="&#x170;" horiz-adv-x="674" 
d="M374 778l114 136l35 -25l-123 -129zM337 -13c34.667 0 67.499 5.5 98.499 16.5s58 27.333 81 49s41.167 48.667 54.5 81s20 70.166 20 113.499v435h-41v-430c0 -36 -5.16699 -68 -15.5 -96s-24.833 -51.5 -43.5 -70.5s-41.167 -33.5 -67.5 -43.5s-55.166 -15 -86.499 -15
s-60 5 -86 15s-48.333 24.5 -67 43.5s-33.167 42.5 -43.5 70.5s-15.5 60 -15.5 96v430h-42v-435c0 -43.333 6.66699 -81.166 20 -113.499s31.5 -59.333 54.5 -81s49.833 -38 80.5 -49s63.667 -16.5 99 -16.5zM248.999 778l114 136l35 -24l-123 -130z" />
    <glyph glyph-name="uhungarumlaut" unicode="&#x171;" horiz-adv-x="585" 
d="M197 588l114 136l35 -24l-123 -130zM322 588l114 136l35 -24l-123 -130zM497 492l0.00195312 -492h-35l-2 98h-2c-19.333 -34 -45.833 -60.833 -79.5 -80.5s-71.834 -29.5 -114.501 -29.5c-56.667 0 -101.834 18 -135.501 54s-50.5 88.333 -50.5 157v293h40v-258
c0 -72.667 12.5 -125.667 37.5 -159s63.833 -50 116.5 -50c30 0 56.5 5.83301 79.5 17.5s42.333 27 58 46s27.5 40.667 35.5 65s12 49.5 12 75.5v263h40z" />
    <glyph glyph-name="Uogonek" unicode="&#x172;" horiz-adv-x="674" 
d="M591 682l-0.000976562 -434.995c0 -33.333 -4.33301 -64.333 -13 -93s-21.5 -54.167 -38.5 -76.5s-38.167 -41 -63.5 -56s-54.666 -25.167 -87.999 -30.5l-24.5 -23c-9 -8.66699 -17.333 -17.834 -25 -27.501s-14 -19.834 -19 -30.501s-7.5 -21.334 -7.5 -32.001
c0 -15.333 4.5 -27.5 13.5 -36.5s21.167 -13.5 36.5 -13.5c9.33301 0 18.666 1.5 27.999 4.5s18 6.83301 26 11.5l11 -22c-11.333 -6.66699 -23.5 -12 -36.5 -16s-25.833 -6 -38.5 -6c-22 0 -40.5 6.33301 -55.5 19s-22.5 30.667 -22.5 54c0 11.333 2.16699 22.333 6.5 33
s10 20.667 17 30s14.5 18.166 22.5 26.499s16 16.166 24 23.499v2h-12c-35.333 0 -67.333 5.33301 -96 16c-32.667 12 -60.167 29.333 -82.5 52s-39.666 50.167 -51.999 82.5s-18.5 68.5 -18.5 108.5v435h42v-430c0 -33.333 4.66699 -63.833 14 -91.5s23 -51.334 41 -71.001
s40.167 -35 66.5 -46s56.5 -16.5 90.5 -16.5s64.333 5.5 91 16.5s49 26.333 67 46s31.667 43.334 41 71.001s14 58.167 14 91.5v430h41z" />
    <glyph glyph-name="uogonek" unicode="&#x173;" horiz-adv-x="585" 
d="M453 -200c-24 0 -42.998 6.83496 -56.998 20.502s-21 31.167 -21 52.5c0 17.333 6.5 36.166 19.5 56.499s35.5 43.833 67.5 70.5l-2 98h-2c-19.333 -34 -45.833 -61 -79.5 -81s-71.834 -30 -114.501 -30c-56.667 0 -101.834 18.167 -135.501 54.5
s-50.5 88.833 -50.5 157.5v293h40v-258c0 -72.667 12.5 -125.667 37.5 -159s63.833 -50 116.5 -50c30 0 56.5 5.83301 79.5 17.5s42.333 27 58 46s27.5 40.667 35.5 65s12 49.5 12 75.5v263h40v-492c-33.333 -29.333 -55.666 -53.333 -66.999 -72s-17 -35.334 -17 -50.001
c0 -14 4.33301 -25.833 13 -35.5s21.334 -14.5 38.001 -14.5c9.33301 0 18.166 1.5 26.499 4.5s17.166 6.83301 26.499 11.5l11 -22c-9.33301 -6 -20.833 -11.167 -34.5 -15.5s-27.167 -6.5 -40.5 -6.5z" />
    <glyph glyph-name="Wcircumflex" unicode="&#x174;" horiz-adv-x="937" 
d="M468 855l-99 -108l-25 18l101 122h46l101 -122l-25 -18zM914 682l-212.003 -682h-43l-154 499c-7.33301 22 -13.666 44 -18.999 66s-11 44 -17 66h-2l-16.5 -66c-5.66699 -22 -11.834 -44 -18.501 -66l-155 -499h-42l-212 682h45l153 -502
c6.66699 -21.333 12.667 -42.5 18 -63.5l16 -63.5h2c22 86.667 46.5 172.167 73.5 256.5l79.5 254.5c6.66699 19.333 12.834 39 18.501 59s11.834 39.667 18.501 59h43c6.66699 -19.333 12.834 -39 18.501 -59l17.5 -59l80 -254.5c26.667 -84.333 51 -169.833 73 -256.5h2
l16 63.5c5.33301 21 11.333 42.167 18 63.5l153 502h46z" />
    <glyph glyph-name="wcircumflex" unicode="&#x175;" horiz-adv-x="739" 
d="M369 665l-99 -108l-25 18l101 122h46l101 -122l-25 -18zM706 492l-153 -492h-41l-142 430h-2l-141 -430h-41l-153 492h43l130 -428h2l141 428h41l141 -428h2l130 428h43z" />
    <glyph glyph-name="Ycircumflex" unicode="&#x176;" horiz-adv-x="653" 
d="M327 855l-99 -108l-25 18l101 122h46l101 -122l-25 -18zM347 0h-41v311l-278 371h52l246 -330h2l245 330h52l-278 -371v-311z" />
    <glyph glyph-name="ycircumflex" unicode="&#x177;" horiz-adv-x="538" 
d="M270 665l-99 -108l-25 18l101 122h46l101 -122l-25 -18zM182 -200c-12.667 0 -24.332 1.16699 -34.999 3.5s-20.667 4.83301 -30 7.5l7 38c9.33301 -3.33301 19 -5.83301 29 -7.5s19.667 -2.5 29 -2.5c21.333 0 38.666 9.5 51.999 28.5s25.666 44.5 36.999 76.5l16 47
l-259 501h46l230 -450h2l160 450h44l-208 -574c-16 -44.667 -33.167 -75.5 -51.5 -92.5s-41.166 -25.5 -68.499 -25.5z" />
    <glyph glyph-name="Ydieresis" unicode="&#x178;" horiz-adv-x="653" 
d="M222 829c0 9.33301 2.83301 17.166 8.5 23.499s13.167 9.5 22.5 9.5s16.833 -3.16699 22.5 -9.5s8.5 -14.166 8.5 -23.499s-2.83301 -17.166 -8.5 -23.499s-13.167 -9.5 -22.5 -9.5s-16.833 3.16699 -22.5 9.5s-8.5 14.166 -8.5 23.499zM373 829
c0 9.33301 2.83301 17.166 8.5 23.499s13.167 9.5 22.5 9.5s16.833 -3.16699 22.5 -9.5s8.5 -14.166 8.5 -23.499s-2.83301 -17.166 -8.5 -23.499s-13.167 -9.5 -22.5 -9.5s-16.833 3.16699 -22.5 9.5s-8.5 14.166 -8.5 23.499zM347 0h-41v311l-278 371h52l246 -330h2
l245 330h52l-278 -371v-311z" />
    <glyph glyph-name="Zacute" unicode="&#x179;" horiz-adv-x="623" 
d="M280 778l114 136l35 -24l-123 -130zM539 40v-40h-476v43l410 597v2h-394v40h444v-43l-410 -597v-2h426z" />
    <glyph glyph-name="zacute" unicode="&#x17a;" horiz-adv-x="480" 
d="M200 588l114 136l35 -24l-123 -130zM407 38v-38h-344v40l284 412v2h-273v38h322v-40l-286 -412v-2h297z" />
    <glyph glyph-name="Zdotaccent" unicode="&#x17b;" horiz-adv-x="623" 
d="M113 40v2l410 597v43h-444v-40h394v-2l-410 -597v-43h476v40h-426zM345 829c0 -8.66699 -2.66699 -15.834 -8 -21.501s-12.333 -8.5 -21 -8.5s-15.667 2.83301 -21 8.5s-8 12.834 -8 21.501s2.66699 15.834 8 21.501s12.333 8.5 21 8.5s15.667 -2.83301 21 -8.5
s8 -12.834 8 -21.501z" />
    <glyph glyph-name="zdotaccent" unicode="&#x17c;" horiz-adv-x="480" 
d="M209 639c0 9.33301 2.83301 17.166 8.5 23.499s13.167 9.5 22.5 9.5s16.833 -3.16699 22.5 -9.5s8.5 -14.166 8.5 -23.499s-2.83301 -17.166 -8.5 -23.499s-13.167 -9.5 -22.5 -9.5s-16.833 3.16699 -22.5 9.5s-8.5 14.166 -8.5 23.499zM407 38v-38h-344v40l284 412v2
h-273v38h322v-40l-286 -412v-2h297z" />
    <glyph glyph-name="Zcaron" unicode="&#x17d;" horiz-adv-x="623" 
d="M113 40v2l410 597v43h-444v-40h394v-2l-410 -597v-43h476v40h-426zM409 905l26 -18l-101 -121h-47l-101 121l26 18l99 -108z" />
    <glyph glyph-name="zcaron" unicode="&#x17e;" horiz-adv-x="480" 
d="M110 38v2l286 412v40h-322v-38h273v-2l-284 -412v-40h344v38h-297zM340 715l26 -18l-101 -121h-47l-101 121l26 18l99 -108z" />
    <glyph glyph-name="florin" unicode="&#x192;" horiz-adv-x="589" 
d="M486 676c-20 0 -36.4951 -4.16699 -49.4951 -12.5s-23.833 -19 -32.5 -32s-15.334 -27.833 -20.001 -44.5s-9 -33 -13 -49l-28 -124h151v-35h-159l-76 -331c-5.33301 -22.667 -11.333 -44.5 -18 -65.5s-15.834 -39.667 -27.501 -56s-26.334 -29.5 -44.001 -39.5
s-39.834 -15 -66.501 -15c-13.333 0 -26.666 1.33301 -39.999 4s-26.666 6.33398 -39.999 11.001l16 37c10.667 -4 21.167 -7.16699 31.5 -9.5s21.166 -3.5 32.499 -3.5c20 0 36.667 4.16699 50 12.5s24.166 19 32.499 32s14.833 27.833 19.5 44.5s9 33 13 49l76 330h-149
v35h157l29 125c4.66699 22.667 10.334 44.5 17.001 65.5s15.834 39.667 27.501 56s26.167 29.5 43.5 39.5s39.666 15 66.999 15c13.333 0 26.666 -1.33301 39.999 -4s26.666 -6.33398 39.999 -11.001l-15 -37c-11.333 4 -22 7.16699 -32 9.5s-21 3.5 -33 3.5z" />
    <glyph glyph-name="Aringacute" unicode="&#x1fa;" horiz-adv-x="695" 
d="M312 1021l113 110l34 -22l-123 -103zM347 960c30.667 0 56.5 -9.83301 77.5 -29.5s31.5 -45.167 31.5 -76.5c0 -30.667 -10.333 -55.834 -31 -75.501s-46.667 -29.5 -78 -29.5s-57.333 9.83301 -78 29.5s-31 44.834 -31 75.501c0 31.333 10.333 56.833 31 76.5
s46.667 29.5 78 29.5zM347 777c23.333 0 42.333 7.5 57 22.5s22 33.5 22 55.5s-7.33301 40.167 -22 54.5s-33.667 21.5 -57 21.5c-22.667 0 -41.5 -7.16699 -56.5 -21.5s-22.5 -32.5 -22.5 -54.5s7.33301 -40.5 22 -55.5s33.667 -22.5 57 -22.5zM520 241l-171 392h-2
l-172 -392h345zM538 201h-381l-87 -201h-47l303 682h43l303 -682h-46z" />
    <glyph glyph-name="aringacute" unicode="&#x1fb;" horiz-adv-x="538" 
d="M233 833l113 109l34 -21l-123 -104zM243 25c25.333 0 48.835 4.33008 70.502 12.9971s40.334 20.834 56.001 36.501s28 34.334 37 56.001s13.5 45.5 13.5 71.5v60c-53.333 11.333 -105.666 17 -156.999 17c-20.667 0 -40.834 -2.16699 -60.501 -6.5
s-37.334 -11.5 -53.001 -21.5s-28.167 -23.167 -37.5 -39.5s-14 -36.166 -14 -59.499c0 -20.667 4 -39 12 -55s18.667 -29.333 32 -40s28.666 -18.667 45.999 -24s35.666 -8 54.999 -8zM266.002 504.997c67.333 0 116.501 -16.8311 147.501 -50.498
s46.5 -80.167 46.5 -139.5v-315h-34l-2 92h-2c-17.333 -32 -41.833 -57.5 -73.5 -76.5s-68.834 -28.5 -111.501 -28.5c-26.667 0 -51 4 -73 12s-40.833 19.167 -56.5 33.5s-27.834 31.666 -36.501 51.999s-13 42.833 -13 67.5c0 52 17.5 92.333 52.5 121s84.167 43 147.5 43
c28 0 54.833 -1.33301 80.5 -4s52.834 -6.33398 81.501 -11.001v17c0 46 -12.167 82.333 -36.5 109s-63.5 40 -117.5 40c-30 0 -59.833 -4.83301 -89.5 -14.5s-57.167 -22.167 -82.5 -37.5l-21 37c27.333 14.667 57.5 27.167 90.5 37.5s67.167 15.5 102.5 15.5z
M271.003 770.999c30.667 0 56.5 -9.83301 77.5 -29.5s31.5 -45.167 31.5 -76.5c0 -30.667 -10.333 -55.834 -31 -75.501s-46.667 -29.5 -78 -29.5s-57.333 9.83301 -78 29.5s-31 44.834 -31 75.501c0 31.333 10.333 56.833 31 76.5s46.667 29.5 78 29.5zM271.003 587.999
c23.333 0 42.333 7.5 57 22.5s22 33.5 22 55.5s-7.33301 40.167 -22 54.5s-33.667 21.5 -57 21.5c-22.667 0 -41.5 -7.16699 -56.5 -21.5s-22.5 -32.5 -22.5 -54.5s7.33301 -40.5 22 -55.5s33.667 -22.5 57 -22.5z" />
    <glyph glyph-name="AEacute" unicode="&#x1fc;" horiz-adv-x="1098" 
d="M604 778l114 136l35 -24l-123 -130zM273 241h340l-21 401h-2l-317 -399v-2zM1025 40v-40h-400l-10 201h-375l-159 -201h-58l546 682h447v-40h-382l14 -271h340v-40h-338l14 -291h361z" />
    <glyph glyph-name="aeacute" unicode="&#x1fd;" horiz-adv-x="935" 
d="M422 588l114 136l35 -24l-123 -130zM243 25c25.333 0 48.8359 4.33105 70.5029 12.998s40.334 20.834 56.001 36.501s28 34.334 37 56.001s13.5 45.5 13.5 71.5v60c-26 5.33301 -52.167 9.66602 -78.5 12.999s-52.5 5 -78.5 5c-20.667 0 -40.834 -2.33301 -60.501 -7
s-37.334 -12 -53.001 -22s-28.167 -23.167 -37.5 -39.5s-14 -36.166 -14 -59.499c0 -20.667 4 -39 12 -55s18.667 -29.333 32 -40s28.666 -18.667 45.999 -24s35.666 -8 54.999 -8zM652.003 464.998c-28.667 0 -54.335 -5 -77.002 -15s-42.167 -23.667 -58.5 -41
s-29.166 -37.666 -38.499 -60.999s-15 -48.666 -17 -75.999h373c-1.33301 27.333 -6.16602 52.666 -14.499 75.999s-20 43.666 -35 60.999s-33.667 31 -56 41s-47.833 15 -76.5 15zM875.002 272.998c0 -7.33301 -0.169922 -14.1738 -0.50293 -20.5068
s-0.833008 -12.833 -1.5 -19.5h-413c1.33301 -29.333 6.83301 -56.5 16.5 -81.5s23.167 -46.833 40.5 -65.5s38.166 -33.167 62.499 -43.5s51.5 -15.5 81.5 -15.5c32 0 62.167 7 90.5 21s52.833 32.667 73.5 56l29 -28c-25.333 -29.333 -55.166 -51.5 -89.499 -66.5
s-70.5 -22.5 -108.5 -22.5c-46 0 -87.5 11.833 -124.5 35.5s-65.167 56.167 -84.5 97.5h-2c-8.66699 -21.333 -20.167 -40.166 -34.5 -56.499s-30.666 -30.166 -48.999 -41.499s-38.166 -20 -59.499 -26s-43 -9 -65 -9c-25.333 0 -48.833 3.66699 -70.5 11
s-40.5 18 -56.5 32s-28.667 31.333 -38 52s-14 44 -14 70c0 29.333 5.5 54.5 16.5 75.5s25.667 38.167 44 51.5s39.5 23 63.5 29s49.333 9 76 9c27.333 0 54.333 -1.5 81 -4.5s53.667 -6.83301 81 -11.5v17c0 50.667 -13.667 88.167 -41 112.5s-65.666 36.5 -114.999 36.5
c-30 0 -59.333 -5.16699 -88 -15.5s-55.667 -23.166 -81 -38.499l-22 39c29.333 15.333 59.833 28 91.5 38s64.5 15 98.5 15c22 0 42.833 -2.16699 62.5 -6.5s37.667 -11.166 54 -20.499s30.666 -21.666 42.999 -36.999s21.5 -34.333 27.5 -57h2c20 38 47.333 67.5 82 88.5
s73.667 31.5 117 31.5c34 0 64.833 -5.83301 92.5 -17.5s51.334 -27.667 71.001 -48s34.667 -44.666 45 -72.999s15.5 -59.166 15.5 -92.499z" />
    </font>
</defs>
</svg>
