<?xml version="1.0" encoding="utf-8"?>
<!-- Generator: Adobe Illustrator 18.0.0, SVG Export Plug-In . SVG Version: 6.00 Build 0)  -->
<!DOCTYPE svg PUBLIC "-//W3C//DTD SVG 1.1//EN" "http://www.w3.org/Graphics/SVG/1.1/DTD/svg11.dtd">
<svg version="1.1" id="Capa_1" xmlns="http://www.w3.org/2000/svg" xmlns:xlink="http://www.w3.org/1999/xlink" x="0px" y="0px"
	 viewBox="0 0 1920 1080" enable-background="new 0 0 1920 1080" xml:space="preserve">
<g>
	<defs>
		<rect id="SVGID_16_" x="-5.9" y="-2.9" width="1932.9" height="1085.9"/>
	</defs>
	<clipPath id="SVGID_2_">
		<use xlink:href="#SVGID_16_"  overflow="visible"/>
	</clipPath>
	<rect x="-34.1" y="-4.4" clip-path="url(#SVGID_2_)" fill="#B9DFE2" width="2015.6" height="1073.9"/>
	<rect x="-52.1" y="425.9" clip-path="url(#SVGID_2_)" fill="#78B83C" width="2052.6" height="700.5"/>
	<rect x="-15.4" y="506.1" clip-path="url(#SVGID_2_)" fill="#F9E9D7" width="1953.4" height="577"/>
	<path clip-path="url(#SVGID_2_)" fill="#FFFFFF" d="M1456.8,170.7c0,0,10.3-18.8-12.2-25.8c-22.6-7-50.3,4.2-61.1-10.3
		c-10.8-14.6-12.5-47-77.1-41.8c-41.4,3.3-47.6,55.2-82.7,51.2c-66.3-7.5-58.9,26.9-58.9,26.9L1456.8,170.7z"/>
	<path clip-path="url(#SVGID_2_)" fill="#FFFFFF" d="M674.7,189.7c0,0,5.3-9.7-6.3-13.4c-11.7-3.6-26,2.2-31.6-5.3
		c-5.6-7.5-6.5-24.3-39.9-21.6c-21.4,1.7-24.6,28.6-42.8,26.5c-34.3-3.9-30.5,13.9-30.5,13.9L674.7,189.7z"/>
	<g clip-path="url(#SVGID_2_)">
		<path fill="#908D81" d="M559.4,470.2L559.4,470.2c-1,0-1.8-0.8-1.8-1.8v-86.7c0-1,0.8-1.8,1.8-1.8l0,0c1,0,1.8,0.8,1.8,1.8v86.7
			C561.2,469.4,560.4,470.2,559.4,470.2z"/>
		<path fill="#9BC44C" d="M540.1,470.4c0,0,3.5-11.1,19.5-9.7c15.9,1.4,8.6-9.3,24.2-10.4c24-1.8,26.8,20.3,26.8,20.3L540.1,470.4z"
			/>
		<g>
			<path fill="#9BC44C" d="M567.4,385.7c0.9,0.3,2,0.6,3.1,0.9c-0.2-0.2-0.4-0.3-0.6-0.4C569.2,385.6,568.4,385.5,567.4,385.7z"/>
			<path fill="#9BC44C" d="M584.7,303.3c-2.1-0.3-4-0.1-5.9,0.1c0.5,0.1,1,0.2,1.6,0.2C581.8,303.8,583.2,303.6,584.7,303.3z"/>
			<path fill="#9BC44C" d="M601.1,343.5c-4.9-7,3.1-20.8-4.2-30.9c-4.5-6.3-8.5-8.6-12.2-9.2c-1.5,0.2-2.9,0.4-4.3,0.4
				c-0.6,0-1.1-0.1-1.6-0.2c-2.3,0.4-4.6,0.9-7,0.8c-7.6-0.3-7.9-11-17.6-13c-0.4-0.1-3-0.5-6.4-0.5c-7.6,0.1-19.4,2.4-20.7,15.6
				c-1.8,19.2,0,18.5-15.8,30.7c-15.5,11.9-21.8,45.6,6,52.1c0.5,0.1,0.9,0.2,1.4,0.3c29.4,5.7,38.1-10.3,42.6-6.5
				c0.9,0.7,3.1,1.8,6.1,2.8c1-0.2,1.8-0.1,2.5,0.5c0.2,0.1,0.4,0.3,0.6,0.4c13.2,3.7,33.8,4.7,38.4-10.4
				C615.4,354.4,606.8,351.7,601.1,343.5z"/>
		</g>
	</g>
	<g clip-path="url(#SVGID_2_)">
		<polygon opacity="0.8" fill="#F9E9D7" points="1878.2,859.4 1754.2,859.4 1759.2,818.9 1871.2,818.9 		"/>
		<rect x="1764.3" y="769.2" fill="#D7B86F" width="103.1" height="78.7"/>
		<g>
			<path fill="#78B83C" d="M1776.9,772.9c-12,0.9-16.3-15.4-6.8-17.3c13.1-2.6,13.7,3.3,18.1-0.3c4.4-3.6,10.2-23,27-23.4
				c16.4-0.4,21.4,11.2,24.4,19c3,7.8,1.7,5.8,8.2,0.9c4.4-3.3,12.7-1.9,16.5,4.5c4.3,7,2.3,10.3-2.3,15.7c-2.9,3.4,3.6-0.1-6.2,1.6
				S1796.6,771.4,1776.9,772.9z"/>
			<ellipse fill="#78B83C" cx="1786.6" cy="754.7" rx="10.1" ry="9.4"/>
		</g>
		<rect x="1760.8" y="764.2" fill="#C3A365" width="110" height="12.3"/>
		<rect x="1753.2" y="859.7" opacity="0.56" fill="#C3A365" width="125.5" height="5.5"/>
	</g>
	<g clip-path="url(#SVGID_2_)">
		<g>
			<path fill="#F9E9D7" d="M1504.4,806.8c3.2,0,3.2-5,0-5C1501.1,801.8,1501.1,806.8,1504.4,806.8L1504.4,806.8z"/>
		</g>
	</g>
	<rect x="-1" y="-1" clip-path="url(#SVGID_2_)" fill="none" width="1922" height="1082"/>
	<g id="Capa_2_2_" clip-path="url(#SVGID_2_)">
		<g>
			<g>
				<polygon fill="#FF6371" points="524.5,660.2 528,627.1 520.2,627.1 512.4,627.1 515.9,660.2 				"/>
				<polygon fill="#CE5264" points="515.6,656.9 515.9,660.2 524.5,660.2 524.8,656.9 				"/>
			</g>
			<g>
				<polygon fill="#FF6371" points="661.2,660.2 664.7,627.1 657,627.1 649.2,627.1 652.7,660.2 				"/>
				<polygon fill="#CE5264" points="652.4,656.9 652.7,660.2 661.2,660.2 661.6,656.9 				"/>
			</g>
			<rect x="516.9" y="564.3" fill="#CE526A" width="6.6" height="51.8"/>
			<rect x="653.7" y="564.3" fill="#CE526A" width="6.6" height="51.8"/>
			<g>
				<g>
					<path fill="#D85669" d="M672.5,575.7v-12.9c0-2.8-1.9-5.2-4.3-5.2H508.9c-2.3,0-4.3,2.3-4.3,5.2v13L672.5,575.7L672.5,575.7z"
						/>
					<path fill="#FF6371" d="M672.5,562.8c0-0.5,0-0.9-0.1-1.3c-0.5-0.3-1.1-0.5-1.7-0.5H506.6c-0.6,0-1.2,0.1-1.7,0.5
						c-0.1,0.4-0.1,0.8-0.1,1.3v13h167.8V562.8z"/>
				</g>
				<g>
					<circle fill="#CE5264" cx="657" cy="568.3" r="2.1"/>
					<circle fill="#CE5264" cx="520.2" cy="568.3" r="2.1"/>
				</g>
			</g>
			<g>
				<rect x="504.7" y="578.7" fill="#FF6371" width="167.9" height="14.8"/>
				<g>
					<path fill="#CE5264" d="M659.1,586.1c0,1.2-1,2.1-2.1,2.1c-1.2,0-2.1-1-2.1-2.1s1-2.1,2.1-2.1C658.1,584,659.1,585,659.1,586.1
						z"/>
					<path fill="#CE5264" d="M522.3,586.1c0,1.2-1,2.1-2.1,2.1c-1.2,0-2.1-1-2.1-2.1s1-2.1,2.1-2.1C521.4,584,522.3,585,522.3,586.1
						z"/>
				</g>
			</g>
			<g>
				<rect x="504.7" y="596.8" fill="#FF6371" width="167.9" height="14.8"/>
				<g>
					<path fill="#CE5264" d="M659.1,604.2c0,1.2-1,2.1-2.1,2.1c-1.2,0-2.1-1-2.1-2.1c0-1.2,1-2.1,2.1-2.1S659.1,603,659.1,604.2z"/>
					<path fill="#CE5264" d="M522.3,604.2c0,1.2-1,2.1-2.1,2.1c-1.2,0-2.1-1-2.1-2.1c0-1.2,1-2.1,2.1-2.1S522.3,603,522.3,604.2z"/>
				</g>
			</g>
			<polygon fill="#FF6371" points="679.6,624.3 497.6,624.3 504.7,614.4 672.5,614.4 			"/>
			<rect x="497.6" y="624.3" fill="#D85669" width="182" height="5.6"/>
		</g>
	</g>
	<rect x="-1" y="-1" clip-path="url(#SVGID_2_)" fill="none" width="1928" height="1084"/>
	<g clip-path="url(#SVGID_2_)">
		<g>
			<g>
				<g>
					<rect x="86.4" y="205.1" fill="#E1E1E1" width="356.3" height="496.2"/>
					<rect x="86.3" y="205.3" fill="#CCCFD2" width="356.5" height="46"/>
					<rect x="324.2" y="251.5" fill="#DDF0F7" width="118.8" height="451.1"/>
					<rect x="323.9" y="291.5" fill="#DDF0F7" width="118.5" height="1.4"/>
					<rect x="323.9" y="334.5" fill="#DDF0F7" width="118.5" height="1.4"/>
					<rect x="323.9" y="377.6" fill="#DDF0F7" width="118.5" height="1.4"/>
					<rect x="358.1" y="251.5" fill="#DDF0F7" width="1.4" height="451.5"/>
					<rect x="400.1" y="251.5" fill="#DDF0F7" width="1.4" height="451.5"/>
					<rect x="323.9" y="424.9" fill="#DDF0F7" width="118.5" height="1.4"/>
					<rect x="323.9" y="467.9" fill="#DDF0F7" width="118.5" height="1.4"/>
					<rect x="323.9" y="511" fill="#DDF0F7" width="118.5" height="1.4"/>
					<rect x="323.9" y="558.3" fill="#DDF0F7" width="118.5" height="1.4"/>
					<rect x="323.9" y="601.4" fill="#DDF0F7" width="118.5" height="1.4"/>
					<rect x="323.9" y="644.4" fill="#DDF0F7" width="118.5" height="1.4"/>
					<rect x="86.3" y="672.7" fill="#CCCFD2" width="237.9" height="30.1"/>
					
						<rect x="149.4" y="217.6" fill="#DDF0F7" stroke="#D0D0D0" stroke-width="3.8733" stroke-miterlimit="10" width="142" height="331.8"/>
					<polygon fill="#DDC6B3" points="288.2,547.6 271,567.6 270.8,550 288.2,529.1 					"/>
					<polyline fill="#DDF0F7" stroke="#D0D0D0" stroke-width="3.8733" stroke-miterlimit="10" points="172.9,702.6 172.9,574.5 
						265,574.5 265,702.6 					"/>
					<rect x="139.1" y="221.6" fill="#E1C9B6" width="8.4" height="495.3"/>
					<polygon fill="#D3BCAD" points="157.2,701.9 147.3,716.1 147.3,213.5 157.2,205.3 					"/>
					<polygon fill="#D3BCAD" points="287.4,698 297.3,712.2 297.3,209.6 287.4,201.4 					"/>
					<rect x="297.3" y="222.3" fill="#E1C9B6" width="8.4" height="490.2"/>
					<polygon fill="#EED8CA" points="305.5,214.9 139,214.9 148.4,204.8 299.9,204.8 					"/>
					<rect x="139.1" y="214.1" fill="#E1CDC2" width="166.3" height="8.4"/>
					<rect x="152" y="471.7" fill="#C9C9C9" width="139" height="8.6"/>
					<rect x="152" y="427.8" fill="#C9C9C9" width="139" height="8.6"/>
					<rect x="152" y="377" fill="#C9C9C9" width="139" height="8.6"/>
					<rect x="152" y="333.1" fill="#C9C9C9" width="139" height="8.6"/>
					<rect x="152" y="290.9" fill="#C9C9C9" width="139" height="8.6"/>
					<rect x="152" y="247" fill="#C9C9C9" width="139" height="8.6"/>
					<g>
						<polygon fill="#EAD1C1" points="455.7,202.2 65.3,202.2 130.3,154.7 397.8,154.6 						"/>
						<rect x="66.4" y="201.9" fill="#E1C9B6" width="389.3" height="7.9"/>
					</g>
					<polygon fill="#E5F4F9" points="160.9,260.1 160.9,287.5 276.1,260.1 					"/>
					<polygon fill="#E5F4F9" points="161.8,227.4 161.8,243.6 277,227.4 					"/>
					<polygon fill="#E5F4F9" points="328.3,257.1 328.3,273.3 355.3,257.1 					"/>
					<polygon fill="#E5F4F9" points="328.3,297.3 328.3,313.5 355.3,297.3 					"/>
					<polygon fill="#E5F4F9" points="329.4,339.3 329.4,355.5 356.4,339.3 					"/>
					<polygon fill="#E5F4F9" points="327.9,384 327.9,400.2 354.9,384 					"/>
					<polygon fill="#E5F4F9" points="328.8,430.9 328.8,447.1 355.7,430.9 					"/>
					<polygon fill="#E5F4F9" points="328.8,473.8 328.8,490 355.7,473.8 					"/>
					<polygon fill="#E5F4F9" points="363.2,474.2 363.2,490.4 390.2,474.2 					"/>
					<polygon fill="#E5F4F9" points="364.1,431.1 364.1,447.4 391,431.1 					"/>
					<polygon fill="#E5F4F9" points="364.9,383.8 364.9,400 391.9,383.8 					"/>
					<polygon fill="#E5F4F9" points="406,384 406,400.2 433,384 					"/>
					<polygon fill="#E5F4F9" points="366.6,341.3 366.6,357.6 393.6,341.3 					"/>
					<polygon fill="#E5F4F9" points="407.7,341.6 407.7,357.8 434.7,341.6 					"/>
					<polygon fill="#E5F4F9" points="366.1,297.4 366.1,313.7 393,297.4 					"/>
					<polygon fill="#E5F4F9" points="407.2,297.7 407.2,313.9 434.1,297.7 					"/>
					<polygon fill="#E5F4F9" points="364.6,257.6 364.6,273.8 391.6,257.6 					"/>
					<polygon fill="#E5F4F9" points="405.7,257.8 405.7,274 432.7,257.8 					"/>
					<polygon fill="#E5F4F9" points="406.2,431.6 406.2,447.8 433.2,431.6 					"/>
					<polygon fill="#E5F4F9" points="405.6,474.6 405.6,490.8 432.6,474.6 					"/>
					<polygon fill="#E5F4F9" points="328.1,564.3 328.1,580.6 355.1,564.3 					"/>
					<polygon fill="#E5F4F9" points="362.5,564.8 362.5,581 389.5,564.8 					"/>
					<polygon fill="#E5F4F9" points="404.9,565.2 404.9,581.4 431.9,565.2 					"/>
					<polygon fill="#E5F4F9" points="327.5,648.9 327.5,665.1 354.5,648.9 					"/>
					<polygon fill="#E5F4F9" points="362,649.3 362,665.6 388.9,649.3 					"/>
					<polygon fill="#E5F4F9" points="404.4,649.8 404.4,666 431.3,649.8 					"/>
					<polygon fill="#E5F4F9" points="160.6,302 160.6,329.4 275.8,302 					"/>
					<polygon fill="#E5F4F9" points="161.2,345.3 161.2,372.7 276.4,345.3 					"/>
					<polygon fill="#E5F4F9" points="162.6,391.8 162.6,419.2 277.8,391.8 					"/>
					<polygon fill="#E5F4F9" points="163.2,441.4 163.2,468.8 278.4,441.4 					"/>
					<polygon fill="#E5F4F9" points="163.8,486.4 163.8,513.8 279,486.4 					"/>
					<polygon opacity="0.65" fill="#EC6C4B" points="442.8,644.8 324.2,644.8 324.2,593.1 442.8,593.1 					"/>
					<rect x="133" y="549.4" fill="#E8D0BA" width="177.6" height="18.7"/>
					<polygon fill="#EAD5C7" points="309.9,550 132,550 158.3,529.3 288.6,529.3 					"/>
				</g>
			</g>
		</g>
	</g>
	<g clip-path="url(#SVGID_2_)">
		<g>
			<path fill="#1D1D1B" d="M1479.8,500.1h-41.6v-41.6h41.6V500.1z M1439.2,499.1h39.7v-39.7h-39.7V499.1z"/>
			<g>
				<rect x="1478.5" y="302.3" fill="#DBDBDB" width="123.3" height="359.8"/>
				<polygon fill="#CECDCE" points="1601.5,307.8 1478.6,307.8 1479,286.1 1601.5,286.5 				"/>
				<rect x="1478.1" y="644.2" fill="#CACACA" width="123.1" height="18.2"/>
				<path opacity="0.2" fill="#1D1D1B" d="M1598.5,560.7h-116.9c-0.3,0-0.6-0.3-0.6-0.6s0.3-0.6,0.6-0.6h116.9
					c0.3,0,0.6,0.3,0.6,0.6S1598.8,560.7,1598.5,560.7z"/>
				<g>
					<polygon fill="#DBDBDB" points="1585,300 1492.6,300 1492.6,213 1492.6,183.9 1585,183.9 1585,210.3 					"/>
					<g>
						<polygon fill="#DBDEE4" points="1489.6,99.2 1416.4,112 1463.8,137.2 1623.3,137.2 1656.5,111.7 1600.1,98.9 						"/>
						<polygon fill="#CBCED7" points="1656.2,176.5 1602.8,189.1 1602.6,122.6 1656.4,111.5 						"/>
						<polygon fill="#CBCED7" points="1463.8,189.1 1416.9,175.1 1416.4,112.4 1463.8,122.3 						"/>
						<rect x="1463.8" y="122.3" fill="#CBCED7" width="139" height="66.8"/>
						<rect x="1463.7" y="139.7" fill="#1E7DBD" width="136.4" height="31.2"/>
						<polygon fill="#1E7DBD" points="1463.7,171.2 1416.7,157.5 1416.6,128.2 1463.7,139.7 						"/>
						<polygon fill="#1E7DBD" points="1599.9,171.6 1656,159.3 1656,128.1 1599.8,139.6 						"/>
						<rect x="1433.9" y="132.1" fill="#ADAFB2" width="1.5" height="31.4"/>
						<rect x="1553.8" y="138.2" fill="#BEC1C6" width="1.5" height="33.8"/>
						<rect x="1504.7" y="138.7" fill="#BEC1C6" width="1.5" height="33.8"/>
						<rect x="1463.5" y="137.8" fill="#BEC1C6" width="136.7" height="2.7"/>
						<polygon fill="#BEC1C6" points="1656.2,128.8 1600.1,140.5 1599.8,137.8 1656.2,126.1 						"/>
						<polygon fill="#BEC1C6" points="1656.2,161.1 1599.6,172.8 1599.6,170.1 1656.2,158.8 						"/>
						<polygon fill="#ADAFB2" points="1416.5,126.5 1416.5,129.3 1463.5,140.5 1463.5,137.8 						"/>
						<polygon fill="#ADAFB2" points="1416.8,156 1416.8,159.2 1463.7,172.6 1463.7,169.9 						"/>
						<g>
							<rect x="1459.1" y="71.1" fill="#CCCFD2" width="148.3" height="44.3"/>
							<g>
								<polygon fill="#D5D8DB" points="1607.5,71.1 1458.8,71.1 1486.8,64.6 1584.7,64.6 								"/>
								<rect x="1458.8" y="71.1" opacity="0.36" fill="#CCCFD2" width="148.7" height="6.8"/>
								<g opacity="0.27">
									<rect x="1489.4" y="85.7" fill="#616160" width="20.7" height="21.8"/>
									<rect x="1494" y="85.7" fill="#7C7C7C" width="15.9" height="19.9"/>
								</g>
								<g opacity="0.27">
									<rect x="1523.6" y="85.5" fill="#616160" width="20.7" height="21.8"/>
									<rect x="1528.1" y="85.5" fill="#7C7C7C" width="15.9" height="19.9"/>
								</g>
								<g opacity="0.27">
									<rect x="1558.6" y="85.4" fill="#616160" width="20.7" height="21.8"/>
									<rect x="1563.2" y="85.4" fill="#7C7C7C" width="15.9" height="19.9"/>
								</g>
							</g>
						</g>
						<rect x="1463.3" y="170.2" fill="#BEC1C6" width="136.5" height="2.7"/>
						<rect x="1638.9" y="131.2" fill="#BEC1C6" width="1.5" height="31.4"/>
						<rect x="1463" y="137.9" fill="#BEC1C6" width="1.5" height="34.5"/>
						<rect x="1599.3" y="138.1" fill="#BEC1C6" width="1.5" height="34.5"/>
					</g>
					<path opacity="0.2" fill="#1D1D1B" d="M1582.1,221h-87.2c-0.3,0-0.6-0.3-0.6-0.6s0.3-0.6,0.6-0.6h87.2c0.3,0,0.6,0.3,0.6,0.6
						S1582.4,221,1582.1,221z"/>
					<polygon opacity="0.7" fill="#DBDBDB" points="1492.6,213.8 1492.6,189 1584.6,189 					"/>
					<path opacity="0.2" fill="#1D1D1B" d="M1582.1,263.2h-87.2c-0.3,0-0.6-0.3-0.6-0.6c0-0.3,0.3-0.6,0.6-0.6h87.2
						c0.3,0,0.6,0.3,0.6,0.6C1582.7,263,1582.4,263.2,1582.1,263.2z"/>
				</g>
				<g>
					<g>
						<rect x="1485.3" y="330.7" fill="#DDF0F7" width="108" height="55.9"/>
						<rect x="1484.4" y="329.9" fill="#C9C9C9" width="109.8" height="3.2"/>
						<polygon fill="#E9F5FA" points="1584.7,379.9 1493.4,379.9 1493.4,339.6 						"/>
					</g>
					<g>
						<rect x="1485.3" y="393.2" fill="#DDF0F7" width="108" height="55.9"/>
						<rect x="1484.4" y="392.4" fill="#C9C9C9" width="109.8" height="3.2"/>
						<polygon fill="#E9F5FA" points="1584.7,442.1 1493.4,442.1 1493.4,401.8 						"/>
					</g>
					<g>
						<rect x="1485.3" y="455.8" fill="#DDF0F7" width="108" height="55.9"/>
						<polygon fill="#E9F5FA" points="1584.7,505 1493.4,505 1493.4,464.7 						"/>
						<rect x="1484.4" y="454.8" fill="#C9C9C9" width="109.8" height="3.2"/>
					</g>
				</g>
			</g>
			<g>
				<g>
					<rect x="1235.8" y="201.4" fill="#E1E1E1" width="243.9" height="501.1"/>
					<g>
						<rect x="1277.9" y="202" fill="#EC6C4B" width="155.9" height="55.9"/>
						<polygon fill="#E3E3E4" points="1479.9,201.7 1236,201.7 1259.9,194.5 1451.4,194.6 						"/>
						<rect x="1277.9" y="257.9" fill="#1E7DBD" width="155.9" height="313.4"/>
						<rect x="1277.8" y="301.1" fill="#8FCACC" width="155.9" height="4.5"/>
						<rect x="1277.8" y="346.9" fill="#8FCACC" width="155.9" height="4.5"/>
						<g>
							<polyline fill="#DDF0F7" points="1287.8,702.6 1287.8,589.1 1425.1,589.1 1425.1,702.2 							"/>
							<polygon fill="#D0D0D0" points="1289.5,702.6 1286,702.6 1286,587.4 1426.8,587.4 1426.8,702.2 1423.3,702.2 1423.3,590.9 
								1289.5,590.9 							"/>
						</g>
						<rect x="1285.7" y="580.2" fill="#AFAFAF" width="141.8" height="22.5"/>
						<g>
							<polygon fill="#228AC4" points="1317.7,296.1 1285.5,296.1 1285.5,266.5 							"/>
							<polygon fill="#228AC4" points="1354.6,296.1 1322.3,296.1 1322.3,266.5 							"/>
							<polygon fill="#228AC4" points="1391.6,295.7 1359.3,295.7 1359.3,266.1 							"/>
							<polygon fill="#228AC4" points="1427.6,296.1 1395.3,296.1 1395.3,266.5 							"/>
						</g>
						<g>
							<polygon fill="#228AC4" points="1317.7,341.6 1285.5,341.6 1285.5,312 							"/>
							<polygon fill="#228AC4" points="1354.6,341.6 1322.3,341.6 1322.3,312 							"/>
							<polygon fill="#228AC4" points="1391.6,341.2 1359.3,341.2 1359.3,311.6 							"/>
							<polygon fill="#228AC4" points="1427.6,341.6 1395.3,341.6 1395.3,312 							"/>
						</g>
						<g>
							<polygon fill="#228AC4" points="1319.7,386.5 1287.4,386.5 1287.4,356.9 							"/>
							<polygon fill="#228AC4" points="1356.5,386.5 1324.3,386.5 1324.3,356.9 							"/>
							<polygon fill="#228AC4" points="1393.5,386.1 1361.3,386.1 1361.3,356.6 							"/>
							<polygon fill="#228AC4" points="1429.5,386.5 1397.3,386.5 1397.3,356.9 							"/>
						</g>
						<g>
							<polygon fill="#228AC4" points="1317.7,521.8 1285.5,521.8 1285.5,492.3 							"/>
							<polygon fill="#228AC4" points="1354.6,521.8 1322.3,521.8 1322.3,492.3 							"/>
							<polygon fill="#228AC4" points="1391.6,521.8 1359.3,521.8 1359.3,492.3 							"/>
							<polygon fill="#228AC4" points="1427.6,521.8 1395.3,521.8 1395.3,492.3 							"/>
						</g>
						<g>
							<polygon fill="#228AC4" points="1317.7,565.6 1285.5,565.6 1285.5,536.1 							"/>
							<polygon fill="#228AC4" points="1354.6,565.6 1322.3,565.6 1322.3,536.1 							"/>
							<polygon fill="#228AC4" points="1391.6,565.6 1359.3,565.6 1359.3,536.1 							"/>
							<polygon fill="#228AC4" points="1427.6,566 1395.3,566 1395.3,536.5 							"/>
						</g>
						<rect x="1277.8" y="526.9" fill="#8FCACC" width="155.9" height="4.5"/>
						<rect x="1236.5" y="301.8" fill="#E9E9EA" width="41.1" height="2.3"/>
						<rect x="1236.5" y="347.9" fill="#E9E9EA" width="41.1" height="2.3"/>
						<rect x="1236.5" y="393.9" fill="#E9E9EA" width="41.1" height="2.3"/>
						<rect x="1236.5" y="439.4" fill="#E9E9EA" width="41.1" height="2.3"/>
						<rect x="1236.5" y="483.2" fill="#E9E9EA" width="41.1" height="2.3"/>
						<rect x="1236.5" y="528.1" fill="#E9E9EA" width="41.1" height="2.3"/>
						<g>
							<rect x="1433.9" y="301.8" fill="#E9E9EA" width="45.5" height="2.3"/>
							<rect x="1433.9" y="347.9" fill="#E9E9EA" width="45.5" height="2.3"/>
							<rect x="1433.9" y="393.9" fill="#E9E9EA" width="45.5" height="2.3"/>
							<rect x="1433.9" y="439.4" fill="#E9E9EA" width="45.5" height="2.3"/>
							<rect x="1433.9" y="483.2" fill="#E9E9EA" width="45.5" height="2.3"/>
							<rect x="1433.9" y="528.1" fill="#E9E9EA" width="45.5" height="2.3"/>
						</g>
						<rect x="1235.5" y="684.9" fill="#CACACA" width="54.2" height="18.2"/>
						<rect x="1422.7" y="685" fill="#CACACA" width="57.1" height="18"/>
						<rect x="1352.8" y="602.7" opacity="0.45" fill="#AECBDB" width="5.3" height="99.8"/>
						<rect x="1289.6" y="699.6" fill="#AECBDB" width="133" height="3.1"/>
						<polygon fill="#E9F5FA" points="1365.2,613.7 1415.8,613.6 1415.9,692.3 						"/>
						<polygon fill="#E9F5FA" points="1347.9,694.1 1296.8,694.1 1296.8,613.1 						"/>
						<polygon fill="#E9F5FA" points="1327,612.8 1346.3,637.1 1346.3,612.7 						"/>
						<polygon fill="#E9F5FA" points="1386.9,692.8 1367.9,668.3 1367.6,692.7 						"/>
						<rect x="1277.8" y="391.6" fill="#8FCACC" width="155.9" height="4.5"/>
						<g>
							<polygon fill="#228AC4" points="1319.7,431.2 1287.4,431.2 1287.4,401.6 							"/>
							<polygon fill="#228AC4" points="1356.5,431.2 1324.3,431.2 1324.3,401.6 							"/>
							<polygon fill="#228AC4" points="1393.5,430.8 1361.3,430.8 1361.3,401.3 							"/>
							<polygon fill="#228AC4" points="1429.5,431.2 1397.3,431.2 1397.3,401.6 							"/>
						</g>
						<rect x="1277.8" y="436.3" fill="#8FCACC" width="155.9" height="4.5"/>
						<g>
							<polygon fill="#228AC4" points="1319.7,475.9 1287.4,475.9 1287.4,446.3 							"/>
							<polygon fill="#228AC4" points="1356.5,475.9 1324.3,475.9 1324.3,446.3 							"/>
							<polygon fill="#228AC4" points="1393.5,475.5 1361.3,475.5 1361.3,446 							"/>
							<polygon fill="#228AC4" points="1429.5,475.9 1397.3,475.9 1397.3,446.3 							"/>
						</g>
						<rect x="1277.8" y="481" fill="#8FCACC" width="155.9" height="4.5"/>
					</g>
				</g>
			</g>
			<polygon fill="#228AC4" points="1552,168.1 1509.2,168.1 1509.2,143.1 			"/>
			<polygon fill="#228AC4" points="1503.5,167.8 1467.2,167.8 1467.2,142.8 			"/>
			<polygon fill="#228AC4" points="1460.7,166.6 1437.7,160.1 1437.2,136.7 			"/>
			<polygon fill="#228AC4" points="1432.7,158.3 1416.5,153.8 1416.4,131.2 			"/>
			<polygon fill="#228AC4" points="1597.8,168.1 1557.9,168.1 1557.9,143.1 			"/>
			<polygon fill="#228AC4" points="1636,160.3 1603.5,166.6 1603.5,141.6 			"/>
			<polyline fill="#228AC4" points="1655.8,156.2 1642.7,158.7 1642.7,133.8 1655.8,141.7 			"/>
			<g>
				<g>
					<polygon fill="#DBDDE1" points="1804.4,279.1 1600.8,279 1614.1,269.4 1790.9,268.9 					"/>
					<polygon fill="#E1E1E1" points="1804.4,703.1 1601.2,703.1 1602,349.2 1804.4,349.2 					"/>
					<rect x="1601.1" y="684.6" fill="#CACACA" width="203.1" height="18.2"/>
					<g>
						<rect x="1637.8" y="578.9" fill="#C4C4C4" width="135" height="123.2"/>
						<g>
							<polyline fill="#DDF0F7" points="1632.5,702.9 1632.5,577.9 1778.4,577.9 1778.4,702.9 							"/>
							<polygon fill="#D0D0D0" points="1779.9,702.9 1777,702.9 1777,579.3 1633.9,579.3 1633.9,702.9 1631,702.9 1631,576.4 
								1779.9,576.4 							"/>
						</g>
						<rect x="1630.3" y="572.3" fill="#AFAFAF" width="150.8" height="24.8"/>
						<rect x="1701.7" y="597" opacity="0.45" fill="#AECBDB" width="5.7" height="106.2"/>
						<rect x="1634" y="699.6" fill="#AECBDB" width="143.1" height="3.4"/>
						<polygon fill="#E9F5FA" points="1714.8,605.1 1768.5,605 1768.7,692 						"/>
						<polygon fill="#E9F5FA" points="1696.5,693.9 1642.1,693.9 1642.1,604.4 						"/>
						<polygon fill="#E9F5FA" points="1674.2,604.1 1694.7,630.9 1694.7,604 						"/>
						<polygon fill="#E9F5FA" points="1737.9,692.5 1717.7,665.5 1717.4,692.4 						"/>
					</g>
					<rect x="1630.1" y="426" fill="#DDF0F7" width="150" height="35.2"/>
					<rect x="1630.1" y="475.4" fill="#DDF0F7" width="150" height="35.2"/>
					<rect x="1630.1" y="521.3" fill="#DDF0F7" width="150" height="35.2"/>
					<polygon fill="#E9F5FA" points="1772.5,454.2 1639.9,454.2 1639.9,433.6 					"/>
					<polygon fill="#E9F5FA" points="1777.8,504.1 1645.2,504.1 1645.2,483.5 					"/>
					<polygon fill="#E9F5FA" points="1777.8,550 1645.2,550 1645.2,529.4 					"/>
					<rect x="1627.8" y="423" fill="#AFAFAF" width="153.2" height="5"/>
					<rect x="1628.8" y="473.3" fill="#AFAFAF" width="152.4" height="5"/>
					<rect x="1628.4" y="519.2" fill="#AFAFAF" width="152.4" height="5"/>
					<rect x="1601" y="279.1" fill="#CBCED7" width="203.4" height="121"/>
				</g>
			</g>
		</g>
	</g>
	<rect x="-1" y="-1" clip-path="url(#SVGID_2_)" fill="none" width="1922" height="1082"/>
	<g clip-path="url(#SVGID_2_)">
		<g>
			<path fill="#FFFFFF" d="M1376.7,217.3l2.6,0c-1.1,2.7-2,5.3-3.1,9l-2.7,0C1374.7,223.3,1375.8,220.3,1376.7,217.3z"/>
			<polygon fill="#FFFFFF" points="1379.8,215.9 1377.2,215.9 1377.8,214.2 1380.4,214.2 			"/>
			<path fill="#FFFFFF" d="M1366.3,217.3l2.6,0c-1.1,2.7-2,5.3-3.1,9h-2.7C1364.3,223.3,1365.3,220.3,1366.3,217.3z"/>
			<polygon fill="#FFFFFF" points="1369.4,215.9 1366.8,215.9 1367.4,214.2 1370,214.2 			"/>
			<path fill="#FFFFFF" d="M1320.6,224.3l-0.7,2l-8.4,0c1.6-4,3-8,4.3-12l2.8,0c-0.4,1.1-2.8,7.8-3.6,10.1l2.2,0
				C1318.3,224.4,1319.5,224.4,1320.6,224.3z"/>
			<path fill="#FFFFFF" d="M1392.3,224.8l-0.9,1.6c-0.6,0.1-1.1,0.2-1.7,0.2c-2.9,0-2.7-1.7-2.4-2.5c1.1-3.6,7.1-2.5,7.7-4.4
				c0.3-0.9-0.7-1-1.3-1c-1.2,0-2.5,0.3-3.7,0.7l0.8-1.7c1.4-0.3,2.7-0.5,4-0.5c1.6,0,3.4,0.4,2.8,2.4c-0.4,1.3-1.6,4.1-2.4,6.8
				l-2.5,0c0.3-0.8,0.6-1.6,1.7-4.6c-1.2,0.8-4.2,0.7-4.7,2.3c-0.3,0.8,0.5,1.1,1.2,1.1C1391.3,225.1,1391.8,224.9,1392.3,224.8z"/>
			<path fill="#FFFFFF" d="M1382.2,217.3v6.6l4.6-6.6l2.6,0c-2.3,3-4.6,5.9-6.7,9l-2.7,0c0-3-0.2-6-0.4-9L1382.2,217.3z"/>
			<path fill="#FFFFFF" d="M1375.1,219.1h-2.2c-0.3,0.8-1.3,3.5-1.5,4.1c-0.2,0.8-0.3,1.4,0.5,1.4c0.7,0,1-0.1,1.5-0.2l-0.9,1.9
				c-0.7,0.2-1.4,0.3-2.1,0.3c-1.7,0-2.4-0.6-1.8-2.3c0.3-0.9,1.7-4.7,1.9-5.1l-1.3,0l0.6-1.8l1.3,0l0.6-1.6l2.5-0.5l-0.7,2.1l2.2,0
				L1375.1,219.1z"/>
			<path fill="#FFFFFF" d="M1355.5,226.3l0.4-1.9c0.7,0.3,1.5,0.7,2.4,0.7c0.6,0,1.4-0.2,1.7-0.9c0.4-1.3-2.7-2.3-2.1-4.3
				c0.5-1.5,1.8-2.5,4.2-2.5c0.9,0,1.7,0.1,2.6,0.3l-0.5,1.8c-0.5-0.3-1.1-0.5-1.8-0.5c-0.7,0-1.5,0.1-1.8,0.9
				c-0.3,1.1,2.7,2.2,2,4.5c-0.6,1.9-2.8,2.4-4.3,2.4C1357.3,226.6,1356.4,226.5,1355.5,226.3z"/>
			<path fill="#FFFFFF" d="M1340.4,221.3l0.1-1.7c0.3,0.1,0.6,0.1,1,0.1c1.7,0,2.7-0.7,3.1-2.1c0.4-1.2-0.2-1.5-1.4-1.5
				c-0.6,0-1.3,0-2,0.1c-0.4,1.2-2.5,7.2-3.4,10.2l-2.6,0c0.9-2.1,3.3-9,4.2-12l5.7,0c2.4,0,2.5,1.9,2.1,3.2
				c-0.8,2.5-3.2,3.9-5.5,3.9C1341.2,221.4,1340.8,221.4,1340.4,221.3z"/>
			<path fill="#FFFFFF" d="M1326.3,224.8l-0.9,1.6c-0.6,0.1-1.1,0.2-1.7,0.2c-2.9,0-2.7-1.7-2.4-2.6c1.1-3.6,7.1-2.4,7.7-4.4
				c0.3-0.9-0.7-1-1.3-1c-1.2,0-2.5,0.3-3.7,0.8l0.8-1.7c1.4-0.3,2.7-0.5,4-0.5c1.6,0,3.4,0.4,2.8,2.4c-0.4,1.3-1.6,4.1-2.4,6.8
				h-2.5c0.3-0.8,0.6-1.6,1.7-4.6c-1.2,0.8-4.2,0.7-4.7,2.3c-0.3,0.8,0.5,1.1,1.2,1.1C1325.3,225.1,1325.8,225,1326.3,224.8z"/>
			<g>
				<g>
					<path fill="#FFFFFF" d="M1352.7,217.2c-3,0-5.6,1.8-6.6,4.9c-0.6,1.9-0.2,4.5,3.4,4.5c4.1,0,6-3.1,6.6-4.8
						C1357,218.9,1355.6,217.2,1352.7,217.2z M1352.2,219c1.6,0,1.9,1.2,1.5,2.7c-0.5,1.6-1.7,3.1-3.5,3.1c-1.5,0-2-1.2-1.5-2.7
						C1349.1,220.5,1350.3,219,1352.2,219z"/>
				</g>
				<g>
					<path fill="#FFFFFF" d="M1326.3,224.8c-0.5,0.2-1,0.3-1.5,0.3c-0.7,0-1.4-0.2-1.2-1.1c0.5-1.6,3.5-1.5,4.7-2.3
						c-1.1,3-1.4,3.8-1.7,4.6l2.5,0c0.8-2.7,2-5.5,2.4-6.8c0.6-2-1.2-2.3-2.8-2.4c-1.3,0-2.7,0.2-4,0.5l-0.8,1.7
						c1.2-0.4,2.5-0.8,3.7-0.7c0.7,0,1.6,0.1,1.3,1c-0.6,1.9-6.6,0.8-7.7,4.4c-0.2,0.8-0.5,2.5,2.4,2.6c0.6,0,1.1,0,1.7-0.2
						L1326.3,224.8z"/>
				</g>
				<g>
					<path fill="#FFFFFF" d="M1340.4,221.3c0.4,0.1,0.8,0.1,1.3,0.1c2.4,0,4.8-1.4,5.5-3.9c0.4-1.3,0.3-3.2-2.1-3.2l-5.7,0
						c-0.9,3-3.3,10-4.2,12l2.6,0c0.9-3,3-9,3.4-10.2c0.7-0.1,1.3-0.1,1.9-0.1c1.3,0,1.8,0.3,1.4,1.5c-0.4,1.3-1.5,2.1-3.1,2.1
						c-0.3,0-0.6,0-1-0.1L1340.4,221.3z"/>
				</g>
				<g>
					<path fill="#FFFFFF" d="M1355.5,226.3c0.9,0.2,1.8,0.4,2.8,0.4c1.5,0,3.7-0.6,4.3-2.4c0.7-2.2-2.4-3.3-2-4.4
						c0.2-0.8,1-0.9,1.8-0.9c0.7,0,1.3,0.2,1.8,0.5l0.5-1.8c-0.8-0.2-1.7-0.3-2.6-0.3c-2.4,0-3.7,1-4.2,2.5
						c-0.6,2.1,2.4,3.1,2.1,4.3c-0.2,0.8-1.1,0.9-1.7,0.9c-0.9,0-1.6-0.3-2.4-0.7L1355.5,226.3z"/>
				</g>
				<g>
					<path fill="#FFFFFF" d="M1375.1,219.1l0.6-1.8l-2.2,0l0.7-2.1l-2.5,0.5l-0.6,1.6l-1.3,0l-0.6,1.8l1.3,0
						c-0.2,0.4-1.6,4.2-1.9,5.1c-0.5,1.8,0.1,2.3,1.8,2.3c0.7,0,1.4-0.1,2.1-0.3l0.9-1.9c-0.5,0.1-0.8,0.2-1.5,0.2
						c-0.8,0-0.7-0.6-0.5-1.4c0.2-0.6,1.2-3.4,1.5-4.1L1375.1,219.1z"/>
				</g>
				<g>
					<path fill="#FFFFFF" d="M1382.2,217.3l-2.6,0c0.1,3,0.3,6,0.3,9l2.7,0c2.2-3,4.4-6,6.7-9l-2.6,0l-4.6,6.6h0V217.3z"/>
				</g>
				<g>
					<path fill="#FFFFFF" d="M1392.3,224.8c-0.5,0.2-1,0.3-1.5,0.3c-0.7,0-1.4-0.2-1.2-1.1c0.5-1.6,3.5-1.5,4.7-2.3
						c-1.1,3-1.4,3.8-1.7,4.6l2.5,0c0.8-2.7,2-5.6,2.4-6.8c0.6-2-1.2-2.4-2.8-2.4c-1.3,0-2.7,0.2-4,0.5l-0.8,1.7
						c1.2-0.4,2.5-0.7,3.7-0.7c0.7,0,1.6,0.1,1.3,1c-0.6,1.9-6.6,0.8-7.7,4.4c-0.3,0.8-0.5,2.5,2.4,2.6c0.6,0,1.1-0.1,1.7-0.2
						L1392.3,224.8z"/>
				</g>
				<g>
					<path fill="#FFFFFF" d="M1320.6,224.3c-1.1,0-2.3,0-3.4,0l-2.2,0c0.8-2.3,3.2-9.1,3.6-10.1l-2.8,0c-1.3,4-2.7,8-4.3,12l8.4,0
						L1320.6,224.3z"/>
				</g>
				<g>
					<polygon fill="#FFFFFF" points="1369.4,215.9 1370,214.2 1367.4,214.2 1366.8,215.9 					"/>
				</g>
				<g>
					<path fill="#FFFFFF" d="M1366.3,217.3c-0.9,3-2,6-3.2,9l2.7,0c1.1-3.6,2.1-6.3,3.1-9L1366.3,217.3z"/>
				</g>
				<g>
					<polygon fill="#FFFFFF" points="1379.8,215.9 1380.4,214.2 1377.8,214.2 1377.2,215.9 					"/>
				</g>
				<g>
					<path fill="#FFFFFF" d="M1376.7,217.3c-0.9,3-2,6-3.2,9l2.7,0c1.1-3.6,2.1-6.3,3.1-9L1376.7,217.3z"/>
				</g>
			</g>
		</g>
		<g>
			<path fill="#FFFFFF" d="M1380.4,241.9c-31.2,2.5-58.2-2.3-68.7-11.1c0,0.1,0.1,0.1,0.1,0.2c14.8,12.1,45.9,19,82,17.2l1.7-8.1
				C1390.6,240.9,1385.6,241.5,1380.4,241.9z"/>
		</g>
		<path fill="#FFFFFF" d="M1365,230.2l-0.3,1c-0.3-0.1-0.7-0.3-1.1-0.3c-0.5,0-1,0.3-1.2,0.7c-0.3,0.9,1.7,1.5,1.2,2.9
			c-0.2,0.6-1,1.6-2.6,1.6c-0.6,0-1-0.1-1.5-0.2l0.3-1.1c0.4,0.2,0.9,0.4,1.4,0.4c0.4,0,1-0.2,1.2-0.6c0.3-0.9-1.7-1.5-1.1-2.9
			c0.4-1,1.5-1.5,2.5-1.5C1364.2,230.1,1364.6,230.1,1365,230.2 M1377.6,236l0.2-0.7c-0.5,0.6-1.2,0.8-1.9,0.8
			c-0.9,0-1.4-0.4-1.1-1.3c0.3-0.7,0.7-1.6,1.3-3.1h1.2c-0.2,0.3-0.9,2-1.1,2.5c-0.2,0.6-0.1,0.9,0.5,0.9c0.6,0,1.1-0.4,1.5-1
			c0.3-0.6,0.9-2,1-2.4h1.2c-0.6,1.4-1.3,2.9-1.8,4.3H1377.6z M1382.8,231.7l-0.2,0.6c0.4-0.4,0.9-0.7,1.4-0.7c0.1,0,0.2,0,0.4,0
			l-0.3,1c-0.1-0.1-0.3-0.1-0.4-0.1c-0.6,0-1.1,0.4-1.5,1c-0.3,0.5-0.6,1.4-0.8,1.9l-0.2,0.5h-1.2c0.5-1.2,1-2.4,1.8-4.3H1382.8z
			 M1388.4,235.9l0.2-0.9c0.3,0.2,0.7,0.3,1.1,0.3c0.3,0,0.7-0.1,0.8-0.4c0.2-0.6-1.2-1.1-0.9-2.1c0.3-0.7,0.9-1.2,2.1-1.2
			c0.4,0,0.8,0.1,1.2,0.1l-0.3,0.9c-0.2-0.1-0.5-0.2-0.9-0.2c-0.4,0-0.7,0-0.9,0.4c-0.2,0.5,1.2,1.1,0.8,2.1
			c-0.3,0.9-1.4,1.2-2.1,1.2C1389.2,236.1,1388.8,236,1388.4,235.9 M1373.6,232.5c-0.2,0-0.4-0.1-0.6-0.1c-1.5,0-2,1.2-2.2,1.6
			c-0.2,0.7-0.1,1.1,0.6,1.1c0.7,0,1.2-0.6,1.6-1.2C1373.2,233.5,1373.3,233,1373.6,232.5 M1368.6,237.8l0.3-0.9
			c0.5,0.2,1,0.3,1.5,0.3c1.3,0,1.6-0.9,2-1.9c-0.5,0.5-1.2,0.7-1.8,0.7c-1.2,0-1.6-0.7-1.2-1.9c0.3-0.8,1.3-2.6,3.8-2.6
			c0.6,0,1.2,0.1,1.8,0.2c-0.4,0.9-1.1,2.5-1.9,4.5c-0.5,1.4-1.5,1.8-2.7,1.8C1369.8,238,1369.2,237.9,1368.6,237.8 M1366.1,233.3h2
			c0.2-0.7,0.1-1-0.5-1C1367,232.3,1366.4,232.7,1366.1,233.3 M1369,233.9h-3.1l-0.1,0.1c-0.3,0.8,0.1,1.3,0.9,1.3
			c0.5,0,1-0.1,1.5-0.3l-0.5,0.9c-0.5,0.1-1,0.2-1.5,0.2c-2.2,0-1.8-1.5-1.6-2.1c0.3-0.8,1.2-2.4,3.2-2.4c1.2,0,1.8,0.6,1.3,1.8
			C1369.1,233.6,1369,233.7,1369,233.9 M1386.7,232.4c-0.9,0-1.5,0.7-1.8,1.5c-0.3,0.7-0.1,1.3,0.6,1.3c0.9,0,1.5-0.7,1.8-1.5
			C1387.6,233,1387.5,232.4,1386.7,232.4 M1387,231.6c1.3,0,2,0.8,1.5,2.2c-0.3,0.8-1.3,2.3-3.3,2.3c-1.7,0-1.8-1.2-1.5-2.1
			C1384.2,232.5,1385.6,231.6,1387,231.6"/>
	</g>
</g>
</svg>
