<?xml version="1.0" encoding="utf-8"?>
<!-- Generator: Adobe Illustrator 18.0.0, SVG Export Plug-In . SVG Version: 6.00 Build 0)  -->
<!DOCTYPE svg PUBLIC "-//W3C//DTD SVG 1.1//EN" "http://www.w3.org/Graphics/SVG/1.1/DTD/svg11.dtd">
<svg version="1.1" id="Capa_1" xmlns="http://www.w3.org/2000/svg" xmlns:xlink="http://www.w3.org/1999/xlink" x="0px" y="0px"
	 viewBox="0 0 798.1 1143.4" enable-background="new 0 0 798.1 1143.4" xml:space="preserve">
<g>
	<path fill="#E0B894" d="M485.6,377.7c0,0,45.2,79.5,68.3,95c25.8,17.2,116.3,6.7,116.3,6.7l3.7,13c0,0-97.3,27.7-133.3,8.3
		c-23.2-12.5-71-81.8-71-81.8L485.6,377.7z"/>
	<path fill="#6B6FA5" d="M450.5,387.9c-0.7,17.3,14.6,61.3,14.6,61.3l56.4-22.3c0,0-31-51.9-39.9-60.3c-6.4-6.1-12.3-12.5-21.3-8.2
		C453.4,361.8,450.9,377.6,450.5,387.9z"/>
	<polygon fill="#44B9B9" points="296.1,582.7 172.1,1051.4 198.1,1052.4 395.1,686.4 524.1,1048.1 547.4,1044.1 487.8,594.9 	"/>
	<g opacity="0.2">
		<g>
			<g>
				<path fill="#44B9B9" d="M309.8,613.4l-22.7-2.1l-113.7,436.4l16.6,1.8C190.1,1049.4,309.3,614.8,309.8,613.4z"/>
			</g>
		</g>
	</g>
	<path fill="#7777B7" d="M381.1,340.6c-34.5,15.9-37.9,14.7-53.1,64.3c-17.9,58.4-52,219.8-52,219.8L493,640.9
		c0,0,4.1-202.6,1.2-236.7c-2.5-29.3-12.3-38.4-29.3-55.3C447.5,331.6,405.1,329.5,381.1,340.6z"/>
	<g opacity="0.19">
		<path fill="#7777B7" d="M410.8,346.9c12.6-5.8,24.2-8,40.6-6.3c-20.5-9-51.5-8.6-70.6,0.3c-34.5,15.9-37.9,14.7-53.1,64.3
			c-17.9,58.4-52,219.8-52,219.8l30.9,1.9c5.5-25.6,31.3-163.1,47.5-216C369.3,361.2,376.3,362.8,410.8,346.9z"/>
	</g>
	<path opacity="0.31" fill="#7777B7" d="M461.3,348.9c-0.4,11.3-9,22.3-40.8,23.3c-20.1,0.6-37-12.8-37-24.1s16.9-12.3,37-12.3
		S461.6,341.9,461.3,348.9z"/>
	<g>
		<path fill="#E0B894" d="M471.8,81.5L471.8,81.5c59.7,7,102.8,58.5,96.2,115l-4.3,36.9c-6.3,53.6-54.9,92.4-110.8,90.4
			c0.1,3.6,0.4,7.4,1,11c2.2,13.4-0.4,22.1-13.3,25.6c-19.4,5.2-55.3-8-45.3-21.1c7.1-9.2,10.9-14.2,12.4-26.5
			c-40.1-19.1-65.5-60.3-60.3-104.7l4.3-36.9C358.3,114.7,412.1,74.6,471.8,81.5z"/>
		<path fill="#FFFFFF" d="M461.4,260.6c-0.9-8.1-16.3-2-30.8-18.9c-5.9-6.9-17.8,1.4-10.3,12C427.7,264.1,462.8,274.1,461.4,260.6z"
			/>
		<ellipse transform="matrix(-0.9932 -0.1163 0.1163 -0.9932 861.2418 402.7438)" cx="442.4" cy="176.3" rx="5.5" ry="5.2"/>
		<ellipse transform="matrix(-0.9932 -0.1163 0.1163 -0.9932 1049.7345 420.9093)" cx="537.1" cy="179.8" rx="5.5" ry="5.2"/>
		<path fill="#ED6C4B" d="M567.6,73.1c19,16.7,22.7,53.3-13.7,65.9c-36.4,12.5-117.3-6.4-161.3-8.6c-8.8-0.4-4.3,64-15.2,63.2
			c-6.6-0.5-5.9-10.1-10.6-10.7c-6.3-0.7-37.8,1.5-35.2-34.1c5.3-73.6,66-108.5,155.3-79.5C504.9,75.1,549.8,57.4,567.6,73.1z"/>
		<path d="M441.5,159.6c0.6,0.1,1.3-0.1,1.8-0.6c6.1-6,12.5-2.2,12.7-2c1,0.6,2.4,0.3,3-0.7c0.6-1,0.3-2.3-0.7-3
			c-3.2-2.1-11.2-4.2-18.1,2.6c-0.9,0.8-0.9,2.2,0,3.1C440.6,159.4,441.1,159.6,441.5,159.6z"/>
		<path d="M559.2,164.4c0.5,0.1,1.1-0.1,1.6-0.4c0.9-0.7,1.1-2.1,0.4-3c-2.3-3-9-7.7-18-3.7c-1.1,0.5-1.6,1.8-1.1,2.9
			c0.5,1.1,1.8,1.6,2.9,1.1c8-3.6,12.6,2.1,12.8,2.3C558.1,164,558.6,164.3,559.2,164.4z"/>
		
			<ellipse transform="matrix(-0.9932 -0.1163 0.1163 -0.9932 665.2368 416.4332)" fill="#E0B894" cx="344.8" cy="188.8" rx="24.5" ry="23.2"/>
		<g>
			<path opacity="0.15" fill="#E0B894" d="M412.7,338.5c7.1-9.2,10.9-14.2,12.4-26.5c-38.9-18.5-64-58-60.6-100.9
				c-1.6,0.1-3.3,0.1-5-0.1c-13.4-1.6-23.1-13.1-21.6-25.9c1-8.5,6.7-15.3,14.4-18.5c-1.5-0.5-3.1-0.8-4.8-1
				c-13.4-1.6-25.5,7.5-27,20.2s8.2,24.3,21.6,25.9c1.7,0.2,3.3,0.2,5,0.1c-3.3,42.9,21.7,82.4,60.6,100.9
				c-1.5,12.3-5.4,17.2-12.4,26.5c-10,13,25.9,26.3,45.3,21.1c0,0,0,0,0,0C423,357.9,405.2,348.2,412.7,338.5z"/>
		</g>
		<path opacity="0.23" fill="#E0B894" d="M336.6,180c7.1-1.7,14.3,4.4,14.3,4.4s-3.4-0.4-7.2-0.4c-2.6,6.8,2.5,15.9,2.5,15.9
			s-10.5-8.9-9.1-15.3c-1.1,0.3-1.7,0.9-2.3,1.2C331.4,187.5,329.3,181.8,336.6,180z"/>
		<polygon fill="#C6A083" points="496.8,221.3 510.4,218.8 499,201.2 		"/>
		
			<ellipse transform="matrix(-0.9932 -0.1163 0.1163 -0.9932 842.2307 457.987)" fill="#C6A083" cx="434.5" cy="204.4" rx="11.2" ry="7.9"/>
		
			<ellipse transform="matrix(-0.9932 -0.1163 0.1163 -0.9932 1052.546 476.2048)" fill="#C6A083" cx="540.2" cy="207.4" rx="11.2" ry="7.9"/>
		<path opacity="0.52" fill="#ED6C4B" d="M557.1,74.4c-3.6-1.3-11.7-2.6-15.4,2.1c-4.2,5.5-1.9,12.2,6.7,13.5
			c8.6,1.3,31.6,10.4,22.7,23.9s6.1,3.9,7-7.5C579.6,85.2,563.9,76.8,557.1,74.4z"/>
	</g>
	<path fill="#E0B894" d="M306.3,403.9c-12.7,21.7-37,78.7-20.3,98.7c16.7,20,184.4-24.4,184.4-24.4l-3.1-15.6c0,0-132,26-136.7,11.3
		s27.3-85.3,26-92s-11.3-14.7-20-12S314.3,390.2,306.3,403.9z"/>
	<path fill="#7777B7" d="M327.6,368c-13.8,10.5-38,50.3-38,50.3l56,22.8c0,0,20.8-50.5,21-61c0.2-8.8-1-19-10-23.2
		C349.6,353.6,335.8,361.7,327.6,368z"/>
	<polygon fill="#64689A" points="291.4,414.4 287.6,420.6 345.3,443.4 348.9,434.7 	"/>
	<polygon fill="#64689A" points="484.9,443.1 487,450.1 524.1,430.6 519.7,422.8 	"/>
	<polygon fill="#E0B894" points="468.9,462.1 484.3,449.6 484.9,461.6 	"/>
	<path fill="#E5BA2F" d="M514.8,496.6h-32c-2.9,0-5.3-2.4-5.3-5.3v-59.7c0-2.9,2.4-5.3,5.3-5.3h32c2.9,0,5.3,2.4,5.3,5.3v59.7
		C520.1,494.2,517.7,496.6,514.8,496.6z"/>
	<path fill="#D8D8D8" d="M504.3,423.6c-2.3-20.3-7.8-27.9-35.5-33.2c-30.2-5.7-64.8-31.8-84.2-63.5
		c-29.9-48.9-38.1-110.3-38.2-110.9l3-0.4c0.1,0.6,8.2,61.4,37.8,109.7c19,31,52.8,56.6,82.2,62.1c29.7,5.6,35.5,15.2,37.9,35.8
		L504.3,423.6z"/>
	<circle fill="#D3A72E" cx="500.1" cy="459.9" r="13"/>
	<path fill="#E0B894" d="M469.6,478.1c0,0,30.1,2,35.7-5.4c4.2-5.5-1.8-14.4-2.7-16.7c-2.5-6.5-35.3,6.5-35.3,6.5L469.6,478.1z"/>
	<path fill="#D8D8D8" d="M450.7,384.9c-2.4-3.4-3.2-7.1-2.5-10.8C450.4,363,466,353,481,343.3c11.1-7.1,21.5-13.9,24.6-19.9
		c1.9-3.8,3.4-8.2,4.4-13.1l2.9,0.6c-1.1,5.2-2.6,9.9-4.7,13.9c-3.4,6.7-14.2,13.7-25.6,21c-13.8,8.9-29.5,19.1-31.5,28.9
		c-0.6,2.9,0.1,5.7,2,8.5L450.7,384.9z"/>
	<path fill="#C7C6C6" d="M467.7,388.5l-0.1,0.2c-0.4,1.4-1.9,2.2-3.3,1.7l-12.2-3.8c-1.4-0.4-2.2-1.9-1.7-3.3l0.1-0.2
		c0.4-1.4,1.9-2.2,3.3-1.7l12.2,3.8C467.4,385.6,468.2,387.1,467.7,388.5z"/>
	<g>
		<path fill="#C7C6C6" d="M342.5,182.4c0,0-13.1-3-15.7,7.5c-1.7,6.9,1,12.9,8.5,14.8c8,2.1,10.2,13.8,10.2,13.8l5.3-1.7
			c0,0-5.6-13-5.4-14.1c0.2-1.1,0.2-2.9-0.1-3.8c-0.7-2.1-2.6-4.1-3.7-8C340.5,187.3,342.5,182.4,342.5,182.4z"/>
		<path opacity="0.3" fill="#C7C6C6" d="M333.2,184.1c-3.2,0.9-5.4,4.3-5.8,7.8c-0.3,2.6-0.1,4.6,1.8,4.3c0.7-0.1-0.1-5.3,2.6-6.6
			c5.3-2.8,7.4,0.6,7.2-1.2c-0.2-1.9,0.4-3.5,1.3-4.4C341.2,183.1,335.1,183.6,333.2,184.1z"/>
		<path fill="#A0A09F" d="M350.4,217.5l-4.5,1.1c-0.4,0.1-0.8-0.1-0.9-0.5l0,0c-0.1-0.4,0.1-0.8,0.5-0.9l4.5-1.1
			c0.4-0.1,0.8,0.1,0.9,0.5l0,0C351,217,350.8,217.4,350.4,217.5z"/>
	</g>
	<path fill="#E5BA2F" d="M509.3,427.4h-5.9c-0.6,0-1.1-0.5-1.1-1.1v-2.1c0-0.6,0.5-1.1,1.1-1.1h5.9c0.6,0,1.1,0.5,1.1,1.1v2.1
		C510.4,426.9,509.9,427.4,509.3,427.4z"/>
	<circle fill="#D3A72E" cx="514" cy="432.4" r="1.8"/>
	<path fill="#E0B894" d="M669.7,479.3c0,0,11.2-16.5,15.4-13.5c1.8,1.3-2.9,6.9-1.4,8.5c4.1,4.3,23.8-5.5,25.5-1.3
		c1,2.5-12.3,6.5-12.3,6.5s16.3-2.4,17.3,0.9c0.9,2.8-16.3,5.5-16.3,5.5s12.9-0.9,13.1,3c0.1,2.8-37.2,3.5-37.2,3.5L669.7,479.3z"/>
	<g opacity="0.15">
		<path fill="#7777B7" d="M335.9,372.7c6.6-5.1,18.6-11.2,25.9-11.9c-1.1-1.3-3.4-3-5.3-3.9c-7-3.2-21.9,5.5-30.1,11.9
			c-13.7,10.6-37.5,50.6-37.5,50.6l9.6,3.5C301.2,418.5,323,382.6,335.9,372.7z"/>
	</g>
</g>
<g>
	<path fill="#7777B7" d="M196.5,1057.9l-24-3.1c-1.7-0.2-2.9-1.8-2.7-3.4l0.1-1.1c0.2-1.7,1.8-2.9,3.4-2.7l24,3.1
		c1.7,0.2,2.9,1.8,2.7,3.4l-0.1,1.1C199.7,1056.9,198.2,1058.1,196.5,1057.9z"/>
	<g>
		<path fill="#7777B7" d="M172.3,1052c0,0-14.5,22.4-10.6,25.8s63.6,10.7,66.7,9s-31.9-28.8-31.9-28.8L172.3,1052z"/>
		<path fill="#6E71A8" d="M199.9,1060.6c0,0-6.1-1-9.5,1.6c-1.7,1.3-5,5.6-6.6,7.7c-0.5,0.6-0.2,1.6,0.5,1.9l11,4.7
			c0.6,0.2,1.3,0,1.6-0.5c1.1-2,3.7-6.3,5.3-7.4c2.7-1.8,7-0.6,7-0.6L199.9,1060.6z"/>
		<path fill="#FFFFFF" stroke="#6E71A8" stroke-linecap="round" stroke-linejoin="round" stroke-miterlimit="10" d="M161.4,1075.8
			c0,0-1.1,4.4,0,5.3s64.8,10,65.8,9.7c1.8-0.5,1-4.4,1-4.4s-24.3-2.4-37.8-4.8C183.2,1080.3,161.4,1075.8,161.4,1075.8z"/>
		<g opacity="0.18">
			<path fill="#6E71A8" d="M175.1,1057.7c-0.8-0.7-1.3-1.7-1.1-2.8l0.1-1.1c0.2-1.7,1.8-2.9,3.4-2.7l22.5,2.9c0.1-1.6-1-3.1-2.7-3.3
				l-24-3.1c-1.7-0.2-3.2,1-3.4,2.7l-0.1,1.1c-0.1,1.1,0.3,2.1,1.1,2.8c-3.2,5.2-10.9,18.4-9.8,22.7c-0.3,1.4-0.5,3.6,0.2,4.2
				c0.2,0.1,1.5,0.4,3.7,0.8c0.1-0.5,0.1-1.1,0.2-1.5C164.2,1076.1,171.9,1062.9,175.1,1057.7z"/>
		</g>
	</g>
</g>
<g>
	<path fill="#7777B7" d="M524.9,1050.7c0,0-8.2,25.4-3.6,27.6c4.6,2.3,64.2-6.1,66.8-8.6c2.6-2.5-38.3-19.6-38.3-19.6L524.9,1050.7z
		"/>
	<path fill="#7777B7" d="M549.8,1050.1l-23.9,3.3c-1.7,0.2-3.2-1-3.5-2.6l-0.2-1.1c-0.2-1.7,1-3.2,2.6-3.5l23.9-3.3
		c1.7-0.2,3.2,1,3.5,2.6l0.2,1.1C552.7,1048.3,551.5,1049.9,549.8,1050.1z"/>
	<path fill="#FFFFFF" stroke="#6E71A8" stroke-linecap="round" stroke-linejoin="round" stroke-miterlimit="10" d="M520.5,1076.5
		c0,0,0,4.5,1.4,5.1s65.1-7.1,66.1-7.7c1.6-1-0.2-4.5-0.2-4.5s-24.1,3.9-37.7,5.2C542.7,1075.2,520.5,1076.5,520.5,1076.5z"/>
</g>
<path fill="#6E71A8" d="M555,1052.4l-1.8,0.9c-1.5,0.7-1.6,2.8-0.1,3.7l7.3,4c0.5,0.3,1.1,0.3,1.7,0.1l6.8-2.5L555,1052.4z"/>
<g opacity="0.18">
	<path fill="#6E71A8" d="M529,1055.4c-0.9-0.4-1.6-1.3-1.8-2.4l-0.2-1.1c-0.2-1.7,1-3.2,2.6-3.5l22.5-3.1c-0.3-1.6-1.8-2.7-3.4-2.5
		l-23.9,3.3c-1.7,0.2-2.9,1.8-2.6,3.5l0.2,1.1c0.1,1.1,0.9,2,1.8,2.4c-1.8,5.9-5.8,20.6-3.6,24.4c0.1,1.4,0.4,3.6,1.3,4
		c0.2,0.1,1.6,0,3.8-0.2c-0.1-0.5-0.1-1.1-0.2-1.5C523.2,1076,527.3,1061.2,529,1055.4z"/>
</g>
</svg>
