<?xml version="1.0" encoding="utf-8"?>
<!-- Generator: Adobe Illustrator 18.0.0, SVG Export Plug-In . SVG Version: 6.00 Build 0)  -->
<!DOCTYPE svg PUBLIC "-//W3C//DTD SVG 1.1//EN" "http://www.w3.org/Graphics/SVG/1.1/DTD/svg11.dtd">
<svg version="1.1" id="Capa_1" xmlns="http://www.w3.org/2000/svg" xmlns:xlink="http://www.w3.org/1999/xlink" x="0px" y="0px"
	 viewBox="0 0 517.3 785" enable-background="new 0 0 517.3 785" xml:space="preserve">
<g>
	<path fill="#E0B894" d="M287.3,320.9c0,0,45.2,79.5,68.3,95c25.8,17.2,116.3,6.7,116.3,6.7l3.7,13c0,0-97.3,27.7-133.3,8.3
		c-23.2-12.5-71-81.8-71-81.8L287.3,320.9z"/>
	<path fill="#6B6FA5" d="M252.2,331c-0.7,17.3,14.6,61.3,14.6,61.3l56.4-22.3c0,0-31-51.9-39.9-60.3c-6.4-6.1-12.3-12.5-21.3-8.2
		C255.1,304.9,252.6,320.7,252.2,331z"/>
	<polygon fill="#44B9B9" points="97.8,525.9 7.7,785 67.3,785 182.2,617.2 269.3,785 305,785 289.5,538 	"/>
	<g opacity="0.2">
		<g>
			<g>
				<path fill="#44B9B9" d="M111.5,556.5l-22.7-2.1L7.7,785c0,0,15,0,30.3,0C41.8,770,110.9,558.2,111.5,556.5z"/>
			</g>
		</g>
	</g>
	<path fill="#7777B7" d="M182.8,283.7c-34.5,15.9-37.9,14.7-53.1,64.3c-17.9,58.4-52,219.8-52,219.8l216.9,16.2
		c0,0,4.1-202.6,1.2-236.7c-2.5-29.3-12.3-38.4-29.3-55.3C249.2,274.7,206.8,272.6,182.8,283.7z"/>
	<g opacity="0.19">
		<path fill="#7777B7" d="M212.5,290c12.6-5.8,24.2-8,40.6-6.3c-20.5-9-51.5-8.6-70.6,0.3c-34.5,15.9-37.9,14.7-53.1,64.3
			c-17.9,58.4-52,219.8-52,219.8l30.9,1.9c5.5-25.6,31.3-163.1,47.5-216C171,304.3,178,305.9,212.5,290z"/>
	</g>
	<path opacity="0.31" fill="#7777B7" d="M263,292c-0.4,11.3-9,22.3-40.8,23.3c-20.1,0.6-37-12.8-37-24.1s16.9-12.3,37-12.3
		S263.3,285,263,292z"/>
	<g>
		<path fill="#E0B894" d="M273.5,24.7L273.5,24.7c59.7,7,102.8,58.5,96.2,115l-4.3,36.9c-6.3,53.6-54.9,92.4-110.8,90.4
			c0.1,3.6,0.4,7.4,1,11c2.2,13.4-0.4,22.1-13.3,25.6c-19.4,5.2-55.3-8-45.3-21.1c7.1-9.2,10.9-14.2,12.4-26.5
			c-40.1-19.1-65.5-60.3-60.3-104.7l4.3-36.9C160,57.8,213.8,17.7,273.5,24.7z"/>
		<path fill="#FFFFFF" d="M263.1,203.7c-0.9-8.1-16.3-2-30.8-18.9c-5.9-6.9-17.8,1.4-10.3,12C229.4,207.2,264.5,217.2,263.1,203.7z"
			/>
		<ellipse transform="matrix(-0.9932 -0.1163 0.1163 -0.9932 472.5639 266.3231)" cx="244" cy="119.4" rx="5.5" ry="5.2"/>
		<ellipse transform="matrix(-0.9932 -0.1163 0.1163 -0.9932 661.0566 284.4887)" cx="338.8" cy="123" rx="5.5" ry="5.2"/>
		<path fill="#ED6C4B" d="M369.3,16.2c19,16.7,22.7,53.3-13.7,65.9c-36.4,12.5-117.3-6.4-161.3-8.6c-8.8-0.4-4.3,64-15.2,63.2
			c-6.6-0.5-5.9-10.1-10.6-10.7c-6.3-0.7-37.8,1.5-35.2-34.1c5.3-73.6,66-108.5,155.3-79.5C306.6,18.3,351.5,0.6,369.3,16.2z"/>
		<path d="M243.2,102.8c0.6,0.1,1.3-0.1,1.8-0.6c6.1-6,12.5-2.2,12.7-2c1,0.6,2.4,0.3,3-0.7c0.6-1,0.3-2.3-0.7-3
			c-3.2-2.1-11.2-4.2-18.1,2.6c-0.9,0.8-0.9,2.2,0,3.1C242.3,102.5,242.8,102.7,243.2,102.8z"/>
		<path d="M360.9,107.5c0.5,0.1,1.1-0.1,1.6-0.4c0.9-0.7,1.1-2.1,0.4-3c-2.3-3-9-7.7-18-3.7c-1.1,0.5-1.6,1.8-1.1,2.9
			c0.5,1.1,1.8,1.6,2.9,1.1c8-3.6,12.6,2.1,12.8,2.3C359.8,107.1,360.3,107.4,360.9,107.5z"/>
		
			<ellipse transform="matrix(-0.9932 -0.1163 0.1163 -0.9932 276.5589 280.0124)" fill="#E0B894" cx="146.4" cy="131.9" rx="24.5" ry="23.2"/>
		<g>
			<path opacity="0.15" fill="#E0B894" d="M214.3,281.6c7.1-9.2,10.9-14.2,12.4-26.5c-38.9-18.5-64-58-60.6-100.9
				c-1.6,0.1-3.3,0.1-5-0.1c-13.4-1.6-23.1-13.1-21.6-25.9c1-8.5,6.7-15.3,14.4-18.5c-1.5-0.5-3.1-0.8-4.8-1
				c-13.4-1.6-25.5,7.5-27,20.2s8.2,24.3,21.6,25.9c1.7,0.2,3.3,0.2,5,0.1c-3.3,42.9,21.7,82.4,60.6,100.9
				c-1.5,12.3-5.4,17.2-12.4,26.5c-10,13,25.9,26.3,45.3,21.1c0,0,0,0,0,0C224.7,301.1,206.9,291.3,214.3,281.6z"/>
		</g>
		<path opacity="0.23" fill="#E0B894" d="M138.3,123.2c7.1-1.7,14.3,4.4,14.3,4.4s-3.4-0.4-7.2-0.4c-2.6,6.8,2.5,15.9,2.5,15.9
			s-10.5-8.9-9.1-15.3c-1.1,0.3-1.7,0.9-2.3,1.2C133.1,130.6,130.9,124.9,138.3,123.2z"/>
		<polygon fill="#C6A083" points="298.5,164.4 312,162 300.7,144.3 		"/>
		
			<ellipse transform="matrix(-0.9932 -0.1163 0.1163 -0.9932 453.5527 321.5665)" fill="#C6A083" cx="236.2" cy="147.6" rx="11.2" ry="7.9"/>
		
			<ellipse transform="matrix(-0.9932 -0.1163 0.1163 -0.9932 663.8681 339.7842)" fill="#C6A083" cx="341.8" cy="150.5" rx="11.2" ry="7.9"/>
		<path opacity="0.52" fill="#ED6C4B" d="M358.8,17.5c-3.6-1.3-11.7-2.6-15.4,2.1c-4.2,5.5-1.9,12.2,6.7,13.5
			c8.6,1.3,31.6,10.4,22.7,23.9s6.1,3.9,7-7.5C381.3,28.3,365.6,19.9,358.8,17.5z"/>
	</g>
	<path fill="#E0B894" d="M107.9,347c-12.7,21.7-37,78.7-20.3,98.7S272,421.3,272,421.3l-3.1-15.6c0,0-132,26-136.7,11.3
		c-4.7-14.7,27.3-85.3,26-92s-11.3-14.7-20-12S115.9,333.4,107.9,347z"/>
	<path fill="#7777B7" d="M129.3,311.1c-13.8,10.5-38,50.3-38,50.3l56,22.8c0,0,20.8-50.5,21-61c0.2-8.8-1-19-10-23.2
		C151.3,296.8,137.5,304.9,129.3,311.1z"/>
	<polygon fill="#64689A" points="93.1,357.5 89.3,363.7 146.9,386.5 150.6,377.9 	"/>
	<polygon fill="#64689A" points="286.5,386.3 288.7,393.2 325.8,373.7 321.4,365.9 	"/>
	<polygon fill="#E0B894" points="270.6,405.2 285.9,392.7 286.6,404.7 	"/>
	<path fill="#E5BA2F" d="M316.4,439.7h-32c-2.9,0-5.3-2.4-5.3-5.3v-59.7c0-2.9,2.4-5.3,5.3-5.3h32c2.9,0,5.3,2.4,5.3,5.3v59.7
		C321.8,437.3,319.4,439.7,316.4,439.7z"/>
	<path fill="#D8D8D8" d="M306,366.7c-2.3-20.3-7.8-27.9-35.5-33.2c-30.2-5.7-64.8-31.8-84.2-63.5C156.4,221,148.2,159.7,148.1,159
		l3-0.4c0.1,0.6,8.2,61.4,37.8,109.7c19,31,52.8,56.6,82.2,62.1c29.7,5.6,35.5,15.2,37.9,35.8L306,366.7z"/>
	<circle fill="#D3A72E" cx="301.8" cy="403" r="13"/>
	<path fill="#E0B894" d="M271.3,421.3c0,0,30.1,2,35.7-5.4c4.2-5.5-1.8-14.4-2.7-16.7c-2.5-6.5-35.3,6.5-35.3,6.5L271.3,421.3z"/>
	<path fill="#D8D8D8" d="M252.4,328c-2.4-3.4-3.2-7.1-2.5-10.8c2.2-11.1,17.8-21.2,32.8-30.9c11.1-7.1,21.5-13.9,24.6-19.9
		c1.9-3.8,3.4-8.2,4.4-13.1l2.9,0.6c-1.1,5.2-2.6,9.9-4.7,13.9c-3.4,6.7-14.2,13.7-25.6,21c-13.8,8.9-29.5,19.1-31.5,28.9
		c-0.6,2.9,0.1,5.7,2,8.5L252.4,328z"/>
	<path fill="#C7C6C6" d="M269.4,331.6l-0.1,0.2c-0.4,1.4-1.9,2.2-3.3,1.7l-12.2-3.8c-1.4-0.4-2.2-1.9-1.7-3.3l0.1-0.2
		c0.4-1.4,1.9-2.2,3.3-1.7l12.2,3.8C269.1,328.7,269.8,330.2,269.4,331.6z"/>
	<g>
		<path fill="#C7C6C6" d="M144.1,125.5c0,0-13.1-3-15.7,7.5c-1.7,6.9,1,12.9,8.5,14.8c8,2.1,10.2,13.8,10.2,13.8l5.3-1.7
			c0,0-5.6-13-5.4-14.1c0.2-1.1,0.2-2.9-0.1-3.8c-0.7-2.1-2.6-4.1-3.7-8C142.2,130.4,144.1,125.5,144.1,125.5z"/>
		<path opacity="0.3" fill="#C7C6C6" d="M134.9,127.2c-3.2,0.9-5.4,4.3-5.8,7.8c-0.3,2.6-0.1,4.6,1.8,4.3c0.7-0.1-0.1-5.3,2.6-6.6
			c5.3-2.8,7.4,0.6,7.2-1.2c-0.2-1.9,0.4-3.5,1.3-4.4C142.9,126.3,136.8,126.7,134.9,127.2z"/>
		<path fill="#A0A09F" d="M152.1,160.6l-4.5,1.1c-0.4,0.1-0.8-0.1-0.9-0.5l0,0c-0.1-0.4,0.1-0.8,0.5-0.9l4.5-1.1
			c0.4-0.1,0.8,0.1,0.9,0.5v0C152.7,160.1,152.5,160.5,152.1,160.6z"/>
	</g>
	<path fill="#E5BA2F" d="M311,370.6h-5.9c-0.6,0-1.1-0.5-1.1-1.1v-2.1c0-0.6,0.5-1.1,1.1-1.1h5.9c0.6,0,1.1,0.5,1.1,1.1v2.1
		C312.1,370.1,311.6,370.6,311,370.6z"/>
	<circle fill="#D3A72E" cx="315.7" cy="375.5" r="1.8"/>
	<path fill="#E0B894" d="M471.4,422.4c0,0,11.2-16.5,15.4-13.5c1.8,1.3-2.9,6.9-1.4,8.5c4.1,4.3,23.8-5.5,25.5-1.3
		c1,2.5-12.3,6.5-12.3,6.5s16.3-2.4,17.3,0.9c0.9,2.8-16.3,5.5-16.3,5.5s12.9-0.9,13.1,3c0.1,2.8-37.2,3.5-37.2,3.5L471.4,422.4z"/>
	<g opacity="0.15">
		<path fill="#7777B7" d="M137.6,315.8c6.6-5.1,18.6-11.2,25.9-11.9c-1.1-1.3-3.4-3-5.3-3.9c-7-3.2-21.9,5.5-30.1,11.9
			c-13.7,10.6-37.5,50.6-37.5,50.6l9.6,3.5C102.9,361.7,124.7,325.7,137.6,315.8z"/>
	</g>
</g>
</svg>
