<?xml version="1.0" encoding="utf-8"?>
<!-- Generator: Adobe Illustrator 18.0.0, SVG Export Plug-In . SVG Version: 6.00 Build 0)  -->
<!DOCTYPE svg PUBLIC "-//W3C//DTD SVG 1.1//EN" "http://www.w3.org/Graphics/SVG/1.1/DTD/svg11.dtd">
<svg version="1.1" id="Capa_1" xmlns="http://www.w3.org/2000/svg" xmlns:xlink="http://www.w3.org/1999/xlink" x="0px" y="0px"
	 viewBox="0 0 867.1 1167.1" enable-background="new 0 0 867.1 1167.1" xml:space="preserve">
<rect x="346.7" y="1042.2" transform="matrix(0.9974 7.218250e-002 -7.218250e-002 0.9974 77.0699 -22.814)" fill="#E0B894" width="15" height="25.5"/>
<rect x="582.2" y="1041" transform="matrix(0.9861 -0.1663 0.1663 0.9861 -167.0261 112.7373)" fill="#E0B894" width="15" height="25.5"/>
<g>
	<polygon fill="#44B9B9" points="366.1,617.7 343.9,1045.4 367.6,1045.4 458.9,665.4 575.9,1052 600.4,1047.5 545.6,566.4 	"/>
	<g opacity="0.23">
		<polygon fill="#44B9B9" points="600.4,1047.5 545.2,566.6 518.9,574.1 588.7,1049.2 		"/>
	</g>
	<g>
		<g>
			<path fill="#E0B894" d="M177.8,423.9c0,0-8.4-20.5-13.6-18.3c-2.2,1,1.5,8.2-0.5,9.6c-5.5,3.7-24.6-11.6-27.4-7.3
				c-1.7,2.5,11.8,9.9,11.8,9.9s-17.1-6.4-19-3.1c-1.6,2.9,16.4,9.8,16.4,9.8s-13.9-4-15,0.2c-0.8,3,39.6,12.4,39.6,12.4
				L177.8,423.9z"/>
			<g>
				<path fill="#E0B894" d="M401.6,356.2c0,0-67.6,76-96.4,87.4c-32,12.8-128.1-19.8-128.1-19.8l-7,13.3c0,0,99.4,52.7,143.1,40
					c28.1-8.2,96.2-72.5,96.2-72.5L401.6,356.2z"/>
				<g>
					<path fill="#7777B7" d="M363.5,410.9c-3,25.9,1.4,33.4,3,66c1.4,28.2-10.1,142.8-10.1,142.8s36,13.8,119.1,12.6
						c20.2-0.3,85.1-16.8,85.1-16.8s-8.5-79.2-12-107c-3.9-31-17.6-115.8-23.8-132.9c-12.1-33.7-77.2-55.2-107.8-40.6
						S365.8,390.2,363.5,410.9z"/>
					<g opacity="0.26">
						<path fill="#7777B7" d="M504.7,386.7c6.2,17.1,19.9,101.9,23.8,132.9c3,23.4,9.5,83.4,11.4,101.6c12-2.8,20.6-5,20.6-5
							s-8.5-79.2-12-107c-3.9-31-17.6-115.8-23.8-132.9c-12.1-33.7-77.2-55.2-107.8-40.6c-4.1,1.9-8,4.5-11.7,7.5
							C437.9,335.2,493.6,355.9,504.7,386.7z"/>
					</g>
					<g>
						<g>
							<path fill="#ED6C4B" d="M457.7,51.8c0,0,200.3-1.6,161.3,139c-39,140.6-36.4,141.6-10.7,138.9c25.6-2.7,19.1,25.6,4.7,29
								c-25.1,6-131.8-2.8-178.4-35.2C405.9,303.6,361.7,73.9,387.9,61C425.3,42.6,457.7,51.8,457.7,51.8z"/>
							<path opacity="0.23" fill="#ED6C4B" d="M572.6,251.2c-7.7,11.5-9.2,30.3-11.2,52.5c-2.6,29.5,25.5,30,24.5,38.2
								c-0.9,7.5-19.3,16.2-57.3,6.4c-38-9.8-41.6-9-52.2-10c-10.6-1-26.4-17.4-16.1-25.7c10.3-8.3,81.7-67.2,88-62
								c6.3,5.2,2.2-5.3,7.3-9.7c5-4.4,10.8-6.2,11.3-3.5C567.3,239.9,587.1,229.4,572.6,251.2z"/>
							<path fill="#E0B894" d="M473.4,85.2L473.4,85.2c-58.6-8.1-112.3,30.3-120,85.8l-5,36.2c-7.2,52.6,29.5,101.6,83.2,113.5
								c-1,3.4-2.2,6.9-3.7,10.2c-5.4,12.2-5,21.2,6.4,27.7c17.2,9.8,54.7,6,48.4-8.9c-4.5-10.6-6.9-16.2-5.3-28.3
								c42.9-8.3,77.3-41.3,83.3-84.9l5-36.2C573.3,144.8,532,93.3,473.4,85.2z"/>
							<g opacity="0.27">
								<path fill="#E0B894" d="M473.8,85.2c49.9,14.4,83.1,61.4,76.2,111.7l-5,36.2c-6,43.5-40.4,76.6-83.3,84.9
									c-1.6,12.1,0.8,17.7,5.3,28.3c4.4,10.4-12.4,15.3-28.8,14.1c18.4,7.3,50.2,3.1,44.4-10.8c-4.5-10.6-6.9-16.2-5.3-28.3
									c42.9-8.3,77.3-41.3,83.3-84.9l5-36.2C573.2,144.9,532.1,93.5,473.8,85.2z"/>
							</g>
							<path fill="#FFFFFF" d="M439.1,258.3c2.8-7.5,16.1,2.1,34-10.4c7.4-5.1,16.6,5.8,6.8,14C470.3,269.9,434.4,270.8,439.1,258.3
								z"/>
							<ellipse transform="matrix(0.9906 0.1366 -0.1366 0.9906 29.3479 -63.3338)" cx="476.1" cy="182.2" rx="5.4" ry="5.1"/>
							<ellipse transform="matrix(0.9906 0.1366 -0.1366 0.9906 25.722 -50.9411)" cx="384" cy="161.9" rx="5.4" ry="5.1"/>
							<path fill="#ED6C4B" d="M387.9,61c0,0-55.9,38.9-6.8,58.6c35.1,14.1,104.2,37.7,146.6,46.5c8.5,1.8,28.1-6.8,31.6-5.1
								c9.1,4.5-19,11.3-18.7,15.7c1.4,21.4,18.3,38.8,24.2,36.7c5.9-2.1,32.7-9.1,39.4-43.5C610.7,135.4,524.8,39.8,387.9,61z"/>
							<path d="M482.9,167c-0.6-0.1-1.2-0.4-1.5-1c-4.3-7.3-11.3-5.2-11.6-5.1c-1.1,0.4-2.3-0.3-2.7-1.4c-0.4-1.1,0.3-2.3,1.4-2.7
								c3.6-1.2,11.7-1.2,16.6,7c0.6,1,0.3,2.3-0.7,2.9C483.9,167,483.4,167.1,482.9,167z"/>
							<path d="M369.7,142.5c-0.5-0.1-1-0.3-1.4-0.8c-0.7-0.9-0.6-2.3,0.4-3c2.9-2.3,10.5-5.1,18,1c0.9,0.7,1.1,2.1,0.3,3
								c-0.7,0.9-2.1,1.1-3,0.3c-6.8-5.4-12.5-1.1-12.7-0.9C370.8,142.4,370.2,142.6,369.7,142.5z"/>
							<path fill="#7777B7" d="M462.9,48c-15.5-1.3-47.2,3.2-47.2,3.2s110,33.2,138.1,63.3c26.1,27.9,21.7,83.5,21.7,83.5l13.5,14.2
								c0,0,22.9-65.6-2-107.4C566.1,70.2,509.6,51.8,462.9,48z"/>
							
								<ellipse transform="matrix(0.9906 0.1366 -0.1366 0.9906 35.2005 -75.5271)" fill="#E0B894" cx="567.9" cy="218.7" rx="24.1" ry="22.8"/>
							<path opacity="0.23" fill="#E0B894" d="M577.8,212.4c-6.3-3.3-14.7,0.7-14.7,0.7s3.4,0.5,6.9,1.4c0.8,7.1-6.3,14.5-6.3,14.5
								s12.2-5.9,12.4-12.3c0.9,0.5,1.4,1.3,1.9,1.7C581,220.8,584.4,215.9,577.8,212.4z"/>
							<polygon fill="#C6A083" points="415.1,212.1 402.8,206.4 417.9,192.5 							"/>
							
								<ellipse transform="matrix(0.9906 0.1366 -0.1366 0.9906 33.3706 -63.3968)" fill="#C6A083" cx="478.6" cy="211.4" rx="11" ry="7.8"/>
							
								<ellipse transform="matrix(0.9906 0.1366 -0.1366 0.9906 29.244 -49.7633)" fill="#C6A083" cx="377.2" cy="188.2" rx="11" ry="7.8"/>
							<g opacity="0.24">
								<path fill="#E0B894" d="M570.9,196c-4.3-0.6-8.4-0.1-12.1,1.3c1.7-0.1,3.3,0,5,0.2c13.2,1.8,22.5,13.4,20.7,25.9
									c-1.2,8.4-7.1,15.1-14.9,18c11.1-0.7,20.4-8.6,21.9-19.5C593.4,209.4,584.1,197.8,570.9,196z"/>
							</g>
						</g>
						<path opacity="0.49" fill="#ED6C4B" d="M551.5,121.8c0,0-4.4-7-7.5-4.1s6.6,5.2,5.6,13.8c-0.9,8.5-28.8,15.2-20.8,19.8
							c8,4.7,30.8-2.4,32.9,3.8s3.6,19.1,5.7,11.2C569.7,158.4,564.4,130.4,551.5,121.8z"/>
						<path opacity="0.49" fill="#ED6C4B" d="M614.6,124.5c4.6,9.7,11.2,33.2,5.5,42.2c-5.7,9.1-13.6,11.7-12.4,5.1
							c7.4-39.1-3.6-54.4-7.2-63.9C594.8,93.1,612.3,119.7,614.6,124.5z"/>
					</g>
				</g>
				<path fill="#E0B894" d="M526,386c13.5,28.8,49.1,98.3,32.1,125.2c-18.2,28.9-133.1,9.6-133.1,9.6l0.3-18.1
					c0,0,86.9,13.5,100.3-9.2c12.7-21.7-24.6-76-31-101.8c-1-4,2.3-16,9.2-17.6C516.1,371.3,523.6,381,526,386z"/>
				<g>
					<g>
						<path fill="#D4ECF8" d="M426.5,468.7l-3.7-0.6l1.2-7.8l-13.4-2l-1.2,7.8l-3-0.5c-3.6-0.5-7.3,1.9-7.5,5.5
							c-0.1,1.3,0.1,5.4,0.1,5.4s-1.4,3.6-1.7,4.8c-0.4,2.2,0.1,6.8-0.2,9c-0.3,2-2.4,7.8-2.4,7.8l-4.4,29c-0.5,3.6,1.9,7,5.5,7.5
							l20.2,3.1c3.6,0.5,7-1.9,7.5-5.5l4.2-27.5c0,0-0.9-6.3-0.4-8.6c0.4-2.1,2.9-6.7,3.2-8.9c0.3-1.8-0.2-5.3-0.2-5.3
							s1.4-4.3,1.8-5.8C432.8,472.7,430,469.3,426.5,468.7z"/>
						<path fill="#C6DCE5" d="M424.9,463.2l-16.2-2.5l0.6-3.9c0.2-1.3,1.4-2.1,2.7-2l11.6,1.8c1.3,0.2,2.1,1.4,2,2.7L424.9,463.2z"
							/>
						
							<rect x="392.6" y="501.2" transform="matrix(0.9885 0.1509 -0.1509 0.9885 82.1214 -55.8904)" fill="#C8DFE8" width="33.5" height="23.8"/>
					</g>
					<path fill="#FFFFFF" d="M424,469.7c0,0-1.8-0.2-1.8,0.5s5,1.2,5.3,3.5s-3.4,5.9-2.8,7.8c0.6,1.9,2,2.4,1.6,4.6
						s-1.8,3.8-2.6,5.8c-0.8,2-1.4,7.7-0.6,7.6s1.5-4.8,2.5-6.1s4.1-6.6,3.4-8.8c-0.7-2.2-1.3-2.9-1.1-4c0.2-1,3.1-4.5,2.8-6
						C430.4,473,429.6,470.1,424,469.7z"/>
				</g>
			</g>
		</g>
		<path fill="#E0B894" d="M393.9,496.5c-2.2,3.8-3.2,14.1-3.4,18c-0.6,8.8,35.4,6.4,35.4,6.4l2.4-17.8c0,0-11.3-0.4-20.9-2.7
			C400.6,498.8,395.2,494.3,393.9,496.5z"/>
	</g>
	<path fill="#6A6AA0" d="M176.9,442.6l-3-1.3c-1.4-0.6-2-2.1-1.4-3.5l5.7-13.5c0.6-1.4,2.1-2,3.5-1.4l3,1.3c1.4,0.6,2,2.1,1.4,3.5
		l-5.7,13.5C179.9,442.6,178.3,443.2,176.9,442.6z"/>
	<path fill="#6A6AA0" d="M432.6,523.7l-3.2-0.4c-1.5-0.2-2.5-1.5-2.3-3l2.2-16c0.2-1.5,1.5-2.5,3-2.3l3.2,0.4c1.5,0.2,2.5,1.5,2.3,3
		l-2.2,16C435.5,522.9,434.1,523.9,432.6,523.7z"/>
</g>
<g>
	<path fill="#7777B7" d="M579.5,1071.5l24.1-2.2c1.7-0.2,2.9-1.7,2.8-3.3l-0.1-1.1c-0.2-1.7-1.7-2.9-3.3-2.8l-24.1,2.2
		c-1.7,0.2-2.9,1.7-2.8,3.3l0.1,1.1C576.3,1070.4,577.8,1071.6,579.5,1071.5z"/>
	<g>
		<path fill="#7777B7" d="M603.9,1066.5c0,0,13.7,22.9,9.7,26.1c-4,3.2-63.9,8.4-67,6.5c-3.1-1.9,32.9-27.6,32.9-27.6L603.9,1066.5z
			"/>
		<path fill="#6E71A8" d="M576,1074c0,0,6.2-0.7,9.5,1.9c1.7,1.4,4.8,5.8,6.3,8c0.5,0.7,0.2,1.6-0.6,1.9L580,1090
			c-0.6,0.2-1.3,0-1.5-0.6c-1-2-3.5-6.5-5.1-7.6c-2.6-1.8-6.9-0.8-6.9-0.8L576,1074z"/>
		<path fill="#FFFFFF" stroke="#6E71A8" stroke-linecap="round" stroke-linejoin="round" stroke-miterlimit="10" d="M613.9,1090.6
			c0,0,1,4.4-0.2,5.2c-1.2,0.8-65.1,7.6-66.1,7.3c-1.8-0.6-0.8-4.5-0.8-4.5s24.4-1.5,37.9-3.4C592,1094.3,613.9,1090.6,613.9,1090.6
			z"/>
		<g opacity="0.18">
			<path fill="#6E71A8" d="M600.9,1072c0.8-0.6,1.3-1.6,1.2-2.7l-0.1-1.1c-0.2-1.7-1.7-2.9-3.3-2.8l-22.6,2
				c-0.1-1.6,1.1-3.1,2.8-3.2l24.1-2.2c1.7-0.2,3.2,1.1,3.3,2.8l0.1,1.1c0.1,1.1-0.4,2.1-1.2,2.7c3,5.3,10.3,18.8,9,23
				c0.2,1.4,0.4,3.6-0.4,4.2c-0.2,0.1-1.5,0.3-3.7,0.7c0-0.5-0.1-1.1-0.2-1.5C611.1,1090.8,603.9,1077.3,600.9,1072z"/>
		</g>
	</g>
</g>
<g>
	<g>
		<path fill="#7777B7" d="M365.1,1071.7c0,0,7.4,25.6,2.7,27.7c-4.7,2.1-64-8.2-66.4-10.8c-2.5-2.6,38.9-18.3,38.9-18.3
			L365.1,1071.7z"/>
		<path fill="#7777B7" d="M340.2,1070.3l23.8,4c1.7,0.3,3.3-0.8,3.6-2.5l0.2-1.1c0.3-1.7-0.8-3.3-2.5-3.6l-23.8-4
			c-1.7-0.3-3.3,0.8-3.6,2.5l-0.2,1.1C337.4,1068.4,338.5,1070,340.2,1070.3z"/>
		<path fill="#FFFFFF" stroke="#6E71A8" stroke-linecap="round" stroke-linejoin="round" stroke-miterlimit="10" d="M368.6,1097.6
			c0,0-0.2,4.5-1.5,5s-64.9-9.3-65.8-9.8c-1.6-1,0.3-4.5,0.3-4.5s24,4.7,37.5,6.4C346.5,1095.6,368.6,1097.6,368.6,1097.6z"/>
	</g>
	<path fill="#6E71A8" d="M334.9,1072.5l1.8,0.9c1.5,0.8,1.5,2.9,0,3.7l-7.5,3.8c-0.5,0.3-1.1,0.3-1.7,0.1l-6.7-2.7L334.9,1072.5z"/>
	<g opacity="0.18">
		<path fill="#6E71A8" d="M360.8,1076.3c1-0.4,1.7-1.2,1.9-2.3l0.2-1.1c0.3-1.7-0.8-3.3-2.5-3.6l-22.3-3.8c0.3-1.6,1.9-2.7,3.5-2.4
			l23.8,4c1.7,0.3,2.8,1.9,2.5,3.6l-0.2,1.1c-0.2,1.1-0.9,1.9-1.9,2.3c1.6,5.9,5.1,20.8,2.8,24.5c-0.1,1.4-0.5,3.6-1.4,4
			c-0.2,0.1-1.6-0.1-3.8-0.3c0.1-0.5,0.2-1.1,0.2-1.5C365.9,1097,362.3,1082.2,360.8,1076.3z"/>
	</g>
</g>
</svg>
