<?xml version="1.0" encoding="utf-8"?>
<!-- Generator: Adobe Illustrator 18.0.0, SVG Export Plug-In . SVG Version: 6.00 Build 0)  -->
<!DOCTYPE svg PUBLIC "-//W3C//DTD SVG 1.1//EN" "http://www.w3.org/Graphics/SVG/1.1/DTD/svg11.dtd">
<svg version="1.1" id="Capa_1" xmlns="http://www.w3.org/2000/svg" xmlns:xlink="http://www.w3.org/1999/xlink" x="0px" y="0px"
	 viewBox="0 0 448.3 734.8" enable-background="new 0 0 448.3 734.8" xml:space="preserve">
<g>
	<polygon fill="#44B9B9" points="214.3,513.6 201,734.8 236.4,734.8 297.7,556.5 355.8,734.8 398.3,734.8 375.7,467.5 	"/>
	<g opacity="0.23">
		<polygon fill="#44B9B9" points="398.3,734.8 375.4,467.6 351.7,474.4 375.7,734.8 		"/>
	</g>
	<g>
		<g>
			<path fill="#E0B894" d="M44.9,339.3c0,0-7.5-18.5-12.2-16.4c-2,0.9,1.4,7.4-0.4,8.6c-5,3.4-22.1-10.4-24.7-6.6
				c-1.5,2.2,10.6,8.9,10.6,8.9s-15.4-5.7-17.1-2.7c-1.4,2.6,14.7,8.8,14.7,8.8S3.5,336.3,2.5,340c-0.7,2.7,35.6,11.2,35.6,11.2
				L44.9,339.3z"/>
			<g>
				<path fill="#E0B894" d="M246.2,278.4c0,0-60.8,68.3-86.7,78.6c-28.8,11.5-115.2-17.8-115.2-17.8l-6.3,11.9
					c0,0,89.4,47.4,128.6,36c25.3-7.3,86.5-65.2,86.5-65.2L246.2,278.4z"/>
				<g>
					<path fill="#7777B7" d="M211.9,327.6c-2.7,23.3,1.3,30,2.7,59.3c1.2,25.4-9.1,128.4-9.1,128.4s32.4,12.4,107.1,11.3
						c18.2-0.3,76.5-15.1,76.5-15.1s-7.7-71.2-10.8-96.2c-3.5-27.9-15.9-104.1-21.4-119.5c-10.9-30.3-69.4-49.6-97-36.5
						C232.3,272.4,214,309,211.9,327.6z"/>
					<g opacity="0.26">
						<path fill="#7777B7" d="M338.9,305.8c5.5,15.4,17.9,91.6,21.4,119.5c2.7,21.1,8.5,75,10.3,91.4c10.7-2.5,18.5-4.5,18.5-4.5
							s-7.7-71.2-10.8-96.2c-3.5-27.9-15.9-104.1-21.4-119.5c-10.9-30.3-69.4-49.6-97-36.6c-3.7,1.7-7.2,4-10.5,6.7
							C278.9,259.5,328.9,278.1,338.9,305.8z"/>
					</g>
					<g>
						<g>
							<path fill="#ED6C4B" d="M296.6,4.6c0,0,180.1-1.4,145,125S409,257,432,254.6c23-2.4,17.1,23,4.3,26.1
								c-22.6,5.4-118.5-2.5-160.4-31.7c-25.7-17.9-65.5-224.5-42-236C267.5-3.7,296.6,4.6,296.6,4.6z"/>
							<path opacity="0.23" fill="#ED6C4B" d="M399.9,184c-6.9,10.4-8.3,27.3-10.1,47.2c-2.4,26.6,22.9,27,22.1,34.4
								c-0.8,6.7-17.4,14.6-51.5,5.7s-37.4-8.1-47-9c-9.6-0.9-23.8-15.7-14.5-23.1c9.3-7.4,73.5-60.5,79.2-55.8
								c5.7,4.7,2-4.7,6.5-8.7s9.7-5.5,10.1-3.2C395.2,173.8,413,164.4,399.9,184z"/>
							<path fill="#E0B894" d="M310.7,34.7L310.7,34.7c-52.7-7.3-101,27.3-107.9,77.2l-4.5,32.5c-6.5,47.3,26.5,91.4,74.9,102
								c-0.9,3.1-2,6.2-3.3,9.2c-4.9,11-4.5,19.1,5.7,24.9c15.5,8.8,49.2,5.4,43.5-8c-4-9.5-6.2-14.6-4.8-25.5
								c38.5-7.4,69.5-37.2,74.9-76.3l4.5-32.5C400.6,88.3,363.4,41.9,310.7,34.7z"/>
							<g opacity="0.27">
								<path fill="#E0B894" d="M311.1,34.7c44.8,13,74.7,55.2,68.5,100.4l-4.5,32.5c-5.4,39.2-36.3,68.9-74.9,76.3
									c-1.4,10.8,0.8,16,4.8,25.5c3.9,9.3-11.1,13.8-25.9,12.7c16.5,6.5,45.2,2.7,39.9-9.7c-4-9.5-6.2-14.6-4.8-25.5
									c38.5-7.4,69.5-37.2,74.9-76.3l4.5-32.5C400.5,88.4,363.6,42.2,311.1,34.7z"/>
							</g>
							<path fill="#FFFFFF" d="M279.9,190.4c2.5-6.8,14.4,1.9,30.6-9.4c6.6-4.6,15,5.2,6.1,12.6C308,200.8,275.7,201.6,279.9,190.4z
								"/>
							<ellipse transform="matrix(0.9906 0.1366 -0.1366 0.9906 19.5864 -41.6433)" cx="313.2" cy="121.9" rx="4.8" ry="4.6"/>
							<ellipse transform="matrix(0.9906 0.1366 -0.1366 0.9906 16.3255 -30.4982)" cx="230.4" cy="103.7" rx="4.8" ry="4.6"/>
							<path fill="#ED6C4B" d="M233.8,12.9c0,0-50.2,35-6.2,52.7c31.6,12.7,93.7,33.9,131.9,41.8c7.6,1.6,25.3-6.1,28.4-4.6
								c8.2,4.1-17.1,10.2-16.8,14.1c1.3,19.3,16.5,34.9,21.8,33c5.3-1.9,29.4-8.1,35.4-39.2C434.3,79.8,357-6.2,233.8,12.9z"/>
							<path d="M319.3,108.3c-0.6-0.1-1.1-0.4-1.4-0.9c-3.9-6.5-10.2-4.7-10.5-4.6c-1,0.3-2.1-0.2-2.4-1.2c-0.3-1,0.2-2.1,1.2-2.4
								c3.2-1.1,10.5-1.1,14.9,6.3c0.5,0.9,0.2,2.1-0.7,2.6C320.2,108.3,319.7,108.3,319.3,108.3z"/>
							<path d="M217.5,86.2c-0.5-0.1-0.9-0.3-1.2-0.7c-0.6-0.8-0.5-2,0.3-2.7c2.6-2.1,9.4-4.6,16.2,0.9c0.8,0.7,1,1.9,0.3,2.7
								c-0.7,0.8-1.9,1-2.7,0.3c-6.1-4.9-11.2-1-11.4-0.8C218.5,86.2,218,86.3,217.5,86.2z"/>
							<path fill="#7777B7" d="M301.3,1.3c-13.9-1.1-42.4,2.9-42.4,2.9S357.8,34,383,61.1c23.4,25.1,19.5,75.1,19.5,75.1l12.1,12.8
								c0,0,20.6-59-1.8-96.5C394.1,21.2,343.3,4.7,301.3,1.3z"/>
							
								<ellipse transform="matrix(0.9906 0.1366 -0.1366 0.9906 24.8497 -52.609)" fill="#E0B894" cx="395.7" cy="154.8" rx="21.7" ry="20.5"/>
							<path opacity="0.23" fill="#E0B894" d="M404.7,149.1c-5.7-3-13.2,0.6-13.2,0.6s3,0.4,6.2,1.3c0.7,6.4-5.7,13.1-5.7,13.1
								s11-5.3,11.1-11.1c0.8,0.5,1.2,1.2,1.7,1.5C407.5,156.6,410.6,152.2,404.7,149.1z"/>
							<polygon fill="#C6A083" points="258.3,148.8 247.2,143.7 260.9,131.1 							"/>
							
								<ellipse transform="matrix(0.9906 0.1366 -0.1366 0.9906 23.2041 -41.6999)" fill="#C6A083" cx="315.4" cy="148.2" rx="9.9" ry="7"/>
							
								<ellipse transform="matrix(0.9906 0.1366 -0.1366 0.9906 19.4929 -29.439)" fill="#C6A083" cx="224.2" cy="127.3" rx="9.9" ry="7"/>
							<g opacity="0.24">
								<path fill="#E0B894" d="M398.5,134.3c-3.8-0.5-7.5-0.1-10.9,1.2c1.5-0.1,3,0,4.5,0.2c11.8,1.6,20.2,12,18.7,23.3
									c-1,7.6-6.4,13.6-13.4,16.2c10-0.6,18.4-7.8,19.7-17.5C418.7,146.4,410.3,136,398.5,134.3z"/>
							</g>
						</g>
						<path opacity="0.49" fill="#ED6C4B" d="M381,67.6c0,0-4-6.3-6.8-3.7c-2.8,2.6,5.9,4.7,5.1,12.4c-0.8,7.7-25.9,13.6-18.7,17.8
							c7.2,4.2,27.7-2.1,29.6,3.4s3.2,17.2,5.1,10.1S392.6,75.4,381,67.6z"/>
						<path opacity="0.49" fill="#ED6C4B" d="M437.7,70c4.2,8.8,10.1,29.8,4.9,38c-5.2,8.2-12.2,10.5-11.1,4.6
							c6.6-35.2-3.2-48.9-6.5-57.4C420,41.8,435.6,65.7,437.7,70z"/>
					</g>
				</g>
				<path fill="#E0B894" d="M358,305.2c12.2,25.9,44.1,88.4,28.9,112.6c-16.4,26-119.7,8.6-119.7,8.6l0.3-16.3
					c0,0,78.2,12.2,90.2-8.3c11.4-19.5-22.2-68.4-27.8-91.6c-0.9-3.6,2.1-14.4,8.3-15.8C349.1,292,355.9,300.7,358,305.2z"/>
				<g>
					<g>
						<path fill="#D4ECF8" d="M268.5,379.6l-3.4-0.5l1.1-7l-12.1-1.8l-1.1,7l-2.7-0.4c-3.2-0.5-6.5,1.7-6.8,5
							c-0.1,1.2,0.1,4.9,0.1,4.9s-1.3,3.2-1.5,4.3c-0.4,2,0.1,6.1-0.2,8.1c-0.2,1.8-2.1,7-2.1,7l-4,26.1c-0.5,3.2,1.7,6.3,5,6.8
							l18.1,2.8c3.2,0.5,6.3-1.7,6.8-5l3.8-24.7c0,0-0.8-5.6-0.4-7.7c0.4-1.9,2.6-6,2.9-8c0.3-1.6-0.2-4.8-0.2-4.8s1.3-3.9,1.6-5.2
							C274.2,383.2,271.8,380.1,268.5,379.6z"/>
						<path fill="#C6DCE5" d="M267.1,374.6l-14.6-2.2l0.5-3.3c0.2-1.3,1.4-2.1,2.7-2l10,1.5c1.3,0.2,2.1,1.4,2,2.7L267.1,374.6z"/>
						
							<rect x="238.1" y="408.8" transform="matrix(0.9885 0.1509 -0.1509 0.9885 66.2082 -33.3918)" fill="#C8DFE8" width="30.1" height="21.4"/>
					</g>
					<path fill="#FFFFFF" d="M266.3,380.4c0,0-1.6-0.2-1.6,0.5c0,0.7,4.5,1,4.8,3.1c0.3,2.1-3,5.3-2.5,7c0.5,1.7,1.8,2.2,1.4,4.1
						c-0.4,1.9-1.7,3.4-2.4,5.2c-0.7,1.8-1.2,6.9-0.5,6.8c0.7-0.1,1.4-4.3,2.2-5.5s3.7-6,3.1-7.9c-0.7-2-1.2-2.6-1-3.6
						c0.2-0.9,2.8-4,2.5-5.4S271.4,380.8,266.3,380.4z"/>
				</g>
			</g>
		</g>
		<path fill="#E0B894" d="M239.3,404.6c-2,3.4-2.8,12.7-3.1,16.2c-0.5,7.9,31.8,5.7,31.8,5.7l2.2-16c0,0-10.1-0.3-18.8-2.4
			C245.3,406.6,240.4,402.6,239.3,404.6z"/>
	</g>
	<path fill="#6A6AA0" d="M43.9,356l-2.2-0.9c-1.4-0.6-2-2.1-1.4-3.5l4.9-11.6c0.6-1.4,2.1-2,3.5-1.4l2.2,0.9c1.4,0.6,2,2.1,1.4,3.5
		l-4.9,11.6C46.8,356,45.3,356.6,43.9,356z"/>
	<path fill="#6A6AA0" d="M273.8,429l-2.4-0.3c-1.5-0.2-2.5-1.5-2.3-3l1.9-13.9c0.2-1.5,1.5-2.5,3-2.3l2.4,0.3c1.5,0.2,2.5,1.5,2.3,3
		l-1.9,13.9C276.6,428.2,275.3,429.2,273.8,429z"/>
</g>
</svg>
