<svg id="Layer_1" data-name="Layer 1" xmlns="http://www.w3.org/2000/svg" viewBox="0 0 1160.12 60.95"><defs><style>.cls-1{fill:#ccb246;}.cls-2{fill:#191b15;}</style></defs><title>Artboard 1</title><rect class="cls-1" y="0.1" width="1158.71" height="60.85"/><polygon class="cls-2" points="763.82 0.1 647.2 60.95 571.19 60.95 687.81 0.1 763.82 0.1"/><polygon class="cls-2" points="924.11 0.1 807.49 60.95 732.79 60.95 849.41 0.1 924.11 0.1"/><polygon class="cls-2" points="1085.66 0.1 969.03 60.95 893.02 60.95 1009.12 0.1 1008.55 0.1 1085.66 0.1"/><polygon class="cls-2" points="1159.92 2.1 1160.42 60.95 1054.57 60.95 1159.92 2.1"/><polygon class="cls-1" points="845.76 0.1 729.14 60.95 653.13 60.95 769.75 0.1 845.76 0.1"/><polyline class="cls-1" points="682.4 0.1 565.78 60.95 489.77 60.95 606.39 0.1"/><polygon class="cls-1" points="1004.91 0.1 888.29 60.95 813.59 60.95 930.21 0.1 1004.91 0.1"/><polygon class="cls-1" points="1160.02 0.1 1090.49 0.1 1091.07 0.1 974.96 60.95 1050.98 60.95 1160.06 0.1 1160.02 0.1"/><polygon class="cls-2" points="117.22 0.1 0.6 60.95 0.29 60.95 -0.27 0.1 117.22 0.1"/><polygon class="cls-2" points="278.82 0.1 162.2 60.95 86.19 60.95 202.81 0.1 278.82 0.1"/><polygon class="cls-2" points="439.11 0.1 322.49 60.95 247.79 60.95 364.41 0.1 439.11 0.1"/><polygon class="cls-2" points="600.66 0.1 484.03 60.95 408.02 60.95 524.12 0.1 523.55 0.1 600.66 0.1"/><polygon class="cls-1" points="360.76 0.1 244.15 60.95 168.13 60.95 284.75 0.1 360.76 0.1"/><polygon class="cls-1" points="199.41 0.1 82.79 60.95 6.77 60.95 123.39 0.1 199.41 0.1"/><polygon class="cls-1" points="519.91 0.1 403.29 60.95 328.59 60.95 445.21 0.1 519.91 0.1"/></svg>