<svg id="Layer_1" data-name="Layer 1" xmlns="http://www.w3.org/2000/svg" viewBox="0 0 407.5 95"><defs><style>.cls-1{fill:#d3d3d3;}.cls-2{opacity:0.5;}.cls-3{fill:#939393;}.cls-4{fill:#a3a3a3;}</style></defs><title>intercomunicador</title><path class="cls-1" d="M17.83,88.46h0a1.51,1.51,0,0,1-.74-2L46.88,21.06C50,14.15,58.06,9.51,66.88,9.51H341.37c8.82,0,16.85,4.64,20,11.55l29.25,64.23a1.49,1.49,0,0,1-.75,2h0a1.49,1.49,0,0,1-2-.74L358.64,22.31c-2.67-5.86-9.61-9.8-17.27-9.8H66.88c-7.66,0-14.6,3.94-17.27,9.8L19.82,87.71A1.5,1.5,0,0,1,17.83,88.46Z"/><g class="cls-2"><path class="cls-3" d="M120.66,26.59h180a9.17,9.17,0,0,1,4.18,1c-1.08-2.46-4-4.23-7.4-4.23h-180c-4.34,0-7.85,2.84-7.85,6.33A6.16,6.16,0,0,0,113.26,35a5.18,5.18,0,0,1-.45-2.1C112.81,29.42,116.32,26.59,120.66,26.59Z"/><path class="cls-4" d="M297.45,36c4.34,0,7.86-2.83,7.86-6.33a5.15,5.15,0,0,0-.46-2.1,9.17,9.17,0,0,0-4.18-1h-180c-4.34,0-7.85,2.83-7.85,6.33a5.18,5.18,0,0,0,.45,2.1,9.17,9.17,0,0,0,4.18,1Z"/></g><g class="cls-2"><path class="cls-3" d="M121.06,46.85h180a9.16,9.16,0,0,1,4.17,1c-1.08-2.46-4-4.22-7.39-4.22h-180c-4.33,0-7.85,2.83-7.85,6.33a6.17,6.17,0,0,0,3.68,5.35,5.23,5.23,0,0,1-.46-2.11C113.21,49.69,116.73,46.85,121.06,46.85Z"/><path class="cls-4" d="M297.86,56.26c4.33,0,7.85-2.83,7.85-6.32a5.23,5.23,0,0,0-.46-2.11,9.16,9.16,0,0,0-4.17-1h-180c-4.33,0-7.85,2.84-7.85,6.33a5.23,5.23,0,0,0,.46,2.11,9.28,9.28,0,0,0,4.17,1Z"/></g><g class="cls-2"><path class="cls-3" d="M121.06,66.23h180a9.16,9.16,0,0,1,4.17,1c-1.08-2.46-4-4.22-7.39-4.22h-180c-4.33,0-7.85,2.83-7.85,6.33a6.17,6.17,0,0,0,3.68,5.35,5.23,5.23,0,0,1-.46-2.11C113.21,69.07,116.73,66.23,121.06,66.23Z"/><path class="cls-4" d="M297.86,75.64c4.33,0,7.85-2.83,7.85-6.32a5.23,5.23,0,0,0-.46-2.11,9.16,9.16,0,0,0-4.17-1h-180c-4.33,0-7.85,2.84-7.85,6.33a5.23,5.23,0,0,0,.46,2.11,9.28,9.28,0,0,0,4.17,1Z"/></g></svg>