<?xml version="1.0" encoding="utf-8"?>
<!-- Generator: Adobe Illustrator 18.0.0, SVG Export Plug-In . SVG Version: 6.00 Build 0)  -->
<!DOCTYPE svg PUBLIC "-//W3C//DTD SVG 1.1//EN" "http://www.w3.org/Graphics/SVG/1.1/DTD/svg11.dtd">
<svg version="1.1" id="Capa_1" xmlns="http://www.w3.org/2000/svg" xmlns:xlink="http://www.w3.org/1999/xlink" x="0px" y="0px"
	 viewBox="0 0 48.8 45" enable-background="new 0 0 48.8 45" xml:space="preserve">
<g>
	<g>
		
			<image overflow="visible" opacity="0.15" width="208" height="208" xlink:href="FFE2778D.png"  transform="matrix(0.24 0 0 0.24 3.6403 5.631511e-002)">
		</image>
		<g>
			<g>
				<circle fill="#44B9B9" cx="25.5" cy="22" r="14.4"/>
				<path fill="#80CEF4" d="M25.5,37.9c-8.8,0-15.9-7.1-15.9-15.9c0-8.8,7.1-15.9,15.9-15.9S41.5,13.2,41.5,22
					C41.5,30.7,34.3,37.9,25.5,37.9z M25.5,9.1c-7.1,0-12.9,5.8-12.9,12.9c0,7.1,5.8,12.9,12.9,12.9S38.5,29.1,38.5,22
					C38.5,14.8,32.7,9.1,25.5,9.1z"/>
			</g>
		</g>
	</g>
	<g>
		<g>
			<path fill="#FFFFFF" d="M27.4,14.8c-1.3,0-2.5,0.3-3.6,1c-1,0.6-1.8,1.4-2.4,2.3h-2.7c-1.1,0-2,0.9-2,2v3.6c0,1.1,0.9,2,2,2h2.7
				c0.6,0.9,1.4,1.7,2.4,2.3c1.1,0.6,2.3,1,3.6,1c0.3,0,0.5-0.2,0.5-0.5V15.4C27.9,15.1,27.7,14.8,27.4,14.8z M21.2,24.7h-2.5
				c-0.5,0-1-0.4-1-1v-3.6c0-0.5,0.4-1,1-1h2.5V24.7L21.2,24.7z M26.9,28c-1.9-0.2-3.7-1.2-4.7-2.9v-6.3c1-1.7,2.8-2.7,4.7-2.9V28z"
				/>
			<path fill="#FFFFFF" d="M29.9,18c-0.2-0.2-0.5-0.1-0.7,0.1c-0.2,0.2-0.1,0.5,0.1,0.7c1,0.7,1.6,1.9,1.6,3.1s-0.6,2.4-1.6,3.1
				c-0.2,0.2-0.3,0.5-0.1,0.7c0.1,0.1,0.3,0.2,0.4,0.2c0.1,0,0.2,0,0.3-0.1c1.3-0.9,2.1-2.4,2.1-4C32,20.4,31.2,18.9,29.9,18z"/>
			<path fill="#FFFFFF" d="M31.9,15.9c-0.2-0.2-0.5-0.1-0.7,0.1c-0.2,0.2-0.1,0.5,0.1,0.7C33,17.9,34,19.9,34,22s-1,4-2.7,5.2
				c-0.2,0.2-0.3,0.5-0.1,0.7c0.1,0.1,0.3,0.2,0.4,0.2c0.1,0,0.2,0,0.3-0.1c2-1.4,3.2-3.7,3.2-6.1S33.9,17.3,31.9,15.9z"/>
		</g>
	</g>
</g>
</svg>
