<?xml version="1.0" encoding="utf-8"?>
<!-- Generator: Adobe Illustrator 18.0.0, SVG Export Plug-In . SVG Version: 6.00 Build 0)  -->
<!DOCTYPE svg PUBLIC "-//W3C//DTD SVG 1.1//EN" "http://www.w3.org/Graphics/SVG/1.1/DTD/svg11.dtd">
<svg version="1.1" id="Capa_1" xmlns="http://www.w3.org/2000/svg" xmlns:xlink="http://www.w3.org/1999/xlink" x="0px" y="0px"
	 viewBox="0 0 48.8 45" enable-background="new 0 0 48.8 45" xml:space="preserve">
<g>
	<g>
		
			<image overflow="visible" opacity="0.15" width="208" height="208" xlink:href="35C4B555.png"  transform="matrix(0.24 0 0 0.24 3.6403 5.631511e-002)">
		</image>
		<g>
			<g>
				<circle fill="#44B9B9" cx="25.5" cy="22" r="14.4"/>
				<path fill="#80CEF4" d="M25.5,37.9c-8.8,0-15.9-7.1-15.9-15.9c0-8.8,7.1-15.9,15.9-15.9S41.5,13.2,41.5,22
					C41.5,30.7,34.3,37.9,25.5,37.9z M25.5,9.1c-7.1,0-12.9,5.8-12.9,12.9c0,7.1,5.8,12.9,12.9,12.9S38.5,29.1,38.5,22
					C38.5,14.8,32.7,9.1,25.5,9.1z"/>
			</g>
		</g>
	</g>
	<g>
		<g>
			<path fill="#FFFFFF" d="M29.3,14.7c-1.3,0-2.5,0.3-3.6,1c-1,0.6-1.8,1.4-2.4,2.3h-2.7c-1.1,0-2,0.9-2,2v3.6c0,1.1,0.9,2,2,2h2.7
				c0.6,0.9,1.4,1.7,2.4,2.3c1.1,0.6,2.3,1,3.6,1c0.3,0,0.5-0.2,0.5-0.5V15.2C29.8,15,29.6,14.7,29.3,14.7z M23.1,24.6h-2.5
				c-0.5,0-1-0.4-1-1V20c0-0.5,0.4-1,1-1h2.5V24.6L23.1,24.6z M28.8,27.9c-1.9-0.2-3.7-1.2-4.7-2.9v-6.3c1-1.7,2.8-2.7,4.7-2.9V27.9
				z"/>
		</g>
	</g>
</g>
<line fill="none" stroke="#FFFFFF" stroke-linecap="round" stroke-linejoin="round" stroke-miterlimit="10" x1="21.5" y1="29.7" x2="33" y2="15.5"/>
</svg>
