<?xml version="1.0" encoding="utf-8"?>
<!-- Generator: Adobe Illustrator 22.0.0, SVG Export Plug-In . SVG Version: 6.00 Build 0)  -->
<svg version="1.1" id="Layer_1" xmlns="http://www.w3.org/2000/svg" xmlns:xlink="http://www.w3.org/1999/xlink" x="0px" y="0px"
	 viewBox="0 0 90.3 90.2" style="enable-background:new 0 0 90.3 90.2;" xml:space="preserve">
<style type="text/css">
	.st0{fill:#FFFFFF;}
	.st1{fill:#D07954;}
	.st2{fill:#E58E13;}
	.st3{fill:#F7D360;}
	.st4{fill:#E6E6E6;}
	.st5{fill:#FF6C48;}
	.st6{fill:#969696;}
	.st7{fill:#8CC63F;}
	.st8{fill:#32BEBB;}
	.st9{fill:#D07854;}
	.st10{fill:#C4C4C4;}
	.st11{fill:#D3D3D3;}
	.st12{fill:#EFEFEF;}
	.st13{fill:#939393;}
	.st14{fill:#B3B3B3;}
	.st15{fill:#828282;}
	.st16{opacity:0.5;}
	.st17{fill:#7F7F7F;}
	.st18{fill:#A3A3A3;}
</style>
<g>
	<g>
		<circle class="st0" cx="45.1" cy="45.2" r="42.6"/>
		<path class="st1" d="M45.1,90.2C20.3,90.2,0.1,70,0.1,45.2S20.3,0.1,45.1,0.1c24.8,0,45.1,20.2,45.1,45.1S70,90.2,45.1,90.2z
			 M45.1,5.1C23,5.1,5.1,23.1,5.1,45.2s18,40.1,40.1,40.1s40.1-18,40.1-40.1S67.2,5.1,45.1,5.1z"/>
	</g>
	<g>
		<path class="st2" d="M52.3,61.8c0,3.4-2.3,6.2-5.4,7.1c-0.6,0.2-1.3,0.3-2,0.3c-4,0-7.3-3.3-7.3-7.3L45,58L52.3,61.8z"/>
		<path class="st3" d="M52,64.1c-0.8,2.3-2.6,4.1-5,4.8c-1.5-0.4-2.8-1.3-3.7-2.4c-0.8-0.9-0.1-2.3,1.1-2.3H52z"/>
		<path class="st3" d="M63.9,54.5l-15.7,3.4l-22.1-3.4c1.7,0,2.7-0.9,3.3-2.4c2.7-7.2-4.5-28.4,15.6-28.4s12.9,21.1,15.6,28.4
			C61.2,53.6,62.2,54.5,63.9,54.5z"/>
		<path class="st2" d="M67.6,58.1c0,2-1.6,3.7-3.7,3.7H26.1c-1,0-1.9-0.4-2.6-1.1c-0.7-0.7-1.1-1.6-1.1-2.6c0-2,1.6-3.7,3.7-3.7
			h37.8c1,0,1.9,0.4,2.6,1.1C67.2,56.2,67.6,57.1,67.6,58.1z"/>
		<path class="st2" d="M60.6,52.1H41c-2.1,0-3.8-1.8-3.7-3.9c0.3-9-1.2-24.3,7.6-24.5c-24,0.1-8.7,30.8-18.7,30.8h37.8
			C62.2,54.5,61.2,53.6,60.6,52.1z"/>
		<path class="st3" d="M67.6,58.1c0,2-1.6,3.7-3.7,3.7H36.7c-1,0-1.9-0.4-2.6-1.1c-0.7-0.7-1.1-1.6-1.1-2.6c0-2,1.6-3.7,3.7-3.7
			h27.2c1,0,1.9,0.4,2.6,1.1C67.2,56.2,67.6,57.1,67.6,58.1z"/>
		<path class="st2" d="M48.7,24c0-0.1,0-0.2,0-0.3c0-2.1-1.7-3.7-3.7-3.7c-2.1,0-3.7,1.7-3.7,3.7c0,0.1,0,0.2,0,0.3"/>
		<g>
			<path class="st4" d="M63.2,36.1c-0.4,0-0.8-0.3-0.8-0.8c0-3.5-0.9-6.5-2.7-8.8c-1.3-1.8-2.7-2.5-2.7-2.5c-0.4-0.2-0.5-0.7-0.3-1
				c0.2-0.4,0.7-0.5,1-0.3c0.1,0,1.6,0.9,3.1,2.9c1.4,1.8,3,5,3,9.8C63.9,35.7,63.6,36.1,63.2,36.1z"/>
			<path class="st4" d="M66.5,31.8c-0.4,0-0.8-0.3-0.8-0.8c0-4.8-2.8-6.7-3-6.8c-0.3-0.2-0.4-0.7-0.2-1c0.2-0.3,0.7-0.5,1-0.2
				c0.1,0.1,3.7,2.4,3.7,8.1C67.2,31.4,66.9,31.8,66.5,31.8z"/>
			<path class="st4" d="M26.9,36.1c-0.4,0-0.8-0.3-0.8-0.8c0-4.8,1.6-8,3-9.8c1.5-2,3-2.9,3.1-2.9c0.4-0.2,0.8-0.1,1,0.3
				c0.2,0.4,0.1,0.8-0.3,1c0,0-1.4,0.8-2.7,2.5c-1.8,2.4-2.7,5.3-2.7,8.8C27.6,35.7,27.3,36.1,26.9,36.1z"/>
			<path class="st4" d="M23.5,31.8c-0.4,0-0.8-0.3-0.8-0.8c0-5.7,3.5-8,3.7-8.1c0.4-0.2,0.8-0.1,1,0.2c0.2,0.3,0.1,0.8-0.2,1
				c-0.1,0.1-3,2-3,6.8C24.3,31.4,24,31.8,23.5,31.8z"/>
		</g>
	</g>
</g>
</svg>
