<?xml version="1.0" encoding="utf-8"?>
<!-- Generator: Adobe Illustrator 18.0.0, SVG Export Plug-In . SVG Version: 6.00 Build 0)  -->
<!DOCTYPE svg PUBLIC "-//W3C//DTD SVG 1.1//EN" "http://www.w3.org/Graphics/SVG/1.1/DTD/svg11.dtd">
<svg version="1.1" id="Capa_1" xmlns="http://www.w3.org/2000/svg" xmlns:xlink="http://www.w3.org/1999/xlink" x="0px" y="0px"
	 viewBox="0 0 83.3 81.7" enable-background="new 0 0 83.3 81.7" xml:space="preserve">
<g>
	<g>
		<path fill="#686CA0" d="M42.1,77.6H40c-19.9,0-36-16.1-36-36v0c0-19.9,16.1-36,36-36h2.1c19.9,0,36,16.1,36,36v0
			C78.1,61.5,62,77.6,42.1,77.6z"/>
	</g>
	<g>
		<g>
			<g>
				<path fill="#FFFFFF" d="M53.6,31.8H27.3c-0.4,0-0.7,0.3-0.7,0.7s0.3,0.7,0.7,0.7h26.3c0.4,0,0.7-0.3,0.7-0.7
					S53.9,31.8,53.6,31.8z"/>
			</g>
		</g>
		<g>
			<g>
				<path fill="#FFFFFF" d="M53.6,38.9H27.3c-0.4,0-0.7,0.3-0.7,0.7c0,0.4,0.3,0.7,0.7,0.7h26.3c0.4,0,0.7-0.3,0.7-0.7
					C54.3,39.2,53.9,38.9,53.6,38.9z"/>
			</g>
		</g>
		<g>
			<g>
				<path fill="#FFFFFF" d="M45,43.6h-9.1c-0.4,0-0.7,0.3-0.7,0.7c0,0.4,0.3,0.7,0.7,0.7H45c0.4,0,0.7-0.3,0.7-0.7
					S45.3,43.6,45,43.6z"/>
			</g>
		</g>
		<g>
			<g>
				<path fill="#FFFFFF" d="M53.6,35.3H34c-0.4,0-0.7,0.3-0.7,0.7c0,0.4,0.3,0.7,0.7,0.7h19.6c0.4,0,0.7-0.3,0.7-0.7
					S53.9,35.3,53.6,35.3z"/>
			</g>
		</g>
		<g>
			<g>
				<path fill="#FFFFFF" d="M30.8,35.3h-3.5c-0.4,0-0.7,0.3-0.7,0.7s0.3,0.7,0.7,0.7h3.5c0.4,0,0.7-0.3,0.7-0.7
					C31.5,35.6,31.2,35.3,30.8,35.3z"/>
			</g>
		</g>
		<g>
			<g>
				<path fill="#FFFFFF" d="M60,30.7c-0.2-0.2-0.4-0.2-0.6-0.2h0c-1.4,0-2.5-1-2.6-2.4c0-0.4-0.4-0.8-0.8-0.8H24.7
					c-0.4,0-0.8,0.3-0.8,0.8c-0.1,1.3-1.1,2.3-2.4,2.4c-0.4,0-0.8,0.4-0.8,0.8v17c0,0.4,0.3,0.8,0.8,0.8c1.3,0.1,2.4,1.1,2.4,2.4
					c0,0.4,0.4,0.8,0.8,0.8h20c0.4,0,0.7-0.3,0.7-0.7c0-0.4-0.3-0.7-0.7-0.7H26c-0.5,0-1-0.3-1.2-0.8c-0.4-0.9-1.2-1.7-2.1-2
					c-0.5-0.2-0.8-0.6-0.8-1.2V32.6c0-0.5,0.3-1,0.8-1.2c1-0.4,1.7-1.1,2.1-2c0.2-0.5,0.6-0.8,1.2-0.8h28.6c0.5,0,1,0.3,1.2,0.8
					c0.4,1,1.2,1.7,2.2,2.1c0.5,0.2,0.9,0.6,0.9,1.2v10.2c0,0.4,0.3,0.7,0.7,0.7c0.4,0,0.7-0.3,0.7-0.7V31.2
					C60.3,31,60.2,30.8,60,30.7z"/>
			</g>
		</g>
		<g>
			<g>
				<path fill="#FFFFFF" d="M61.6,24H19.2c-1,0-1.9,0.8-1.9,1.8v27.8c0,1,0.8,1.8,1.9,1.8h26.4c0.9,0,1.5,1,1.1,1.8l-0.1,0.2
					c-0.1,0.3-0.1,0.6,0.1,0.8c0.2,0.2,0.5,0.3,0.8,0.3l1.1-0.2c0.5-0.1,1,0.1,1.3,0.6l0.6,1c0.1,0.2,0.4,0.4,0.7,0.4c0,0,0,0,0,0
					c0.3,0,0.6-0.2,0.7-0.4l0.7-1.4c0.5-0.9,1.8-0.9,2.3,0l0.7,1.4c0.1,0.3,0.4,0.4,0.7,0.4c0,0,0,0,0,0c0.3,0,0.5-0.1,0.7-0.4
					l0.6-1c0.3-0.4,0.8-0.7,1.3-0.6l1.1,0.2c0.3,0,0.6-0.1,0.8-0.3c0.2-0.2,0.2-0.5,0.1-0.8l-0.1-0.2c-0.4-0.8,0.2-1.8,1.1-1.8h0
					c1,0,1.9-0.8,1.9-1.8V25.8C63.5,24.8,62.7,24,61.6,24z M51,58.5L50.8,58c-0.4-0.7-1.3-1.1-2.1-0.9l-0.4,0.1l0.7-1.4
					c0.3-0.6,0.9-0.9,1.5-0.7c0.3,0.1,0.7,0.2,1.1,0.1c0.3,0,0.5,0,0.7,0.2c0.1,0,0.1,0.1,0.2,0.1L51,58.5z M53.8,54.6
					C53.8,54.6,53.8,54.6,53.8,54.6c-0.1,0-0.2,0-0.3,0c0,0,0,0,0,0c-0.2,0-0.3-0.1-0.5-0.2c-0.4-0.3-0.9-0.4-1.4-0.4
					c-0.1,0-0.2,0-0.2,0c-0.4,0-0.9-0.2-1.1-0.6c-0.1-0.2-0.2-0.3-0.3-0.5c0,0,0,0,0,0c0,0,0,0,0,0c0,0,0,0,0,0
					c-0.2-0.3-0.5-0.5-0.8-0.6c-0.4-0.2-0.6-0.6-0.6-1c0-0.6-0.2-1.2-0.5-1.7c-0.2-0.3-0.2-0.7,0-1c0.3-0.5,0.5-1.1,0.5-1.7
					c0-0.4,0.2-0.8,0.6-1c0.4-0.2,0.7-0.4,1-0.8c0.4-0.6,1-0.9,1.7-1c0.3,0,0.6-0.1,0.9-0.2c0.6-0.3,1.3-0.3,2,0
					c0.4,0.2,0.8,0.2,1.2,0.2c0.4,0,0.9,0.2,1.1,0.6c0.2,0.5,0.7,0.9,1.2,1.2c0.4,0.2,0.6,0.6,0.6,1c0,0.6,0.2,1.2,0.5,1.7
					c0.2,0.3,0.2,0.7,0,1c-0.3,0.5-0.5,1.1-0.5,1.7c0,0.4-0.2,0.8-0.6,1c-0.3,0.1-0.6,0.3-0.8,0.6c0,0,0,0,0,0c0,0,0,0,0,0
					c0,0,0,0,0,0c-0.1,0.1-0.2,0.3-0.3,0.5c-0.2,0.4-0.6,0.6-1,0.6c-0.6,0-1.2,0.1-1.7,0.4C54.1,54.5,53.9,54.5,53.8,54.6z
					 M58.6,57.1c-0.8-0.1-1.6,0.2-2.1,0.9l-0.3,0.4l-1.4-2.9c0.1,0,0.1-0.1,0.2-0.1c0.2-0.1,0.5-0.2,0.7-0.2c0.4,0,0.7,0,1.1-0.1
					c0.6-0.2,1.2,0.1,1.5,0.7l0.7,1.4L58.6,57.1z M62.2,53.6c0,0.3-0.2,0.5-0.5,0.5H59l-0.3-0.7c0,0,0,0,0.1,0
					c0.9-0.4,1.5-1.4,1.4-2.4c0-0.2,0-0.5,0.2-0.7c0.6-0.8,0.6-1.9,0-2.7c-0.1-0.2-0.2-0.4-0.2-0.7c0.1-0.9-0.4-1.8-1.1-2.2
					c-0.4-0.2-0.7-0.5-0.9-0.9c-0.5-0.8-1.4-1.2-2.3-1.1c-0.3,0-0.5,0-0.7-0.2c-0.8-0.6-2-0.6-2.8,0c-0.2,0.1-0.5,0.2-0.7,0.2
					c-0.9-0.1-1.8,0.4-2.3,1.1c-0.2,0.4-0.5,0.7-0.9,0.9c-0.8,0.5-1.2,1.3-1.1,2.2c0,0.2,0,0.5-0.2,0.7c-0.6,0.8-0.6,1.9,0,2.7
					c0.1,0.2,0.2,0.4,0.2,0.7c-0.1,1,0.5,1.9,1.4,2.4c0,0,0,0,0.1,0l-0.3,0.7H20.5c-1,0-1.8-0.8-1.8-1.8V27.1c0-1,0.8-1.8,1.8-1.8
					h39.9c1,0,1.8,0.8,1.8,1.8L62.2,53.6L62.2,53.6z"/>
			</g>
		</g>
		<g>
			<g>
				<path fill="#FFFFFF" d="M53.6,44.9c-2.3,0-4.2,1.8-4.2,4.1c0,2.3,1.9,4.1,4.2,4.1c2.3,0,4.2-1.8,4.2-4.1
					C57.8,46.8,55.9,44.9,53.6,44.9z M53.6,51.8c-1.6,0-2.9-1.2-2.9-2.8c0-1.5,1.3-2.8,2.9-2.8c1.6,0,2.9,1.2,2.9,2.8
					C56.4,50.5,55.1,51.8,53.6,51.8z"/>
			</g>
		</g>
	</g>
</g>
</svg>
