<?xml version="1.0" encoding="utf-8"?>
<!-- Generator: Adobe Illustrator 18.0.0, SVG Export Plug-In . SVG Version: 6.00 Build 0)  -->
<!DOCTYPE svg PUBLIC "-//W3C//DTD SVG 1.1//EN" "http://www.w3.org/Graphics/SVG/1.1/DTD/svg11.dtd">
<svg version="1.1" id="Capa_1" xmlns="http://www.w3.org/2000/svg" xmlns:xlink="http://www.w3.org/1999/xlink" x="0px" y="0px"
	 viewBox="0 0 33.7 37" enable-background="new 0 0 33.7 37" xml:space="preserve">
<path fill="#7a7a87" d="M7.4,8.9V5.4c0-0.4,0.3-0.8,0.7-0.9c0.5-0.1,1,0.3,1,0.9v3.5c0,0.4-0.3,0.8-0.7,0.9C7.9,9.9,7.4,9.5,7.4,8.9
	z M22.2,9.8c0.4-0.1,0.7-0.5,0.7-0.9V5.4c0-0.4-0.3-0.8-0.7-0.9c-0.5-0.1-1,0.3-1,0.9v3.5C21.2,9.5,21.6,9.9,22.2,9.8z M31.5,25.2
	c0.3,4.4-3.2,8-7.4,7.6c-3.3-0.3-6.1-3.1-6.3-6.5c-0.3-4.4,3.2-8,7.4-7.6C28.5,19,31.2,21.8,31.5,25.2z M29.8,26.3
	c0.3-3.4-2.4-6.2-5.7-5.8c-2.4,0.2-4.4,2.3-4.6,4.7c-0.3,3.4,2.4,6.2,5.7,5.8C27.6,30.8,29.5,28.8,29.8,26.3z M10.1,15.1H8.1
	c-0.4,0-0.8,0.3-0.8,0.8v2c0,0.4,0.3,0.8,0.8,0.8h1.9c0.4,0,0.8-0.3,0.8-0.8v-2C10.8,15.5,10.5,15.1,10.1,15.1z M8.1,24h2.1
	c0.4,0,0.7-0.3,0.7-0.7v-2.1c0-0.4-0.3-0.7-0.7-0.7H8.1c-0.4,0-0.7,0.3-0.7,0.7v2.1C7.4,23.7,7.7,24,8.1,24z M13.2,18.7h2.2
	c0.4,0,0.6-0.3,0.6-0.7v-2.2c0-0.4-0.3-0.7-0.6-0.7h-2.2c-0.4,0-0.6,0.3-0.6,0.7V18C12.6,18.4,12.8,18.7,13.2,18.7z M13.2,24h2.1
	c0.4,0,0.7-0.3,0.7-0.7v-2.1c0-0.4-0.3-0.7-0.7-0.7h-2.1c-0.4,0-0.7,0.3-0.7,0.7v2.1C12.6,23.7,12.9,24,13.2,24z M5.7,25.6V13.4h19
	V16c0,0.5,0.4,0.9,0.9,0.9h0c0.5,0,0.9-0.4,0.9-0.9v-6c0-1.1-0.8-1.9-1.9-1.9h-0.7l0,0.8c0,0.8-0.5,1.6-1.3,1.8
	c-1.1,0.3-2.1-0.6-2.1-1.7V8.1H10v0.8c0,0.8-0.5,1.6-1.3,1.8C7.5,10.9,6.5,10,6.5,8.9V8.1H5.8c-1,0-1.9,0.9-1.9,1.9v15.6
	c0,1.1,0.8,1.9,1.9,1.9h9.3c0.5,0,0.9-0.4,0.9-0.9v0c0-0.5-0.4-0.9-0.9-0.9H5.8C5.7,25.8,5.7,25.7,5.7,25.6z M21.2,18v-2.2
	c0-0.4-0.3-0.7-0.7-0.7h-2.1c-0.4,0-0.7,0.3-0.7,0.7V18c0,0.4,0.3,0.7,0.7,0.7h2.1C20.9,18.7,21.2,18.4,21.2,18z M27.2,25.8h-2.5
	l0-2.6c0-0.4-0.3-0.8-0.7-0.9c-0.5-0.1-1,0.3-1,0.9v3.5c0,0.5,0.4,0.9,0.9,0.9h3.4c0.5,0,0.9-0.5,0.8-1.1
	C28,26.1,27.6,25.8,27.2,25.8z"/>
</svg>
