<?xml version="1.0" encoding="utf-8"?>
<!-- Generator: Adobe Illustrator 18.0.0, SVG Export Plug-In . SVG Version: 6.00 Build 0)  -->
<!DOCTYPE svg PUBLIC "-//W3C//DTD SVG 1.1//EN" "http://www.w3.org/Graphics/SVG/1.1/DTD/svg11.dtd">
<svg version="1.1" id="Capa_1" xmlns="http://www.w3.org/2000/svg" xmlns:xlink="http://www.w3.org/1999/xlink" x="0px" y="0px"
	 viewBox="0 0 57.2 57.7" enable-background="new 0 0 57.2 57.7" xml:space="preserve">
<circle fill="#ED6C4C" stroke="#FFFFFF" stroke-width="5.7631" stroke-miterlimit="10" cx="29.6" cy="26.9" r="17.3"/>
<g>
	<path fill="#FFFFFF" d="M36,32.3l-0.3,0.3c-0.6,0.6-1.6,0.6-2.2,0L23.8,23c-0.6-0.6-0.6-1.6,0-2.2l0.3-0.3c0.6-0.6,1.6-0.6,2.2,0
		l9.7,9.7C36.6,30.7,36.6,31.7,36,32.3z"/>
	<path fill="#FFFFFF" d="M35.7,20.4l0.3,0.3c0.6,0.6,0.6,1.6,0,2.2l-9.7,9.7c-0.6,0.6-1.6,0.6-2.2,0l-0.3-0.3
		c-0.6-0.6-0.6-1.6,0-2.2l9.7-9.7C34.1,19.8,35.1,19.8,35.7,20.4z"/>
</g>
</svg>
