<?xml version="1.0" encoding="utf-8"?>
<!-- Generator: Adobe Illustrator 18.0.0, SVG Export Plug-In . SVG Version: 6.00 Build 0)  -->
<!DOCTYPE svg PUBLIC "-//W3C//DTD SVG 1.1//EN" "http://www.w3.org/Graphics/SVG/1.1/DTD/svg11.dtd">
<svg version="1.1" id="Capa_1" xmlns="http://www.w3.org/2000/svg" xmlns:xlink="http://www.w3.org/1999/xlink" x="0px" y="0px"
	 viewBox="0 0 38.8 37.5" enable-background="new 0 0 38.8 37.5" xml:space="preserve">
<g>
	<path fill="#44B8B8" d="M28.4,33.1H10.8c-3.3,0-6-2.7-6-6V9.5c0-3.3,2.7-6,6-6h17.7c3.3,0,6,2.7,6,6v17.7
		C34.4,30.5,31.7,33.1,28.4,33.1z"/>
	<g>
		<path fill="#FFFFFF" d="M23.4,23.6h-7.4c-0.3,0-0.6-0.2-0.6-0.6V9.7c0-0.3,0.2-0.6,0.6-0.6h7.4c0.3,0,0.6,0.2,0.6,0.6V23
			C24,23.3,23.7,23.6,23.4,23.6z"/>
		<path fill="#FFFFFF" d="M19.4,27.3l-6.5-6.6c-0.2-0.2,0-0.6,0.4-0.6h13.1c0.4,0,0.6,0.3,0.4,0.6l-6.5,6.6
			C19.9,27.5,19.6,27.5,19.4,27.3z"/>
	</g>
</g>
</svg>
