<?xml version="1.0" encoding="utf-8"?>
<!-- Generator: Adobe Illustrator 18.0.0, SVG Export Plug-In . SVG Version: 6.00 Build 0)  -->
<!DOCTYPE svg PUBLIC "-//W3C//DTD SVG 1.1//EN" "http://www.w3.org/Graphics/SVG/1.1/DTD/svg11.dtd">
<svg version="1.1" id="Capa_1" xmlns="http://www.w3.org/2000/svg" xmlns:xlink="http://www.w3.org/1999/xlink" x="0px" y="0px"
	 viewBox="0 0 38.5 39.3" enable-background="new 0 0 38.5 39.3" xml:space="preserve">
<g>
	<g>
		<path fill="#44B8B8" d="M33.9,23.5l-3.9-3.9c-1-1-2.3-1.6-3.8-1.6c-1.5,0-2.8,0.5-3.9,1.6L20.7,18c1.1-1.1,1.6-2.4,1.6-3.9
			c0-1.5-0.5-2.8-1.5-3.8L17,6.5c-1-1.1-2.3-1.6-3.8-1.6c-1.5,0-2.8,0.5-3.8,1.5L6.6,9.1c-1.1,1-1.6,2.3-1.6,3.8
			c0,1.5,0.5,2.8,1.6,3.8l3.9,3.9c1,1,2.3,1.6,3.8,1.6c1.5,0,2.8-0.5,3.9-1.6l1.6,1.6c-1.1,1.1-1.6,2.4-1.6,3.9
			c0,1.5,0.5,2.8,1.5,3.8l3.8,3.9c1,1.1,2.3,1.6,3.8,1.6c1.5,0,2.8-0.5,3.8-1.5l2.7-2.7c1.1-1,1.6-2.3,1.6-3.8
			C35.5,25.8,35,24.5,33.9,23.5z M18.2,15.5c0,0-0.2-0.2-0.3-0.4c-0.2-0.2-0.3-0.3-0.4-0.4c-0.1-0.1-0.2-0.2-0.4-0.3
			c-0.2-0.1-0.3-0.2-0.5-0.2c-0.2,0-0.3-0.1-0.5-0.1c-0.5,0-0.9,0.2-1.3,0.5c-0.3,0.3-0.5,0.8-0.5,1.3c0,0.2,0,0.4,0.1,0.5
			c0,0.2,0.1,0.3,0.2,0.5c0.1,0.2,0.2,0.3,0.3,0.4c0.1,0.1,0.2,0.2,0.4,0.4c0.2,0.2,0.3,0.3,0.4,0.3c-0.4,0.4-0.8,0.6-1.3,0.6
			c-0.5,0-0.9-0.2-1.3-0.5l-3.9-3.9c-0.3-0.3-0.5-0.8-0.5-1.3c0-0.5,0.2-0.9,0.5-1.2L11.9,9c0.4-0.3,0.8-0.5,1.3-0.5
			c0.5,0,0.9,0.2,1.3,0.5l3.8,3.9c0.3,0.3,0.5,0.8,0.5,1.3C18.8,14.6,18.6,15.1,18.2,15.5z M31.4,28.5l-2.7,2.7
			c-0.3,0.3-0.8,0.5-1.3,0.5c-0.5,0-0.9-0.2-1.3-0.5l-3.8-3.9c-0.3-0.3-0.5-0.8-0.5-1.3c0-0.5,0.2-1,0.6-1.4c0,0,0.2,0.2,0.3,0.4
			c0.2,0.2,0.3,0.3,0.4,0.4c0.1,0.1,0.2,0.2,0.4,0.3c0.2,0.1,0.3,0.2,0.5,0.2c0.2,0,0.3,0.1,0.5,0.1c0.5,0,0.9-0.2,1.3-0.5
			c0.3-0.3,0.5-0.8,0.5-1.3c0-0.2,0-0.4-0.1-0.5c0-0.2-0.1-0.3-0.2-0.5c-0.1-0.2-0.2-0.3-0.3-0.4c-0.1-0.1-0.2-0.2-0.4-0.4
			c-0.2-0.2-0.3-0.3-0.4-0.3c0.4-0.4,0.8-0.6,1.3-0.6c0.5,0,0.9,0.2,1.3,0.5l3.9,3.9c0.3,0.3,0.5,0.8,0.5,1.3
			C31.9,27.7,31.7,28.2,31.4,28.5z"/>
	</g>
</g>
</svg>
