<?xml version="1.0" encoding="utf-8"?>
<!-- Generator: Adobe Illustrator 18.0.0, SVG Export Plug-In . SVG Version: 6.00 Build 0)  -->
<!DOCTYPE svg PUBLIC "-//W3C//DTD SVG 1.1//EN" "http://www.w3.org/Graphics/SVG/1.1/DTD/svg11.dtd">
<svg version="1.1" id="Capa_1" xmlns="http://www.w3.org/2000/svg" xmlns:xlink="http://www.w3.org/1999/xlink" x="0px" y="0px"
	 viewBox="0 0 71 70.4" enable-background="new 0 0 71 70.4" xml:space="preserve">
<g>
	<g>
		
			<image overflow="visible" opacity="0.25" width="287" height="287" xlink:href="1646C58A.png"  transform="matrix(0.24 0 0 0.24 3.6724 2.4302)">
		</image>
		<g>
			<g>
				<g>
					<circle fill="#44B9B9" cx="35.1" cy="33.8" r="23.9"/>
					<path fill="#80CEF4" d="M35.1,59.2c-14,0-25.4-11.4-25.4-25.4S21.1,8.4,35.1,8.4s25.4,11.4,25.4,25.4S49.1,59.2,35.1,59.2z
						 M35.1,11.4c-12.4,0-22.4,10.1-22.4,22.4s10.1,22.4,22.4,22.4s22.4-10.1,22.4-22.4S47.4,11.4,35.1,11.4z"/>
				</g>
			</g>
		</g>
	</g>
	<g>
		<g>
			<g>
				<path fill="#FFFFFF" d="M48.8,34.1h-3.2l-0.9-5.9c0.6,0.4,1.3,0.6,2,0.6c2,0,3.7-1.7,3.7-3.7s-1.7-3.7-3.7-3.7
					c-2,0-3.7,1.7-3.7,3.7c0,0.4,0.1,0.8,0.2,1.2l-2-1.7c-0.4-0.4-0.9-0.5-1.5-0.5h-7.2c-0.8,0-1.6,0.7-1.6,1.5
					c0,0.9,0.7,1.7,1.6,1.7H39l-5.5,4.3c-1,0.8-1.6,2-1.6,3.2c0,1.4,0.7,2.7,1.9,3.4l4.9,3.1l-4.1,1.7c-0.4,0.2-0.7,0.5-0.9,0.9
					c-0.2,0.4-0.1,0.9,0.1,1.3c0.3,0.6,0.8,0.9,1.4,0.9c0.2,0,0.4,0,0.6-0.1l5.7-2.5c0.9-0.4,1.5-1.3,1.5-2.3c0-0.7-0.3-1.3-0.7-1.8
					l-3.2-3.2l3-2.7l0.2,1.9c0.1,1,1,1.8,2.1,1.8h4.4c0.9,0,1.6-0.7,1.6-1.6C50.4,34.8,49.7,34.1,48.8,34.1z M46.6,22.5
					c1.5-0.1,2.8,1.2,2.8,2.8c-0.1,1.4-1.2,2.4-2.5,2.5c-1.5,0.1-2.8-1.2-2.8-2.8C44.2,23.7,45.2,22.6,46.6,22.5z M48.8,36.2h-4.4
					c-0.5,0-0.9-0.4-1-0.9l-0.5-3.8l-5.4,4.7l4,4c0.3,0.3,0.4,0.7,0.4,1c0,0.6-0.3,1.1-0.8,1.3l-5.7,2.5c-0.3,0.1-0.6,0-0.7-0.3
					c-0.1-0.1-0.1-0.3,0-0.4c0.1-0.1,0.2-0.3,0.3-0.3l4.5-1.9c0.3-0.1,0.5-0.4,0.5-0.7c0-0.3-0.1-0.6-0.4-0.8l-5.2-3.4
					c-0.9-0.6-1.4-1.5-1.4-2.6c0-0.9,0.4-1.8,1.2-2.4l6.5-5.1l-1.1-1.1h-7.1c-0.3,0-0.5-0.2-0.5-0.5c0-0.3,0.2-0.5,0.5-0.5h7.3
					c0.3,0,0.6,0.1,0.8,0.3l3.1,2.6l1.1,7.1h4.1c0.3,0,0.5,0.2,0.5,0.5S49.1,36.2,48.8,36.2z"/>
				<path fill="#FFFFFF" d="M26,44.9c-0.3,0.3-0.7,0.4-1,0.1c-0.2-0.1-0.3-0.3-0.3-0.5c0-0.2,0-0.4,0.2-0.6l7-8.4L31,34.8l-7,8.4
					c-0.3,0.4-0.5,0.9-0.4,1.4c0.1,0.5,0.3,1,0.8,1.3c0.3,0.2,0.7,0.3,1.1,0.3c0.5,0,1-0.2,1.4-0.6l6.1-6.9L32.1,38L26,44.9z"/>
				<path fill="#FFFFFF" d="M23,28.3h10.5c0.3,0,0.5,0.2,0.5,0.5l0,0c0,0.3-0.2,0.5-0.5,0.5H23c-0.3,0-0.5-0.2-0.5-0.5l0,0
					C22.5,28.5,22.7,28.3,23,28.3z"/>
				<path fill="#FFFFFF" d="M19.9,28.3h1.1c0.3,0,0.5,0.2,0.5,0.5l0,0c0,0.3-0.2,0.5-0.5,0.5h-1.1c-0.3,0-0.5-0.2-0.5-0.5l0,0
					C19.3,28.5,19.6,28.3,19.9,28.3z"/>
				<path fill="#FFFFFF" d="M24.1,30.4h6.8c0.3,0,0.5,0.2,0.5,0.5l0,0c0,0.3-0.2,0.5-0.5,0.5h-6.8c-0.3,0-0.5-0.2-0.5-0.5l0,0
					C23.5,30.6,23.8,30.4,24.1,30.4z"/>
				<path fill="#FFFFFF" d="M20.9,30.4H22c0.3,0,0.5,0.2,0.5,0.5l0,0c0,0.3-0.2,0.5-0.5,0.5h-1.1c-0.3,0-0.5-0.2-0.5-0.5l0,0
					C20.4,30.6,20.6,30.4,20.9,30.4z"/>
				<path fill="#FFFFFF" d="M24.6,32.5h5.8c0.3,0,0.5,0.2,0.5,0.5l0,0c0,0.3-0.2,0.5-0.5,0.5h-5.8c-0.3,0-0.5-0.2-0.5-0.5l0,0
					C24.1,32.7,24.3,32.5,24.6,32.5z"/>
				<path fill="#FFFFFF" d="M22,32.5h0.5c0.3,0,0.5,0.2,0.5,0.5l0,0c0,0.3-0.2,0.5-0.5,0.5H22c-0.3,0-0.5-0.2-0.5-0.5l0,0
					C21.4,32.7,21.7,32.5,22,32.5z"/>
				<path fill="#FFFFFF" d="M22,26.2h7.9c0.3,0,0.5,0.2,0.5,0.5v0c0,0.3-0.2,0.5-0.5,0.5H22c-0.3,0-0.5-0.2-0.5-0.5v0
					C21.4,26.4,21.7,26.2,22,26.2z"/>
				<path fill="#FFFFFF" d="M18.8,26.2h1.1c0.3,0,0.5,0.2,0.5,0.5v0c0,0.3-0.2,0.5-0.5,0.5h-1.1c-0.3,0-0.5-0.2-0.5-0.5v0
					C18.3,26.4,18.5,26.2,18.8,26.2z"/>
			</g>
		</g>
	</g>
</g>
</svg>
