<?xml version="1.0" encoding="utf-8"?>
<!-- Generator: Adobe Illustrator 18.0.0, SVG Export Plug-In . SVG Version: 6.00 Build 0)  -->
<!DOCTYPE svg PUBLIC "-//W3C//DTD SVG 1.1//EN" "http://www.w3.org/Graphics/SVG/1.1/DTD/svg11.dtd">
<svg version="1.1" id="Capa_1" xmlns="http://www.w3.org/2000/svg" xmlns:xlink="http://www.w3.org/1999/xlink" x="0px" y="0px"
	 viewBox="0 0 49.2 43.5" enable-background="new 0 0 49.2 43.5" xml:space="preserve">
<g>
	<g>
		
			<image overflow="visible" opacity="0.15" width="208" height="208" xlink:href="B9F0CBD4.png"  transform="matrix(0.24 0 0 0.24 3.21 -1.1247)">
		</image>
		<g>
			<g>
				<circle fill="#44B9B9" cx="25.1" cy="20.8" r="14.4"/>
				<path fill="#80CEF4" d="M25.1,36.7c-8.8,0-15.9-7.1-15.9-15.9S16.3,4.9,25.1,4.9C33.9,4.9,41,12,41,20.8S33.9,36.7,25.1,36.7z
					 M25.1,7.9c-7.1,0-12.9,5.8-12.9,12.9S18,33.7,25.1,33.7c7.1,0,12.9-5.8,12.9-12.9S32.2,7.9,25.1,7.9z"/>
			</g>
		</g>
	</g>
	<g>
		<g>
			<path fill="#FFFFFF" d="M24.7,12.1c3.2,0,6.4,1.5,6.4,5.1c0,3.3-3.8,4.6-4.6,5.7c-0.6,0.9-0.4,2.1-2.1,2.1
				c-1.1,0-1.6-0.9-1.6-1.7c0-3,4.4-3.7,4.4-6.2c0-1.4-0.9-2.2-2.4-2.2c-3.2,0-2,3.3-4.4,3.3c-0.9,0-1.6-0.5-1.6-1.5
				C18.8,14.3,21.6,12.1,24.7,12.1z M24.6,26.7c1.1,0,2.1,0.9,2.1,2.1c0,1.1-0.9,2.1-2.1,2.1s-2.1-0.9-2.1-2.1
				C22.5,27.7,23.4,26.7,24.6,26.7z"/>
		</g>
	</g>
</g>
</svg>
