<svg id="Layer_1" data-name="Layer 1" xmlns="http://www.w3.org/2000/svg" viewBox="0 0 55.5 72.5"><title>_</title><path d="M31.55,31.42a5.07,5.07,0,0,0-1.71-.93,10.3,10.3,0,0,0-2.21-.21H24.35a1.87,1.87,0,0,0-1.22.36,1.76,1.76,0,0,0-.35,1.21v9.2a2.14,2.14,0,0,0,.14,1,.85.85,0,0,0,.43.57,1.92,1.92,0,0,0,1.07.22H27.7a9.62,9.62,0,0,0,1.57-.15,8.7,8.7,0,0,0,1.28-.35,3.93,3.93,0,0,0,1.07-.72,5.94,5.94,0,0,0,1.07-1.35,6.2,6.2,0,0,0,.65-1.71,9.48,9.48,0,0,0,.21-2.07A6.25,6.25,0,0,0,31.55,31.42ZM29.7,40.27a3.51,3.51,0,0,1-.65.36,3.05,3.05,0,0,1-.71.14H25.42V32.21h1.71a5.75,5.75,0,0,1,2,.28,2.22,2.22,0,0,1,1.35,1.21,5.79,5.79,0,0,1,.57,2.79C31,38.34,30.55,39.55,29.7,40.27Z"/><path d="M54.24,15.58l-.07-.07v-.07L40.61,1.88l-.07-.07a.07.07,0,0,1-.07-.07.07.07,0,0,1-.07-.07,1.12,1.12,0,0,0-.71-.15H6.08A4.72,4.72,0,0,0,2.73,2.88L2.65,3A5,5,0,0,0,1.23,6.38V67.1a4.86,4.86,0,0,0,1.42,3.42A5,5,0,0,0,6.08,72H49.53A4.85,4.85,0,0,0,53,70.52a5,5,0,0,0,1.42-3.42V16.29A2.13,2.13,0,0,0,54.24,15.58ZM41,6.66l8.06,8.06H43.18a1.94,1.94,0,0,1-1.5-.64,2.25,2.25,0,0,1-.64-1.5V6.66ZM51.32,67.1A2,2,0,0,1,49.46,69H6.08a2,2,0,0,1-1.28-.5,1.69,1.69,0,0,1-.5-1.28V6.31A1.79,1.79,0,0,1,4.87,5L4.94,5a2,2,0,0,1,1.21-.5h32v8.06a5.17,5.17,0,0,0,1.57,3.71,5.26,5.26,0,0,0,3.71,1.5h7.92V67.1Z"/><path d="M19.49,31.28a2.75,2.75,0,0,0-1.35-.72,9,9,0,0,0-2.21-.21H12.64a1.71,1.71,0,0,0-1.21.36c-.28.21-.36.64-.36,1.21v9.7a1.88,1.88,0,0,0,.36,1.15,1.1,1.1,0,0,0,.93.35,1.25,1.25,0,0,0,.93-.43,1.82,1.82,0,0,0,.35-1.14V38H16a5.36,5.36,0,0,0,3.49-1,3.61,3.61,0,0,0,1.22-2.93,4.08,4.08,0,0,0-.29-1.64A4.63,4.63,0,0,0,19.49,31.28Zm-1.71,4a1.82,1.82,0,0,1-.93.65,4.74,4.74,0,0,1-1.49.21H13.64V32.28h1.72a3.51,3.51,0,0,1,2.28.57,1.74,1.74,0,0,1,.5,1.35A2.26,2.26,0,0,1,17.78,35.27Z"/><path d="M37.33,30.21a2.44,2.44,0,0,0-.93.28.91.91,0,0,0-.5.5,1.73,1.73,0,0,0-.14.93v9.63a1.63,1.63,0,0,0,.36,1.14,1.08,1.08,0,0,0,.93.36,1.46,1.46,0,0,0,.92-.36,1.76,1.76,0,0,0,.36-1.14V37.41h4.21a1.16,1.16,0,0,0,.86-.28.83.83,0,0,0,.28-.71.94.94,0,0,0-.28-.72,1.57,1.57,0,0,0-.86-.28H38.33V32.21h5a1.23,1.23,0,0,0,.93-.29.89.89,0,0,0,.29-.71.92.92,0,0,0-.29-.72,1.22,1.22,0,0,0-.93-.28Z"/></svg>