<svg id="Layer_1" data-name="Layer 1" xmlns="http://www.w3.org/2000/svg" viewBox="0 0 56.17 57"><defs><style>.cls-1{fill:#00c3c5;}.cls-2{fill:#fff;}</style></defs><title>_</title><rect class="cls-1" x="0.64" y="1.49" width="54.59" height="54.59" rx="6" ry="6"/><path class="cls-2" d="M36.84,26.16l-13.2-7.77a2.24,2.24,0,0,0-2.4.05,2.62,2.62,0,0,0-1.18,2.24V36.09a2.62,2.62,0,0,0,1.18,2.23,2.26,2.26,0,0,0,1.24.38,2.3,2.3,0,0,0,1.15-.32l13.19-7.63a2.71,2.71,0,0,0,0-4.59Zm-13.28,8V22.63l9.86,5.81Z"/></svg>