<?xml version="1.0" encoding="utf-8"?>
<!-- Generator: Adobe Illustrator 18.0.0, SVG Export Plug-In . SVG Version: 6.00 Build 0)  -->
<!DOCTYPE svg PUBLIC "-//W3C//DTD SVG 1.1//EN" "http://www.w3.org/Graphics/SVG/1.1/DTD/svg11.dtd">
<svg version="1.1" id="Capa_1" xmlns="http://www.w3.org/2000/svg" xmlns:xlink="http://www.w3.org/1999/xlink" x="0px" y="0px"
	 viewBox="0 0 38.3 38" enable-background="new 0 0 38.3 38" xml:space="preserve">
<g>
	<path fill="#EBB956" d="M19.8,3.4l4.6,9.4c0.1,0.2,0.3,0.4,0.5,0.4l10.3,1.5c0.6,0.1,0.8,0.8,0.4,1.2l-7.5,7.3
		C28,23.3,28,23.6,28,23.8l1.8,10.3c0.1,0.6-0.5,1-1.1,0.8L19.5,30c-0.2-0.1-0.5-0.1-0.7,0l-9.2,4.9c-0.5,0.3-1.2-0.2-1.1-0.8
		l1.8-10.3c0-0.2,0-0.5-0.2-0.6l-7.5-7.3c-0.4-0.4-0.2-1.2,0.4-1.2l10.3-1.5c0.2,0,0.4-0.2,0.5-0.4l4.6-9.4
		C18.7,2.8,19.5,2.8,19.8,3.4z"/>
	<path fill="#DDAC53" d="M29.1,35.9c-0.3,0-0.6-0.1-0.8-0.2l-9.1-4.8L10,35.7c-0.7,0.4-1.6,0.2-2.1-0.4c-0.3-0.4-0.5-0.9-0.4-1.4
		l1.7-10.2l-7.4-7.2c-0.5-0.5-0.6-1.1-0.4-1.8c0.2-0.6,0.7-1.1,1.4-1.2L13,12.2l4.6-9.2c0.3-0.6,0.9-1,1.5-1c0.7,0,1.3,0.4,1.5,1
		l4.6,9.2l10.2,1.5c0.7,0.1,1.2,0.5,1.4,1.2c0.2,0.6,0,1.3-0.4,1.8L29,23.8l1.7,10.2c0.1,0.5-0.1,1-0.4,1.4
		C30,35.7,29.6,35.9,29.1,35.9z M3.7,15.5l7.1,6.9c0.4,0.4,0.6,1,0.5,1.5l-1.7,9.7l8.8-4.6c0.5-0.3,1.1-0.3,1.6,0l8.8,4.6L27,24
		c-0.1-0.6,0.1-1.1,0.5-1.5l7.1-6.9l-9.8-1.4c-0.6-0.1-1-0.4-1.3-0.9l-4.4-8.9l-4.4,8.9c-0.3,0.5-0.7,0.9-1.3,0.9L3.7,15.5z"/>
</g>
</svg>
