<?xml version="1.0" encoding="utf-8"?>
<!-- Generator: Adobe Illustrator 18.0.0, SVG Export Plug-In . SVG Version: 6.00 Build 0)  -->
<!DOCTYPE svg PUBLIC "-//W3C//DTD SVG 1.1//EN" "http://www.w3.org/Graphics/SVG/1.1/DTD/svg11.dtd">
<svg version="1.1" id="Capa_1" xmlns="http://www.w3.org/2000/svg" xmlns:xlink="http://www.w3.org/1999/xlink" x="0px" y="0px"
	 viewBox="0 0 49.2 43.5" enable-background="new 0 0 49.2 43.5" xml:space="preserve">
<g>
	
		<image overflow="visible" opacity="0.15" width="208" height="208" xlink:href="73FF201F.png"  transform="matrix(0.24 0 0 0.24 3.1862 -0.4167)">
	</image>
	<g>
		<g>
			<circle fill="#44B9B9" cx="25.1" cy="21.5" r="14.4"/>
			<path fill="#80CEF4" d="M25.1,37.4c-8.8,0-15.9-7.1-15.9-15.9S16.3,5.6,25.1,5.6S41,12.7,41,21.5S33.9,37.4,25.1,37.4z M25.1,8.6
				c-7.1,0-12.9,5.8-12.9,12.9S18,34.4,25.1,34.4S38,28.6,38,21.5S32.2,8.6,25.1,8.6z"/>
		</g>
	</g>
</g>
<path fill="#FFFFFF" d="M19.5,23c0.1,0.4,0.3,0.9,0.5,1.3l-0.7,0.8c-0.2,0.3-0.2,0.7,0.1,0.9l1.1,1.1c0.2,0.2,0.6,0.3,0.9,0.1
	l0.8-0.6c0.4,0.2,0.9,0.4,1.3,0.6l0.1,1.1c0,0.3,0.3,0.6,0.7,0.6H26c0.3,0,0.6-0.3,0.7-0.6l0.1-1c0.5-0.1,1-0.3,1.4-0.6l0.8,0.6
	c0.3,0.2,0.7,0.2,0.9-0.1L31,26c0.2-0.2,0.3-0.6,0.1-0.9l-0.6-0.8c0.3-0.4,0.5-0.9,0.6-1.4l1-0.1c0.3,0,0.6-0.3,0.6-0.7v-1.6
	c0-0.3-0.3-0.6-0.6-0.7L31,19.8c-0.1-0.5-0.3-1-0.6-1.4l0.6-0.7c0.2-0.3,0.2-0.7-0.1-0.9l-1.1-1.1c-0.2-0.2-0.6-0.3-0.9-0.1
	l-0.7,0.6c-0.5-0.3-1-0.5-1.5-0.6l-0.1-0.9c0-0.3-0.3-0.6-0.7-0.6h-1.6c-0.3,0-0.6,0.3-0.7,0.6l-0.1,0.9c-0.5,0.1-1,0.4-1.5,0.6
	l-0.7-0.6c-0.3-0.2-0.7-0.2-0.9,0.1l-1.1,1.1c-0.2,0.2-0.3,0.6-0.1,0.9l0.6,0.8c-0.2,0.4-0.4,0.9-0.6,1.4l-1,0.1
	c-0.3,0-0.6,0.3-0.6,0.7v1.6c0,0.3,0.3,0.6,0.6,0.7L19.5,23z M25.2,18.7c1.5,0,2.6,1.2,2.6,2.6s-1.2,2.6-2.6,2.6
	c-1.5,0-2.6-1.2-2.6-2.6S23.8,18.7,25.2,18.7z"/>
</svg>
