<svg id="Layer_1" data-name="Layer 1" xmlns="http://www.w3.org/2000/svg" viewBox="0 0 66 48.66"><title>_</title><path d="M42.87,21.41l-14.2-7.77a2.61,2.61,0,0,0-3.86,2.29V31.34A2.63,2.63,0,0,0,27.41,34a2.6,2.6,0,0,0,1.24-.32L42.85,26a2.62,2.62,0,0,0,0-4.59Zm-14.3,8V17.88l10.61,5.81Z"/><path d="M64.64,11.44v0c0-.52-.59-5.12-2.83-7.46A10.44,10.44,0,0,0,54.87.7l-.32,0h-.11C45.94,0,33.11,0,33,0h0C32.83,0,20,0,11.43.65h-.12L11,.7A10.21,10.21,0,0,0,4.12,4C2,6.36,1.38,10.86,1.31,11.37v.07c0,.21-.48,5.34-.48,10.48v4.81c0,5.15.46,10.27.48,10.49v0c.06.51.6,5,2.82,7.37a10.68,10.68,0,0,0,7.16,3.2c.26,0,.49,0,.64.08l.15,0c4.91.47,20.29.7,20.94.71h0c.13,0,13-.09,21.46-.71h.11l.36,0a9.93,9.93,0,0,0,6.83-3.26c2.13-2.32,2.75-6.82,2.81-7.33v-.06c0-.22.47-5.34.47-10.49V21.92C65.11,16.78,64.66,11.65,64.64,11.44Zm-3.3,15.29c0,4.76-.41,9.67-.45,10.12-.16,1.24-.81,4.09-1.85,5.21a6.18,6.18,0,0,1-4.45,2.07l-.4,0c-8.21.6-20.56.69-21.13.69s-15.8-.24-20.55-.68l-.79-.1a7.11,7.11,0,0,1-4.82-2l0,0c-1-1.07-1.65-3.73-1.81-5.17,0-.34-.46-5.3-.46-10.13V21.92c0-4.76.42-9.66.46-10.11.19-1.47.85-4.14,1.84-5.22a6.47,6.47,0,0,1,4.54-2.15l.31,0c8.34-.6,20.78-.68,21.22-.69s12.88.09,21.15.69l.33,0a6.77,6.77,0,0,1,4.61,2.09l0,0c1,1.06,1.65,3.77,1.81,5.24,0,.32.45,5.29.45,10.13Z"/></svg>