<?xml version="1.0" encoding="utf-8"?>
<!-- Generator: Adobe Illustrator 22.0.0, SVG Export Plug-In . SVG Version: 6.00 Build 0)  -->
<svg version="1.1" xmlns="http://www.w3.org/2000/svg" xmlns:xlink="http://www.w3.org/1999/xlink" x="0px" y="0px"
	 viewBox="0 0 439.4 672.8" enable-background="new 0 0 439.4 672.8" xml:space="preserve">
<g id="Capa_30">
	<g>
		<defs>
			<rect id="SVGID_1_" x="-3245.6" y="-5516.5" width="9152" height="5304"/>
		</defs>
		<clipPath id="SVGID_2_">
			<use xlink:href="#SVGID_1_"  overflow="visible"/>
		</clipPath>
	</g>
</g>
<g id="Capa_4">
	<g id="Capa_3" display="none">
	</g>
</g>
<g id="Capa_1">
</g>
<g id="Fondo">
</g>
<g id="Capa_24">
</g>
<g id="VEREDAS_x2A_">
</g>
<g id="PARQUE">
</g>
<g id="PISTAS_x2A_">
</g>
<g id="Capa_20">
</g>
<g id="Edificio_Central_La_Positiva">
</g>
<g id="Edificio_Centro">
</g>
<g id="Caseta">
</g>
<g id="Edificio_Arequipa">
</g>
<g id="Edificio_Feliz">
</g>
<g id="Edificio_Trujillo">
</g>
<g id="Colegio">
</g>
<g id="Casa_1_1_">
</g>
<g id="Casa_3_1_">
</g>
<g id="Casa_2">
</g>
<g id="Casa_4">
</g>
<g id="Taller_Mecánico_1_">
</g>
<g id="Hospital">
</g>
<g id="Extras">
	<g>
		<path fill="#8E8B80" d="M237.4,668.3L237.4,668.3c-3.7,0-6.7-3-6.7-6.7v-321c0-3.7,3-6.7,6.7-6.7l0,0c3.7,0,6.7,3,6.7,6.7v321
			C244.1,665.3,241.1,668.3,237.4,668.3z"/>
		<path fill="#A7C357" d="M163.8,669.1c0,0,13.3-41.3,74-36c60.7,5.3,32.9-34.3,92-38.7c91.3-6.7,102,75.3,102,75.3L163.8,669.1z"/>
		<g>
			<path fill="#A7C357" d="M267.7,355c3.6,1.2,7.5,2.4,11.6,3.5c-0.9-0.6-1.6-1.1-2.2-1.6C274.4,354.6,271.4,354.2,267.7,355z"/>
			<path fill="#A7C357" d="M333.5,49.6c-7.8-1.2-15.3-0.5-22.6,0.5c1.9,0.5,3.9,0.8,6,0.9C322.5,51.2,327.9,50.5,333.5,49.6z"/>
			<path fill="#A7C357" d="M395.8,198.4c-18.5-25.8,11.7-77-16-114.7c-17.3-23.5-32.3-31.9-46.3-34.2c-5.5,0.9-11,1.6-16.5,1.4
				c-2.2-0.1-4.2-0.4-6-0.9c-8.9,1.3-17.6,3.3-26.5,2.9c-29-1-30-40.7-66.8-48.3c-1.5-0.3-11.3-1.9-24.3-1.8
				c-29,0.2-73.8,8.8-78.7,57.8c-7,71-0.2,68.7-60.2,113.7c-59,44.3-83.1,169.2,22.9,193.2c1.7,0.4,3.5,0.8,5.3,1.1
				c112,21,145-38,162-24c3.3,2.7,11.7,6.5,23.1,10.2c3.7-0.8,6.7-0.4,9.4,1.9c0.6,0.5,1.3,1,2.2,1.6
				c50.2,13.8,128.7,17.5,146.1-38.7C450.4,238.8,417.4,228.8,395.8,198.4z"/>
		</g>
	</g>
</g>
<g id="Carteles">
</g>
<g id="Locetas">
</g>
<g id="Capa_29">
</g>
<g id="GRID_COMPELTO" display="none">
	<g display="inline" opacity="0.61">
		<g>
			<g opacity="0.28">
				
					<rect x="-126.7" y="-2.8" fill="none" stroke="#222221" stroke-width="0.9969" stroke-miterlimit="10" width="208" height="104"/>
				<rect x="81.3" y="-2.8" fill="none" stroke="#222221" stroke-width="0.9969" stroke-miterlimit="10" width="208" height="104"/>
				
					<rect x="289.3" y="-2.8" fill="none" stroke="#222221" stroke-width="0.9969" stroke-miterlimit="10" width="208" height="104"/>
				
					<rect x="-126.7" y="101.3" fill="none" stroke="#222221" stroke-width="0.9969" stroke-miterlimit="10" width="208" height="104"/>
				
					<rect x="81.3" y="101.3" fill="none" stroke="#222221" stroke-width="0.9969" stroke-miterlimit="10" width="208" height="104"/>
				
					<rect x="289.3" y="101.3" fill="none" stroke="#222221" stroke-width="0.9969" stroke-miterlimit="10" width="208" height="104"/>
				
					<rect x="-126.7" y="205.3" fill="none" stroke="#222221" stroke-width="0.9969" stroke-miterlimit="10" width="208" height="104"/>
				
					<rect x="81.3" y="205.3" fill="none" stroke="#222221" stroke-width="0.9969" stroke-miterlimit="10" width="208" height="104"/>
				
					<rect x="289.3" y="205.3" fill="none" stroke="#222221" stroke-width="0.9969" stroke-miterlimit="10" width="208" height="104"/>
				
					<rect x="-126.7" y="309.3" fill="none" stroke="#222221" stroke-width="0.9969" stroke-miterlimit="10" width="208" height="104"/>
				
					<rect x="81.3" y="309.3" fill="none" stroke="#222221" stroke-width="0.9969" stroke-miterlimit="10" width="208" height="104"/>
				
					<rect x="289.3" y="309.3" fill="none" stroke="#222221" stroke-width="0.9969" stroke-miterlimit="10" width="208" height="104"/>
				
					<rect x="-126.7" y="413.4" fill="none" stroke="#222221" stroke-width="0.9969" stroke-miterlimit="10" width="208" height="104"/>
				
					<rect x="81.3" y="413.4" fill="none" stroke="#222221" stroke-width="0.9969" stroke-miterlimit="10" width="208" height="104"/>
				
					<rect x="289.3" y="413.4" fill="none" stroke="#222221" stroke-width="0.9969" stroke-miterlimit="10" width="208" height="104"/>
				
					<rect x="-126.7" y="517.4" fill="none" stroke="#222221" stroke-width="0.9969" stroke-miterlimit="10" width="208" height="104"/>
				
					<rect x="81.3" y="517.4" fill="none" stroke="#222221" stroke-width="0.9969" stroke-miterlimit="10" width="208" height="104"/>
				
					<rect x="289.3" y="517.4" fill="none" stroke="#222221" stroke-width="0.9969" stroke-miterlimit="10" width="208" height="104"/>
				
					<rect x="-126.7" y="621.4" fill="none" stroke="#222221" stroke-width="0.9969" stroke-miterlimit="10" width="208" height="104"/>
				
					<rect x="81.3" y="621.4" fill="none" stroke="#222221" stroke-width="0.9969" stroke-miterlimit="10" width="208" height="104"/>
				
					<rect x="289.3" y="621.4" fill="none" stroke="#222221" stroke-width="0.9969" stroke-miterlimit="10" width="208" height="104"/>
			</g>
		</g>
	</g>
</g>
</svg>
