<?xml version="1.0" encoding="utf-8"?>
<!-- Generator: Adobe Illustrator 22.0.0, SVG Export Plug-In . SVG Version: 6.00 Build 0)  -->
<svg version="1.1" xmlns="http://www.w3.org/2000/svg" xmlns:xlink="http://www.w3.org/1999/xlink" x="0px" y="0px"
	 viewBox="0 0 184.3 194" enable-background="new 0 0 184.3 194" xml:space="preserve">
<g id="Capa_30">
	<g>
		<defs>
			<rect id="SVGID_1_" x="-1221.8" y="-5605.2" width="9152" height="5304"/>
		</defs>
		<clipPath id="SVGID_2_">
			<use xlink:href="#SVGID_1_"  overflow="visible"/>
		</clipPath>
	</g>
</g>
<g id="Capa_4">
	<g id="Capa_3" display="none">
	</g>
</g>
<g id="Capa_1">
</g>
<g id="Fondo">
</g>
<g id="Capa_24">
</g>
<g id="VEREDAS_x2A_">
</g>
<g id="PARQUE">
</g>
<g id="PISTAS_x2A_">
</g>
<g id="Capa_20">
</g>
<g id="Edificio_Central_La_Positiva">
</g>
<g id="Edificio_Centro">
</g>
<g id="Caseta">
</g>
<g id="Edificio_Arequipa">
</g>
<g id="Edificio_Feliz">
</g>
<g id="Edificio_Trujillo">
</g>
<g id="Colegio">
</g>
<g id="Casa_1_1_">
</g>
<g id="Casa_3_1_">
</g>
<g id="Casa_2">
</g>
<g id="Casa_4">
</g>
<g id="Taller_Mecánico_1_">
</g>
<g id="Hospital">
</g>
<g id="Extras">
	<g>
		<rect x="8.7" y="63.5" fill="#CEB672" width="167" height="127.5"/>
		<g>
			<path fill="#8CB648" d="M29,69.6c-19.4,1.5-26.4-25-11-28.1c21.3-4.2,22.3,5.3,29.4-0.6S63.9,3.7,91.1,3
				c26.6-0.6,34.7,18.1,39.5,30.7s2.7,9.4,13.3,1.5c7.1-5.3,20.5-3,26.8,7.3c6.9,11.3,3.8,16.8-3.8,25.5c-4.8,5.6,5.8-0.2-10,2.6
				C141.1,73.4,60.9,67.1,29,69.6z"/>
			<ellipse fill="#8CB648" cx="44.7" cy="40.1" rx="16.3" ry="15.3"/>
		</g>
		<rect x="3" y="55.4" fill="#B9A268" width="178.3" height="20"/>
	</g>
</g>
<g id="Carteles">
</g>
<g id="Locetas">
</g>
<g id="Capa_29">
</g>
<g id="GRID_COMPELTO" display="none">
	<g display="inline" opacity="0.61">
		<g opacity="0.28">
			
				<rect x="-184.4" y="-91.8" fill="none" stroke="#222221" stroke-width="0.9969" stroke-miterlimit="10" width="208" height="104"/>
			<rect x="23.6" y="-91.8" fill="none" stroke="#222221" stroke-width="0.9969" stroke-miterlimit="10" width="208" height="104"/>
			
				<rect x="-184.4" y="12.2" fill="none" stroke="#222221" stroke-width="0.9969" stroke-miterlimit="10" width="208" height="104"/>
			<rect x="23.6" y="12.2" fill="none" stroke="#222221" stroke-width="0.9969" stroke-miterlimit="10" width="208" height="104"/>
			
				<rect x="-184.4" y="116.3" fill="none" stroke="#222221" stroke-width="0.9969" stroke-miterlimit="10" width="208" height="104"/>
			<rect x="23.6" y="116.3" fill="none" stroke="#222221" stroke-width="0.9969" stroke-miterlimit="10" width="208" height="104"/>
		</g>
	</g>
</g>
</svg>
