<?xml version="1.0" encoding="utf-8"?>
<!-- Generator: Adobe Illustrator 22.0.0, SVG Export Plug-In . SVG Version: 6.00 Build 0)  -->
<svg version="1.1" xmlns="http://www.w3.org/2000/svg" xmlns:xlink="http://www.w3.org/1999/xlink" x="0px" y="0px"
	 viewBox="0 0 448.8 191.4" enable-background="new 0 0 448.8 191.4" xml:space="preserve">
<g id="Capa_30">
	<g>
		<defs>
			<rect id="SVGID_1_" x="-2133.4" y="-5512.3" width="9152" height="5304"/>
		</defs>
		<clipPath id="SVGID_2_">
			<use xlink:href="#SVGID_1_"  overflow="visible"/>
		</clipPath>
	</g>
</g>
<g id="Capa_4">
	<g id="Capa_3" display="none">
	</g>
</g>
<g id="Capa_1">
</g>
<g id="Fondo">
</g>
<g id="Capa_24">
</g>
<g id="VEREDAS_x2A_">
</g>
<g id="PARQUE">
</g>
<g id="PISTAS_x2A_">
</g>
<g id="Capa_20">
</g>
<g id="Edificio_Central_La_Positiva">
</g>
<g id="Edificio_Centro">
</g>
<g id="Caseta">
</g>
<g id="Edificio_Arequipa">
</g>
<g id="Edificio_Feliz">
</g>
<g id="Edificio_Trujillo">
</g>
<g id="Colegio">
</g>
<g id="Casa_1_1_">
</g>
<g id="Casa_3_1_">
</g>
<g id="Casa_2">
</g>
<g id="Casa_4">
</g>
<g id="Taller_Mecánico_1_">
</g>
<g id="Hospital">
</g>
<g id="Extras">
	<g>
		<path fill="#8CB648" d="M445.4,97.2c0-10.7-7.1-19.8-16.9-22.7c-0.2-1-0.5-1.9-0.7-2.9v-0.5h-0.2c-4.7-14.5-18.3-25-34.4-25
			c-10.9,0-20.7,4.9-27.3,12.5c-2,1-4.2,1.8-6.6,2.2c-8-7.4-18.7-12-30.5-12c-11.9,0-22.8,4.7-30.8,12.3c-1.8-0.2-3.2-0.7-4.5-1.6
			c-7.7-13.3-22.2-22.3-38.7-22.3c-14.1,0-26.7,6.5-34.9,16.8c-3.4,1.3-5.8,1.2-8.2-0.4C204.5,24,177.7,2,145.8,2
			c-31.3,0-57.7,21.2-65.6,49.9c-2.9,1.4-5.6,2-8.1,2.3c-6.9-4.4-15.2-7-24-7c-1.2,0-2.4,0.1-3.6,0.2c-23,1.8-41.1,21.1-41.1,44.6
			c0,13,5.6,24.8,14.5,33v12.9h122.6c1.8,0.1,3.5,0.2,5.3,0.2c1.8,0,3.6-0.1,5.3-0.2h170.6c2.3,0.4,4.7,0.6,7.1,0.6
			c2.4,0,4.8-0.2,7.1-0.6h91.8v-17.7C437.9,117.5,445.4,108.2,445.4,97.2z"/>
		<rect x="12.5" y="119.5" fill="#CEB672" width="428" height="69.8"/>
		<rect x="10.4" y="110.6" fill="#B9A268" width="433.8" height="21.9"/>
	</g>
</g>
<g id="Carteles">
</g>
<g id="Locetas">
</g>
<g id="Capa_29">
</g>
<g id="GRID_COMPELTO" display="none">
	<g display="inline" opacity="0.61">
		<g>
			<g opacity="0.28">
				
					<rect x="-54.4" y="-102.6" fill="none" stroke="#222221" stroke-width="0.9969" stroke-miterlimit="10" width="208" height="104"/>
				
					<rect x="153.6" y="-102.6" fill="none" stroke="#222221" stroke-width="0.9969" stroke-miterlimit="10" width="208" height="104"/>
				
					<rect x="361.6" y="-102.6" fill="none" stroke="#222221" stroke-width="0.9969" stroke-miterlimit="10" width="208" height="104"/>
				<rect x="-54.4" y="1.5" fill="none" stroke="#222221" stroke-width="0.9969" stroke-miterlimit="10" width="208" height="104"/>
				<rect x="153.6" y="1.5" fill="none" stroke="#222221" stroke-width="0.9969" stroke-miterlimit="10" width="208" height="104"/>
				<rect x="361.6" y="1.5" fill="none" stroke="#222221" stroke-width="0.9969" stroke-miterlimit="10" width="208" height="104"/>
				
					<rect x="-54.4" y="105.5" fill="none" stroke="#222221" stroke-width="0.9969" stroke-miterlimit="10" width="208" height="104"/>
				
					<rect x="153.6" y="105.5" fill="none" stroke="#222221" stroke-width="0.9969" stroke-miterlimit="10" width="208" height="104"/>
				
					<rect x="361.6" y="105.5" fill="none" stroke="#222221" stroke-width="0.9969" stroke-miterlimit="10" width="208" height="104"/>
			</g>
		</g>
	</g>
</g>
</svg>
