<?xml version="1.0" encoding="utf-8"?>
<!-- Generator: Adobe Illustrator 18.0.0, SVG Export Plug-In . SVG Version: 6.00 Build 0)  -->
<!DOCTYPE svg PUBLIC "-//W3C//DTD SVG 1.1//EN" "http://www.w3.org/Graphics/SVG/1.1/DTD/svg11.dtd">
<svg version="1.1" xmlns="http://www.w3.org/2000/svg" xmlns:xlink="http://www.w3.org/1999/xlink" x="0px" y="0px"
	 viewBox="0 0 400 300" enable-background="new 0 0 400 300" xml:space="preserve">
<g id="Capa_1">
</g>
<g id="Capa_2">
	<g>
		<g>
			<polygon fill="#FF6371" points="59.7,271.3 67.3,199.1 50.4,199.1 33.4,199.1 41,271.3 			"/>
			<polygon fill="#CE5264" points="40.3,264.1 41,271.3 59.7,271.3 60.4,264.1 			"/>
		</g>
		<g>
			<polygon fill="#FF6371" points="358.4,271.3 366,199.1 349.1,199.1 332.2,199.1 339.8,271.3 			"/>
			<polygon fill="#CE5264" points="339,264.1 339.8,271.3 358.4,271.3 359.2,264.1 			"/>
		</g>
		<rect x="43.1" y="62" fill="#CE526A" width="14.4" height="113.2"/>
		<rect x="341.9" y="62" fill="#CE526A" width="14.4" height="113.2"/>
		<g>
			<g>
				<path fill="#D85669" d="M383,86.8V58.6c0-6.2-4.2-11.3-9.3-11.3H25.7c-5.1,0-9.3,5.1-9.3,11.3v28.3H383z"/>
				<path fill="#FF6371" d="M383,58.6c0-1-0.1-1.9-0.3-2.8c-1.2-0.6-2.5-1-3.8-1H20.6c-1.4,0-2.6,0.3-3.8,1
					c-0.2,0.9-0.3,1.8-0.3,2.8v28.3H383V58.6z"/>
			</g>
			<g>
				<circle fill="#CE5264" cx="349.1" cy="70.7" r="4.6"/>
				<circle fill="#CE5264" cx="50.4" cy="70.7" r="4.6"/>
			</g>
		</g>
		<g>
			<rect x="16.4" y="93.4" fill="#FF6371" width="366.6" height="32.4"/>
			<g>
				<path fill="#CE5264" d="M353.7,109.6c0,2.6-2.1,4.6-4.6,4.6c-2.6,0-4.6-2.1-4.6-4.6c0-2.5,2.1-4.6,4.6-4.6
					C351.6,104.9,353.7,107,353.7,109.6z"/>
				<path fill="#CE5264" d="M55,109.6c0,2.6-2.1,4.6-4.6,4.6c-2.6,0-4.6-2.1-4.6-4.6c0-2.5,2.1-4.6,4.6-4.6
					C52.9,104.9,55,107,55,109.6z"/>
			</g>
		</g>
		<g>
			<rect x="16.4" y="132.8" fill="#FF6371" width="366.6" height="32.4"/>
			<g>
				<path fill="#CE5264" d="M353.7,149c0,2.6-2.1,4.6-4.6,4.6c-2.6,0-4.6-2.1-4.6-4.6c0-2.6,2.1-4.6,4.6-4.6
					C351.6,144.4,353.7,146.4,353.7,149z"/>
				<path fill="#CE5264" d="M55,149c0,2.6-2.1,4.6-4.6,4.6c-2.6,0-4.6-2.1-4.6-4.6c0-2.6,2.1-4.6,4.6-4.6
					C52.9,144.4,55,146.4,55,149z"/>
			</g>
		</g>
		<polygon fill="#FF6371" points="398.5,192.9 1,192.9 16.4,171.3 383,171.3 		"/>
		<rect x="1" y="192.9" fill="#D85669" width="397.5" height="12.3"/>
	</g>
</g>
</svg>
