<?xml version="1.0" encoding="utf-8"?>
<!-- Generator: Adobe Illustrator 18.0.0, SVG Export Plug-In . SVG Version: 6.00 Build 0)  -->
<!DOCTYPE svg PUBLIC "-//W3C//DTD SVG 1.1//EN" "http://www.w3.org/Graphics/SVG/1.1/DTD/svg11.dtd">
<svg version="1.1" xmlns="http://www.w3.org/2000/svg" xmlns:xlink="http://www.w3.org/1999/xlink" x="0px" y="0px"
	 viewBox="0 0 200 300" enable-background="new 0 0 200 300" xml:space="preserve">
<g id="Capa_1">
</g>
<g id="Capa_2">
	<g>
		<path fill="#00C3BA" d="M150.6,214.5H48.5V115c0-28.2,22.8-51,51-51h0c28.2,0,51,22.8,51,51V214.5z"/>
		<g>
			<path fill="#00ADA0" d="M76.1,113.7c0-15.6,11.1-28.5,25.8-31.5c-1.2-0.1-2.4-0.2-3.6-0.2c-17.7,0-32.1,14.4-32.1,32.1
				s14.4,32.1,32.1,32.1c2.2,0,4.3-0.2,6.3-0.6C88.6,143.8,76.1,130.2,76.1,113.7z"/>
			<path opacity="0.47" fill="#8DC47B" d="M130.4,114.1c0-16.5-12.5-30.1-28.5-31.9c-14.7,2.9-25.8,15.9-25.8,31.5
				c0,16.5,12.5,30.1,28.5,31.9C119.3,142.7,130.4,129.7,130.4,114.1z"/>
			<path fill="#009B8C" d="M130.4,114.1c0-16.5-12.5-30.1-28.5-31.9c-14.7,2.9-25.8,15.9-25.8,31.5c0,16.5,12.5,30.1,28.5,31.9
				C119.3,142.7,130.4,129.7,130.4,114.1z"/>
		</g>
		<rect x="48.4" y="210.4" fill="#00C3BA" width="7.2" height="42.8"/>
		<rect x="143.5" y="209.8" fill="#00C3BA" width="7.2" height="42.8"/>
		<path fill="#009B8C" d="M60.5,256.6h-17v-1.5c0-2.9,2.4-5.3,5.3-5.3h6.4c2.9,0,5.3,2.4,5.3,5.3V256.6z"/>
		<path fill="#009B8C" d="M156.1,257h-17v-1.5c0-2.9,2.4-5.3,5.3-5.3h6.4c2.9,0,5.3,2.4,5.3,5.3V257z"/>
	</g>
</g>
</svg>
