<?xml version="1.0" encoding="utf-8"?>
<!-- Generator: Adobe Illustrator 18.0.0, SVG Export Plug-In . SVG Version: 6.00 Build 0)  -->
<!DOCTYPE svg PUBLIC "-//W3C//DTD SVG 1.1//EN" "http://www.w3.org/Graphics/SVG/1.1/DTD/svg11.dtd">
<svg version="1.1" xmlns="http://www.w3.org/2000/svg" xmlns:xlink="http://www.w3.org/1999/xlink" x="0px" y="0px"
	 viewBox="0 0 1200 200" enable-background="new 0 0 1200 200" xml:space="preserve">
<g id="Capa_1">
</g>
<g id="Capa_2">
	<g>
		<g>
			<g>
				<g>
					<g>
						<path fill="#AA3F1F" d="M744,44.3c0,0,13.3,20.4,30.4,8.7l-2.3-8.4c0,0-16.8,12.9-25.6-2.9L744,44.3z"/>
						<path fill="#E05429" d="M752.7,31.4c0,11.1-10.1,20.1-22.5,20.1c-12.4,0-22.5-9-22.5-20.1c0-0.6,0.1-1.3,0.2-1.9
							c1.2-5.4,9.8-15.8,9.8-15.8l20.1,21.3l-20.1-21.3c0,0,31,5.1,34.4,14.8C752.6,29.4,752.7,30.4,752.7,31.4z"/>
					</g>
					<path fill="#CD4D25" d="M752.7,31.4c0,11.1-10.1,20.1-22.5,20.1c-12.4,0-22.5-9-22.5-20.1c0-0.6,0.1-1.3,0.2-1.9
						c11.1,5.8,33.8,14.9,44.2-1C752.6,29.4,752.7,30.4,752.7,31.4z"/>
				</g>
				<g>
					<g>
						<path fill="#AA3F1F" d="M856.2,45.2c0,0-13.3,20.4-30.4,8.7l2.3-8.4c0,0,16.8,12.9,25.6-2.9L856.2,45.2z"/>
						<path fill="#E05429" d="M892.6,31.4c0,1.8-0.3,3.6-0.8,5.3c-2.6,8.5-11.3,14.7-21.7,14.7c-12.4,0-22.5-9-22.5-20.1
							c0-1.1,0.2-2.1,0.6-3.1c3.5-9.6,30.4-13.8,30.4-13.8l-16.1,20.5l16.1-20.5C878.7,14.4,892.6,25.8,892.6,31.4z"/>
					</g>
					<path fill="#CD4D25" d="M891.8,36.7c-2.6,8.5-11.3,14.7-21.7,14.7c-12.4,0-22.5-9-22.5-20.1c0-1.1,0.2-2.1,0.6-3.1
						C858.8,36.9,875,45.5,891.8,36.7z"/>
				</g>
			</g>
			<g>
				<g>
					<path fill="#AA3F1F" d="M768.7,66.5c0,0-12.3,0.6-8.7,15.9l10-13.3L768.7,66.5z"/>
					<path fill="#AA3F1F" d="M775.2,68.5c0,0-11.6,4.2-3.7,17.7l5.7-15.6L775.2,68.5z"/>
					<path fill="#AA3F1F" d="M782.9,72c0,0-10.1,3.7-3.2,15.5l5-13.7L782.9,72z"/>
				</g>
				<g>
					<path fill="#AA3F1F" d="M831.8,66.5c0,0,12.3,0.6,8.7,15.9l-10-13.3L831.8,66.5z"/>
					<path fill="#AA3F1F" d="M825.2,68.5c0,0,11.6,4.2,3.7,17.7l-5.7-15.6L825.2,68.5z"/>
					<path fill="#AA3F1F" d="M817.5,72c0,0,10.1,3.7,3.2,15.5l-5-13.7L817.5,72z"/>
				</g>
			</g>
			<g>
				<path fill="#E05429" d="M838.2,52c0,1.7-0.2,3.4-0.6,5c-3.1,13.5-18.7,23.8-37.4,23.8c-21,0-38-12.9-38-28.8
					c0-1.2,0.1-2.5,0.3-3.6c2.4-14.2,18.3-25.1,37.7-25.1C821.2,23.2,838.2,36.1,838.2,52z"/>
				<path fill="#CD4D25" d="M837.6,57c-3.1,13.5-18.7,23.8-37.4,23.8c-21,0-38-12.9-38-28.8c0-1.2,0.1-2.5,0.3-3.6
					C774.5,63.2,819.5,79.2,837.6,57z"/>
			</g>
		</g>
		<g>
			<g>
				<g>
					<g>
						<path fill="#AA3F1F" d="M639.4,146.4c0,0,8.6,13.3,19.8,5.7l-1.5-5.5c0,0-11,8.4-16.7-1.9L639.4,146.4z"/>
						<path fill="#E05429" d="M645.1,138c0,7.2-6.6,13.1-14.7,13.1c-8.1,0-14.7-5.9-14.7-13.1c0-0.4,0.1-0.8,0.1-1.3
							c0.8-3.5,5.7-10.2,5.7-10.2l13.8,13.8l-13.8-13.8c0,0,21,3.2,23.2,9.5C645,136.6,645.1,137.3,645.1,138z"/>
					</g>
					<path fill="#CD4D25" d="M645.1,138c0,7.2-6.6,13.1-14.7,13.1c-8.1,0-14.7-5.9-14.7-13.1c0-0.4,0.1-0.8,0.1-1.3
						c7.2,3.8,22,9.7,28.8-0.7C645,136.6,645.1,137.3,645.1,138z"/>
				</g>
				<g>
					<g>
						<path fill="#AA3F1F" d="M712.5,146.9c0,0-8.6,13.3-19.8,5.7l1.5-5.5c0,0,11,8.4,16.7-1.9L712.5,146.9z"/>
						<path fill="#E05429" d="M736.3,138c0,1.2-0.2,2.4-0.5,3.5c-1.7,5.5-7.4,9.6-14.1,9.6c-8.1,0-14.7-5.9-14.7-13.1
							c0-0.7,0.1-1.4,0.4-2c2.3-6.3,20-9.2,20-9.2l-10.7,13.6l10.7-13.6C727.3,126.7,736.3,134.3,736.3,138z"/>
					</g>
					<path fill="#CD4D25" d="M735.7,141.4c-1.7,5.5-7.4,9.6-14.1,9.6c-8.1,0-14.7-5.9-14.7-13.1c0-0.7,0.1-1.4,0.4-2
						C714.2,141.5,724.7,147.1,735.7,141.4z"/>
				</g>
			</g>
			<g>
				<g>
					<path fill="#AA3F1F" d="M655.5,160.9c0,0-8,0.4-5.7,10.3l6.5-8.6L655.5,160.9z"/>
					<path fill="#AA3F1F" d="M659.7,162.1c0,0-7.5,2.8-2.4,11.6l3.7-10.2L659.7,162.1z"/>
					<path fill="#AA3F1F" d="M664.7,164.4c0,0-6.6,2.4-2.1,10.1l3.2-8.9L664.7,164.4z"/>
				</g>
				<g>
					<path fill="#AA3F1F" d="M696.6,160.9c0,0,8,0.4,5.7,10.3l-6.5-8.6L696.6,160.9z"/>
					<path fill="#AA3F1F" d="M692.3,162.1c0,0,7.5,2.8,2.4,11.6l-3.7-10.2L692.3,162.1z"/>
					<path fill="#AA3F1F" d="M687.3,164.4c0,0,6.6,2.4,2.1,10.1l-3.2-8.9L687.3,164.4z"/>
				</g>
			</g>
			<g>
				<path fill="#E05429" d="M700.8,151.4c0,1.1-0.1,2.2-0.4,3.3c-2,8.8-12.2,15.5-24.4,15.5c-13.7,0-24.8-8.4-24.8-18.8
					c0-0.8,0.1-1.6,0.2-2.4c1.5-9.2,12-16.4,24.6-16.4C689.7,132.6,700.8,141,700.8,151.4z"/>
				<path fill="#CD4D25" d="M700.4,154.7c-2,8.8-12.2,15.5-24.4,15.5c-13.7,0-24.8-8.4-24.8-18.8c0-0.8,0.1-1.6,0.2-2.4
					C659.3,158.7,688.6,169.1,700.4,154.7z"/>
			</g>
		</g>
		<g>
			<path fill="#CD4D25" d="M621.7,126.8c0,0,0.2,0.1,0.6,0.4c0.4,0.3,0.9,0.6,1.5,1.1c1.3,0.9,2.9,2.2,4.5,3.6
				c1.6,1.4,3.1,2.8,4.2,3.9c0.6,0.6,1,1.1,1.3,1.4c0.3,0.3,0.5,0.5,0.5,0.5s-0.2-0.1-0.6-0.4c-0.4-0.3-0.9-0.6-1.5-1.1
				c-1.3-0.9-2.9-2.2-4.5-3.6c-1.6-1.4-3.1-2.8-4.2-3.9c-0.6-0.6-1-1.1-1.3-1.4C621.8,127,621.7,126.8,621.7,126.8z"/>
		</g>
		<g>
			<path fill="#CD4D25" d="M718.1,14c0,0,0.3,0.3,0.9,0.8c0.5,0.5,1.3,1.2,2.3,2.1c0.9,0.9,2,1.9,3.1,3c1.1,1.1,2.3,2.3,3.5,3.6
				c1.2,1.2,2.3,2.5,3.4,3.7c1.1,1.2,2,2.3,2.9,3.3c0.8,1,1.5,1.8,2,2.4c0.5,0.6,0.7,0.9,0.7,0.9s-0.3-0.3-0.9-0.8
				c-0.5-0.5-1.3-1.2-2.3-2.1c-0.9-0.9-2-1.9-3.1-3c-1.1-1.1-2.3-2.3-3.5-3.6c-1.2-1.2-2.3-2.5-3.4-3.7c-1.1-1.2-2-2.3-2.9-3.3
				c-0.8-1-1.5-1.8-2-2.4C718.4,14.3,718.1,14,718.1,14z"/>
		</g>
		<g>
			<path fill="#CD4D25" d="M727.4,127c0,0-0.5,0.8-1.3,1.9c-0.8,1.1-2,2.6-3.2,4c-1.2,1.4-2.5,2.7-3.5,3.7c-1,1-1.7,1.6-1.7,1.6
				s0.5-0.8,1.3-1.9c0.8-1.1,2-2.6,3.2-4c1.2-1.4,2.5-2.7,3.5-3.7C726.7,127.5,727.4,127,727.4,127z"/>
		</g>
		<g>
			<path fill="#CD4D25" d="M878.5,14.7c0,0-0.2,0.3-0.5,0.9c-0.4,0.5-0.8,1.3-1.5,2.2c-1.2,1.8-2.9,4.2-4.7,6.5
				c-1.8,2.3-3.6,4.6-5,6.3c-0.7,0.8-1.3,1.5-1.8,2c-0.4,0.5-0.7,0.7-0.7,0.7s0.2-0.3,0.5-0.9c0.4-0.5,0.8-1.3,1.5-2.2
				c1.2-1.8,2.9-4.2,4.7-6.5c1.8-2.3,3.6-4.6,5-6.3c0.7-0.8,1.3-1.5,1.8-2C878.2,14.9,878.5,14.7,878.5,14.7z"/>
		</g>
	</g>
	<g>
		<g>
			<g>
				<g>
					<g>
						<path fill="#AA3F1F" d="M443.7,45.2c0,0,13.3,20.4,30.4,8.7l-2.3-8.4c0,0-16.8,12.9-25.6-2.9L443.7,45.2z"/>
						<path fill="#E05429" d="M452.4,32.2c0,11.1-10.1,20.1-22.5,20.1c-12.4,0-22.5-9-22.5-20.1c0-0.6,0.1-1.3,0.2-1.9
							c1.2-5.4,9.7-15.9,9.7-15.9l20.2,21.4l-16.3-23c0,0,27.3,6.8,30.7,16.5C452.2,30.2,452.4,31.2,452.4,32.2z"/>
					</g>
					<path fill="#CD4D25" d="M452.4,32.2c0,11.1-10.1,20.1-22.5,20.1c-12.4,0-22.5-9-22.5-20.1c0-0.6,0.1-1.3,0.2-1.9
						c11.1,5.8,33.8,14.9,44.2-1C452.2,30.2,452.4,31.2,452.4,32.2z"/>
				</g>
				<g>
					<g>
						<path fill="#AA3F1F" d="M555.8,46c0,0-13.3,20.4-30.4,8.7l2.3-8.4c0,0,16.8,12.9,25.6-2.9L555.8,46z"/>
						<path fill="#E05429" d="M592.3,32.2c0,1.8-0.3,3.6-0.8,5.3c-2.6,8.5-11.3,14.7-21.7,14.7c-12.4,0-22.5-9-22.5-20.1
							c0-1.1,0.2-2.1,0.6-3.1c3.5-9.6,27.5-14.9,27.5-14.9l-13.2,21.6l17-20C579.2,15.8,592.3,26.7,592.3,32.2z"/>
					</g>
					<path fill="#CD4D25" d="M591.5,37.6c-2.6,8.5-11.3,14.7-21.7,14.7c-12.4,0-22.5-9-22.5-20.1c0-1.1,0.2-2.1,0.6-3.1
						C558.4,37.7,574.6,46.3,591.5,37.6z"/>
				</g>
			</g>
			<g>
				<g>
					<path fill="#AA3F1F" d="M468.3,67.4c0,0-12.3,0.6-8.7,15.9l10-13.3L468.3,67.4z"/>
					<path fill="#AA3F1F" d="M474.8,69.4c0,0-11.6,4.2-3.7,17.7l5.7-15.6L474.8,69.4z"/>
					<path fill="#AA3F1F" d="M482.5,72.9c0,0-10.1,3.7-3.2,15.5l5-13.7L482.5,72.9z"/>
				</g>
				<g>
					<path fill="#AA3F1F" d="M531.4,67.4c0,0,12.3,0.6,8.7,15.9l-10-13.3L531.4,67.4z"/>
					<path fill="#AA3F1F" d="M524.9,69.4c0,0,11.6,4.2,3.7,17.7l-5.7-15.6L524.9,69.4z"/>
					<path fill="#AA3F1F" d="M517.2,72.9c0,0,10.1,3.7,3.2,15.5l-5-13.7L517.2,72.9z"/>
				</g>
			</g>
			<g>
				<path fill="#E05429" d="M537.9,52.8c0,1.7-0.2,3.4-0.6,5c-3.1,13.5-18.7,23.8-37.4,23.8c-21,0-38-12.9-38-28.8
					c0-1.2,0.1-2.5,0.3-3.6C464.5,35,480.5,24,499.9,24C520.9,24,537.9,36.9,537.9,52.8z"/>
				<path fill="#CD4D25" d="M537.3,57.9c-3.1,13.5-18.7,23.8-37.4,23.8c-21,0-38-12.9-38-28.8c0-1.2,0.1-2.5,0.3-3.6
					C474.2,64.1,519.1,80,537.3,57.9z"/>
			</g>
		</g>
		<g>
			<g>
				<g>
					<g>
						<path fill="#AA3F1F" d="M339,147.2c0,0,8.6,13.3,19.8,5.7l-1.5-5.5c0,0-11,8.4-16.7-1.9L339,147.2z"/>
						<path fill="#E05429" d="M344.7,138.8c0,7.2-6.6,13.1-14.7,13.1c-8.1,0-14.7-5.9-14.7-13.1c0-0.4,0.1-0.8,0.1-1.3
							c0.8-3.5,5.5-10.1,5.5-10.1l13.9,13.7L325,125.5c0,0,17.2,5.1,19.4,11.4C344.6,137.5,344.7,138.1,344.7,138.8z"/>
					</g>
					<path fill="#CD4D25" d="M344.7,138.8c0,7.2-6.6,13.1-14.7,13.1c-8.1,0-14.7-5.9-14.7-13.1c0-0.4,0.1-0.8,0.1-1.3
						c7.2,3.8,22,9.7,28.8-0.7C344.6,137.5,344.7,138.1,344.7,138.8z"/>
				</g>
				<g>
					<g>
						<path fill="#AA3F1F" d="M412.1,147.8c0,0-8.6,13.3-19.8,5.7l1.5-5.5c0,0,11,8.4,16.7-1.9L412.1,147.8z"/>
						<path fill="#E05429" d="M435.9,138.8c0,1.2-0.2,2.4-0.5,3.5c-1.7,5.5-7.4,9.6-14.1,9.6c-8.1,0-14.7-5.9-14.7-13.1
							c0-0.7,0.1-1.4,0.4-2c2.3-6.3,14.1-11,14.1-11l-4.8,15.4l10.9-13.5C427.2,127.7,435.9,135.2,435.9,138.8z"/>
					</g>
					<path fill="#CD4D25" d="M435.4,142.3c-1.7,5.5-7.4,9.6-14.1,9.6c-8.1,0-14.7-5.9-14.7-13.1c0-0.7,0.1-1.4,0.4-2
						C413.8,142.4,424.4,148,435.4,142.3z"/>
				</g>
			</g>
			<g>
				<g>
					<path fill="#AA3F1F" d="M355.1,161.7c0,0-8,0.4-5.7,10.3l6.5-8.6L355.1,161.7z"/>
					<path fill="#AA3F1F" d="M359.4,163c0,0-7.5,2.8-2.4,11.6l3.7-10.2L359.4,163z"/>
					<path fill="#AA3F1F" d="M364.4,165.3c0,0-6.6,2.4-2.1,10.1l3.2-8.9L364.4,165.3z"/>
				</g>
				<g>
					<path fill="#AA3F1F" d="M396.2,161.7c0,0,8,0.4,5.7,10.3l-6.5-8.6L396.2,161.7z"/>
					<path fill="#AA3F1F" d="M392,163c0,0,7.5,2.8,2.4,11.6l-3.7-10.2L392,163z"/>
					<path fill="#AA3F1F" d="M387,165.3c0,0,6.6,2.4,2.1,10.1l-3.2-8.9L387,165.3z"/>
				</g>
			</g>
			<g>
				<path fill="#E05429" d="M400.4,152.2c0,1.1-0.1,2.2-0.4,3.3c-2,8.8-12.2,15.5-24.4,15.5c-13.7,0-24.8-8.4-24.8-18.8
					c0-0.8,0.1-1.6,0.2-2.4c1.5-9.2,12-16.4,24.6-16.4C389.3,133.5,400.4,141.9,400.4,152.2z"/>
				<path fill="#CD4D25" d="M400.1,155.5c-2,8.8-12.2,15.5-24.4,15.5c-13.7,0-24.8-8.4-24.8-18.8c0-0.8,0.1-1.6,0.2-2.4
					C358.9,159.5,388.2,169.9,400.1,155.5z"/>
			</g>
		</g>
	</g>
	<g>
		<g>
			<g>
				<g>
					<g>
						<path fill="#AA3F1F" d="M1043.8,45.2c0,0,13.3,20.4,30.4,8.7l-2.3-8.4c0,0-16.8,12.9-25.6-2.9L1043.8,45.2z"/>
						<path fill="#E05429" d="M1052.5,32.2c0,11.1-10.1,20.1-22.5,20.1c-12.4,0-22.5-9-22.5-20.1c0-0.6,0.1-1.3,0.2-1.9
							c1.2-5.4,9.7-15.9,9.7-15.9l20.2,21.4l-16.3-23c0,0,27.3,6.8,30.7,16.5C1052.4,30.2,1052.5,31.2,1052.5,32.2z"/>
					</g>
					<path fill="#CD4D25" d="M1052.5,32.2c0,11.1-10.1,20.1-22.5,20.1c-12.4,0-22.5-9-22.5-20.1c0-0.6,0.1-1.3,0.2-1.9
						c11.1,5.8,33.8,14.9,44.2-1C1052.4,30.2,1052.5,31.2,1052.5,32.2z"/>
				</g>
				<g>
					<g>
						<path fill="#AA3F1F" d="M1156,46c0,0-13.3,20.4-30.4,8.7l2.3-8.4c0,0,16.8,12.9,25.6-2.9L1156,46z"/>
						<path fill="#E05429" d="M1192.4,32.2c0,1.8-0.3,3.6-0.8,5.3c-2.6,8.5-11.3,14.7-21.7,14.7c-12.4,0-22.5-9-22.5-20.1
							c0-1.1,0.2-2.1,0.6-3.1c3.5-9.6,27.5-14.9,27.5-14.9l-13.2,21.6l17-20C1179.3,15.8,1192.4,26.7,1192.4,32.2z"/>
					</g>
					<path fill="#CD4D25" d="M1191.6,37.6c-2.6,8.5-11.3,14.7-21.7,14.7c-12.4,0-22.5-9-22.5-20.1c0-1.1,0.2-2.1,0.6-3.1
						C1158.6,37.7,1174.8,46.3,1191.6,37.6z"/>
				</g>
			</g>
			<g>
				<g>
					<path fill="#AA3F1F" d="M1068.5,67.4c0,0-12.3,0.6-8.7,15.9l10-13.3L1068.5,67.4z"/>
					<path fill="#AA3F1F" d="M1075,69.4c0,0-11.6,4.2-3.7,17.7l5.7-15.6L1075,69.4z"/>
					<path fill="#AA3F1F" d="M1082.7,72.9c0,0-10.1,3.7-3.2,15.5l5-13.7L1082.7,72.9z"/>
				</g>
				<g>
					<path fill="#AA3F1F" d="M1131.6,67.4c0,0,12.3,0.6,8.7,15.9l-10-13.3L1131.6,67.4z"/>
					<path fill="#AA3F1F" d="M1125,69.4c0,0,11.6,4.2,3.7,17.7l-5.7-15.6L1125,69.4z"/>
					<path fill="#AA3F1F" d="M1117.3,72.9c0,0,10.1,3.7,3.2,15.5l-5-13.7L1117.3,72.9z"/>
				</g>
			</g>
			<g>
				<path fill="#E05429" d="M1138,52.8c0,1.7-0.2,3.4-0.6,5c-3.1,13.5-18.7,23.8-37.4,23.8c-21,0-38-12.9-38-28.8
					c0-1.2,0.1-2.5,0.3-3.6C1064.7,35,1080.6,24,1100,24C1121,24,1138,36.9,1138,52.8z"/>
				<path fill="#CD4D25" d="M1137.4,57.9c-3.1,13.5-18.7,23.8-37.4,23.8c-21,0-38-12.9-38-28.8c0-1.2,0.1-2.5,0.3-3.6
					C1074.3,64.1,1119.3,80,1137.4,57.9z"/>
			</g>
		</g>
		<g>
			<g>
				<g>
					<g>
						<path fill="#AA3F1F" d="M939.2,147.2c0,0,8.6,13.3,19.8,5.7l-1.5-5.5c0,0-11,8.4-16.7-1.9L939.2,147.2z"/>
						<path fill="#E05429" d="M944.9,138.8c0,7.2-6.6,13.1-14.7,13.1c-8.1,0-14.7-5.9-14.7-13.1c0-0.4,0.1-0.8,0.1-1.3
							c0.8-3.5,5.5-10.1,5.5-10.1l13.9,13.7l-10.1-15.7c0,0,17.2,5.1,19.4,11.4C944.8,137.5,944.9,138.1,944.9,138.8z"/>
					</g>
					<path fill="#CD4D25" d="M944.9,138.8c0,7.2-6.6,13.1-14.7,13.1c-8.1,0-14.7-5.9-14.7-13.1c0-0.4,0.1-0.8,0.1-1.3
						c7.2,3.8,22,9.7,28.8-0.7C944.8,137.5,944.9,138.1,944.9,138.8z"/>
				</g>
				<g>
					<g>
						<path fill="#AA3F1F" d="M1012.3,147.8c0,0-8.6,13.3-19.8,5.7l1.5-5.5c0,0,11,8.4,16.7-1.9L1012.3,147.8z"/>
						<path fill="#E05429" d="M1036.1,138.8c0,1.2-0.2,2.4-0.5,3.5c-1.7,5.5-7.4,9.6-14.1,9.6c-8.1,0-14.7-5.9-14.7-13.1
							c0-0.7,0.1-1.4,0.4-2c2.3-6.3,14.1-11,14.1-11l-4.8,15.4l10.9-13.5C1027.4,127.7,1036.1,135.2,1036.1,138.8z"/>
					</g>
					<path fill="#CD4D25" d="M1035.5,142.3c-1.7,5.5-7.4,9.6-14.1,9.6c-8.1,0-14.7-5.9-14.7-13.1c0-0.7,0.1-1.4,0.4-2
						C1014,142.4,1024.5,148,1035.5,142.3z"/>
				</g>
			</g>
			<g>
				<g>
					<path fill="#AA3F1F" d="M955.3,161.7c0,0-8,0.4-5.7,10.3l6.5-8.6L955.3,161.7z"/>
					<path fill="#AA3F1F" d="M959.5,163c0,0-7.5,2.8-2.4,11.6l3.7-10.2L959.5,163z"/>
					<path fill="#AA3F1F" d="M964.5,165.3c0,0-6.6,2.4-2.1,10.1l3.2-8.9L964.5,165.3z"/>
				</g>
				<g>
					<path fill="#AA3F1F" d="M996.4,161.7c0,0,8,0.4,5.7,10.3l-6.5-8.6L996.4,161.7z"/>
					<path fill="#AA3F1F" d="M992.1,163c0,0,7.5,2.8,2.4,11.6l-3.7-10.2L992.1,163z"/>
					<path fill="#AA3F1F" d="M987.1,165.3c0,0,6.6,2.4,2.1,10.1l-3.2-8.9L987.1,165.3z"/>
				</g>
			</g>
			<g>
				<path fill="#E05429" d="M1000.6,152.2c0,1.1-0.1,2.2-0.4,3.3c-2,8.8-12.2,15.5-24.4,15.5c-13.7,0-24.8-8.4-24.8-18.8
					c0-0.8,0.1-1.6,0.2-2.4c1.5-9.2,12-16.4,24.6-16.4C989.5,133.5,1000.6,141.9,1000.6,152.2z"/>
				<path fill="#CD4D25" d="M1000.2,155.5c-2,8.8-12.2,15.5-24.4,15.5c-13.7,0-24.8-8.4-24.8-18.8c0-0.8,0.1-1.6,0.2-2.4
					C959.1,159.5,988.4,169.9,1000.2,155.5z"/>
			</g>
		</g>
	</g>
	<g>
		<g>
			<g>
				<g>
					<g>
						<path fill="#AA3F1F" d="M39.1,147.7c0,0,8.6,13.3,19.8,5.7l-1.5-5.5c0,0-11,8.4-16.7-1.9L39.1,147.7z"/>
						<path fill="#E05429" d="M44.8,139.3c0,7.2-6.6,13.1-14.7,13.1c-8.1,0-14.7-5.9-14.7-13.1c0-0.4,0.1-0.8,0.1-1.3
							c0.8-3.5,5.5-10.1,5.5-10.1l13.9,13.7l-7.2-16.1c0,0,14.4,5.5,16.6,11.8C44.7,138,44.8,138.6,44.8,139.3z"/>
					</g>
					<path fill="#CD4D25" d="M44.8,139.3c0,7.2-6.6,13.1-14.7,13.1c-8.1,0-14.7-5.9-14.7-13.1c0-0.4,0.1-0.8,0.1-1.3
						c7.2,3.8,22,9.7,28.8-0.7C44.7,138,44.8,138.6,44.8,139.3z"/>
				</g>
				<g>
					<g>
						<path fill="#AA3F1F" d="M112.2,148.3c0,0-8.6,13.3-19.8,5.7l1.5-5.5c0,0,11,8.4,16.7-1.9L112.2,148.3z"/>
						<path fill="#E05429" d="M136,139.3c0,1.2-0.2,2.4-0.5,3.5c-1.7,5.5-7.4,9.6-14.1,9.6c-8.1,0-14.7-5.9-14.7-13.1
							c0-0.7,0.1-1.4,0.4-2c2.3-6.3,11.3-11.4,11.3-11.4l-2,15.7l10.9-13.5C127.3,128.1,136,135.7,136,139.3z"/>
					</g>
					<path fill="#CD4D25" d="M135.5,142.7c-1.7,5.5-7.4,9.6-14.1,9.6c-8.1,0-14.7-5.9-14.7-13.1c0-0.7,0.1-1.4,0.4-2
						C113.9,142.9,124.5,148.5,135.5,142.7z"/>
				</g>
			</g>
			<g>
				<g>
					<path fill="#AA3F1F" d="M55.2,162.2c0,0-8,0.4-5.7,10.3l6.5-8.6L55.2,162.2z"/>
					<path fill="#AA3F1F" d="M59.4,163.5c0,0-7.5,2.8-2.4,11.6l3.7-10.2L59.4,163.5z"/>
					<path fill="#AA3F1F" d="M64.4,165.8c0,0-6.6,2.4-2.1,10.1l3.2-8.9L64.4,165.8z"/>
				</g>
				<g>
					<path fill="#AA3F1F" d="M96.3,162.2c0,0,8,0.4,5.7,10.3l-6.5-8.6L96.3,162.2z"/>
					<path fill="#AA3F1F" d="M92,163.5c0,0,7.5,2.8,2.4,11.6l-3.7-10.2L92,163.5z"/>
					<path fill="#AA3F1F" d="M87,165.8c0,0,6.6,2.4,2.1,10.1l-3.2-8.9L87,165.8z"/>
				</g>
			</g>
			<g>
				<path fill="#E05429" d="M100.5,152.7c0,1.1-0.1,2.2-0.4,3.3c-2,8.8-12.2,15.5-24.4,15.5c-13.7,0-24.8-8.4-24.8-18.8
					c0-0.8,0.1-1.6,0.2-2.4c1.5-9.2,12-16.4,24.6-16.4C89.4,133.9,100.5,142.3,100.5,152.7z"/>
				<path fill="#CD4D25" d="M100.1,156c-2,8.8-12.2,15.5-24.4,15.5c-13.7,0-24.8-8.4-24.8-18.8c0-0.8,0.1-1.6,0.2-2.4
					C59,160,88.3,170.4,100.1,156z"/>
			</g>
		</g>
		<g>
			<g>
				<g>
					<g>
						<path fill="#AA3F1F" d="M143.7,45.7c0,0,13.3,20.4,30.4,8.7l-2.3-8.4c0,0-16.8,12.9-25.6-2.9L143.7,45.7z"/>
						<path fill="#E05429" d="M152.5,32.7c0,11.1-10.1,20.1-22.5,20.1c-12.4,0-22.5-9-22.5-20.1c0-0.6,0.1-1.3,0.2-1.9
							c1.2-5.4,9.7-15.9,9.7-15.9l20.2,21.4l-13.3-23.9c0,0,24.2,7.7,27.6,17.4C152.3,30.7,152.5,31.7,152.5,32.7z"/>
					</g>
					<path fill="#CD4D25" d="M152.5,32.7c0,11.1-10.1,20.1-22.5,20.1c-12.4,0-22.5-9-22.5-20.1c0-0.6,0.1-1.3,0.2-1.9
						c11.1,5.8,33.8,14.9,44.2-1C152.3,30.7,152.5,31.7,152.5,32.7z"/>
				</g>
				<g>
					<g>
						<path fill="#AA3F1F" d="M255.9,46.5c0,0-13.3,20.4-30.4,8.7l2.3-8.4c0,0,16.8,12.9,25.6-2.9L255.9,46.5z"/>
						<path fill="#E05429" d="M292.4,32.7c0,1.8-0.3,3.6-0.8,5.3c-2.6,8.5-11.3,14.7-21.7,14.7c-12.4,0-22.5-9-22.5-20.1
							c0-1.1,0.2-2.1,0.6-3.1c3.5-9.6,24-15.8,24-15.8l-9.7,22.4l17-20C279.3,16.3,292.4,27.2,292.4,32.7z"/>
					</g>
					<path fill="#CD4D25" d="M291.6,38c-2.6,8.5-11.3,14.7-21.7,14.7c-12.4,0-22.5-9-22.5-20.1c0-1.1,0.2-2.1,0.6-3.1
						C258.5,38.2,274.7,46.8,291.6,38z"/>
				</g>
			</g>
			<g>
				<g>
					<path fill="#AA3F1F" d="M168.4,67.9c0,0-12.3,0.6-8.7,15.9l10-13.3L168.4,67.9z"/>
					<path fill="#AA3F1F" d="M174.9,69.8c0,0-11.6,4.2-3.7,17.7l5.7-15.6L174.9,69.8z"/>
					<path fill="#AA3F1F" d="M182.6,73.4c0,0-10.1,3.7-3.2,15.5l5-13.7L182.6,73.4z"/>
				</g>
				<g>
					<path fill="#AA3F1F" d="M231.5,67.9c0,0,12.3,0.6,8.7,15.9l-10-13.3L231.5,67.9z"/>
					<path fill="#AA3F1F" d="M224.9,69.8c0,0,11.6,4.2,3.7,17.7l-5.7-15.6L224.9,69.8z"/>
					<path fill="#AA3F1F" d="M217.3,73.4c0,0,10.1,3.7,3.2,15.5l-5-13.7L217.3,73.4z"/>
				</g>
			</g>
			<g>
				<path fill="#E05429" d="M238,53.3c0,1.7-0.2,3.4-0.6,5c-3.1,13.5-18.7,23.8-37.4,23.8c-21,0-38-12.9-38-28.8
					c0-1.2,0.1-2.5,0.3-3.6c2.4-14.2,18.3-25.1,37.7-25.1C220.9,24.5,238,37.4,238,53.3z"/>
				<path fill="#CD4D25" d="M237.4,58.4c-3.1,13.5-18.7,23.8-37.4,23.8c-21,0-38-12.9-38-28.8c0-1.2,0.1-2.5,0.3-3.6
					C174.3,64.5,219.2,80.5,237.4,58.4z"/>
			</g>
		</g>
	</g>
</g>
</svg>
