<?xml version="1.0" encoding="utf-8"?>
<!-- Generator: Adobe Illustrator 22.0.0, SVG Export Plug-In . SVG Version: 6.00 Build 0)  -->
<svg version="1.1" xmlns="http://www.w3.org/2000/svg" xmlns:xlink="http://www.w3.org/1999/xlink" x="0px" y="0px"
	 viewBox="0 0 87.7 56.4" enable-background="new 0 0 87.7 56.4" xml:space="preserve">
<g id="Capa_30">
</g>
<g id="Capa_4">
	<g id="Capa_3" display="none">
	</g>
</g>
<g id="Capa_1">
</g>
<g id="Fondo">
</g>
<g id="Capa_24">
</g>
<g id="VEREDAS_x2A_">
</g>
<g id="PARQUE">
</g>
<g id="PISTAS_x2A_">
</g>
<g id="Capa_20">
</g>
<g id="Edificio_Central_La_Positiva">
</g>
<g id="Edificio_Centro">
</g>
<g id="Caseta">
</g>
<g id="Edificio_Arequipa">
</g>
<g id="Edificio_Feliz">
</g>
<g id="Edificio_Trujillo">
</g>
<g id="Colegio">
</g>
<g id="Casa_1_1_">
</g>
<g id="Casa_3_1_">
</g>
<g id="Casa_2">
</g>
<g id="Casa_4">
</g>
<g id="Taller_Mecánico_1_">
</g>
<g id="Hospital">
</g>
<g id="Extras">
	<g>
		<g>
			<g>
				<path fill="#885390" d="M67.3,47.6c-0.4,1.7-0.7,3.3-1.1,5c-2.3-0.5-4.7-1.1-6.9-1.8L67.3,47.6z"/>
			</g>
			<g>
				<path fill="#A26EA6" d="M56.6,52.7c0.3,0.1,0.7,0.3,1.1,0.2c2.5-0.5,4.8-1.1,7-2c2.2-0.9,4.4-1.9,6.5-3.2
					c10-5.2,20.8-18,12.7-29.2c-1.5-2.2-3.4-4.1-5.6-5.8C73.9,9.3,68.4,6.9,63.5,6c-2.6-0.6-5.2-0.9-7.7-0.9c-1.3,0-2.6,0.1-3.9,0.2
					c-3.9,0.4-8.3,2-10.9,5c-0.7,0.7-1.2,1.5-1.6,2.4c-1.9,12.3,1.9,26.1,9.7,35.8c0.7,0.7,1.5,1.4,2.4,2c1.7,1.2,3.7,2,5.9,2.3
					L56.6,52.7z"/>
			</g>
			<path fill="#885390" d="M46.6,11c-0.7,2.1-1,4.4-1.3,6.6C45,19.8,44.9,22,45,24.2c0,4.5,0.6,8.9,1.7,13.2
				c0.6,2.4,1.3,4.8,2.4,7.1c0.1,0.3,0.7,0.1,0.6-0.2c-0.6-2.1-1.2-4.2-1.7-6.4c-0.5-2.1-0.9-4.3-1.2-6.5c-0.5-4.3-0.6-8.7-0.3-13
				c0.2-2.4,0.6-4.9,0.8-7.3C47.3,10.8,46.7,10.7,46.6,11L46.6,11z"/>
			<path fill="#885390" d="M51.5,44.2c0.4-2.3,0.8-4.5,1.2-6.8c0.4-2.2,0.9-4.5,1.4-6.7c1-4.5,2.3-8.9,3.6-13.3
				c0.8-2.5,1.7-4.9,2.3-7.4c0.1-0.4-0.5-0.8-0.8-0.4c-1,2.1-1.8,4.3-2.5,6.5c-0.7,2.2-1.3,4.4-1.9,6.6c-1.2,4.5-2.1,9-2.9,13.5
				c-0.4,2.6-0.8,5.2-1,7.8C51,44.4,51.4,44.5,51.5,44.2L51.5,44.2z"/>
			<path fill="#885390" d="M82.9,24.7c-4.6,7-10.1,13.3-16.3,19c-1.7,1.6-3.6,3.1-5.3,4.8c-0.3,0.3,0.1,0.7,0.4,0.5
				c3.4-2.4,6.5-5.5,9.4-8.5c2.9-3,5.6-6.3,8.1-9.6c1.4-1.9,2.8-3.8,4.1-5.8C83.5,24.7,83.1,24.5,82.9,24.7L82.9,24.7z"/>
			<path fill="#885390" d="M55.2,45.9c3.1-9.1,7-17.9,11.3-26.5c1.2-2.4,2.5-4.8,3.6-7.2c0.2-0.4-0.4-0.6-0.6-0.3
				c-2.6,4.1-4.6,8.5-6.6,12.8c-2,4.4-3.9,8.8-5.6,13.4c-0.9,2.5-1.8,5.1-2.7,7.6C54.4,46.1,55,46.3,55.2,45.9L55.2,45.9z"/>
			<path fill="#885390" d="M58.5,47.7c2.8-3.4,5.4-7.2,7.7-11c2.4-3.8,4.6-7.7,6.7-11.6c1.2-2.2,2.2-4.5,3.2-6.8
				c0.1-0.4-0.4-0.6-0.6-0.3c-2.1,3.9-4,7.9-6.2,11.8c-2.2,3.9-4.5,7.7-7,11.4c-1.4,2.1-2.8,4.2-4.2,6.2
				C58,47.7,58.3,47.9,58.5,47.7L58.5,47.7z"/>
		</g>
		<g>
			<g>
				<path fill="#CCA1C6" d="M54.5,30.8c1.7,1,3.4,2.1,5.1,3.1c-1.4,2.4-3,4.7-4.7,6.9L54.5,30.8z"/>
			</g>
			<g>
				<path fill="#CCA1C6" d="M48.2,49.1c-1.4,2.3-3,4.5-4.6,6.6c-1.3-1.4-2.5-3-3.5-4.6L48.2,49.1z"/>
			</g>
			<g>
				<path fill="#CCA1C6" d="M56,44.3c0.2-0.3,0.6-0.7,0.6-1.1c0.4-2.9,0.6-5.7,0.5-8.5c-0.1-2.8-0.4-5.5-1-8.3
					c-1.9-13-11.8-29.6-27.1-25.1c-2.9,0.8-5.8,2.2-8.5,3.9c-5.4,3.5-10.1,8.6-13,13.6c-1.6,2.6-2.9,5.3-3.9,8.1
					c-0.5,1.4-0.9,2.9-1.2,4.4c-1.1,4.4-0.9,9.9,1.3,13.8c0.6,1,1.2,1.9,2.1,2.7c12.7,6.8,29.3,7.9,42.8,3c1.1-0.5,2.1-1.1,3.1-1.9
					c1.9-1.4,3.6-3.3,4.8-5.6L56,44.3z"/>
			</g>
			<path fill="#A26EA6" d="M6.6,39.4c2.1,1.6,4.4,2.8,6.7,3.9c2.3,1.1,4.7,2,7.1,2.9c4.9,1.7,10,2.7,15.1,3.2
				c2.9,0.3,5.8,0.4,8.7,0.1c0.4,0,0.4-0.7,0-0.7c-2.5-0.2-5.1-0.3-7.6-0.6C34,48,31.5,47.6,29,47.1c-4.9-1.1-9.8-2.6-14.4-4.6
				C12,41.3,9.5,40,6.9,38.8C6.5,38.6,6.2,39.2,6.6,39.4L6.6,39.4z"/>
			<path fill="#A26EA6" d="M44.7,46.7c-2.3-1.3-4.7-2.6-7-3.9c-2.3-1.3-4.6-2.7-6.8-4.1c-4.5-2.8-8.9-5.9-13.1-9.1
				c-2.4-1.8-4.7-3.7-7.2-5.3c-0.4-0.3-1.1,0.3-0.7,0.7c1.9,1.9,4.1,3.6,6.2,5.2c2.1,1.6,4.3,3.1,6.5,4.6c4.4,3,9,5.8,13.7,8.3
				c2.7,1.4,5.4,2.9,8.2,4.1C44.8,47.4,45,46.9,44.7,46.7L44.7,46.7z"/>
			<path fill="#A26EA6" d="M35.4,4.9c5.9,7.7,10.7,16.2,14.6,25.1c1.1,2.5,2.1,5.1,3.2,7.6c0.2,0.4,0.8,0.1,0.7-0.3
				c-1.4-4.7-3.5-9.2-5.7-13.5c-2.2-4.3-4.7-8.5-7.4-12.5c-1.5-2.3-3.1-4.5-4.8-6.7C35.7,4.3,35.2,4.6,35.4,4.9L35.4,4.9z"/>
			<path fill="#A26EA6" d="M48,43.3c-8.7-6.9-17-14.5-24.7-22.5c-2.2-2.2-4.3-4.5-6.5-6.7c-0.3-0.3-0.8,0.2-0.6,0.6
				c3.5,4.3,7.5,8.3,11.5,12.1c4,3.9,8.2,7.6,12.5,11.2c2.4,2,4.9,3.9,7.3,5.8C48,44.2,48.4,43.6,48,43.3L48,43.3z"/>
			<path fill="#A26EA6" d="M51.3,40.4c-2.7-4.4-5.8-8.6-9-12.7c-3.2-4.1-6.6-8-10.2-11.7c-2-2.1-4-4.2-6.2-6.1
				c-0.3-0.3-0.9,0.2-0.5,0.6c3.5,3.8,7.1,7.4,10.5,11.3c3.4,3.9,6.7,7.9,9.8,12c1.8,2.3,3.5,4.7,5.2,7C51.1,41,51.4,40.6,51.3,40.4
				L51.3,40.4z"/>
		</g>
	</g>
</g>
<g id="Carteles">
</g>
<g id="Locetas">
</g>
<g id="Capa_29">
</g>
<g id="GRID_COMPELTO" display="none">
	<g display="inline" opacity="0.61">
		<g>
			<g opacity="0.28">
				<rect x="-71" y="-47.1" fill="none" stroke="#222221" stroke-width="0.9969" stroke-miterlimit="10" width="208" height="104"/>
				<rect x="-71" y="56.9" fill="none" stroke="#222221" stroke-width="0.9969" stroke-miterlimit="10" width="208" height="104"/>
			</g>
		</g>
	</g>
</g>
</svg>
