<?xml version="1.0" encoding="utf-8"?>
<!-- Generator: Adobe Illustrator 18.0.0, SVG Export Plug-In . SVG Version: 6.00 Build 0)  -->
<!DOCTYPE svg PUBLIC "-//W3C//DTD SVG 1.1//EN" "http://www.w3.org/Graphics/SVG/1.1/DTD/svg11.dtd">
<svg version="1.1" xmlns="http://www.w3.org/2000/svg" xmlns:xlink="http://www.w3.org/1999/xlink" x="0px" y="0px"
	 viewBox="0 0 1400 1600" enable-background="new 0 0 1400 1600" xml:space="preserve">
<g id="Capa_1">
	<rect x="500" y="1000" fill="none" stroke="#1D1D1B" stroke-width="2.2885" stroke-miterlimit="10" width="100" height="100"/>
</g>
<g id="Capa_2">
	<g>
		<g>
			<g>
				<polygon fill="#DBDDE1" points="1398.4,556.3 898.9,556.1 935.6,532.6 1366.6,535.3 				"/>
				<polygon fill="#E1E1E1" points="1400,1600.9 899.9,1600.9 901.9,729.8 1400,729.8 				"/>
				<rect x="899.6" y="1555.3" fill="#CACACA" width="499.9" height="44.8"/>
				<rect x="899.4" y="557.3" fill="#CBCED7" width="500.5" height="297.7"/>
				<g>
					<rect x="989.8" y="1295.1" fill="#C4C4C4" width="332.2" height="303.2"/>
					<polyline fill="#DDF0F7" stroke="#D0D0D0" stroke-width="7.1486" stroke-miterlimit="10" points="976.8,1600.3 976.8,1292.7 
						1336,1292.7 1336,1600.3 					"/>
					<rect x="971.4" y="1279" fill="#AFAFAF" width="371" height="61.1"/>
					<rect x="1147.1" y="1339.6" opacity="0.45" fill="#AECBDB" width="14" height="261.4"/>
					<rect x="980.5" y="1592.2" fill="#AECBDB" width="352.1" height="8.3"/>
					<polygon fill="#E9F5FA" points="1179.3,1359.5 1311.7,1359.4 1312,1573.5 					"/>
					<polygon fill="#E9F5FA" points="1134.3,1578.2 1000.4,1578.2 1000.4,1357.9 					"/>
					<polygon fill="#E9F5FA" points="1079.4,1357.1 1129.9,1423.1 1129.9,1356.9 					"/>
					<polygon fill="#E9F5FA" points="1236.2,1574.8 1186.5,1508.2 1185.8,1574.4 					"/>
				</g>
				<rect x="970.9" y="918.8" fill="#DDF0F7" width="369.2" height="86.6"/>
				<rect x="970.9" y="1040.5" fill="#DDF0F7" width="369.2" height="86.6"/>
				<rect x="970.9" y="1153.4" fill="#DDF0F7" width="369.2" height="86.6"/>
				<polygon fill="#E9F5FA" points="1321.3,988.3 995,988.3 995,937.6 				"/>
				<polygon fill="#E9F5FA" points="1334.4,1111 1008.1,1111 1008.1,1060.4 				"/>
				<polygon fill="#E9F5FA" points="1334.4,1224 1008.1,1224 1008.1,1173.3 				"/>
				<rect x="965.4" y="911.6" fill="#AFAFAF" width="377.1" height="12.4"/>
				<rect x="967.9" y="1035.4" fill="#AFAFAF" width="375.1" height="12.4"/>
				<rect x="966.8" y="1148.3" fill="#AFAFAF" width="375.1" height="12.4"/>
			</g>
		</g>
		<g>
			<rect x="598" y="614.5" fill="#DBDBDB" width="303.4" height="885.5"/>
			<polygon fill="#CECDCE" points="900.5,628 598.2,628 599.1,574.6 900.5,575.7 			"/>
			<rect x="596.9" y="1455.9" fill="#CACACA" width="303" height="44.8"/>
			
				<line opacity="0.2" fill="none" stroke="#1D1D1B" stroke-width="2.886" stroke-linecap="round" stroke-linejoin="round" stroke-miterlimit="10" x1="605.6" y1="1248.9" x2="893.2" y2="1248.9"/>
			<g>
				<polygon fill="#DBDBDB" points="860,608.7 632.5,608.7 632.5,394.7 632.5,323 860,323 860,387.9 				"/>
				<g>
					<polygon fill="#DBDEE4" points="625.1,114.7 445.1,146.1 561.8,208.1 954.2,208.1 1035.9,145.3 897.1,113.8 					"/>
					<polygon fill="#CBCED7" points="1035.3,305 903.8,335.9 903.2,172.2 1035.6,145 					"/>
					<polygon fill="#CBCED7" points="561.8,335.9 446.3,301.5 445.1,147 561.8,171.5 					"/>
					<rect x="561.8" y="171.6" fill="#CBCED7" width="342" height="164.4"/>
					<rect x="561.4" y="214.3" fill="#1E7DBD" width="335.6" height="76.7"/>
					<polygon fill="#1F7BAD" points="561.4,291.9 445.9,258 445.5,185.9 561.4,214.3 					"/>
					<polygon fill="#2189C4" points="896.7,292.9 1034.7,262.6 1034.7,185.7 896.4,214.2 					"/>
					<rect x="488.1" y="195.5" fill="#ADAFB2" width="3.7" height="77.2"/>
					<rect x="783.3" y="210.6" fill="#BEC1C6" width="3.7" height="83.3"/>
					<rect x="662.5" y="211.8" fill="#BEC1C6" width="3.7" height="83.3"/>
					<rect x="561" y="209.5" fill="#BEC1C6" width="336.4" height="6.6"/>
					<polygon fill="#BEC1C6" points="1035.3,187.4 897.1,216.4 896.5,209.5 1035.3,180.8 					"/>
					<polygon fill="#BEC1C6" points="1035.3,267.1 895.9,295.8 895.9,289.1 1035.3,261.4 					"/>
					<polygon fill="#ADAFB2" points="445.4,181.9 445.4,188.7 561,216.2 561,209.5 					"/>
					<polygon fill="#ADAFB2" points="446,254.5 446,262.2 561.6,295.2 561.6,288.5 					"/>
					<g>
						<rect x="550.2" y="45.5" fill="#CCCFD2" width="365" height="109.1"/>
						<g>
							<polygon fill="#D5D8DB" points="915.3,45.5 549.4,45.5 618.4,29.6 859.3,29.6 							"/>
							<rect x="549.4" y="45.5" opacity="0.36" fill="#CCCFD2" width="365.8" height="16.8"/>
							<g opacity="0.27">
								<rect x="624.7" y="81.4" fill="#616160" width="50.8" height="53.5"/>
								<rect x="636" y="81.4" fill="#7C7C7C" width="39.1" height="49.1"/>
							</g>
							<g opacity="0.27">
								<rect x="708.8" y="81" fill="#616160" width="50.8" height="53.5"/>
								<rect x="720.1" y="81" fill="#7C7C7C" width="39.1" height="49.1"/>
							</g>
							<g opacity="0.27">
								<rect x="795" y="80.8" fill="#616160" width="50.8" height="53.5"/>
								<rect x="806.2" y="80.8" fill="#7C7C7C" width="39.1" height="49.1"/>
							</g>
						</g>
					</g>
					<rect x="560.6" y="289.3" fill="#BEC1C6" width="336" height="6.6"/>
					<rect x="992.6" y="193.5" fill="#BEC1C6" width="3.7" height="77.2"/>
					<rect x="559.8" y="209.8" fill="#BEC1C6" width="3.7" height="84.9"/>
					<rect x="895.3" y="210.3" fill="#BEC1C6" width="3.7" height="84.9"/>
				</g>
				
					<line opacity="0.2" fill="none" stroke="#1D1D1B" stroke-width="2.886" stroke-linecap="round" stroke-linejoin="round" stroke-miterlimit="10" x1="638.3" y1="413" x2="852.8" y2="413"/>
				<polygon opacity="0.7" fill="#DBDBDB" points="632.5,396.6 632.5,335.5 859.1,335.5 				"/>
				
					<line opacity="0.2" fill="none" stroke="#1D1D1B" stroke-width="2.886" stroke-linecap="round" stroke-linejoin="round" stroke-miterlimit="10" x1="638.3" y1="516.8" x2="852.8" y2="516.8"/>
			</g>
			<g>
				<g>
					<rect x="614.6" y="684.2" fill="#DDF0F7" width="265.8" height="137.6"/>
					<rect x="612.3" y="682.3" fill="#C9C9C9" width="270.3" height="7.9"/>
					<polygon fill="#E9F5FA" points="859.1,805.5 634.5,805.5 634.5,706.3 					"/>
				</g>
				<g>
					<rect x="614.6" y="838.2" fill="#DDF0F7" width="265.8" height="137.6"/>
					<rect x="612.3" y="836.2" fill="#C9C9C9" width="270.3" height="7.9"/>
					<polygon fill="#E9F5FA" points="859.1,958.5 634.5,958.5 634.5,859.2 					"/>
				</g>
				<g>
					<rect x="614.6" y="992.1" fill="#DDF0F7" width="265.8" height="137.6"/>
					<polygon fill="#E9F5FA" points="859.1,1113.3 634.5,1113.3 634.5,1014.1 					"/>
					<rect x="612.3" y="989.7" fill="#C9C9C9" width="270.3" height="7.9"/>
				</g>
			</g>
		</g>
		<g>
			<g>
				<rect x="0.7" y="366.2" fill="#E1E1E1" width="600.3" height="1233.1"/>
				<g>
					<rect x="104.2" y="367.6" fill="#EC6C4B" width="383.6" height="137.6"/>
					<polygon fill="#E3E3E4" points="601.5,366.9 1.1,366.9 59.9,349.1 531.3,349.4 					"/>
					<rect x="104.2" y="505.2" fill="#1E7DBD" width="383.6" height="771.2"/>
					<rect x="104.1" y="611.6" fill="#1E75A5" width="383.7" height="11.2"/>
					<rect x="104.1" y="724.2" fill="#1E75A5" width="383.7" height="11.2"/>
					<polyline fill="#DDF0F7" stroke="#D0D0D0" stroke-width="8.6581" stroke-miterlimit="10" points="128.5,1599.6 128.5,1320.3 
						466.4,1320.3 466.4,1598.6 					"/>
					<rect x="123.4" y="1298.3" fill="#AFAFAF" width="349" height="55.3"/>
					<g>
						<g>
							<g>
								<polygon fill="#2393C4" points="202.2,599.1 122.8,599.1 122.8,526.3 								"/>
							</g>
							<g>
								<polygon fill="#2393C4" points="292.9,599.1 213.5,599.1 213.5,526.3 								"/>
							</g>
							<g>
								<polygon fill="#2393C4" points="384,598.1 304.6,598.1 304.6,525.4 								"/>
							</g>
							<g>
								<polygon fill="#2393C4" points="472.6,599.1 393.3,599.1 393.3,526.3 								"/>
							</g>
						</g>
					</g>
					<g>
						<g>
							<g>
								<polygon fill="#2393C4" points="202.2,711.1 122.8,711.1 122.8,638.3 								"/>
							</g>
							<g>
								<polygon fill="#2393C4" points="292.9,711.1 213.5,711.1 213.5,638.3 								"/>
							</g>
							<g>
								<polygon fill="#2393C4" points="384,710.1 304.6,710.1 304.6,637.3 								"/>
							</g>
							<g>
								<polygon fill="#2393C4" points="472.6,711.1 393.3,711.1 393.3,638.3 								"/>
							</g>
						</g>
					</g>
					<g>
						<g>
							<g>
								<polygon fill="#2393C4" points="207,821.7 127.6,821.7 127.6,748.9 								"/>
							</g>
							<g>
								<polygon fill="#2393C4" points="297.7,821.7 218.3,821.7 218.3,748.9 								"/>
							</g>
							<g>
								<polygon fill="#2393C4" points="388.8,820.7 309.4,820.7 309.4,748 								"/>
							</g>
							<g>
								<polygon fill="#2393C4" points="477.4,821.7 398.1,821.7 398.1,748.9 								"/>
							</g>
						</g>
					</g>
					<g>
						<g>
							<g>
								<polygon fill="#2393C4" points="202.2,1154.7 122.8,1154.7 122.8,1081.9 								"/>
							</g>
							<g>
								<polygon fill="#2393C4" points="292.9,1154.7 213.5,1154.7 213.5,1081.9 								"/>
							</g>
							<g>
								<polygon fill="#2393C4" points="384,1154.7 304.6,1154.7 304.6,1082 								"/>
							</g>
							<g>
								<polygon fill="#2393C4" points="472.6,1154.7 393.3,1154.7 393.3,1081.9 								"/>
							</g>
						</g>
					</g>
					<g>
						<g>
							<g>
								<polygon fill="#2393C4" points="202.2,1262.5 122.8,1262.5 122.8,1189.7 								"/>
							</g>
							<g>
								<polygon fill="#2393C4" points="292.9,1262.5 213.5,1262.5 213.5,1189.7 								"/>
							</g>
							<g>
								<polygon fill="#2393C4" points="384,1262.5 304.6,1262.5 304.6,1189.8 								"/>
							</g>
							<g>
								<polygon fill="#2393C4" points="472.6,1263.5 393.3,1263.5 393.3,1190.7 								"/>
							</g>
						</g>
					</g>
					<rect x="104.1" y="1167.2" fill="#1E75A5" width="383.7" height="11.2"/>
					<line fill="none" stroke="#E9E9EA" stroke-width="5.7721" stroke-miterlimit="10" x1="2.3" y1="616.1" x2="103.5" y2="616.1"/>
					<line fill="none" stroke="#E9E9EA" stroke-width="5.7721" stroke-miterlimit="10" x1="2.3" y1="729.5" x2="103.5" y2="729.5"/>
					<line fill="none" stroke="#E9E9EA" stroke-width="5.7721" stroke-miterlimit="10" x1="2.3" y1="842.8" x2="103.5" y2="842.8"/>
					<line fill="none" stroke="#E9E9EA" stroke-width="5.7721" stroke-miterlimit="10" x1="2.3" y1="954.8" x2="103.5" y2="954.8"/>
					
						<line fill="none" stroke="#E9E9EA" stroke-width="5.7721" stroke-miterlimit="10" x1="2.3" y1="1062.6" x2="103.5" y2="1062.6"/>
					
						<line fill="none" stroke="#E9E9EA" stroke-width="5.7721" stroke-miterlimit="10" x1="2.3" y1="1173.1" x2="103.5" y2="1173.1"/>
					<g>
						
							<line fill="none" stroke="#E9E9EA" stroke-width="5.7721" stroke-miterlimit="10" x1="488.1" y1="616.1" x2="600.1" y2="616.1"/>
						
							<line fill="none" stroke="#E9E9EA" stroke-width="5.7721" stroke-miterlimit="10" x1="488.1" y1="729.5" x2="600.1" y2="729.5"/>
						
							<line fill="none" stroke="#E9E9EA" stroke-width="5.7721" stroke-miterlimit="10" x1="488.1" y1="842.8" x2="600.1" y2="842.8"/>
						
							<line fill="none" stroke="#E9E9EA" stroke-width="5.7721" stroke-miterlimit="10" x1="488.1" y1="954.8" x2="600.1" y2="954.8"/>
						
							<line fill="none" stroke="#E9E9EA" stroke-width="5.7721" stroke-miterlimit="10" x1="488.1" y1="1062.6" x2="600.1" y2="1062.6"/>
						
							<line fill="none" stroke="#E9E9EA" stroke-width="5.7721" stroke-miterlimit="10" x1="488.1" y1="1173.1" x2="600.1" y2="1173.1"/>
					</g>
					<rect x="0" y="1555.9" fill="#CACACA" width="133.4" height="44.8"/>
					<rect x="460.5" y="1556.2" fill="#CACACA" width="140.5" height="44.3"/>
					<rect x="288.7" y="1353.8" opacity="0.45" fill="#AECBDB" width="13.1" height="245.5"/>
					<rect x="133.1" y="1592.2" fill="#AECBDB" width="327.4" height="7.5"/>
					<polygon fill="#E9F5FA" points="319,1380.8 443.5,1380.6 443.8,1574.3 					"/>
					<polygon fill="#E9F5FA" points="276.6,1578.6 150.7,1578.6 150.7,1379.3 					"/>
					<polygon fill="#E9F5FA" points="225,1378.6 272.5,1438.3 272.5,1378.4 					"/>
					<polygon fill="#E9F5FA" points="372.5,1575.5 325.8,1515.3 325,1575.2 					"/>
				</g>
			</g>
		</g>
	</g>
	<polygon opacity="0.6" fill="#2393C4" points="778.8,284.1 673.4,284.1 673.4,222.7 	"/>
	<polygon opacity="0.6" fill="#2393C4" points="659.4,283.4 570.1,283.4 570.1,222 	"/>
	<polygon opacity="0.6" fill="#2393C4" points="554.2,280.6 497.4,264.4 496.2,206.9 	"/>
	<polygon opacity="0.6" fill="#2393C4" points="485.2,260.1 445.4,248.9 445.2,193.4 	"/>
	<polygon opacity="0.6" fill="#2393C4" points="891.4,284.1 793.4,284.1 793.4,222.7 	"/>
	<polygon opacity="0.6" fill="#2393C4" points="985.5,264.9 905.4,280.4 905.4,219 	"/>
	<polyline opacity="0.6" fill="#2393C4" points="1034.3,254.9 1002.1,261.1 1002.1,199.7 1034.2,219.3 	"/>
	<g>
		<g>
			<g>
				<path fill="#FFFFFF" d="M352.5,399h7.2c-2.9,7.3-5.4,14.6-8.5,24.7h-7.3C347.1,415.3,349.9,407.1,352.5,399z"/>
				<polygon fill="#FFFFFF" points="361,395 354,395 355.6,390.4 362.6,390.4 				"/>
				<path fill="#FFFFFF" d="M323.9,398.8h7.2c-2.9,7.3-5.4,14.6-8.5,24.5h-7.3C318.5,415.3,321.3,407.1,323.9,398.8z"/>
				<polygon fill="#FFFFFF" points="332.4,395 325.3,395 327,390.4 334.1,390.4 				"/>
				<path fill="#FFFFFF" d="M198.4,418.1l-2,5.4l-23.1-0.1c4.5-11,8.3-21.9,11.8-33h7.7c-1.2,2.9-7.9,21.5-9.9,27.7h6
					C192.2,418.2,195.4,418.2,198.4,418.1z"/>
				<path fill="#FFFFFF" d="M395.4,419.4l-2.5,4.2c-1.6,0.3-3.1,0.4-4.7,0.4c-7.9,0-7.3-4.8-6.6-7c3.1-10.1,19.4-6.7,21-12.1
					c0.7-2.3-1.9-2.8-3.7-2.8c-3.4,0-6.9,0.9-10.2,2l2.2-4.5c3.8-0.9,7.4-1.5,11.1-1.5c4.4,0,9.2,1,7.6,6.4
					c-1,3.5-4.4,11.4-6.6,18.8h-6.9c0.9-2.2,1.8-4.4,4.8-12.7c-3.2,2.3-11.4,2-12.9,6.4c-0.7,2.3,1.3,2.9,3.2,2.9
					C392.7,420.1,394,419.8,395.4,419.4z"/>
				<path fill="#FFFFFF" d="M367.7,399v18.3l12.7-18.1h7.2c-6.3,8.2-12.6,16.4-18.5,24.5h-7.4c-0.1-8.3-0.6-16.4-1-24.7H367.7z"/>
				<path fill="#FFFFFF" d="M348.1,403.9H342c-0.7,2-3.5,9.6-4.1,11.4c-0.6,2-0.7,3.8,1.5,3.8c1.9,0,2.9-0.3,4.1-0.6l-2.5,5.1
					c-2,0.4-3.9,0.7-5.7,0.7c-4.7,0-6.4-1.6-5-6.4c0.7-2.5,4.7-12.9,5.1-14h-3.5l1.8-4.8h3.7l1.6-4.5l6.7-1.3l-2,5.8h6.1
					L348.1,403.9z"/>
				<path fill="#FFFFFF" d="M294.2,423.5l1.2-5.4c2,0.9,4.1,1.9,6.4,1.9c1.5,0,3.9-0.4,4.5-2.5c1-3.5-7.4-6.3-5.7-12
					c1.3-4.1,5-6.7,11.4-6.7c2.5,0,4.8,0.3,7,0.9l-1.3,5.1c-1.3-0.7-2.9-1.3-5-1.3s-4.2,0.1-4.8,2.3c-0.9,3.1,7.4,6.1,5.5,12.3
					c-1.6,5.1-7.7,6.7-11.8,6.7C299.2,424.5,296.6,424.1,294.2,423.5z"/>
				<path fill="#FFFFFF" d="M252.8,409.9l0.3-4.8c0.9,0.1,1.8,0.3,2.6,0.3c4.5,0,7.4-2,8.6-5.7c1-3.2-0.4-4.1-3.9-4.1
					c-1.8,0-3.5,0.1-5.4,0.3c-1.2,3.2-6.9,19.7-9.5,27.9h-7.2c2.5-5.7,9.1-24.8,11.5-33l15.6,0.1c6.6,0,6.9,5.3,5.8,8.6
					c-2.2,6.9-8.8,10.7-15.2,10.7C255.1,410.2,253.9,410.1,252.8,409.9z"/>
				<path fill="#FFFFFF" d="M214.1,419.6l-2.5,4.2c-1.6,0.3-3.1,0.4-4.7,0.4c-7.9,0-7.3-4.8-6.6-7c3.1-10.1,19.4-6.7,21-12.1
					c0.7-2.3-1.8-2.8-3.7-2.8c-3.4,0-6.9,0.9-10.2,2l2.2-4.7c3.8-0.9,7.4-1.5,11.1-1.5c4.4,0,9.2,1,7.6,6.4
					c-1,3.5-4.4,11.4-6.7,18.7h-6.9c0.9-2.2,1.8-4.4,4.8-12.7c-3.2,2.2-11.4,2-12.9,6.4c-0.7,2.3,1.3,2.9,3.2,2.9
					C211.3,420.3,212.6,420,214.1,419.6z"/>
				<g>
					<g>
						<path fill="#FFFFFF" d="M286.7,398.7c-8.2,0-15.5,5-18.1,13.4c-1.6,5.4-0.6,12.3,9.3,12.3c11.4,0,16.5-8.5,18-13.3
							C298.5,403.2,294.4,398.7,286.7,398.7z M285.2,403.5c4.5,0,5.3,3.4,3.9,7.4c-1.3,4.4-4.7,8.6-9.6,8.6c-4.2,0-5.4-3.4-4.1-7.3
							C276.7,407.7,279.9,403.5,285.2,403.5z"/>
					</g>
					<g>
						<path fill="#FFFFFF" d="M214.1,419.6c-1.3,0.4-2.8,0.7-4.1,0.7c-2,0-3.9-0.6-3.2-2.9c1.3-4.4,9.5-4.1,12.9-6.4
							c-3.1,8.3-3.8,10.5-4.8,12.7h6.9c2.3-7.4,5.5-15.2,6.6-18.7c1.6-5.4-3.2-6.4-7.6-6.4c-3.7,0-7.3,0.6-11.1,1.5l-2.2,4.7
							c3.4-1.2,7-2,10.2-2c1.9,0,4.4,0.3,3.7,2.8c-1.6,5.4-18,2-21.2,12.1c-0.7,2.2-1.3,7,6.6,7c1.6,0,3.1-0.1,4.7-0.4L214.1,419.6z
							"/>
					</g>
					<g>
						<path fill="#FFFFFF" d="M252.8,409.9c1.2,0.1,2.3,0.3,3.5,0.3c6.6,0,13-3.8,15.2-10.7c1-3.5,0.7-8.6-5.8-8.6l-15.6-0.1
							c-2.6,8.3-9.2,27.3-11.5,33h7.2c2.6-8.3,8.3-24.8,9.5-27.9c1.9-0.1,3.5-0.3,5.4-0.3c3.5,0,5,0.9,3.9,4.1
							c-1.2,3.7-4.1,5.7-8.6,5.7c-0.9,0-1.8-0.1-2.6-0.3L252.8,409.9z"/>
					</g>
					<g>
						<path fill="#FFFFFF" d="M294.2,423.5c2.3,0.6,4.8,1,7.6,1c4.1,0,10.2-1.6,11.8-6.7c1.9-6.1-6.6-9.1-5.5-12.3
							c0.7-2.2,2.8-2.3,4.8-2.3c1.9,0,3.5,0.6,5,1.3l1.3-5.1c-2.3-0.4-4.7-0.7-7-0.7c-6.4,0-10.1,2.8-11.4,6.7
							c-1.8,5.7,6.7,8.5,5.7,12c-0.6,2-3.1,2.6-4.5,2.6c-2.5,0-4.5-0.9-6.4-1.9L294.2,423.5z"/>
					</g>
					<g>
						<path fill="#FFFFFF" d="M348.1,403.9l1.8-4.8h-6.1l2-5.8l-6.7,1.3l-1.6,4.5h-3.7l-1.8,4.8h3.5c-0.4,1.2-4.4,11.4-5.1,14
							c-1.5,4.8,0.3,6.4,5,6.4c1.9,0,3.8-0.3,5.7-0.7l2.5-5.1c-1.3,0.3-2.2,0.6-4.1,0.6c-2.2,0-2-1.8-1.5-3.8
							c0.6-1.8,3.4-9.2,4.1-11.4H348.1z"/>
					</g>
					<g>
						<path fill="#FFFFFF" d="M367.7,399h-7c0.3,8.2,0.9,16.4,1,24.7h7.4c6-8.3,12.3-16.5,18.5-24.5h-7.2L368,417.2h-0.1V399H367.7z
							"/>
					</g>
					<g>
						<path fill="#FFFFFF" d="M395.4,419.4c-1.3,0.4-2.8,0.7-4.1,0.7c-1.9,0-3.9-0.6-3.2-2.9c1.3-4.4,9.5-4.1,12.9-6.4
							c-3.1,8.3-3.8,10.5-4.8,12.7h6.9c2.3-7.4,5.5-15.3,6.7-18.8c1.6-5.4-3.2-6.4-7.6-6.4c-3.7,0-7.3,0.6-11.1,1.5l-2.2,4.5
							c3.4-1.2,7-2,10.2-2c1.9,0,4.4,0.4,3.7,2.8c-1.6,5.4-18,2-21,12.1c-0.7,2.2-1.3,7,6.6,7c1.6,0,3.1-0.1,4.7-0.4L395.4,419.4z"
							/>
					</g>
					<g>
						<path fill="#FFFFFF" d="M198.4,418.2c-3.2,0.1-6.3,0.1-9.5,0.1h-6c2.2-6.3,8.9-24.8,9.9-27.7h-7.7c-3.7,11.1-7.4,22.1-11.8,33
							l23.1,0.1L198.4,418.2z"/>
					</g>
					<g>
						<polygon fill="#FFFFFF" points="332.4,395 334,390.4 327,390.4 325.3,395 						"/>
					</g>
					<g>
						<path fill="#FFFFFF" d="M323.9,398.8c-2.6,8.2-5.4,16.5-8.8,24.7h7.3c3.1-9.9,5.7-17.2,8.6-24.7H323.9z"/>
					</g>
					<g>
						<polygon fill="#FFFFFF" points="361,395 362.6,390.4 355.4,390.4 354,395 						"/>
					</g>
					<g>
						<path fill="#FFFFFF" d="M352.5,399c-2.6,8.2-5.4,16.5-8.8,24.5h7.3c3.2-9.9,5.7-17.2,8.6-24.7L352.5,399z"/>
					</g>
				</g>
			</g>
			<g>
				<path fill="#FFFFFF" d="M362.6,466.4c-85.6,6.9-159.9-6.3-188.7-30.5c0.1,0.1,0.1,0.4,0.3,0.6c40.6,33.1,126.2,52.3,225.2,47.2
					l4.7-22.2C390.8,463.8,376.9,465.4,362.6,466.4z"/>
			</g>
			<path fill="#FFFFFF" d="M320.4,434.5l-0.7,2.8c-0.9-0.4-1.9-0.7-3.1-0.7c-1.5,0-2.8,0.7-3.2,1.8c-0.9,2.5,4.5,4.1,3.2,7.9
				c-0.6,1.8-2.8,4.2-7.2,4.2c-1.5,0-2.9-0.3-4.2-0.6l0.9-2.9c1,0.6,2.3,1,3.8,1c1.2,0,2.8-0.4,3.2-1.8c0.9-2.5-4.5-4.2-3.1-8
				c1-2.8,4.2-4.1,7-4.1C318.2,434,319.4,434.2,320.4,434.5 M355,450.2l0.6-1.9c-1.5,1.6-3.2,2.2-5.1,2.2c-2.3,0-3.9-1-2.9-3.7
				c0.7-2,1.9-4.4,3.5-8.5h3.4c-0.4,0.9-2.5,5.5-3.1,6.9c-0.6,1.6-0.1,2.5,1.5,2.5c1.8,0,3.1-1.2,4.1-2.8c0.9-1.6,2.3-5.4,2.8-6.7
				h3.4c-1.8,3.9-3.5,7.9-5,11.8H355V450.2z M369.3,438.4l-0.6,1.6c1.2-1.2,2.3-1.9,3.9-1.9c0.3,0,0.7,0,1,0.1l-0.9,2.8
				c-0.4-0.1-0.7-0.3-1.2-0.3c-1.8,0-3.1,1.2-4.1,2.8c-0.7,1.3-1.6,3.8-2.2,5.1l-0.6,1.5h-3.4c1.5-3.4,2.9-6.6,4.8-11.8h3.1V438.4z
				 M384.6,449.9l0.7-2.6c0.9,0.4,1.9,0.9,3.1,0.9c0.7,0,1.9-0.3,2.2-1.2c0.6-1.6-3.4-2.9-2.3-5.7c0.7-1.9,2.5-3.2,5.7-3.2
				c1.2,0,2.3,0.1,3.4,0.3l-0.7,2.5c-0.7-0.3-1.5-0.6-2.3-0.6c-1,0-2,0.1-2.3,1.2c-0.6,1.5,3.4,2.9,2.3,5.8
				c-0.9,2.5-3.9,3.2-5.8,3.2C387,450.5,385.8,450.2,384.6,449.9 M343.9,440.6c-0.6-0.1-1.2-0.1-1.8-0.1c-4.1,0-5.7,3.2-6.1,4.5
				c-0.7,1.9-0.1,3.1,1.8,3.1c1.8,0,3.4-1.5,4.2-3.2C342.7,443.5,343.3,442,343.9,440.6 M330.3,455.2l0.7-2.6
				c1.3,0.6,2.6,0.9,4.2,0.9c3.5,0,4.4-2.6,5.4-5.3c-1.5,1.3-3.2,2-4.8,2c-3.2,0-4.4-2-3.2-5.1c0.7-2,3.5-7,10.5-7
				c1.8,0,3.4,0.3,4.8,0.6c-1.2,2.5-3.1,6.9-5.1,12.3c-1.5,3.8-4.1,4.8-7.6,4.8C333.5,455.8,331.8,455.5,330.3,455.2 M323.5,442.8
				h5.4c0.7-1.8,0.4-2.8-1.5-2.8C325.8,440,324.2,441.3,323.5,442.8 M331.2,444.4h-8.5l-0.1,0.4c-0.9,2.2,0.3,3.5,2.3,3.5
				c1.3,0,2.8-0.3,4.2-0.7l-1.3,2.5c-1.3,0.3-2.8,0.4-3.9,0.4c-6.1,0-5.1-4.1-4.4-5.8c0.7-2.2,3.2-6.6,8.8-6.6c3.2,0,4.8,1.6,3.7,5
				C331.6,443.5,331.5,444.1,331.2,444.4 M380,440.4c-2.5,0-4.1,2-5,4.2c-0.7,1.9-0.3,3.5,1.8,3.5c2.3,0,4.1-2,4.8-4.1
				C382.3,442,382,440.4,380,440.4 M380.8,438.1c3.7,0,5.5,2.2,4.1,6c-0.9,2.3-3.7,6.4-9.1,6.4c-4.8,0-5.1-3.4-4.1-5.8
				C373.2,440.4,376.9,438.1,380.8,438.1"/>
		</g>
	</g>
</g>
</svg>
