<?xml version="1.0" encoding="utf-8"?>
<!-- Generator: Adobe Illustrator 18.0.0, SVG Export Plug-In . SVG Version: 6.00 Build 0)  -->
<!DOCTYPE svg PUBLIC "-//W3C//DTD SVG 1.1//EN" "http://www.w3.org/Graphics/SVG/1.1/DTD/svg11.dtd">
<svg version="1.1" xmlns="http://www.w3.org/2000/svg" xmlns:xlink="http://www.w3.org/1999/xlink" x="0px" y="0px"
	 viewBox="0 0 1000 800" enable-background="new 0 0 1000 800" xml:space="preserve">
<g id="Capa_1">
</g>
<g id="Capa_2">
	<g>
		<g>
			<polygon fill="#2EA095" points="900.6,185.1 101.7,185.1 176.3,95.9 824.2,95.9 			"/>
			<polyline fill="#DDF0F7" stroke="#D0D0D0" stroke-width="8.6538" stroke-miterlimit="10" points="192.8,342.3 192.8,265.5 
				306.6,265.5 306.6,342.3 			"/>
			<rect x="189.1" y="327.3" fill="#CCC7B7" width="121.7" height="15.5"/>
			<rect x="101.4" y="185.1" fill="#32BEBB" width="799.1" height="614.5"/>
			<g>
				<polyline fill="#DDF0F7" stroke="#D0D0D0" stroke-width="8.6538" stroke-miterlimit="10" points="205,185.7 205,469.1 
					783.4,469.1 783.4,185.7 				"/>
				<polygon fill="#E9F5FA" points="221.9,401.7 221.9,198.8 379.6,198.8 				"/>
				<polygon fill="#E9F5FA" points="419.2,404.4 419.2,201.4 579.9,201.4 				"/>
				<polygon fill="#E9F5FA" points="611.2,403.4 611.2,200.4 768.9,200.4 				"/>
			</g>
			<rect x="74.9" y="128.4" fill="#32BEBB" width="836.5" height="27.9"/>
			<polygon fill="#30AAA1" points="911.4,128.4 74.9,129.3 145.1,61.1 812.4,58.2 			"/>
			<polygon fill="#2D9E95" points="150.8,397.6 171.5,384.6 209,384.6 197,397.6 			"/>
			<polygon fill="#2D9E95" points="839.6,397.6 818.9,384.6 781.4,384.6 793.4,397.6 			"/>
			<polygon fill="#2C968B" points="197,397.6 196.7,458.4 207.8,439.7 208,385.1 			"/>
			<polygon fill="#2C968B" points="792.9,397.3 793.1,458.1 782.1,439.3 781.8,384.8 			"/>
			<polygon fill="#31ADA4" points="792.7,428.3 197.1,428.3 207.6,417.7 781.2,417.7 			"/>
			<path fill="#C6C5C6" d="M278.5,422h-39.4c-2.2,0-4.1-1.5-4.6-3.7l-8.8-39.3h63.5l-6.1,39C282.8,420.3,280.9,422,278.5,422z"/>
			<rect x="101.5" y="461.2" opacity="0.27" fill="#DBD8CA" width="798.2" height="7.7"/>
			<rect x="150.8" y="397.6" fill="#32B7B1" width="46.2" height="90.4"/>
			<rect x="793.1" y="397.6" fill="#32B7B1" width="46.2" height="90.4"/>
			<rect x="190" y="428.3" fill="#32B7B1" width="602.8" height="59.7"/>
			<rect x="393.7" y="184.5" opacity="0.41" fill="#C9C9C9" width="5.8" height="233.3"/>
			<rect x="591.3" y="185.4" opacity="0.41" fill="#C9C9C9" width="6.8" height="233.3"/>
			<rect x="101.8" y="745.7" fill="#30B2AC" width="796.1" height="54.3"/>
			<polyline fill="#A39B90" stroke="#9A9794" stroke-width="5.7692" stroke-miterlimit="10" points="301.9,799.2 301.9,539.4 
				502.9,539.4 502.9,799.2 			"/>
			<rect x="286.7" y="531.3" fill="#8D857D" width="228.5" height="25.6"/>
			<path fill="#8D857D" d="M486.5,693.3h-0.1c-2.4,0-4.4-2-4.4-4.4v-21.3c0-2.4,2-4.4,4.4-4.4h0.1c2.4,0,4.4,2,4.4,4.4v21.3
				C490.9,691.3,488.9,693.3,486.5,693.3z"/>
			<rect x="330.7" y="579" opacity="0.56" fill="#8D857D" width="139.7" height="96.8"/>
			<rect x="333.1" y="686.2" opacity="0.56" fill="#8D857D" width="139.7" height="96.8"/>
			
				<rect x="560.9" y="554.3" fill="#DDF0F7" stroke="#D0D0D0" stroke-width="8.6538" stroke-miterlimit="10" width="272.6" height="134.6"/>
			<g>
				<path fill="#6EB42C" d="M248.5,379.5c0,0-0.3-21.2-1.4-27.5c-0.4-2.3-4.9,0.1-7-2.2c-4-4.4-4.2-15.6,0.3-15.7
					c4-0.1,2.8,6.8,4,8.5c1.7,2.4,3.2,0,3.8-8.7c0.5-8.7,0.7-16,4.8-16s4.7,14.4,4.3,18.7c-0.4,4.3-1.3,9.5,1.5,11.4
					c1.6,1.1,3,0.7,3.4-4c0.4-4.7,7.7-4.2,7.4,4c-0.3,8.2-8.7,10.8-10.9,10.4c-2.2-0.4-1.2,21-1.2,21"/>
				
					<line fill="none" stroke="#365524" stroke-width="0.9615" stroke-miterlimit="10" x1="266.6" y1="346.8" x2="270.8" y2="345.3"/>
				
					<line fill="none" stroke="#365524" stroke-width="0.9615" stroke-miterlimit="10" x1="266.5" y1="351.8" x2="271.4" y2="350.4"/>
				
					<line fill="none" stroke="#365524" stroke-width="0.9615" stroke-miterlimit="10" x1="264.4" y1="343.1" x2="268.6" y2="340.7"/>
				<line fill="none" stroke="#365524" stroke-width="0.9615" stroke-miterlimit="10" x1="234.7" y1="338.5" x2="240" y2="339.6"/>
				<line fill="none" stroke="#365524" stroke-width="0.9615" stroke-miterlimit="10" x1="235" y1="344.2" x2="241" y2="344.9"/>
				
					<line fill="none" stroke="#365524" stroke-width="0.9615" stroke-miterlimit="10" x1="254.1" y1="336.1" x2="259.7" y2="333.2"/>
				
					<line fill="none" stroke="#365524" stroke-width="0.9615" stroke-miterlimit="10" x1="252.8" y1="326.5" x2="258.4" y2="323.1"/>
				
					<line fill="none" stroke="#365524" stroke-width="0.9615" stroke-miterlimit="10" x1="246.3" y1="322.2" x2="250.8" y2="323.9"/>
			</g>
		</g>
	</g>
	<polygon fill="#E9F5FA" points="575.2,678.9 575.2,564.4 816.9,564.4 	"/>
</g>
</svg>
