<?xml version="1.0" encoding="utf-8"?>
<!-- Generator: Adobe Illustrator 22.0.0, SVG Export Plug-In . SVG Version: 6.00 Build 0)  -->
<svg version="1.1" xmlns="http://www.w3.org/2000/svg" xmlns:xlink="http://www.w3.org/1999/xlink" x="0px" y="0px"
	 viewBox="0 0 559.5 559.7" enable-background="new 0 0 559.5 559.7" xml:space="preserve">
<g id="Capa_30">
	<g>
		<defs>
			<rect id="SVGID_1_" x="-3953.6" y="-5521.3" width="9152" height="5304"/>
		</defs>
		<clipPath id="SVGID_2_">
			<use xlink:href="#SVGID_1_"  overflow="visible"/>
		</clipPath>
	</g>
</g>
<g id="Capa_4">
	<g id="Capa_3" display="none">
	</g>
</g>
<g id="Capa_1">
</g>
<g id="Fondo">
</g>
<g id="Capa_24">
</g>
<g id="VEREDAS_x2A_">
</g>
<g id="PARQUE">
</g>
<g id="PISTAS_x2A_">
</g>
<g id="Capa_20">
</g>
<g id="Edificio_Central_La_Positiva">
</g>
<g id="Edificio_Centro">
</g>
<g id="Caseta">
</g>
<g id="Edificio_Arequipa">
</g>
<g id="Edificio_Feliz">
</g>
<g id="Edificio_Trujillo">
</g>
<g id="Colegio">
</g>
<g id="Casa_1_1_">
</g>
<g id="Casa_3_1_">
</g>
<g id="Casa_2">
</g>
<g id="Casa_4">
</g>
<g id="Taller_Mecánico_1_">
</g>
<g id="Hospital">
</g>
<g id="Extras">
	<g>
		<g>
			<path fill="none" stroke="#63A34F" stroke-width="8" stroke-miterlimit="10" d="M538.6,123l-64-21.3c-4.1-1.4-7.6-4.1-9.8-7.8
				l-46.4-76.6c-3.3-5.4-9.2-8.8-15.6-8.8H166.7c-5.9,0-11.4,2.8-14.8,7.6L95.2,95.2c-2,2.8-4.8,5-8,6.3L30,124.4
				c-6.9,2.8-11.4,9.4-11.4,16.9v39.8c0,10,8.1,18.2,18.2,18.2l96.5,0.1c3.4,19.7,20.6,34.7,41.4,34.7c20.7,0,37.9-15,41.3-34.7
				l140.9,0.1c3,20.2,20.5,35.7,41.5,35.7c21,0,38.5-15.5,41.5-35.7l92.9,0.1c10.1,0,18.2-8.1,18.2-18.2v-41.3
				C551,132.4,546,125.5,538.6,123z"/>
			<path fill="#63A34F" d="M175.2,253.4L175.2,253.4c-1.2,0-2.1-1-2.1-2.1V235c0-1.2,1-2.1,2.1-2.1l0,0c1.2,0,2.1,1,2.1,2.1v16.2
				C177.3,252.5,176.3,253.4,175.2,253.4z"/>
			<path fill="#63A34F" d="M400.2,255L400.2,255c-1.2,0-2.1-1-2.1-2.1v-16.2c0-1.2,1-2.1,2.1-2.1h0c1.2,0,2.1,1,2.1,2.1v16.2
				C402.3,254,401.4,255,400.2,255z"/>
		</g>
		<g>
			<g>
				<g>
					<g>
						<g>
							<g>
								<g>
									<g>
										<rect x="154.5" y="142.1" fill="#B0B8DD" width="1.3" height="140.8"/>
									</g>
									<g>
										<rect x="84.8" y="211.8" fill="#B0B8DD" width="140.8" height="1.3"/>
									</g>
								</g>
								<g>
									<g>
										
											<rect x="84.8" y="211.8" transform="matrix(0.7071 -0.7071 0.7071 0.7071 -104.7981 171.9775)" fill="#B0B8DD" width="140.8" height="1.3"/>
									</g>
									<g>
										
											<rect x="154.5" y="142.1" transform="matrix(0.7071 -0.7071 0.7071 0.7071 -104.7981 171.9775)" fill="#B0B8DD" width="1.3" height="140.8"/>
									</g>
								</g>
							</g>
							<g>
								<g>
									<g>
										
											<rect x="84.8" y="211.8" transform="matrix(0.3685 -0.9296 0.9296 0.3685 -99.532 278.4566)" fill="#B0B8DD" width="140.8" height="1.3"/>
									</g>
									<g>
										
											<rect x="154.5" y="142.1" transform="matrix(0.3698 -0.9291 0.9291 0.3698 -99.6213 278.1111)" fill="#B0B8DD" width="1.3" height="140.8"/>
									</g>
								</g>
								<g>
									<g>
										
											<rect x="84.8" y="211.8" transform="matrix(0.9184 -0.3958 0.3958 0.9184 -71.425 78.7713)" fill="#B0B8DD" width="140.8" height="1.3"/>
									</g>
									<g>
										
											<rect x="154.5" y="142.1" transform="matrix(0.9185 -0.3955 0.3955 0.9185 -71.3854 78.7044)" fill="#B0B8DD" width="1.3" height="140.8"/>
									</g>
								</g>
							</g>
						</g>
						<g>
							<g>
								<g>
									<g>
										<rect x="405.2" y="142.1" fill="#B0B8DD" width="1.3" height="140.8"/>
									</g>
									<g>
										<rect x="335.5" y="211.8" fill="#B0B8DD" width="140.8" height="1.3"/>
									</g>
								</g>
								<g>
									<g>
										
											<rect x="335.5" y="211.8" transform="matrix(0.7072 -0.707 0.707 0.7072 -31.4063 349.1446)" fill="#B0B8DD" width="140.8" height="1.3"/>
									</g>
									<g>
										
											<rect x="405.2" y="142.1" transform="matrix(0.7071 -0.7071 0.7071 0.7071 -31.3854 349.2112)" fill="#B0B8DD" width="1.3" height="140.8"/>
									</g>
								</g>
							</g>
							<g>
								<g>
									<g>
										
											<rect x="335.5" y="211.8" transform="matrix(0.3685 -0.9296 0.9296 0.3685 58.743 511.4593)" fill="#B0B8DD" width="140.8" height="1.3"/>
									</g>
									<g>
										
											<rect x="405.2" y="142.1" transform="matrix(0.3698 -0.9291 0.9291 0.3698 58.3376 510.9883)" fill="#B0B8DD" width="1.3" height="140.8"/>
									</g>
								</g>
								<g>
									<g>
										
											<rect x="335.5" y="211.8" transform="matrix(0.9186 -0.3952 0.3952 0.9186 -50.9395 177.6966)" fill="#B0B8DD" width="140.8" height="1.3"/>
									</g>
									<g>
										
											<rect x="405.2" y="142.1" transform="matrix(0.9185 -0.3955 0.3955 0.9185 -50.9499 177.8327)" fill="#B0B8DD" width="1.3" height="140.8"/>
									</g>
								</g>
							</g>
						</g>
						<g>
							<path fill="#B6B5B5" d="M412.1,226.4c-0.5,0.2-1,0.5-1.6,0.7l-87.3,26.6c0,0,0,0,0,0c-1.9,0.9-3.9,1.6-6.1,2
								c-14,2.8-27.7-6.4-30.5-20.4c-2.8-14,6.4-27.7,20.4-30.5c2.4-0.5,4.7-0.6,7-0.4l90.2-8.6c0,0,0,0,0,0
								c8.1-0.8,15.7,4.6,17.3,12.8C423.1,216.2,419,223.6,412.1,226.4z M319.4,228.8c-0.8-4-4.7-6.7-8.8-5.9
								c-4,0.8-6.7,4.7-5.9,8.8c0.8,4,4.7,6.7,8.8,5.9C317.6,236.7,320.2,232.8,319.4,228.8z M332.9,245.7l65.9-19.7
								c-4.3-2.1-7.6-6.1-8.6-11.2c-1-5,0.5-9.9,3.6-13.5l-68.3,6.9c6,3.6,10.5,9.7,11.9,17.1C339,232.7,337.1,240,332.9,245.7
								C332.9,245.7,332.9,245.7,332.9,245.7z M324.8,252.8c-0.1,0-0.1,0.1-0.2,0.1C324.7,252.9,324.7,252.9,324.8,252.8z
								 M326.2,252c-0.1,0.1-0.2,0.1-0.3,0.2C326,252.1,326.1,252,326.2,252z M327.4,251.1c-0.1,0.1-0.2,0.1-0.3,0.2
								C327.3,251.3,327.3,251.2,327.4,251.1z M328.6,250.2C328.6,250.2,328.6,250.2,328.6,250.2
								C328.6,250.2,328.6,250.2,328.6,250.2z M330,249c-0.1,0.1-0.2,0.2-0.3,0.3C329.8,249.2,329.9,249.1,330,249z M331.1,247.9
								c-0.1,0.1-0.2,0.2-0.3,0.4C330.8,248.1,331,248,331.1,247.9z M332,246.8c-0.1,0.1-0.2,0.2-0.3,0.3
								C331.8,247,331.9,246.9,332,246.8z M315.6,204.6L315.6,204.6L315.6,204.6z M320.1,205.6C320.1,205.6,320.1,205.6,320.1,205.6
								C320.1,205.6,320.1,205.6,320.1,205.6z M321.6,206.1c-0.1,0-0.1-0.1-0.2-0.1C321.5,206.1,321.6,206.1,321.6,206.1z
								 M323,206.7c-0.1,0-0.1-0.1-0.2-0.1C322.9,206.7,322.9,206.7,323,206.7z"/>
						</g>
						<g>
							<g>
								<g>
									<path fill="#FEFEFE" d="M147.8,211.9c0,4.1,3.3,7.4,7.4,7.4c4.1,0,7.4-3.3,7.4-7.4c0-4.1-3.3-7.4-7.4-7.4
										C151.1,204.5,147.8,207.8,147.8,211.9z"/>
									<g>
										<path fill="#949494" d="M79.1,211.9c0,42,34.1,76.1,76.1,76.1c42,0,76.1-34.1,76.1-76.1c0-42-34.1-76.1-76.1-76.1
											C113.2,135.8,79.1,169.9,79.1,211.9z M90.6,211.9c0-35.7,28.9-64.6,64.6-64.6c35.7,0,64.6,28.9,64.6,64.6
											c0,35.7-28.9,64.6-64.6,64.6C119.5,276.5,90.6,247.6,90.6,211.9z"/>
										<path fill="#FEFEFE" d="M147.4,211.9c0,4.3,3.5,7.8,7.8,7.8c4.3,0,7.8-3.5,7.8-7.8c0-4.3-3.5-7.8-7.8-7.8
											C150.9,204.1,147.4,207.6,147.4,211.9z"/>
									</g>
								</g>
								<path fill="#7B7EB9" d="M152.9,136c43,0.4,77.9,35.3,78.3,78.3c0,3.7,5.8,3.7,5.8,0c-0.4-46.1-37.9-83.6-84-84
									C149.2,130.2,149.2,135.9,152.9,136L152.9,136z"/>
							</g>
							<g>
								<path fill="#FEFEFE" d="M398.5,211.9c0,4.1,3.3,7.4,7.4,7.4c4.1,0,7.4-3.3,7.4-7.4c0-4.1-3.3-7.4-7.4-7.4
									C401.8,204.5,398.5,207.8,398.5,211.9z"/>
								<path fill="#FEFEFE" d="M398,211.9c0,4.3,3.5,7.8,7.8,7.8c4.3,0,7.8-3.5,7.8-7.8c0-4.3-3.5-7.8-7.8-7.8
									C401.5,204.1,398,207.6,398,211.9z"/>
								<path fill="#7B7EB9" d="M408.2,136c-43,0.4-77.9,35.3-78.3,78.3c0,3.7-5.8,3.7-5.8,0c0.4-46.1,37.9-83.6,84-84
									C411.9,130.2,411.9,135.9,408.2,136L408.2,136z"/>
								<path fill="#949494" d="M329.8,211.9c0,42,34.1,76.1,76.1,76.1c42,0,76.1-34.1,76.1-76.1c0-42-34.1-76.1-76.1-76.1
									C363.8,135.8,329.8,169.9,329.8,211.9z M341.2,211.9c0-35.7,28.9-64.6,64.6-64.6c35.7,0,64.6,28.9,64.6,64.6
									c0,35.7-28.9,64.6-64.6,64.6C370.2,276.5,341.2,247.6,341.2,211.9z"/>
							</g>
						</g>
					</g>
					<g>
						<g>
							<g>
								<path fill="#7B7EB9" d="M196,47.5c-1.6,5.9-3.2,11.8-4.7,17.8l-1.9,7.1c-12,45-24,90-35.9,135c-0.3,1.3-0.7,2.5-1,3.8
									c-1,3.6,4.6,5.1,5.6,1.5c14.2-53.3,28.4-106.6,42.5-159.8c0.3-1.3,0.7-2.5,1-3.8C202.5,45.5,196.9,43.9,196,47.5z"/>
							</g>
							<g>
								<g>
									<path fill="#7B7EB9" d="M198.7,50.3c10.5-1.1,20.9-2.1,31.4-3.2c3.7-0.4,3.7-6.1,0-5.8c-10.5,1.1-20.9,2.1-31.4,3.2
										C195,44.9,195,50.7,198.7,50.3L198.7,50.3z"/>
									<path fill="#4A2D5E" d="M213.4,51.2c7.8-0.9,15.6-1.9,23.4-2.8c7.3-0.9,7.4-12.4,0-11.5c-7.8,0.9-15.6,1.9-23.4,2.8
										C206.1,40.6,206,52.1,213.4,51.2L213.4,51.2z"/>
								</g>
								<g>
									<path fill="#7B7EB9" d="M200.9,48.9c4-4.6,7.9-9.3,11.9-13.9c2.4-2.8-1.7-6.9-4.1-4.1c-4,4.6-7.9,9.3-11.9,13.9
										C194.4,47.6,198.5,51.7,200.9,48.9L200.9,48.9z"/>
									<path fill="#4A2D5E" d="M216.2,18.7c-1.4,1.6-10.1,13.1-11.6,14.7c-3.7,4.1,2.1,10.6,5.8,6.4c2.4-2.6,6.4-7.9,8.7-10.6
										C226.4,20.2,219.7,17.1,216.2,18.7z"/>
								</g>
							</g>
						</g>
						<path fill="#7B7EB9" d="M410,209.7c-23-32.4-49.1-64.7-72.2-97.1l-2.3,11.6c20.1,28.2,48.4,59.4,68.5,87.7
							c-26.8,5.1-58.7,7.2-85.4,12.4l-7.1,7.3c30.2-5.8,65.7-9.7,96-15.4c1.6-0.3,2.5-1.2,2.9-2.4C411,212.6,411,211.2,410,209.7z"
							/>
					</g>
				</g>
				<path fill="#7B7EB9" d="M343.1,95.7c-8.7,44.8-17.3,89.5-26,134.3c-0.5,2.7-3.9,3-5.7,1.5c-43.6-37-87.1-74.1-130.7-111.1
					c-2.3-2-0.4-5.8,2.4-5.8c48.9,0,97.7,0,146.6,0c1.2,0,2,0.5,2.6,1.2c1.4-7.3,2.8-14.6,4.2-21.8C337.4,89.6,344,91.4,343.1,95.7z
					 M331.3,121c-0.4,0.2-1,0.4-1.6,0.4c-45.8,0-91.5,0-137.3,0c39.7,33.8,79.5,67.6,119.2,101.4C318.2,188.9,324.8,154.9,331.3,121
					z"/>
			</g>
			<path fill="#4A2D5E" d="M317.9,97.2H359c0,0,12.6-4.1,11.9-14.6l-53,5.6c0,0-4.5,0-4.5,4.1C313.4,96.6,316.2,97.2,317.9,97.2z"/>
			<g>
				<path fill="#7B7EB9" d="M312.5,227c-7.3-0.5-14.6-1-21.9-1.4c-3.7-0.3-3.7,5.5,0,5.8c7.3,0.5,14.6,1,21.9,1.4
					C316.2,233,316.2,227.2,312.5,227L312.5,227z"/>
				<g>
					<polygon fill="#4A2D5E" points="303.3,225.8 278.5,235 276.1,228.5 300.9,219.3 					"/>
					<path fill="#F4F3F3" d="M292.2,226.2c0.5,1.4-0.2,3-1.6,3.5c-1.4,0.5-3-0.2-3.5-1.6c-0.5-1.4,0.2-3,1.6-3.5
						C290.2,224.1,291.7,224.8,292.2,226.2z"/>
				</g>
			</g>
		</g>
		<path fill="none" stroke="#C4C4C4" stroke-width="7" stroke-miterlimit="10" d="M232.9,290.3V212c0-26.7,21.6-48.3,48.3-48.3h0
			c26.7,0,48.3,21.6,48.3,48.3v78.3"/>
		<path fill="none" stroke="#C4C4C4" stroke-width="7" stroke-miterlimit="10" d="M232.9,386.7v-78.3c0-26.7,21.6-48.3,48.3-48.3h0
			c26.7,0,48.3,21.6,48.3,48.3v78.3"/>
		<path fill="none" stroke="#C4C4C4" stroke-width="7" stroke-miterlimit="10" d="M233.2,343.7v-78.3c0-26.7,21.6-48.3,48.3-48.3h0
			c26.7,0,48.3,21.6,48.3,48.3v78.3"/>
		<path fill="none" stroke="#C4C4C4" stroke-width="7" stroke-miterlimit="10" d="M232.9,436.7v-78.3c0-26.7,21.6-48.3,48.3-48.3h0
			c26.7,0,48.3,21.6,48.3,48.3v78.3"/>
		<path fill="none" stroke="#C4C4C4" stroke-width="7" stroke-miterlimit="10" d="M232.9,487.7v-78.3c0-26.7,21.6-48.3,48.3-48.3h0
			c26.7,0,48.3,21.6,48.3,48.3v78.3"/>
		<g>
			<path fill="none" stroke="#63A34F" stroke-width="8" stroke-miterlimit="10" d="M528.5,424.7l-64-21.3c-4.1-1.4-7.6-4.1-9.8-7.8
				L408.3,319c-3.3-5.4-9.2-8.8-15.6-8.8H156.7c-5.9,0-11.4,2.8-14.8,7.6L85.2,397c-2,2.8-4.8,5-8,6.3l-57.2,22.9
				C13,428.9,8.5,435.6,8.5,443v39.8c0,10,8.1,18.2,18.2,18.2l96.5,0.1c3.4,19.7,20.6,34.7,41.4,34.7c20.7,0,37.9-15,41.3-34.7
				l140.9,0.1c3,20.2,20.5,35.7,41.5,35.7c21,0,38.5-15.5,41.5-35.7l92.9,0.1c10.1,0,18.2-8.1,18.2-18.2V442
				C540.9,434.2,535.9,427.2,528.5,424.7z"/>
			<path fill="#63A34F" d="M165.1,555.2L165.1,555.2c-1.2,0-2.1-1-2.1-2.1v-16.2c0-1.2,1-2.1,2.1-2.1l0,0c1.2,0,2.1,1,2.1,2.1V553
				C167.2,554.2,166.3,555.2,165.1,555.2z"/>
			<path fill="#63A34F" d="M390.1,556.7L390.1,556.7c-1.2,0-2.1-1-2.1-2.1v-16.2c0-1.2,1-2.1,2.1-2.1l0,0c1.2,0,2.1,1,2.1,2.1v16.2
				C392.3,555.8,391.3,556.7,390.1,556.7z"/>
		</g>
	</g>
</g>
<g id="Carteles">
</g>
<g id="Locetas">
</g>
<g id="Capa_29">
</g>
<g id="GRID_COMPELTO" display="none">
	<g display="inline" opacity="0.61">
		<g>
			<g opacity="0.28">
				<rect x="-2.7" y="-7.6" fill="none" stroke="#222221" stroke-width="0.9969" stroke-miterlimit="10" width="208" height="104"/>
				
					<rect x="205.3" y="-7.6" fill="none" stroke="#222221" stroke-width="0.9969" stroke-miterlimit="10" width="208" height="104"/>
				
					<rect x="413.3" y="-7.6" fill="none" stroke="#222221" stroke-width="0.9969" stroke-miterlimit="10" width="208" height="104"/>
				<rect x="-2.7" y="96.5" fill="none" stroke="#222221" stroke-width="0.9969" stroke-miterlimit="10" width="208" height="104"/>
				
					<rect x="205.3" y="96.5" fill="none" stroke="#222221" stroke-width="0.9969" stroke-miterlimit="10" width="208" height="104"/>
				
					<rect x="413.3" y="96.5" fill="none" stroke="#222221" stroke-width="0.9969" stroke-miterlimit="10" width="208" height="104"/>
				
					<rect x="-2.7" y="200.5" fill="none" stroke="#222221" stroke-width="0.9969" stroke-miterlimit="10" width="208" height="104"/>
				
					<rect x="205.3" y="200.5" fill="none" stroke="#222221" stroke-width="0.9969" stroke-miterlimit="10" width="208" height="104"/>
				
					<rect x="413.3" y="200.5" fill="none" stroke="#222221" stroke-width="0.9969" stroke-miterlimit="10" width="208" height="104"/>
				
					<rect x="-2.7" y="304.5" fill="none" stroke="#222221" stroke-width="0.9969" stroke-miterlimit="10" width="208" height="104"/>
				
					<rect x="205.3" y="304.5" fill="none" stroke="#222221" stroke-width="0.9969" stroke-miterlimit="10" width="208" height="104"/>
				
					<rect x="413.3" y="304.5" fill="none" stroke="#222221" stroke-width="0.9969" stroke-miterlimit="10" width="208" height="104"/>
				
					<rect x="-2.7" y="408.6" fill="none" stroke="#222221" stroke-width="0.9969" stroke-miterlimit="10" width="208" height="104"/>
				
					<rect x="205.3" y="408.6" fill="none" stroke="#222221" stroke-width="0.9969" stroke-miterlimit="10" width="208" height="104"/>
				
					<rect x="413.3" y="408.6" fill="none" stroke="#222221" stroke-width="0.9969" stroke-miterlimit="10" width="208" height="104"/>
				
					<rect x="-2.7" y="512.6" fill="none" stroke="#222221" stroke-width="0.9969" stroke-miterlimit="10" width="208" height="104"/>
				
					<rect x="205.3" y="512.6" fill="none" stroke="#222221" stroke-width="0.9969" stroke-miterlimit="10" width="208" height="104"/>
				
					<rect x="413.3" y="512.6" fill="none" stroke="#222221" stroke-width="0.9969" stroke-miterlimit="10" width="208" height="104"/>
			</g>
		</g>
	</g>
</g>
</svg>
