<?xml version="1.0" encoding="utf-8"?>
<!-- Generator: Adobe Illustrator 22.0.0, SVG Export Plug-In . SVG Version: 6.00 Build 0)  -->
<svg version="1.1" xmlns="http://www.w3.org/2000/svg" xmlns:xlink="http://www.w3.org/1999/xlink" x="0px" y="0px"
	 viewBox="0 0 129 84.9" enable-background="new 0 0 129 84.9" xml:space="preserve">
<g id="Capa_30">
</g>
<g id="Capa_4">
	<g id="Capa_3" display="none">
	</g>
</g>
<g id="Capa_1">
</g>
<g id="Fondo">
</g>
<g id="Capa_24">
</g>
<g id="VEREDAS_x2A_">
</g>
<g id="PARQUE">
</g>
<g id="PISTAS_x2A_">
</g>
<g id="Capa_20">
</g>
<g id="Edificio_Central_La_Positiva">
</g>
<g id="Edificio_Centro">
</g>
<g id="Caseta">
</g>
<g id="Edificio_Arequipa">
</g>
<g id="Edificio_Feliz">
</g>
<g id="Edificio_Trujillo">
</g>
<g id="Colegio">
</g>
<g id="Casa_1_1_">
</g>
<g id="Casa_3_1_">
</g>
<g id="Casa_2">
</g>
<g id="Casa_4">
</g>
<g id="Taller_Mecánico_1_">
</g>
<g id="Hospital">
</g>
<g id="Extras">
	<g>
		<g>
			<path fill="#D58082" d="M102.6,50.8c-1.2,4.2-7.2,35.9-12.8,24c-1.2-2.5,0.6-24.5,1-24.4c-3.3-0.8-21.5-1.5-22.2-7.3
				c-0.5-3.8,20.1-6.3,23.4-7.6c0.6-6.5-0.5-23.4,3.9-28.1c4.5-4.9,7.6,16.9,8.9,21.3c5.3-2.4,14-9.4,20.1-9
				c8.1,0.6-6,12.9-8.7,15.7c-3.4,3.5-3.8,4-1,8.2c2,3.1,4.7,5.9,6.7,9c1.5,2.4,4.4,7.6,1.5,9.8c-1.6,1.3-7-1.4-8.7-2.1
				c-4.4-2-7.7-6.6-11.8-8.4L102.6,50.8z"/>
			<path fill="#CB5471" d="M96.3,13.2c0,0,0,0.1,0,0.1c0,0,0,0,0,0.1c0-0.1,0-0.1-0.1,0.1c0,0.1-0.1,0.2,0,0.3c0,0,0,0.3,0,0.2
				c-0.1,1,0.9,1.5,1.4,0.6c0.2-0.3,0.3-0.7,0.2-1.1c-0.1-0.3-0.3-0.5-0.4-0.7C96.9,12.5,96.4,12.7,96.3,13.2L96.3,13.2z"/>
			<path fill="#CB5471" d="M97.4,19.5c-0.8,0.1-1.3,0.6-1.5,1.6c-0.2,0.7-0.1,1.7,0.3,2.3c0.3,0.5,0.7,0.9,1.3,0.9
				c0.7,0,1.2-0.6,1.4-1.4c0.2-0.9-0.1-1.8-0.4-2.6c-0.3-0.6-1-0.9-1.5-0.7c-0.5,0.2-1,0.9-0.9,1.6c0,0.2,0,0.3,0,0.5
				c0,0.4,0.1-0.3,0,0c0,0.2,0,0.1,0.1-0.2c0,0,0,0.1-0.1,0.1c0.8-0.2,1.6-0.3,2.3-0.5c0.2,0.3,0.2,0.3,0.1,0.1
				c0.1,0.1,0.1,0.3,0.2,0.4c0-0.1,0-0.2-0.1-0.2c0,0.2,0,0.3,0.1,0.5c0-0.2,0-0.5,0,0.1c0-0.2,0.1-0.5,0.1-0.7c0-0.4-0.1-0.7-0.3-1
				C98.3,19.8,97.8,19.5,97.4,19.5L97.4,19.5z"/>
			<path fill="#CB5471" d="M97,28.7c0,0.1,0,0.1,0.1-0.1c-0.1,0.1,0,0,0.1-0.1c-0.1,0.1,0.3-0.2,0.2-0.1c-0.3,0.1-0.4,0.2-0.6,0.5
				c-0.3,0.4-0.5,1.1-0.3,1.6c0.2,0.5,0.4,0.8,0.6,1.2c0.3,0.4,0.9,0.5,1.3,0.4c0.6-0.2,1-0.9,1-1.7c0-0.1,0-0.4,0,0.2
				c0-0.1,0-0.2,0-0.3c0.1-0.4,0.1-0.8,0.1-1.2c0,0.2,0,0.3,0,0.5c0.1-0.7,0-1.3-0.2-2c-0.4-0.9-1.4-1.3-2.1-1
				c-0.9,0.3-1.3,1.2-1.3,2.3c0,0.3,0.1,0.7,0.2,1c0.3,1.2,1.3,1.8,2.3,1.5c0.5-0.2,0.8-0.6,1.1-1.1c0.2-0.6,0.2-1.1,0.1-1.7
				c0,0,0-0.1,0-0.1c0,0.2,0.1,0.4,0.1,0.6c0-0.1,0-0.2,0-0.3c0,0.2,0,0.4-0.1,0.6c0,0,0-0.1,0-0.1c-0.1,0.3-0.3,0.7-0.4,1
				c0,0,0,0,0,0c-0.3,0.2-0.5,0.4-0.8,0.6c0,0,0,0,0,0c-0.2,0-0.3,0.1-0.5,0.1c0,0,0,0,0.1,0c-0.1,0-0.3,0-0.4-0.1c0,0,0,0,0.1,0
				c-0.3-0.3-0.7-0.6-1-0.9c0,0.1,0.1,0.1,0.1,0.2c-0.1-0.2-0.1-0.3-0.2-0.5c0.2,0.4,0.1,0.9,0.3,1.3c0.7-0.7,1.3-1.3,2-2
				c-0.1-0.1-0.3-0.3,0,0c-0.1-0.1-0.2-0.2-0.4-0.4c-0.1,0-0.2-0.1-0.3-0.1c0.2,0.1,0.3,0.2,0.5,0.3c0.1,0.1,0.2,0.4,0.3,0.5
				c-0.1-0.4-0.3-0.7-0.6-1C97.8,28,97.3,28.2,97,28.7L97,28.7z"/>
			<path fill="#CB5471" d="M97.8,39.1c0,0.1,0,0.2,0,0.3c0-0.1,0-0.1,0,0.1c-0.1,0.4-0.1,0.7,0,1.1c0.1,0.5,0.2,1,0.4,1.4
				c0.7,1.2,2.1,0.9,2.5-0.5c0-0.1,0.1-0.3,0.1-0.4c-0.1,0.4-0.1,0.2,0,0.1c0.1-0.2,0.2-0.4,0.2-0.7c0.1-0.2,0.1-0.5,0.1-0.7
				c0-0.3-0.1,0.5,0,0.2c0-0.1,0-0.2,0-0.3c0.1-1-0.3-2.3-1.3-2.5c-0.4-0.1-0.8-0.1-1.2,0c-0.6,0.2-1.1,0.8-1.3,1.4
				c-0.3,0.8-0.2,1.4-0.1,2.2c0,0.2,0.1,0.7,0-0.2c0,0.3,0.1,0.5,0.1,0.8c0.3,1.8,2.8,2.2,3.4,0.4c0.3-0.8,0.3-1.4,0.1-2.2
				c-0.1-0.4,0.1,0.7,0,0.1c0-0.1,0-0.1,0-0.2c0-0.5-0.3,1.2-0.1,0.7c-0.2,0.3-0.4,0.5-0.6,0.8c0.2-0.1,0.4-0.3,0.5-0.5
				c-0.8,0-1.6,0.1-2.4,0.1c0,0.1,0.1,0.1,0.1,0.2c0.2,0.3-0.1,0.1-0.2-0.5c0,0.2,0,0.1,0-0.3c0,0.1,0,0.4,0-0.3
				c-0.1,0.5-0.1,0.9-0.1,1.4c0.8-0.4,1.5-0.8,2.3-1.3c-0.1-0.1-0.1-0.1,0,0.1c0-0.1-0.1-0.1-0.1-0.2c-0.1-0.2-0.1-0.1,0,0.1
				c-0.1-0.2-0.1-0.4-0.2-0.6c-0.2-0.4-0.7-0.7-1-1C98.5,37.9,97.7,38.4,97.8,39.1L97.8,39.1z"/>
			<path fill="#CB5471" d="M105.5,33.5c0,0.2,0,0.5,0.1,0.7c0,0.4,0.1,0.7,0.2,1.1c0.2,0.8,0.9,1.3,1.6,1c0.7-0.3,1-1.1,0.9-2
				c-0.1-0.3-0.1-0.7-0.3-1c-0.1-0.2-0.2-0.5-0.3-0.7C107.1,31.5,105.4,32.1,105.5,33.5L105.5,33.5z"/>
			<path fill="#CB5471" d="M110.5,29.8c0,0.5,0.1,0.9,0.3,1.3c0.3,0.8,1.2,1.1,1.9,0.9c0.6-0.2,1-0.8,1.1-1.5c0.1-0.6,0-1.2-0.3-1.8
				c-0.4-0.7-1.1-1.1-1.8-0.8C111,28.2,110.5,29,110.5,29.8L110.5,29.8z"/>
			<path fill="#CB5471" d="M120.3,23.4c-0.4,0.1-0.6,0.5-0.8,0.9c-0.1,0.3,0,0.7,0,1c0.1,0.6,0.7,0.9,1.1,0.7
				c0.4-0.2,0.8-0.8,0.6-1.4c0-0.1,0-0.1,0-0.2c0,0,0,0,0-0.1c0.1,0.3,0,0.6-0.2,0.8c0.3-0.2,0.5-0.8,0.4-1.2
				C121.2,23.6,120.7,23.2,120.3,23.4L120.3,23.4z"/>
			<path fill="#CB5471" d="M106.4,44.2c-0.5,0.7-0.7,1.8-0.3,2.6c0.4,0.7,1.2,1.2,1.9,0.9c0.4-0.2,0.6-0.4,0.9-0.7
				c0.1-0.1,0.2-0.2,0.3-0.3c-0.1,0.1-0.2,0.2-0.3,0.3c0.3-0.3,0.4-0.5,0.7-0.9c-0.1,0.1-0.2,0.3-0.3,0.4c0,0,0,0,0-0.1
				c-0.1,0.1-0.2,0.2-0.3,0.3c0,0,0,0,0,0c-0.3,0.1-0.6,0.2-0.8,0.3c0,0,0,0,0,0c-0.4-0.2-0.8-0.4-1.2-0.5c0,0,0,0,0,0
				c0.4,0.5,1,0.7,1.6,0.5c0.3-0.1,0.5-0.3,0.7-0.6c0.3-0.3,0.5-0.9,0.4-1.4c0-0.2,0-0.4-0.1-0.5c-0.1-0.6-0.4-0.9-0.8-1.2
				c-0.4-0.3-0.9-0.3-1.3-0.2c-0.4,0.1-0.7,0.4-0.9,0.7c-0.1,0.2-0.3,0.4-0.4,0.5c0.1-0.1,0.2-0.2,0.3-0.3c0,0,0,0,0,0
				c0.8,0.2,1.6,0.4,2.3,0.7c0,0,0,0,0,0c0,0.7,0,1.4,0.1,2.1c0,0,0,0,0,0c-0.1,0.1-0.2,0.3-0.3,0.4c0,0,0-0.1,0.1-0.1
				c0.6-0.9,0.6-2.1-0.1-2.9C108.1,43.3,107,43.3,106.4,44.2L106.4,44.2z"/>
			<path fill="#CB5471" d="M117.2,55.5c0,0.5,0,0.9,0.2,1.4c0.3,0.7,1.1,0.9,1.6,0.7c0.5-0.2,0.9-0.8,0.9-1.5c0-0.8-0.6-1.6-1.3-1.5
				c0,0-0.1,0-0.1,0c-0.6,0.1,1.2,2.1,1.2,1.4c0,0.5,0,0.3,0,0.2c0-0.1,0-0.2,0-0.2c0.2-0.8-0.3-1.7-1-1.9c-0.3-0.1-0.7,0-1,0.2
				C117.4,54.4,117.2,54.9,117.2,55.5L117.2,55.5z"/>
			<path fill="#CB5471" d="M97.8,50.9C97.8,50.9,97.8,50.9,97.8,50.9c-0.1,0.3-0.1,0.7-0.2,1.1c0,0,0,0,0,0
				c-0.2,0.3-0.4,0.5-0.6,0.8c0,0,0,0,0,0c-0.1,0.1-0.3,0.2-0.4,0.2c0,0,0,0,0,0c-0.2,0-0.3,0.1-0.5,0.1c0,0,0,0,0,0
				c-0.2,0-0.3,0-0.5-0.1c0.1,0,0.1,0,0.2,0.1c-0.1-0.1-0.3-0.1-0.4-0.2c0.3,0.2,0.5,0.3,0.9,0.3c0.3,0,0.7-0.1,0.9-0.3
				c0.3-0.2,0.5-0.5,0.6-0.8c0.2-0.5,0.2-1,0.1-1.6c-0.1-0.8-0.8-1.4-1.5-1.6c-0.5-0.1-1-0.1-1.4,0.3c-0.5,0.5-0.9,1.1-0.8,1.9
				c0,1.2,0.8,2.1,1.8,2.1C97.1,53.1,97.9,52.1,97.8,50.9L97.8,50.9z"/>
			<path fill="#CB5471" d="M95.1,57.4c-0.1,0-0.2,0-0.2,0c-0.8,0-1.3,1-1.1,1.9c0.2,0.9,1.1,1.4,1.8,0.8c0.1-0.1,0.1-0.1,0.2-0.2
				C96.7,59.2,96.2,57.4,95.1,57.4L95.1,57.4z"/>
			<path fill="#CB5471" d="M92.6,67.9c0.3,0.5,0.8,0.7,1.3,0.4c0.6-0.4,0.3-1.5-0.4-1.5c0.2,0,0.4,0.2,0.4,0.6c-0.1-0.6-0.5-1-1-0.9
				C92.5,66.7,92.3,67.4,92.6,67.9L92.6,67.9z"/>
			<path fill="#CB5471" d="M90.5,41.8c0.1,0.2,0.2,0.5,0.4,0.7c0.3,0.3,0.7,0.5,1.1,0.3c0.4-0.1,0.7-0.6,0.7-1c0.1-0.3,0-0.5,0-0.8
				c0-1-0.8-1.7-1.6-1.4C90.4,39.9,90.1,41,90.5,41.8L90.5,41.8z"/>
			<path fill="#CB5471" d="M86.8,40.9C86.8,40.9,86.8,40.9,86.8,40.9c-0.3,0.2-0.4,0.5-0.4,0.9c0,0.1,0,0.2,0,0.3c0,0.1,0,0.1,0,0
				c0,0.1-0.1,0.3,0,0.1c-0.2,0.5-0.1,1.1,0.3,1.4c0.5,0.3,1.1,0,1.2-0.7c0.1-0.5,0-0.9-0.1-1.4c-0.1-0.4-0.4-0.6-0.7-0.7
				C87,40.8,86.9,40.8,86.8,40.9L86.8,40.9z"/>
			<path fill="#CB5471" d="M77.7,42.3c-0.1,0.1-0.1,0.2-0.2,0.3c-0.2,0.3-0.2,0.8,0.1,1c0.3,0.2,0.7,0,0.8-0.4
				c0-0.1,0.1-0.3,0.1-0.4C78.6,42.3,77.9,41.9,77.7,42.3L77.7,42.3z"/>
		</g>
		<g>
			<path fill="#DBA934" d="M33.6,53.3c-3.8,3.4-29,31.5-27.8,13.9C6,63.5,21,41.8,21.4,42.3c-3-3.8-21.8-20.7-19.1-27.5
				c1.7-4.4,25,11.3,29.3,12.8C36.1,21.3,45,2.5,52.4,1.4c7.6-1.2-2,24.7-3.3,30.4c7.1,2.2,20.4,2.6,26.5,8.4
				c8.2,7.8-14.1,8.3-18.6,8.7c-5.7,0.6-6.3,0.8-5.9,7.7c0.3,5,1.5,10.4,1.7,15.5C53,76,53,84,48.6,83.9c-2.5-0.1-6.6-7.7-7.9-10
				c-3.5-6-4.2-13.8-7.5-19.4L33.6,53.3z"/>
			<path fill="#D16D31" d="M49.2,7.9c0,0-0.1,0.1-0.1,0.1c0,0,0,0-0.1,0.1C49.2,8,49.1,8,48.9,8.2c-0.1,0.1-0.2,0.2-0.2,0.3
				c0,0-0.2,0.3-0.1,0.2c-0.7,0.9,0.1,2.4,1.1,1.9c0.4-0.2,0.7-0.5,0.8-1c0.1-0.4,0.1-0.8,0-1.2C50.3,7.7,49.7,7.5,49.2,7.9
				L49.2,7.9z"/>
			<path fill="#D16D31" d="M46.7,15.5c-0.9-0.6-1.8-0.5-2.5,0.3c-0.6,0.6-1.1,1.7-1,2.7c0,0.8,0.3,1.6,0.9,2.1
				c0.7,0.6,1.7,0.5,2.3-0.2c0.8-0.8,1-1.9,1.1-3.1c0.1-0.9-0.5-1.8-1.2-2.1c-0.7-0.3-1.6,0-1.9,0.8c-0.1,0.2-0.2,0.4-0.3,0.6
				c-0.2,0.5,0.2-0.3,0,0c-0.1,0.2-0.1,0.1,0.2-0.1c0,0-0.1,0.1-0.1,0.1c0.9,0.5,1.8,1.1,2.8,1.6c0,0.4,0,0.5,0,0.3
				c0,0.2-0.1,0.4-0.1,0.6c0-0.1,0-0.2,0.1-0.3c-0.1,0.2-0.1,0.4-0.2,0.6c0.1-0.2,0.3-0.5-0.1,0.1c0.2-0.2,0.4-0.4,0.5-0.7
				c0.2-0.4,0.3-0.8,0.3-1.3C47.5,16.6,47.1,15.9,46.7,15.5L46.7,15.5z"/>
			<path fill="#D16D31" d="M40.8,25c-0.1,0.1-0.1,0,0.2-0.1c-0.1,0,0,0,0.2,0c-0.2,0,0.4,0.1,0.2,0.1c-0.3-0.1-0.6-0.1-0.9-0.1
				c-0.6,0.1-1.2,0.7-1.3,1.4c-0.1,0.7-0.1,1.1,0,1.8c0.1,0.7,0.7,1.4,1.2,1.6c0.7,0.3,1.6-0.1,2-0.9c0.1-0.2,0.2-0.4-0.1,0.2
				c0.1-0.1,0.2-0.2,0.3-0.3c0.3-0.4,0.6-0.8,0.8-1.2c-0.1,0.2-0.2,0.3-0.3,0.5c0.6-0.7,0.8-1.3,0.9-2.3c0.2-1.3-0.7-2.6-1.6-2.9
				c-1.1-0.4-2.1,0.2-2.8,1.2c-0.2,0.3-0.3,0.8-0.4,1.2c-0.4,1.5,0.3,3.1,1.5,3.6c0.6,0.2,1.2,0.2,1.8-0.2c0.6-0.4,0.9-0.9,1.2-1.7
				c0,0,0-0.1,0.1-0.1c-0.1,0.2-0.2,0.5-0.3,0.7c0-0.1,0.1-0.2,0.2-0.4c-0.1,0.2-0.3,0.4-0.4,0.6c0,0,0.1-0.1,0.1-0.1
				c-0.4,0.2-0.7,0.4-1.1,0.7c0,0,0,0,0,0c-0.4,0-0.8,0-1.2-0.1c0,0,0,0,0.1,0c-0.2-0.1-0.4-0.2-0.5-0.3c0,0,0.1,0,0.1,0.1
				c-0.1-0.2-0.3-0.3-0.4-0.5c0,0,0,0,0,0.1c-0.2-0.6-0.4-1.2-0.5-1.9c0,0.1,0,0.2,0,0.3c0-0.2,0.1-0.4,0.1-0.7
				c-0.1,0.6-0.4,1.1-0.5,1.6c1.1-0.1,2.2-0.2,3.3-0.3c-0.1-0.1-0.2-0.6,0,0.1c-0.1-0.3-0.1-0.4-0.2-0.7c-0.1-0.1-0.2-0.3-0.2-0.4
				c0.2,0.2,0.3,0.5,0.3,0.8c0.1,0.2,0,0.6,0,0.8c0.1-0.6,0.1-1-0.1-1.6C42,24.9,41.4,24.7,40.8,25L40.8,25z"/>
			<path fill="#D16D31" d="M35.5,36.6c0,0.1-0.1,0.2-0.2,0.3c0.1-0.1,0.1-0.1,0,0.1c-0.3,0.4-0.5,0.7-0.7,1.2
				c-0.2,0.6-0.4,1.2-0.4,1.9c0,1.9,1.7,2.8,2.9,1.7c0.1-0.1,0.2-0.2,0.4-0.3c-0.4,0.4-0.2,0.1-0.1,0.1c0.2-0.2,0.4-0.3,0.6-0.5
				c0.2-0.2,0.3-0.4,0.5-0.7c0.2-0.3-0.4,0.5-0.1,0.2c0.1-0.1,0.2-0.2,0.2-0.3c0.7-1,1.1-2.7,0.2-3.8c-0.4-0.4-0.7-0.8-1.2-1
				c-0.7-0.3-1.6-0.1-2.2,0.3c-0.8,0.6-1.1,1.3-1.5,2.2c-0.1,0.2-0.3,0.8,0.1-0.2c-0.2,0.4-0.2,0.6-0.4,1c-0.7,2.3,1.6,4.8,3.3,3.4
				c0.8-0.6,1.1-1.2,1.5-2.2c0.2-0.4-0.4,0.8-0.1,0.2c0-0.1,0.1-0.1,0.1-0.2c0.3-0.5-1.1,0.9-0.5,0.6c-0.4,0.1-0.8,0.2-1.1,0.3
				c0.3,0,0.6,0,0.9-0.1c-0.9-0.7-1.7-1.4-2.6-2c0,0.1,0,0.2,0,0.3c0.1,0.6-0.2,0.1,0-0.7c-0.1,0.2,0,0.1,0.2-0.4
				c-0.1,0.2-0.3,0.4,0.2-0.3c-0.3,0.5-0.7,0.9-1,1.4c1.1,0.2,2.1,0.5,3.2,0.7c0-0.2,0-0.2,0,0.1c0-0.1,0-0.2,0-0.3
				c0-0.2,0-0.2,0,0.1c0-0.3,0.1-0.6,0.1-0.8c0-0.7-0.3-1.4-0.5-2C36.9,35.9,35.8,35.8,35.5,36.6L35.5,36.6z"/>
			<path fill="#D16D31" d="M46.9,37.5c-0.1,0.3-0.2,0.5-0.4,0.8c-0.2,0.5-0.3,0.9-0.4,1.4c-0.2,1.1,0.2,2.2,1.1,2.5
				c0.9,0.3,1.7-0.3,2.1-1.3c0.1-0.4,0.3-0.8,0.3-1.3c0-0.3,0.1-0.7,0.1-1C49.8,36.9,47.6,36,46.9,37.5L46.9,37.5z"/>
			<path fill="#D16D31" d="M54.4,38.2c-0.3,0.5-0.4,1-0.5,1.6c-0.1,1.1,0.6,2.2,1.5,2.6c0.7,0.3,1.5,0.1,2.1-0.5
				c0.5-0.6,0.7-1.3,0.7-2.1c0-1.1-0.6-2.2-1.4-2.5C55.9,36.8,54.9,37.3,54.4,38.2L54.4,38.2z"/>
			<path fill="#D16D31" d="M68.5,40.1c-0.5-0.2-0.9-0.1-1.3,0.3c-0.3,0.3-0.4,0.7-0.6,1.1c-0.2,0.7,0.2,1.5,0.7,1.8
				c0.6,0.2,1.3-0.2,1.4-0.9c0-0.1,0-0.1,0-0.2c0,0,0-0.1,0-0.1c-0.1,0.4-0.4,0.6-0.7,0.7c0.5,0.1,0.9-0.4,1.1-0.9
				C69.4,41.1,69.1,40.3,68.5,40.1L68.5,40.1z"/>
			<path fill="#D16D31" d="M41.5,49.6c-1,0.3-1.8,1.2-1.9,2.5c0,1.1,0.6,2.4,1.5,2.6c0.5,0.1,0.9,0.1,1.4,0c0.2,0,0.4-0.1,0.5-0.1
				c-0.2,0-0.4,0-0.6,0.1c0.5-0.1,0.7-0.1,1.2-0.3c-0.2,0.1-0.3,0.2-0.5,0.2c0,0,0.1,0,0.1,0c-0.2,0-0.4,0-0.6,0.1c0,0,0,0,0,0
				c-0.4-0.1-0.7-0.3-1.1-0.4c0,0,0,0,0,0c-0.3-0.5-0.6-1.1-0.9-1.6c0,0,0,0,0,0c0.2,0.9,0.7,1.6,1.4,1.9c0.4,0.1,0.7,0.2,1.1,0.1
				c0.5-0.1,1.1-0.5,1.3-1.1c0.1-0.2,0.2-0.4,0.2-0.6c0.2-0.7,0.1-1.3-0.1-2c-0.2-0.7-0.8-1.1-1.3-1.3c-0.4-0.2-0.9-0.2-1.4-0.1
				c-0.3,0-0.5,0.1-0.8,0.2c0.2,0,0.4,0,0.6-0.1c0,0,0,0,0,0c0.7,0.9,1.4,1.8,2.1,2.8c0,0,0,0,0,0c-0.4,0.8-0.8,1.5-1.2,2.3
				c0,0,0,0,0,0c-0.2,0.1-0.3,0.2-0.5,0.2c0,0,0.1,0,0.1-0.1c1.1-0.4,1.9-1.7,1.6-3.2C43.8,50.2,42.7,49.3,41.5,49.6L41.5,49.6z"/>
			<path fill="#D16D31" d="M46.3,71.7c-0.3,0.4-0.4,0.8-0.5,1.4c-0.1,0.9,0.5,1.6,1.2,1.9c0.6,0.2,1.2-0.1,1.6-0.7
				c0.4-0.7,0.3-2-0.4-2.4c0,0-0.1,0-0.1,0c-0.6-0.4,0,2.8,0.4,2.1c-0.2,0.4-0.2,0.3-0.1,0.2c0.1-0.1,0.1-0.1,0.2-0.2
				c0.6-0.6,0.6-1.8,0.1-2.5c-0.3-0.4-0.6-0.6-1-0.6C47,70.9,46.6,71.2,46.3,71.7L46.3,71.7z"/>
			<path fill="#D16D31" d="M43.8,61.8c-0.3,0.5-0.5,0.9-0.6,1.6c-0.1,1,0.6,1.9,1.3,2.2c0.7,0.3,1.4-0.1,1.8-0.8
				c0.4-0.8,0.3-2.3-0.5-2.7c0,0-0.1,0-0.1-0.1c-0.7-0.5,0,3.3,0.4,2.5c-0.3,0.5-0.2,0.3-0.1,0.2c0.1-0.1,0.1-0.1,0.2-0.2
				c0.7-0.7,0.7-2.1,0.1-2.9c-0.3-0.4-0.7-0.7-1.2-0.7C44.6,60.9,44.2,61.3,43.8,61.8L43.8,61.8z"/>
			<path fill="#D16D31" d="M28.5,49.2C28.5,49.2,28.5,49.1,28.5,49.2c-0.3,0.3-0.6,0.6-0.8,0.9c0,0,0,0,0,0
				c-0.4,0.1-0.8,0.2-1.1,0.3c0,0,0,0,0,0c-0.2,0-0.4-0.1-0.6-0.1c0,0,0,0,0,0c-0.2-0.1-0.4-0.2-0.5-0.3c0,0,0,0,0,0
				c-0.1-0.2-0.3-0.3-0.4-0.5c0.1,0.1,0.1,0.1,0.1,0.2c-0.1-0.2-0.2-0.4-0.3-0.6c0.3,0.5,0.4,0.8,0.8,1.1c0.3,0.2,0.8,0.5,1.2,0.4
				c0.4,0,0.8-0.1,1.1-0.3c0.6-0.4,0.8-0.9,1.1-1.6c0.4-1,0-2.3-0.6-3c-0.4-0.5-1-1-1.6-1c-0.8,0-1.6,0.4-2,1.3
				c-0.7,1.3-0.4,3,0.7,3.8C26.4,50.8,27.8,50.4,28.5,49.2L28.5,49.2z"/>
			<path fill="#D16D31" d="M21.7,53.5c-0.1-0.1-0.2-0.1-0.3-0.2c-0.8-0.7-2-0.1-2.3,1c-0.3,1.1,0.4,2.5,1.4,2.5c0.1,0,0.2,0,0.3,0
				C22.3,56.8,22.9,54.5,21.7,53.5L21.7,53.5z"/>
			<path fill="#D16D31" d="M12.8,62.3c0,0.8,0.4,1.5,1.1,1.6c0.8,0.1,1.2-1.3,0.5-1.9c0.2,0.1,0.3,0.5,0.1,1
				c0.3-0.7,0.1-1.5-0.5-1.8C13.5,61,12.8,61.6,12.8,62.3L12.8,62.3z"/>
			<path fill="#D16D31" d="M26.2,33c0,0.3,0,0.7,0,1c0.1,0.6,0.5,1.1,0.9,1.3c0.5,0.2,1,0,1.4-0.4c0.2-0.2,0.3-0.5,0.5-0.8
				c0.6-1,0.1-2.5-0.8-2.8S26.2,31.8,26.2,33L26.2,33z"/>
			<path fill="#D16D31" d="M22.8,28.7c0,0-0.1,0-0.1,0c-0.3,0-0.7,0.2-0.8,0.5c-0.1,0.1-0.1,0.2-0.2,0.4c-0.1,0.1-0.1,0.1,0,0
				c0,0.1-0.3,0.2,0,0.1c-0.5,0.4-0.7,1.1-0.5,1.8c0.3,0.7,1.2,1,1.7,0.4c0.4-0.4,0.6-1,0.7-1.6c0.1-0.5,0-1-0.4-1.3
				C23.1,28.7,22.9,28.7,22.8,28.7L22.8,28.7z"/>
			<path fill="#D16D31" d="M12.3,22.1c-0.1,0-0.3,0.1-0.4,0.1c-0.4,0.1-0.7,0.7-0.5,1.2c0.2,0.5,0.7,0.6,1.1,0.2
				c0.1-0.1,0.2-0.2,0.3-0.3C13.2,22.9,12.8,21.9,12.3,22.1L12.3,22.1z"/>
		</g>
	</g>
</g>
<g id="Carteles">
</g>
<g id="Locetas">
</g>
<g id="Capa_29">
</g>
<g id="GRID_COMPELTO" display="none">
	<g display="inline" opacity="0.61">
		<g>
			<g opacity="0.28">
				
					<rect x="-78.1" y="-40.6" fill="none" stroke="#222221" stroke-width="0.9969" stroke-miterlimit="10" width="208" height="104"/>
				
					<rect x="-78.1" y="63.5" fill="none" stroke="#222221" stroke-width="0.9969" stroke-miterlimit="10" width="208" height="104"/>
			</g>
		</g>
	</g>
</g>
</svg>
