<?xml version="1.0" encoding="utf-8"?>
<!-- Generator: Adobe Illustrator 18.0.0, SVG Export Plug-In . SVG Version: 6.00 Build 0)  -->
<!DOCTYPE svg PUBLIC "-//W3C//DTD SVG 1.1//EN" "http://www.w3.org/Graphics/SVG/1.1/DTD/svg11.dtd">
<svg version="1.1" id="Capa_1" xmlns="http://www.w3.org/2000/svg" xmlns:xlink="http://www.w3.org/1999/xlink" x="0px" y="0px"
	 viewBox="0 0 263.3 520" enable-background="new 0 0 263.3 520" xml:space="preserve">
<ellipse opacity="0.29" fill="#44B8B8" cx="141.1" cy="487.9" rx="105.3" ry="20.3"/>
<g>
	<polygon fill="#45B7B7" points="128.8,318.7 171.5,460.1 182.3,458.8 163.3,320.8 	"/>
	<g opacity="0.41">
		<polygon fill="#45B7B7" points="176.8,459.2 182.5,458.5 163.6,320.5 129.9,320.2 153.8,326.4 		"/>
	</g>
	<polygon fill="#45B7B7" points="91.3,319.1 94.7,460.5 108.5,463.1 135.7,310.5 	"/>
	<path fill="#DDB592" d="M83.2,201.7c0,0-21.4,24.6-31.2,22.9c-11.8-2-27.2-38.8-27.2-38.8l-3,4.3c0,0,13.1,45.4,27.8,48.9
		c12.4,3,41.2-24.8,41.2-24.8L83.2,201.7z"/>
	<g>
		<path fill="#E3B82E" d="M83.2,201.7c-5.1,6.9,16.2,27.1,11.5,66.1c-1.3,10.4-3.4,51.3-3.4,51.3l73.7,2.6c0,0-16.2-50.3-16-60.4
			c0.7-32.5,11.4-53.9,5-60.6C139,184.9,97.6,182.3,83.2,201.7z"/>
		<path fill="#99846B" d="M94.4,265.8c0,0,8.9,6.8,19.9,7c15.4,0.4,34.7-9.2,34.7-9.2l1.4,7.3c0,0-26.7,6.7-36.1,6.6
			c-9.3-0.1-20.3-5.3-20.3-5.3L94.4,265.8z"/>
		<path fill="#D7AA31" d="M136.4,196.3c0,4.9-6.7,10.2-16.6,10.2s-19.1-5.3-19.1-10.2s8-8.8,17.8-8.8S136.4,191.5,136.4,196.3z"/>
		<path fill="#DDB592" d="M107.8,173.8c0,0,3.1,11.5,0.6,15.3c-2.5,3.8-3.6,10.6,3.2,12.4c3.8,1,18.9,2.1,20-4.5
			c0.7-4.6-0.8-3.4-3-7.7c-2.2-4.4-1.3-15.3-1.3-15.3H107.8z"/>
		<g opacity="0.19">
			<path fill="#DDB592" d="M128.6,189.6c-2.2-4.4-1.3-15.3-1.3-15.3h-19.6c0,0,0.5,2,1,4.5h13.4c0,0-0.9,11,1.3,15.3
				c2.2,4.4,3.7,3.1,3,7.7c2.7-0.8,4.8-2.1,5.2-4.5C132.3,192.7,130.8,193.9,128.6,189.6z"/>
		</g>
		<g>
			<g>
				<g>
					<g>
						<circle fill="#726857" cx="78.4" cy="48.8" r="23.5"/>
						<circle fill="#726857" cx="58.5" cy="64.6" r="20.3"/>
						<circle fill="#726857" cx="53.9" cy="94.7" r="23.5"/>
					</g>
				</g>
				<circle fill="#DDB592" cx="115" cy="119.7" r="61"/>
				<polygon fill="#C59E81" points="102.3,124.5 97.4,136.3 106.6,137.6 				"/>
				<circle cx="80.8" cy="105.5" r="5"/>
				<circle cx="133.1" cy="109.8" r="5"/>
				<g>
					<g>
						
							<ellipse transform="matrix(0.9969 7.899666e-002 -7.899666e-002 0.9969 8.2366 -5.451)" opacity="0.47" fill="#FFFFFF" cx="73" cy="101.4" rx="21.2" ry="17.7"/>
						<path fill="#878787" d="M73.5,123.1c-0.8,0-1.5,0-2.3-0.1c-6.6-0.5-12.6-3.2-16.9-7.6c-4.5-4.5-6.7-10.2-6.2-16.1
							c1-12,12.6-20.9,26.6-19.8c6.6,0.5,12.6,3.2,16.9,7.6c4.5,4.5,6.7,10.2,6.2,16.1C96.9,114.6,86.4,123.1,73.5,123.1z M72.4,85
							c-9.8,0-18,6.5-18.7,14.7c-0.3,4.2,1.3,8.4,4.6,11.7c3.4,3.4,8.1,5.5,13.4,6c10.6,0.8,19.8-5.9,20.5-14.6
							c0.3-4.2-1.3-8.4-4.6-11.7c-3.4-3.4-8.1-5.5-13.4-6C73.6,85.1,73,85,72.4,85z"/>
					</g>
					<g>
						
							<ellipse transform="matrix(0.9969 7.899666e-002 -7.899666e-002 0.9969 9.0841 -10.5129)" opacity="0.47" fill="#FFFFFF" cx="137.4" cy="109.6" rx="21.2" ry="17.7"/>
						<path fill="#878787" d="M137.9,131.3c-0.8,0-1.5,0-2.3-0.1c-13.7-1.1-24.1-11.7-23.1-23.7c1-12,12.6-20.9,26.6-19.8
							c13.7,1.1,24.1,11.7,23.1,23.7C161.3,122.8,150.8,131.3,137.9,131.3z M136.8,93.2c-9.8,0-18,6.5-18.7,14.7
							c-0.7,8.9,7.3,16.8,17.9,17.7c10.6,0.8,19.8-5.9,20.5-14.6c0.7-8.9-7.3-16.8-17.9-17.7C138,93.2,137.4,93.2,136.8,93.2z"/>
					</g>
					<g>
						<line fill="#DDB592" x1="160.8" y1="110.9" x2="178.1" y2="113.6"/>
						
							<rect x="160.7" y="109.4" transform="matrix(0.9879 0.1551 -0.1551 0.9879 19.463 -24.9293)" fill="#878787" width="17.6" height="5.6"/>
					</g>
					<g>
						
							<rect x="94.4" y="103.2" transform="matrix(0.9969 7.899666e-002 -7.899666e-002 0.9969 8.7239 -7.9228)" fill="#DDB592" width="20.3" height="6.3"/>
						<path fill="#878787" d="M116.9,113.3l-25.8-2l0.9-11.9l25.8,2L116.9,113.3z M97.2,106l14.6,1.2l0.1-0.6l-14.6-1.2L97.2,106z"
							/>
					</g>
				</g>
				<path fill="#726857" d="M147.2,85.2c-0.4-0.1-0.8-0.2-1.1-0.6c-4-4.6-8.4-2.1-8.6-2c-0.8,0.5-1.9,0.2-2.4-0.6
					c-0.5-0.8-0.2-1.9,0.6-2.4c2.4-1.5,8.2-2.8,13,2.7c0.6,0.7,0.5,1.8-0.2,2.4C148.1,85.1,147.6,85.3,147.2,85.2z"/>
				<path fill="#726857" d="M86.7,78.7c-0.4,0-0.8-0.2-1.1-0.4c-4.6-4.1-8.6-1-8.8-0.9c-0.7,0.6-1.8,0.5-2.4-0.3
					c-0.6-0.7-0.5-1.8,0.3-2.4c2.2-1.7,7.8-3.8,13.2,1c0.7,0.6,0.8,1.7,0.1,2.4C87.6,78.5,87.2,78.7,86.7,78.7z"/>
				<g>
					<g>
						<circle fill="#726857" cx="133.9" cy="44.3" r="31.7"/>
						<circle fill="#726857" cx="165.1" cy="68.6" r="20.3"/>
						<circle fill="#726857" cx="176.9" cy="102" r="20.3"/>
						<circle fill="#726857" cx="99.9" cy="53.8" r="20.3"/>
						<circle fill="#726857" cx="104" cy="34.3" r="23.5"/>
						<circle fill="#726857" cx="171.1" cy="51.7" r="23.5"/>
						<circle fill="#726857" cx="181.4" cy="73.1" r="23.5"/>
					</g>
				</g>
				<circle fill="#DDB592" cx="178.4" cy="128.2" r="12.8"/>
				<g opacity="0.1">
					<path fill="#DDB592" d="M189.1,120c-0.2,6.9-5.9,12.4-12.8,12.4c-2.1,0-4-0.5-5.8-1.4c-8.2,23.9-30.9,41.1-57.6,41.1
						c-25.7,0-47.8-16-56.7-38.5c6.4,26.8,30.5,46.7,59.3,46.7c26.7,0,49.4-17.2,57.6-41.1c1.7,0.9,3.7,1.4,5.8,1.4
						c7.1,0,12.8-5.7,12.8-12.8C191.7,124.8,190.7,122.2,189.1,120z"/>
				</g>
				<path fill="#C59E81" d="M122.4,153.3c-1.4,0-2.3-0.1-2.4-0.1c-0.5-0.1-0.9-0.5-0.8-1c0.1-0.5,0.5-0.9,1-0.8
					c0.1,0,7.5,0.8,12.5-2.5c0.4-0.3,1-0.2,1.3,0.3c0.3,0.4,0.2,1-0.3,1.3C130,152.9,125.2,153.3,122.4,153.3z"/>
				<path opacity="0.11" fill="#726857" d="M175.6,35.3c0,0,14.5,2.3,13.6,9.8c-0.8,7.5-2.5,9.4-2.5,9.4s11.3,4,13.7,12
					c1.3,4.2,1.8,20.8-9.7,22.3c-3.3,0.4,3.6,15,1.3,16.7c-2.3,1.6-11.1-2.7-7.5-20.9c0.7-3.5,6.7-3.7,6.4-8.2
					c-0.5-6.6-2.3-7.9-10.8-11.1c-4.5-1.7-9-9.2-5.2-12.6c3.8-3.4,2.6-6.5-0.7-8.5S164.7,36.4,175.6,35.3z"/>
			</g>
			<path opacity="0.23" fill="#DDB592" d="M181.8,123.9c-3.3-1.3-7.1,1.4-7.1,1.4s1.7,0,3.4,0.2c0.8,3.5-2.1,7.8-2.1,7.8
				s5.5-3.9,5.2-7.2c0.5,0.2,0.7,0.6,1,0.7C183.8,128,185.2,125.2,181.8,123.9z"/>
		</g>
		<circle fill="#D7AA31" cx="180.2" cy="139" r="4.2"/>
		<g opacity="0.28">
			<path fill="#E3B82E" d="M130.3,189.4c12.4,2.2,19.2,7.1,23.2,11.3c6.4,6.7-4.3,28.2-5,60.6c-0.2,10.1,16,60.4,16,60.4l-12.4-0.4
				c-2.3-7.1-15.8-50.1-15.6-59.4c0.7-32.5,11.4-53.9,5-60.6c-1.5-1.6-2.7-3.2-4.7-4.5c0,0,0.2-1.5-0.9-3.3
				C135,191.9,130.3,189.4,130.3,189.4z"/>
		</g>
	</g>
	<path fill="#DDB592" d="M148.4,202.8c2.5-1.3,5.7-0.3,6.9,2.3c5.3,11.2,17.2,38.9,7.6,47.5c-8.2,7.3-31.4-7.9-31.4-7.9l-0.1-5.9
		c0,0,20.6,9.2,24.6,5.6c5.7-5.3-4.6-25.6-9.7-34.6C144.9,207.3,145.9,204.1,148.4,202.8L148.4,202.8z"/>
	<path fill="#DDB592" d="M21.9,190.2c-0.3-0.1-3.4-1.3-5.3-2c-1-0.4-1.5-1.4-1.4-2.4l1.1-5.7c0,0-4.7-6.4-4.7-7.1
		c0.1-0.9,7.5,4.2,9.3,6.3c1.3,1.4,4,6.6,4,6.6L21.9,190.2z"/>
	<g>
		<path fill="#EC6C4C" d="M128.2,258.9h-27c-1,0-1.9-0.8-1.9-1.9v-40.7c0-1,0.8-1.9,1.9-1.9h27c1,0,1.9,0.8,1.9,1.9V257
			C130.1,258,129.2,258.9,128.2,258.9z"/>
		<circle fill="#D35C44" cx="115.1" cy="228.4" r="7.1"/>
		<path fill="#D35C44" d="M123.8,217.1h-17.2c-0.7,0-1.2-0.5-1.2-1.2v-1.3H125v1.3C125,216.6,124.4,217.1,123.8,217.1z"/>
	</g>
	<path fill="#DDB592" d="M128.4,243.7l-6.1-1.4c-0.9-0.2-1.5-1-1.4-1.9l0.7-5.7c0.1-1.1,1.3-1.8,2.4-1.4l5.8,2.3v-1.8l4.6,5.9l-3,5
		L128.4,243.7z"/>
	<polygon fill="#DDB592" points="96.2,460.9 97.9,476.7 103.4,477.5 107.2,462.9 	"/>
	<polygon fill="#DDB592" points="172.5,460.1 176.4,474.9 181.8,473.3 181.1,458.9 	"/>
	<polygon fill="#E3B82E" points="97.9,476.7 78.6,489 104.5,485.5 103.4,477.5 	"/>
	<polygon fill="#E3B82E" points="176.4,474.9 177.1,486.4 207.9,488.1 181.8,473.3 	"/>
	<path fill="none" stroke="#B9A241" stroke-miterlimit="10" d="M117.7,279h-7.4c-0.4,0-0.7-0.3-0.7-0.7V272c0-0.4,0.3-0.7,0.7-0.7
		h7.4c0.4,0,0.7,0.3,0.7,0.7v6.2C118.4,278.7,118.1,279,117.7,279z"/>
	<circle opacity="0.4" fill="#8C7F64" cx="114.9" cy="275.1" r="1.2"/>
	<path fill="#E3B82E" d="M118,275.7h-2.9c-0.2,0-0.4-0.2-0.4-0.4v-0.5c0-0.2,0.2-0.4,0.4-0.4h2.9c0.2,0,0.4,0.2,0.4,0.4v0.5
		C118.4,275.6,118.2,275.7,118,275.7z"/>
</g>
</svg>
