<?xml version="1.0" encoding="utf-8"?>
<!-- Generator: Adobe Illustrator 18.0.0, SVG Export Plug-In . SVG Version: 6.00 Build 0)  -->
<!DOCTYPE svg PUBLIC "-//W3C//DTD SVG 1.1//EN" "http://www.w3.org/Graphics/SVG/1.1/DTD/svg11.dtd">
<svg version="1.1" xmlns="http://www.w3.org/2000/svg" xmlns:xlink="http://www.w3.org/1999/xlink" x="0px" y="0px"
	 viewBox="0 0 600 700" enable-background="new 0 0 600 700" xml:space="preserve">
<g id="Capa_1">
</g>
<g id="Capa_2">
	<g>
		<g>
			<path fill="#E1E1E1" d="M458.7,358.9l-330.2,2.2l-28.3,37.6h443.6L458.7,358.9z M193.8,385.2l-18.7-19h231.5l33.6,19H193.8z"/>
		</g>
		<path fill="#888888" d="M97.8,117.7c-0.2,0-0.3,0-0.5-0.1c-0.6-0.3-0.8-1.2-0.5-1.9l20.5-55.9c0.3-0.7,0.9-1,1.5-0.7
			c0.6,0.3,0.8,1.2,0.5,1.9l-20.5,55.9C98.6,117.4,98.2,117.7,97.8,117.7z"/>
		<path fill="#888888" d="M131.4,123c-0.2,0-0.3,0-0.5-0.1c-0.6-0.3-0.8-1.1-0.5-1.8l22.5-57.3c0.3-0.7,1-1.1,1.5-0.9
			c0.6,0.3,0.8,1.1,0.5,1.8l-22.5,57.3C132.2,122.6,131.8,123,131.4,123z"/>
		<path fill="#888888" d="M533.1,124.8c0.2,0,0.3,0,0.5-0.1c0.6-0.3,0.8-1.2,0.5-1.9l-20.5-55.9c-0.3-0.7-0.9-1-1.5-0.7
			c-0.6,0.3-0.8,1.2-0.5,1.9l20.5,55.9C532.3,124.5,532.7,124.8,533.1,124.8z"/>
		<path fill="#888888" d="M499.5,130c0.2,0,0.3,0,0.5-0.1c0.6-0.3,0.8-1.1,0.5-1.8l-22.5-57.3c-0.3-0.7-1-1.1-1.5-0.9
			c-0.6,0.3-0.8,1.1-0.5,1.8l22.5,57.3C498.7,129.6,499.1,130,499.5,130z"/>
		<rect x="443.7" y="148.9" fill="#C6C5C6" width="12.3" height="219.5"/>
		<rect x="100.3" y="404" fill="#EC6C4B" width="437.5" height="196.4"/>
		<path fill="#E56349" d="M445.9,600c0,0-36.8,10.3-96.1,11c-83.4,0.9-160-10.9-151-11l0-196h247.1V600z"/>
		<rect x="100.2" y="398.3" fill="#A5A4A4" width="98.7" height="9.1"/>
		<rect x="445.1" y="398.3" fill="#A5A4A4" width="98.7" height="9.1"/>
		<rect x="198.2" y="398.2" fill="#AFAFAF" width="248.5" height="9.1"/>
		<rect x="115.6" y="174.6" fill="#D7D6D6" width="12.3" height="219.5"/>
		<rect x="497.5" y="173.5" fill="#D7D6D6" width="12.3" height="219.5"/>
		<path fill="#888888" d="M531.5,142.3c-0.3,0-0.7-0.2-0.9-0.4l-36.8-48c-0.4-0.5-0.3-1.2,0.2-1.6c0.5-0.4,1.2-0.3,1.6,0.2l36.8,48
			c0.4,0.5,0.3,1.2-0.2,1.6C532,142.2,531.7,142.3,531.5,142.3z"/>
		<g>
			<path fill="#C6C5C6" d="M147.7,369.8h-0.3c-3.3,0-6-2.7-6-6V156.3c0-3.3,2.7-6,6-6h0.3c3.3,0,6,2.7,6,6v207.5
				C153.7,367.2,151,369.8,147.7,369.8z"/>
			<path fill="#B7B7B6" d="M152.3,370.8h-9.9c-1.1,0-2-0.9-2-2v-32h13.8v32C154.2,369.9,153.4,370.8,152.3,370.8z"/>
		</g>
		<path fill="#BFBEBE" d="M126.6,395h-9.9c-1.1,0-2-0.9-2-2v-32h13.8v32C128.5,394.1,127.7,395,126.6,395z"/>
		<path fill="#B7B7B6" d="M454.7,369.2h-9.9c-1.1,0-2-0.9-2-2v-32h13.8v32C456.7,368.3,455.8,369.2,454.7,369.2z"/>
		<path fill="#BFBEBE" d="M508.4,393.8h-9.9c-1.1,0-2-0.9-2-2v-32h13.8v32C510.4,393,509.5,393.8,508.4,393.8z"/>
		<g>
			<path fill="#FFFFFF" d="M264.6,502.7c20,8.6,41.1,11.9,62.6,13.5c27.9,2.1,55.6,0.7,83.2-3.2c0.8-0.1,1.6-0.2,2.8-0.3
				c-1,4.8-2,9.5-3,14.1c-0.4,1.6-1.8,1.2-2.9,1.3c-14.4,0.5-28.8,0.6-43.2-0.3c-24.7-1.5-49-5-72.6-12.6c-9.6-3.1-18.9-6.6-27.5-12
				C264,502.8,264.3,502.8,264.6,502.7z"/>
			<path fill="#FFFFFF" d="M402.9,473.2c0.2-2.6,1.6-3.5,3.6-3.6c2.6-0.2,5.2-0.7,7.8-0.2c2.7,0.5,3.6,1.9,2.8,4.4
				c-1.3,3.9-2.7,7.7-4.2,11.5c-1,2.5-3.2,0.9-5.1,1.2c1-2.8,1.9-5.3,3-8.3c-2.4,0.7-4.3,1.1-6.2,1.8c-1.3,0.5-2.7,1.3-2.3,2.9
				c0.3,1.5,1.8,1.2,3,1.2c0.4,0,0.9,0.1,1.5,0.1c-0.4,1.6-1,2.7-2.9,2.7c-2.2,0-4.8,0.5-6.2-1.8c-0.9-1.6-0.3-3.4,0.7-4.8
				c1.4-1.9,3.4-2.7,5.5-3.2c2.3-0.6,4.6-1.1,6.8-1.8c0.9-0.3,1.7-0.9,1.5-2c-0.2-1.2-1.3-1.1-2.1-1.2
				C407.7,471.8,405.4,472.4,402.9,473.2z"/>
			<path fill="#FFFFFF" d="M279.8,483.9c-1.6,3.1-6.7,4-8.9,1.9c-1.3-1.3-1.1-3.8,0.4-5.7c1.4-1.8,3.5-2.5,5.6-3.1c2-0.5,4-1,6-1.6
				c1.1-0.3,2.2-0.9,2.1-2.2c-0.2-1.4-1.6-1.2-2.6-1.3c-2.3-0.1-4.4,0.7-6.7,1.1c0.2-2.3,1.4-3.3,3.5-3.6c2.5-0.2,5-0.6,7.6-0.2
				c3,0.4,4,1.9,3,4.7c-1.3,3.7-2.6,7.3-4,11c-0.5,1.2-3.5,2.1-4.6,1.3c-0.8-0.5-0.2-1.1,0-1.7c0.7-2,1.5-4.1,2.4-6.5
				c-2.4,0.7-4.4,1.3-6.4,2c-1.2,0.4-2.5,1.2-2.2,2.7c0.3,1.8,1.9,1.2,3.1,1.2C278.6,484.1,279.1,484,279.8,483.9z"/>
			<path fill="#FFFFFF" d="M268.8,482.8c-0.1,2.8-1.2,3.9-3.9,3.8c-4.3-0.3-8.7,0.1-13.1-0.3c2.6-7.2,5.1-14.4,7.8-21.4
				c0.9-2.2,3.3-1.1,4.8-0.8c1.5,0.2,0.2,1.6-0.1,2.4c-1.7,4.9-3.4,9.7-5.3,14.5c-0.6,1.6-0.3,2.1,1.4,2
				C263.3,482.7,266,482.8,268.8,482.8z"/>
			<path fill="#FFFFFF" d="M388.3,481.1c2-2.9,4.3-5.6,6.1-8.6c1.6-2.8,3.7-3.6,6.7-2.8c0.3,0.8-0.4,1.1-0.7,1.6
				c-3.5,4.5-6.9,9.1-10.4,13.6c-1,1.3-4.4,2.1-5.8,1.5c-0.8-0.4-0.7-1-0.7-1.6c-0.2-4.6-0.4-9.2-0.7-13.8c-0.1-1.5,0.6-1.8,1.7-1.5
				c1.1,0.3,3.2-1.3,3.2,1.4c0,3.3,0,6.7,0,10C387.9,481,388.1,481.1,388.3,481.1z"/>
			<path fill="#FFFFFD" d="M370.6,483.3c-1.5,3.4-4.5,4.7-7.8,3.4c-1.7-0.6-2-2-1.4-3.6c1-2.8,2-5.6,3-8.4c0.2-0.6,1-1.5-0.2-1.7
				c-1-0.2-1.5-0.5-1-1.6c0.4-0.9,0.4-2,1.9-1.9c0.6,0.1,1.4,0.1,1.6-0.7c0.6-3.2,3.3-2.7,5.7-3.3c-0.2,0.8-0.3,1.3-0.5,1.7
				c-0.8,1.7-0.6,2.5,1.5,2.3c0.6-0.1,1.8-0.4,1.6,0.7c-0.2,1.1-0.2,2.6-1.9,2.9c-1.2,0.2-2.8-1-3.4,0.6c-1.2,2.7-2.8,5.5-2.8,8.4
				C366.9,484.4,369.2,482.6,370.6,483.3z"/>
			<path fill="#FFFFFF" d="M349.2,469.4c0.7,0,1.5,0,2.3,0.2c0.9,0.3,2.5-0.3,2,1.8c-0.4,1.7-0.9,2.2-2.5,1.5
				c-0.7-0.3-1.6-0.2-2.4-0.1c-0.9,0-1.8,0.3-2.3,1.2c-0.5,1,0.2,1.7,0.8,2.4c1.8,1.9,4,3.7,2.7,6.8c-1.4,3.2-4.4,3.8-7.4,4.1
				c-1.4,0.1-2.9-0.2-4.3-0.3c-1.8-0.1-1.6-1.2-1.4-2.5c0.3-1.6,1-1.5,2.3-1c0.8,0.4,1.7,0.6,2.6,0.6c1.2,0,2.4-0.3,3-1.5
				c0.6-1.1-0.2-1.9-0.9-2.6c-1.8-1.9-4-3.7-2.5-6.8C342.8,469.9,345.8,469.4,349.2,469.4z"/>
			<path fill="#FFFFFF" d="M382,469.4c-1.9,5.4-3.6,10.5-5.4,15.6c-0.4,1.2-4.2,2.1-5.1,1.2c-0.5-0.5-0.2-1,0-1.5
				c1.7-4.7,3.4-9.3,5.1-14c0.4-1,0.9-1.5,1.9-1.4C379.6,469.5,380.7,469.4,382,469.4z"/>
			<path fill="#FFFFFF" d="M362,469.4c-1.9,5.4-3.6,10.5-5.4,15.6c-0.4,1.1-4.4,2-5.2,1.2c-0.6-0.6,0-1.2,0.2-1.7
				c1.5-4.3,3.2-8.6,4.6-13c0.5-1.7,1.4-2.4,3.1-2.1C360.1,469.5,360.9,469.4,362,469.4z"/>
			<path fill="#FFFDFC" d="M378.4,496.7c-0.7,1.6-1.3,3-1.9,4.4c-0.3,0.6-0.5,1.2,0.2,1.7c0.6,0.4,1.2,0.2,1.8-0.1
				c1.3-0.7,1.8-1.9,2.4-3.2c0.4-0.7,0.6-1.5,0.9-2.3c0.4-1,1.4-1,2.1-0.6c0.9,0.4,0.1,1.1-0.1,1.6c-0.2,0.8-0.7,1.5-1,2.2
				c-1.8,4.2-3.4,5.1-7.7,4.4c-1.4-0.2-2-0.9-1.6-2.2c0.6-1.9,1.4-3.7,2.3-5.5C376.4,496.1,377.4,496.7,378.4,496.7z"/>
			<g>
				<path fill="#FFFFFF" d="M316.5,463.9c-3.1-0.1-6.2,0.1-9.2-0.1c-1.5-0.1-2.2,0.5-2.7,1.9c-1.1,3.5-2.3,6.9-3.5,10.3
					c-1.2,3.5-2.5,6.9-3.8,10.4c4.8,0.5,4.8,0.5,6.3-3.8c1-2.8,2-5.6,3-8.4c0.4-1.2,0.9-2.4,1.1-3.6c0.5-3.1,2.5-3.8,5.3-3.4
					c2.5,0.3,3.2,1.4,2,3.6c-1.2,2.2-3.1,3-5.4,2.9c-1,0-2-0.2-2.4,1.1c0.3,0.8-0.4,2,1.2,2.3c5.1,1.1,11.5-3.1,12.3-8.3
					C321.1,465.9,319.7,464,316.5,463.9z"/>
			</g>
			<path fill="#FFFCFB" d="M346.6,504.9c-0.5,0-1.1-0.1-1.6-0.1c-0.7-0.1-1-0.4-0.9-1.1c0.1-0.7,0.3-1.2,1.2-1
				c0.7,0.2,1.4,0.4,2.1,0.3c1.8-0.2,2.4-1.4,1.3-2.7c-1.2-1.5-2.4-2.9-1.1-4.8c1.4-2,3.5-2,5.6-1.8c0.5,0,1.1,0.1,1.1,0.8
				c0,0.8-0.4,1.1-1.2,1c-0.5-0.1-1.1-0.1-1.6-0.1c-1.8,0.3-2.3,1.4-1.1,2.8c1.1,1.3,2.3,2.4,1.3,4.3
				C350.6,504.5,348.7,505,346.6,504.9z"/>
			<path fill="#FFFAF8" d="M402.2,505c-0.4,0-0.7,0-1.1-0.1c-0.5-0.1-1.4,0.2-1.4-0.8c0.1-0.7,0.5-1,1.3-0.9
				c2.4,0.3,3.6-0.1,1.5-2.5c-1.1-1.3-0.6-2.6,0.7-3.4c1.5-1,3.2-1,4.9-0.4c0.1,0,0.1,0.5,0.1,0.8c-0.1,0.6-0.5,0.7-1,0.6
				c-2.3-0.3-3.2,0-1.5,2.4C407.4,502.7,405.5,504.9,402.2,505z"/>
			<path fill="#FFFBFA" d="M383.4,504.5c0.7-1.6,1.7-3,1.9-4.6c0.5-3.3,2.7-3.6,5.3-3.5c0.4,0,1-0.1,1,0.6c0,0.5,0,1.2-0.8,1.2
				c-3.1,0.1-3.6,2.6-4.4,4.8C385.9,504.4,385.2,505.2,383.4,504.5z"/>
			<path fill="#FFF8F4" d="M364,463.5c-0.1,2.9-1.5,3.8-3.9,3.4c-0.7-0.1-2,0.5-1.7-1c0.2-0.9,0.1-2.4,1.7-2.4
				C361.4,463.5,362.6,463.5,364,463.5z"/>
			<path fill="#FFF9F6" d="M382.1,463.7c0.4,0.2,1.9-0.9,1.8,0.8c-0.1,2-1.3,2.8-3.2,2.4c-0.8-0.2-2.3,0.7-2.2-1
				C378.5,464,379.7,463.1,382.1,463.7z"/>
			<path fill="#F9C39F" d="M260,500.2c-0.1,0.5-0.3,0.6-0.6,0.5c-0.3-0.1-0.6-0.4-0.7-0.7c-0.1-0.3,0.2-0.5,0.5-0.3
				C259.5,499.9,259.8,500.1,260,500.2z"/>
			<path fill="#FCDFCA" d="M262.5,502.5c-0.7-0.2-1.3-0.4-1.5-1.3c0.9-0.2,1.5,0.3,2.1,0.8C263.1,502.4,262.8,502.4,262.5,502.5z"/>
			<path fill="#FFFFFF" d="M262.5,502.5c0.2-0.2,0.4-0.3,0.6-0.5c0.5,0.2,1,0.5,1.5,0.7c-0.2,0.2-0.4,0.3-0.6,0.5
				C263.5,503,263,502.7,262.5,502.5z"/>
			<g>
				<path fill="#FFFFFF" d="M332.8,469.4c-6.2-0.9-12.1,2.5-14.3,8.3c-2.2,5.7,0.3,9.3,6.4,9.3c6.5,0,11.7-4.2,13-10.5
					C338.6,472.7,336.7,470,332.8,469.4z M326.2,483.6c-1.6,0-2.8-0.4-3.3-2.2c-1-3.8,3.3-8.9,7.1-8.8c1.5,0.1,2.6,0.7,2.9,2.3
					C333.7,478.6,329.8,483.6,326.2,483.6z"/>
			</g>
			<g>
				<path fill="#FFFDFC" d="M365,498.5c-1.5,1.4-2.8,3.2-1.8,5.3c1,2,3,0.8,4.9,0.7c-1.5,2.6-1.5,2.6-4.9,2.2
					c-0.8-0.1-1.2-0.1-1.4,0.7c-0.2,0.6,0.1,0.8,0.5,1.1c2,1.1,6.5,0.1,7.6-2.1c1.5-3,2.7-6.3,4.1-9.5
					C370.5,496.1,367.5,496.1,365,498.5z M367.9,502.8c-0.7,0.4-1.4,0.5-2,0c-0.7-0.6-0.5-1.3-0.1-2c1-2,2.5-3,5-2.6
					C370.3,500.3,369.6,501.9,367.9,502.8z"/>
			</g>
			<g>
				<path fill="#FFFDFC" d="M396.8,496.4c-3.4,0-6.6,2.9-6.5,5.9c0.1,2.2,1.6,2.5,3.1,2.6c3.6,0,6.8-2.9,6.7-5.9
					C400.1,496.7,398.6,496.4,396.8,496.4z M394.3,503.2c-1,0.1-1.6-0.4-1.6-1.4c-0.1-1.5,1.9-3.7,3.4-3.7c0.9,0,1.6,0.3,1.6,1.3
					C397.8,501.1,395.8,503.2,394.3,503.2z"/>
			</g>
			<g>
				<path fill="#FFFAF8" d="M360.9,496.5c-2.8-0.5-5.7,1.2-6.9,4.1c-0.6,1.5-1,3,0.8,4c1.7,1,4.6,0.3,5.6-1.3c-1,0-2,0-3,0
					c-0.8,0-1.3-0.5-1.3-1.4c0-0.9,0.7-0.9,1.3-0.9c1.1,0,2.2-0.1,3.2,0c1.6,0.2,2.1-0.8,2.3-2C363.1,497.4,362.3,496.7,360.9,496.5
					z M360.6,499.1c-0.8,1.3-2.1,0.5-3.6,0.6c0.9-1.5,1.8-2.2,3.1-1.8C360.5,498,360.9,498.6,360.6,499.1z"/>
			</g>
		</g>
		<path fill="#E4B92F" d="M331.9,354.5c-3,4.1,3.9,16.5,2.2,23.8c-1.4,6.1,0,6.9,0,6.9h40.6c0,0-0.8-3.6-1.3-9.6
			c-0.6-6.9,7.6-16.1,3.8-20.1C368.3,346.1,340.5,343,331.9,354.5z"/>
		<path fill="#DFB793" d="M378.2,356.8c1.2,0.5,15.6,31.3,12.6,36.2c-1.8,3-28.3,0.9-31.3,0c-1.1-0.3-3-2.6-4-2.6c-1,0-2,1.6-3,1.8
			c-1,0.2-2.3-0.9-2.3-1.8c-0.1-1.7,3.8-3.8,6.1-3.8c1.7,0,6.3,2.3,6.3,2.3s18.1,0.5,18.3-0.3c0.6-4.3-10.9-27.9-10.9-27.9
			s-1.6-2.7,2.4-4.8C375.7,354.2,378.2,356.8,378.2,356.8z"/>
		<path fill="#DFB793" d="M331.7,355c-1.2,0.4-18,31.8-15,36.6c1.8,2.9,27.8,0.9,30.7,0c1.1-0.3,2.9-2.5,3.9-2.5c1,0,2,1.6,3,1.8
			c1,0.2,2.3-0.9,2.3-1.8c0.1-1.7-3.7-3.8-6-3.7c-1.7,0-6.2,2.2-6.2,2.2s-17.8,0.5-17.9-0.3c-0.6-4.3,10.7-27.4,10.7-27.4
			s3-3.6-1-5.6C333,352.6,331.7,355,331.7,355z"/>
		<path fill="#D8AB30" d="M363.6,351.3c0,2.9-4,6.1-9.9,6.1s-11.4-3.2-11.4-6.1c0-2.9,4.8-5.2,10.6-5.2
			C358.8,346.1,363.6,348.4,363.6,351.3z"/>
		<path fill="#DFB793" d="M346.6,337.9c0,0,1.9,6.9,0.4,9.1c-1.5,2.2-2.1,6.3,1.9,7.4c2.3,0.6,11.3,1.3,11.9-2.7
			c0.4-2.8-0.5-2-1.8-4.6c-1.3-2.6-0.7-9.1-0.7-9.1H346.6z"/>
		<g>
			<g>
				<g>
					<g>
						<circle fill="#726857" cx="329" cy="263.3" r="14"/>
						<circle fill="#726857" cx="317.2" cy="272.8" r="12.1"/>
						<circle fill="#726857" cx="314.4" cy="290.7" r="14"/>
					</g>
				</g>
				<circle fill="#DFB793" cx="350.9" cy="305.6" r="36.3"/>
				<polygon fill="#C69F82" points="343.3,308.5 340.3,315.5 345.8,316.3 				"/>
				<circle cx="330.5" cy="297.1" r="3"/>
				<circle cx="361.6" cy="299.7" r="3"/>
				<g>
					<g>
						
							<ellipse transform="matrix(0.9969 7.899666e-002 -7.899666e-002 0.9969 24.2993 -24.8173)" opacity="0.47" fill="#FFFFFF" cx="325.8" cy="294.7" rx="12.6" ry="10.5"/>
						<path fill="#888888" d="M326.1,307.7c-0.4,0-0.9,0-1.4-0.1c-3.9-0.3-7.5-1.9-10.1-4.5c-2.7-2.7-4-6.1-3.7-9.6
							c0.6-7.2,7.5-12.5,15.8-11.8c3.9,0.3,7.5,1.9,10.1,4.5c2.7,2.7,4,6.1,3.7,9.6C340,302.6,333.8,307.7,326.1,307.7z M325.4,285
							c-5.8,0-10.7,3.9-11.1,8.8c-0.2,2.5,0.8,5,2.7,7c2,2,4.9,3.3,8,3.6c6.3,0.5,11.8-3.5,12.2-8.7c0.2-2.5-0.8-5-2.7-7
							c-2-2-4.9-3.3-8-3.6C326.2,285,325.8,285,325.4,285z"/>
					</g>
					<g>
						
							<ellipse transform="matrix(0.9969 7.899666e-002 -7.899666e-002 0.9969 24.8046 -27.8348)" opacity="0.47" fill="#FFFFFF" cx="364.2" cy="299.6" rx="12.6" ry="10.5"/>
						<path fill="#888888" d="M364.5,312.6c-0.4,0-0.9,0-1.4-0.1c-8.2-0.6-14.3-7-13.8-14.2c0.6-7.2,7.5-12.5,15.8-11.8
							c8.2,0.6,14.3,7,13.8,14.2C378.4,307.5,372.2,312.6,364.5,312.6z M363.8,289.8c-5.9,0-10.7,3.9-11.1,8.8
							c-0.4,5.3,4.4,10,10.7,10.5c6.3,0.5,11.8-3.5,12.2-8.7c0.4-5.3-4.4-10-10.7-10.5C364.5,289.9,364.2,289.8,363.8,289.8z"/>
					</g>
					<g>
						<line fill="#DFB793" x1="378.1" y1="300.4" x2="388.5" y2="302"/>
						
							<rect x="378.1" y="299.5" transform="matrix(0.9879 0.1551 -0.1551 0.9879 51.3646 -55.8178)" fill="#888888" width="10.5" height="3.4"/>
					</g>
					<g>
						
							<rect x="338.5" y="295.8" transform="matrix(0.9969 7.899666e-002 -7.899666e-002 0.9969 24.5898 -26.2908)" fill="#DFB793" width="12.1" height="3.7"/>
						<path fill="#888888" d="M352,301.8l-15.4-1.2l0.6-7.1l15.4,1.2L352,301.8z M340.2,297.5l8.7,0.7l0-0.4l-8.7-0.7L340.2,297.5z"
							/>
					</g>
				</g>
				<path fill="#726857" d="M370,285.1c-0.2,0-0.5-0.1-0.6-0.3c-2.4-2.8-5-1.2-5.1-1.2c-0.5,0.3-1.1,0.1-1.4-0.3
					c-0.3-0.5-0.1-1.1,0.3-1.4c1.4-0.9,4.9-1.6,7.7,1.6c0.4,0.4,0.3,1.1-0.1,1.4C370.6,285,370.3,285.1,370,285.1z"/>
				<path fill="#726857" d="M334,281.2c-0.2,0-0.5-0.1-0.7-0.3c-2.7-2.4-5.1-0.6-5.2-0.5c-0.4,0.3-1.1,0.3-1.4-0.2
					c-0.3-0.4-0.3-1.1,0.2-1.4c1.3-1,4.7-2.2,7.9,0.6c0.4,0.4,0.5,1,0.1,1.4C334.5,281.1,334.2,281.2,334,281.2z"/>
				<g>
					<g>
						<circle fill="#726857" cx="362.1" cy="260.7" r="18.9"/>
						<circle fill="#726857" cx="380.7" cy="275.2" r="12.1"/>
						<circle fill="#726857" cx="387.8" cy="295.1" r="12.1"/>
						<circle fill="#726857" cx="341.9" cy="266.3" r="12.1"/>
						<circle fill="#726857" cx="344.3" cy="254.7" r="14"/>
						<circle fill="#726857" cx="384.3" cy="265.1" r="14"/>
						<circle fill="#726857" cx="390.4" cy="277.9" r="14"/>
					</g>
				</g>
				<circle fill="#DFB793" cx="388.7" cy="310.7" r="7.6"/>
				<path fill="#C69F82" d="M355.3,325.7c-0.8,0-1.4-0.1-1.5-0.1c-0.3,0-0.5-0.3-0.5-0.6c0-0.3,0.3-0.5,0.6-0.5c0,0,4.5,0.5,7.4-1.5
					c0.3-0.2,0.6-0.1,0.8,0.2c0.2,0.3,0.1,0.6-0.2,0.8C359.8,325.4,357,325.7,355.3,325.7z"/>
				<path opacity="0.11" fill="#726857" d="M386.9,255.3c0,0,8.6,1.4,8.1,5.9c-0.5,4.5-1.5,5.6-1.5,5.6s6.7,2.4,8.2,7.2
					c0.8,2.5,1.1,12.4-5.8,13.3c-2,0.3,2.2,9,0.8,9.9c-1.4,1-6.6-1.6-4.5-12.4c0.4-2.1,4-2.2,3.8-4.9c-0.3-4-1.4-4.7-6.4-6.6
					c-2.7-1-5.4-5.5-3.1-7.5c2.3-2,1.5-3.9-0.4-5C384.3,259.5,380.4,256,386.9,255.3z"/>
			</g>
			<path opacity="0.23" fill="#DFB793" d="M390.6,308.1c-1.9-0.8-4.2,0.8-4.2,0.8s1,0,2,0.1c0.5,2.1-1.2,4.7-1.2,4.7
				s3.3-2.3,3.1-4.3c0.3,0.1,0.4,0.3,0.6,0.4C391.9,310.6,392.7,308.9,390.6,308.1z"/>
		</g>
		<circle fill="#D8AB30" cx="389.7" cy="317.2" r="2.5"/>
		<g>
			
				<ellipse transform="matrix(1 7.566967e-003 -7.566967e-003 1 0.4112 -2.4211)" fill="#D7D6D6" cx="320.2" cy="53.1" rx="236.3" ry="31.5"/>
			
				<ellipse transform="matrix(1 7.566967e-003 -7.566967e-003 1 0.3604 -2.4269)" fill="#DCDCDC" cx="320.9" cy="46.4" rx="236.3" ry="31.5"/>
			<ellipse fill="#D0D0D0" cx="322.5" cy="17.1" rx="58.5" ry="9.7"/>
			<ellipse fill="#E1E1E1" cx="322.6" cy="14.6" rx="58.5" ry="9.7"/>
			<path opacity="0.52" fill="#E1E1E1" d="M412.7,23.3c0,0,121.3,8.4,129.2,21.8s-76,21.5-76,21.5s66.4-11.9,63.3-18.3
				C523.7,37.3,412.7,23.3,412.7,23.3z"/>
		</g>
		<polygon fill="#D85948" points="143.8,195.9 139.8,191.4 139.8,129.3 143.8,132.7 		"/>
		<polygon fill="#EE7761" points="143.8,132.6 504.9,132.6 499,129.8 139.8,129.3 		"/>
		<g opacity="0.14">
			<path opacity="0.38" d="M189.6,348.4l-1,21.7l2.2,0l-0.1-19.9C190.2,349.5,190.2,349.6,189.6,348.4z"/>
			<path opacity="0.38" d="M210.7,333.3c0-3.7-2.1-6.9-5.2-8.4c0.2-0.8,0.3-1.6,0.3-2.5c0-5.2-4.2-9.4-9.4-9.4c-1.5,0-3,0.4-4.3,1
				c0.4-0.1,0.8-0.1,1.3-0.1c5.2,0,9.4,4.2,9.4,9.4c0,0.9-0.1,1.7-0.3,2.5c3.1,1.6,5.2,4.7,5.2,8.4c0,3.1-1.5,5.8-3.8,7.6
				c0.4,1.1,0.7,2.3,0.7,3.5c0,3.7-2.1,6.9-5.2,8.4c4.6-0.6,8.2-4.6,8.2-9.4c0-1.2-0.2-2.4-0.7-3.5
				C209.2,339.1,210.7,336.4,210.7,333.3z"/>
		</g>
		<g>
			<path fill="#E4B92F" d="M198.7,389.3h-19.8c-1.5,0-2.7-1.2-2.7-2.7V373c0-1.5,1.2-2.7,2.7-2.7h19.8c1.5,0,2.7,1.2,2.7,2.7v13.6
				C201.4,388.1,200.2,389.3,198.7,389.3z"/>
			<g>
				<rect x="187.3" y="342.3" fill="#BAA26A" width="3.5" height="27.9"/>
				<circle fill="#8DC47B" cx="189.3" cy="332.2" r="16.2"/>
				<circle fill="#8DC47B" cx="180.7" cy="344.9" r="9.4"/>
				<circle fill="#8DC47B" cx="176.2" cy="333.4" r="9.4"/>
				<circle fill="#8DC47B" cx="201.3" cy="333.3" r="9.4"/>
				<circle fill="#8DC47B" cx="182.1" cy="321.7" r="9.4"/>
				<circle fill="#8DC47B" cx="196.4" cy="322.4" r="9.4"/>
				<circle fill="#8DC47B" cx="198.2" cy="344.4" r="9.4"/>
			</g>
			<path opacity="0.25" d="M180.5,371.8c-0.8,0-2.1-0.6-2.2,2.1c-0.1,2.6,0,8,0,8s0.9-8.4,1.7-8.4
				C182.9,373.4,181.8,371.7,180.5,371.8z"/>
		</g>
		<g>
			<rect x="96.2" y="117.3" fill="#E1E1E1" width="438.6" height="93"/>
			<rect x="139" y="132.6" fill="#EC6C4B" width="361.2" height="63.3"/>
			<g>
				<path fill="#FFFFFF" d="M221.7,178.1v-27h4.3v27H221.7z"/>
				<path fill="#FFFFFF" d="M236.3,159v19H232v-27h3.4l15.5,19.5v-19.5h4.3v27h-3.5L236.3,159z"/>
				<path fill="#FFFFFF" d="M261.2,178.1v-27h18v3.8h-13.7v8.1H277v3.5h-11.5v11.7H261.2z"/>
				<path fill="#FFFFFF" d="M293.9,178.2c-1.9,0-3.7-0.4-5.3-1.2c-1.6-0.8-3-1.8-4.1-3.1c-1.1-1.3-2-2.7-2.6-4.4
					c-0.6-1.7-0.9-3.3-0.9-5.1c0-1.8,0.3-3.5,1-5.2c0.7-1.6,1.6-3.1,2.7-4.4c1.2-1.3,2.5-2.3,4.1-3c1.6-0.7,3.3-1.1,5.2-1.1
					c1.9,0,3.7,0.4,5.3,1.2c1.6,0.8,2.9,1.8,4.1,3.1c1.1,1.3,2,2.8,2.6,4.4c0.6,1.6,0.9,3.3,0.9,5c0,1.8-0.3,3.5-1,5.2
					c-0.6,1.7-1.6,3.1-2.7,4.4c-1.2,1.3-2.5,2.3-4.1,3C297.5,177.9,295.7,178.2,293.9,178.2z M285.3,164.5c0,1.3,0.2,2.5,0.6,3.7
					c0.4,1.2,1,2.2,1.7,3.2c0.7,0.9,1.7,1.6,2.7,2.2c1.1,0.5,2.3,0.8,3.6,0.8c1.4,0,2.6-0.3,3.6-0.9c1.1-0.6,1.9-1.3,2.7-2.3
					c0.7-0.9,1.3-2,1.7-3.2c0.4-1.2,0.6-2.4,0.6-3.6c0-1.3-0.2-2.5-0.6-3.7c-0.4-1.2-1-2.2-1.7-3.1c-0.7-0.9-1.7-1.6-2.7-2.2
					c-1.1-0.5-2.2-0.8-3.5-0.8c-1.4,0-2.6,0.3-3.7,0.9c-1.1,0.6-2,1.3-2.7,2.2c-0.7,0.9-1.3,2-1.7,3.1
					C285.5,162.1,285.3,163.3,285.3,164.5z"/>
				<path fill="#FFFFFF" d="M311.3,178.1v-27h11.8c1.2,0,2.3,0.3,3.4,0.8c1,0.5,1.9,1.2,2.6,2c0.7,0.8,1.3,1.8,1.7,2.8
					c0.4,1.1,0.6,2.1,0.6,3.2c0,0.9-0.1,1.8-0.4,2.6c-0.3,0.8-0.6,1.6-1.1,2.3s-1,1.3-1.7,1.8c-0.7,0.5-1.4,0.9-2.2,1.2l6.4,10.3
					h-4.8l-5.9-9.4h-6.2v9.4H311.3z M315.6,164.9h7.5c0.6,0,1.2-0.1,1.7-0.4c0.5-0.3,0.9-0.6,1.3-1.1c0.4-0.5,0.6-1,0.8-1.6
					c0.2-0.6,0.3-1.3,0.3-1.9s-0.1-1.3-0.4-1.9c-0.2-0.6-0.6-1.1-1-1.6c-0.4-0.5-0.9-0.8-1.4-1.1c-0.5-0.3-1.1-0.4-1.6-0.4h-7.2
					V164.9z"/>
				<path fill="#FFFFFF" d="M359.2,178.1v-19.5l-8,14.7h-2.4l-8.1-14.7v19.5h-4.3v-27h4.6l8.9,16.5l8.9-16.5h4.6v27H359.2z"/>
				<path fill="#FFFFFF" d="M388.1,174.3v3.8h-18.5v-27h18.2v3.8h-13.9v7.7h12.1v3.5h-12.1v8.3H388.1z"/>
				<path fill="#FFFFFF" d="M408,157.4c-0.3-0.3-0.6-0.6-1.1-0.9c-0.5-0.3-1-0.6-1.7-0.9c-0.6-0.3-1.4-0.5-2.1-0.7
					c-0.8-0.2-1.6-0.3-2.4-0.3c-1.8,0-3.1,0.3-4,1c-0.9,0.7-1.3,1.6-1.3,2.7c0,0.7,0.1,1.2,0.4,1.6c0.3,0.4,0.7,0.8,1.2,1.1
					c0.6,0.3,1.3,0.6,2.1,0.8s1.8,0.5,2.9,0.8c1.4,0.3,2.6,0.7,3.7,1.1c1.1,0.4,2,0.9,2.8,1.5c0.8,0.6,1.4,1.3,1.8,2.2
					c0.4,0.9,0.6,1.9,0.6,3.1c0,1.4-0.3,2.6-0.8,3.5c-0.5,1-1.2,1.8-2.1,2.4c-0.9,0.6-1.9,1.1-3.1,1.4c-1.2,0.3-2.5,0.4-3.8,0.4
					c-2.1,0-4-0.3-6-0.9c-1.9-0.6-3.6-1.5-5.2-2.7l1.9-3.7c0.3,0.3,0.8,0.7,1.4,1.1c0.6,0.4,1.3,0.8,2.2,1.1
					c0.8,0.3,1.7,0.6,2.7,0.9c1,0.2,2,0.4,3,0.4c1.7,0,3-0.3,3.9-0.9c0.9-0.6,1.4-1.4,1.4-2.6c0-0.7-0.2-1.3-0.5-1.7
					s-0.8-0.9-1.5-1.2c-0.6-0.3-1.4-0.7-2.3-0.9c-0.9-0.3-2-0.6-3.1-0.9c-1.3-0.4-2.5-0.7-3.5-1.1c-1-0.4-1.8-0.9-2.5-1.4
					c-0.7-0.6-1.2-1.2-1.5-2c-0.3-0.7-0.5-1.7-0.5-2.7c0-1.3,0.3-2.5,0.8-3.5c0.5-1,1.2-1.9,2.1-2.6c0.9-0.7,1.9-1.2,3.1-1.6
					c1.2-0.4,2.5-0.5,3.9-0.5c1.8,0,3.5,0.3,5.1,0.9c1.5,0.6,2.9,1.3,4.1,2.2L408,157.4z"/>
			</g>
			<g>
				<polygon fill="#FFFFFF" points="493.1,192.4 486.9,192.4 486.9,191.3 492,191.3 492,186.2 493.1,186.2 				"/>
				<path fill="#FFFFFF" d="M483.6,192.4h-11.1v-1.1h11.1V192.4z M469.1,192.4H458v-1.1h11.1V192.4z M454.6,192.4h-11.1v-1.1h11.1
					V192.4z M440.2,192.4H429v-1.1h11.1V192.4z M425.7,192.4h-11.1v-1.1h11.1V192.4z M411.2,192.4h-11.1v-1.1h11.1V192.4z
					 M396.7,192.4h-11.1v-1.1h11.1V192.4z M382.3,192.4h-11.1v-1.1h11.1V192.4z M367.8,192.4h-11.1v-1.1h11.1V192.4z M353.3,192.4
					h-11.1v-1.1h11.1V192.4z M338.8,192.4h-11.1v-1.1h11.1V192.4z M324.4,192.4h-11.1v-1.1h11.1V192.4z M309.9,192.4h-11.1v-1.1
					h11.1V192.4z M295.4,192.4h-11.1v-1.1h11.1V192.4z M280.9,192.4h-11.1v-1.1h11.1V192.4z M266.4,192.4h-11.1v-1.1h11.1V192.4z
					 M252,192.4h-11.1v-1.1H252V192.4z M237.5,192.4h-11.1v-1.1h11.1V192.4z M223,192.4h-11.1v-1.1H223V192.4z M208.5,192.4h-11.1
					v-1.1h11.1V192.4z M194.1,192.4h-11.1v-1.1h11.1V192.4z M179.6,192.4h-11.1v-1.1h11.1V192.4z M165.1,192.4H154v-1.1h11.1V192.4z
					"/>
				<polygon fill="#FFFFFF" points="150.6,192.4 144.5,192.4 144.5,186.2 145.6,186.2 145.6,191.3 150.6,191.3 				"/>
				<path fill="#FFFFFF" d="M145.6,183.1h-1.1v-10.3h1.1V183.1z M145.6,169.7h-1.1v-10.3h1.1V169.7z M145.6,156.2h-1.1v-10.3h1.1
					V156.2z"/>
				<polygon fill="#FFFFFF" points="145.6,142.8 144.5,142.8 144.5,136.6 150.6,136.6 150.6,137.7 145.6,137.7 				"/>
				<path fill="#FFFFFF" d="M483.6,137.7h-11.1v-1.1h11.1V137.7z M469.1,137.7H458v-1.1h11.1V137.7z M454.6,137.7h-11.1v-1.1h11.1
					V137.7z M440.2,137.7H429v-1.1h11.1V137.7z M425.7,137.7h-11.1v-1.1h11.1V137.7z M411.2,137.7h-11.1v-1.1h11.1V137.7z
					 M396.7,137.7h-11.1v-1.1h11.1V137.7z M382.3,137.7h-11.1v-1.1h11.1V137.7z M367.8,137.7h-11.1v-1.1h11.1V137.7z M353.3,137.7
					h-11.1v-1.1h11.1V137.7z M338.8,137.7h-11.1v-1.1h11.1V137.7z M324.4,137.7h-11.1v-1.1h11.1V137.7z M309.9,137.7h-11.1v-1.1
					h11.1V137.7z M295.4,137.7h-11.1v-1.1h11.1V137.7z M280.9,137.7h-11.1v-1.1h11.1V137.7z M266.4,137.7h-11.1v-1.1h11.1V137.7z
					 M252,137.7h-11.1v-1.1H252V137.7z M237.5,137.7h-11.1v-1.1h11.1V137.7z M223,137.7h-11.1v-1.1H223V137.7z M208.5,137.7h-11.1
					v-1.1h11.1V137.7z M194.1,137.7h-11.1v-1.1h11.1V137.7z M179.6,137.7h-11.1v-1.1h11.1V137.7z M165.1,137.7H154v-1.1h11.1V137.7z
					"/>
				<polygon fill="#FFFFFF" points="493.1,142.8 492,142.8 492,137.7 486.9,137.7 486.9,136.6 493.1,136.6 				"/>
				<path fill="#FFFFFF" d="M493.1,183.1H492v-10.3h1.1V183.1z M493.1,169.7H492v-10.3h1.1V169.7z M493.1,156.2H492v-10.3h1.1V156.2
					z"/>
			</g>
			<g>
				
					<image overflow="visible" opacity="0.35" width="489" height="476" xlink:href="3E8B1BF9.png"  transform="matrix(0.24 0 0 0.24 438.7263 84.6258)">
				</image>
				<g>
					<g>
						<g>
							<g>
								<g>
									
										<ellipse transform="matrix(0.9973 -7.308733e-002 7.308733e-002 0.9973 -8.5211 36.7865)" fill="#E4B92F" cx="498.4" cy="134.8" rx="52.5" ry="45"/>
									<path opacity="0.28" fill="#E4B92F" d="M461.8,145.8c-1.7-23.5,17.4-44,42.7-45.8c20-1.5,37.8,9.2,45.3,25.3
										c-5-21.8-28.2-37.2-54.8-35.2c-28.9,2.1-50.9,23.9-49.1,48.7c1.4,18.9,16.1,34,35.8,39.2
										C470.6,170.9,462.8,159.3,461.8,145.8z"/>
									<path fill="#E4B92F" d="M495.9,176.6c0,0,14.4,23.8,36.2,11.5c-12.7,1.8-14.2-13.9-11.3-23.4L495.9,176.6z"/>
								</g>
							</g>
							<g>
								<g>
									<path fill="#F7F6F6" d="M500.6,179.3c-0.4-0.5-0.8-0.9-1-1.2c-0.5,0-1.1,0-1.6,0l0-0.7c0.6,0,1.2,0,1.7,0l0.2,0l0.1,0.1
										c0.2,0.3,0.6,0.7,1.1,1.3L500.6,179.3z"/>
								</g>
								<g>
									<path fill="#F7F6F6" d="M519.8,190.1c-1.2,0-2.5-0.2-3.8-0.5l0.2-0.7c1.2,0.3,2.4,0.4,3.6,0.4L519.8,190.1z M512.4,188.4
										c-1.1-0.5-2.2-1.1-3.3-1.7l0.4-0.6c1.1,0.7,2.2,1.2,3.3,1.7L512.4,188.4z M506,184.5c-1-0.8-1.9-1.6-2.8-2.5l0.5-0.5
										c0.9,0.9,1.8,1.7,2.8,2.4L506,184.5z"/>
								</g>
								<g>
									<path fill="#F7F6F6" d="M523.6,189.7l-0.2-0.7c0.2,0,0.4-0.1,0.6-0.1c-0.2-0.1-0.4-0.2-0.6-0.3l0.3-0.6
										c0.5,0.3,1,0.5,1.5,0.6l1.3,0.3l-1.2,0.4C524.7,189.4,524.1,189.5,523.6,189.7z"/>
								</g>
								<g>
									<path fill="#F7F6F6" d="M521.1,186.7c-0.6-0.7-1.2-1.5-1.7-2.4l0.6-0.3c0.5,0.9,1,1.6,1.6,2.3L521.1,186.7z M518.2,181.6
										c-0.3-0.9-0.6-1.8-0.8-2.8l0.7-0.1c0.2,0.9,0.4,1.8,0.7,2.7L518.2,181.6z"/>
								</g>
								<g>
									<path fill="#F7F6F6" d="M517,176c0-0.6-0.1-1.2,0-1.8l0-0.2l0.2-0.1c0.5-0.2,1.1-0.4,1.6-0.6l0.3,0.6
										c-0.5,0.2-0.9,0.4-1.4,0.6c0,0.5,0,1,0,1.5L517,176z"/>
								</g>
								<g>
									<path fill="#F7F6F6" d="M494.4,178.1c-1.2-0.1-2.3-0.2-3.5-0.3l0.1-0.7c1.1,0.1,2.3,0.2,3.4,0.3L494.4,178.1z M487.4,177.3
										c-1.1-0.2-2.3-0.4-3.4-0.7l0.2-0.7c1.1,0.3,2.2,0.5,3.4,0.7L487.4,177.3z M480.6,175.7c-1.1-0.3-2.2-0.7-3.3-1.1l0.3-0.7
										c1.1,0.4,2.2,0.8,3.3,1.1L480.6,175.7z M474.1,173.2c-1.1-0.5-2.1-1-3.1-1.6l0.3-0.6c1,0.5,2,1.1,3.1,1.6L474.1,173.2z
										 M522.3,172.4l-0.3-0.6c1-0.5,2.1-1.1,3-1.6l0.4,0.6C524.4,171.4,523.4,171.9,522.3,172.4z M468,169.8
										c-1-0.6-1.9-1.3-2.9-2l0.4-0.6c0.9,0.7,1.9,1.3,2.8,2L468,169.8z M528.4,168.9l-0.4-0.6c1-0.6,1.9-1.3,2.8-2l0.4,0.6
										C530.3,167.6,529.3,168.3,528.4,168.9z M462.4,165.6c-0.9-0.8-1.7-1.6-2.5-2.4l0.5-0.5c0.8,0.8,1.6,1.6,2.5,2.4
										L462.4,165.6z M533.9,164.7l-0.5-0.5c0.9-0.8,1.7-1.6,2.5-2.4l0.5,0.5C535.6,163.1,534.8,163.9,533.9,164.7z M457.5,160.6
										c-0.7-0.9-1.5-1.8-2.1-2.8l0.6-0.4c0.6,0.9,1.3,1.9,2.1,2.7L457.5,160.6z M538.8,159.6l-0.5-0.4c0.7-0.9,1.4-1.8,2.1-2.7
										l0.6,0.4C540.2,157.8,539.5,158.7,538.8,159.6z M453.5,154.8c-0.6-1-1.1-2.1-1.6-3.1l0.6-0.3c0.5,1,1,2.1,1.6,3.1
										L453.5,154.8z M542.8,153.9l-0.6-0.4c0.6-1,1.1-2,1.6-3l0.6,0.3C543.9,151.8,543.4,152.9,542.8,153.9z M450.6,148.4
										c-0.4-1.1-0.7-2.2-1-3.4l0.7-0.2c0.3,1.1,0.6,2.2,1,3.3L450.6,148.4z M545.8,147.6l-0.7-0.2c0.4-1.1,0.8-2.2,1.1-3.3
										l0.7,0.2C546.6,145.3,546.2,146.5,545.8,147.6z M449,141.6c-0.1-0.9-0.2-1.8-0.3-2.7c0-0.3,0-0.5-0.1-0.8l0.7,0
										c0,0.3,0,0.5,0.1,0.8c0.1,0.9,0.2,1.8,0.3,2.6L449,141.6z M547.6,140.8l-0.7-0.1c0.2-1.1,0.3-2.3,0.4-3.4l0.7,0.1
										C548,138.5,547.8,139.7,547.6,140.8z M449.3,134.7l-0.7,0c0.1-1.2,0.2-2.3,0.3-3.5l0.7,0.1
										C449.5,132.4,449.4,133.5,449.3,134.7z M547.5,133.8c0-0.7,0-1.4-0.1-2.1c0-0.4-0.1-0.9-0.1-1.3l0.7-0.1
										c0,0.5,0.1,0.9,0.1,1.4c0.1,0.7,0.1,1.4,0.1,2.1L547.5,133.8z M450.3,127.9l-0.7-0.2c0.3-1.1,0.6-2.3,1-3.4l0.7,0.2
										C450.8,125.6,450.5,126.8,450.3,127.9z M546.7,127c-0.2-1.1-0.5-2.2-0.9-3.3l0.7-0.2c0.3,1.1,0.6,2.3,0.9,3.4L546.7,127z
										 M452.4,121.3l-0.6-0.3c0.5-1.1,1-2.1,1.5-3.1l0.6,0.3C453.4,119.3,452.9,120.3,452.4,121.3z M544.7,120.4
										c-0.4-1.1-0.9-2.1-1.5-3.1l0.6-0.3c0.5,1,1,2.1,1.5,3.2L544.7,120.4z M455.7,115.3l-0.6-0.4c0.6-1,1.3-1.9,2-2.8l0.6,0.4
										C457,113.4,456.4,114.4,455.7,115.3z M541.5,114.3c-0.6-1-1.3-1.9-2-2.8l0.6-0.4c0.7,0.9,1.4,1.9,2,2.9L541.5,114.3z
										 M460,109.9l-0.5-0.5c0.8-0.9,1.6-1.7,2.5-2.5l0.5,0.5C461.5,108.2,460.7,109,460,109.9z M537.3,108.9
										c-0.8-0.8-1.6-1.7-2.4-2.4l0.5-0.5c0.9,0.8,1.7,1.6,2.5,2.5L537.3,108.9z M465,105.1l-0.4-0.5c0.9-0.7,1.8-1.4,2.8-2.1
										l0.4,0.6C466.8,103.7,465.8,104.4,465,105.1z M532.3,104.2c-0.9-0.7-1.8-1.4-2.8-2l0.4-0.6c1,0.7,1.9,1.4,2.8,2.1
										L532.3,104.2z M470.6,101.1l-0.4-0.6c1-0.6,2-1.2,3-1.7l0.3,0.6C472.6,100,471.6,100.6,470.6,101.1z M526.6,100.3
										c-1-0.6-2-1.1-3-1.6l0.3-0.6c1,0.5,2.1,1.1,3.1,1.7L526.6,100.3z M476.7,98l-0.3-0.6c1.1-0.5,2.2-0.9,3.2-1.3l0.2,0.7
										C478.8,97.1,477.8,97.5,476.7,98z M520.4,97.3c-1.1-0.4-2.1-0.8-3.2-1.2l0.2-0.7c1.1,0.4,2.2,0.8,3.3,1.2L520.4,97.3z
										 M483.2,95.6l-0.2-0.7c1.1-0.3,2.2-0.6,3.4-0.9l0.2,0.7C485.4,94.9,484.3,95.2,483.2,95.6z M513.9,95.1
										c-1.1-0.3-2.2-0.6-3.4-0.8l0.1-0.7c1.1,0.2,2.3,0.5,3.4,0.8L513.9,95.1z M489.9,94l-0.1-0.7c1.1-0.2,2.3-0.4,3.5-0.5
										l0.1,0.7C492.2,93.7,491,93.8,489.9,94z M507.1,93.7c-1.1-0.2-2.3-0.3-3.4-0.4l0.1-0.7c1.2,0.1,2.3,0.2,3.5,0.4L507.1,93.7
										z M496.8,93.3l0-0.7c1,0,1.9-0.1,2.9-0.1c0.2,0,0.4,0,0.6,0l0,0.7c-0.2,0-0.4,0-0.7,0C498.6,93.2,497.7,93.2,496.8,93.3z"
										/>
								</g>
							</g>
						</g>
						<g>
							<path fill="#FFFFFF" d="M498.1,107.6c4.6,0,8.4,1.5,11.3,4.4c2.9,3,4.4,6.4,4.4,10.3c0,1.9-0.3,3.6-1,5.2
								c-0.7,1.6-1.5,2.8-2.4,3.8c-1,0.9-1.9,1.7-2.9,2.3c-1,0.6-1.8,1.1-2.4,1.3l-1,0.3c0,0.7,0,9.4-0.1,9.8
								c-0.1,0.4-0.3,0.8-0.6,1.3c-0.3,0.5-0.9,0.8-1.6,1c-0.8,0.2-1.8,0.3-3,0.3c-1.3,0-2.3-0.1-3-0.3c-0.8-0.2-1.3-0.6-1.6-1.1
								c-0.3-0.5-0.5-1-0.6-1.4c-0.1-0.4-0.1-9.1-0.1-10c0,0,0-0.1,0-0.2c0-0.1,0-0.2,0-0.3c0-1.9,0.5-3.3,1.6-4.4
								c1.1-1.1,2.2-1.8,3.5-2.2c1.3-0.3,2.4-0.9,3.5-1.8c1.1-0.8,1.6-1.9,1.6-3.3c0-1.5-0.4-2.6-1.2-3.4c-0.8-0.8-2.2-1.2-4.2-1.2
								c-1.2,0-2.2,0.3-3,0.7c-0.8,0.5-1.2,1-1.4,1.5l-0.2,0.8c-0.4,1.1-0.8,2-1.4,2.6c-0.5,0.6-1.3,0.9-2.2,0.9
								c-0.7,0-1.6-0.2-2.6-0.6c-1.7-0.7-2.8-1.3-3.4-1.9c-0.6-0.6-0.9-1.3-0.9-2c0-0.4,0.2-1.2,0.5-2.3l0.1-0.3
								c0.1-0.3,0.2-0.6,0.4-1.1c0.2-0.5,0.6-1.2,1.4-2.4c0.8-1.1,1.6-2.1,2.6-3c1-0.8,2.4-1.6,4.1-2.3
								C494,107.9,496,107.6,498.1,107.6z M498.5,149.9c2.3,0,4,0.5,4.9,1.4c0.8,0.8,1.2,2.4,1.2,4.8c0,1,0,1.8-0.1,2.3
								c-0.1,0.5-0.3,1.2-0.7,1.8c-0.3,0.7-1,1.2-1.9,1.4c-0.9,0.3-2.1,0.4-3.5,0.4c-2.3,0-4-0.5-5-1.4c-0.7-0.7-1.1-2-1.1-3.8v-1
								c0-1,0-1.8,0.1-2.3c0.1-0.5,0.3-1.1,0.6-1.8c0.3-0.7,1-1.2,1.9-1.5C495.8,150.1,497,149.9,498.5,149.9z"/>
						</g>
					</g>
				</g>
			</g>
		</g>
	</g>
</g>
</svg>
