<?xml version="1.0" encoding="utf-8"?>
<!-- Generator: Adobe Illustrator 18.0.0, SVG Export Plug-In . SVG Version: 6.00 Build 0)  -->
<!DOCTYPE svg PUBLIC "-//W3C//DTD SVG 1.1//EN" "http://www.w3.org/Graphics/SVG/1.1/DTD/svg11.dtd">
<svg version="1.1" xmlns="http://www.w3.org/2000/svg" xmlns:xlink="http://www.w3.org/1999/xlink" x="0px" y="0px"
	 viewBox="0 0 1000 1400" enable-background="new 0 0 1000 1400" xml:space="preserve">
<g id="Capa_1">
</g>
<g id="Capa_2">
	<g>
		<g>
			<g>
				<rect x="100.6" y="140.9" fill="#E1E1E1" width="831.2" height="1157.4"/>
				<rect x="100.4" y="141.5" fill="#CCCFD2" width="831.7" height="107.4"/>
				<rect x="655.2" y="249.4" fill="#DDF0F7" width="277" height="1052.2"/>
				<rect x="654.5" y="342.6" fill="#DDF0F7" width="276.4" height="3.3"/>
				<rect x="654.5" y="442.9" fill="#DDF0F7" width="276.4" height="3.3"/>
				<rect x="654.5" y="543.3" fill="#DDF0F7" width="276.4" height="3.3"/>
				<rect x="734.3" y="249.2" fill="#DDF0F7" width="3.3" height="1053.1"/>
				<rect x="832.2" y="249.2" fill="#DDF0F7" width="3.3" height="1053.1"/>
				<rect x="654.5" y="653.7" fill="#DDF0F7" width="276.4" height="3.3"/>
				<rect x="654.5" y="754.1" fill="#DDF0F7" width="276.4" height="3.3"/>
				<rect x="654.5" y="854.5" fill="#DDF0F7" width="276.4" height="3.3"/>
				<rect x="654.5" y="964.9" fill="#DDF0F7" width="276.4" height="3.3"/>
				<rect x="654.5" y="1065.3" fill="#DDF0F7" width="276.4" height="3.3"/>
				<rect x="654.5" y="1165.7" fill="#DDF0F7" width="276.4" height="3.3"/>
				<rect x="100.3" y="1231.6" fill="#CCCFD2" width="554.9" height="70.3"/>
				
					<rect x="247.5" y="170.1" fill="#DDF0F7" stroke="#D0D0D0" stroke-width="9.0344" stroke-miterlimit="10" width="331.2" height="773.9"/>
				<polygon fill="#DDC6B3" points="571.3,940 531,986.7 530.6,945.5 571.3,896.8 				"/>
				<polyline fill="#DDF0F7" stroke="#D0D0D0" stroke-width="9.0344" stroke-miterlimit="10" points="302.3,1301.5 302.3,1002.7 
					517.1,1002.7 517.1,1301.5 				"/>
				<rect x="223.5" y="179.6" fill="#E1C9B6" width="19.6" height="1155.4"/>
				<polygon fill="#D3BCAD" points="265.7,1299.9 242.6,1333 242.6,160.5 265.7,141.5 				"/>
				<polygon fill="#D3BCAD" points="569.3,1290.8 592.4,1324 592.4,151.5 569.3,132.4 				"/>
				<rect x="592.4" y="181.1" fill="#E1C9B6" width="19.6" height="1143.4"/>
				<polygon fill="#EED8CA" points="611.7,163.9 223.2,163.9 245.3,140.4 598.6,140.4 				"/>
				<rect x="223.5" y="162" fill="#E1CDC2" width="387.8" height="19.6"/>
				<rect x="253.6" y="762.8" fill="#C9C9C9" width="324.2" height="20.1"/>
				<rect x="253.6" y="660.4" fill="#C9C9C9" width="324.2" height="20.1"/>
				<rect x="253.6" y="542" fill="#C9C9C9" width="324.2" height="20.1"/>
				<rect x="253.6" y="439.6" fill="#C9C9C9" width="324.2" height="20.1"/>
				<rect x="253.6" y="341.2" fill="#C9C9C9" width="324.2" height="20.1"/>
				<rect x="253.6" y="238.8" fill="#C9C9C9" width="324.2" height="20.1"/>
				<g>
					<polygon fill="#EAD1C1" points="961.9,134.3 51.4,134.3 202.9,23.5 826.8,23.3 					"/>
					<rect x="53.9" y="133.5" fill="#E1C9B6" width="908" height="18.5"/>
				</g>
				<polygon fill="#E5F4F9" points="274.4,269.3 274.4,333.2 543.1,269.3 				"/>
				<polygon fill="#E5F4F9" points="276.4,193 276.4,230.8 545.1,193 				"/>
				<polygon fill="#E5F4F9" points="664.9,262.2 664.9,300.1 727.8,262.2 				"/>
				<polygon fill="#E5F4F9" points="664.9,356.1 664.9,393.9 727.8,356.1 				"/>
				<polygon fill="#E5F4F9" points="667.4,454 667.4,491.8 730.3,454 				"/>
				<polygon fill="#E5F4F9" points="663.9,558.4 663.9,596.2 726.8,558.4 				"/>
				<polygon fill="#E5F4F9" points="665.9,667.8 665.9,705.6 728.8,667.8 				"/>
				<polygon fill="#E5F4F9" points="665.9,767.7 665.9,805.5 728.8,767.7 				"/>
				<polygon fill="#E5F4F9" points="746.2,768.7 746.2,806.5 809.1,768.7 				"/>
				<polygon fill="#E5F4F9" points="748.2,668.3 748.2,706.1 811.1,668.3 				"/>
				<polygon fill="#E5F4F9" points="750.2,557.9 750.2,595.7 813.1,557.9 				"/>
				<polygon fill="#E5F4F9" points="846,558.4 846,596.2 909,558.4 				"/>
				<polygon fill="#E5F4F9" points="754.2,458.8 754.2,496.6 817.1,458.8 				"/>
				<polygon fill="#E5F4F9" points="850.1,459.3 850.1,497.1 913,459.3 				"/>
				<polygon fill="#E5F4F9" points="752.9,356.4 752.9,394.2 815.8,356.4 				"/>
				<polygon fill="#E5F4F9" points="848.7,356.9 848.7,394.8 911.6,356.9 				"/>
				<polygon fill="#E5F4F9" points="749.5,263.4 749.5,301.2 812.4,263.4 				"/>
				<polygon fill="#E5F4F9" points="845.4,263.9 845.4,301.7 908.3,263.9 				"/>
				<polygon fill="#E5F4F9" points="846.5,669.3 846.5,707.1 909.5,669.3 				"/>
				<polygon fill="#E5F4F9" points="845,769.7 845,807.5 908,769.7 				"/>
				<polygon fill="#E5F4F9" points="664.4,979 664.4,1016.8 727.3,979 				"/>
				<polygon fill="#E5F4F9" points="744.7,980 744.7,1017.8 807.6,980 				"/>
				<polygon fill="#E5F4F9" points="843.5,981 843.5,1018.8 906.4,981 				"/>
				<polygon fill="#E5F4F9" points="663,1176.2 663,1214 725.9,1176.2 				"/>
				<polygon fill="#E5F4F9" points="743.3,1177.2 743.3,1215 806.2,1177.2 				"/>
				<polygon fill="#E5F4F9" points="842.2,1178.2 842.2,1216 905.1,1178.2 				"/>
				<polygon fill="#E5F4F9" points="273.7,367 273.7,430.9 542.4,367 				"/>
				<polygon fill="#E5F4F9" points="275,468 275,531.9 543.7,468 				"/>
				<polygon fill="#E5F4F9" points="278.4,576.4 278.4,640.4 547.1,576.4 				"/>
				<polygon fill="#E5F4F9" points="279.7,692.2 279.7,756.1 548.4,692.2 				"/>
				<polygon fill="#E5F4F9" points="281.1,797.3 281.1,861.2 549.8,797.3 				"/>
				<polygon opacity="0.76" fill="#EC6C4B" points="932,1166.5 655.2,1166.6 655.2,1046.1 932,1046.1 				"/>
				<rect x="209.2" y="944" fill="#E8D0BA" width="414.3" height="43.7"/>
				<polygon fill="#EAD5C7" points="621.9,945.5 206.8,945.5 268.3,897.3 572.2,897.3 				"/>
			</g>
		</g>
	</g>
	<g>
		<g>
			<g>
				<g>
					<path fill="#EC6C4B" d="M857.4,862.5h7.6c-3.1,7.7-5.7,15.5-9,26.1h-7.7C851.7,879.8,854.7,871.1,857.4,862.5z"/>
					<polygon fill="#EC6C4B" points="866.4,858.3 859,858.3 860.7,853.4 868.1,853.4 					"/>
					<path fill="#EC6C4B" d="M827.1,862.3h7.6c-3.1,7.7-5.7,15.5-9,26H818C821.4,879.8,824.3,871.1,827.1,862.3z"/>
					<polygon fill="#EC6C4B" points="836.1,858.3 828.7,858.3 830.4,853.4 838,853.4 					"/>
					<path fill="#EC6C4B" d="M694.3,882.7l-2.2,5.7l-24.4-0.2c4.8-11.6,8.8-23.2,12.5-35h8.2c-1.2,3.1-8.4,22.7-10.5,29.4h6.3
						C687.6,882.9,691,882.9,694.3,882.7z"/>
					<path fill="#EC6C4B" d="M902.9,884.1l-2.6,4.5c-1.7,0.3-3.2,0.5-4.9,0.5c-8.4,0-7.7-5.1-7-7.4c3.2-10.7,20.6-7.1,22.3-12.8
						c0.8-2.5-2-2.9-3.9-2.9c-3.6,0-7.3,0.9-10.8,2.2l2.3-4.8c4-0.9,7.9-1.5,11.8-1.5c4.6,0,9.7,1.1,8,6.8c-1.1,3.7-4.6,12.1-7,20
						h-7.3c0.9-2.3,1.9-4.6,5.1-13.5c-3.4,2.5-12.1,2.2-13.6,6.8c-0.8,2.5,1.4,3.1,3.4,3.1C900,884.9,901.4,884.6,902.9,884.1z"/>
					<path fill="#EC6C4B" d="M873.5,862.5v19.3l13.5-19.2h7.6c-6.7,8.7-13.3,17.3-19.6,26H867c-0.2-8.8-0.6-17.3-1.1-26.1H873.5z"/>
					<path fill="#EC6C4B" d="M852.8,867.7h-6.5c-0.8,2.2-3.7,10.2-4.3,12.1c-0.6,2.2-0.8,4,1.5,4c2,0,3.1-0.3,4.3-0.6l-2.6,5.4
						c-2.2,0.5-4.2,0.8-6,0.8c-4.9,0-6.8-1.7-5.3-6.8c0.8-2.6,4.9-13.6,5.4-14.8h-3.7l1.9-5.1h3.9l1.7-4.8l7.1-1.4l-2.2,6.2h6.5
						L852.8,867.7z"/>
					<path fill="#EC6C4B" d="M795.7,888.5l1.2-5.7c2.2,0.9,4.3,2,6.8,2c1.5,0,4.2-0.5,4.8-2.6c1.1-3.7-7.9-6.7-6-12.7
						c1.4-4.3,5.3-7.1,12.1-7.1c2.6,0,5.1,0.3,7.4,0.9l-1.4,5.4c-1.4-0.8-3.1-1.4-5.3-1.4s-4.5,0.2-5.1,2.5c-0.9,3.2,7.9,6.5,5.9,13
						c-1.7,5.4-8.2,7.1-12.5,7.1C801,889.5,798.2,889.1,795.7,888.5z"/>
					<path fill="#EC6C4B" d="M751.8,874.1l0.3-5.1c0.9,0.2,1.9,0.3,2.8,0.3c4.8,0,7.9-2.2,9.1-6c1.1-3.4-0.5-4.3-4.2-4.3
						c-1.9,0-3.7,0.2-5.7,0.3c-1.2,3.4-7.3,20.9-10.1,29.5h-7.6c2.6-6,9.6-26.3,12.2-35l16.5,0.2c7,0,7.3,5.6,6.2,9.1
						c-2.3,7.3-9.3,11.3-16.1,11.3C754.3,874.4,753,874.2,751.8,874.1z"/>
					<path fill="#EC6C4B" d="M710.8,884.3l-2.6,4.5c-1.7,0.3-3.2,0.5-4.9,0.5c-8.4,0-7.7-5.1-7-7.4c3.2-10.7,20.6-7.1,22.3-12.8
						c0.8-2.5-1.9-2.9-3.9-2.9c-3.6,0-7.3,0.9-10.8,2.2l2.3-4.9c4-0.9,7.9-1.5,11.8-1.5c4.6,0,9.7,1.1,8,6.8
						c-1.1,3.7-4.6,12.1-7.1,19.8h-7.3c0.9-2.3,1.9-4.6,5.1-13.5c-3.4,2.3-12.1,2.2-13.6,6.8c-0.8,2.5,1.4,3.1,3.4,3.1
						C707.9,885.1,709.3,884.7,710.8,884.3z"/>
					<g>
						<g>
							<path fill="#EC6C4B" d="M787.7,862.2c-8.7,0-16.4,5.3-19.2,14.2c-1.7,5.7-0.6,13,9.9,13c12.1,0,17.5-9,19-14.1
								C800.2,867,795.9,862.2,787.7,862.2z M786.1,867.3c4.8,0,5.6,3.6,4.2,7.9c-1.4,4.6-4.9,9.1-10.2,9.1c-4.5,0-5.7-3.6-4.3-7.7
								C777.2,871.8,780.6,867.3,786.1,867.3z"/>
						</g>
						<g>
							<path fill="#EC6C4B" d="M710.8,884.3c-1.4,0.5-2.9,0.8-4.3,0.8c-2.2,0-4.2-0.6-3.4-3.1c1.4-4.6,10.1-4.3,13.6-6.8
								c-3.2,8.8-4,11.1-5.1,13.5h7.3c2.5-7.9,5.9-16.1,7-19.8c1.7-5.7-3.4-6.8-8-6.8c-3.9,0-7.7,0.6-11.8,1.5l-2.3,4.9
								c3.6-1.2,7.4-2.2,10.8-2.2c2,0,4.6,0.3,3.9,2.9c-1.7,5.7-19,2.2-22.4,12.8c-0.8,2.3-1.4,7.4,7,7.4c1.7,0,3.2-0.2,4.9-0.5
								L710.8,884.3z"/>
						</g>
						<g>
							<path fill="#EC6C4B" d="M751.8,874.1c1.2,0.2,2.5,0.3,3.7,0.3c7,0,13.8-4,16.1-11.3c1.1-3.7,0.8-9.1-6.2-9.1l-16.5-0.2
								c-2.8,8.8-9.7,28.9-12.2,35h7.6c2.8-8.8,8.8-26.3,10.1-29.5c2-0.2,3.7-0.3,5.7-0.3c3.7,0,5.3,0.9,4.2,4.3
								c-1.2,3.9-4.3,6-9.1,6c-0.9,0-1.9-0.2-2.8-0.3L751.8,874.1z"/>
						</g>
						<g>
							<path fill="#EC6C4B" d="M795.7,888.5c2.5,0.6,5.1,1.1,8,1.1c4.3,0,10.8-1.7,12.5-7.1c2-6.5-7-9.6-5.9-13
								c0.8-2.3,2.9-2.5,5.1-2.5c2,0,3.7,0.6,5.3,1.4l1.4-5.4c-2.5-0.5-4.9-0.8-7.4-0.8c-6.8,0-10.7,2.9-12.1,7.1
								c-1.9,6,7.1,9,6,12.7c-0.6,2.2-3.2,2.8-4.8,2.8c-2.6,0-4.8-0.9-6.8-2L795.7,888.5z"/>
						</g>
						<g>
							<path fill="#EC6C4B" d="M852.8,867.7l1.9-5.1h-6.5l2.2-6.2l-7.1,1.4l-1.7,4.8h-3.9l-1.9,5.1h3.7c-0.5,1.2-4.6,12.1-5.4,14.8
								c-1.5,5.1,0.3,6.8,5.3,6.8c2,0,4-0.3,6-0.8l2.6-5.4c-1.4,0.3-2.3,0.6-4.3,0.6c-2.3,0-2.2-1.9-1.5-4c0.6-1.9,3.6-9.7,4.3-12.1
								H852.8z"/>
						</g>
						<g>
							<path fill="#EC6C4B" d="M873.5,862.5h-7.4c0.3,8.7,0.9,17.3,1.1,26.1h7.9c6.3-8.8,13-17.5,19.6-26h-7.6l-13.3,19.2h-0.2
								v-19.3H873.5z"/>
						</g>
						<g>
							<path fill="#EC6C4B" d="M902.9,884.1c-1.4,0.5-2.9,0.8-4.3,0.8c-2,0-4.2-0.6-3.4-3.1c1.4-4.6,10.1-4.3,13.6-6.8
								c-3.2,8.8-4,11.1-5.1,13.5h7.3c2.5-7.9,5.9-16.2,7.1-20c1.7-5.7-3.4-6.8-8-6.8c-3.9,0-7.7,0.6-11.8,1.5L896,868
								c3.6-1.2,7.4-2.2,10.8-2.2c2,0,4.6,0.5,3.9,2.9c-1.7,5.7-19,2.2-22.3,12.8c-0.8,2.3-1.4,7.4,7,7.4c1.7,0,3.2-0.2,4.9-0.5
								L902.9,884.1z"/>
						</g>
						<g>
							<path fill="#EC6C4B" d="M694.3,882.9c-3.4,0.2-6.7,0.2-10.1,0.2h-6.3c2.3-6.7,9.4-26.3,10.5-29.4h-8.2
								c-3.9,11.8-7.9,23.4-12.5,35l24.4,0.2L694.3,882.9z"/>
						</g>
						<g>
							<polygon fill="#EC6C4B" points="836.1,858.3 837.8,853.4 830.4,853.4 828.7,858.3 							"/>
						</g>
						<g>
							<path fill="#EC6C4B" d="M827.1,862.3c-2.8,8.7-5.7,17.5-9.3,26.1h7.7c3.2-10.5,6-18.3,9.1-26.1H827.1z"/>
						</g>
						<g>
							<polygon fill="#EC6C4B" points="866.4,858.3 868.1,853.4 860.5,853.4 859,858.3 							"/>
						</g>
						<g>
							<path fill="#EC6C4B" d="M857.4,862.5c-2.8,8.7-5.7,17.5-9.3,26h7.7c3.4-10.5,6-18.3,9.1-26.1L857.4,862.5z"/>
						</g>
					</g>
				</g>
				<g>
					<path fill="#EC6C4B" d="M868.1,933.9c-90.6,7.3-169.4-6.7-199.8-32.3c0.2,0.2,0.2,0.5,0.3,0.6c43,35.1,133.6,55.4,238.5,50
						l4.9-23.5C898,931.1,883.3,932.9,868.1,933.9z"/>
				</g>
				<path fill="#EC6C4B" d="M823.4,900.1l-0.8,2.9c-0.9-0.5-2-0.8-3.2-0.8c-1.5,0-2.9,0.8-3.4,1.9c-0.9,2.6,4.8,4.3,3.4,8.4
					c-0.6,1.9-2.9,4.5-7.6,4.5c-1.5,0-3.1-0.3-4.5-0.6l0.9-3.1c1.1,0.6,2.5,1.1,4,1.1c1.2,0,2.9-0.5,3.4-1.9
					c0.9-2.6-4.8-4.5-3.2-8.5c1.1-2.9,4.5-4.3,7.4-4.3C821.1,899.6,822.3,899.8,823.4,900.1 M860.1,916.8l0.6-2
					c-1.5,1.7-3.4,2.3-5.4,2.3c-2.5,0-4.2-1.1-3.1-3.9c0.8-2.2,2-4.6,3.7-9h3.6c-0.5,0.9-2.6,5.9-3.2,7.3c-0.6,1.7-0.2,2.6,1.5,2.6
					c1.9,0,3.2-1.2,4.3-2.9c0.9-1.7,2.5-5.7,2.9-7.1h3.6c-1.9,4.2-3.7,8.4-5.3,12.5h-3.2V916.8z M875.2,904.2l-0.6,1.7
					c1.2-1.2,2.5-2,4.2-2c0.3,0,0.8,0,1.1,0.2l-0.9,2.9c-0.5-0.2-0.8-0.3-1.2-0.3c-1.9,0-3.2,1.2-4.3,2.9c-0.8,1.4-1.7,4-2.3,5.4
					l-0.6,1.5h-3.6c1.5-3.6,3.1-7,5.1-12.5h3.2V904.2z M891.5,916.5l0.8-2.8c0.9,0.5,2,0.9,3.2,0.9c0.8,0,2-0.3,2.3-1.2
					c0.6-1.7-3.6-3.1-2.5-6c0.8-2,2.6-3.4,6-3.4c1.2,0,2.5,0.2,3.6,0.3l-0.8,2.6c-0.8-0.3-1.5-0.6-2.5-0.6c-1.1,0-2.2,0.2-2.5,1.2
					c-0.6,1.5,3.6,3.1,2.5,6.2c-0.9,2.6-4.2,3.4-6.2,3.4C893.9,917.1,892.7,916.8,891.5,916.5 M848.3,906.6
					c-0.6-0.2-1.2-0.2-1.9-0.2c-4.3,0-6,3.4-6.5,4.8c-0.8,2-0.2,3.2,1.9,3.2c1.9,0,3.6-1.5,4.5-3.4
					C847.1,909.6,847.7,908.1,848.3,906.6 M833.9,922l0.8-2.8c1.4,0.6,2.8,0.9,4.5,0.9c3.7,0,4.6-2.8,5.7-5.6
					c-1.5,1.4-3.4,2.2-5.1,2.2c-3.4,0-4.6-2.2-3.4-5.4c0.8-2.2,3.7-7.4,11.1-7.4c1.9,0,3.6,0.3,5.1,0.6c-1.2,2.6-3.2,7.3-5.4,13
					c-1.5,4-4.3,5.1-8,5.1C837.3,922.6,835.5,922.3,833.9,922 M826.7,908.9h5.7c0.8-1.9,0.5-2.9-1.5-2.9
					C829.1,905.9,827.4,907.3,826.7,908.9 M834.9,910.6h-9l-0.2,0.5c-0.9,2.3,0.3,3.7,2.5,3.7c1.4,0,2.9-0.3,4.5-0.8l-1.4,2.6
					c-1.4,0.3-2.9,0.5-4.2,0.5c-6.5,0-5.4-4.3-4.6-6.2c0.8-2.3,3.4-7,9.3-7c3.4,0,5.1,1.7,3.9,5.3
					C835.3,909.6,835.2,910.3,834.9,910.6 M886.5,906.4c-2.6,0-4.3,2.2-5.3,4.5c-0.8,2-0.3,3.7,1.9,3.7c2.5,0,4.3-2.2,5.1-4.3
					C889,908.1,888.7,906.4,886.5,906.4 M887.4,903.9c3.9,0,5.9,2.3,4.3,6.3c-0.9,2.5-3.9,6.8-9.6,6.8c-5.1,0-5.4-3.6-4.3-6.2
					C879.4,906.4,883.3,903.9,887.4,903.9"/>
			</g>
		</g>
	</g>
</g>
</svg>
