<?xml version="1.0" encoding="utf-8"?>
<!-- Generator: Adobe Illustrator 18.0.0, SVG Export Plug-In . SVG Version: 6.00 Build 0)  -->
<!DOCTYPE svg PUBLIC "-//W3C//DTD SVG 1.1//EN" "http://www.w3.org/Graphics/SVG/1.1/DTD/svg11.dtd">
<svg version="1.1" xmlns="http://www.w3.org/2000/svg" xmlns:xlink="http://www.w3.org/1999/xlink" x="0px" y="0px"
	 viewBox="0 0 1000 800" enable-background="new 0 0 1000 800" xml:space="preserve">
<g id="Capa_1">
</g>
<g id="Capa_2">
	<g>
		<g>
			<polygon fill="#E2B85A" points="900.6,177.1 99.5,177.1 174.3,87.6 824,87.6 			"/>
			<polyline fill="#DEF0F7" stroke="#D1D1D1" stroke-width="8.6777" stroke-miterlimit="10" points="190.8,334.7 190.8,257.8 
				304.9,257.8 304.9,334.7 			"/>
			<rect x="187.1" y="319.7" fill="#CCC8B8" width="122" height="15.5"/>
			<rect x="99.2" y="177.1" fill="#F3D276" width="801.3" height="622.9"/>
			<g>
				<polyline fill="#DEF0F7" stroke="#D1D1D1" stroke-width="8.6777" stroke-miterlimit="10" points="203.1,177.7 203.1,461.9 
					602.8,461.9 602.8,177.7 				"/>
			</g>
			<rect x="72.6" y="118.2" fill="#F3D276" width="838.8" height="28"/>
			<polygon fill="#EFC65F" points="911.4,118.2 72.6,118.2 142,52.7 812.1,52.8 			"/>
			<polygon fill="#DBBA6E" points="148.7,390.2 169.5,377.2 207.1,377.2 195,390.2 			"/>
			<polygon fill="#DBBA6E" points="656.2,390.2 635.5,377.2 597.9,377.2 609.9,390.2 			"/>
			<polygon fill="#D1B169" points="195,390.2 194.8,451.2 205.9,432.4 206.1,377.7 			"/>
			<polygon fill="#D1B169" points="609.4,389.9 609.6,450.9 598.5,432.1 598.3,377.3 			"/>
			<polygon fill="#CDAB66" points="610.2,421 195.1,421 205.7,410.4 598.6,410.4 			"/>
			<path fill="#6EB52C" d="M258.2,383.9c0,0-2.9-24.6,3.1-36.4c4.1-8,26.5-23.4,26.5-23.4s0.9,21.1-2.7,32.3
				C280.8,370.2,258.2,383.9,258.2,383.9z"/>
			<path fill="#6EB52C" d="M254.2,382.2c0,0-12-21.7-10.9-34.9c0.8-9,15.7-31.7,15.7-31.7s8.8,19.2,9.8,30.9
				C269.9,360.9,254.2,382.2,254.2,382.2z"/>
			<path fill="#6EB52C" d="M251.6,388c0,0-19.2-15.7-23.1-28.3c-2.6-8.6,2.8-35.2,2.8-35.2s15.3,14.5,20.6,25.1
				C258.3,362.4,251.6,388,251.6,388z"/>
			<path fill="#C7C6C6" d="M276.8,414.6h-39.5c-2.2,0-4.1-1.5-4.6-3.7l-8.8-39.4h63.6l-6.1,39.1
				C281.1,412.9,279.1,414.6,276.8,414.6z"/>
			
				<rect x="663.6" y="219.5" fill="#DEF0F7" stroke="#D1D1D1" stroke-width="8.6777" stroke-miterlimit="10" width="182.2" height="135"/>
			<rect x="99.3" y="454" opacity="0.27" fill="#F3D276" width="800.4" height="7.7"/>
			<rect x="148.7" y="390.2" fill="#E5C573" width="46.3" height="90.6"/>
			<rect x="609.6" y="390.2" fill="#E5C573" width="46.3" height="90.6"/>
			<rect x="188" y="420.9" fill="#E5C573" width="430.6" height="59.9"/>
			<rect x="394.3" y="177.4" opacity="0.41" fill="#CAC9C9" width="5.8" height="233"/>
			<path opacity="0.41" fill="#CAC9C9" d="M418.8,330.9L418.8,330.9c-1,0-1.8-0.8-1.8-1.7v-15.6c0-1,0.8-1.7,1.7-1.7h0
				c1,0,1.7,0.8,1.7,1.7v15.6C420.5,330.1,419.7,330.9,418.8,330.9z"/>
			<path opacity="0.41" fill="#CAC9C9" d="M374.2,329.7L374.2,329.7c-1,0-1.8-0.8-1.8-1.7v-15.6c0-1,0.8-1.7,1.7-1.7h0
				c1,0,1.7,0.8,1.7,1.7V328C375.9,328.9,375.1,329.7,374.2,329.7z"/>
			<rect x="99.6" y="745" opacity="0.47" fill="#8E867D" width="798.3" height="54.5"/>
			<polyline fill="#CCC3BA" stroke="#AAA6A4" stroke-width="5.7851" stroke-miterlimit="10" points="300.2,799.6 300.2,532.4 
				501.8,532.4 501.8,799.6 			"/>
			<rect x="285" y="524.2" fill="#A59C93" width="229.2" height="25.7"/>
			<path opacity="0.26" fill="#8E867D" d="M485.3,686.7h-0.1c-2.5,0-4.4-2-4.4-4.4v-21.3c0-2.5,2-4.4,4.4-4.4h0.1
				c2.5,0,4.4,2,4.4,4.4v21.3C489.7,684.7,487.7,686.7,485.3,686.7z"/>
			<rect x="329.1" y="572.1" opacity="0.26" fill="#8E867D" width="140.1" height="97.1"/>
			<rect x="331.5" y="679.6" opacity="0.26" fill="#8E867D" width="140.1" height="97.1"/>
		</g>
	</g>
</g>
</svg>
