<?xml version="1.0" encoding="utf-8"?>
<!-- Generator: Adobe Illustrator 18.0.0, SVG Export Plug-In . SVG Version: 6.00 Build 0)  -->
<!DOCTYPE svg PUBLIC "-//W3C//DTD SVG 1.1//EN" "http://www.w3.org/Graphics/SVG/1.1/DTD/svg11.dtd">
<svg version="1.1" xmlns="http://www.w3.org/2000/svg" xmlns:xlink="http://www.w3.org/1999/xlink" x="0px" y="0px"
	 viewBox="0 0 500 1100" enable-background="new 0 0 500 1100" xml:space="preserve">
<g id="Capa_1">
</g>
<g id="Capa_2">
	<g>
		<g>
			<polygon fill="#DCDEE2" points="500.2,58.3 0.1,58.2 36.8,34.6 467.4,35.4 			"/>
			<polygon fill="#E2E2E1" points="499.7,1099.9 0,1099.9 0.9,229.7 499.7,229.7 			"/>
			<rect x="-0.1" y="1054.3" opacity="0.65" fill="#D7D7D7" width="500.4" height="45.8"/>
			<rect x="0.7" y="57.4" fill="#CCCFD8" width="500" height="297.4"/>
			<g>
				<rect x="91" y="794.4" fill="#C4C4C4" width="331.9" height="302.9"/>
				<polyline fill="#DEF0F7" stroke="#D1D1D1" stroke-width="7.1411" stroke-miterlimit="10" points="78,1099.3 78,792 436.8,792 
					436.8,1099.3 				"/>
				<rect x="72.6" y="778.3" fill="#AFAFAF" width="370.6" height="61"/>
				<rect x="248.1" y="838.8" opacity="0.45" fill="#AFCCDB" width="14" height="261.2"/>
				<rect x="81.6" y="1091.1" fill="#AFCCDB" width="351.7" height="8.3"/>
				<polygon opacity="0.29" fill="#207DBD" points="280.3,858.8 412.5,858.6 412.8,1072.5 				"/>
				<polygon opacity="0.29" fill="#207DBD" points="235.3,1077.2 101.5,1077.2 101.5,857.1 				"/>
				<polygon opacity="0.29" fill="#207DBD" points="180.5,856.3 230.9,922.3 230.9,856.1 				"/>
				<polygon opacity="0.29" fill="#207DBD" points="337.1,1073.8 287.5,1007.2 286.7,1073.4 				"/>
			</g>
			<rect x="72.1" y="418.5" fill="#DEF0F7" width="368.8" height="86.5"/>
			<rect x="72.1" y="540.1" fill="#DEF0F7" width="368.8" height="86.5"/>
			<rect x="72.1" y="652.9" fill="#DEF0F7" width="368.8" height="86.5"/>
			<polygon opacity="0.3" fill="#44B9B9" points="422.1,487.9 96.2,487.9 96.2,437.3 			"/>
			<polygon opacity="0.3" fill="#44B9B9" points="435.2,610.5 109.2,610.5 109.2,559.9 			"/>
			<polygon opacity="0.3" fill="#44B9B9" points="435.2,723.3 109.2,723.3 109.2,672.7 			"/>
			<rect x="66.6" y="411.3" fill="#AFAFAF" width="376.7" height="12.4"/>
			<rect x="69" y="534.9" fill="#AFAFAF" width="374.8" height="12.4"/>
			<rect x="68" y="647.7" fill="#AFAFAF" width="374.8" height="12.4"/>
		</g>
	</g>
</g>
</svg>
