<?xml version="1.0" encoding="utf-8"?>
<!-- Generator: Adobe Illustrator 18.0.0, SVG Export Plug-In . SVG Version: 6.00 Build 0)  -->
<!DOCTYPE svg PUBLIC "-//W3C//DTD SVG 1.1//EN" "http://www.w3.org/Graphics/SVG/1.1/DTD/svg11.dtd">
<svg version="1.1" xmlns="http://www.w3.org/2000/svg" xmlns:xlink="http://www.w3.org/1999/xlink" x="0px" y="0px"
	 viewBox="0 0 600 800" enable-background="new 0 0 600 800" xml:space="preserve">
<g id="Capa_1">
</g>
<g id="Capa_2">
	<g>
		<g>
			<rect x="0.9" y="217" fill="#E2E2E1" width="598" height="582.8"/>
			<polygon fill="#EAEAEA" points="71.2,76.3 523.6,76 600,154.4 0,154.4 			"/>
			<rect x="0.9" y="154.4" fill="#DBDBDB" width="599.1" height="63.4"/>
			
				<rect x="80.6" y="223.7" fill="#7777B7" stroke="#FFFFFF" stroke-width="4.762" stroke-miterlimit="10" width="71.5" height="333.8"/>
			<polygon opacity="0.24" fill="#7777B7" points="148.5,279.2 86.4,279.2 86.4,235.6 			"/>
			
				<rect x="200.6" y="223.7" fill="#7777B7" stroke="#FFFFFF" stroke-width="4.762" stroke-miterlimit="10" width="71.5" height="333.8"/>
			
				<rect x="320.6" y="223.7" fill="#7777B7" stroke="#FFFFFF" stroke-width="4.762" stroke-miterlimit="10" width="71.5" height="333.8"/>
			
				<rect x="440.6" y="223.7" fill="#7777B7" stroke="#FFFFFF" stroke-width="4.762" stroke-miterlimit="10" width="71.5" height="333.8"/>
			<polygon opacity="0.24" fill="#7777B7" points="148.5,344.5 86.4,344.5 86.4,300.9 			"/>
			<polygon opacity="0.29" fill="#207DBD" points="148.5,409.9 86.4,409.9 86.4,366.2 			"/>
			<polygon opacity="0.29" fill="#207DBD" points="148.5,476.5 86.4,476.5 86.4,432.9 			"/>
			<polygon opacity="0.24" fill="#7777B7" points="148.5,545.8 86.4,545.8 86.4,502.2 			"/>
			<polygon opacity="0.24" fill="#7777B7" points="268.4,279.2 206.3,279.2 206.3,235.6 			"/>
			<polygon opacity="0.24" fill="#7777B7" points="268.4,344.5 206.3,344.5 206.3,300.9 			"/>
			<polygon opacity="0.29" fill="#207DBD" points="268.4,409.9 206.3,409.9 206.3,366.2 			"/>
			<polygon opacity="0.29" fill="#207DBD" points="268.4,476.5 206.3,476.5 206.3,432.9 			"/>
			<polygon opacity="0.24" fill="#7777B7" points="268.4,545.8 206.3,545.8 206.3,502.2 			"/>
			<polygon opacity="0.24" fill="#7777B7" points="388.4,279.2 326.3,279.2 326.3,235.6 			"/>
			<polygon opacity="0.24" fill="#7777B7" points="388.4,344.5 326.3,344.5 326.3,300.9 			"/>
			<polygon opacity="0.29" fill="#207DBD" points="388.4,409.9 326.3,409.9 326.3,366.2 			"/>
			<polygon opacity="0.29" fill="#207DBD" points="388.4,476.5 326.3,476.5 326.3,432.9 			"/>
			<polygon opacity="0.24" fill="#7777B7" points="388.4,545.8 326.3,545.8 326.3,502.2 			"/>
			<polygon opacity="0.24" fill="#7777B7" points="507.1,279.2 445,279.2 445,235.6 			"/>
			<polygon opacity="0.29" fill="#207DBD" points="507.1,409.9 445,409.9 445,366.2 			"/>
			<polygon opacity="0.29" fill="#207DBD" points="507.1,476.5 445,476.5 445,432.9 			"/>
			<polygon opacity="0.24" fill="#7777B7" points="507.1,545.8 445,545.8 445,502.2 			"/>
			<polyline fill="#DEF0F7" stroke="#D1D1D1" stroke-width="8.5717" stroke-miterlimit="10" points="152.6,799.7 152.6,614.3 
				437.9,614.3 437.9,799.8 			"/>
			<rect x="75.8" y="216.8" fill="#AFAFAF" width="80" height="11"/>
			<rect x="195.4" y="215.8" fill="#AFAFAF" width="80" height="11"/>
			<rect x="316.1" y="216.1" fill="#AFAFAF" width="80" height="11"/>
			<rect x="435.7" y="216.1" fill="#AFAFAF" width="80" height="11"/>
			<rect x="0.2" y="735.3" opacity="0.65" fill="#D7D7D7" width="158.5" height="64.7"/>
			<rect x="433.4" y="734.8" opacity="0.65" fill="#D7D7D7" width="167.1" height="64.7"/>
			<rect x="290.4" y="620.6" opacity="0.45" fill="#AFCCDB" width="12" height="179.3"/>
			<rect x="158.4" y="792.7" fill="#AFCCDB" width="274.9" height="7.2"/>
			<polygon opacity="0.29" fill="#207DBD" points="279.3,783.6 171,783.6 171,631.1 			"/>
			<polygon opacity="0.29" fill="#207DBD" points="313.5,631.1 421.9,631 422.1,783.5 			"/>
			<polygon opacity="0.29" fill="#207DBD" points="238.5,631.3 281.9,688.2 281.9,631.1 			"/>
			<polygon opacity="0.29" fill="#207DBD" points="358.2,783.1 315.5,725.7 314.9,782.8 			"/>
		</g>
	</g>
</g>
</svg>
