<?xml version="1.0" encoding="utf-8"?>
<!-- Generator: Adobe Illustrator 18.0.0, SVG Export Plug-In . SVG Version: 6.00 Build 0)  -->
<!DOCTYPE svg PUBLIC "-//W3C//DTD SVG 1.1//EN" "http://www.w3.org/Graphics/SVG/1.1/DTD/svg11.dtd">
<svg version="1.1" id="Capa_1" xmlns="http://www.w3.org/2000/svg" xmlns:xlink="http://www.w3.org/1999/xlink" x="0px" y="0px"
	 viewBox="0 0 1400 900" enable-background="new 0 0 1400 900" xml:space="preserve">
<g>
	<rect x="1824.1" y="280.8" fill="#FFFFFF" stroke="#000000" stroke-miterlimit="10" width="100" height="100"/>
	<rect x="1924.1" y="280.8" fill="#FFFFFF" stroke="#000000" stroke-miterlimit="10" width="100" height="100"/>
	<rect x="2024.1" y="280.8" fill="#FFFFFF" stroke="#000000" stroke-miterlimit="10" width="100" height="100"/>
	<rect x="2124.1" y="280.8" fill="#FFFFFF" stroke="#000000" stroke-miterlimit="10" width="100" height="100"/>
	<rect x="2224.1" y="280.8" fill="#FFFFFF" stroke="#000000" stroke-miterlimit="10" width="100" height="100"/>
	<rect x="2324.1" y="280.8" fill="#FFFFFF" stroke="#000000" stroke-miterlimit="10" width="100" height="100"/>
	<rect x="2424.1" y="280.8" fill="#FFFFFF" stroke="#000000" stroke-miterlimit="10" width="100" height="100"/>
	<rect x="2524.1" y="280.8" fill="#FFFFFF" stroke="#000000" stroke-miterlimit="10" width="100" height="100"/>
	<rect x="2624.1" y="280.8" fill="#FFFFFF" stroke="#000000" stroke-miterlimit="10" width="100" height="100"/>
	<rect x="2724.1" y="280.8" fill="#FFFFFF" stroke="#000000" stroke-miterlimit="10" width="100" height="100"/>
	<rect x="2824.1" y="280.8" fill="#FFFFFF" stroke="#000000" stroke-miterlimit="10" width="100" height="100"/>
	<rect x="2924.1" y="280.8" fill="#FFFFFF" stroke="#000000" stroke-miterlimit="10" width="100" height="100"/>
	<rect x="3024.1" y="280.8" fill="#FFFFFF" stroke="#000000" stroke-miterlimit="10" width="100" height="100"/>
	<rect x="3124.1" y="280.8" fill="#FFFFFF" stroke="#000000" stroke-miterlimit="10" width="100" height="100"/>
	<rect x="1824.1" y="380.8" fill="#FFFFFF" stroke="#000000" stroke-miterlimit="10" width="100" height="100"/>
	<rect x="1924.1" y="380.8" fill="#FFFFFF" stroke="#000000" stroke-miterlimit="10" width="100" height="100"/>
	<rect x="2024.1" y="380.8" fill="#FFFFFF" stroke="#000000" stroke-miterlimit="10" width="100" height="100"/>
	<rect x="2124.1" y="380.8" fill="#FFFFFF" stroke="#000000" stroke-miterlimit="10" width="100" height="100"/>
	<rect x="2224.1" y="380.8" fill="#FFFFFF" stroke="#000000" stroke-miterlimit="10" width="100" height="100"/>
	<rect x="2324.1" y="380.8" fill="#FFFFFF" stroke="#000000" stroke-miterlimit="10" width="100" height="100"/>
	<rect x="2424.1" y="380.8" fill="#FFFFFF" stroke="#000000" stroke-miterlimit="10" width="100" height="100"/>
	<rect x="2524.1" y="380.8" fill="#FFFFFF" stroke="#000000" stroke-miterlimit="10" width="100" height="100"/>
	<rect x="2624.1" y="380.8" fill="#FFFFFF" stroke="#000000" stroke-miterlimit="10" width="100" height="100"/>
	<rect x="2724.1" y="380.8" fill="#FFFFFF" stroke="#000000" stroke-miterlimit="10" width="100" height="100"/>
	<rect x="2824.1" y="380.8" fill="#FFFFFF" stroke="#000000" stroke-miterlimit="10" width="100" height="100"/>
	<rect x="2924.1" y="380.8" fill="#FFFFFF" stroke="#000000" stroke-miterlimit="10" width="100" height="100"/>
	<rect x="3024.1" y="380.8" fill="#FFFFFF" stroke="#000000" stroke-miterlimit="10" width="100" height="100"/>
	<rect x="3124.1" y="380.8" fill="#FFFFFF" stroke="#000000" stroke-miterlimit="10" width="100" height="100"/>
	<rect x="1824.1" y="480.8" fill="#FFFFFF" stroke="#000000" stroke-miterlimit="10" width="100" height="100"/>
	<rect x="1924.1" y="480.8" fill="#FFFFFF" stroke="#000000" stroke-miterlimit="10" width="100" height="100"/>
	<rect x="2024.1" y="480.8" fill="#FFFFFF" stroke="#000000" stroke-miterlimit="10" width="100" height="100"/>
	<rect x="2124.1" y="480.8" fill="#FFFFFF" stroke="#000000" stroke-miterlimit="10" width="100" height="100"/>
	<rect x="2224.1" y="480.8" fill="#FFFFFF" stroke="#000000" stroke-miterlimit="10" width="100" height="100"/>
	<rect x="2324.1" y="480.8" fill="#FFFFFF" stroke="#000000" stroke-miterlimit="10" width="100" height="100"/>
	<rect x="2424.1" y="480.8" fill="#FFFFFF" stroke="#000000" stroke-miterlimit="10" width="100" height="100"/>
	<rect x="2524.1" y="480.8" fill="#FFFFFF" stroke="#000000" stroke-miterlimit="10" width="100" height="100"/>
	<rect x="2624.1" y="480.8" fill="#FFFFFF" stroke="#000000" stroke-miterlimit="10" width="100" height="100"/>
	<rect x="2724.1" y="480.8" fill="#FFFFFF" stroke="#000000" stroke-miterlimit="10" width="100" height="100"/>
	<rect x="2824.1" y="480.8" fill="#FFFFFF" stroke="#000000" stroke-miterlimit="10" width="100" height="100"/>
	<rect x="2924.1" y="480.8" fill="#FFFFFF" stroke="#000000" stroke-miterlimit="10" width="100" height="100"/>
	<rect x="3024.1" y="480.8" fill="#FFFFFF" stroke="#000000" stroke-miterlimit="10" width="100" height="100"/>
	<rect x="3124.1" y="480.8" fill="#FFFFFF" stroke="#000000" stroke-miterlimit="10" width="100" height="100"/>
	<rect x="1824.1" y="580.8" fill="#FFFFFF" stroke="#000000" stroke-miterlimit="10" width="100" height="100"/>
	<rect x="1924.1" y="580.8" fill="#FFFFFF" stroke="#000000" stroke-miterlimit="10" width="100" height="100"/>
	<rect x="2024.1" y="580.8" fill="#FFFFFF" stroke="#000000" stroke-miterlimit="10" width="100" height="100"/>
	<rect x="2124.1" y="580.8" fill="#FFFFFF" stroke="#000000" stroke-miterlimit="10" width="100" height="100"/>
	<rect x="2224.1" y="580.8" fill="#FFFFFF" stroke="#000000" stroke-miterlimit="10" width="100" height="100"/>
	<rect x="2324.1" y="580.8" fill="#FFFFFF" stroke="#000000" stroke-miterlimit="10" width="100" height="100"/>
	<rect x="2424.1" y="580.8" fill="#FFFFFF" stroke="#000000" stroke-miterlimit="10" width="100" height="100"/>
	<rect x="2524.1" y="580.8" fill="#FFFFFF" stroke="#000000" stroke-miterlimit="10" width="100" height="100"/>
	<rect x="2624.1" y="580.8" fill="#FFFFFF" stroke="#000000" stroke-miterlimit="10" width="100" height="100"/>
	<rect x="2724.1" y="580.8" fill="#FFFFFF" stroke="#000000" stroke-miterlimit="10" width="100" height="100"/>
	<rect x="2824.1" y="580.8" fill="#FFFFFF" stroke="#000000" stroke-miterlimit="10" width="100" height="100"/>
	<rect x="2924.1" y="580.8" fill="#FFFFFF" stroke="#000000" stroke-miterlimit="10" width="100" height="100"/>
	<rect x="3024.1" y="580.8" fill="#FFFFFF" stroke="#000000" stroke-miterlimit="10" width="100" height="100"/>
	<rect x="3124.1" y="580.8" fill="#FFFFFF" stroke="#000000" stroke-miterlimit="10" width="100" height="100"/>
	<rect x="1824.1" y="680.8" fill="#FFFFFF" stroke="#000000" stroke-miterlimit="10" width="100" height="100"/>
	<rect x="1924.1" y="680.8" fill="#FFFFFF" stroke="#000000" stroke-miterlimit="10" width="100" height="100"/>
	<rect x="2024.1" y="680.8" fill="#FFFFFF" stroke="#000000" stroke-miterlimit="10" width="100" height="100"/>
	<rect x="2124.1" y="680.8" fill="#FFFFFF" stroke="#000000" stroke-miterlimit="10" width="100" height="100"/>
	<rect x="2224.1" y="680.8" fill="#FFFFFF" stroke="#000000" stroke-miterlimit="10" width="100" height="100"/>
	<rect x="2324.1" y="680.8" fill="#FFFFFF" stroke="#000000" stroke-miterlimit="10" width="100" height="100"/>
	<rect x="2424.1" y="680.8" fill="#FFFFFF" stroke="#000000" stroke-miterlimit="10" width="100" height="100"/>
	<rect x="2524.1" y="680.8" fill="#FFFFFF" stroke="#000000" stroke-miterlimit="10" width="100" height="100"/>
	<rect x="2624.1" y="680.8" fill="#FFFFFF" stroke="#000000" stroke-miterlimit="10" width="100" height="100"/>
	<rect x="2724.1" y="680.8" fill="#FFFFFF" stroke="#000000" stroke-miterlimit="10" width="100" height="100"/>
	<rect x="2824.1" y="680.8" fill="#FFFFFF" stroke="#000000" stroke-miterlimit="10" width="100" height="100"/>
	<rect x="2924.1" y="680.8" fill="#FFFFFF" stroke="#000000" stroke-miterlimit="10" width="100" height="100"/>
	<rect x="3024.1" y="680.8" fill="#FFFFFF" stroke="#000000" stroke-miterlimit="10" width="100" height="100"/>
	<rect x="3124.1" y="680.8" fill="#FFFFFF" stroke="#000000" stroke-miterlimit="10" width="100" height="100"/>
	<rect x="1824.1" y="780.8" fill="#FFFFFF" stroke="#000000" stroke-miterlimit="10" width="100" height="100"/>
	<rect x="1924.1" y="780.8" fill="#FFFFFF" stroke="#000000" stroke-miterlimit="10" width="100" height="100"/>
	<rect x="2024.1" y="780.8" fill="#FFFFFF" stroke="#000000" stroke-miterlimit="10" width="100" height="100"/>
	<rect x="2124.1" y="780.8" fill="#FFFFFF" stroke="#000000" stroke-miterlimit="10" width="100" height="100"/>
	<rect x="2224.1" y="780.8" fill="#FFFFFF" stroke="#000000" stroke-miterlimit="10" width="100" height="100"/>
	<rect x="2324.1" y="780.8" fill="#FFFFFF" stroke="#000000" stroke-miterlimit="10" width="100" height="100"/>
	<rect x="2424.1" y="780.8" fill="#FFFFFF" stroke="#000000" stroke-miterlimit="10" width="100" height="100"/>
	<rect x="2524.1" y="780.8" fill="#FFFFFF" stroke="#000000" stroke-miterlimit="10" width="100" height="100"/>
	<rect x="2624.1" y="780.8" fill="#FFFFFF" stroke="#000000" stroke-miterlimit="10" width="100" height="100"/>
	<rect x="2724.1" y="780.8" fill="#FFFFFF" stroke="#000000" stroke-miterlimit="10" width="100" height="100"/>
	<rect x="2824.1" y="780.8" fill="#FFFFFF" stroke="#000000" stroke-miterlimit="10" width="100" height="100"/>
	<rect x="2924.1" y="780.8" fill="#FFFFFF" stroke="#000000" stroke-miterlimit="10" width="100" height="100"/>
	<rect x="3024.1" y="780.8" fill="#FFFFFF" stroke="#000000" stroke-miterlimit="10" width="100" height="100"/>
	<rect x="3124.1" y="780.8" fill="#FFFFFF" stroke="#000000" stroke-miterlimit="10" width="100" height="100"/>
	<rect x="1824.1" y="880.8" fill="#FFFFFF" stroke="#000000" stroke-miterlimit="10" width="100" height="100"/>
	<rect x="1924.1" y="880.8" fill="#FFFFFF" stroke="#000000" stroke-miterlimit="10" width="100" height="100"/>
	<rect x="2024.1" y="880.8" fill="#FFFFFF" stroke="#000000" stroke-miterlimit="10" width="100" height="100"/>
	<rect x="2124.1" y="880.8" fill="#FFFFFF" stroke="#000000" stroke-miterlimit="10" width="100" height="100"/>
	<rect x="2224.1" y="880.8" fill="#FFFFFF" stroke="#000000" stroke-miterlimit="10" width="100" height="100"/>
	<rect x="2324.1" y="880.8" fill="#FFFFFF" stroke="#000000" stroke-miterlimit="10" width="100" height="100"/>
	<rect x="2424.1" y="880.8" fill="#FFFFFF" stroke="#000000" stroke-miterlimit="10" width="100" height="100"/>
	<rect x="2524.1" y="880.8" fill="#FFFFFF" stroke="#000000" stroke-miterlimit="10" width="100" height="100"/>
	<rect x="2624.1" y="880.8" fill="#FFFFFF" stroke="#000000" stroke-miterlimit="10" width="100" height="100"/>
	<rect x="2724.1" y="880.8" fill="#FFFFFF" stroke="#000000" stroke-miterlimit="10" width="100" height="100"/>
	<rect x="2824.1" y="880.8" fill="#FFFFFF" stroke="#000000" stroke-miterlimit="10" width="100" height="100"/>
	<rect x="2924.1" y="880.8" fill="#FFFFFF" stroke="#000000" stroke-miterlimit="10" width="100" height="100"/>
	<rect x="3024.1" y="880.8" fill="#FFFFFF" stroke="#000000" stroke-miterlimit="10" width="100" height="100"/>
	<rect x="3124.1" y="880.8" fill="#FFFFFF" stroke="#000000" stroke-miterlimit="10" width="100" height="100"/>
	<rect x="1824.1" y="980.8" fill="#FFFFFF" stroke="#000000" stroke-miterlimit="10" width="100" height="100"/>
	<rect x="1924.1" y="980.8" fill="#FFFFFF" stroke="#000000" stroke-miterlimit="10" width="100" height="100"/>
	<rect x="2024.1" y="980.8" fill="#FFFFFF" stroke="#000000" stroke-miterlimit="10" width="100" height="100"/>
	<rect x="2124.1" y="980.8" fill="#FFFFFF" stroke="#000000" stroke-miterlimit="10" width="100" height="100"/>
	<rect x="2224.1" y="980.8" fill="#FFFFFF" stroke="#000000" stroke-miterlimit="10" width="100" height="100"/>
	<rect x="2324.1" y="980.8" fill="#FFFFFF" stroke="#000000" stroke-miterlimit="10" width="100" height="100"/>
	<rect x="2424.1" y="980.8" fill="#FFFFFF" stroke="#000000" stroke-miterlimit="10" width="100" height="100"/>
	<rect x="2524.1" y="980.8" fill="#FFFFFF" stroke="#000000" stroke-miterlimit="10" width="100" height="100"/>
	<rect x="2624.1" y="980.8" fill="#FFFFFF" stroke="#000000" stroke-miterlimit="10" width="100" height="100"/>
	<rect x="2724.1" y="980.8" fill="#FFFFFF" stroke="#000000" stroke-miterlimit="10" width="100" height="100"/>
	<rect x="2824.1" y="980.8" fill="#FFFFFF" stroke="#000000" stroke-miterlimit="10" width="100" height="100"/>
	<rect x="2924.1" y="980.8" fill="#FFFFFF" stroke="#000000" stroke-miterlimit="10" width="100" height="100"/>
	<rect x="3024.1" y="980.8" fill="#FFFFFF" stroke="#000000" stroke-miterlimit="10" width="100" height="100"/>
	<rect x="3124.1" y="980.8" fill="#FFFFFF" stroke="#000000" stroke-miterlimit="10" width="100" height="100"/>
	<rect x="1824.1" y="1080.8" fill="#FFFFFF" stroke="#000000" stroke-miterlimit="10" width="100" height="100"/>
	<rect x="1924.1" y="1080.8" fill="#FFFFFF" stroke="#000000" stroke-miterlimit="10" width="100" height="100"/>
	<rect x="2024.1" y="1080.8" fill="#FFFFFF" stroke="#000000" stroke-miterlimit="10" width="100" height="100"/>
	<rect x="2124.1" y="1080.8" fill="#FFFFFF" stroke="#000000" stroke-miterlimit="10" width="100" height="100"/>
	<rect x="2224.1" y="1080.8" fill="#FFFFFF" stroke="#000000" stroke-miterlimit="10" width="100" height="100"/>
	<rect x="2324.1" y="1080.8" fill="#FFFFFF" stroke="#000000" stroke-miterlimit="10" width="100" height="100"/>
	<rect x="2424.1" y="1080.8" fill="#FFFFFF" stroke="#000000" stroke-miterlimit="10" width="100" height="100"/>
	<rect x="2524.1" y="1080.8" fill="#FFFFFF" stroke="#000000" stroke-miterlimit="10" width="100" height="100"/>
	<rect x="2624.1" y="1080.8" fill="#FFFFFF" stroke="#000000" stroke-miterlimit="10" width="100" height="100"/>
	<rect x="2724.1" y="1080.8" fill="#FFFFFF" stroke="#000000" stroke-miterlimit="10" width="100" height="100"/>
	<rect x="2824.1" y="1080.8" fill="#FFFFFF" stroke="#000000" stroke-miterlimit="10" width="100" height="100"/>
	<rect x="2924.1" y="1080.8" fill="#FFFFFF" stroke="#000000" stroke-miterlimit="10" width="100" height="100"/>
	<rect x="3024.1" y="1080.8" fill="#FFFFFF" stroke="#000000" stroke-miterlimit="10" width="100" height="100"/>
	<rect x="3124.1" y="1080.8" fill="#FFFFFF" stroke="#000000" stroke-miterlimit="10" width="100" height="100"/>
</g>
<g>
	<g>
		<rect x="297.1" y="188.3" fill="#DCD8CB" width="1001.6" height="710.7"/>
		<rect x="288.4" y="180.2" fill="#B3B2B2" width="1016.5" height="28.1"/>
		<polygon fill="#C1BFB4" points="1304.9,180.2 286.1,181.2 372.6,112.4 1184.6,109.5 		"/>
		<rect x="101.3" y="601.8" fill="#DCD8CB" width="197.2" height="298.2"/>
		<rect x="94.6" y="582.5" fill="#B3B2B2" width="203.1" height="28.1"/>
		<path fill="#E2E2E1" d="M297.4,547.2c-4.6,0.4-109.5,3.2-109.5,3.2l-92.9,32l202.6,0.1L297.4,547.2z"/>
		<rect x="595.2" y="202.6" fill="#D1CFC3" width="397" height="366"/>
		<rect x="577" y="202.4" fill="#C4C2B7" width="21.1" height="673.4"/>
		<rect x="991.7" y="200.9" fill="#C4C2B7" width="21.1" height="673.4"/>
		<polygon fill="#DCD8CB" points="973.5,180.4 992.3,202.4 1013.3,202.4 994.4,180.5 		"/>
		<polygon fill="#A9A9A9" points="1013.3,202.4 577,202.4 586.9,181.1 994.4,180.5 		"/>
		
			<rect x="1058.7" y="265.4" fill="#DEF0F7" stroke="#D1D1D1" stroke-width="8.7142" stroke-miterlimit="10" width="181" height="135.6"/>
		
			<rect x="649.7" y="268.8" fill="#DEF0F7" stroke="#D1D1D1" stroke-width="7.6532" stroke-miterlimit="10" width="290.2" height="61.5"/>
		
			<rect x="648.3" y="377.3" fill="#DEF0F7" stroke="#D1D1D1" stroke-width="7.6532" stroke-miterlimit="10" width="290.2" height="61.5"/>
		
			<rect x="648.3" y="475" fill="#DEF0F7" stroke="#D1D1D1" stroke-width="7.6532" stroke-miterlimit="10" width="290.2" height="61.5"/>
		
			<rect x="314.7" y="234.9" fill="#DEF0F7" stroke="#D1D1D1" stroke-width="11.7972" stroke-miterlimit="10" width="247.4" height="361.6"/>
		
			<rect x="1062.5" y="436.8" fill="#DEF0F7" stroke="#D1D1D1" stroke-width="8.7142" stroke-miterlimit="10" width="181" height="135.6"/>
		
			<rect x="1065.4" y="607.2" fill="#DEF0F7" stroke="#D1D1D1" stroke-width="8.7142" stroke-miterlimit="10" width="181" height="135.6"/>
		<rect x="319.9" y="403.8" opacity="0.45" fill="#AFCCDB" width="235.3" height="6.3"/>
		<rect x="318.2" y="312.3" opacity="0.45" fill="#AFCCDB" width="235.3" height="6.3"/>
		<rect x="318.2" y="505.4" opacity="0.45" fill="#AFCCDB" width="235.3" height="6.3"/>
		<polygon fill="#FFFFFF" points="521.8,303.1 337.3,303.1 337.3,248.4 		"/>
		<polygon fill="#FFFFFF" points="1220.1,380.5 1077,380.5 1077,283.2 		"/>
		<polygon fill="#FFFFFF" points="1225.9,550.9 1082.7,550.9 1082.7,453.6 		"/>
		<polygon fill="#FFFFFF" points="1228.8,720.4 1085.6,720.4 1085.6,623.1 		"/>
		<polygon fill="#FFFFFF" points="525.4,388.8 340.9,388.8 340.9,334.1 		"/>
		<polygon fill="#FFFFFF" points="527.2,484.1 342.6,484.1 342.6,429.4 		"/>
		<polygon fill="#FFFFFF" points="527.2,577.1 342.6,577.1 342.6,522.4 		"/>
		<g>
			<g>
				<g>
					<rect x="1077.2" y="2" fill="#DD4B4B" width="78.8" height="38.3"/>
					<rect x="1103.7" y="1.9" fill="#DEF0F7" width="26.5" height="38.5"/>
				</g>
				<rect x="1077.2" y="40.1" fill="#B3B2B2" width="5.1" height="107.7"/>
			</g>
			<path fill="#B3B2B2" d="M1092.3,153h-24.4v-4.2c0-6.4,5.2-11.6,11.6-11.6h1.3c6.4,0,11.6,5.2,11.6,11.6V153z"/>
		</g>
		<polyline fill="#DEF0F7" stroke="#D1D1D1" stroke-width="7.7296" stroke-miterlimit="10" points="650.7,899.7 650.7,583.4 
			941.5,583.4 941.5,899.7 		"/>
		<g>
			<g>
				<rect x="100.6" y="797.4" fill="#C1BFB4" width="600.2" height="101.7"/>
				<polygon fill="#D1CFC5" points="96.7,797 121.5,787.7 690.9,787.7 700.2,797.9 				"/>
			</g>
			<rect x="124.7" y="731.5" fill="#B2B0A8" width="4.8" height="60"/>
			<rect x="164.3" y="732.5" fill="#B2B0A8" width="4.8" height="60"/>
			<rect x="202.6" y="732.5" fill="#B2B0A8" width="4.8" height="60"/>
			<rect x="240.9" y="732.5" fill="#B2B0A8" width="4.8" height="60"/>
			<rect x="279.2" y="732.5" fill="#B2B0A8" width="4.8" height="60"/>
			<rect x="317.5" y="732.5" fill="#B2B0A8" width="4.8" height="60"/>
			<rect x="355.8" y="732.5" fill="#B2B0A8" width="4.8" height="60"/>
			<rect x="394.1" y="732.5" fill="#B2B0A8" width="4.8" height="60"/>
			<rect x="432.4" y="732.5" fill="#B2B0A8" width="4.8" height="60"/>
			<rect x="470.7" y="732.5" fill="#B2B0A8" width="4.8" height="60"/>
			<rect x="509" y="732.5" fill="#B2B0A8" width="4.8" height="60"/>
			<rect x="547.3" y="732.5" fill="#B2B0A8" width="4.8" height="60"/>
			<rect x="585.6" y="732.5" fill="#B2B0A8" width="4.8" height="60"/>
			<rect x="623.9" y="732.5" fill="#B2B0A8" width="4.8" height="60"/>
			<rect x="662.4" y="732.2" fill="#B2B0A8" width="4.8" height="60"/>
			<rect x="109.9" y="728.6" fill="#B2B0A8" width="589.7" height="5.3"/>
		</g>
		<g>
			<g>
				<rect x="899.5" y="797.9" fill="#C1BFB4" width="400.5" height="101.7"/>
				<polygon fill="#D1CFC5" points="899.2,797.5 919.4,788.2 1291.8,788.2 1299.4,798.4 				"/>
			</g>
			<rect x="923.6" y="733" fill="#B2B0A8" width="4.8" height="60"/>
			<rect x="961.9" y="733" fill="#B2B0A8" width="4.8" height="60"/>
			<rect x="1000.2" y="733" fill="#B2B0A8" width="4.8" height="60"/>
			<rect x="1038.5" y="733" fill="#B2B0A8" width="4.8" height="60"/>
			<rect x="1076.8" y="733" fill="#B2B0A8" width="4.8" height="60"/>
			<rect x="1115.1" y="733" fill="#B2B0A8" width="4.8" height="60"/>
			<rect x="1153.4" y="733" fill="#B2B0A8" width="4.8" height="60"/>
			<rect x="1191.7" y="733" fill="#B2B0A8" width="4.8" height="60"/>
			<rect x="1230" y="733" fill="#B2B0A8" width="4.8" height="60"/>
			<rect x="1268.3" y="733" fill="#B2B0A8" width="4.8" height="60"/>
			<rect x="900.9" y="729.1" fill="#B2B0A8" width="393.1" height="5.3"/>
		</g>
	</g>
</g>
</svg>
