<?xml version="1.0" encoding="utf-8"?>
<!-- Generator: Adobe Illustrator 18.0.0, SVG Export Plug-In . SVG Version: 6.00 Build 0)  -->
<!DOCTYPE svg PUBLIC "-//W3C//DTD SVG 1.1//EN" "http://www.w3.org/Graphics/SVG/1.1/DTD/svg11.dtd">
<svg version="1.1" xmlns="http://www.w3.org/2000/svg" xmlns:xlink="http://www.w3.org/1999/xlink" x="0px" y="0px"
	 viewBox="0 0 200 300" enable-background="new 0 0 200 300" xml:space="preserve">
<g id="Capa_1">
</g>
<g id="Capa_2">
	<g>
		<g>
			<path fill="#FF6371" d="M172.8,283.7H27.6c-8.5,0-15.5-6.9-15.5-15.5V104.6c0-48.6,39.4-88.1,88.1-88.1h0
				c48.6,0,88.1,39.4,88.1,88.1v163.6C188.3,276.8,181.4,283.7,172.8,283.7z"/>
			<g>
				<path fill="#E05A70" d="M59.7,102.4c0-26.9,19.1-49.3,44.5-54.3c-2-0.2-4.1-0.4-6.2-0.4c-30.6,0-55.4,24.8-55.4,55.4
					s24.8,55.4,55.4,55.4c3.7,0,7.3-0.4,10.9-1.1C81.2,154.4,59.7,130.9,59.7,102.4z"/>
				<path opacity="0.47" fill="#8DC47B" d="M153.4,103.1c0-28.5-21.5-52-49.2-55c-25.4,5-44.5,27.4-44.5,54.3
					c0,28.5,21.5,52,49.2,55C134.3,152.4,153.4,130,153.4,103.1z"/>
				<path fill="#B7495C" d="M153.4,103.1c0-28.5-21.5-52-49.2-55c-25.4,5-44.5,27.4-44.5,54.3c0,28.5,21.5,52,49.2,55
					C134.3,152.4,153.4,130,153.4,103.1z"/>
			</g>
		</g>
		<circle fill="#FFFFFF" cx="98.9" cy="216.9" r="39"/>
		<g>
			<path fill="#FF6371" d="M83.8,237.9c-1.8-1.2-4.4-3.2-4.7-4.2c-0.6-2.1,0.7-3.6,0.7-3.6l0,0l0,0c0.1-0.2,11.9-18.9,12.9-20.5
				c0.7-1.1,2.4-1.7,3.6-2.1c0.4-0.1,0.7-0.3,1-0.4c1.7-0.7,3.1-2.7,4.3-4.4c0.2-0.3,0.4-0.6,0.6-0.8c1.3-1.8,4.7-6.2,4.7-6.3
				l0.3-0.4l-0.3-0.4c0,0,0-0.1,0-0.2c0.1-0.2,0.3-0.4,0.6-0.6c1.3-0.9,1.5-1.5,1.4-1.8c0,0,0,0,0,0c0.3,0.1,0.8,0.4,1.7,1
				c0.4,0.3,0.7,0.5,0.7,0.5c0,0,0.3,0.2,0.8,0.5c0.9,0.6,1.4,0.9,1.6,1.1c0,0,0,0,0,0c-0.3,0.1-0.8,0.6-1,2.1
				c-0.1,0.3-0.1,0.6-0.3,0.8c-0.1,0.1-0.1,0.1-0.2,0.1l-0.5-0.1l-0.2,0.4c0,0.1-2.6,5.1-3.6,6.9c-0.2,0.3-0.3,0.6-0.5,0.9
				c-1,1.8-2.2,3.9-2.1,5.8c0,0.3,0,0.6,0.1,1.1c0.1,1.2,0.4,3.1-0.3,4.1c-1,1.6-12.7,20.4-12.8,20.6l0,0l0,0.1
				c0,0.1-0.8,1.8-2.9,2.2C88.6,240.4,85.6,238.9,83.8,237.9z"/>
			<path fill="#FF8594" d="M101.7,205.4c3.2-5.1,5.1-8.1,6.4-9.4c-0.2-0.1-0.4-0.1-0.6,0c-1.2,0.8-2.9,3.2-6.3,8.5
				c-1,1.6-2.1,2.6-1.8,3.7C99.7,207.3,100.9,206.6,101.7,205.4z"/>
			<path fill="#FF8594" d="M94.5,211.2c1.1-1.8,2.8-2.7,4.6-2.5c-2.1-0.5-4.7-0.2-6,1.9c-2.2,3.4-12.9,20.6-12.9,20.6
				s-0.7,1,0.1,2.7C81.8,231.5,92.3,214.7,94.5,211.2z"/>
			<path fill="#FF8594" d="M109.7,193.2c0,0-0.7,0.8-1.4,0.9c-0.7,0.1-0.9,0.9,0,1.5c0,0-0.1-0.7,0.4-1
				C109.3,194.2,109.7,193.2,109.7,193.2z"/>
			<path fill="#E85B6C" d="M100.1,216.5c-0.1,1.3-1,2.4-1.5,3.5c-1.5,3.1-3.2,5.7-5.7,8.2c-1.3,1.3-2.6,2.6-4.2,3.5
				c-1.5,0.9-3.2,1-5,0.8c0.4,0.6,1,1.1,1.7,1.5l1.1,0.7c3,1.9,7.2,0.8,9.2-2.5l4.7-7.5C102.2,222,101.9,218.6,100.1,216.5z"/>
			<g>
				<path fill="#E85B6C" d="M114.3,194.2l-2.2-1.4l-2.2-1.4c0,0-0.6,0.2-1.1,1l2.6,1.6l2.6,1.6C114.4,194.9,114.3,194.2,114.3,194.2
					z"/>
				<path fill="#FF8594" d="M114.1,194.1l-2.1-1.3l-2.2-1.4c0,0-0.1,0-0.3,0.1C109.2,191.5,113.3,194,114.1,194.1z"/>
				<path fill="#FF8594" d="M109.4,191.9c0,0,0.3,0.2,0.1,0.6c-0.1,0.2-0.1,0.4-0.1,0.4s0.4-0.6,0.6-0.5c0.2,0.1,0-0.2-0.2-0.3
					C109.6,191.9,109.3,191.7,109.4,191.9z"/>
				<path fill="#FF8594" d="M110.2,192.4c0,0,0.3,0.2,0.1,0.6c-0.1,0.2-0.1,0.4-0.1,0.4s0.4-0.6,0.6-0.5c0.2,0.1,0-0.2-0.2-0.3
					C110.4,192.4,110.1,192.2,110.2,192.4z"/>
				<path fill="#FF8594" d="M111,192.9c0,0,0.3,0.2,0.1,0.6c-0.1,0.2-0.1,0.4-0.1,0.4s0.4-0.6,0.6-0.5c0.2,0.1,0-0.2-0.2-0.3
					C111.2,193,110.9,192.7,111,192.9z"/>
				<path fill="#FF8594" d="M111.8,193.4c0,0,0.3,0.2,0.1,0.6c-0.1,0.2-0.1,0.4-0.1,0.4s0.4-0.6,0.6-0.5c0.2,0.1,0-0.2-0.2-0.3
					C112,193.5,111.7,193.2,111.8,193.4z"/>
				<path fill="#FF8594" d="M112.6,193.9c0,0,0.3,0.2,0.1,0.6c-0.1,0.2-0.1,0.4-0.1,0.4s0.4-0.6,0.6-0.5c0.2,0.1,0-0.2-0.2-0.3
					C112.9,194,112.6,193.7,112.6,193.9z"/>
				<path fill="#FF8594" d="M113.5,194.4c0,0,0.3,0.2,0.1,0.6c-0.1,0.2-0.1,0.4-0.1,0.4s0.4-0.6,0.6-0.5c0.2,0.1,0-0.2-0.2-0.3
					C113.7,194.5,113.4,194.2,113.5,194.4z"/>
			</g>
		</g>
	</g>
</g>
</svg>
