<?xml version="1.0" encoding="utf-8"?>
<!-- Generator: Adobe Illustrator 18.0.0, SVG Export Plug-In . SVG Version: 6.00 Build 0)  -->
<!DOCTYPE svg PUBLIC "-//W3C//DTD SVG 1.1//EN" "http://www.w3.org/Graphics/SVG/1.1/DTD/svg11.dtd">
<svg version="1.1" xmlns="http://www.w3.org/2000/svg" xmlns:xlink="http://www.w3.org/1999/xlink" x="0px" y="0px"
	 viewBox="0 0 1200 1300" enable-background="new 0 0 1200 1300" xml:space="preserve">
<g id="Capa_1">
	<g>
		<g>
			<g>
				<rect x="100.7" y="264.9" fill="#E8E8E8" width="791.7" height="1033.8"/>
				<rect x="892.4" y="264.9" fill="#D7D7D7" width="207.5" height="1033.8"/>
				<polygon fill="#CECECE" points="1104.2,264.9 96.5,264.9 227.5,184.2 980.3,184.2 				"/>
				<rect x="893.4" y="264.3" fill="#E2E2E1" width="211.4" height="25.6"/>
				<rect x="85.7" y="261.4" fill="#DBDBDB" width="812.8" height="37.5"/>
				<rect x="97.4" y="399.5" fill="#DEF0F7" width="743.7" height="380.5"/>
				<g>
					
						<rect x="932.5" y="343.7" fill="#DEF0F7" stroke="#D1D1D1" stroke-width="8.6463" stroke-miterlimit="10" width="135.1" height="100.1"/>
					<polygon fill="#FFFFFF" points="1053,428.6 946.1,428.6 946.1,356.8 					"/>
				</g>
				<g>
					
						<rect x="932.5" y="476.2" fill="#DEF0F7" stroke="#D1D1D1" stroke-width="8.6463" stroke-miterlimit="10" width="135.1" height="100.1"/>
					<polygon fill="#FFFFFF" points="1053,561.2 946.1,561.2 946.1,489.4 					"/>
				</g>
				<g>
					
						<rect x="935.4" y="621.8" fill="#DEF0F7" stroke="#D1D1D1" stroke-width="8.6463" stroke-miterlimit="10" width="135.1" height="100.1"/>
					<polygon fill="#FFFFFF" points="1055.9,706.8 949,706.8 949,634.9 					"/>
				</g>
				<g>
					
						<rect x="933.9" y="771.6" fill="#DEF0F7" stroke="#D1D1D1" stroke-width="8.6463" stroke-miterlimit="10" width="135.1" height="100.1"/>
					<polygon fill="#FFFFFF" points="1054.4,856.6 947.6,856.6 947.6,784.8 					"/>
				</g>
				<g>
					
						<rect x="931" y="921.5" fill="#DEF0F7" stroke="#D1D1D1" stroke-width="8.6463" stroke-miterlimit="10" width="135.1" height="100.1"/>
					<polygon fill="#FFFFFF" points="1051.6,1006.5 944.7,1006.5 944.7,934.6 					"/>
				</g>
				<rect x="80" y="835" fill="#DEF0F7" width="757" height="128.7"/>
				<rect x="87.8" y="385.5" fill="#C4C4C4" width="753.6" height="20.2"/>
				<rect x="82.1" y="817.8" fill="#C4C4C4" width="757.8" height="20.2"/>
				<polyline fill="#D8D8D8" points="661.7,975.6 77.2,975.6 77.2,961.9 839.8,961.9 839.8,975.6 661.7,975.6 				"/>
				<rect x="192.9" y="403.8" fill="#DEF0F7" width="3.2" height="376.6"/>
				<rect x="191.4" y="837.5" fill="#D8D8D8" width="3.2" height="125.6"/>
				<rect x="308.1" y="403.8" fill="#DEF0F7" width="3.2" height="376.6"/>
				<rect x="97.4" y="496.6" fill="#DEF0F7" width="743.1" height="3.2"/>
				<rect x="415.7" y="403.8" fill="#DEF0F7" width="3.2" height="376.6"/>
				<rect x="522.4" y="403.8" fill="#DEF0F7" width="3.2" height="376.6"/>
				<rect x="634.8" y="403.8" fill="#DEF0F7" width="3.2" height="376.6"/>
				<rect x="740.5" y="403.8" fill="#DEF0F7" width="3.2" height="376.6"/>
				<rect x="97.4" y="598.4" fill="#DEF0F7" width="743.1" height="3.2"/>
				<rect x="97.4" y="697.4" fill="#DEF0F7" width="743.1" height="3.2"/>
				<rect x="308.6" y="837.5" fill="#D8D8D8" width="3.2" height="125.6"/>
				<rect x="414.3" y="837.5" fill="#D8D8D8" width="3.2" height="125.6"/>
				<rect x="522.9" y="837.5" fill="#D8D8D8" width="3.2" height="125.6"/>
				<rect x="635.3" y="837.5" fill="#D8D8D8" width="3.2" height="125.6"/>
				<rect x="745.7" y="837.5" fill="#D8D8D8" width="3.2" height="125.6"/>
				<rect x="87.3" y="771.6" fill="#D8D8D8" width="758.1" height="13.8"/>
				<polygon fill="#FFFFFF" points="185.8,487.6 106.5,487.6 106.5,415.7 				"/>
				<polygon fill="#FFFFFF" points="185.8,585.6 106.5,585.6 106.5,513.7 				"/>
				<polygon fill="#FFFFFF" points="185.8,682.6 106.5,682.6 106.5,610.8 				"/>
				<polygon fill="#FFFFFF" points="185.8,769.1 106.5,769.1 106.5,707.5 				"/>
				<polygon fill="#FFFFFF" points="171.4,949.7 92.1,949.7 92.1,849.6 				"/>
				<polygon fill="#FFFFFF" points="290.5,487.6 211.2,487.6 211.2,415.7 				"/>
				<polygon fill="#FFFFFF" points="290.5,585.6 211.2,585.6 211.2,513.7 				"/>
				<polygon fill="#FFFFFF" points="290.5,682.6 211.2,682.6 211.2,610.8 				"/>
				<polygon fill="#FFFFFF" points="290.5,769.1 211.2,769.1 211.2,707.5 				"/>
				<polygon fill="#FFFFFF" points="402.9,487.6 323.6,487.6 323.6,415.7 				"/>
				<polygon fill="#FFFFFF" points="402.9,585.6 323.6,585.6 323.6,513.7 				"/>
				<polygon fill="#FFFFFF" points="402.9,682.6 323.6,682.6 323.6,610.8 				"/>
				<polygon fill="#FFFFFF" points="402.9,769.1 323.6,769.1 323.6,707.5 				"/>
				<polygon fill="#FFFFFF" points="508.6,487.6 429.3,487.6 429.3,415.7 				"/>
				<polygon fill="#FFFFFF" points="508.6,585.6 429.3,585.6 429.3,513.7 				"/>
				<polygon fill="#FFFFFF" points="508.6,682.6 429.3,682.6 429.3,610.8 				"/>
				<polygon fill="#FFFFFF" points="508.6,769.1 429.3,769.1 429.3,707.5 				"/>
				<polygon fill="#FFFFFF" points="618.1,487.6 538.8,487.6 538.8,415.7 				"/>
				<polygon fill="#FFFFFF" points="618.1,585.6 538.8,585.6 538.8,513.7 				"/>
				<polygon fill="#FFFFFF" points="618.1,682.6 538.8,682.6 538.8,610.8 				"/>
				<polygon fill="#FFFFFF" points="618.1,769.1 538.8,769.1 538.8,707.5 				"/>
				<polygon fill="#FFFFFF" points="732.4,487.6 653.1,487.6 653.1,415.7 				"/>
				<polygon fill="#FFFFFF" points="732.4,585.6 653.1,585.6 653.1,513.7 				"/>
				<polygon fill="#FFFFFF" points="732.4,682.6 653.1,682.6 653.1,610.8 				"/>
				<polygon fill="#FFFFFF" points="732.4,769.1 653.1,769.1 653.1,707.5 				"/>
				<polygon fill="#FFFFFF" points="833.3,487.6 754,487.6 754,415.7 				"/>
				<polygon fill="#FFFFFF" points="833.3,585.6 754,585.6 754,513.7 				"/>
				<polygon fill="#FFFFFF" points="833.3,682.6 754,682.6 754,610.8 				"/>
				<polygon fill="#FFFFFF" points="833.3,769.1 754,769.1 754,707.5 				"/>
				<polygon fill="#FFFFFF" points="295.3,949.7 216,949.7 216,849.6 				"/>
				<polygon fill="#FFFFFF" points="405.8,949.7 326.5,949.7 326.5,849.6 				"/>
				<polygon fill="#FFFFFF" points="511.5,949.7 432.2,949.7 432.2,849.6 				"/>
				<polygon fill="#FFFFFF" points="623.9,949.7 544.6,949.7 544.6,849.6 				"/>
				<polygon fill="#FFFFFF" points="733.4,949.7 654.1,949.7 654.1,849.6 				"/>
				<polygon fill="#FFFFFF" points="828.2,949.7 758.8,949.7 758.8,849.6 				"/>
				<g>
					<g>
						<rect x="938.6" y="161.9" fill="#C4C4C4" width="7" height="81.2"/>
						<rect x="1019" y="162.2" fill="#C4C4C4" width="7" height="81.2"/>
						<path fill="#B2B1B1" d="M947.2,245.2H936v-0.9c0-2,1.6-3.5,3.5-3.5h4.1c2,0,3.5,1.6,3.5,3.5V245.2z"/>
						<path fill="#B2B1B1" d="M1028.5,245h-11.2v-0.9c0-2,1.6-3.5,3.5-3.5h4.1c2,0,3.5,1.6,3.5,3.5V245z"/>
					</g>
					<circle fill="#E94748" cx="985.2" cy="138.7" r="68.3"/>
					<g>
						<path fill="#FFFFFF" d="M992.3,183.7h-13.8c-2.8,0-5-2.2-5-5V96.6c0-2.8,2.2-5,5-5h13.8c2.8,0,5,2.2,5,5v82.1
							C997.3,181.4,995.1,183.7,992.3,183.7z"/>
						<path fill="#FFFFFF" d="M1031.5,130.7v13.8c0,2.8-2.2,5-5,5h-82.1c-2.8,0-5-2.2-5-5v-13.8c0-2.8,2.2-5,5-5h82.1
							C1029.3,125.7,1031.5,128,1031.5,130.7z"/>
					</g>
				</g>
				
					<line opacity="0.2" fill="none" stroke="#BCBCBB" stroke-width="2.8821" stroke-linecap="round" stroke-linejoin="round" stroke-miterlimit="10" x1="897.4" y1="262.1" x2="819.7" y2="185.5"/>
			</g>
			<rect x="100.3" y="1239.5" opacity="0.65" fill="#D7D7D7" width="998.7" height="60.2"/>
			<polyline fill="#DEF0F7" stroke="#D1D1D1" stroke-width="8.6463" stroke-miterlimit="10" points="294.4,1297.9 294.4,1012.4 
				502,1012.4 502,1300 			"/>
		</g>
	</g>
</g>
<g id="Capa_2" display="none">
	<g display="inline">
		<rect x="0" y="0" fill="none" stroke="#000000" stroke-width="2.498" stroke-miterlimit="10" width="100" height="100"/>
		<rect x="100" y="0" fill="none" stroke="#000000" stroke-width="2.498" stroke-miterlimit="10" width="100" height="100"/>
		<rect x="200" y="0" fill="none" stroke="#000000" stroke-width="2.498" stroke-miterlimit="10" width="100" height="100"/>
		<rect x="300" y="0" fill="none" stroke="#000000" stroke-width="2.498" stroke-miterlimit="10" width="100" height="100"/>
		<rect x="400" y="0" fill="none" stroke="#000000" stroke-width="2.498" stroke-miterlimit="10" width="100" height="100"/>
		<rect x="500" y="0" fill="none" stroke="#000000" stroke-width="2.498" stroke-miterlimit="10" width="100" height="100"/>
		<rect x="600" y="0" fill="none" stroke="#000000" stroke-width="2.498" stroke-miterlimit="10" width="100" height="100"/>
		<rect x="700" y="0" fill="none" stroke="#000000" stroke-width="2.498" stroke-miterlimit="10" width="100" height="100"/>
		<rect x="800" y="0" fill="none" stroke="#000000" stroke-width="2.498" stroke-miterlimit="10" width="100" height="100"/>
		<rect x="900" y="0" fill="none" stroke="#000000" stroke-width="2.498" stroke-miterlimit="10" width="100" height="100"/>
		<rect x="1000" y="0" fill="none" stroke="#000000" stroke-width="2.498" stroke-miterlimit="10" width="100" height="100"/>
		<rect x="1100" y="0" fill="none" stroke="#000000" stroke-width="2.498" stroke-miterlimit="10" width="100" height="100"/>
		<rect x="0" y="100" fill="none" stroke="#000000" stroke-width="2.498" stroke-miterlimit="10" width="100" height="100"/>
		<rect x="100" y="100" fill="none" stroke="#000000" stroke-width="2.498" stroke-miterlimit="10" width="100" height="100"/>
		<rect x="200" y="100" fill="none" stroke="#000000" stroke-width="2.498" stroke-miterlimit="10" width="100" height="100"/>
		<rect x="300" y="100" fill="none" stroke="#000000" stroke-width="2.498" stroke-miterlimit="10" width="100" height="100"/>
		<rect x="400" y="100" fill="none" stroke="#000000" stroke-width="2.498" stroke-miterlimit="10" width="100" height="100"/>
		<rect x="500" y="100" fill="none" stroke="#000000" stroke-width="2.498" stroke-miterlimit="10" width="100" height="100"/>
		<rect x="600" y="100" fill="none" stroke="#000000" stroke-width="2.498" stroke-miterlimit="10" width="100" height="100"/>
		<rect x="700" y="100" fill="none" stroke="#000000" stroke-width="2.498" stroke-miterlimit="10" width="100" height="100"/>
		<rect x="800" y="100" fill="none" stroke="#000000" stroke-width="2.498" stroke-miterlimit="10" width="100" height="100"/>
		<rect x="900" y="100" fill="none" stroke="#000000" stroke-width="2.498" stroke-miterlimit="10" width="100" height="100"/>
		<rect x="1000" y="100" fill="none" stroke="#000000" stroke-width="2.498" stroke-miterlimit="10" width="100" height="100"/>
		<rect x="1100" y="100" fill="none" stroke="#000000" stroke-width="2.498" stroke-miterlimit="10" width="100" height="100"/>
		<rect x="0" y="200" fill="none" stroke="#000000" stroke-width="2.498" stroke-miterlimit="10" width="100" height="100"/>
		<rect x="100" y="200" fill="none" stroke="#000000" stroke-width="2.498" stroke-miterlimit="10" width="100" height="100"/>
		<rect x="200" y="200" fill="none" stroke="#000000" stroke-width="2.498" stroke-miterlimit="10" width="100" height="100"/>
		<rect x="300" y="200" fill="none" stroke="#000000" stroke-width="2.498" stroke-miterlimit="10" width="100" height="100"/>
		<rect x="400" y="200" fill="none" stroke="#000000" stroke-width="2.498" stroke-miterlimit="10" width="100" height="100"/>
		<rect x="500" y="200" fill="none" stroke="#000000" stroke-width="2.498" stroke-miterlimit="10" width="100" height="100"/>
		<rect x="600" y="200" fill="none" stroke="#000000" stroke-width="2.498" stroke-miterlimit="10" width="100" height="100"/>
		<rect x="700" y="200" fill="none" stroke="#000000" stroke-width="2.498" stroke-miterlimit="10" width="100" height="100"/>
		<rect x="800" y="200" fill="none" stroke="#000000" stroke-width="2.498" stroke-miterlimit="10" width="100" height="100"/>
		<rect x="900" y="200" fill="none" stroke="#000000" stroke-width="2.498" stroke-miterlimit="10" width="100" height="100"/>
		<rect x="1000" y="200" fill="none" stroke="#000000" stroke-width="2.498" stroke-miterlimit="10" width="100" height="100"/>
		<rect x="1100" y="200" fill="none" stroke="#000000" stroke-width="2.498" stroke-miterlimit="10" width="100" height="100"/>
		<rect x="0" y="300" fill="none" stroke="#000000" stroke-width="2.498" stroke-miterlimit="10" width="100" height="100"/>
		<rect x="100" y="300" fill="none" stroke="#000000" stroke-width="2.498" stroke-miterlimit="10" width="100" height="100"/>
		<rect x="200" y="300" fill="none" stroke="#000000" stroke-width="2.498" stroke-miterlimit="10" width="100" height="100"/>
		<rect x="300" y="300" fill="none" stroke="#000000" stroke-width="2.498" stroke-miterlimit="10" width="100" height="100"/>
		<rect x="400" y="300" fill="none" stroke="#000000" stroke-width="2.498" stroke-miterlimit="10" width="100" height="100"/>
		<rect x="500" y="300" fill="none" stroke="#000000" stroke-width="2.498" stroke-miterlimit="10" width="100" height="100"/>
		<rect x="600" y="300" fill="none" stroke="#000000" stroke-width="2.498" stroke-miterlimit="10" width="100" height="100"/>
		<rect x="700" y="300" fill="none" stroke="#000000" stroke-width="2.498" stroke-miterlimit="10" width="100" height="100"/>
		<rect x="800" y="300" fill="none" stroke="#000000" stroke-width="2.498" stroke-miterlimit="10" width="100" height="100"/>
		<rect x="900" y="300" fill="none" stroke="#000000" stroke-width="2.498" stroke-miterlimit="10" width="100" height="100"/>
		<rect x="1000" y="300" fill="none" stroke="#000000" stroke-width="2.498" stroke-miterlimit="10" width="100" height="100"/>
		<rect x="1100" y="300" fill="none" stroke="#000000" stroke-width="2.498" stroke-miterlimit="10" width="100" height="100"/>
		<rect x="0" y="400" fill="none" stroke="#000000" stroke-width="2.498" stroke-miterlimit="10" width="100" height="100"/>
		<rect x="100" y="400" fill="none" stroke="#000000" stroke-width="2.498" stroke-miterlimit="10" width="100" height="100"/>
		<rect x="200" y="400" fill="none" stroke="#000000" stroke-width="2.498" stroke-miterlimit="10" width="100" height="100"/>
		<rect x="300" y="400" fill="none" stroke="#000000" stroke-width="2.498" stroke-miterlimit="10" width="100" height="100"/>
		<rect x="400" y="400" fill="none" stroke="#000000" stroke-width="2.498" stroke-miterlimit="10" width="100" height="100"/>
		<rect x="500" y="400" fill="none" stroke="#000000" stroke-width="2.498" stroke-miterlimit="10" width="100" height="100"/>
		<rect x="600" y="400" fill="none" stroke="#000000" stroke-width="2.498" stroke-miterlimit="10" width="100" height="100"/>
		<rect x="700" y="400" fill="none" stroke="#000000" stroke-width="2.498" stroke-miterlimit="10" width="100" height="100"/>
		<rect x="800" y="400" fill="none" stroke="#000000" stroke-width="2.498" stroke-miterlimit="10" width="100" height="100"/>
		<rect x="900" y="400" fill="none" stroke="#000000" stroke-width="2.498" stroke-miterlimit="10" width="100" height="100"/>
		<rect x="1000" y="400" fill="none" stroke="#000000" stroke-width="2.498" stroke-miterlimit="10" width="100" height="100"/>
		<rect x="1100" y="400" fill="none" stroke="#000000" stroke-width="2.498" stroke-miterlimit="10" width="100" height="100"/>
		<rect x="0" y="500" fill="none" stroke="#000000" stroke-width="2.498" stroke-miterlimit="10" width="100" height="100"/>
		<rect x="100" y="500" fill="none" stroke="#000000" stroke-width="2.498" stroke-miterlimit="10" width="100" height="100"/>
		<rect x="200" y="500" fill="none" stroke="#000000" stroke-width="2.498" stroke-miterlimit="10" width="100" height="100"/>
		<rect x="300" y="500" fill="none" stroke="#000000" stroke-width="2.498" stroke-miterlimit="10" width="100" height="100"/>
		<rect x="400" y="500" fill="none" stroke="#000000" stroke-width="2.498" stroke-miterlimit="10" width="100" height="100"/>
		<rect x="500" y="500" fill="none" stroke="#000000" stroke-width="2.498" stroke-miterlimit="10" width="100" height="100"/>
		<rect x="600" y="500" fill="none" stroke="#000000" stroke-width="2.498" stroke-miterlimit="10" width="100" height="100"/>
		<rect x="700" y="500" fill="none" stroke="#000000" stroke-width="2.498" stroke-miterlimit="10" width="100" height="100"/>
		<rect x="800" y="500" fill="none" stroke="#000000" stroke-width="2.498" stroke-miterlimit="10" width="100" height="100"/>
		<rect x="900" y="500" fill="none" stroke="#000000" stroke-width="2.498" stroke-miterlimit="10" width="100" height="100"/>
		<rect x="1000" y="500" fill="none" stroke="#000000" stroke-width="2.498" stroke-miterlimit="10" width="100" height="100"/>
		<rect x="1100" y="500" fill="none" stroke="#000000" stroke-width="2.498" stroke-miterlimit="10" width="100" height="100"/>
		<rect x="0" y="600" fill="none" stroke="#000000" stroke-width="2.498" stroke-miterlimit="10" width="100" height="100"/>
		<rect x="100" y="600" fill="none" stroke="#000000" stroke-width="2.498" stroke-miterlimit="10" width="100" height="100"/>
		<rect x="200" y="600" fill="none" stroke="#000000" stroke-width="2.498" stroke-miterlimit="10" width="100" height="100"/>
		<rect x="300" y="600" fill="none" stroke="#000000" stroke-width="2.498" stroke-miterlimit="10" width="100" height="100"/>
		<rect x="400" y="600" fill="none" stroke="#000000" stroke-width="2.498" stroke-miterlimit="10" width="100" height="100"/>
		<rect x="500" y="600" fill="none" stroke="#000000" stroke-width="2.498" stroke-miterlimit="10" width="100" height="100"/>
		<rect x="600" y="600" fill="none" stroke="#000000" stroke-width="2.498" stroke-miterlimit="10" width="100" height="100"/>
		<rect x="700" y="600" fill="none" stroke="#000000" stroke-width="2.498" stroke-miterlimit="10" width="100" height="100"/>
		<rect x="800" y="600" fill="none" stroke="#000000" stroke-width="2.498" stroke-miterlimit="10" width="100" height="100"/>
		<rect x="900" y="600" fill="none" stroke="#000000" stroke-width="2.498" stroke-miterlimit="10" width="100" height="100"/>
		<rect x="1000" y="600" fill="none" stroke="#000000" stroke-width="2.498" stroke-miterlimit="10" width="100" height="100"/>
		<rect x="1100" y="600" fill="none" stroke="#000000" stroke-width="2.498" stroke-miterlimit="10" width="100" height="100"/>
		<rect x="0" y="700" fill="none" stroke="#000000" stroke-width="2.498" stroke-miterlimit="10" width="100" height="100"/>
		<rect x="100" y="700" fill="none" stroke="#000000" stroke-width="2.498" stroke-miterlimit="10" width="100" height="100"/>
		<rect x="200" y="700" fill="none" stroke="#000000" stroke-width="2.498" stroke-miterlimit="10" width="100" height="100"/>
		<rect x="300" y="700" fill="none" stroke="#000000" stroke-width="2.498" stroke-miterlimit="10" width="100" height="100"/>
		<rect x="400" y="700" fill="none" stroke="#000000" stroke-width="2.498" stroke-miterlimit="10" width="100" height="100"/>
		<rect x="500" y="700" fill="none" stroke="#000000" stroke-width="2.498" stroke-miterlimit="10" width="100" height="100"/>
		<rect x="600" y="700" fill="none" stroke="#000000" stroke-width="2.498" stroke-miterlimit="10" width="100" height="100"/>
		<rect x="700" y="700" fill="none" stroke="#000000" stroke-width="2.498" stroke-miterlimit="10" width="100" height="100"/>
		<rect x="800" y="700" fill="none" stroke="#000000" stroke-width="2.498" stroke-miterlimit="10" width="100" height="100"/>
		<rect x="900" y="700" fill="none" stroke="#000000" stroke-width="2.498" stroke-miterlimit="10" width="100" height="100"/>
		<rect x="1000" y="700" fill="none" stroke="#000000" stroke-width="2.498" stroke-miterlimit="10" width="100" height="100"/>
		<rect x="1100" y="700" fill="none" stroke="#000000" stroke-width="2.498" stroke-miterlimit="10" width="100" height="100"/>
		<rect x="0" y="800" fill="none" stroke="#000000" stroke-width="2.498" stroke-miterlimit="10" width="100" height="100"/>
		<rect x="100" y="800" fill="none" stroke="#000000" stroke-width="2.498" stroke-miterlimit="10" width="100" height="100"/>
		<rect x="200" y="800" fill="none" stroke="#000000" stroke-width="2.498" stroke-miterlimit="10" width="100" height="100"/>
		<rect x="300" y="800" fill="none" stroke="#000000" stroke-width="2.498" stroke-miterlimit="10" width="100" height="100"/>
		<rect x="400" y="800" fill="none" stroke="#000000" stroke-width="2.498" stroke-miterlimit="10" width="100" height="100"/>
		<rect x="500" y="800" fill="none" stroke="#000000" stroke-width="2.498" stroke-miterlimit="10" width="100" height="100"/>
		<rect x="600" y="800" fill="none" stroke="#000000" stroke-width="2.498" stroke-miterlimit="10" width="100" height="100"/>
		<rect x="700" y="800" fill="none" stroke="#000000" stroke-width="2.498" stroke-miterlimit="10" width="100" height="100"/>
		<rect x="800" y="800" fill="none" stroke="#000000" stroke-width="2.498" stroke-miterlimit="10" width="100" height="100"/>
		<rect x="900" y="800" fill="none" stroke="#000000" stroke-width="2.498" stroke-miterlimit="10" width="100" height="100"/>
		<rect x="1000" y="800" fill="none" stroke="#000000" stroke-width="2.498" stroke-miterlimit="10" width="100" height="100"/>
		<rect x="1100" y="800" fill="none" stroke="#000000" stroke-width="2.498" stroke-miterlimit="10" width="100" height="100"/>
		<rect x="0" y="900" fill="none" stroke="#000000" stroke-width="2.498" stroke-miterlimit="10" width="100" height="100"/>
		<rect x="100" y="900" fill="none" stroke="#000000" stroke-width="2.498" stroke-miterlimit="10" width="100" height="100"/>
		<rect x="200" y="900" fill="none" stroke="#000000" stroke-width="2.498" stroke-miterlimit="10" width="100" height="100"/>
		<rect x="300" y="900" fill="none" stroke="#000000" stroke-width="2.498" stroke-miterlimit="10" width="100" height="100"/>
		<rect x="400" y="900" fill="none" stroke="#000000" stroke-width="2.498" stroke-miterlimit="10" width="100" height="100"/>
		<rect x="500" y="900" fill="none" stroke="#000000" stroke-width="2.498" stroke-miterlimit="10" width="100" height="100"/>
		<rect x="600" y="900" fill="none" stroke="#000000" stroke-width="2.498" stroke-miterlimit="10" width="100" height="100"/>
		<rect x="700" y="900" fill="none" stroke="#000000" stroke-width="2.498" stroke-miterlimit="10" width="100" height="100"/>
		<rect x="800" y="900" fill="none" stroke="#000000" stroke-width="2.498" stroke-miterlimit="10" width="100" height="100"/>
		<rect x="900" y="900" fill="none" stroke="#000000" stroke-width="2.498" stroke-miterlimit="10" width="100" height="100"/>
		<rect x="1000" y="900" fill="none" stroke="#000000" stroke-width="2.498" stroke-miterlimit="10" width="100" height="100"/>
		<rect x="1100" y="900" fill="none" stroke="#000000" stroke-width="2.498" stroke-miterlimit="10" width="100" height="100"/>
		<rect x="0" y="1000" fill="none" stroke="#000000" stroke-width="2.498" stroke-miterlimit="10" width="100" height="100"/>
		<rect x="100" y="1000" fill="none" stroke="#000000" stroke-width="2.498" stroke-miterlimit="10" width="100" height="100"/>
		<rect x="200" y="1000" fill="none" stroke="#000000" stroke-width="2.498" stroke-miterlimit="10" width="100" height="100"/>
		<rect x="300" y="1000" fill="none" stroke="#000000" stroke-width="2.498" stroke-miterlimit="10" width="100" height="100"/>
		<rect x="400" y="1000" fill="none" stroke="#000000" stroke-width="2.498" stroke-miterlimit="10" width="100" height="100"/>
		<rect x="500" y="1000" fill="none" stroke="#000000" stroke-width="2.498" stroke-miterlimit="10" width="100" height="100"/>
		<rect x="600" y="1000" fill="none" stroke="#000000" stroke-width="2.498" stroke-miterlimit="10" width="100" height="100"/>
		<rect x="700" y="1000" fill="none" stroke="#000000" stroke-width="2.498" stroke-miterlimit="10" width="100" height="100"/>
		<rect x="800" y="1000" fill="none" stroke="#000000" stroke-width="2.498" stroke-miterlimit="10" width="100" height="100"/>
		<rect x="900" y="1000" fill="none" stroke="#000000" stroke-width="2.498" stroke-miterlimit="10" width="100" height="100"/>
		<rect x="1000" y="1000" fill="none" stroke="#000000" stroke-width="2.498" stroke-miterlimit="10" width="100" height="100"/>
		<rect x="1100" y="1000" fill="none" stroke="#000000" stroke-width="2.498" stroke-miterlimit="10" width="100" height="100"/>
		<rect x="0" y="1100" fill="none" stroke="#000000" stroke-width="2.498" stroke-miterlimit="10" width="100" height="100"/>
		<rect x="100" y="1100" fill="none" stroke="#000000" stroke-width="2.498" stroke-miterlimit="10" width="100" height="100"/>
		<rect x="200" y="1100" fill="none" stroke="#000000" stroke-width="2.498" stroke-miterlimit="10" width="100" height="100"/>
		<rect x="300" y="1100" fill="none" stroke="#000000" stroke-width="2.498" stroke-miterlimit="10" width="100" height="100"/>
		<rect x="400" y="1100" fill="none" stroke="#000000" stroke-width="2.498" stroke-miterlimit="10" width="100" height="100"/>
		<rect x="500" y="1100" fill="none" stroke="#000000" stroke-width="2.498" stroke-miterlimit="10" width="100" height="100"/>
		<rect x="600" y="1100" fill="none" stroke="#000000" stroke-width="2.498" stroke-miterlimit="10" width="100" height="100"/>
		<rect x="700" y="1100" fill="none" stroke="#000000" stroke-width="2.498" stroke-miterlimit="10" width="100" height="100"/>
		<rect x="800" y="1100" fill="none" stroke="#000000" stroke-width="2.498" stroke-miterlimit="10" width="100" height="100"/>
		<rect x="900" y="1100" fill="none" stroke="#000000" stroke-width="2.498" stroke-miterlimit="10" width="100" height="100"/>
		<rect x="1000" y="1100" fill="none" stroke="#000000" stroke-width="2.498" stroke-miterlimit="10" width="100" height="100"/>
		<rect x="1100" y="1100" fill="none" stroke="#000000" stroke-width="2.498" stroke-miterlimit="10" width="100" height="100"/>
		<rect x="0" y="1200" fill="none" stroke="#000000" stroke-width="2.498" stroke-miterlimit="10" width="100" height="100"/>
		<rect x="100" y="1200" fill="none" stroke="#000000" stroke-width="2.498" stroke-miterlimit="10" width="100" height="100"/>
		<rect x="200" y="1200" fill="none" stroke="#000000" stroke-width="2.498" stroke-miterlimit="10" width="100" height="100"/>
		<rect x="300" y="1200" fill="none" stroke="#000000" stroke-width="2.498" stroke-miterlimit="10" width="100" height="100"/>
		<rect x="400" y="1200" fill="none" stroke="#000000" stroke-width="2.498" stroke-miterlimit="10" width="100" height="100"/>
		<rect x="500" y="1200" fill="none" stroke="#000000" stroke-width="2.498" stroke-miterlimit="10" width="100" height="100"/>
		<rect x="600" y="1200" fill="none" stroke="#000000" stroke-width="2.498" stroke-miterlimit="10" width="100" height="100"/>
		<rect x="700" y="1200" fill="none" stroke="#000000" stroke-width="2.498" stroke-miterlimit="10" width="100" height="100"/>
		<rect x="800" y="1200" fill="none" stroke="#000000" stroke-width="2.498" stroke-miterlimit="10" width="100" height="100"/>
		<rect x="900" y="1200" fill="none" stroke="#000000" stroke-width="2.498" stroke-miterlimit="10" width="100" height="100"/>
		<rect x="1000" y="1200" fill="none" stroke="#000000" stroke-width="2.498" stroke-miterlimit="10" width="100" height="100"/>
		<rect x="1100" y="1200" fill="none" stroke="#000000" stroke-width="2.498" stroke-miterlimit="10" width="100" height="100"/>
	</g>
</g>
</svg>
