<?xml version="1.0" encoding="utf-8"?>
<!-- Generator: Adobe Illustrator 18.0.0, SVG Export Plug-In . SVG Version: 6.00 Build 0)  -->
<!DOCTYPE svg PUBLIC "-//W3C//DTD SVG 1.1//EN" "http://www.w3.org/Graphics/SVG/1.1/DTD/svg11.dtd">
<svg version="1.1" xmlns="http://www.w3.org/2000/svg" xmlns:xlink="http://www.w3.org/1999/xlink" x="0px" y="0px"
	 viewBox="0 0 1000 700" enable-background="new 0 0 1000 700" xml:space="preserve">
<g id="Capa_1">
</g>
<g id="Capa_2">
	<g>
		<g>
			<rect x="400.3" y="94.1" fill="#F3D276" width="599.7" height="604.8"/>
			<polygon fill="#EFC65F" points="402.2,94.1 1000,94.1 941.9,-0.4 452.2,-0.4 			"/>
			<rect x="1" y="392.5" fill="#F3D276" width="402.5" height="306.6"/>
			<rect x="0.7" y="665.3" opacity="0.47" fill="#8E867D" width="1002.7" height="34.7"/>
			<polyline fill="#C1B6AA" stroke="#AFA9A4" stroke-width="6.7489" stroke-miterlimit="10" points="801.4,699.2 801.4,440.7 
				599.9,440.7 599.9,699.2 			"/>
			<polyline fill="#C1B6AA" stroke="#AFA9A4" stroke-width="6.7489" stroke-miterlimit="10" points="371.7,698.4 371.7,439.5 
				43.4,439.5 43.4,699.1 			"/>
			<polygon fill="#EFC65F" points="0,392.5 401.3,392.5 401.3,300.4 59,300.4 			"/>
			<g opacity="0.41">
				<path fill="#8E867D" d="M96.1,494.2h222.8c2.4,0,4.3-1.9,4.3-4.3v0c0-2.4-1.9-4.3-4.3-4.3H96.1c-2.4,0-4.3,1.9-4.3,4.3v0
					C91.8,492.3,93.7,494.2,96.1,494.2z"/>
				<path fill="#8E867D" d="M96.1,532.8h222.8c2.4,0,4.3-1.9,4.3-4.3v0c0-2.4-1.9-4.3-4.3-4.3H96.1c-2.4,0-4.3,1.9-4.3,4.3v0
					C91.8,530.8,93.7,532.8,96.1,532.8z"/>
				<path fill="#8E867D" d="M96.1,571.3h222.8c2.4,0,4.3-1.9,4.3-4.3v0c0-2.4-1.9-4.3-4.3-4.3H96.1c-2.4,0-4.3,1.9-4.3,4.3v0
					C91.8,569.4,93.7,571.3,96.1,571.3z"/>
				<path fill="#8E867D" d="M96.1,609.9h222.8c2.4,0,4.3-1.9,4.3-4.3v0c0-2.4-1.9-4.3-4.3-4.3H96.1c-2.4,0-4.3,1.9-4.3,4.3v0
					C91.8,607.9,93.7,609.9,96.1,609.9z"/>
				<path fill="#8E867D" d="M96.1,648.4h222.8c2.4,0,4.3-1.9,4.3-4.3v0c0-2.4-1.9-4.3-4.3-4.3H96.1c-2.4,0-4.3,1.9-4.3,4.3v0
					C91.8,646.5,93.7,648.4,96.1,648.4z"/>
				
					<rect x="91.8" y="452.7" fill="none" stroke="#8E867D" stroke-width="4.8207" stroke-miterlimit="10" width="230.4" height="226.1"/>
			</g>
			<rect x="400.3" y="94.1" opacity="0.47" fill="#8E867D" width="601.6" height="32.8"/>
			<rect x="32.7" y="432.2" fill="#A59C93" width="354.2" height="23.1"/>
			
				<rect x="465.4" y="175.7" fill="#DEF0F7" stroke="#D1D1D1" stroke-width="8.6772" stroke-miterlimit="10" width="224.3" height="164.2"/>
			
				<rect x="726.7" y="175.7" fill="#DEF0F7" stroke="#D1D1D1" stroke-width="8.6772" stroke-miterlimit="10" width="224.3" height="164.2"/>
			<rect x="401.6" y="385.4" opacity="0.27" fill="#F3D276" width="601.1" height="6.6"/>
			<path fill="#8E867D" d="M617.2,590.4L617.2,590.4c2.5,0,4.5-2,4.5-4.5v-21.3c0-2.5-2-4.5-4.5-4.5h0c-2.5,0-4.5,2-4.5,4.5V586
				C612.8,588.4,614.8,590.4,617.2,590.4z"/>
			<rect x="632.3" y="475.9" opacity="0.26" fill="#8E867D" width="140.1" height="97.1"/>
			<rect x="629.9" y="583.4" opacity="0.26" fill="#8E867D" width="140.1" height="97.1"/>
			<polygon opacity="0.49" fill="#DEF0F7" points="933.8,312.9 933.8,192.1 748.1,192.1 			"/>
			<polygon opacity="0.49" fill="#DEF0F7" points="670.6,315.5 670.6,194.7 484.8,194.7 			"/>
			<rect x="583.8" y="428" fill="#A59C93" width="235.6" height="13.8"/>
		</g>
	</g>
</g>
</svg>
