<?xml version="1.0" encoding="utf-8"?>
<!-- Generator: Adobe Illustrator 18.0.0, SVG Export Plug-In . SVG Version: 6.00 Build 0)  -->
<!DOCTYPE svg PUBLIC "-//W3C//DTD SVG 1.1//EN" "http://www.w3.org/Graphics/SVG/1.1/DTD/svg11.dtd">
<svg version="1.1" xmlns="http://www.w3.org/2000/svg" xmlns:xlink="http://www.w3.org/1999/xlink" x="0px" y="0px"
	 viewBox="0 0 1000 800" enable-background="new 0 0 1000 800" xml:space="preserve">
<g id="Capa_1">
</g>
<g id="Capa_2">
	<g>
		<g>
			<polygon fill="#2FA89F" points="1000.2,195.2 0.1,195.2 94.7,93.2 500.8,42.5 903.6,91.3 			"/>
			<polygon fill="#32BEBB" points="1000,800.6 0,800.6 0,194.2 501.7,139.4 1000,194.2 			"/>
			<polyline fill="#DDF0F7" stroke="#D0D0D0" stroke-width="8.6613" stroke-miterlimit="10" points="396.9,800 396.9,495 602.3,495 
				602.3,800 			"/>
			<rect x="359.4" y="466.1" fill="#30B2AC" width="268.5" height="52"/>
			<rect x="31.7" y="540.2" fill="#F2D496" width="332" height="259.7"/>
			<rect x="636.5" y="534" fill="#F2D496" width="332" height="266.1"/>
			<polygon fill="#DBC89E" points="364.2,800 32.3,800 109.6,656.7 363.7,656.7 			"/>
			<rect x="109" y="614.2" fill="#E1B388" width="254.9" height="42.7"/>
			<polygon fill="#DDBE70" points="108.5,656.1 31.4,801 31.4,540.7 109,540.4 			"/>
			<polygon fill="#DBC89E" points="636.4,801 970.2,801 896.7,652.8 636.9,652.8 			"/>
			<rect x="636.7" y="610.3" fill="#E1B388" width="258.7" height="42.7"/>
			<polygon fill="#DDBE70" points="895,651.4 969.2,800 969.2,534.3 894.5,534.9 			"/>
			<polygon fill="#2FA89F" points="627.8,466.1 358.3,466.1 390,453.6 594.2,453.6 			"/>
		</g>
		<g>
			<g opacity="0.36">
				
					<radialGradient id="SVGID_1_" cx="1402.7284" cy="16421.8848" r="65.6898" gradientTransform="matrix(0.7621 0 0 0.1642 -960.3065 -1933.354)" gradientUnits="userSpaceOnUse">
					<stop  offset="0" style="stop-color:#757576"/>
					<stop  offset="0.2458" style="stop-color:#B1B1B1"/>
					<stop  offset="0.5423" style="stop-color:#D6D6D6"/>
					<stop  offset="0.8349" style="stop-color:#F4F4F4"/>
					<stop  offset="1" style="stop-color:#FFFFFF"/>
				</radialGradient>
				<ellipse fill="url(#SVGID_1_)" cx="108.7" cy="762.3" rx="50.9" ry="11.9"/>
				
					<radialGradient id="SVGID_2_" cx="1635.7769" cy="16421.8848" r="65.6844" gradientTransform="matrix(0.7621 0 0 0.1642 -960.3065 -1933.354)" gradientUnits="userSpaceOnUse">
					<stop  offset="0" style="stop-color:#757576"/>
					<stop  offset="0.2458" style="stop-color:#B1B1B1"/>
					<stop  offset="0.5423" style="stop-color:#D6D6D6"/>
					<stop  offset="0.8349" style="stop-color:#F4F4F4"/>
					<stop  offset="1" style="stop-color:#FFFFFF"/>
				</radialGradient>
				<ellipse fill="url(#SVGID_2_)" cx="286.3" cy="762.3" rx="50.9" ry="11.9"/>
				
					<radialGradient id="SVGID_3_" cx="-2749.5115" cy="16393.291" r="46.5974" gradientTransform="matrix(3.1055 0 0 0.1642 8738.127 -1933.354)" gradientUnits="userSpaceOnUse">
					<stop  offset="0" style="stop-color:#8B8B8B"/>
					<stop  offset="0.3008" style="stop-color:#B1B1B1"/>
					<stop  offset="0.45" style="stop-color:#BCBCBC"/>
					<stop  offset="0.7082" style="stop-color:#D8D8D8"/>
					<stop  offset="1" style="stop-color:#FFFFFF"/>
				</radialGradient>
				<ellipse fill="url(#SVGID_3_)" cx="199.5" cy="757.6" rx="147.1" ry="8.4"/>
			</g>
			<g>
				<g>
					<linearGradient id="SVGID_4_" gradientUnits="userSpaceOnUse" x1="274.8961" y1="726.4813" x2="304.5635" y2="726.4813">
						<stop  offset="0" style="stop-color:#5F5A5E"/>
						<stop  offset="0.411" style="stop-color:#000000"/>
						<stop  offset="0.531" style="stop-color:#060506"/>
						<stop  offset="0.6864" style="stop-color:#161516"/>
						<stop  offset="0.8604" style="stop-color:#302E30"/>
						<stop  offset="1" style="stop-color:#4B484B"/>
					</linearGradient>
					<path fill="url(#SVGID_4_)" d="M283.4,691.4H296c4.7,0,8.5,3.8,8.5,8.5v26.6V753c0,4.7-3.8,8.5-8.5,8.5h-12.6
						c-4.7,0-8.5-3.8-8.5-8.5v-26.6v-26.6C274.9,695.2,278.7,691.4,283.4,691.4z"/>
					<g>
						<polygon fill="#424242" points="289.7,758.9 304.6,750.1 304.6,746.8 289.7,755.6 						"/>
						<path fill="#424242" d="M289.7,701.1l12.3-7.2c-0.7-0.7-1.6-1.3-2.6-1.7l-9.7,5.7V701.1z"/>
						<polygon fill="#424242" points="289.7,750.6 304.6,741.9 304.6,738.6 289.7,747.3 						"/>
						<path fill="#424242" d="M296,761.6c3.9,0,7.2-2.7,8.2-6.3l-10.6,6.3H296z"/>
						<polygon fill="#424242" points="289.7,742.3 304.6,733.6 304.6,730.3 289.7,739.1 						"/>
						<polygon fill="#424242" points="289.7,717.6 304.6,708.8 304.6,705.6 289.7,714.3 						"/>
						<path fill="#424242" d="M304.2,697.5l-14.4,8.5v3.3l14.8-8.8v-0.6C304.6,699.1,304.4,698.3,304.2,697.5z"/>
						<polygon fill="#424242" points="289.7,734.1 304.6,725.3 304.6,722.1 289.7,730.8 						"/>
						<polygon fill="#424242" points="289.7,725.8 304.6,717.1 304.6,713.8 289.7,722.6 						"/>
						<polygon fill="#424242" points="289.8,718.2 274.9,709.8 274.9,713.1 289.8,721.5 						"/>
						<polygon fill="#424242" points="289.8,710 274.9,701.6 274.9,704.8 289.8,713.3 						"/>
						<path fill="#424242" d="M289.8,693.5l-3.6-2.1h-2.7c-0.9,0-1.7,0.2-2.4,0.4l8.8,5V693.5z"/>
						<path fill="#424242" d="M289.8,701.7l-12.8-7.3c-0.6,0.7-1.1,1.6-1.5,2.5l14.3,8.1V701.7z"/>
						<polygon fill="#424242" points="289.8,743 274.9,734.6 274.9,737.9 289.8,746.3 						"/>
						<path fill="#424242" d="M274.9,753c0,0.5,0.1,1,0.1,1.4l12.5,7.1h2.2v-2l-14.9-8.4V753z"/>
						<polygon fill="#424242" points="289.8,751.3 274.9,742.8 274.9,746.1 289.8,754.6 						"/>
						<polygon fill="#424242" points="289.8,726.5 274.9,718.1 274.9,721.4 289.8,729.8 						"/>
						<polygon fill="#424242" points="289.8,734.8 274.9,726.3 274.9,726.5 274.9,729.6 289.8,738 						"/>
					</g>
				</g>
				<g>
					<linearGradient id="SVGID_5_" gradientUnits="userSpaceOnUse" x1="93.0752" y1="726.4813" x2="122.7427" y2="726.4813">
						<stop  offset="0" style="stop-color:#5F5A5E"/>
						<stop  offset="0.411" style="stop-color:#000000"/>
						<stop  offset="0.531" style="stop-color:#060506"/>
						<stop  offset="0.6864" style="stop-color:#161516"/>
						<stop  offset="0.8604" style="stop-color:#302E30"/>
						<stop  offset="1" style="stop-color:#4B484B"/>
					</linearGradient>
					<path fill="url(#SVGID_5_)" d="M101.6,691.4h12.6c4.7,0,8.5,3.8,8.5,8.5v26.6V753c0,4.7-3.8,8.5-8.5,8.5h-12.6
						c-4.7,0-8.5-3.8-8.5-8.5v-26.6v-26.6C93.1,695.2,96.9,691.4,101.6,691.4z"/>
					<g>
						<polygon fill="#424242" points="107.9,758.9 122.7,750.1 122.7,746.8 107.9,755.6 						"/>
						<path fill="#424242" d="M107.9,701.1l12.3-7.2c-0.7-0.7-1.6-1.3-2.6-1.7l-9.7,5.7V701.1z"/>
						<polygon fill="#424242" points="107.9,750.6 122.7,741.9 122.7,738.6 107.9,747.3 						"/>
						<path fill="#424242" d="M114.2,761.6c3.9,0,7.2-2.7,8.2-6.3l-10.6,6.3H114.2z"/>
						<polygon fill="#424242" points="107.9,742.3 122.7,733.6 122.7,730.3 107.9,739.1 						"/>
						<polygon fill="#424242" points="107.9,717.6 122.7,708.8 122.7,705.6 107.9,714.3 						"/>
						<path fill="#424242" d="M122.4,697.5l-14.4,8.5v3.3l14.8-8.8v-0.6C122.7,699.1,122.6,698.3,122.4,697.5z"/>
						<polygon fill="#424242" points="107.9,734.1 122.7,725.3 122.7,722.1 107.9,730.8 						"/>
						<polygon fill="#424242" points="107.9,725.8 122.7,717.1 122.7,713.8 107.9,722.6 						"/>
						<polygon fill="#424242" points="107.9,718.2 93.1,709.8 93.1,713.1 107.9,721.5 						"/>
						<polygon fill="#424242" points="107.9,710 93.1,701.6 93.1,704.8 107.9,713.3 						"/>
						<path fill="#424242" d="M107.9,693.5l-3.6-2.1h-2.7c-0.9,0-1.7,0.2-2.4,0.4l8.8,5V693.5z"/>
						<path fill="#424242" d="M107.9,701.7l-12.8-7.3c-0.6,0.7-1.1,1.6-1.5,2.5l14.3,8.1V701.7z"/>
						<polygon fill="#424242" points="107.9,743 93.1,734.6 93.1,737.9 107.9,746.3 						"/>
						<path fill="#424242" d="M93.1,753c0,0.5,0.1,1,0.1,1.4l12.5,7.1h2.2v-2l-14.9-8.4V753z"/>
						<polygon fill="#424242" points="107.9,751.3 93.1,742.8 93.1,746.1 107.9,754.6 						"/>
						<polygon fill="#424242" points="107.9,726.5 93.1,718.1 93.1,721.4 107.9,729.8 						"/>
						<polygon fill="#424242" points="107.9,734.8 93.1,726.3 93.1,726.5 93.1,729.6 107.9,738 						"/>
					</g>
				</g>
				
					<linearGradient id="SVGID_6_" gradientUnits="userSpaceOnUse" x1="-8305.9082" y1="626.4611" x2="-8305.9082" y2="643.1566" gradientTransform="matrix(-1 0 0 1 -8012.542 0)">
					<stop  offset="0" style="stop-color:#44A0D9"/>
					<stop  offset="1" style="stop-color:#2B6DB4"/>
				</linearGradient>
				<path fill="url(#SVGID_6_)" d="M285.4,634.2c0,0-1.5-10.3,8.8-7.7c10.3,2.6,13.7,2.3,13.4,13.4c-0.1,4.9-23.9,2.6-23.9,2.6
					l-4.5-8L285.4,634.2z"/>
				<linearGradient id="SVGID_7_" gradientUnits="userSpaceOnUse" x1="104.2704" y1="626.4611" x2="104.2704" y2="643.1566">
					<stop  offset="0" style="stop-color:#44A0D9"/>
					<stop  offset="1" style="stop-color:#2B6DB4"/>
				</linearGradient>
				<path fill="url(#SVGID_7_)" d="M112.3,634.2c0,0,1.5-10.3-8.8-7.7c-10.3,2.6-13.7,2.3-13.4,13.4c0.1,4.9,23.9,2.6,23.9,2.6
					l4.5-8L112.3,634.2z"/>
				<linearGradient id="SVGID_8_" gradientUnits="userSpaceOnUse" x1="198.5574" y1="579.7415" x2="198.5574" y2="716.2783">
					<stop  offset="0" style="stop-color:#44A0D9"/>
					<stop  offset="0.6059" style="stop-color:#307CBF"/>
					<stop  offset="0.6653" style="stop-color:#2C6EB5"/>
					<stop  offset="0.6729" style="stop-color:#2B6DB5"/>
					<stop  offset="0.7857" style="stop-color:#2368B0"/>
					<stop  offset="1" style="stop-color:#2166AF"/>
				</linearGradient>
				<path fill="url(#SVGID_8_)" d="M281,627.3c0,0-8.3-23.4-13.5-33.1c-1.5-2.8-4.6-4.7-8.1-6.1c-3.8-3.5-28-6.5-60.6-6.5
					c-28.8,0-50.4,2.4-58.3,5.3c-4.3,1.2-8.3,3.6-10.3,7.3l-14.1,33.1l-4.8,16.5l-13.8,15c-3.1,3.3-5.6,15.2-5.6,19.7v36.6
					l106.7-1.1l106.7,1.1v-36.6c0-4.5-2.5-16.4-5.6-19.7l-13.8-15L281,627.3z"/>
				<linearGradient id="SVGID_9_" gradientUnits="userSpaceOnUse" x1="139.5043" y1="658.1508" x2="117.1013" y2="658.1508">
					<stop  offset="0" style="stop-color:#000000"/>
					<stop  offset="1" style="stop-color:#616261"/>
				</linearGradient>
				<path fill="url(#SVGID_9_)" d="M114.6,634.9c0,0,3.3,11.2,4.3,29.3c15.5,3.5,27.8,17.2,27.8,17.2L114.6,634.9z"/>
				
					<linearGradient id="SVGID_10_" gradientUnits="userSpaceOnUse" x1="-8268.5537" y1="658.1508" x2="-8290.957" y2="658.1508" gradientTransform="matrix(-1 0 0 1 -8010.9463 0)">
					<stop  offset="0" style="stop-color:#000000"/>
					<stop  offset="1" style="stop-color:#616261"/>
				</linearGradient>
				<path fill="url(#SVGID_10_)" d="M282.5,634.9c0,0-3.3,11.2-4.3,29.3c-15.5,3.5-27.8,17.2-27.8,17.2L282.5,634.9z"/>
				<path fill="#303031" d="M124.5,632.8c-0.5,0-0.7-0.1-0.8-0.2c0,0,0-0.3,0.2-0.8l11.2-33.3c1.9-3.3,7.7-6.6,11.8-6.6h103.6
					c4.1,0,9.9,3.3,11.9,6.8l11.2,33.2c0.2,0.5,0.2,0.7,0.2,0.8c0,0-0.2,0.2-0.8,0.2H124.5z"/>
				<linearGradient id="SVGID_11_" gradientUnits="userSpaceOnUse" x1="198.8221" y1="708.2383" x2="198.8221" y2="730.3817">
					<stop  offset="0" style="stop-color:#5F5A5E"/>
					<stop  offset="0.2754" style="stop-color:#262529"/>
					<stop  offset="0.4741" style="stop-color:#29282C"/>
					<stop  offset="0.6249" style="stop-color:#333135"/>
					<stop  offset="0.7595" style="stop-color:#434044"/>
					<stop  offset="0.8093" style="stop-color:#4B484B"/>
				</linearGradient>
				<path fill="url(#SVGID_11_)" d="M263.1,708.2l-20.9,5.7h-87.7l-20.9-5.7H91.9c0,3.6,0.2,13.8,0.2,13.8c0,4.5,8,8.1,17.8,8.1H288
					c9.8,0,17.8-3.6,17.8-8.1c0-4.5-0.1-10.4-0.1-13.8H263.1z"/>
				<g>
					<g>
						<path fill="#4F4F4F" d="M131.5,632.9l-0.2-2.6c1.8-0.1,45.5-3,64.4,0l-0.4,2.6C176.7,629.9,132,632.8,131.5,632.9z"/>
					</g>
					<rect x="175.1" y="629.1" fill="#4F4F4F" width="21" height="3.6"/>
				</g>
				<g>
					<g>
						<path fill="#4F4F4F" d="M199.3,632.9l-0.2-2.6c1.7-0.1,42.7-3,61.7,0l-0.4,2.6C241.8,629.9,199.8,632.8,199.3,632.9z"/>
					</g>
					<rect x="240.2" y="629.1" fill="#4F4F4F" width="21" height="3.6"/>
				</g>
				<g>
					<rect x="113.4" y="712.6" fill="#FFFFFF" width="19" height="5.4"/>
					<rect x="129" y="712.6" fill="#F6B9AB" width="3.4" height="5.4"/>
				</g>
				<g>
					<rect x="269" y="712.6" fill="#FFFFFF" width="19" height="5.4"/>
					<rect x="269" y="712.6" fill="#F6B9AB" width="3.4" height="5.4"/>
				</g>
				<linearGradient id="SVGID_12_" gradientUnits="userSpaceOnUse" x1="160.9526" y1="706.5077" x2="236.1595" y2="706.5077">
					<stop  offset="0" style="stop-color:#5F5A5E"/>
					<stop  offset="0.2754" style="stop-color:#262529"/>
					<stop  offset="0.4741" style="stop-color:#29282C"/>
					<stop  offset="0.6249" style="stop-color:#333135"/>
					<stop  offset="0.7595" style="stop-color:#434044"/>
					<stop  offset="0.8093" style="stop-color:#4B484B"/>
				</linearGradient>
				<path fill="url(#SVGID_12_)" d="M236.2,706.5c0,4.1-3.3,7.5-7.5,7.5h-60.2c-4.1,0-7.5-3.3-7.5-7.5l0,0c0-4.1,3.4-7.5,7.5-7.5
					h60.2C232.8,699,236.2,702.4,236.2,706.5L236.2,706.5z"/>
				<path fill="#FFFFFF" d="M168.4,712.6c-3.4,0-6.1-2.7-6.1-6.1c0-3.4,2.7-6.1,6.1-6.1h60.2c3.4,0,6.1,2.7,6.1,6.1
					c0,3.4-2.7,6.1-6.1,6.1H168.4z"/>
				<g>
					<path fill="#484747" d="M250.6,594.6H147c-3.1,0-7.8,2.6-9.3,5l-2.4,7.1l124.2-7.6C257.6,596.8,253.4,594.6,250.6,594.6z"/>
					<path d="M259.5,599.1l-124.2,7.6l-7.9,23.3h142.8L260,599.8C259.9,599.6,259.7,599.3,259.5,599.1z"/>
				</g>
				<g>
					
						<image overflow="visible" width="23" height="123" xlink:href="D053B689.png"  transform="matrix(0.24 0 0 0.24 113.5476 634.3949)">
					</image>
				</g>
				<g>
					
						<image overflow="visible" width="23" height="123" xlink:href="D053B68B.png"  transform="matrix(0.24 0 0 0.24 278.7372 634.3949)">
					</image>
				</g>
				<g>
					
						<image overflow="visible" width="457" height="4" xlink:href="D053B68E.png"  transform="matrix(0.24 0 0 0.24 144.5141 683.6777)">
					</image>
				</g>
				<g>
					<linearGradient id="SVGID_13_" gradientUnits="userSpaceOnUse" x1="123.626" y1="665.0768" x2="123.626" y2="691.4179">
						<stop  offset="1.271200e-002" style="stop-color:#292929"/>
						<stop  offset="0.1175" style="stop-color:#2F2F2F"/>
						<stop  offset="0.2545" style="stop-color:#3F3F3F"/>
						<stop  offset="0.4092" style="stop-color:#5A5A5A"/>
						<stop  offset="0.5771" style="stop-color:#808080"/>
						<stop  offset="0.7555" style="stop-color:#B0B0B0"/>
						<stop  offset="0.9402" style="stop-color:#EAEAEA"/>
						<stop  offset="1" style="stop-color:#FFFFFF"/>
					</linearGradient>
					<path fill="url(#SVGID_13_)" d="M145.6,679.4c0,0-26.3-23.5-39.9-13.7c-13.7,9.8,1.5,19.1,6,20.4c7.3,2.2,22.7,3.4,30.2,2.1
						C144,687.9,149.8,685.5,145.6,679.4z"/>
					<path fill="#FFFFFF" d="M134.2,687.4c-7.7,0-17.1-1.1-22.2-2.6c-2.8-0.8-10-5-10.7-10c-0.4-2.7,1.3-5.3,5-7.9
						c2-1.4,4.5-2.2,7.4-2.2c12.8,0,29.6,14.4,31.1,15.7c1,1.5,1.4,2.8,1,3.8c-0.5,1.6-2.8,2.5-4,2.8
						C139.9,687.2,137.3,687.4,134.2,687.4z"/>
					<g>
						<path fill="#FFFFFF" d="M139.6,681.2c0.3-1.3-0.7-4.7-2.7-3.5c-2,1.1-3.8-0.7-4.8-1.1c-0.9-0.4-2,1.9-1.1,4.4
							C132,683.5,137.8,690.4,139.6,681.2z"/>
						<path fill="#FCFBF9" d="M139.3,681.1c0.2-1.2-0.7-4.3-2.5-3.3c-1.8,1.1-3.6-0.7-4.4-1.1c-0.9-0.4-1.9,1.7-1,4.1
							C132.3,683.3,137.6,689.7,139.3,681.1z"/>
						<path fill="#F9F7F4" d="M139,681.1c0.2-1.1-0.6-4-2.3-3c-1.7,1-3.3-0.6-4.1-1c-0.8-0.4-1.7,1.6-0.9,3.8
							C132.5,683,137.4,688.9,139,681.1z"/>
						<path fill="#F6F2EE" d="M138.7,681c0.2-1-0.6-3.6-2.1-2.8c-1.5,0.9-3-0.5-3.7-0.9c-0.7-0.3-1.6,1.4-0.8,3.5
							C132.8,682.8,137.3,688.2,138.7,681z"/>
						<path fill="#F3EEE9" d="M138.4,680.9c0.2-0.9-0.5-3.3-1.9-2.5c-1.4,0.8-2.7-0.5-3.4-0.8c-0.7-0.3-1.4,1.3-0.8,3.1
							C133,682.6,137.1,687.5,138.4,680.9z"/>
						<path fill="#F0EAE3" d="M138.1,680.9c0.2-0.8-0.5-2.9-1.7-2.2c-1.3,0.7-2.4-0.4-3-0.7c-0.6-0.3-1.3,1.2-0.7,2.8
							C133.2,682.4,136.9,686.7,138.1,680.9z"/>
						<path fill="#EEE6DE" d="M137.8,680.8c0.1-0.7-0.4-2.6-1.5-2c-1.1,0.6-2.1-0.4-2.7-0.6c-0.5-0.2-1.1,1-0.6,2.5
							C133.5,682.1,136.7,686,137.8,680.8z"/>
						<path fill="#EBE2D8" d="M137.4,680.8c0.1-0.6-0.4-2.3-1.3-1.7c-1,0.6-1.9-0.3-2.3-0.6c-0.5-0.2-1,0.9-0.5,2.1
							C133.7,681.9,136.5,685.2,137.4,680.8z"/>
						<path fill="#E8DED3" d="M137.1,680.7c0.1-0.5-0.3-1.9-1.1-1.4c-0.8,0.5-1.6-0.3-2-0.5c-0.4-0.2-0.8,0.8-0.4,1.8
							C134,681.7,136.4,684.5,137.1,680.7z"/>
						<path fill="#E5D9CD" d="M136.8,680.7c0.1-0.4-0.2-1.6-0.9-1.2c-0.7,0.4-1.3-0.2-1.6-0.4c-0.3-0.1-0.7,0.6-0.4,1.5
							C134.2,681.4,136.2,683.8,136.8,680.7z"/>
						<path fill="#E2D5C8" d="M136.5,680.6c0.1-0.3-0.2-1.2-0.7-0.9c-0.5,0.3-1-0.2-1.3-0.3c-0.2-0.1-0.5,0.5-0.3,1.2
							C134.5,681.2,136,683,136.5,680.6z"/>
						<path fill="#DFD1C2" d="M136.2,680.5c0-0.2-0.1-0.9-0.5-0.7c-0.4,0.2-0.7-0.1-0.9-0.2c-0.2-0.1-0.4,0.4-0.2,0.8
							C134.7,681,135.8,682.3,136.2,680.5z"/>
					</g>
					<g>
						<path fill="#FFFFFF" d="M118.2,676.8c0,4.5,2.4,8.1,5.5,8.1c3,0,5.5-3.6,5.5-8.1c0-4.5-2.4-8.1-5.5-8.1
							C120.6,668.7,118.2,672.4,118.2,676.8z"/>
						<path fill="#FCFBF9" d="M118.5,676.8c0,4.2,2.3,7.7,5.2,7.7c2.9,0,5.2-3.4,5.2-7.7c0-4.2-2.3-7.7-5.2-7.7
							C120.8,669.2,118.5,672.6,118.5,676.8z"/>
						<path fill="#F9F7F4" d="M118.8,676.8c0,4,2.2,7.2,4.8,7.2c2.7,0,4.8-3.2,4.8-7.2c0-4-2.2-7.2-4.8-7.2
							C120.9,669.7,118.8,672.9,118.8,676.8z"/>
						<path fill="#F6F2EE" d="M119.1,676.8c0,3.7,2,6.7,4.5,6.7c2.5,0,4.5-3,4.5-6.7c0-3.7-2-6.7-4.5-6.7
							C121.1,670.1,119.1,673.1,119.1,676.8z"/>
						<path fill="#F3EEE9" d="M119.4,676.8c0,3.5,1.9,6.3,4.2,6.3c2.3,0,4.2-2.8,4.2-6.3c0-3.5-1.9-6.3-4.2-6.3
							C121.3,670.6,119.4,673.4,119.4,676.8z"/>
						<path fill="#F0EAE3" d="M119.7,676.8c0,3.2,1.8,5.8,3.9,5.8c2.2,0,3.9-2.6,3.9-5.8c0-3.2-1.8-5.8-3.9-5.8
							C121.5,671,119.7,673.6,119.7,676.8z"/>
						<path fill="#EEE6DE" d="M120,676.8c0,3,1.6,5.4,3.6,5.4c2,0,3.6-2.4,3.6-5.4c0-3-1.6-5.4-3.6-5.4
							C121.6,671.5,120,673.9,120,676.8z"/>
						<path fill="#EBE2D8" d="M120.3,676.8c0,2.7,1.5,4.9,3.3,4.9c1.8,0,3.3-2.2,3.3-4.9c0-2.7-1.5-4.9-3.3-4.9
							C121.8,671.9,120.3,674.1,120.3,676.8z"/>
						<path fill="#E8DED3" d="M120.6,676.8c0,2.5,1.3,4.4,3,4.4c1.7,0,3-2,3-4.4c0-2.5-1.3-4.4-3-4.4
							C122,672.4,120.6,674.4,120.6,676.8z"/>
						<path fill="#E5D9CD" d="M120.9,676.8c0,2.2,1.2,4,2.7,4c1.5,0,2.7-1.8,2.7-4c0-2.2-1.2-4-2.7-4
							C122.1,672.9,120.9,674.6,120.9,676.8z"/>
						<path fill="#E2D5C8" d="M121.2,676.8c0,2,1.1,3.5,2.4,3.5c1.3,0,2.4-1.6,2.4-3.5c0-2-1.1-3.5-2.4-3.5
							C122.3,673.3,121.2,674.9,121.2,676.8z"/>
						<path fill="#DFD1C2" d="M121.6,676.8c0,1.7,0.9,3.1,2.1,3.1c1.1,0,2.1-1.4,2.1-3.1c0-1.7-0.9-3.1-2.1-3.1
							C122.5,673.8,121.6,675.1,121.6,676.8z"/>
					</g>
					<path fill="#FAD1AC" d="M106.8,672.4c-0.3-0.6-4.4-3.9-4.1,0.4c0.3,4.3,3.9,8.7,5.6,7.5C109.7,679.2,107.7,674.1,106.8,672.4z"
						/>
					<path fill="#F6B9AB" d="M105.7,674.3c-0.3-0.6-3.5-4.4-3.2-0.1c0.3,4.3,3.7,7.4,5.4,6.2C109.5,679.4,106.7,676.1,105.7,674.3z"
						/>
				</g>
				<g>
					
						<linearGradient id="SVGID_14_" gradientUnits="userSpaceOnUse" x1="-8286.2197" y1="665.0768" x2="-8286.2197" y2="691.4179" gradientTransform="matrix(-1 0 0 1 -8012.7334 0)">
						<stop  offset="1.271200e-002" style="stop-color:#292929"/>
						<stop  offset="0.1175" style="stop-color:#2F2F2F"/>
						<stop  offset="0.2545" style="stop-color:#3F3F3F"/>
						<stop  offset="0.4092" style="stop-color:#5A5A5A"/>
						<stop  offset="0.5771" style="stop-color:#808080"/>
						<stop  offset="0.7555" style="stop-color:#B0B0B0"/>
						<stop  offset="0.9402" style="stop-color:#EAEAEA"/>
						<stop  offset="1" style="stop-color:#FFFFFF"/>
					</linearGradient>
					<path fill="url(#SVGID_14_)" d="M251.5,679.4c0,0,26.3-23.5,39.9-13.7c13.7,9.8-1.5,19.1-6,20.4c-7.3,2.2-22.7,3.4-30.2,2.1
						C253.1,687.9,247.3,685.5,251.5,679.4z"/>
					<path fill="#FFFFFF" d="M262.9,687.4c7.7,0,17.1-1.1,22.2-2.6c2.8-0.8,10-5,10.7-10c0.4-2.7-1.3-5.3-5-7.9
						c-2-1.4-4.5-2.2-7.4-2.2c-12.8,0-29.6,14.4-31.1,15.7c-1,1.5-1.4,2.8-1,3.8c0.5,1.6,2.8,2.5,4,2.8
						C257.2,687.2,259.9,687.4,262.9,687.4z"/>
					<g>
						<path fill="#FFFFFF" d="M257.5,681.2c-0.3-1.3,0.7-4.7,2.7-3.5c2,1.1,3.8-0.7,4.8-1.1c0.9-0.4,2,1.9,1.1,4.4
							C265.1,683.5,259.3,690.4,257.5,681.2z"/>
						<path fill="#FCFBF9" d="M257.8,681.1c-0.2-1.2,0.7-4.3,2.5-3.3c1.8,1.1,3.6-0.7,4.4-1.1c0.9-0.4,1.9,1.7,1,4.1
							C264.9,683.3,259.5,689.7,257.8,681.1z"/>
						<path fill="#F9F7F4" d="M258.1,681.1c-0.2-1.1,0.6-4,2.3-3c1.7,1,3.3-0.6,4.1-1c0.8-0.4,1.7,1.6,0.9,3.8
							C264.6,683,259.7,688.9,258.1,681.1z"/>
						<path fill="#F6F2EE" d="M258.4,681c-0.2-1,0.6-3.6,2.1-2.8c1.5,0.9,3-0.5,3.7-0.9c0.7-0.3,1.6,1.4,0.8,3.5
							C264.4,682.8,259.9,688.2,258.4,681z"/>
						<path fill="#F3EEE9" d="M258.7,680.9c-0.2-0.9,0.5-3.3,1.9-2.5c1.4,0.8,2.7-0.5,3.4-0.8c0.7-0.3,1.4,1.3,0.8,3.1
							C264.1,682.6,260,687.5,258.7,680.9z"/>
						<path fill="#F0EAE3" d="M259,680.9c-0.2-0.8,0.5-2.9,1.7-2.2c1.3,0.7,2.4-0.4,3-0.7c0.6-0.3,1.3,1.2,0.7,2.8
							C263.9,682.4,260.2,686.7,259,680.9z"/>
						<path fill="#EEE6DE" d="M259.4,680.8c-0.1-0.7,0.4-2.6,1.5-2c1.1,0.6,2.1-0.4,2.7-0.6c0.5-0.2,1.1,1,0.6,2.5
							C263.6,682.1,260.4,686,259.4,680.8z"/>
						<path fill="#EBE2D8" d="M259.7,680.8c-0.1-0.6,0.4-2.3,1.3-1.7c1,0.6,1.9-0.3,2.3-0.6c0.5-0.2,1,0.9,0.5,2.1
							C263.4,681.9,260.6,685.2,259.7,680.8z"/>
						<path fill="#E8DED3" d="M260,680.7c-0.1-0.5,0.3-1.9,1.1-1.4c0.8,0.5,1.6-0.3,2-0.5c0.4-0.2,0.8,0.8,0.4,1.8
							C263.1,681.7,260.8,684.5,260,680.7z"/>
						<path fill="#E5D9CD" d="M260.3,680.7c-0.1-0.4,0.2-1.6,0.9-1.2c0.7,0.4,1.3-0.2,1.6-0.4c0.3-0.1,0.7,0.6,0.4,1.5
							C262.9,681.4,260.9,683.8,260.3,680.7z"/>
						<path fill="#E2D5C8" d="M260.6,680.6c-0.1-0.3,0.2-1.2,0.7-0.9c0.5,0.3,1-0.2,1.3-0.3c0.2-0.1,0.5,0.5,0.3,1.2
							C262.6,681.2,261.1,683,260.6,680.6z"/>
						<path fill="#DFD1C2" d="M260.9,680.5c0-0.2,0.1-0.9,0.5-0.7c0.4,0.2,0.7-0.1,0.9-0.2c0.2-0.1,0.4,0.4,0.2,0.8
							C262.4,681,261.3,682.3,260.9,680.5z"/>
					</g>
					<g>
						<path fill="#FFFFFF" d="M278.9,676.8c0,4.5-2.4,8.1-5.5,8.1c-3,0-5.5-3.6-5.5-8.1c0-4.5,2.4-8.1,5.5-8.1
							C276.5,668.7,278.9,672.4,278.9,676.8z"/>
						<path fill="#FCFBF9" d="M278.6,676.8c0,4.2-2.3,7.7-5.2,7.7c-2.9,0-5.2-3.4-5.2-7.7c0-4.2,2.3-7.7,5.2-7.7
							C276.3,669.2,278.6,672.6,278.6,676.8z"/>
						<path fill="#F9F7F4" d="M278.3,676.8c0,4-2.2,7.2-4.8,7.2c-2.7,0-4.8-3.2-4.8-7.2c0-4,2.2-7.2,4.8-7.2
							C276.2,669.7,278.3,672.9,278.3,676.8z"/>
						<path fill="#F6F2EE" d="M278,676.8c0,3.7-2,6.7-4.5,6.7c-2.5,0-4.5-3-4.5-6.7c0-3.7,2-6.7,4.5-6.7
							C276,670.1,278,673.1,278,676.8z"/>
						<path fill="#F3EEE9" d="M277.7,676.8c0,3.5-1.9,6.3-4.2,6.3c-2.3,0-4.2-2.8-4.2-6.3c0-3.5,1.9-6.3,4.2-6.3
							C275.8,670.6,277.7,673.4,277.7,676.8z"/>
						<path fill="#F0EAE3" d="M277.4,676.8c0,3.2-1.8,5.8-3.9,5.8c-2.2,0-3.9-2.6-3.9-5.8c0-3.2,1.8-5.8,3.9-5.8
							C275.7,671,277.4,673.6,277.4,676.8z"/>
						<path fill="#EEE6DE" d="M277.1,676.8c0,3-1.6,5.4-3.6,5.4c-2,0-3.6-2.4-3.6-5.4c0-3,1.6-5.4,3.6-5.4
							C275.5,671.5,277.1,673.9,277.1,676.8z"/>
						<path fill="#EBE2D8" d="M276.8,676.8c0,2.7-1.5,4.9-3.3,4.9c-1.8,0-3.3-2.2-3.3-4.9c0-2.7,1.5-4.9,3.3-4.9
							C275.3,671.9,276.8,674.1,276.8,676.8z"/>
						<path fill="#E8DED3" d="M276.5,676.8c0,2.5-1.3,4.4-3,4.4c-1.7,0-3-2-3-4.4c0-2.5,1.3-4.4,3-4.4
							C275.1,672.4,276.5,674.4,276.5,676.8z"/>
						<path fill="#E5D9CD" d="M276.2,676.8c0,2.2-1.2,4-2.7,4c-1.5,0-2.7-1.8-2.7-4c0-2.2,1.2-4,2.7-4
							C275,672.9,276.2,674.6,276.2,676.8z"/>
						<path fill="#E2D5C8" d="M275.9,676.8c0,2-1.1,3.5-2.4,3.5c-1.3,0-2.4-1.6-2.4-3.5c0-2,1.1-3.5,2.4-3.5
							C274.8,673.3,275.9,674.9,275.9,676.8z"/>
						<path fill="#DFD1C2" d="M275.6,676.8c0,1.7-0.9,3.1-2.1,3.1c-1.1,0-2.1-1.4-2.1-3.1c0-1.7,0.9-3.1,2.1-3.1
							C274.6,673.8,275.6,675.1,275.6,676.8z"/>
					</g>
					<path fill="#FAD1AC" d="M290.3,672.4c0.3-0.6,4.4-3.9,4.1,0.4c-0.3,4.3-3.9,8.7-5.6,7.5C287.4,679.2,289.4,674.1,290.3,672.4z"
						/>
					<path fill="#F6B9AB" d="M291.4,674.3c0.3-0.6,3.5-4.4,3.2-0.1c-0.3,4.3-3.7,7.4-5.4,6.2C287.6,679.4,290.5,676.1,291.4,674.3z"
						/>
				</g>
				<linearGradient id="SVGID_15_" gradientUnits="userSpaceOnUse" x1="198.5577" y1="665.9545" x2="198.5577" y2="688.2868">
					<stop  offset="0" style="stop-color:#5F5A5E"/>
					<stop  offset="0.2754" style="stop-color:#262529"/>
					<stop  offset="0.4741" style="stop-color:#29282C"/>
					<stop  offset="0.6249" style="stop-color:#333135"/>
					<stop  offset="0.7595" style="stop-color:#434044"/>
					<stop  offset="0.8093" style="stop-color:#4B484B"/>
				</linearGradient>
				<path fill="url(#SVGID_15_)" d="M239.2,688.1h-81.4c-4.5,0-7.2-3.5-5.9-7.9l1.8-6.3c1.3-4.4,5.9-7.9,10.5-7.9h68.7
					c4.5,0,9.2,3.5,10.5,7.9l1.8,6.3C246.4,684.5,243.8,688.1,239.2,688.1z"/>
				<g>
					<g>
						<rect x="187.3" y="671.5" fill="#6F6E6E" width="1.4" height="14.4"/>
					</g>
					<g>
						<rect x="189.2" y="668.7" fill="#6F6E6E" width="1.4" height="17.1"/>
					</g>
					<g>
						<rect x="191.1" y="668.7" fill="#6F6E6E" width="1.4" height="17.1"/>
					</g>
					<g>
						<rect x="193.1" y="668.7" fill="#6F6E6E" width="1.4" height="17.1"/>
					</g>
					<g>
						<rect x="195" y="668.7" fill="#6F6E6E" width="1.4" height="17.1"/>
					</g>
					<g>
						<rect x="196.9" y="668.7" fill="#6F6E6E" width="1.4" height="17.1"/>
					</g>
					<g>
						<rect x="198.8" y="668.7" fill="#6F6E6E" width="1.4" height="17.1"/>
					</g>
					<g>
						<rect x="200.7" y="668.7" fill="#6F6E6E" width="1.4" height="17.1"/>
					</g>
					<g>
						<rect x="202.6" y="668.7" fill="#6F6E6E" width="1.4" height="17.1"/>
					</g>
					<g>
						<rect x="204.6" y="668.7" fill="#6F6E6E" width="1.4" height="17.1"/>
					</g>
					<g>
						<rect x="206.5" y="668.7" fill="#6F6E6E" width="1.4" height="17.1"/>
					</g>
					<g>
						<rect x="208.4" y="671.5" fill="#6F6E6E" width="1.4" height="14.4"/>
					</g>
				</g>
				<g>
					<g>
						<rect x="214.4" y="671.5" fill="#6F6E6E" width="1.4" height="14.4"/>
					</g>
					<g>
						<rect x="216.3" y="668.7" fill="#6F6E6E" width="1.4" height="17.1"/>
					</g>
					<g>
						<rect x="218.2" y="668.7" fill="#6F6E6E" width="1.4" height="17.1"/>
					</g>
					<g>
						<rect x="220.1" y="668.7" fill="#6F6E6E" width="1.4" height="17.1"/>
					</g>
					<g>
						<rect x="222" y="668.7" fill="#6F6E6E" width="1.4" height="17.1"/>
					</g>
					<g>
						<rect x="223.9" y="668.7" fill="#6F6E6E" width="1.4" height="17.1"/>
					</g>
					<g>
						<rect x="225.9" y="668.7" fill="#6F6E6E" width="1.4" height="17.1"/>
					</g>
					<g>
						<rect x="227.8" y="668.7" fill="#6F6E6E" width="1.4" height="17.1"/>
					</g>
					<g>
						<rect x="229.7" y="668.7" fill="#6F6E6E" width="1.4" height="17.1"/>
					</g>
					<g>
						<rect x="231.6" y="668.7" fill="#6F6E6E" width="1.4" height="17.1"/>
					</g>
					<g>
						<rect x="233.5" y="668.7" fill="#6F6E6E" width="1.4" height="17.1"/>
					</g>
					<g>
						<rect x="235.4" y="671.5" fill="#6F6E6E" width="1.4" height="14.4"/>
					</g>
				</g>
				<g>
					<g>
						<rect x="160.2" y="671.5" fill="#6F6E6E" width="1.4" height="14.4"/>
					</g>
					<g>
						<rect x="162.2" y="668.7" fill="#6F6E6E" width="1.4" height="17.1"/>
					</g>
					<g>
						<rect x="164.1" y="668.7" fill="#6F6E6E" width="1.4" height="17.1"/>
					</g>
					<g>
						<rect x="166" y="668.7" fill="#6F6E6E" width="1.4" height="17.1"/>
					</g>
					<g>
						<rect x="167.9" y="668.7" fill="#6F6E6E" width="1.4" height="17.1"/>
					</g>
					<g>
						<rect x="169.8" y="668.7" fill="#6F6E6E" width="1.4" height="17.1"/>
					</g>
					<g>
						<rect x="171.7" y="668.7" fill="#6F6E6E" width="1.4" height="17.1"/>
					</g>
					<g>
						<rect x="173.7" y="668.7" fill="#6F6E6E" width="1.4" height="17.1"/>
					</g>
					<g>
						<rect x="175.6" y="668.7" fill="#6F6E6E" width="1.4" height="17.1"/>
					</g>
					<g>
						<rect x="177.5" y="668.7" fill="#6F6E6E" width="1.4" height="17.1"/>
					</g>
					<g>
						<rect x="179.4" y="668.7" fill="#6F6E6E" width="1.4" height="17.1"/>
					</g>
					<g>
						<rect x="181.3" y="671.5" fill="#6F6E6E" width="1.4" height="14.4"/>
					</g>
				</g>
				<path d="M144.3,588.1c0,0,0.2-0.3,0.5-0.9c0.3-0.6,0.5-1.4,0.8-2.4c0.3-1,0.8-2.2,1.3-3.4c0.5-1.2,1.2-2.5,2.2-3.8
					c0.5-0.6,1.1-1.3,2.1-1.7c1-0.5,2.4-0.3,3.2,0.3c0.8,0.5,1.3,1.1,1.7,1.7c0.4,0.6,0.7,1.1,1,1.6c0.5,1,0.9,1.8,1.1,2.4
					c0.2,0.6,0.4,0.9,0.4,0.9c0.1,0.2,0.1,0.4,0.1,0.6c-1.8,0.2-3.2,0.5-3.2,0.5l0-0.1c0,0-0.1-0.3-0.3-0.8
					c-0.2-0.5-0.4-1.3-0.8-2.1c-0.3-0.8-0.9-1.8-1.5-2.2c-0.3-0.2-0.3-0.2-0.5-0.1c-0.3,0.1-0.7,0.4-1,0.8c-0.7,0.9-1.3,2-1.8,3.1
					c-0.5,1.1-0.9,2.2-1.3,3.1c-0.3,0.9-0.6,1.7-0.7,2.3c-0.1,0.6,0,0.9,0,0.9c0.2,1-0.4,2-1.4,2.2c-1,0.2-2-0.4-2.2-1.4
					c-0.1-0.5,0-1.1,0.3-1.5L144.3,588.1z"/>
				<path d="M253.3,588.1c0,0-0.2-0.3-0.5-0.9c-0.3-0.6-0.5-1.4-0.8-2.4c-0.3-1-0.8-2.2-1.3-3.4c-0.5-1.2-1.2-2.5-2.2-3.8
					c-0.5-0.6-1.1-1.3-2.1-1.7c-1-0.5-2.4-0.3-3.2,0.3c-0.8,0.5-1.3,1.1-1.7,1.7c-0.4,0.6-0.7,1.1-1,1.6c-0.5,1-0.9,1.8-1.1,2.4
					c-0.2,0.6-0.4,0.9-0.4,0.9c-0.1,0.2-0.1,0.4-0.1,0.6c1.8,0.2,3.2,0.5,3.2,0.5l0-0.1c0,0,0.1-0.3,0.3-0.8
					c0.2-0.5,0.4-1.3,0.8-2.1c0.3-0.8,0.9-1.8,1.5-2.2c0.3-0.2,0.3-0.2,0.5-0.1c0.3,0.1,0.7,0.4,1,0.8c0.7,0.9,1.3,2,1.8,3.1
					c0.5,1.1,0.9,2.2,1.3,3.1c0.3,0.9,0.6,1.7,0.7,2.3c0.1,0.6,0,0.9,0,0.9c-0.2,1,0.4,2,1.4,2.2c1,0.2,2-0.4,2.2-1.4
					c0.1-0.5,0-1.1-0.3-1.5L253.3,588.1z"/>
			</g>
		</g>
		<g>
			<g opacity="0.33">
				
					<radialGradient id="SVGID_16_" cx="2175.6028" cy="16415.4766" r="68.7624" gradientTransform="matrix(0.7621 0 0 0.1642 -960.3065 -1933.354)" gradientUnits="userSpaceOnUse">
					<stop  offset="0" style="stop-color:#757576"/>
					<stop  offset="0.2458" style="stop-color:#B1B1B1"/>
					<stop  offset="0.5423" style="stop-color:#D6D6D6"/>
					<stop  offset="0.8349" style="stop-color:#F4F4F4"/>
					<stop  offset="1" style="stop-color:#FFFFFF"/>
				</radialGradient>
				<ellipse fill="url(#SVGID_16_)" cx="697.7" cy="761.3" rx="53.3" ry="12.5"/>
				
					<radialGradient id="SVGID_17_" cx="2419.552" cy="16415.4766" r="68.7568" gradientTransform="matrix(0.7621 0 0 0.1642 -960.3065 -1933.354)" gradientUnits="userSpaceOnUse">
					<stop  offset="0" style="stop-color:#757576"/>
					<stop  offset="0.2458" style="stop-color:#B1B1B1"/>
					<stop  offset="0.5423" style="stop-color:#D6D6D6"/>
					<stop  offset="0.8349" style="stop-color:#F4F4F4"/>
					<stop  offset="1" style="stop-color:#FFFFFF"/>
				</radialGradient>
				<ellipse fill="url(#SVGID_17_)" cx="883.6" cy="761.3" rx="53.3" ry="12.5"/>
				
					<radialGradient id="SVGID_18_" cx="-2558.4778" cy="16385.543" r="48.7769" gradientTransform="matrix(3.1055 0 0 0.1642 8738.127 -1933.354)" gradientUnits="userSpaceOnUse">
					<stop  offset="0" style="stop-color:#8B8B8B"/>
					<stop  offset="0.3008" style="stop-color:#B1B1B1"/>
					<stop  offset="0.45" style="stop-color:#BCBCBC"/>
					<stop  offset="0.7082" style="stop-color:#D8D8D8"/>
					<stop  offset="1" style="stop-color:#FFFFFF"/>
				</radialGradient>
				<ellipse fill="url(#SVGID_18_)" cx="792.8" cy="756.4" rx="153.9" ry="8.8"/>
			</g>
			<g>
				<g>
					<linearGradient id="SVGID_19_" gradientUnits="userSpaceOnUse" x1="871.6768" y1="724.8575" x2="902.7319" y2="724.8575">
						<stop  offset="0" style="stop-color:#5F5A5E"/>
						<stop  offset="0.411" style="stop-color:#000000"/>
						<stop  offset="0.531" style="stop-color:#060506"/>
						<stop  offset="0.6864" style="stop-color:#161516"/>
						<stop  offset="0.8604" style="stop-color:#302E30"/>
						<stop  offset="1" style="stop-color:#4B484B"/>
					</linearGradient>
					<path fill="url(#SVGID_19_)" d="M880.6,688.1h13.2c4.9,0,8.9,4,8.9,8.9v27.8v27.8c0,4.9-4,8.9-8.9,8.9h-13.2
						c-4.9,0-8.9-4-8.9-8.9v-27.8v-27.8C871.7,692.1,875.7,688.1,880.6,688.1z"/>
					<g>
						<polygon fill="#424242" points="887.2,758.8 902.7,749.6 902.7,746.2 887.2,755.3 						"/>
						<path fill="#424242" d="M887.2,698.2l12.8-7.6c-0.8-0.8-1.7-1.4-2.7-1.8l-10.1,6V698.2z"/>
						<polygon fill="#424242" points="887.2,750.1 902.7,740.9 902.7,737.5 887.2,746.7 						"/>
						<path fill="#424242" d="M893.8,761.6c4.1,0,7.5-2.8,8.6-6.6l-11.1,6.6H893.8z"/>
						<polygon fill="#424242" points="887.2,741.5 902.7,732.3 902.7,728.9 887.2,738.1 						"/>
						<polygon fill="#424242" points="887.2,715.5 902.7,706.4 902.7,702.9 887.2,712.1 						"/>
						<path fill="#424242" d="M902.3,694.5l-15.1,8.9v3.4l15.5-9.2v-0.7C902.7,696.2,902.6,695.3,902.3,694.5z"/>
						<polygon fill="#424242" points="887.2,732.8 902.7,723.7 902.7,720.2 887.2,729.4 						"/>
						<polygon fill="#424242" points="887.2,724.2 902.7,715 902.7,711.6 887.2,720.8 						"/>
						<polygon fill="#424242" points="887.2,716.2 871.7,707.4 871.7,710.9 887.2,719.7 						"/>
						<polygon fill="#424242" points="887.2,707.6 871.7,698.8 871.7,702.2 887.2,711 						"/>
						<path fill="#424242" d="M887.2,690.3l-3.8-2.2h-2.8c-0.9,0-1.7,0.2-2.5,0.4l9.2,5.2V690.3z"/>
						<path fill="#424242" d="M887.2,698.9l-13.4-7.6c-0.6,0.8-1.2,1.6-1.5,2.6l15,8.5V698.9z"/>
						<polygon fill="#424242" points="887.2,742.2 871.7,733.3 871.7,736.8 887.2,745.6 						"/>
						<path fill="#424242" d="M871.7,752.7c0,0.5,0.1,1,0.2,1.5l13.1,7.4h2.3v-2.1l-15.6-8.8V752.7z"/>
						<polygon fill="#424242" points="887.2,750.8 871.7,742 871.7,745.4 887.2,754.3 						"/>
						<polygon fill="#424242" points="887.2,724.9 871.7,716.1 871.7,719.5 887.2,728.3 						"/>
						<polygon fill="#424242" points="887.2,733.5 871.7,724.7 871.7,724.9 871.7,728.1 887.2,737 						"/>
					</g>
				</g>
				<g>
					<linearGradient id="SVGID_20_" gradientUnits="userSpaceOnUse" x1="681.3514" y1="724.6085" x2="712.4064" y2="724.6085">
						<stop  offset="0" style="stop-color:#5F5A5E"/>
						<stop  offset="0.411" style="stop-color:#000000"/>
						<stop  offset="0.531" style="stop-color:#060506"/>
						<stop  offset="0.6864" style="stop-color:#161516"/>
						<stop  offset="0.8604" style="stop-color:#302E30"/>
						<stop  offset="1" style="stop-color:#4B484B"/>
					</linearGradient>
					<path fill="url(#SVGID_20_)" d="M690.3,687.9h13.2c4.9,0,8.9,4,8.9,8.9v27.8v27.8c0,4.9-4,8.9-8.9,8.9h-13.2
						c-4.9,0-8.9-4-8.9-8.9v-27.8v-27.8C681.4,691.9,685.4,687.9,690.3,687.9z"/>
					<g>
						<polygon fill="#424242" points="696.9,758.5 712.4,749.3 712.4,745.9 696.9,755.1 						"/>
						<path fill="#424242" d="M696.9,698l12.8-7.6c-0.8-0.8-1.7-1.4-2.7-1.8l-10.1,6V698z"/>
						<polygon fill="#424242" points="696.9,749.9 712.4,740.7 712.4,737.3 696.9,746.4 						"/>
						<path fill="#424242" d="M703.5,761.3c4.1,0,7.5-2.8,8.6-6.6l-11.1,6.6H703.5z"/>
						<polygon fill="#424242" points="696.9,741.2 712.4,732.1 712.4,728.6 696.9,737.8 						"/>
						<polygon fill="#424242" points="696.9,715.3 712.4,706.1 712.4,702.7 696.9,711.9 						"/>
						<path fill="#424242" d="M712,694.3l-15.1,8.9v3.4l15.5-9.2v-0.7C712.4,695.9,712.2,695.1,712,694.3z"/>
						<polygon fill="#424242" points="696.9,732.6 712.4,723.4 712.4,720 696.9,729.2 						"/>
						<polygon fill="#424242" points="696.9,723.9 712.4,714.8 712.4,711.3 696.9,720.5 						"/>
						<polygon fill="#424242" points="696.9,716 681.4,707.2 681.4,710.6 696.9,719.4 						"/>
						<polygon fill="#424242" points="696.9,707.3 681.4,698.5 681.4,702 696.9,710.8 						"/>
						<path fill="#424242" d="M696.9,690l-3.8-2.2h-2.8c-0.9,0-1.7,0.2-2.5,0.4l9.2,5.2V690z"/>
						<path fill="#424242" d="M696.9,698.7l-13.4-7.6c-0.6,0.8-1.2,1.6-1.5,2.6l15,8.5V698.7z"/>
						<polygon fill="#424242" points="696.9,741.9 681.4,733.1 681.4,736.5 696.9,745.4 						"/>
						<path fill="#424242" d="M681.4,752.4c0,0.5,0.1,1,0.2,1.5l13.1,7.4h2.3v-2.1l-15.6-8.8V752.4z"/>
						<polygon fill="#424242" points="696.9,750.6 681.4,741.7 681.4,745.2 696.9,754 						"/>
						<polygon fill="#424242" points="696.9,724.6 681.4,715.8 681.4,719.3 696.9,728.1 						"/>
						<polygon fill="#424242" points="696.9,733.3 681.4,724.4 681.4,724.6 681.4,727.9 696.9,736.7 						"/>
					</g>
				</g>
				
					<linearGradient id="SVGID_21_" gradientUnits="userSpaceOnUse" x1="-8906.0957" y1="616.4349" x2="-8906.0957" y2="632.3004" gradientTransform="matrix(-1 0 0 1 -8012.542 0)">
					<stop  offset="0" style="stop-color:#E9591C"/>
					<stop  offset="1" style="stop-color:#D55514"/>
				</linearGradient>
				<path fill="url(#SVGID_21_)" d="M885.2,623.8c0,0-1.6-9.8,9.2-7.4c10.8,2.5,14.3,2.2,14,12.8c-0.1,4.7-25,2.5-25,2.5l-4.7-7.6
					L885.2,623.8z"/>
				
					<linearGradient id="SVGID_22_" gradientUnits="userSpaceOnUse" x1="692.296" y1="616.4349" x2="692.296" y2="632.3004" gradientTransform="matrix(1 0 0 1 -1.6797 0)">
					<stop  offset="0" style="stop-color:#E9591C"/>
					<stop  offset="1" style="stop-color:#D55514"/>
				</linearGradient>
				<path fill="url(#SVGID_22_)" d="M699,623.8c0,0,1.6-9.8-9.2-7.4c-10.8,2.5-14.3,2.2-14,12.8c0.1,4.7,25,2.5,25,2.5l4.7-7.6
					L699,623.8z"/>
				<linearGradient id="SVGID_23_" gradientUnits="userSpaceOnUse" x1="791.9786" y1="577.2827" x2="791.9786" y2="704.5292">
					<stop  offset="0" style="stop-color:#E9591C"/>
					<stop  offset="1" style="stop-color:#D55514"/>
				</linearGradient>
				<path fill="url(#SVGID_23_)" d="M882.9,623.4c-4.8-10.6-9.2-29-16.3-39.8c-1.8-2.6-6.1-4.5-9.2-4.5c-23.2,0-107.5,0-130.7,0
					c-3.2,0-7.5,1.9-9.2,4.5c-7.1,10.7-11.5,29.2-16.4,39.8c-1.3,2.8-12.8,15.5-14.6,18.1c-6.6,9.9-6.2,22.8-6.2,22.8v33.4
					c0,3.2,2.6,5.7,5.7,5.7l106-0.6l106,0.6c3.2,0,5.7-2.5,5.7-5.7v-33.4c0,0,0.4-12.9-6.2-22.8
					C895.7,638.8,884.2,626.2,882.9,623.4z"/>
				<linearGradient id="SVGID_24_" gradientUnits="userSpaceOnUse" x1="792.0445" y1="686.1108" x2="792.0445" y2="723.304">
					<stop  offset="0" style="stop-color:#5F5A5E"/>
					<stop  offset="0.2754" style="stop-color:#262529"/>
					<stop  offset="0.4741" style="stop-color:#29282C"/>
					<stop  offset="0.6249" style="stop-color:#333135"/>
					<stop  offset="0.7595" style="stop-color:#434044"/>
					<stop  offset="0.8093" style="stop-color:#4B484B"/>
				</linearGradient>
				<path fill="url(#SVGID_24_)" d="M859.3,686.1l-21.9,9.7h-91.8l-21.9-9.7h-43.5c0,6,0.2,23.2,0.2,23.2c0,7.5,8.3,13.6,18.6,13.6
					h186.5c10.3,0,18.6-6.1,18.6-13.6c0-7.5-0.1-17.4-0.1-23.2H859.3z"/>
				<g>
					<path fill="#303031" d="M703.2,633.6c-0.6,0-0.9-0.1-0.9-0.2c0,0,0-0.3,0.2-0.8l13.4-36.2c2.3-3.6,9.2-7.2,14.1-7.2H854
						c5,0,11.9,3.6,14.2,7.3l13.4,36.1c0.3,0.5,0.2,0.8,0.2,0.9c0,0-0.3,0.2-0.9,0.2H703.2z"/>
					<g>
						<g>
							<path fill="#4F4F4F" d="M711.5,633.8l-0.2-2.9c2.2-0.1,54.4-3.3,77,0l-0.4,2.9C765.6,630.5,712.1,633.7,711.5,633.8z"/>
						</g>
						<rect x="763.7" y="629.7" fill="#4F4F4F" width="25.1" height="4"/>
					</g>
					<g>
						<g>
							<path fill="#4F4F4F" d="M792.6,633.8l-0.2-2.9c2.1-0.1,51.1-3.3,73.8,0l-0.4,2.9C843.4,630.5,793.1,633.7,792.6,633.8z"/>
						</g>
						<rect x="841.5" y="629.7" fill="#4F4F4F" width="25.1" height="4"/>
					</g>
					<g>
						<path fill="#484747" d="M854,592H730.1c-4.2,0-9.8,3.1-11.6,5.6l-4.4,11.8l150-13.2C861.5,594,857.1,592,854,592z"/>
						<path d="M864.1,596.2l-150,13.2l-7.9,21.3h171.7l-12.2-32.9C865.3,597.3,864.7,596.7,864.1,596.2z"/>
					</g>
				</g>
				<linearGradient id="SVGID_25_" gradientUnits="userSpaceOnUse" x1="757.734" y1="697.2889" x2="826.2234" y2="697.2889">
					<stop  offset="0" style="stop-color:#5F5A5E"/>
					<stop  offset="0.2754" style="stop-color:#262529"/>
					<stop  offset="0.4741" style="stop-color:#29282C"/>
					<stop  offset="0.6249" style="stop-color:#333135"/>
					<stop  offset="0.7595" style="stop-color:#434044"/>
					<stop  offset="0.8093" style="stop-color:#4B484B"/>
				</linearGradient>
				<rect x="757.7" y="690.1" fill="url(#SVGID_25_)" width="68.5" height="14.5"/>
				<rect x="759.2" y="691.5" fill="#FFFFFF" width="65.6" height="11.6"/>
				<g>
					<path fill="#FFFFFF" d="M884.5,708.8c0-3.2-2.6-5.8-5.8-5.8c-3.2,0-5.8,2.6-5.8,5.8c0,0.6,0.1,1.1,0.3,1.6h11.1
						C884.4,710,884.5,709.4,884.5,708.8z"/>
					<path fill="#FAD1AC" d="M873.2,710.5c0.7,2.4,2.9,4.2,5.5,4.2c2.6,0,4.8-1.8,5.5-4.2H873.2z"/>
				</g>
				<g>
					<path fill="#FFFFFF" d="M711.3,708.8c0-3.2-2.6-5.8-5.8-5.8s-5.8,2.6-5.8,5.8c0,0.6,0.1,1.1,0.3,1.6H711
						C711.2,710,711.3,709.4,711.3,708.8z"/>
					<path fill="#FAD1AC" d="M700,710.5c0.7,2.4,2.9,4.2,5.5,4.2c2.6,0,4.8-1.8,5.5-4.2H700z"/>
				</g>
				<g>
					
						<image overflow="visible" width="742" height="141" xlink:href="D053B68F.png"  transform="matrix(0.24 0 0 0.24 702.7449 633.5393)">
					</image>
				</g>
				<g>
					<linearGradient id="SVGID_26_" gradientUnits="userSpaceOnUse" x1="704.8243" y1="658.5225" x2="704.8243" y2="686.9084">
						<stop  offset="0" style="stop-color:#FFFFFF"/>
						<stop  offset="5.983770e-002" style="stop-color:#EAEAEA"/>
						<stop  offset="0.2445" style="stop-color:#B0B0B0"/>
						<stop  offset="0.4229" style="stop-color:#808080"/>
						<stop  offset="0.5908" style="stop-color:#5A5A5A"/>
						<stop  offset="0.7455" style="stop-color:#3F3F3F"/>
						<stop  offset="0.8825" style="stop-color:#2F2F2F"/>
						<stop  offset="0.9873" style="stop-color:#292929"/>
					</linearGradient>
					<path fill="url(#SVGID_26_)" d="M725.5,675.6c-0.9-6.4-39-29.5-40.8-13.5c-2.4,20.7,2.1,19.5,2.1,19.5
						c7.2,1.9,27.7,3.1,35.1,1.9C723.9,683.2,726.4,682,725.5,675.6z"/>
					<path fill="#FFFFFF" d="M713.2,682.7c-9.6,0-21.3-1-26.1-2.3l-0.3-0.1l-0.1,0c-0.4-0.4-2.4-3.1-0.7-18c0.2-1.9,1-4.3,5.6-4.3
						c11.3,0,32,14.1,32.5,17.9c0.8,5.9-1.4,6.3-2.5,6.4C719.8,682.5,716.9,682.7,713.2,682.7L713.2,682.7z"/>
					<g>
						<path fill="#FFFFFF" d="M719.6,677.2c0.3-1.2-0.7-4.2-2.7-3.2c-2,1-3.8-0.6-4.7-1c-0.9-0.4-2,1.7-1.1,4
							C712,679.3,717.8,685.5,719.6,677.2z"/>
						<path fill="#FCFBF9" d="M719.3,677.2c0.2-1.1-0.7-3.9-2.5-2.9c-1.8,0.9-3.5-0.6-4.4-1c-0.8-0.4-1.8,1.5-1,3.7
							C712.3,679.1,717.6,684.9,719.3,677.2z"/>
						<path fill="#F9F7F4" d="M719,677.1c0.2-1-0.6-3.6-2.3-2.7c-1.7,0.9-3.2-0.5-4-0.9c-0.8-0.3-1.7,1.4-0.9,3.4
							C712.5,678.9,717.4,684.2,719,677.1z"/>
						<path fill="#F6F2EE" d="M718.7,677.1c0.2-0.9-0.6-3.3-2.1-2.5c-1.5,0.8-3-0.5-3.7-0.8c-0.7-0.3-1.6,1.3-0.8,3.1
							C712.8,678.7,717.2,683.5,718.7,677.1z"/>
						<path fill="#F3EEE9" d="M718.3,677c0.2-0.8-0.5-3-1.9-2.2c-1.4,0.7-2.7-0.4-3.3-0.7c-0.6-0.3-1.4,1.2-0.7,2.8
							C713,678.5,717.1,682.9,718.3,677z"/>
						<path fill="#F0EAE3" d="M718,677c0.2-0.7-0.5-2.6-1.7-2c-1.2,0.6-2.4-0.4-3-0.7c-0.6-0.2-1.3,1.1-0.7,2.5
							C713.3,678.3,716.9,682.2,718,677z"/>
						<path fill="#EEE6DE" d="M717.7,676.9c0.1-0.6-0.4-2.3-1.5-1.8c-1.1,0.6-2.1-0.4-2.6-0.6c-0.5-0.2-1.1,0.9-0.6,2.2
							C713.5,678.1,716.7,681.5,717.7,676.9z"/>
						<path fill="#EBE2D8" d="M717.4,676.9c0.1-0.6-0.4-2-1.3-1.5c-1,0.5-1.8-0.3-2.3-0.5c-0.4-0.2-1,0.8-0.5,1.9
							C713.8,677.9,716.5,680.9,717.4,676.9z"/>
						<path fill="#E8DED3" d="M717.1,676.8c0.1-0.5-0.3-1.7-1.1-1.3c-0.8,0.4-1.6-0.3-1.9-0.4c-0.4-0.2-0.8,0.7-0.4,1.6
							C714,677.7,716.3,680.2,717.1,676.8z"/>
						<path fill="#E5D9CD" d="M716.8,676.8c0.1-0.4-0.2-1.4-0.9-1.1c-0.7,0.3-1.3-0.2-1.6-0.3c-0.3-0.1-0.7,0.6-0.4,1.3
							C714.2,677.5,716.2,679.5,716.8,676.8z"/>
						<path fill="#E2D5C8" d="M716.5,676.7c0.1-0.3-0.2-1.1-0.7-0.8c-0.5,0.3-1-0.2-1.2-0.3c-0.2-0.1-0.5,0.4-0.3,1
							C714.5,677.3,716,678.9,716.5,676.7z"/>
						<path fill="#DFD1C2" d="M716.2,676.7c0-0.2-0.1-0.8-0.5-0.6c-0.4,0.2-0.7-0.1-0.9-0.2c-0.2-0.1-0.4,0.3-0.2,0.8
							C714.7,677,715.8,678.2,716.2,676.7z"/>
					</g>
					<g>
						<path fill="#FFFFFF" d="M693.9,672.1c0,4.5,3.8,8.1,8.4,8.1c4.7,0,8.4-3.6,8.4-8.1c0-4.5-3.8-8.1-8.4-8.1
							C697.7,664,693.9,667.6,693.9,672.1z"/>
						<path fill="#FCFBF9" d="M694.4,672.1c0,4.2,3.6,7.7,7.9,7.7c4.4,0,7.9-3.4,7.9-7.7c0-4.2-3.6-7.7-7.9-7.7
							C698,664.4,694.4,667.9,694.4,672.1z"/>
						<path fill="#F9F7F4" d="M694.9,672.1c0,4,3.3,7.2,7.5,7.2c4.1,0,7.5-3.2,7.5-7.2c0-4-3.3-7.2-7.5-7.2
							C698.2,664.9,694.9,668.1,694.9,672.1z"/>
						<path fill="#F6F2EE" d="M695.3,672.1c0,3.7,3.1,6.8,7,6.8c3.9,0,7-3,7-6.8c0-3.7-3.1-6.8-7-6.8
							C698.5,665.4,695.3,668.4,695.3,672.1z"/>
						<path fill="#F3EEE9" d="M695.8,672.1c0,3.5,2.9,6.3,6.5,6.3c3.6,0,6.5-2.8,6.5-6.3c0-3.5-2.9-6.3-6.5-6.3
							C698.7,665.8,695.8,668.6,695.8,672.1z"/>
						<path fill="#F0EAE3" d="M696.3,672.1c0,3.2,2.7,5.8,6,5.8c3.3,0,6-2.6,6-5.8c0-3.2-2.7-5.8-6-5.8
							C699,666.3,696.3,668.9,696.3,672.1z"/>
						<path fill="#EEE6DE" d="M696.8,672.1c0,3,2.5,5.4,5.6,5.4c3.1,0,5.6-2.4,5.6-5.4c0-3-2.5-5.4-5.6-5.4
							C699.3,666.7,696.8,669.2,696.8,672.1z"/>
						<path fill="#EBE2D8" d="M697.3,672.1c0,2.7,2.3,4.9,5.1,4.9c2.8,0,5.1-2.2,5.1-4.9c0-2.7-2.3-4.9-5.1-4.9
							C699.5,667.2,697.3,669.4,697.3,672.1z"/>
						<path fill="#E8DED3" d="M697.7,672.1c0,2.5,2.1,4.5,4.6,4.5c2.6,0,4.6-2,4.6-4.5c0-2.5-2.1-4.5-4.6-4.5
							C699.8,667.7,697.7,669.7,697.7,672.1z"/>
						<path fill="#E5D9CD" d="M698.2,672.1c0,2.2,1.8,4,4.1,4c2.3,0,4.1-1.8,4.1-4c0-2.2-1.8-4-4.1-4
							C700.1,668.1,698.2,669.9,698.2,672.1z"/>
						<path fill="#E2D5C8" d="M698.7,672.1c0,2,1.6,3.5,3.7,3.5c2,0,3.7-1.6,3.7-3.5c0-2-1.6-3.5-3.7-3.5
							C700.3,668.6,698.7,670.2,698.7,672.1z"/>
						<path fill="#DFD1C2" d="M699.2,672.1c0,1.7,1.4,3.1,3.2,3.1c1.8,0,3.2-1.4,3.2-3.1c0-1.7-1.4-3.1-3.2-3.1
							C700.6,669,699.2,670.4,699.2,672.1z"/>
					</g>
					<g>
						<path fill="#FAD1AC" d="M691.6,666.4c-0.2-0.9-3.3-5.7-4.2,0c-0.9,5.7,1.4,11.9,3.4,10.5C692.6,675.8,692,668.8,691.6,666.4z"
							/>
						<path fill="#F6B9AB" d="M690,668.9c-0.2-0.9-2.2-6.2-3.1-0.5c-0.9,5.7,1.6,10.2,3.7,8.8C692.3,676,690.4,671.3,690,668.9z"/>
					</g>
				</g>
				<g>
					
						<linearGradient id="SVGID_27_" gradientUnits="userSpaceOnUse" x1="-8891.0918" y1="658.5225" x2="-8891.0918" y2="686.9084" gradientTransform="matrix(-1 0 0 1 -8011.6592 0)">
						<stop  offset="0" style="stop-color:#FFFFFF"/>
						<stop  offset="5.983770e-002" style="stop-color:#EAEAEA"/>
						<stop  offset="0.2445" style="stop-color:#B0B0B0"/>
						<stop  offset="0.4229" style="stop-color:#808080"/>
						<stop  offset="0.5908" style="stop-color:#5A5A5A"/>
						<stop  offset="0.7455" style="stop-color:#3F3F3F"/>
						<stop  offset="0.8825" style="stop-color:#2F2F2F"/>
						<stop  offset="0.9873" style="stop-color:#292929"/>
					</linearGradient>
					<path fill="url(#SVGID_27_)" d="M858.8,675.6c0.9-6.4,39-29.5,40.8-13.5c2.4,20.7-2.1,19.5-2.1,19.5
						c-7.2,1.9-27.7,3.1-35.1,1.9C860.3,683.2,857.9,682,858.8,675.6z"/>
					<path fill="#FFFFFF" d="M871,682.7c9.6,0,21.3-1,26.1-2.3l0.3-0.1l0.1,0c0.4-0.4,2.4-3.1,0.7-18c-0.2-1.9-1-4.3-5.6-4.3
						c-11.3,0-32,14.1-32.5,17.9c-0.8,5.9,1.4,6.3,2.5,6.4C864.5,682.5,867.4,682.7,871,682.7L871,682.7z"/>
					<g>
						<path fill="#FFFFFF" d="M864.7,677.2c-0.3-1.2,0.7-4.2,2.7-3.2c2,1,3.8-0.6,4.7-1c0.9-0.4,2,1.7,1.1,4
							C872.2,679.3,866.5,685.5,864.7,677.2z"/>
						<path fill="#FCFBF9" d="M865,677.2c-0.2-1.1,0.7-3.9,2.5-2.9c1.8,0.9,3.5-0.6,4.4-1c0.8-0.4,1.8,1.5,1,3.7
							C872,679.1,866.7,684.9,865,677.2z"/>
						<path fill="#F9F7F4" d="M865.3,677.1c-0.2-1,0.6-3.6,2.3-2.7c1.7,0.9,3.2-0.5,4-0.9c0.8-0.3,1.7,1.4,0.9,3.4
							C871.7,678.9,866.8,684.2,865.3,677.1z"/>
						<path fill="#F6F2EE" d="M865.6,677.1c-0.2-0.9,0.6-3.3,2.1-2.5c1.5,0.8,3-0.5,3.7-0.8c0.7-0.3,1.6,1.3,0.8,3.1
							C871.5,678.7,867,683.5,865.6,677.1z"/>
						<path fill="#F3EEE9" d="M865.9,677c-0.2-0.8,0.5-3,1.9-2.2c1.4,0.7,2.7-0.4,3.3-0.7c0.6-0.3,1.4,1.2,0.7,2.8
							C871.2,678.5,867.2,682.9,865.9,677z"/>
						<path fill="#F0EAE3" d="M866.2,677c-0.2-0.7,0.5-2.6,1.7-2c1.2,0.6,2.4-0.4,3-0.7c0.6-0.2,1.3,1.1,0.7,2.5
							C871,678.3,867.4,682.2,866.2,677z"/>
						<path fill="#EEE6DE" d="M866.5,676.9c-0.1-0.6,0.4-2.3,1.5-1.8c1.1,0.6,2.1-0.4,2.6-0.6c0.5-0.2,1.1,0.9,0.6,2.2
							C870.7,678.1,867.6,681.5,866.5,676.9z"/>
						<path fill="#EBE2D8" d="M866.9,676.9c-0.1-0.6,0.4-2,1.3-1.5c1,0.5,1.8-0.3,2.3-0.5c0.4-0.2,1,0.8,0.5,1.9
							C870.5,677.9,867.7,680.9,866.9,676.9z"/>
						<path fill="#E8DED3" d="M867.2,676.8c-0.1-0.5,0.3-1.7,1.1-1.3c0.8,0.4,1.6-0.3,1.9-0.4c0.4-0.2,0.8,0.7,0.4,1.6
							C870.3,677.7,867.9,680.2,867.2,676.8z"/>
						<path fill="#E5D9CD" d="M867.5,676.8c-0.1-0.4,0.2-1.4,0.9-1.1c0.7,0.3,1.3-0.2,1.6-0.3c0.3-0.1,0.7,0.6,0.4,1.3
							C870,677.5,868.1,679.5,867.5,676.8z"/>
						<path fill="#E2D5C8" d="M867.8,676.7c-0.1-0.3,0.2-1.1,0.7-0.8c0.5,0.3,1-0.2,1.2-0.3c0.2-0.1,0.5,0.4,0.3,1
							C869.8,677.3,868.3,678.9,867.8,676.7z"/>
						<path fill="#DFD1C2" d="M868.1,676.7c0-0.2,0.1-0.8,0.5-0.6c0.4,0.2,0.7-0.1,0.9-0.2c0.2-0.1,0.4,0.3,0.2,0.8
							C869.5,677,868.4,678.2,868.1,676.7z"/>
					</g>
					<g>
						<path fill="#FFFFFF" d="M890.3,672.1c0,4.5-3.8,8.1-8.4,8.1c-4.7,0-8.4-3.6-8.4-8.1c0-4.5,3.8-8.1,8.4-8.1
							C886.6,664,890.3,667.6,890.3,672.1z"/>
						<path fill="#FCFBF9" d="M889.9,672.1c0,4.2-3.6,7.7-7.9,7.7c-4.4,0-7.9-3.4-7.9-7.7c0-4.2,3.6-7.7,7.9-7.7
							C886.3,664.4,889.9,667.9,889.9,672.1z"/>
						<path fill="#F9F7F4" d="M889.4,672.1c0,4-3.3,7.2-7.5,7.2c-4.1,0-7.5-3.2-7.5-7.2c0-4,3.3-7.2,7.5-7.2
							C886,664.9,889.4,668.1,889.4,672.1z"/>
						<path fill="#F6F2EE" d="M888.9,672.1c0,3.7-3.1,6.8-7,6.8c-3.9,0-7-3-7-6.8c0-3.7,3.1-6.8,7-6.8
							C885.8,665.4,888.9,668.4,888.9,672.1z"/>
						<path fill="#F3EEE9" d="M888.4,672.1c0,3.5-2.9,6.3-6.5,6.3c-3.6,0-6.5-2.8-6.5-6.3c0-3.5,2.9-6.3,6.5-6.3
							C885.5,665.8,888.4,668.6,888.4,672.1z"/>
						<path fill="#F0EAE3" d="M888,672.1c0,3.2-2.7,5.8-6,5.8c-3.3,0-6-2.6-6-5.8c0-3.2,2.7-5.8,6-5.8
							C885.3,666.3,888,668.9,888,672.1z"/>
						<path fill="#EEE6DE" d="M887.5,672.1c0,3-2.5,5.4-5.6,5.4c-3.1,0-5.6-2.4-5.6-5.4c0-3,2.5-5.4,5.6-5.4
							C885,666.7,887.5,669.2,887.5,672.1z"/>
						<path fill="#EBE2D8" d="M887,672.1c0,2.7-2.3,4.9-5.1,4.9c-2.8,0-5.1-2.2-5.1-4.9c0-2.7,2.3-4.9,5.1-4.9
							C884.7,667.2,887,669.4,887,672.1z"/>
						<path fill="#E8DED3" d="M886.5,672.1c0,2.5-2.1,4.5-4.6,4.5c-2.6,0-4.6-2-4.6-4.5c0-2.5,2.1-4.5,4.6-4.5
							C884.5,667.7,886.5,669.7,886.5,672.1z"/>
						<path fill="#E5D9CD" d="M886.1,672.1c0,2.2-1.8,4-4.1,4c-2.3,0-4.1-1.8-4.1-4c0-2.2,1.8-4,4.1-4
							C884.2,668.1,886.1,669.9,886.1,672.1z"/>
						<path fill="#E2D5C8" d="M885.6,672.1c0,2-1.6,3.5-3.7,3.5c-2,0-3.7-1.6-3.7-3.5c0-2,1.6-3.5,3.7-3.5
							C883.9,668.6,885.6,670.2,885.6,672.1z"/>
						<path fill="#DFD1C2" d="M885.1,672.1c0,1.7-1.4,3.1-3.2,3.1c-1.8,0-3.2-1.4-3.2-3.1c0-1.7,1.4-3.1,3.2-3.1
							C883.7,669,885.1,670.4,885.1,672.1z"/>
					</g>
					<g>
						<path fill="#FAD1AC" d="M892.7,666.4c0.2-0.9,3.3-5.7,4.2,0c0.9,5.7-1.4,11.9-3.4,10.5C891.6,675.8,892.3,668.8,892.7,666.4z"
							/>
						<path fill="#F6B9AB" d="M894.3,668.9c0.2-0.9,2.2-6.2,3.1-0.5c0.9,5.7-1.6,10.2-3.7,8.8C891.9,676,893.8,671.3,894.3,668.9z"
							/>
					</g>
				</g>
				<g>
					<linearGradient id="SVGID_28_" gradientUnits="userSpaceOnUse" x1="791.9773" y1="659.5931" x2="791.9773" y2="683.9006">
						<stop  offset="0" style="stop-color:#5F5A5E"/>
						<stop  offset="0.2754" style="stop-color:#262529"/>
						<stop  offset="0.4741" style="stop-color:#29282C"/>
						<stop  offset="0.6249" style="stop-color:#333135"/>
						<stop  offset="0.7595" style="stop-color:#434044"/>
						<stop  offset="0.8093" style="stop-color:#4B484B"/>
					</linearGradient>
					<polygon fill="url(#SVGID_28_)" points="852.3,681.4 731.7,681.4 722.4,657.9 861.5,657.9 					"/>
					<g>
						<polygon fill="#D4D3D3" points="852.6,675.2 853.7,673.2 730.2,673.2 731.3,675.2 						"/>
						<polygon fill="#D4D3D3" points="728.5,670 729.6,672 854.4,672 855.4,670 						"/>
						<polygon fill="#D4D3D3" points="726.8,666.8 727.9,668.8 856.1,668.8 857.1,666.8 						"/>
						<polygon fill="#D4D3D3" points="725.1,663.6 726.2,665.6 857.8,665.6 858.9,663.6 						"/>
						<polygon fill="#D4D3D3" points="723.4,660.4 724.4,662.4 859.5,662.4 860.6,660.4 						"/>
					</g>
					<rect x="759.2" y="661.4" fill="#D4D3D3" width="13.6" height="11.9"/>
					<rect x="811.2" y="661.4" fill="#D4D3D3" width="13.6" height="11.9"/>
				</g>
			</g>
		</g>
	</g>
</g>
</svg>
