<?xml version="1.0" encoding="utf-8"?>
<!-- Generator: Adobe Illustrator 18.0.0, SVG Export Plug-In . SVG Version: 6.00 Build 0)  -->
<!DOCTYPE svg PUBLIC "-//W3C//DTD SVG 1.1//EN" "http://www.w3.org/Graphics/SVG/1.1/DTD/svg11.dtd">
<svg version="1.1" xmlns="http://www.w3.org/2000/svg" xmlns:xlink="http://www.w3.org/1999/xlink" x="0px" y="0px"
	 viewBox="0 0 1100 1000" enable-background="new 0 0 1100 1000" xml:space="preserve">
<g id="Capa_1">
</g>
<g id="Capa_2">
	<g>
		<g>
			<polygon fill="#DFDCD5" points="999.8,347 872.4,236.7 456.7,236.7 422.2,347.1 			"/>
			<g>
				<rect x="-0.5" y="129.3" fill="#DBD8CA" width="501.9" height="861.2"/>
			</g>
			<g>
				<rect x="-0.9" y="347" fill="#DBD8CA" width="999.7" height="653"/>
			</g>
			<rect x="500" y="451.2" fill="#D3D0C7" width="61" height="542.9"/>
			<rect x="494.7" y="452.2" fill="#C9C7C0" width="10.5" height="543.8"/>
			<rect x="768.1" y="446.2" fill="#C9C7C0" width="10.5" height="552.5"/>
			<rect x="778.6" y="451.2" fill="#D3D0C7" width="61" height="545.1"/>
			<rect x="-1.3" y="913" fill="#CCC9C1" width="1000.3" height="86.9"/>
			<polyline fill="#DDF0F7" stroke="#D0D0D0" stroke-width="8.6601" stroke-miterlimit="10" points="735.3,456.8 735.3,544 
				597.1,544 597.1,456.8 			"/>
			<polyline fill="#DDF0F7" stroke="#D0D0D0" stroke-width="8.6601" stroke-miterlimit="10" points="740,605 740,861 601.8,861 
				601.8,605 			"/>
			<polygon fill="#E9F5FA" points="694.1,537.8 607.4,537.8 607.4,458.3 			"/>
			<polyline fill="#DDF0F7" stroke="#D0D0D0" stroke-width="8.6601" stroke-miterlimit="10" points="180.9,999.4 180.9,784 
				398.6,784 398.6,1000 			"/>
			<polygon fill="#E9F5FA" points="372.1,986.6 195.4,986.6 195.4,799.8 			"/>
			<rect x="-0.7" y="248.3" opacity="0.5" fill="#C9C7C0" width="497.5" height="6.3"/>
			<rect x="-2.4" y="437.5" opacity="0.5" fill="#C9C7C0" width="167.4" height="6.3"/>
			<rect x="0.5" y="711.4" opacity="0.5" fill="#C9C7C0" width="503.3" height="6.3"/>
			<rect x="79.1" y="126.6" opacity="0.5" fill="#C9C7C0" width="6.3" height="789.8"/>
			<rect x="494.2" y="347.4" opacity="0.5" fill="#C9C7C0" width="6.3" height="64.9"/>
			<rect x="348.3" y="130.8" opacity="0.5" fill="#C9C7C0" width="6.3" height="648.6"/>
			<polygon fill="#E9F5FA" points="720.7,842.3 620.9,842.3 616.7,625.7 			"/>
			<polyline fill="#DDF0F7" stroke="#D0D0D0" stroke-width="8.6601" stroke-miterlimit="10" points="394.3,458.5 394.3,545.8 
				166.7,545.8 166.7,458.5 			"/>
			<polygon fill="#E9F5FA" points="323.1,538.2 180.3,538.2 180.3,458.7 			"/>
			<rect x="81.1" y="429.1" fill="#D3D0C7" width="954.2" height="28.4"/>
			<polygon fill="#DFDCD5" points="997.8,412.3 122.8,412.3 78.8,429.1 1034.6,429.1 			"/>
			<rect x="892.1" y="457.5" fill="#CCC9C4" width="13.7" height="411.1"/>
			<rect x="913.8" y="458.2" fill="#CCC9C4" width="13.7" height="411.1"/>
			<rect x="934.9" y="458.2" fill="#CCC9C4" width="13.7" height="411.1"/>
			<rect x="955.9" y="458.2" fill="#CCC9C4" width="13.7" height="411.1"/>
			<rect x="976.9" y="458.2" fill="#CCC9C4" width="13.7" height="411.1"/>
			<rect x="871.1" y="457.5" fill="#CCC9C4" width="13.7" height="411.1"/>
			<rect x="850.1" y="457.5" fill="#CCC9C4" width="13.7" height="411.1"/>
			<rect x="838.5" y="867" fill="#DBD8D5" width="160" height="46.4"/>
			<polyline fill="#DFDCD5" points="0,129.3 56.6,16.9 411.2,16 502.3,129.3 			"/>
		</g>
	</g>
	<g>
		<g>
			<g>
				<g>
					<g>
						
							<path fill="none" stroke="#FFFFFF" stroke-width="12.3151" stroke-linecap="round" stroke-linejoin="round" stroke-miterlimit="10" d="
							M333.8,591.6h8.5c-3.5,8.7-6.4,17.3-10,29.3h-8.7C327.4,611,330.7,601.3,333.8,591.6z"/>
						
							<polygon fill="none" stroke="#FFFFFF" stroke-width="12.3151" stroke-linecap="round" stroke-linejoin="round" stroke-miterlimit="10" points="
							343.9,587 335.5,587 337.4,581.4 345.8,581.4 						"/>
						
							<path fill="none" stroke="#FFFFFF" stroke-width="12.3151" stroke-linecap="round" stroke-linejoin="round" stroke-miterlimit="10" d="
							M299.9,591.5h8.5c-3.5,8.7-6.4,17.3-10,29.1h-8.7C293.5,611,296.8,601.3,299.9,591.5z"/>
						
							<polygon fill="none" stroke="#FFFFFF" stroke-width="12.3151" stroke-linecap="round" stroke-linejoin="round" stroke-miterlimit="10" points="
							309.9,587 301.6,587 303.5,581.4 312,581.4 						"/>
						
							<path fill="none" stroke="#FFFFFF" stroke-width="12.3151" stroke-linecap="round" stroke-linejoin="round" stroke-miterlimit="10" d="
							M151.1,614.3l-2.4,6.4l-27.4-0.2c5.4-13,9.9-26,14-39.1h9.2c-1.4,3.5-9.4,25.5-11.8,32.9h7.1
							C143.7,614.5,147.5,614.5,151.1,614.3z"/>
						
							<path fill="none" stroke="#FFFFFF" stroke-width="12.3151" stroke-linecap="round" stroke-linejoin="round" stroke-miterlimit="10" d="
							M384.7,615.9l-2.9,5c-1.9,0.3-3.6,0.5-5.5,0.5c-9.4,0-8.7-5.7-7.8-8.3c3.6-11.9,23-8,24.9-14.4c0.9-2.8-2.3-3.3-4.3-3.3
							c-4,0-8.1,1-12.1,2.4l2.6-5.4c4.5-1,8.8-1.7,13.2-1.7c5.2,0,10.9,1.2,9,7.6c-1.2,4.2-5.2,13.5-7.8,22.3h-8.1
							c1-2.6,2.1-5.2,5.7-15.1c-3.8,2.8-13.5,2.4-15.2,7.6c-0.9,2.8,1.6,3.5,3.8,3.5C381.4,616.8,383,616.4,384.7,615.9z"/>
						
							<path fill="none" stroke="#FFFFFF" stroke-width="12.3151" stroke-linecap="round" stroke-linejoin="round" stroke-miterlimit="10" d="
							M351.8,591.6v21.6l15.1-21.5h8.5c-7.4,9.7-14.9,19.4-22,29.1h-8.8c-0.2-9.9-0.7-19.4-1.2-29.3H351.8z"/>
						
							<path fill="none" stroke="#FFFFFF" stroke-width="12.3151" stroke-linecap="round" stroke-linejoin="round" stroke-miterlimit="10" d="
							M328.6,597.5h-7.3c-0.9,2.4-4.2,11.4-4.8,13.5c-0.7,2.4-0.9,4.5,1.7,4.5c2.3,0,3.5-0.3,4.8-0.7l-2.9,6.1
							c-2.4,0.5-4.7,0.9-6.8,0.9c-5.5,0-7.6-1.9-5.9-7.6c0.9-2.9,5.5-15.2,6.1-16.6h-4.2l2.1-5.7h4.3l1.9-5.4l8-1.6l-2.4,6.9h7.3
							L328.6,597.5z"/>
						
							<path fill="none" stroke="#FFFFFF" stroke-width="12.3151" stroke-linecap="round" stroke-linejoin="round" stroke-miterlimit="10" d="
							M264.7,620.7l1.4-6.4c2.4,1,4.8,2.3,7.6,2.3c1.7,0,4.7-0.5,5.4-2.9c1.2-4.2-8.8-7.4-6.8-14.2c1.6-4.8,5.9-8,13.5-8
							c2.9,0,5.7,0.3,8.3,1l-1.6,6.1c-1.6-0.9-3.5-1.6-5.9-1.6c-2.4,0-5,0.2-5.7,2.8c-1,3.6,8.8,7.3,6.6,14.5c-1.9,6.1-9.2,8-14,8
							C270.6,621.9,267.5,621.4,264.7,620.7z"/>
						
							<path fill="none" stroke="#FFFFFF" stroke-width="12.3151" stroke-linecap="round" stroke-linejoin="round" stroke-miterlimit="10" d="
							M215.5,604.6l0.3-5.7c1,0.2,2.1,0.3,3.1,0.3c5.4,0,8.8-2.4,10.2-6.8c1.2-3.8-0.5-4.8-4.7-4.8c-2.1,0-4.2,0.2-6.4,0.3
							c-1.4,3.8-8.1,23.4-11.3,33.1h-8.5c2.9-6.8,10.7-29.4,13.7-39.1l18.5,0.2c7.8,0,8.1,6.2,6.9,10.2c-2.6,8.1-10.4,12.6-18,12.6
							C218.3,605,216.9,604.8,215.5,604.6z"/>
						
							<path fill="none" stroke="#FFFFFF" stroke-width="12.3151" stroke-linecap="round" stroke-linejoin="round" stroke-miterlimit="10" d="
							M169.7,616.1l-2.9,5c-1.9,0.3-3.6,0.5-5.5,0.5c-9.4,0-8.7-5.7-7.8-8.3c3.6-11.9,23-8,24.9-14.4c0.9-2.8-2.1-3.3-4.3-3.3
							c-4,0-8.1,1-12.1,2.4l2.6-5.5c4.5-1,8.8-1.7,13.2-1.7c5.2,0,10.9,1.2,9,7.6c-1.2,4.2-5.2,13.5-8,22.2h-8.1
							c1-2.6,2.1-5.2,5.7-15.1c-3.8,2.6-13.5,2.4-15.2,7.6c-0.9,2.8,1.6,3.5,3.8,3.5C166.4,616.9,167.9,616.6,169.7,616.1z"/>
						<g>
							<g>
								
									<path fill="none" stroke="#FFFFFF" stroke-width="12.3151" stroke-linecap="round" stroke-linejoin="round" stroke-miterlimit="10" d="
									M255.7,591.3c-9.7,0-18.4,5.9-21.5,15.9c-1.9,6.4-0.7,14.5,11.1,14.5c13.5,0,19.6-10,21.3-15.8
									C269.7,596.7,264.9,591.3,255.7,591.3z M254,597c5.4,0,6.2,4,4.7,8.8c-1.6,5.2-5.5,10.2-11.4,10.2c-5,0-6.4-4-4.8-8.7
									C243.9,602,247.8,597,254,597z"/>
							</g>
							<g>
								
									<path fill="none" stroke="#FFFFFF" stroke-width="12.3151" stroke-linecap="round" stroke-linejoin="round" stroke-miterlimit="10" d="
									M169.7,616.1c-1.6,0.5-3.3,0.9-4.8,0.9c-2.4,0-4.7-0.7-3.8-3.5c1.6-5.2,11.3-4.8,15.2-7.6c-3.6,9.9-4.5,12.5-5.7,15.1h8.1
									c2.8-8.8,6.6-18,7.8-22.2c1.9-6.4-3.8-7.6-9-7.6c-4.3,0-8.7,0.7-13.2,1.7l-2.6,5.5c4-1.4,8.3-2.4,12.1-2.4
									c2.3,0,5.2,0.3,4.3,3.3c-1.9,6.4-21.3,2.4-25.1,14.4c-0.9,2.6-1.6,8.3,7.8,8.3c1.9,0,3.6-0.2,5.5-0.5L169.7,616.1z"/>
							</g>
							<g>
								
									<path fill="none" stroke="#FFFFFF" stroke-width="12.3151" stroke-linecap="round" stroke-linejoin="round" stroke-miterlimit="10" d="
									M215.5,604.6c1.4,0.2,2.8,0.3,4.2,0.3c7.8,0,15.4-4.5,18-12.6c1.2-4.2,0.9-10.2-6.9-10.2l-18.5-0.2
									c-3.1,9.9-10.9,32.4-13.7,39.1h8.5c3.1-9.9,9.9-29.4,11.3-33.1c2.3-0.2,4.2-0.3,6.4-0.3c4.2,0,5.9,1,4.7,4.8
									c-1.4,4.3-4.8,6.8-10.2,6.8c-1,0-2.1-0.2-3.1-0.3L215.5,604.6z"/>
							</g>
							<g>
								
									<path fill="none" stroke="#FFFFFF" stroke-width="12.3151" stroke-linecap="round" stroke-linejoin="round" stroke-miterlimit="10" d="
									M264.7,620.7c2.8,0.7,5.7,1.2,9,1.2c4.8,0,12.1-1.9,14-8c2.3-7.3-7.8-10.7-6.6-14.5c0.9-2.6,3.3-2.8,5.7-2.8
									c2.3,0,4.2,0.7,5.9,1.6l1.6-6.1c-2.8-0.5-5.5-0.9-8.3-0.9c-7.6,0-11.9,3.3-13.5,8c-2.1,6.8,8,10,6.8,14.2
									c-0.7,2.4-3.6,3.1-5.4,3.1c-2.9,0-5.4-1-7.6-2.3L264.7,620.7z"/>
							</g>
							<g>
								
									<path fill="none" stroke="#FFFFFF" stroke-width="12.3151" stroke-linecap="round" stroke-linejoin="round" stroke-miterlimit="10" d="
									M328.6,597.5l2.1-5.7h-7.3l2.4-6.9l-8,1.6l-1.9,5.4h-4.3l-2.1,5.7h4.2c-0.5,1.4-5.2,13.5-6.1,16.6c-1.7,5.7,0.3,7.6,5.9,7.6
									c2.3,0,4.5-0.3,6.8-0.9l2.9-6.1c-1.6,0.3-2.6,0.7-4.8,0.7c-2.6,0-2.4-2.1-1.7-4.5c0.7-2.1,4-10.9,4.8-13.5H328.6z"/>
							</g>
							<g>
								
									<path fill="none" stroke="#FFFFFF" stroke-width="12.3151" stroke-linecap="round" stroke-linejoin="round" stroke-miterlimit="10" d="
									M351.8,591.6h-8.3c0.3,9.7,1,19.4,1.2,29.3h8.8c7.1-9.9,14.5-19.6,22-29.1h-8.5l-14.9,21.5H352v-21.6H351.8z"/>
							</g>
							<g>
								
									<path fill="none" stroke="#FFFFFF" stroke-width="12.3151" stroke-linecap="round" stroke-linejoin="round" stroke-miterlimit="10" d="
									M384.7,615.9c-1.6,0.5-3.3,0.9-4.8,0.9c-2.3,0-4.7-0.7-3.8-3.5c1.6-5.2,11.3-4.8,15.2-7.6c-3.6,9.9-4.5,12.5-5.7,15.1h8.1
									c2.8-8.8,6.6-18.2,8-22.3c1.9-6.4-3.8-7.6-9-7.6c-4.3,0-8.7,0.7-13.2,1.7l-2.6,5.4c4-1.4,8.3-2.4,12.1-2.4
									c2.3,0,5.2,0.5,4.3,3.3c-1.9,6.4-21.3,2.4-24.9,14.4c-0.9,2.6-1.6,8.3,7.8,8.3c1.9,0,3.6-0.2,5.5-0.5L384.7,615.9z"/>
							</g>
							<g>
								
									<path fill="none" stroke="#FFFFFF" stroke-width="12.3151" stroke-linecap="round" stroke-linejoin="round" stroke-miterlimit="10" d="
									M151.1,614.5c-3.8,0.2-7.4,0.2-11.3,0.2h-7.1c2.6-7.4,10.6-29.4,11.8-32.9h-9.2c-4.3,13.2-8.8,26.1-14,39.1l27.4,0.2
									L151.1,614.5z"/>
							</g>
							<g>
								
									<polygon fill="none" stroke="#FFFFFF" stroke-width="12.3151" stroke-linecap="round" stroke-linejoin="round" stroke-miterlimit="10" points="
									309.9,587 311.8,581.4 303.5,581.4 301.6,587 								"/>
							</g>
							<g>
								
									<path fill="none" stroke="#FFFFFF" stroke-width="12.3151" stroke-linecap="round" stroke-linejoin="round" stroke-miterlimit="10" d="
									M299.9,591.5c-3.1,9.7-6.4,19.6-10.4,29.3h8.7c3.6-11.8,6.8-20.4,10.2-29.3H299.9z"/>
							</g>
							<g>
								
									<polygon fill="none" stroke="#FFFFFF" stroke-width="12.3151" stroke-linecap="round" stroke-linejoin="round" stroke-miterlimit="10" points="
									343.9,587 345.8,581.4 337.3,581.4 335.5,587 								"/>
							</g>
							<g>
								
									<path fill="none" stroke="#FFFFFF" stroke-width="12.3151" stroke-linecap="round" stroke-linejoin="round" stroke-miterlimit="10" d="
									M333.8,591.6c-3.1,9.7-6.4,19.6-10.4,29.1h8.7c3.8-11.8,6.8-20.4,10.2-29.3L333.8,591.6z"/>
							</g>
						</g>
					</g>
					<g>
						
							<path fill="none" stroke="#FFFFFF" stroke-width="12.3151" stroke-linecap="round" stroke-linejoin="round" stroke-miterlimit="10" d="
							M345.8,671.6c-101.5,8.1-189.6-7.4-223.7-36.2c0.2,0.2,0.2,0.5,0.3,0.7c48.1,39.3,149.6,62,267,55.9l5.5-26.3
							C379.2,668.5,362.7,670.4,345.8,671.6z"/>
					</g>
					
						<path fill="none" stroke="#FFFFFF" stroke-width="12.3151" stroke-linecap="round" stroke-linejoin="round" stroke-miterlimit="10" d="
						M295.7,633.7l-0.9,3.3c-1-0.5-2.3-0.9-3.6-0.9c-1.7,0-3.3,0.9-3.8,2.1c-1,2.9,5.4,4.8,3.8,9.4c-0.7,2.1-3.3,5-8.5,5
						c-1.7,0-3.5-0.3-5-0.7l1-3.5c1.2,0.7,2.8,1.2,4.5,1.2c1.4,0,3.3-0.5,3.8-2.1c1-2.9-5.4-5-3.6-9.5c1.2-3.3,5-4.8,8.3-4.8
						C293.1,633.2,294.5,633.4,295.7,633.7 M336.8,652.4l0.7-2.3c-1.7,1.9-3.8,2.6-6.1,2.6c-2.8,0-4.7-1.2-3.5-4.3
						c0.9-2.4,2.3-5.2,4.2-10h4c-0.5,1-2.9,6.6-3.6,8.1c-0.7,1.9-0.2,2.9,1.7,2.9c2.1,0,3.6-1.4,4.8-3.3c1-1.9,2.8-6.4,3.3-8h4
						c-2.1,4.7-4.2,9.4-5.9,14h-3.6V652.4z M353.7,638.4l-0.7,1.9c1.4-1.4,2.8-2.3,4.7-2.3c0.3,0,0.9,0,1.2,0.2l-1,3.3
						c-0.5-0.2-0.9-0.3-1.4-0.3c-2.1,0-3.6,1.4-4.8,3.3c-0.9,1.6-1.9,4.5-2.6,6.1l-0.7,1.7h-4c1.7-4,3.5-7.8,5.7-14h3.6V638.4z
						 M371.9,652.1l0.9-3.1c1,0.5,2.3,1,3.6,1c0.9,0,2.3-0.3,2.6-1.4c0.7-1.9-4-3.5-2.8-6.8c0.9-2.3,2.9-3.8,6.8-3.8
						c1.4,0,2.8,0.2,4,0.3l-0.9,2.9c-0.9-0.3-1.7-0.7-2.8-0.7c-1.2,0-2.4,0.2-2.8,1.4c-0.7,1.7,4,3.5,2.8,6.9
						c-1,2.9-4.7,3.8-6.9,3.8C374.7,652.8,373.3,652.4,371.9,652.1 M323.6,641c-0.7-0.2-1.4-0.2-2.1-0.2c-4.8,0-6.8,3.8-7.3,5.4
						c-0.9,2.3-0.2,3.6,2.1,3.6c2.1,0,4-1.7,5-3.8C322.2,644.5,322.9,642.7,323.6,641 M307.5,658.3l0.9-3.1c1.6,0.7,3.1,1,5,1
						c4.2,0,5.2-3.1,6.4-6.2c-1.7,1.6-3.8,2.4-5.7,2.4c-3.8,0-5.2-2.4-3.8-6.1c0.9-2.4,4.2-8.3,12.5-8.3c2.1,0,4,0.3,5.7,0.7
						c-1.4,2.9-3.6,8.1-6.1,14.5c-1.7,4.5-4.8,5.7-9,5.7C311.3,659,309.2,658.7,307.5,658.3 M299.4,643.6h6.4
						c0.9-2.1,0.5-3.3-1.7-3.3C302.1,640.3,300.2,641.9,299.4,643.6 M308.5,645.5h-10l-0.2,0.5c-1,2.6,0.3,4.2,2.8,4.2
						c1.6,0,3.3-0.3,5-0.9l-1.6,2.9c-1.6,0.3-3.3,0.5-4.7,0.5c-7.3,0-6.1-4.8-5.2-6.9c0.9-2.6,3.8-7.8,10.4-7.8
						c3.8,0,5.7,1.9,4.3,5.9C309.1,644.5,308.9,645.2,308.5,645.5 M366.4,640.8c-2.9,0-4.8,2.4-5.9,5c-0.9,2.3-0.3,4.2,2.1,4.2
						c2.8,0,4.8-2.4,5.7-4.8C369.1,642.7,368.8,640.8,366.4,640.8 M367.4,638.1c4.3,0,6.6,2.6,4.8,7.1c-1,2.8-4.3,7.6-10.7,7.6
						c-5.7,0-6.1-4-4.8-6.9C358.4,640.8,362.7,638.1,367.4,638.1"/>
				</g>
			</g>
		</g>
		<g>
			<g>
				<g>
					<g>
						<path fill="#EC6C4B" d="M333.8,590.9h8.5c-3.5,8.7-6.4,17.3-10,29.3h-8.7C327.4,610.3,330.7,600.6,333.8,590.9z"/>
						<polygon fill="#EC6C4B" points="343.9,586.2 335.5,586.2 337.4,580.7 345.8,580.7 						"/>
						<path fill="#EC6C4B" d="M299.9,590.7h8.5c-3.5,8.7-6.4,17.3-10,29.1h-8.7C293.5,610.3,296.8,600.6,299.9,590.7z"/>
						<polygon fill="#EC6C4B" points="309.9,586.2 301.6,586.2 303.5,580.7 312,580.7 						"/>
						<path fill="#EC6C4B" d="M151.1,613.6l-2.4,6.4l-27.4-0.2c5.4-13,9.9-26,14-39.1h9.2c-1.4,3.5-9.4,25.5-11.8,32.9h7.1
							C143.7,613.8,147.5,613.8,151.1,613.6z"/>
						<path fill="#EC6C4B" d="M384.7,615.1l-2.9,5c-1.9,0.3-3.6,0.5-5.5,0.5c-9.4,0-8.7-5.7-7.8-8.3c3.6-11.9,23-8,24.9-14.4
							c0.9-2.8-2.3-3.3-4.3-3.3c-4,0-8.1,1-12.1,2.4l2.6-5.4c4.5-1,8.8-1.7,13.2-1.7c5.2,0,10.9,1.2,9,7.6
							c-1.2,4.2-5.2,13.5-7.8,22.3h-8.1c1-2.6,2.1-5.2,5.7-15.1c-3.8,2.8-13.5,2.4-15.2,7.6c-0.9,2.8,1.6,3.5,3.8,3.5
							C381.4,616,383,615.7,384.7,615.1z"/>
						<path fill="#EC6C4B" d="M351.8,590.9v21.6l15.1-21.5h8.5c-7.4,9.7-14.9,19.4-22,29.1h-8.8c-0.2-9.9-0.7-19.4-1.2-29.3H351.8z"
							/>
						<path fill="#EC6C4B" d="M328.6,596.8h-7.3c-0.9,2.4-4.2,11.4-4.8,13.5c-0.7,2.4-0.9,4.5,1.7,4.5c2.3,0,3.5-0.3,4.8-0.7
							l-2.9,6.1c-2.4,0.5-4.7,0.9-6.8,0.9c-5.5,0-7.6-1.9-5.9-7.6c0.9-2.9,5.5-15.2,6.1-16.6h-4.2l2.1-5.7h4.3l1.9-5.4l8-1.6
							l-2.4,6.9h7.3L328.6,596.8z"/>
						<path fill="#EC6C4B" d="M264.7,620l1.4-6.4c2.4,1,4.8,2.3,7.6,2.3c1.7,0,4.7-0.5,5.4-2.9c1.2-4.2-8.8-7.4-6.8-14.2
							c1.6-4.8,5.9-8,13.5-8c2.9,0,5.7,0.3,8.3,1l-1.6,6.1c-1.6-0.9-3.5-1.6-5.9-1.6c-2.4,0-5,0.2-5.7,2.8c-1,3.6,8.8,7.3,6.6,14.5
							c-1.9,6.1-9.2,8-14,8C270.6,621.2,267.5,620.7,264.7,620z"/>
						<path fill="#EC6C4B" d="M215.5,603.9l0.3-5.7c1,0.2,2.1,0.3,3.1,0.3c5.4,0,8.8-2.4,10.2-6.8c1.2-3.8-0.5-4.8-4.7-4.8
							c-2.1,0-4.2,0.2-6.4,0.3c-1.4,3.8-8.1,23.4-11.3,33.1h-8.5c2.9-6.8,10.7-29.4,13.7-39.1l18.5,0.2c7.8,0,8.1,6.2,6.9,10.2
							c-2.6,8.1-10.4,12.6-18,12.6C218.3,604.2,216.9,604.1,215.5,603.9z"/>
						<path fill="#EC6C4B" d="M169.7,615.3l-2.9,5c-1.9,0.3-3.6,0.5-5.5,0.5c-9.4,0-8.7-5.7-7.8-8.3c3.6-11.9,23-8,24.9-14.4
							c0.9-2.8-2.1-3.3-4.3-3.3c-4,0-8.1,1-12.1,2.4l2.6-5.5c4.5-1,8.8-1.7,13.2-1.7c5.2,0,10.9,1.2,9,7.6c-1.2,4.2-5.2,13.5-8,22.2
							h-8.1c1-2.6,2.1-5.2,5.7-15.1c-3.8,2.6-13.5,2.4-15.2,7.6c-0.9,2.8,1.6,3.5,3.8,3.5C166.4,616.2,167.9,615.8,169.7,615.3z"/>
						<g>
							<g>
								<path fill="#EC6C4B" d="M255.7,590.6c-9.7,0-18.4,5.9-21.5,15.9c-1.9,6.4-0.7,14.5,11.1,14.5c13.5,0,19.6-10,21.3-15.8
									C269.7,595.9,264.9,590.6,255.7,590.6z M254,596.3c5.4,0,6.2,4,4.7,8.8c-1.6,5.2-5.5,10.2-11.4,10.2c-5,0-6.4-4-4.8-8.7
									C243.9,601.3,247.8,596.3,254,596.3z"/>
							</g>
							<g>
								<path fill="#EC6C4B" d="M169.7,615.3c-1.6,0.5-3.3,0.9-4.8,0.9c-2.4,0-4.7-0.7-3.8-3.5c1.6-5.2,11.3-4.8,15.2-7.6
									c-3.6,9.9-4.5,12.5-5.7,15.1h8.1c2.8-8.8,6.6-18,7.8-22.2c1.9-6.4-3.8-7.6-9-7.6c-4.3,0-8.7,0.7-13.2,1.7l-2.6,5.5
									c4-1.4,8.3-2.4,12.1-2.4c2.3,0,5.2,0.3,4.3,3.3c-1.9,6.4-21.3,2.4-25.1,14.4c-0.9,2.6-1.6,8.3,7.8,8.3
									c1.9,0,3.6-0.2,5.5-0.5L169.7,615.3z"/>
							</g>
							<g>
								<path fill="#EC6C4B" d="M215.5,603.9c1.4,0.2,2.8,0.3,4.2,0.3c7.8,0,15.4-4.5,18-12.6c1.2-4.2,0.9-10.2-6.9-10.2l-18.5-0.2
									c-3.1,9.9-10.9,32.4-13.7,39.1h8.5c3.1-9.9,9.9-29.4,11.3-33.1c2.3-0.2,4.2-0.3,6.4-0.3c4.2,0,5.9,1,4.7,4.8
									c-1.4,4.3-4.8,6.8-10.2,6.8c-1,0-2.1-0.2-3.1-0.3L215.5,603.9z"/>
							</g>
							<g>
								<path fill="#EC6C4B" d="M264.7,620c2.8,0.7,5.7,1.2,9,1.2c4.8,0,12.1-1.9,14-8c2.3-7.3-7.8-10.7-6.6-14.5
									c0.9-2.6,3.3-2.8,5.7-2.8c2.3,0,4.2,0.7,5.9,1.6l1.6-6.1c-2.8-0.5-5.5-0.9-8.3-0.9c-7.6,0-11.9,3.3-13.5,8
									c-2.1,6.8,8,10,6.8,14.2c-0.7,2.4-3.6,3.1-5.4,3.1c-2.9,0-5.4-1-7.6-2.3L264.7,620z"/>
							</g>
							<g>
								<path fill="#EC6C4B" d="M328.6,596.8l2.1-5.7h-7.3l2.4-6.9l-8,1.6l-1.9,5.4h-4.3l-2.1,5.7h4.2c-0.5,1.4-5.2,13.5-6.1,16.6
									c-1.7,5.7,0.3,7.6,5.9,7.6c2.3,0,4.5-0.3,6.8-0.9l2.9-6.1c-1.6,0.3-2.6,0.7-4.8,0.7c-2.6,0-2.4-2.1-1.7-4.5
									c0.7-2.1,4-10.9,4.8-13.5H328.6z"/>
							</g>
							<g>
								<path fill="#EC6C4B" d="M351.8,590.9h-8.3c0.3,9.7,1,19.4,1.2,29.3h8.8c7.1-9.9,14.5-19.6,22-29.1h-8.5l-14.9,21.5H352
									v-21.6H351.8z"/>
							</g>
							<g>
								<path fill="#EC6C4B" d="M384.7,615.1c-1.6,0.5-3.3,0.9-4.8,0.9c-2.3,0-4.7-0.7-3.8-3.5c1.6-5.2,11.3-4.8,15.2-7.6
									c-3.6,9.9-4.5,12.5-5.7,15.1h8.1c2.8-8.8,6.6-18.2,8-22.3c1.9-6.4-3.8-7.6-9-7.6c-4.3,0-8.7,0.7-13.2,1.7l-2.6,5.4
									c4-1.4,8.3-2.4,12.1-2.4c2.3,0,5.2,0.5,4.3,3.3c-1.9,6.4-21.3,2.4-24.9,14.4c-0.9,2.6-1.6,8.3,7.8,8.3
									c1.9,0,3.6-0.2,5.5-0.5L384.7,615.1z"/>
							</g>
							<g>
								<path fill="#EC6C4B" d="M151.1,613.8c-3.8,0.2-7.4,0.2-11.3,0.2h-7.1c2.6-7.4,10.6-29.4,11.8-32.9h-9.2
									c-4.3,13.2-8.8,26.1-14,39.1l27.4,0.2L151.1,613.8z"/>
							</g>
							<g>
								<polygon fill="#EC6C4B" points="309.9,586.2 311.8,580.7 303.5,580.7 301.6,586.2 								"/>
							</g>
							<g>
								<path fill="#EC6C4B" d="M299.9,590.7c-3.1,9.7-6.4,19.6-10.4,29.3h8.7c3.6-11.8,6.8-20.4,10.2-29.3H299.9z"/>
							</g>
							<g>
								<polygon fill="#EC6C4B" points="343.9,586.2 345.8,580.7 337.3,580.7 335.5,586.2 								"/>
							</g>
							<g>
								<path fill="#EC6C4B" d="M333.8,590.9c-3.1,9.7-6.4,19.6-10.4,29.1h8.7c3.8-11.8,6.8-20.4,10.2-29.3L333.8,590.9z"/>
							</g>
						</g>
					</g>
					<g>
						<path fill="#EC6C4B" d="M345.8,670.9c-101.5,8.1-189.6-7.4-223.7-36.2c0.2,0.2,0.2,0.5,0.3,0.7c48.1,39.3,149.6,62,267,55.9
							l5.5-26.3C379.2,667.8,362.7,669.7,345.8,670.9z"/>
					</g>
					<path fill="#EC6C4B" d="M295.7,633l-0.9,3.3c-1-0.5-2.3-0.9-3.6-0.9c-1.7,0-3.3,0.9-3.8,2.1c-1,2.9,5.4,4.8,3.8,9.4
						c-0.7,2.1-3.3,5-8.5,5c-1.7,0-3.5-0.3-5-0.7l1-3.5c1.2,0.7,2.8,1.2,4.5,1.2c1.4,0,3.3-0.5,3.8-2.1c1-2.9-5.4-5-3.6-9.5
						c1.2-3.3,5-4.8,8.3-4.8C293.1,632.5,294.5,632.6,295.7,633 M336.8,651.7l0.7-2.3c-1.7,1.9-3.8,2.6-6.1,2.6
						c-2.8,0-4.7-1.2-3.5-4.3c0.9-2.4,2.3-5.2,4.2-10h4c-0.5,1-2.9,6.6-3.6,8.1c-0.7,1.9-0.2,2.9,1.7,2.9c2.1,0,3.6-1.4,4.8-3.3
						c1-1.9,2.8-6.4,3.3-8h4c-2.1,4.7-4.2,9.4-5.9,14h-3.6V651.7z M353.7,637.7l-0.7,1.9c1.4-1.4,2.8-2.3,4.7-2.3
						c0.3,0,0.9,0,1.2,0.2l-1,3.3c-0.5-0.2-0.9-0.3-1.4-0.3c-2.1,0-3.6,1.4-4.8,3.3c-0.9,1.6-1.9,4.5-2.6,6.1l-0.7,1.7h-4
						c1.7-4,3.5-7.8,5.7-14h3.6V637.7z M371.9,651.3l0.9-3.1c1,0.5,2.3,1,3.6,1c0.9,0,2.3-0.3,2.6-1.4c0.7-1.9-4-3.5-2.8-6.8
						c0.9-2.3,2.9-3.8,6.8-3.8c1.4,0,2.8,0.2,4,0.3l-0.9,2.9c-0.9-0.3-1.7-0.7-2.8-0.7c-1.2,0-2.4,0.2-2.8,1.4
						c-0.7,1.7,4,3.5,2.8,6.9c-1,2.9-4.7,3.8-6.9,3.8C374.7,652,373.3,651.7,371.9,651.3 M323.6,640.3c-0.7-0.2-1.4-0.2-2.1-0.2
						c-4.8,0-6.8,3.8-7.3,5.4c-0.9,2.3-0.2,3.6,2.1,3.6c2.1,0,4-1.7,5-3.8C322.2,643.7,322.9,642,323.6,640.3 M307.5,657.6l0.9-3.1
						c1.6,0.7,3.1,1,5,1c4.2,0,5.2-3.1,6.4-6.2c-1.7,1.6-3.8,2.4-5.7,2.4c-3.8,0-5.2-2.4-3.8-6.1c0.9-2.4,4.2-8.3,12.5-8.3
						c2.1,0,4,0.3,5.7,0.7c-1.4,2.9-3.6,8.1-6.1,14.5c-1.7,4.5-4.8,5.7-9,5.7C311.3,658.3,309.2,657.9,307.5,657.6 M299.4,642.8h6.4
						c0.9-2.1,0.5-3.3-1.7-3.3C302.1,639.6,300.2,641.1,299.4,642.8 M308.5,644.8h-10l-0.2,0.5c-1,2.6,0.3,4.2,2.8,4.2
						c1.6,0,3.3-0.3,5-0.9l-1.6,2.9c-1.6,0.3-3.3,0.5-4.7,0.5c-7.3,0-6.1-4.8-5.2-6.9c0.9-2.6,3.8-7.8,10.4-7.8
						c3.8,0,5.7,1.9,4.3,5.9C309.1,643.7,308.9,644.4,308.5,644.8 M366.4,640.1c-2.9,0-4.8,2.4-5.9,5c-0.9,2.3-0.3,4.2,2.1,4.2
						c2.8,0,4.8-2.4,5.7-4.8C369.1,642,368.8,640.1,366.4,640.1 M367.4,637.3c4.3,0,6.6,2.6,4.8,7.1c-1,2.8-4.3,7.6-10.7,7.6
						c-5.7,0-6.1-4-4.8-6.9C358.4,640.1,362.7,637.3,367.4,637.3"/>
				</g>
			</g>
		</g>
	</g>
</g>
</svg>
