<?xml version="1.0" encoding="utf-8"?>
<!-- Generator: Adobe Illustrator 18.0.0, SVG Export Plug-In . SVG Version: 6.00 Build 0)  -->
<!DOCTYPE svg PUBLIC "-//W3C//DTD SVG 1.1//EN" "http://www.w3.org/Graphics/SVG/1.1/DTD/svg11.dtd">
<svg version="1.1" xmlns="http://www.w3.org/2000/svg" xmlns:xlink="http://www.w3.org/1999/xlink" x="0px" y="0px"
	 viewBox="0 0 400 600" enable-background="new 0 0 400 600" xml:space="preserve">
<g id="Capa_1">
</g>
<g id="Capa_2">
	<g>
		<g>
			<path fill="#C6C5C6" d="M128.6,570.8H71.4c-2.8,0-5-2.4-4.7-5.2l4.4-41.4h58.7l3.6,41.5C133.6,568.4,131.4,570.8,128.6,570.8z"/>
			<path fill="#B5B4B5" d="M80,510.6l-8.9,13.6h58.7l-10.4-13.9c-0.7-0.9-1.7-1.4-2.9-1.4l-33.6,0.1C81.8,509,80.6,509.6,80,510.6z"
				/>
			<g>
				<rect x="83.8" y="171.2" fill="#DFB02D" width="31.5" height="346.8"/>
				<path fill="#E4B92F" d="M138.3,201.1H60.7c-9.3,0-16.9-7.6-16.9-16.9V49.7h111.3v134.5C155.2,193.5,147.7,201.1,138.3,201.1z"/>
				<circle fill="#DC4A4B" cx="98.2" cy="93" r="24.6"/>
				<circle fill="#FFFFFF" cx="99.1" cy="159" r="24.6"/>
				<path fill="#CD9F2C" d="M52.3,39.7l-8.5,10.1h111.3l-8.6-10.1c-1.8-2.1-4.4-3.3-7.1-3.3h-80C56.7,36.3,54.1,37.6,52.3,39.7z"/>
			</g>
		</g>
		<path opacity="0.42" fill="#FFFFFF" d="M104.4,75.5c-1.3,0.2-3.7,3-3.3,4.3c0.8,2.6,5.1,1.7,9.3,5.7c3.7,3.5,4.1,8.7,4.1,8.7
			s5.7-6.4,1-11.9C110.8,76.7,107.7,75,104.4,75.5z"/>
		<path opacity="0.42" fill="#FFFFFF" d="M128.3,57.6c-0.1-2.1,22.3-2.5,22.3,1.4c0,6.7-0.1,26.9-2.4,26.4
			c-2.2-0.5-0.7-17.8-4.8-22.5C140.9,60.1,128.5,61.4,128.3,57.6z"/>
	</g>
	<g>
		<g>
			<path fill="#C6C5C6" d="M328.6,570.8h-57.2c-2.8,0-5-2.4-4.7-5.2l4.4-41.4h58.7l3.6,41.5C333.6,568.4,331.4,570.8,328.6,570.8z"
				/>
			<path fill="#B5B4B5" d="M280,510.6l-8.9,13.6h58.7l-10.4-13.9c-0.7-0.9-1.7-1.4-2.9-1.4l-33.6,0.1
				C281.8,509,280.6,509.6,280,510.6z"/>
			<g>
				<rect x="283.8" y="171.2" fill="#DFB02D" width="31.5" height="346.8"/>
				<path fill="#E4B92F" d="M338.3,201.1h-77.6c-9.3,0-16.9-7.6-16.9-16.9V49.7h111.3v134.5C355.2,193.5,347.7,201.1,338.3,201.1z"
					/>
				<circle fill="#FFFFFF" cx="298.2" cy="93" r="24.6"/>
				<circle fill="#78B83C" cx="299.1" cy="159" r="24.6"/>
				<path fill="#CD9F2C" d="M252.3,39.7l-8.5,10.1h111.3l-8.6-10.1c-1.8-2.1-4.4-3.3-7.1-3.3h-80C256.7,36.3,254.1,37.6,252.3,39.7z
					"/>
			</g>
		</g>
		<path opacity="0.42" fill="#FFFFFF" d="M304.4,140.5c-1.3,0.2-3.7,3-3.3,4.3c0.8,2.6,5.1,1.7,9.3,5.7c3.7,3.5,4.1,8.7,4.1,8.7
			s5.7-6.4,1-11.9C310.8,141.7,307.7,140,304.4,140.5z"/>
		<path opacity="0.42" fill="#FFFFFF" d="M328.3,57.6c-0.1-2.1,22.3-2.5,22.3,1.4c0,6.7-0.1,26.9-2.4,26.4
			c-2.2-0.5-0.7-17.8-4.8-22.5C340.9,60.1,328.5,61.4,328.3,57.6z"/>
	</g>
</g>
</svg>
